<svg id="svg13195" xmlns="http://www.w3.org/2000/svg" xmlns:xlink="http://www.w3.org/1999/xlink" viewBox="0 0 110 110"><defs><style>.cls-1{fill:#520;fill-opacity:0;}.cls-2{fill:#76797e;}.cls-2,.cls-3{opacity:0.85;}.cls-10,.cls-11,.cls-12,.cls-13,.cls-14,.cls-2,.cls-3,.cls-4,.cls-5,.cls-6,.cls-7,.cls-8,.cls-9{isolation:isolate;}.cls-3{fill:url(#linear-gradient);}.cls-4,.cls-7{fill:#999;}.cls-4,.cls-9{opacity:0.9;}.cls-5{fill:#666;}.cls-5,.cls-6,.cls-7{opacity:0.8;}.cls-6{fill:#ccc;}.cls-8{opacity:0.95;fill:url(#linear-gradient-2);}.cls-9{fill:#a6a7a7;}.cls-10{fill:#b3b3b3;}.cls-10,.cls-12,.cls-14{opacity:0.5;}.cls-11{fill:#9c9ea0;opacity:0.67;}.cls-12{fill:#959798;}.cls-13{fill:gray;opacity:0.6;}.cls-14{fill:#dbe3e2;}.cls-15{fill:#6f8a91;}</style><linearGradient id="linear-gradient" x1="-664.52" y1="-582.39" x2="-528.13" y2="-539.89" gradientTransform="matrix(0.66, 0, 0, -0.66, 457.32, -318.41)" gradientUnits="userSpaceOnUse"><stop offset="0" stop-color="#57646d"/><stop offset="1" stop-color="#57646d" stop-opacity="0"/></linearGradient><linearGradient id="linear-gradient-2" x1="-936.74" y1="-359.11" x2="-947.98" y2="-302.96" gradientTransform="matrix(0.66, 0, 0, -0.66, 663.94, -166.77)" gradientUnits="userSpaceOnUse"><stop offset="0" stop-color="#ccc"/><stop offset="1" stop-color="gray"/></linearGradient></defs><g id="layer1"><g id="overcast"><rect id="rect6733" class="cls-1" width="110" height="110"/><g id="g5929"><path id="path5931" class="cls-2" d="M54.93,68.16c1.77,2.38,5.77,2.27,8.71,1.85,1.75-.25,3.08-1.76,4.69-2.52a21.56,21.56,0,0,1,4.52-1.84c3.83-.8,11.73-.33,11.73-.33s-10.11,2.41-10.22-1c0-1.41,2.79-.45,4.19-.67s4,2,4.36-.67-.51-2.34.5-2.68a20.58,20.58,0,0,0,2.51-1.17s-2.62-2.1-4-3c-1.23-.81-3.42-.77-3.85-2.18s.8-2.78,1.84-3.68c.8-.7,3.35-.34,3-1a10.54,10.54,0,0,0-2.35-3,17,17,0,0,0-5-2.18,25,25,0,0,0-5-1.34,24.53,24.53,0,0,0-4,0c-1.9,0-4-.45-5.7.33a8.75,8.75,0,0,0-4.19,4.19c-2.93,6.36-5.86,15.33-1.67,20.94Z" transform="translate(0 0)"/><path id="path5933" class="cls-3" d="M43.79,48.09c1.46-1.76,3.65-2.87,5-4.74.45-.63.49-1.5,1-2.13.62-.86,1.34-2.38,2.37-2.13,1.31.32.4,2.91,1.42,3.79a4.54,4.54,0,0,0,3.32.71c1-.09,2.32-.3,2.84-1.19.37-.61-.52-1.47-.23-2.13.21-.49-1.88-1,1.3-1,1.14,0,3.06,1,4.62.83,1.37-.1,5.15-1.12,3.91-1.3,1,1.95-3,3.27-4.62,4.74-.67.6-2.36.78-2.13,1.66s1.88.56,2.84.47a9.57,9.57,0,0,0,3.32-1.18c1-.51,1.72-1.69,2.84-1.9s2,.52,3.08.71,2.53,1.1,3.55.48a2.39,2.39,0,0,0,1-2.61c-.28-.76-1.56-.61-2.13-1.18s-2-1.8-1.42-2.61c.87-1.24,3,.67,4.5.71.71,0,1.43-.36,2.13-.24.18,0,.43.07.48.24.25.88-1.34,1.45-1.43,2.37-.12,1.34,1.84,2.51,1.43,3.79-.35,1.08-1.8,1.46-2.85,1.9a34.3,34.3,0,0,1-3.55.71A44.79,44.79,0,0,0,70.56,49c-.65.28-2,.25-1.89,1,.19,1.69,3.27,1.28,5,1.18,2.1-.12,3.83-2.11,5.93-2.13a6.65,6.65,0,0,1,2.84,1c1.44.69,2.45,2.34,4,2.6s3.12-1,4.74-1.18c1.17-.15,2.58-.68,3.55,0s1.79,2.31,1.18,3.32c-1.1,1.84-4.24.92-6.39.94-1.83,0-4.88-2.45-5.45-.71-.51,1.55,2.72,1.85,4.26,2.37a15.13,15.13,0,0,0,6.16,1,13.63,13.63,0,0,0,2.85-1c.55-.17,1.25-.88,1.66-.47.75.77-.22,2.29-1,3.08-1,1.12-2.77,1.38-4.27,1.66a13,13,0,0,1-3.79,0c-1.77-.2-3.44-1-5.21-1.19a17.65,17.65,0,0,0-3.56,0,31.13,31.13,0,0,0-5,1c-1.45.38-2.79,1.18-4.27,1.42-1.09.18-2.72.93-3.31,0-.71-1.1,2.29-2.41,1.65-3.55-.92-1.67-3.8-1-5.68-.71a10.58,10.58,0,0,0-4.74,2.37c-1.09.89-1.28,2.85-2.61,3.31-2.29.81-4.7-1.26-7.11-1.66-4.93-.8-12.76,3.09-14.92-1.42-2.25-4.68,5.2-9,8.53-13Z" transform="translate(0 0)"/><path id="path5935" class="cls-4" d="M47.72,53.92l5,1,4,1.34,4,.33,3.35-.33a2.51,2.51,0,0,1,1.68-1c1.34-.33.67-.33,2-.67a27.46,27.46,0,0,0,3-1l1-.67s0-.67-1.68-1-2.34-3.35-2.34-3.35a5.19,5.19,0,0,0-3.69-.33c-1.67.67-3.35,2-5.36,2.34s-6-.67-6-.67l-3,2Z" transform="translate(0 0)"/><path id="path5937" class="cls-5" d="M24.77,62l3.52-1.34,2.84,1.17a2.94,2.94,0,0,1,1.51-1.17c.84-.17,2.52.83,3.19.83s-3.69,0,2,.34,5.53,1,5.36.17-2.18-2.69.5-2.18l2.68.5,4-1,4.53,2.18,2,.17a18.31,18.31,0,0,1,3.85,1c.84.5,3.85.33.84.5s-2.52-1.17-4.19.5a7.91,7.91,0,0,1-4.36,2.51c-.83,0-2.68-.5-4.19-.5s-2.68-.33-3.35.17S44.37,67.66,43,67.33,38,66,38,66H36.33l-3-.67a1.71,1.71,0,0,0-1-1.18,15.85,15.85,0,0,0-3-.5l-2-.17Z" transform="translate(0 0)"/><path id="path5939" class="cls-6" d="M54.26,53.59l9.55,1s3.51-1.84,4-1.67,3.35,1,3.35,1,3.68-.16,4.52-.33,6.7-.84,6.7-.84,4.36,2.35,5,2.35,8.88.83,8.88.83L107,57.61,96.81,59l-10.89-.34-5.69-.16-12.07,2-8-1.18L46.21,60.46Z" transform="translate(0 0)"/><path id="path5941" class="cls-7" d="M40,61.3c1.51,2.08,5.19.5,7.71,0,1.43-.29,2.57-1.61,4-1.68S54.59,60.81,56.1,61a10.25,10.25,0,0,0,3.35-.33c1.75-.43,3.25-1.67,5-2a27.15,27.15,0,0,1,5,0,21.65,21.65,0,0,0,3.69,0c2-.34,3.71-1.67,5.7-2,1.32-.22,3.21,1.07,4,0,.49-.65,3.57-.6,2.88-1-1.24-.79-6.51-.17-7.91-.63-.9-.3-6.89.33-3.79-2.25-.72-4.17-5.16,4-8.94,3.92-1.56,0-4.37-.12-4.36-1.67,0-1.31,2.88-.31,3.69-1.34s1-2.49.33-3.35c-.86-1-2.7-.07-4-.34-3.22-.64-6.58-1.3-9.38-3-1.08-.66-1.42-2.71-2.68-2.68-2.29,0-3.52,3-4.69,5C41.87,52.88,37.54,57.86,40,61.3Z" transform="translate(0 0)"/><path id="path5943" class="cls-8" d="M52.78,37.43c-2.63,0-3.28,5-5.9,5.22-1.21.1-1.89-1.79-3.09-1.91-4.63-.43-8.44,4.33-13,5-1.81.25-3.65-.83-5.44-.48-2.18.44-7.88.45-7.35,2.62.38,1.53,5.68-1,6.15.47s-2.91,1.34-3.77,2.61c-.41.61.1,1.67-.48,2.12-2.18,1.7-4.12.79-6.87,1.07S3.58,52,3.5,54.72c0,1.4,2.74.64,4,1.2a7.62,7.62,0,0,1,2.38,1.41c.33.32.3,1,.7,1.18,2.25,1.18,5.07-.66,7.59-.48a23,23,0,0,1,5.68,1.21c2.65.88,4.94,2.67,7.59,3.54,1.15.38,2.86-.29,3.55.71.87,1.24-1.85,3.5-.71,4.5,1.43,1.24,3.58-1.38,5.45-1.66a19.58,19.58,0,0,1,5.46,0,22.41,22.41,0,0,1,5.2,1.43c1.41.56,2.62,1.55,4,2.13C57.19,71,60.05,73,63,72.51c2.18-.35,19.67-5.41,5.45-3.8-.41-2.51-1.77.54-7.36-2.13-1.36-.65-3.65,1-4.5-.25-.7-1,.32-2.64,1.18-3.55s3.2-.21,3.57-1.43c.27-.92-1-1.65-1.66-2.36-.84-.91-1.61-2.27-2.84-2.37-1.55-.12-2.69,1.6-4,2.37a8.69,8.69,0,0,1-2.59,1.43c-1.42.24-3.31.35-4.27-.73s.06-3-.25-4.5c-.13-.66-1-1.29-.7-1.88.89-1.64,3.65-.74,5.45-1.19,3.11-.77,6.18-1.68,9.25-2.61,2.22-.67,2.61-1.31,6.63-2.13.61-1,7.38-1.8,6.39-2.48s-9.8-.62-11.14-.36c-1.5.29-3,.68-4.49,1s-3.77,1.86-5,.71-.17-3.3.48-4.75c1.32-1.24,9.45,1.19.22-4ZM23.88,56.27l2.62.35,3.19,1.19,1.89.6,1.55.7-.6.58L31,59.34l-2.26-.58L27,57.68l-2.38-1.06Z" transform="translate(0 0)"/><path id="path5945" class="cls-4" d="M35.66,66.66c1.87.48,3.18,0,4.69,0s3-.23,4.36-.34a34.39,34.39,0,0,0,4-.33c1.4-.27,3.33-.56,4.35-1.34S55.4,63.3,54.76,62s-4.24-.2-5.7-.67-1.79-1.16-3-1.68-3-1.48-4.36-1.34-2,.95-3,1.67-1.47,2-3,2.69-5.61-1.45-6,.67,4.16,2.86,6,3.35Z" transform="translate(0 0)"/><path id="path5947" class="cls-9" d="M71.18,49.9l4,1.68,2.68-1.68,2.68.67,3.69,1.68,3,1a3.13,3.13,0,0,1-2.34.34c-1.34-.34-4.36-.67-4.36-.67l-4.36,2-2.68-.67-2.34-1.34Z" transform="translate(0 0)"/><path id="path5949" class="cls-10" d="M52.92,60.12l4.69-.33,3.35.67,5-.17,4.7-.67-4-.5s-2.51.16-3.51.33-3.69-.67-4.53-.67H56.1a8.35,8.35,0,0,0-3.18,1.34Z" transform="translate(0 0)"/><path id="path5951" class="cls-11" d="M55.09,42.53l1.68-1,.5-1.5,1.68.5.67.33v2H58.28l-1.85,1.34Z" transform="translate(0 0)"/><path id="path5953" class="cls-12" d="M70.51,58.45l4.69-.34,3.35.67,5-.17,4.69-.67-4-.5s-2.52.17-3.52.34-3.69-.67-4.53-.67H73.69a8.35,8.35,0,0,0-3.18,1.34Z" transform="translate(0 0)"/><path id="path5955" class="cls-12" d="M65.48,44.88l4.69-.34,3.35.67,5-.17,4.69-.67-4-.5s-2.51.17-3.52.34-3.68-.67-4.52-.67H68.66a8.35,8.35,0,0,0-3.18,1.34Z" transform="translate(0 0)"/><path id="path5957" class="cls-10" d="M51.07,66.32,55.76,66l3.35.67,5-.17,4.69-.67-4-.5s-2.51.16-3.52.33S57.61,65,56.77,65H54.26a8.34,8.34,0,0,0-3.19,1.34Z" transform="translate(0 0)"/><path id="path5959" class="cls-12" d="M11.87,59.79l4.69-.34,3.35.67,5-.17,4.69-.67-4-.5s-2.52.17-3.52.34-3.69-.67-4.53-.67H15.05a8.35,8.35,0,0,0-3.18,1.34Z" transform="translate(0 0)"/><path id="path5961" class="cls-13" d="M30.8,51.91l2.68-1.67,1.84.16,3-1H42l2.84-.34-1.5,2.18-2.69-.5-3.18.67-2.85,1Z" transform="translate(0 0)"/></g></g><path id="path6396" class="cls-14" d="M35,83.53c.11-.12.06-.11.43-.08l.39,0c.08,0,.11,0,.19-.08l.07-.06-.07,0-.17,0-.48-.12,0,0,0,0,0-.07a.22.22,0,0,1,.11-.09,1.71,1.71,0,0,1,.34,0l.24,0,.37,0c.06,0,.06,0,.13,0s.08-.1,0-.08l-.09,0-.19-.06-.13,0,.16-.15.16-.15a.65.65,0,0,0-.22-.08l-.38.2c-.5.27-.49.26-.57.24s-.11,0-.11-.09.06-.1.28-.27l.26-.22s0,0,0,0l-.23-.1-.1,0-.16.1-.3.16a.23.23,0,0,1-.23,0s0,0,0-.06,0-.12.23-.28l.19-.16-.18-.08c-.2-.09-.23-.11-.26-.21l0-.08.06-.06c.11-.11.1-.11.31-.06l.19,0s0-.12-.07-.25L35.05,81l0-.06,0-.06h.07c.1,0,.13,0,.15,0l.18.35c.17.34.16.33.22.35s.14,0,.15,0l-.09-.28c-.15-.43-.14-.38-.11-.46l0-.06h.08a.15.15,0,0,1,.12,0,7.77,7.77,0,0,1,.4.7c.1.2.11.21.17.22l.11,0,.05,0,0-.15-.06-.18c0-.06,0-.11,0-.12a1,1,0,0,1,.32.07l.11,0a1.28,1.28,0,0,0,0-.17.1.1,0,0,0-.05-.06l-.11-.06-.13-.08L36.51,81l-.23-.13c-.29-.16-.29-.16-.31-.29s0,0,0-.09a.15.15,0,0,1,.08,0,1.79,1.79,0,0,1,.43.14l.25.08s0,0,0,0a1,1,0,0,0,0-.12c0-.06,0-.07-.06-.09l-.11-.07-.15-.08-.37-.22a.39.39,0,0,1,0-.18s.11-.13.11-.11h0s.09,0,.34.12l.16.07v0a1.25,1.25,0,0,1,0-.19.8.8,0,0,1,0-.16.55.55,0,0,1,.14-.17s.07,0,.17,0l.07,0,.06.19c0,.11.06.19.06.19a.59.59,0,0,0,.12-.12l.13-.14.07-.08s0,0,.11-.06.12,0,.14.09,0,.06-.19.42l-.17.29-.05.09,0,.12c0,.08,0,.13.05.12l0,0a.59.59,0,0,1,.08-.11l.2-.23.14-.17h.07c.08,0,.1,0,.13.07a.11.11,0,0,1,0,.08.43.43,0,0,0,0,.1l-.07.11c0,.07-.39.67-.4.7a.35.35,0,0,0,0,.12c0,.1,0,.11.05.1l.07,0a2.16,2.16,0,0,1,.23-.22,1.58,1.58,0,0,1,.1.37s0,0,0,0a.32.32,0,0,0,.15-.13s0-.26,0-.54v-.52l.06,0,.07-.06.07,0c.08,0,.08,0,.09.11s0,.12,0,.17l0,.29a.68.68,0,0,0,0,.19l.18-.14a.63.63,0,0,0,0-.17.63.63,0,0,1,0-.17s0-.13,0-.25,0-.29,0-.3l0,0s0,0,.1,0,.08,0,.09.07,0,.19.05.33a.47.47,0,0,0,0,.17l.06,0,.07,0a.4.4,0,0,1,.07-.07l.1-.08a.69.69,0,0,1,.21,0h.06l0,.09c0,.09,0,.14,0,.18a.22.22,0,0,0-.06.07l-.1.12s-.07.07-.07.08l0,0,.38.08a.24.24,0,0,1,.16.09c0,.06,0,.06,0,.15s0,0-.12,0h-.75a.68.68,0,0,0-.17.17,1.84,1.84,0,0,0,.5.1c.21,0,.24,0,.27.08s.05.08,0,.15-.09.09-.28.09-.11,0-.11,0,0,0,0,0,0,0,0,0H38.8a1,1,0,0,0-.31,0c-.08,0-.17.19-.11.17l.09,0,.21.07c.06,0,.12,0,.12.05l0,0-.3.26s0,0,.07.06l.13,0c.06,0,.08,0,.68-.35l.24-.13h.12c.07,0,.08,0,.08,0a.14.14,0,0,1-.06.15l-.09.07a.15.15,0,0,1-.06,0,.05.05,0,0,0,0,0s0,0,0,0l-.07.06s-.11.09-.17.13l-.1.09.21.1a.1.1,0,0,0,.1,0,3.1,3.1,0,0,0,.38-.23c.23-.16.24-.16.31-.15s.11,0,.11.09,0,.08-.24.29l-.17.15s0,0,.22.09.19.08.23.22l0,.1-.07,0c-.15.1-.16.1-.3.08a.72.72,0,0,1-.21,0s0,0,0,0,0,.1.08.23l.08.23,0,.08c0,.09-.06.11-.13.1s-.09,0-.15-.17l-.29-.53s-.05,0-.13-.06l-.13,0a4.72,4.72,0,0,0,.2.52l0,.08,0,.09c-.05.11-.07.12-.16.11s-.09,0-.17-.2-.11-.22-.24-.46-.15-.29-.17-.3l-.11,0h-.1s0,.06,0,.12,0,.15,0,.2a.81.81,0,0,1,0,.09s-.08,0-.25,0-.16,0-.16,0,0,.06,0,.1,0,.08.06.1l.1.07.19.14.28.2.18.11a.19.19,0,0,1,.1.17v.07l-.08,0c-.1,0-.12,0-.44-.13l-.27-.11s0,0,0,.09a.25.25,0,0,0,.09.19s0,0,0,0l.23.21a2.45,2.45,0,0,1,.24.24.15.15,0,0,1,0,.1c0,.06,0,.07,0,.09a.18.18,0,0,1-.17,0,3.33,3.33,0,0,1-.35-.21l-.06,0a.5.5,0,0,0,0,.15c0,.23,0,.22-.16.34l-.06,0-.09,0-.11-.07a.44.44,0,0,1,0-.15v-.22s0,0,0,0l-.11.07-.08,0,0,0-.12.07-.09.06-.06,0a.18.18,0,0,1-.1-.18c0-.08,0-.1.06-.13a.34.34,0,0,0,.11-.07,2.76,2.76,0,0,1,.4-.3s0,0,0-.12,0-.1,0-.11l0,0-.33.31c-.09.09-.12.12-.16.12s-.11,0-.14-.06,0-.11,0-.2l.26-.35c.23-.3.28-.38.27-.43a.5.5,0,0,0,0-.12l0-.07,0,0-.07.06-.11.1-.1.09s0,0-.06-.11a.89.89,0,0,0,0-.19c0-.08,0-.14,0-.14a.51.51,0,0,0-.16.12,1.13,1.13,0,0,0,0,.18s0,0,0,.1,0,.31,0,.56,0,.22-.08.26-.1.07-.15,0-.08-.07-.1-.3a.88.88,0,0,0,0-.22s0-.09,0-.13,0-.13-.09-.07l-.07.06a1,1,0,0,0,0,.35c0,.11,0,.22,0,.23v.12c0,.07,0,.09-.06.13s-.11.09-.18,0-.07,0-.09-.32,0-.24,0-.22l-.14.1a.42.42,0,0,1-.14.09.29.29,0,0,1-.2,0l0,0v-.08c0-.08,0-.15,0-.17a.12.12,0,0,0,.06,0l.12-.13s.08-.07.08-.08l-.25-.07C35,83.7,35,83.69,35,83.6s0,0,0-.07Z" transform="translate(0 0)"/><path id="path6400" class="cls-14" d="M44.41,81.05c.11-.24,0-.21.66-.34l.66-.14c.13,0,.17,0,.26-.21l.08-.14h-.43l-.84,0a.2.2,0,0,1-.09,0l-.08,0,0-.13a.28.28,0,0,1,.12-.18,2.28,2.28,0,0,1,.55-.19l.41-.1.62-.14c.09,0,.09,0,.17-.15s.09-.18,0-.15l-.15,0h-.35a1.39,1.39,0,0,1-.22,0,3.3,3.3,0,0,1,.18-.31l.18-.31a1.38,1.38,0,0,0-.4,0s-.25.23-.51.49c-.68.66-.67.65-.81.66s-.21,0-.23-.09,0-.17.31-.55l.32-.46s0-.07,0-.08a1.46,1.46,0,0,0-.42,0,1.49,1.49,0,0,0-.13.13l-.22.22c-.16.15-.27.27-.4.41a.4.4,0,0,1-.36.16c-.07,0-.08,0-.1-.07s0-.19.21-.54a2.28,2.28,0,0,0,.23-.34l-.32,0c-.39,0-.44,0-.55-.18l-.09-.1.07-.13c.11-.23.11-.23.47-.25a1.43,1.43,0,0,0,.33,0l-.24-.33-.24-.33v-.2l.12,0c.16,0,.21,0,.25,0l.49.45c.46.44.44.42.53.42h.27a3.37,3.37,0,0,0-.29-.39c-.47-.58-.43-.52-.42-.65V76.5l.13,0c.11,0,.15,0,.21,0a11.24,11.24,0,0,1,1,.88c.28.26.3.27.41.25h.27l-.15-.2-.18-.25c-.07-.08-.11-.15-.09-.17a1.38,1.38,0,0,1,.55,0h.2a1,1,0,0,0-.13-.26.23.23,0,0,0-.12-.06l-.19,0-.25-.05-.24,0-.45-.08c-.55-.1-.56-.1-.66-.29s0-.08,0-.15a.29.29,0,0,1,.11-.11,3.19,3.19,0,0,1,.78,0,4,4,0,0,0,.46,0s0,0,0-.07l-.11-.16c-.06-.09-.07-.11-.14-.12l-.23,0-.28-.06c-.27-.05-.67-.13-.71-.15A.5.5,0,0,1,44.2,75s.11-.24.12-.22a0,0,0,0,0,0,0,3.11,3.11,0,0,1,.61,0l.3,0,0-.08-.15-.27c-.07-.11-.12-.21-.13-.23a.91.91,0,0,1,.14-.34.64.64,0,0,1,.3,0h.12l.2.27a1.35,1.35,0,0,0,.21.26l.12-.23.14-.3s0-.1.07-.14,0-.1.15-.15.2,0,.28.07.07.07-.09.74c-.06.21-.11.45-.13.53l0,.15.12.18c.07.1.13.17.14.16s0-.05.05-.09l.09-.21.2-.45.14-.33.1-.06c.12-.06.16-.05.25,0s.06.08,0,.12a.82.82,0,0,0,0,.18c0,.07,0,.17-.05.21S47.2,76,47.2,76.09a.7.7,0,0,0,.09.18c.09.14.1.14.13.11s.06-.06.09-.1a5,5,0,0,1,.26-.46,3.2,3.2,0,0,1,.36.53c0,.07,0,.07.09,0a.61.61,0,0,0,.18-.27s-.13-.41-.29-.84l-.27-.79.07-.12.08-.12.14,0c.13,0,.13,0,.2.12l.14.25.21.42.14.28a2.08,2.08,0,0,0,.23-.31.77.77,0,0,0-.07-.27c0-.12-.08-.25-.09-.26a3.51,3.51,0,0,0-.13-.37c-.11-.33-.14-.46-.09-.49l0-.08c0-.06,0-.06.17,0s.14,0,.18.06a4.42,4.42,0,0,1,.26.49,1.08,1.08,0,0,0,.13.24.32.32,0,0,0,.08-.1l.08-.12a.65.65,0,0,0,.09-.14.68.68,0,0,1,.12-.17,1.14,1.14,0,0,1,.33-.12h.1l.08.12c.09.14.1.22,0,.29a1,1,0,0,0-.06.14,1.78,1.78,0,0,1-.1.23.37.37,0,0,0-.07.16h.08l.66-.07a.48.48,0,0,1,.31.07c.1.06.1.06,0,.24s0,.1-.17.15L50.9,75l-.2,0-.5.13a1.94,1.94,0,0,0-.37.12,1.15,1.15,0,0,0-.2.35,3.82,3.82,0,0,0,.88-.1c.35,0,.4,0,.48,0s.12.09,0,.24-.11.18-.41.28-.18.06-.18.09,0,.08-.06,0a0,0,0,0,0-.06,0l-.09,0-.53.15a2,2,0,0,0-.51.18c-.1.11-.17.36-.09.31h.54a.54.54,0,0,1,.22,0s0,0,0,.09-.33.51-.35.55,0,0,.13,0h.24c.1,0,.14,0,.93-.88a3.78,3.78,0,0,1,.33-.32.4.4,0,0,1,.19,0c.11,0,.14,0,.16,0a.21.21,0,0,1,0,.25l-.1.16a.76.76,0,0,1-.08.11s0,0,0,.06,0,0,0,0-.06,0-.1.11-.13.2-.2.3a1.59,1.59,0,0,0-.12.18,1.52,1.52,0,0,0,.39,0,.2.2,0,0,0,.16-.06,5.84,5.84,0,0,0,.49-.55c.31-.36.31-.36.43-.39s.19,0,.24.09,0,.12-.25.56a3.19,3.19,0,0,0-.19.31s.08,0,.4,0,.35,0,.49.22l.11.14L53,78c-.21.22-.22.23-.46.26a2.11,2.11,0,0,1-.37,0h0l.25.32.26.32,0,.13c0,.17-.05.21-.16.22s-.18,0-.34-.17l-.76-.68s-.1,0-.24,0h-.22a7,7,0,0,0,.6.72l.09.09,0,.17c0,.18,0,.22-.2.24s-.17,0-.38-.22-.3-.29-.63-.58-.41-.38-.45-.38h-.18c-.19,0-.2,0-.18,0a1.24,1.24,0,0,1,.11.17l.18.28a1.32,1.32,0,0,1,.08.14s-.13,0-.43,0-.3,0-.29,0a.43.43,0,0,0,.07.14c.06.1.08.12.15.13l.2.06.39.12.56.16.35.09a.29.29,0,0,1,.25.2l.05.12-.11.08c-.15.12-.18.12-.8,0a1.82,1.82,0,0,0-.5,0,1.28,1.28,0,0,0,0,.13.43.43,0,0,0,.25.26s.08,0,.08,0l.48.22a3.5,3.5,0,0,1,.52.24.27.27,0,0,1,.09.15c0,.1,0,.12,0,.16a.31.31,0,0,1-.27.11,4.37,4.37,0,0,1-.68-.15c-.06,0-.11,0-.11,0a1.45,1.45,0,0,0,.07.24c.11.35.12.34-.08.59l-.08.1-.18,0a.66.66,0,0,1-.22-.06.67.67,0,0,1-.1-.21c0-.09-.08-.2-.09-.23l0-.11s0,0-.06,0l-.14.16a.58.58,0,0,0-.1.12l0,0-.16.16-.12.14-.11,0a.34.34,0,0,1-.27-.23c0-.13,0-.15,0-.23a.59.59,0,0,0,.13-.17,4.94,4.94,0,0,1,.5-.65s0,0,0-.18a1,1,0,0,0-.12-.15s0,0-.06.07-.22.4-.37.65-.14.23-.2.26-.19,0-.27,0-.1-.15,0-.32.13-.37.24-.66c.21-.58.25-.72.22-.8a.62.62,0,0,0-.11-.17l-.08-.09,0,.08-.07.12a2.3,2.3,0,0,0-.14.22l-.11.18s-.09-.05-.14-.14-.1-.18-.15-.29a.91.91,0,0,0-.13-.2,1,1,0,0,0-.2.27.93.93,0,0,0,.05.29.49.49,0,0,1,0,.16c0,.12.13.49.24.88s.09.34,0,.44-.13.15-.23.13-.17-.07-.31-.41c-.07-.14-.14-.3-.16-.33l-.09-.19c-.08-.2-.09-.2-.17-.07a.59.59,0,0,0-.09.13,1.68,1.68,0,0,0,.12.55c.06.18.1.34.11.37l0,.18a.23.23,0,0,1,0,.23c-.08.16-.14.19-.28.16s-.12,0-.31-.43-.16-.36-.2-.32l-.16.21a1,1,0,0,1-.19.22.54.54,0,0,1-.33.07h-.09L45.23,82c-.06-.12-.07-.24,0-.27l.07-.12.14-.25a.62.62,0,0,0,.07-.16H45c-.44,0-.48,0-.62-.08s0,0,0-.12Z" transform="translate(0 0)"/><path id="path6400-2" data-name="path6400" class="cls-14" d="M42.55,91.29c.1-.25,0-.21.62-.35.29-.07.57-.14.62-.14s.16-.06.25-.23l.08-.14H44l-.29,0-.79,0-.1,0-.07,0,0-.14a.38.38,0,0,1,.11-.19,2.66,2.66,0,0,1,.52-.19l.39-.11.58-.14c.09,0,.09,0,.17-.16s.08-.19,0-.15h-.68s.08-.15.17-.33a2.08,2.08,0,0,0,.17-.32,1.21,1.21,0,0,0-.37,0l-.49.53c-.64.69-.63.68-.76.69s-.2,0-.21-.09,0-.19.28-.59.27-.43.31-.48a.2.2,0,0,0,0-.08,1.36,1.36,0,0,0-.4,0,.83.83,0,0,0-.12.13l-.22.24-.37.42a.34.34,0,0,1-.34.17c-.07,0-.08,0-.1-.07s0-.2.2-.56a2.41,2.41,0,0,0,.22-.36,1.26,1.26,0,0,0-.31,0c-.36,0-.41-.06-.51-.2l-.08-.1.06-.14c.11-.24.1-.24.45-.26a1.26,1.26,0,0,0,.31,0,3.27,3.27,0,0,0-.23-.35l-.22-.35v-.21l.11,0c.16,0,.21,0,.24,0s.28.27.46.47c.44.46.42.44.51.45H43s-.12-.18-.28-.4c-.44-.62-.4-.55-.39-.69v-.12l.12,0c.11,0,.14,0,.2,0a10.34,10.34,0,0,1,1,.93c.27.27.28.28.38.26h.27l-.15-.22c-.07-.12-.15-.23-.16-.25s-.11-.16-.09-.19a1.57,1.57,0,0,1,.52,0,.44.44,0,0,0,.18,0,1.14,1.14,0,0,0-.12-.26.16.16,0,0,0-.11-.07l-.18,0-.24-.06-.22,0-.42-.08c-.53-.11-.53-.11-.63-.3s0-.09,0-.17a.27.27,0,0,1,.1-.11,2.46,2.46,0,0,1,.74,0,3.54,3.54,0,0,0,.43,0s0,0,0-.07a1.71,1.71,0,0,1-.11-.17c0-.1-.07-.11-.13-.12l-.22,0-.26-.06c-.26,0-.63-.14-.68-.16a.49.49,0,0,1-.15-.27c0-.06.1-.26.11-.24h0a2,2,0,0,1,.57,0l.28,0,0-.07-.15-.29-.12-.24a1,1,0,0,1,.14-.36s.1,0,.28,0h.12l.18.29a2.09,2.09,0,0,0,.2.27l.11-.25.14-.31a1.16,1.16,0,0,0,.06-.15c0-.09,0-.1.14-.15s.19,0,.27.07.06.07-.09.77l-.12.57,0,.15.12.19c.06.1.12.18.13.17l0-.1a1.45,1.45,0,0,1,.08-.21c0-.07.11-.29.18-.48l.14-.35.1-.06c.11-.06.15,0,.23.06s.05.08,0,.12,0,.11,0,.18,0,.18-.05.23-.26,1.28-.26,1.33a.59.59,0,0,0,.09.19c.08.15.08.15.12.12a.26.26,0,0,0,.08-.11c0-.1.23-.47.24-.48a3,3,0,0,1,.34.56c0,.07.05.07.09,0a.63.63,0,0,0,.17-.29s-.12-.42-.27-.88l-.26-.82.07-.13.07-.13.13,0c.13,0,.13,0,.19.12a2.29,2.29,0,0,1,.13.27l.2.44c.07.16.14.29.14.29a1.48,1.48,0,0,0,.21-.32,1,1,0,0,0-.06-.28c0-.13-.08-.26-.08-.28L46.65,84c-.11-.34-.13-.48-.09-.51a.28.28,0,0,0,0-.08c0-.06,0-.07.16-.05s.14,0,.17.07a4.85,4.85,0,0,1,.25.51,1.34,1.34,0,0,0,.12.25.29.29,0,0,0,.08-.11l.07-.12a.58.58,0,0,0,.09-.15.5.5,0,0,1,.11-.17.79.79,0,0,1,.32-.13h.09l.07.13c.09.14.1.22,0,.3a.58.58,0,0,0,0,.14l-.1.25-.07.17h.08l.62-.07a.4.4,0,0,1,.3.07c.09.06.09.06,0,.25s0,.1-.16.16l-.14,0-.19.06-.47.13-.35.12a1,1,0,0,0-.18.37,2.79,2.79,0,0,0,.82-.1c.34,0,.38,0,.45,0s.12.1,0,.25-.1.19-.39.29c-.14.06-.16.07-.16.1s0,.09-.06,0,0,0,0,0l-.09,0-.5.16a1.58,1.58,0,0,0-.48.18c-.09.12-.16.39-.09.33h.51a.48.48,0,0,1,.21,0s0,.06,0,.1-.31.53-.33.57,0,0,.12.06h.23c.1,0,.13-.05.88-.92l.31-.34a.49.49,0,0,1,.18,0c.11,0,.13,0,.15,0a.24.24,0,0,1,0,.27l-.09.16-.07.12S49,87,49,87s0,0,0,0a.79.79,0,0,0-.09.13l-.19.3a1.11,1.11,0,0,0-.11.2,2,2,0,0,0,.37,0,.18.18,0,0,0,.15-.07,5.25,5.25,0,0,0,.46-.57c.29-.38.29-.38.4-.41s.19,0,.23.1,0,.12-.23.58a2,2,0,0,0-.18.33s.07,0,.38,0,.33,0,.46.23l.1.15-.09.1c-.19.24-.2.25-.43.28a1.82,1.82,0,0,1-.35,0h0s.1.15.23.34l.24.33v.14c0,.18-.05.22-.15.23s-.18,0-.33-.19l-.71-.71s-.1,0-.23,0l-.21,0a8.72,8.72,0,0,0,.57.75l.08.1v.17c0,.2,0,.24-.2.26s-.15,0-.35-.23l-.6-.62c-.4-.4-.38-.39-.42-.4h-.18c-.17,0-.18,0-.16,0a1,1,0,0,1,.11.18l.16.29a.81.81,0,0,1,.07.14s-.12.06-.4.06-.28,0-.28,0l.07.15c.06.11.08.12.15.14l.19.06.37.12.52.17.33.1a.3.3,0,0,1,.24.21l0,.12-.1.09c-.14.12-.17.12-.76,0a2.62,2.62,0,0,0-.46,0,.37.37,0,0,0,0,.15.41.41,0,0,0,.24.27L48,91a3.6,3.6,0,0,0,.45.23c.24.11.46.23.49.25a.4.4,0,0,1,.08.16c0,.1,0,.12,0,.17a.29.29,0,0,1-.25.12c-.08,0-.33-.07-.65-.16,0,0-.09,0-.1,0a1.76,1.76,0,0,0,.07.25c.11.37.11.36-.08.62l-.08.11-.16,0a.83.83,0,0,1-.21-.07,1,1,0,0,1-.1-.22l-.08-.25,0-.11s0,0-.06,0-.08.11-.12.17-.1.11-.1.13l0,0-.15.17-.11.14-.11,0a.31.31,0,0,1-.25-.23c0-.14,0-.17,0-.25a.57.57,0,0,0,.12-.17,4.52,4.52,0,0,1,.47-.69s0,0-.05-.19a.6.6,0,0,0-.11-.16s0,0-.06.08-.21.41-.34.67-.14.25-.19.28A.19.19,0,0,1,46,92c-.09-.09-.1-.15,0-.33s.13-.4.23-.7c.2-.61.23-.75.2-.84a.54.54,0,0,0-.1-.18l-.07-.09,0,.08a.63.63,0,0,1-.07.12l-.12.23-.11.2s-.09,0-.14-.15l-.14-.3a1,1,0,0,0-.12-.21,1,1,0,0,0-.19.28,1,1,0,0,0,0,.3.58.58,0,0,1,0,.17c0,.13.12.52.22.92s.09.36,0,.47-.13.15-.23.14-.15-.08-.29-.43c-.06-.16-.13-.32-.15-.36l-.08-.19c-.08-.21-.08-.21-.17-.08l-.08.14a2.25,2.25,0,0,0,.12.58l.1.39s0,.11,0,.19a.25.25,0,0,1,0,.24c-.07.16-.13.2-.26.17s-.12,0-.3-.46-.15-.38-.18-.34l-.16.23a1.3,1.3,0,0,1-.17.23.53.53,0,0,1-.32.07h-.09l0-.13c-.06-.13-.07-.26,0-.29l.07-.12a2.78,2.78,0,0,1,.12-.26.86.86,0,0,0,.08-.18l-.42,0c-.42,0-.45,0-.58-.09s0,0,0-.13Z" transform="translate(0 0)"/><path id="path6396-2" data-name="path6396" class="cls-14" d="M15.88,82.72c.11-.12.06-.11.44-.08l.38,0c.08,0,.11,0,.19-.08l.07-.07-.06,0-.18-.05-.47-.12-.05,0,0,0,0-.07a.22.22,0,0,1,.1-.08,1.14,1.14,0,0,1,.34,0l.25,0a2.89,2.89,0,0,1,.37,0s0,0,.12-.06.09-.09.05-.08l-.09,0-.19-.06-.12,0a1,1,0,0,1,.16-.16c.09-.08.16-.14.15-.15a.6.6,0,0,0-.21-.08l-.38.2c-.5.27-.49.26-.58.24s-.11,0-.1-.09.05-.09.27-.27l.27-.21,0,0a.82.82,0,0,0-.23-.11l-.09.06-.17.09-.3.17a.24.24,0,0,1-.23,0s0,0,0-.06,0-.12.22-.28a1,1,0,0,0,.19-.16L15.84,81c-.21-.09-.23-.11-.27-.21l0-.07.07-.07c.1-.11.1-.11.31-.06l.18,0a.9.9,0,0,0-.06-.24L16,80.14l0-.06,0,0h.07c.1,0,.13,0,.15,0s.11.2.19.34c.17.35.16.33.21.35l.15,0a2.14,2.14,0,0,0-.09-.28c-.15-.43-.14-.39-.11-.46l0-.07h.08c.07,0,.09,0,.12,0s.18.3.4.7c.11.21.11.21.18.22l.1,0,.05,0,0-.15c0-.08-.05-.16-.05-.18s0-.1,0-.12a.84.84,0,0,1,.31.08l.11,0a.59.59,0,0,0,0-.17.15.15,0,0,0,0-.06.37.37,0,0,1-.1-.06l-.13-.07-.12-.07-.24-.13c-.29-.15-.29-.16-.31-.28s0-.06,0-.09l.08,0a1.94,1.94,0,0,1,.44.14l.25.09v-.05a.81.81,0,0,1,0-.11c0-.07,0-.08-.06-.1l-.12-.07-.14-.08L17,79.27a.22.22,0,0,1,0-.18S17,79,17,79h0a1.66,1.66,0,0,1,.33.13l.16.06v0s0-.12,0-.19,0-.15,0-.16a.52.52,0,0,1,.15-.18l.17,0,.06,0,.06.19a1.57,1.57,0,0,0,.07.2L18.1,79l.14-.15.06-.08s0,0,.11,0,.12,0,.14.09,0,0-.19.41l-.17.3,0,.08,0,.13,0,.12s0,0,.05,0l.09-.1s.12-.14.19-.24l.15-.17h.06c.08,0,.1,0,.13.07s0,.06,0,.08l-.06.1-.07.12c0,.06-.38.67-.39.69a.32.32,0,0,0,0,.13c0,.1,0,.1.05.09l.07-.05a2.16,2.16,0,0,1,.23-.22,1.77,1.77,0,0,1,.1.38s0,0,0,0,.15-.09.15-.12,0-.27,0-.55v-.51l.07-.06.06-.06.08,0c.07,0,.07,0,.09.1s0,.12,0,.17l0,.29a1.38,1.38,0,0,0,0,.19A.73.73,0,0,0,19.6,80a.45.45,0,0,0,0-.17v-.41c0-.22,0-.3,0-.31l0,0s0,0,.1,0,.08,0,.09.07a2.36,2.36,0,0,1,.05.33c0,.11,0,.17,0,.17L20,79.6l.07,0,.08-.07.09-.08a.69.69,0,0,1,.21,0h.06l0,.09c0,.1,0,.15,0,.18l-.06.07-.1.12-.07.08s0,0,.05,0l.38.08a.32.32,0,0,1,.16.09c0,.06,0,.06-.05.15a.14.14,0,0,1-.12.06H20a.62.62,0,0,0-.18.18,2.9,2.9,0,0,0,.51.1c.2,0,.23,0,.26.07s.06.08,0,.15-.1.09-.28.09-.11,0-.12,0,0,0,0,0a0,0,0,0,0,0,0H19.4c-.08,0-.17.19-.11.17l.1,0,.2.06c.07,0,.12,0,.12,0a.05.05,0,0,1,0,0l-.3.26s0,0,.06.06l.13,0c.06,0,.09,0,.69-.35a1.21,1.21,0,0,1,.24-.13h.12c.06,0,.08,0,.08,0a.14.14,0,0,1-.06.14l-.09.08a.15.15,0,0,0-.06,0s0,0,0,0h0l-.08,0-.16.13c-.06,0-.11.09-.1.1l.2.09a.14.14,0,0,0,.11,0l.37-.24c.24-.15.24-.16.31-.15s.11,0,.12.1,0,.07-.25.28l-.16.15s0,0,.22.09.18.08.22.22l0,.1-.07,0c-.16.09-.17.1-.31.07l-.21,0h0s0,.1.08.23l.08.23,0,.08c0,.1-.07.12-.13.1s-.1,0-.16-.16-.24-.46-.29-.54,0,0-.13-.06l-.12,0a2.94,2.94,0,0,0,.19.53l0,.07-.05.1c0,.1-.07.12-.16.1s-.08,0-.16-.19l-.24-.46c-.16-.31-.16-.3-.18-.31l-.1,0h-.1l0,.12.05.2s0,.09,0,.09-.08,0-.24,0-.17,0-.17,0a.39.39,0,0,0,0,.09.19.19,0,0,0,.06.11.3.3,0,0,1,.1.07l.2.14.27.19.18.12a.18.18,0,0,1,.1.16v.08l-.08,0c-.1,0-.12,0-.45-.12L19,83.24v.09a.25.25,0,0,0,.09.2s0,0,0,0l.22.21a3.23,3.23,0,0,1,.25.24.16.16,0,0,1,0,.1c0,.07,0,.08,0,.1a.17.17,0,0,1-.17,0,2.68,2.68,0,0,1-.35-.21s0,0-.06,0,0,.08,0,.16,0,.22-.16.33l-.06,0-.09,0a.16.16,0,0,1-.13-.21V84s0,0,0,0l-.11.07-.08.06,0,0-.12.07-.09,0-.06,0a.2.2,0,0,1-.1-.18c0-.09,0-.1.07-.13l.1-.08a3.77,3.77,0,0,1,.4-.3s0,0,0-.11,0-.11,0-.11l-.05,0-.32.32c-.1.09-.13.11-.17.11a.1.1,0,0,1-.14-.06c0-.07,0-.11,0-.2l.26-.34c.22-.31.27-.38.27-.44a.3.3,0,0,0,0-.12l0-.06,0,0-.06.06-.12.11-.1.09s0,0-.05-.11,0-.12,0-.2a1.21,1.21,0,0,0,0-.14s-.14.09-.17.12a.55.55,0,0,0,0,.18.51.51,0,0,1,0,.1c0,.08,0,.32,0,.56s0,.22-.08.27-.1.06-.16,0-.07-.07-.09-.29,0-.21,0-.23a.44.44,0,0,1,0-.13c0-.13,0-.13-.08-.07l-.08.06a1.84,1.84,0,0,0,0,.35c0,.11,0,.22,0,.24a1,1,0,0,0,0,.11.16.16,0,0,1,0,.14c-.08.07-.12.08-.19,0s-.06,0-.09-.31,0-.24-.05-.23l-.13.1-.14.1a.49.49,0,0,1-.2,0l-.05,0v-.09c0-.08,0-.15,0-.16s0,0,.06-.06l.12-.12.07-.08a1,1,0,0,0-.25-.07c-.25-.07-.26-.08-.32-.17s0,0,0-.07Z" transform="translate(0 0)"/><path id="path6400-3" data-name="path6400" class="cls-14" d="M25.33,80.24c.1-.24,0-.2.66-.34.31-.06.6-.13.65-.13s.17-.06.27-.22l.08-.14h-.44l-.83,0-.1,0-.08,0,.05-.13a.43.43,0,0,1,.12-.18,3.25,3.25,0,0,1,.56-.19l.4-.1.62-.14c.09,0,.1,0,.18-.15s.09-.18,0-.14H27a.68.68,0,0,1-.22,0,1.89,1.89,0,0,1,.18-.31,1.78,1.78,0,0,0,.17-.31,1.31,1.31,0,0,0-.39,0s-.25.23-.52.5c-.67.66-.66.65-.81.66s-.21,0-.22-.1,0-.17.3-.55l.33-.46s0-.06,0-.07a1.24,1.24,0,0,0-.43,0l-.13.13-.22.23c-.16.15-.27.26-.4.4a.37.37,0,0,1-.35.16c-.08,0-.09,0-.11-.07s0-.19.21-.53c.14-.18.24-.34.24-.34a1.67,1.67,0,0,0-.33,0c-.39,0-.44,0-.55-.19l-.08-.1.06-.13c.12-.23.11-.22.48-.25a1.7,1.7,0,0,0,.32,0,2.28,2.28,0,0,0-.23-.34l-.24-.33V76l.12,0c.16-.05.22-.06.26,0l.48.44c.46.44.44.42.54.43h.27s-.13-.18-.3-.38c-.47-.59-.43-.53-.42-.66v-.11l.14,0a.25.25,0,0,1,.21,0,13.24,13.24,0,0,1,1,.89c.29.25.3.26.41.24h.28L27,76.57l-.18-.24c-.08-.09-.11-.15-.1-.18a1.69,1.69,0,0,1,.56-.05h.19a1.21,1.21,0,0,0-.13-.25.16.16,0,0,0-.11-.07l-.2,0-.25,0a1.37,1.37,0,0,1-.23,0l-.45-.08c-.56-.1-.56-.1-.67-.29s0-.08,0-.15.08-.1.11-.11a3.28,3.28,0,0,1,.79,0,2.32,2.32,0,0,0,.45,0s0,0,0-.07a.74.74,0,0,1-.11-.16c-.06-.09-.08-.1-.15-.11l-.23,0L26,74.56a6.43,6.43,0,0,1-.71-.15.44.44,0,0,1-.17-.25c0-.06.11-.25.13-.23h0a4.92,4.92,0,0,1,.62,0l.29,0,0-.07L26,73.64a1.76,1.76,0,0,1-.12-.23.75.75,0,0,1,.13-.34.66.66,0,0,1,.3,0h.13l.2.26.2.27a1.52,1.52,0,0,0,.12-.24l.15-.29.06-.15c0-.09,0-.09.15-.14s.2,0,.28.06.07.07-.09.74c-.05.21-.11.45-.12.54l0,.15.12.17a.8.8,0,0,0,.14.17s0,0,.05-.1a1,1,0,0,1,.08-.2l.2-.46.14-.33.11-.06c.11-.06.16,0,.25.06s0,.08,0,.11a1.27,1.27,0,0,0,0,.18,1.19,1.19,0,0,1-.05.22c0,.11-.27,1.21-.27,1.26a.57.57,0,0,0,.09.18c.09.14.09.14.13.12a.52.52,0,0,0,.08-.11c0-.1.25-.45.26-.45a2.31,2.31,0,0,1,.36.53c0,.06.05.06.09,0a.5.5,0,0,0,.18-.27s-.13-.4-.28-.84l-.28-.78.08-.12.07-.13.14,0c.14,0,.14,0,.2.12a2.8,2.8,0,0,1,.14.25c0,.08.14.27.21.42a2,2,0,0,0,.15.28,2,2,0,0,0,.22-.3A.92.92,0,0,0,29.9,74a1.92,1.92,0,0,1-.09-.27l-.13-.37c-.12-.32-.14-.45-.1-.49a.21.21,0,0,0,.05-.07c0-.06,0-.06.17-.05s.15,0,.18.07a3.32,3.32,0,0,1,.26.48.84.84,0,0,0,.13.24.3.3,0,0,0,.09-.1.58.58,0,0,1,.08-.12l.08-.14a.59.59,0,0,1,.12-.16.76.76,0,0,1,.34-.12l.09,0,.08.12c.09.14.11.22.06.29a.45.45,0,0,0-.06.14,1.52,1.52,0,0,1-.11.23,1.5,1.5,0,0,0-.07.17h.08l.67-.07a.55.55,0,0,1,.31.07c.09.07.09.07,0,.25s-.05.09-.17.14l-.15,0-.2.06-.49.13a2.14,2.14,0,0,0-.38.11.94.94,0,0,0-.19.35,3.27,3.27,0,0,0,.87-.09c.36-.06.41-.06.48,0s.13.09.05.23-.1.18-.41.28c-.16,0-.18.06-.17.1s0,.08-.06,0,0,0-.06,0l-.09,0-.53.14a1.71,1.71,0,0,0-.51.18c-.1.11-.18.37-.1.31h.55a.59.59,0,0,1,.22,0,.14.14,0,0,1,0,.09l-.35.55s0,0,.14,0h.23c.11,0,.14,0,.94-.88.15-.15.29-.3.32-.32a.64.64,0,0,1,.19,0c.12,0,.15,0,.16,0a.21.21,0,0,1,0,.25,1.84,1.84,0,0,0-.1.16l-.08.11s0,0,0,.06,0,0,0,0a.33.33,0,0,0-.1.12l-.2.29c-.06.1-.12.18-.11.19a2.19,2.19,0,0,0,.39,0c.07,0,.09,0,.16-.07s.24-.25.49-.55.3-.36.42-.38.2,0,.24.09,0,.11-.24.55c-.11.16-.19.3-.2.31s.09,0,.41,0,.35,0,.49.22l.1.14-.09.1c-.2.23-.22.24-.46.27a1.55,1.55,0,0,1-.36,0h0a1.86,1.86,0,0,0,.24.32l.26.32v.14c0,.16-.05.2-.16.22s-.19,0-.35-.18-.64-.58-.76-.68-.09,0-.24,0l-.22,0a8.71,8.71,0,0,0,.6.71l.09.1v.16c0,.19,0,.22-.21.24s-.16,0-.37-.21l-.64-.59c-.42-.38-.41-.37-.45-.38a.61.61,0,0,0-.18,0c-.18,0-.19,0-.17,0l.11.17.17.28a1.55,1.55,0,0,1,.08.14s-.13.06-.42.06-.3,0-.3,0a.86.86,0,0,0,.07.14c.07.11.08.12.16.14l.2.06.39.11.55.16.35.1a.28.28,0,0,1,.25.2l0,.11L32,79.5c-.15.11-.18.11-.8,0l-.49,0s0,.07,0,.14a.37.37,0,0,0,.25.25l.08,0,.48.21c.26.11.49.22.52.24a.34.34,0,0,1,.08.16c0,.09,0,.11,0,.16a.33.33,0,0,1-.26.11l-.69-.15c-.06,0-.1,0-.1,0a.82.82,0,0,0,.06.24c.12.35.12.33-.08.59l-.08.1-.17,0a.69.69,0,0,1-.22-.07.54.54,0,0,1-.11-.21A1.57,1.57,0,0,0,30.4,81l0-.11c0-.05,0-.05-.06,0a1.31,1.31,0,0,1-.13.16l-.11.12a.09.09,0,0,1,0,0,1.67,1.67,0,0,0-.15.17l-.12.13-.12,0a.31.31,0,0,1-.26-.22c0-.13,0-.16,0-.23s.09-.12.13-.17a4.52,4.52,0,0,1,.49-.66s0,0-.05-.18a.67.67,0,0,0-.11-.15s0,0-.07.08l-.36.64c-.11.19-.14.24-.2.26a.2.2,0,0,1-.27,0c-.1-.08-.11-.14,0-.31s.14-.38.24-.67c.21-.58.25-.71.22-.8a.55.55,0,0,0-.11-.17l-.08-.09,0,.08a.62.62,0,0,1-.08.12l-.13.22a1,1,0,0,1-.12.18s-.09,0-.14-.14L28.54,79a.91.91,0,0,0-.13-.2.9.9,0,0,0-.2.27.67.67,0,0,0,.06.28s0,.08,0,.16.12.49.23.88.1.34,0,.44-.13.15-.24.13-.16-.06-.31-.4a2.27,2.27,0,0,0-.16-.34,1.21,1.21,0,0,1-.08-.19c-.09-.2-.09-.2-.18-.07l-.09.14a2,2,0,0,0,.13.55c.05.17.1.34.1.36l.05.18c0,.12,0,.15,0,.24s-.14.18-.28.16-.12,0-.31-.44-.16-.36-.2-.32l-.17.22a2.12,2.12,0,0,1-.18.22.67.67,0,0,1-.34.06H26.2l-.06-.13c-.05-.12-.06-.24,0-.27l.07-.11a2.08,2.08,0,0,1,.13-.26.7.7,0,0,0,.08-.16l-.44,0c-.45,0-.48,0-.62-.09s0,0,0-.12Z" transform="translate(0 0)"/><path id="path6400-4" data-name="path6400" class="cls-14" d="M23.46,90.49c.1-.25,0-.22.63-.36L24.7,90c.12,0,.17-.06.25-.23l.08-.14h-.12l-.29,0-.79,0-.09,0-.07,0,0-.14a.36.36,0,0,1,.12-.19,2.09,2.09,0,0,1,.52-.2l.38-.1c.3-.08.39-.11.59-.15s.09,0,.16-.16.09-.19,0-.15h-.47a.63.63,0,0,1-.21,0,2.08,2.08,0,0,1,.17-.32,1.51,1.51,0,0,0,.16-.33,1.17,1.17,0,0,0-.37,0l-.49.52c-.63.69-.62.68-.76.69s-.2,0-.21-.09,0-.18.29-.58.27-.43.3-.49,0-.07,0-.07a1,1,0,0,0-.4,0l-.12.13c-.05.07-.15.17-.21.24l-.38.42a.36.36,0,0,1-.33.18c-.07,0-.09,0-.1-.08s0-.2.2-.56l.22-.36-.31,0c-.37,0-.41,0-.52-.19l-.08-.11.07-.14c.1-.24.1-.23.44-.26a1.26,1.26,0,0,0,.31,0l-.22-.35-.23-.34v-.22l.12,0c.15-.06.2-.06.24,0s.27.27.46.46c.43.46.41.45.5.45a.89.89,0,0,0,.25,0,2.53,2.53,0,0,0-.27-.41c-.44-.61-.41-.55-.4-.68v-.12l.13,0c.1,0,.14,0,.2,0a12.92,12.92,0,0,1,1,.92c.26.27.28.28.38.26h.26L25,86.63c-.08-.12-.15-.24-.17-.26s-.11-.16-.09-.18a1.25,1.25,0,0,1,.52,0h.19a1.5,1.5,0,0,0-.12-.27.26.26,0,0,0-.11-.07l-.19,0-.24,0-.22,0-.42-.09c-.52-.11-.53-.11-.63-.3s0-.09,0-.17a.37.37,0,0,1,.1-.11,2.9,2.9,0,0,1,.74,0,2.12,2.12,0,0,0,.43,0s0,0,0-.07l-.1-.17c-.06-.1-.07-.11-.14-.12l-.22,0-.26-.06a6.8,6.8,0,0,1-.67-.16.47.47,0,0,1-.16-.27s.1-.26.12-.23a0,0,0,0,0,0,0,2.09,2.09,0,0,1,.58,0l.28,0,0-.08s-.08-.17-.14-.28L24,83.31A.93.93,0,0,1,24.1,83s.1,0,.28,0h.12l.19.28.19.28s.06-.12.12-.26l.13-.3a.76.76,0,0,0,.06-.16c0-.09,0-.1.15-.15s.19,0,.26.07.07.07-.09.78c-.05.22-.1.47-.11.56l0,.16.11.18c.07.11.12.18.13.17s0,0,.05-.1.05-.14.08-.21.12-.28.19-.48l.13-.35.1,0c.11-.07.15-.06.24,0a.13.13,0,0,1,0,.12,1.18,1.18,0,0,0,0,.19,1.32,1.32,0,0,1,0,.23c0,.12-.25,1.28-.26,1.33a.88.88,0,0,0,.09.19c.08.14.09.14.12.12a.28.28,0,0,0,.08-.12l.25-.47a2.87,2.87,0,0,1,.34.55c0,.07,0,.08.08,0a.53.53,0,0,0,.17-.28s-.12-.43-.26-.88l-.27-.83.07-.13.07-.13.14,0c.13,0,.13,0,.19.13s.09.17.13.26l.2.45a1.88,1.88,0,0,0,.14.29,3.58,3.58,0,0,0,.21-.32,1.07,1.07,0,0,0-.06-.29c-.05-.13-.08-.26-.09-.28s-.06-.19-.12-.39-.14-.47-.09-.51l.05-.08c0-.06,0-.06.16-.05a.23.23,0,0,1,.17.07,5.52,5.52,0,0,1,.24.51c.07.17.11.25.13.25s0,0,.07-.1a.74.74,0,0,1,.08-.12l.08-.15a1,1,0,0,1,.11-.18,1.07,1.07,0,0,1,.32-.12l.09,0,.08.13c.08.15.09.23.05.31a.45.45,0,0,0-.06.14,1.38,1.38,0,0,1-.1.24,1.32,1.32,0,0,0-.07.18H29l.63-.07a.42.42,0,0,1,.29.07c.09.07.09.07,0,.26s-.05.1-.16.15l-.15,0-.19.06-.46.14a1.58,1.58,0,0,0-.35.11,1,1,0,0,0-.19.38,3.42,3.42,0,0,0,.83-.1c.33-.06.38-.06.45,0s.12.1,0,.25-.1.19-.39.29-.17.07-.17.11,0,.08-.05,0,0,0-.06,0l-.09,0-.49.15a1.92,1.92,0,0,0-.49.19c-.09.12-.16.38-.08.32a.76.76,0,0,1,.16,0h.35c.11,0,.2,0,.21,0a.2.2,0,0,1,0,.09l-.33.57s0,0,.13.06h.22c.1,0,.13,0,.88-.92a3.25,3.25,0,0,1,.31-.34.39.39,0,0,1,.18,0c.11,0,.14,0,.15,0a.24.24,0,0,1,0,.26L30,86l-.07.11a.17.17,0,0,0,0,.07s0,0,0,0a.36.36,0,0,0-.09.12l-.19.31a.83.83,0,0,0-.1.19,1.57,1.57,0,0,0,.36,0,.17.17,0,0,0,.15-.07,7,7,0,0,0,.47-.58c.28-.38.28-.38.4-.4s.18,0,.22.09,0,.12-.23.58a2.58,2.58,0,0,0-.18.33s.08,0,.38,0,.33,0,.46.23l.1.15-.08.11c-.2.23-.21.24-.44.27a1.17,1.17,0,0,1-.34,0h-.05A3.84,3.84,0,0,0,31,88l.25.33,0,.14c0,.18,0,.22-.15.23s-.17,0-.33-.18-.6-.61-.71-.71-.09,0-.23,0l-.2,0a8,8,0,0,0,.56.75l.09.1,0,.18c0,.19-.05.23-.19.25s-.16,0-.36-.23l-.59-.61c-.4-.41-.39-.4-.43-.41h-.17c-.17,0-.18,0-.16,0l.1.18c.05.09.12.23.16.29a.76.76,0,0,1,.08.15s-.12.06-.4.06-.28,0-.28,0a.56.56,0,0,0,.07.14c.06.11.07.12.14.14l.19.06.37.13.52.16.33.1a.29.29,0,0,1,.24.21l.05.12-.11.1c-.14.11-.17.12-.75,0a3.24,3.24,0,0,0-.47,0,.51.51,0,0,0,0,.14.4.4,0,0,0,.23.27.19.19,0,0,1,.08,0l.45.22a4.41,4.41,0,0,1,.5.26.34.34,0,0,1,.08.16c0,.1,0,.12,0,.17a.29.29,0,0,1-.26.11,5,5,0,0,1-.64-.16h-.1a1.49,1.49,0,0,0,.06.26c.11.36.11.35-.08.62l-.07.1-.17,0a.62.62,0,0,1-.2-.07.5.5,0,0,1-.1-.22c0-.1-.07-.21-.09-.24l0-.12s0,0-.05,0a.86.86,0,0,1-.13.17l-.1.13a.09.09,0,0,1,0,0l-.14.17-.11.14-.11,0a.32.32,0,0,1-.25-.24c0-.14,0-.16,0-.24a.81.81,0,0,0,.12-.18,6.21,6.21,0,0,1,.47-.69s0,0,0-.19a1.23,1.23,0,0,0-.1-.16s0,0-.06.08l-.35.68c-.1.2-.13.25-.19.27s-.18,0-.25,0-.1-.15,0-.33.12-.4.22-.7c.2-.61.24-.75.21-.84a.81.81,0,0,0-.1-.18L27.11,89l0,.08-.07.13a1.66,1.66,0,0,0-.13.23,1.36,1.36,0,0,1-.11.19s-.09,0-.13-.15l-.15-.3a.86.86,0,0,0-.12-.21.85.85,0,0,0-.18.29.76.76,0,0,0,0,.3l0,.16c0,.13.11.52.22.93s.09.36,0,.46-.12.15-.22.14-.16-.07-.3-.43c-.06-.16-.12-.31-.14-.35l-.09-.2c-.08-.21-.08-.21-.16-.08a.76.76,0,0,0-.08.15,1.94,1.94,0,0,0,.11.57c.05.19.1.36.1.39l.05.19a.31.31,0,0,1,0,.25c-.08.15-.14.19-.27.16s-.11,0-.29-.46-.15-.37-.19-.33l-.16.23a1.91,1.91,0,0,1-.17.23.72.72,0,0,1-.32.07h-.09l-.05-.13c-.05-.12-.06-.25,0-.29a.42.42,0,0,0,.06-.12l.13-.26.07-.17-.42,0c-.41,0-.45,0-.58-.1s0,0,0-.12Z" transform="translate(0 0)"/></g><g id="g7153"><path id="path7018" class="cls-15" d="M80.7,80.69s-12.25-.49-16.28-.56c-.32,0-.88.05-.87.37s.55.35.86.36C68.38,80.94,80.7,80.69,80.7,80.69Z" transform="translate(0 0)"/><path id="path7020" class="cls-15" d="M90.68,88.8s-11.11-.45-14.75-.52c-.29,0-.8.06-.8.34s.51.32.79.33c3.59.07,14.76-.15,14.76-.15Z" transform="translate(0 0)"/><path id="path7022" class="cls-15" d="M85.06,84.37s-6-.24-7.91-.28c-.16,0-.43,0-.43.18s.27.17.42.18C79.07,84.49,85.06,84.37,85.06,84.37Z" transform="translate(0 0)"/><path id="path7024" class="cls-15" d="M96.56,86.19s-19.13-.77-25.41-.89c-.5,0-1.37.09-1.37.59s.87.54,1.36.55c6.19.14,25.42-.25,25.42-.25Z" transform="translate(0 0)"/><path id="path7046" class="cls-15" d="M70.63,82.86s-5.64-.23-7.49-.26c-.15,0-.4,0-.4.17s.25.16.4.16c1.82,0,7.49-.07,7.49-.07Z" transform="translate(0 0)"/><path id="path7056" class="cls-15" d="M67.57,76.54s-8.12-.32-10.79-.37c-.21,0-.58,0-.58.25s.37.23.57.23C59.4,76.71,67.57,76.54,67.57,76.54Z" transform="translate(0 0)"/><path id="path7060" class="cls-15" d="M65.39,82.06s-5.37-.22-7.14-.25c-.14,0-.38,0-.38.16s.24.15.38.16C60,82.17,65.39,82.06,65.39,82.06Z" transform="translate(0 0)"/><path id="path7070" class="cls-15" d="M91.27,77.49s-15.79-.64-21-.73c-.41,0-1.13.07-1.13.48s.72.45,1.12.46c5.11.11,21-.21,21-.21Z" transform="translate(0 0)"/><path id="path7076" class="cls-15" d="M99.27,82s-10.84-.43-14.4-.5c-.28,0-.77.05-.77.33s.49.31.76.32C88.37,82.21,99.27,82,99.27,82Z" transform="translate(0 0)"/></g></svg>