<svg id="svg13195" xmlns="http://www.w3.org/2000/svg" xmlns:xlink="http://www.w3.org/1999/xlink" viewBox="0 0 110 110"><defs><style>.cls-1{fill:#520;fill-opacity:0;}.cls-2{fill:#76797e;}.cls-2,.cls-3{opacity:0.85;}.cls-10,.cls-11,.cls-12,.cls-13,.cls-14,.cls-2,.cls-3,.cls-4,.cls-5,.cls-6,.cls-7,.cls-8,.cls-9{isolation:isolate;}.cls-3{fill:url(#linear-gradient);}.cls-4,.cls-7{fill:#999;}.cls-4,.cls-9{opacity:0.9;}.cls-5{fill:#666;}.cls-5,.cls-6,.cls-7{opacity:0.8;}.cls-6{fill:#ccc;}.cls-8{opacity:0.95;fill:url(#linear-gradient-2);}.cls-9{fill:#a6a7a7;}.cls-10{fill:#b3b3b3;}.cls-10,.cls-12,.cls-14{opacity:0.5;}.cls-11{fill:#9c9ea0;opacity:0.67;}.cls-12{fill:#959798;}.cls-13{fill:gray;opacity:0.6;}.cls-14{fill:#dbe3e2;}.cls-15{fill:#6f8a91;}</style><linearGradient id="linear-gradient" x1="-664.52" y1="-582.39" x2="-528.13" y2="-539.89" gradientTransform="matrix(0.66, 0, 0, -0.66, 457.32, -318.41)" gradientUnits="userSpaceOnUse"><stop offset="0" stop-color="#57646d"/><stop offset="1" stop-color="#57646d" stop-opacity="0"/></linearGradient><linearGradient id="linear-gradient-2" x1="-936.74" y1="-359.11" x2="-947.98" y2="-302.96" gradientTransform="matrix(0.66, 0, 0, -0.66, 663.94, -166.77)" gradientUnits="userSpaceOnUse"><stop offset="0" stop-color="#ccc"/><stop offset="1" stop-color="gray"/></linearGradient></defs><g id="layer1"><g id="overcast"><rect id="rect6733" class="cls-1" width="110" height="110"/><g id="g5929"><path id="path5931" class="cls-2" d="M54.93,68.16c1.77,2.38,5.77,2.27,8.71,1.85,1.75-.25,3.08-1.76,4.69-2.52a21.56,21.56,0,0,1,4.52-1.84c3.83-.8,11.73-.33,11.73-.33s-10.11,2.41-10.22-1c0-1.41,2.79-.45,4.19-.67s4,2,4.36-.67-.51-2.34.5-2.68a20.58,20.58,0,0,0,2.51-1.17s-2.62-2.1-4-3c-1.23-.81-3.42-.77-3.85-2.18s.8-2.78,1.84-3.68c.8-.7,3.35-.34,3-1a10.54,10.54,0,0,0-2.35-3,17,17,0,0,0-5-2.18,25,25,0,0,0-5-1.34,24.53,24.53,0,0,0-4,0c-1.9,0-4-.45-5.7.33a8.75,8.75,0,0,0-4.19,4.19c-2.93,6.36-5.86,15.33-1.67,20.94Z" transform="translate(0 0)"/><path id="path5933" class="cls-3" d="M43.79,48.09c1.46-1.76,3.65-2.87,5-4.74.45-.63.49-1.5,1-2.13.62-.86,1.34-2.38,2.37-2.13,1.31.32.4,2.91,1.42,3.79a4.54,4.54,0,0,0,3.32.71c1-.09,2.32-.3,2.84-1.19.37-.61-.52-1.47-.23-2.13.21-.49-1.88-1,1.3-1,1.14,0,3.06,1,4.62.83,1.37-.1,5.15-1.12,3.91-1.3,1,1.95-3,3.27-4.62,4.74-.67.6-2.36.78-2.13,1.66s1.88.56,2.84.47a9.57,9.57,0,0,0,3.32-1.18c1-.51,1.72-1.69,2.84-1.9s2,.52,3.08.71,2.53,1.1,3.55.48a2.39,2.39,0,0,0,1-2.61c-.28-.76-1.56-.61-2.13-1.18s-2-1.8-1.42-2.61c.87-1.24,3,.67,4.5.71.71,0,1.43-.36,2.13-.24.18,0,.43.07.48.24.25.88-1.34,1.45-1.43,2.37-.12,1.34,1.84,2.51,1.43,3.79-.35,1.08-1.8,1.46-2.85,1.9a34.3,34.3,0,0,1-3.55.71A44.79,44.79,0,0,0,70.56,49c-.65.28-2,.25-1.89,1,.19,1.69,3.27,1.28,5,1.18,2.1-.12,3.83-2.11,5.93-2.13a6.65,6.65,0,0,1,2.84,1c1.44.69,2.45,2.34,4,2.6s3.12-1,4.74-1.18c1.17-.15,2.58-.68,3.55,0s1.79,2.31,1.18,3.32c-1.1,1.84-4.24.92-6.39.94-1.83,0-4.88-2.45-5.45-.71-.51,1.55,2.72,1.85,4.26,2.37a15.13,15.13,0,0,0,6.16,1,13.63,13.63,0,0,0,2.85-1c.55-.17,1.25-.88,1.66-.47.75.77-.22,2.29-1,3.08-1,1.12-2.77,1.38-4.27,1.66a13,13,0,0,1-3.79,0c-1.77-.2-3.44-1-5.21-1.19a17.65,17.65,0,0,0-3.56,0,31.13,31.13,0,0,0-5,1c-1.45.38-2.79,1.18-4.27,1.42-1.09.18-2.72.93-3.31,0-.71-1.1,2.29-2.41,1.65-3.55-.92-1.67-3.8-1-5.68-.71a10.58,10.58,0,0,0-4.74,2.37c-1.09.89-1.28,2.85-2.61,3.31-2.29.81-4.7-1.26-7.11-1.66-4.93-.8-12.76,3.09-14.92-1.42-2.25-4.68,5.2-9,8.53-13Z" transform="translate(0 0)"/><path id="path5935" class="cls-4" d="M47.72,53.92l5,1,4,1.34,4,.33,3.35-.33a2.51,2.51,0,0,1,1.68-1c1.34-.33.67-.33,2-.67a27.46,27.46,0,0,0,3-1l1-.67s0-.67-1.68-1-2.34-3.35-2.34-3.35a5.19,5.19,0,0,0-3.69-.33c-1.67.67-3.35,2-5.36,2.34s-6-.67-6-.67l-3,2Z" transform="translate(0 0)"/><path id="path5937" class="cls-5" d="M24.77,62l3.52-1.34,2.84,1.17a2.94,2.94,0,0,1,1.51-1.17c.84-.17,2.52.83,3.19.83s-3.69,0,2,.34,5.53,1,5.36.17-2.18-2.69.5-2.18l2.68.5,4-1,4.53,2.18,2,.17a18.31,18.31,0,0,1,3.85,1c.84.5,3.85.33.84.5s-2.52-1.17-4.19.5a7.91,7.91,0,0,1-4.36,2.51c-.83,0-2.68-.5-4.19-.5s-2.68-.33-3.35.17S44.37,67.66,43,67.33,38,66,38,66H36.33l-3-.67a1.71,1.71,0,0,0-1-1.18,15.85,15.85,0,0,0-3-.5l-2-.17Z" transform="translate(0 0)"/><path id="path5939" class="cls-6" d="M54.26,53.59l9.55,1s3.51-1.84,4-1.67,3.35,1,3.35,1,3.68-.16,4.52-.33,6.7-.84,6.7-.84,4.36,2.35,5,2.35,8.88.83,8.88.83L107,57.61,96.81,59l-10.89-.34-5.69-.16-12.07,2-8-1.18L46.21,60.46Z" transform="translate(0 0)"/><path id="path5941" class="cls-7" d="M40,61.3c1.51,2.08,5.19.5,7.71,0,1.43-.29,2.57-1.61,4-1.68S54.59,60.81,56.1,61a10.25,10.25,0,0,0,3.35-.33c1.75-.43,3.25-1.67,5-2a27.15,27.15,0,0,1,5,0,21.65,21.65,0,0,0,3.69,0c2-.34,3.71-1.67,5.7-2,1.32-.22,3.21,1.07,4,0,.49-.65,3.57-.6,2.88-1-1.24-.79-6.51-.17-7.91-.63-.9-.3-6.89.33-3.79-2.25-.72-4.17-5.16,4-8.94,3.92-1.56,0-4.37-.12-4.36-1.67,0-1.31,2.88-.31,3.69-1.34s1-2.49.33-3.35c-.86-1-2.7-.07-4-.34-3.22-.64-6.58-1.3-9.38-3-1.08-.66-1.42-2.71-2.68-2.68-2.29,0-3.52,3-4.69,5C41.87,52.88,37.54,57.86,40,61.3Z" transform="translate(0 0)"/><path id="path5943" class="cls-8" d="M52.78,37.43c-2.63,0-3.28,5-5.9,5.22-1.21.1-1.89-1.79-3.09-1.91-4.63-.43-8.44,4.33-13,5-1.81.25-3.65-.83-5.44-.48-2.18.44-7.88.45-7.35,2.62.38,1.53,5.68-1,6.15.47s-2.91,1.34-3.77,2.61c-.41.61.1,1.67-.48,2.12-2.18,1.7-4.12.79-6.87,1.07S3.58,52,3.5,54.72c0,1.4,2.74.64,4,1.2a7.62,7.62,0,0,1,2.38,1.41c.33.32.3,1,.7,1.18,2.25,1.18,5.07-.66,7.59-.48a23,23,0,0,1,5.68,1.21c2.65.88,4.94,2.67,7.59,3.54,1.15.38,2.86-.29,3.55.71.87,1.24-1.85,3.5-.71,4.5,1.43,1.24,3.58-1.38,5.45-1.66a19.58,19.58,0,0,1,5.46,0,22.41,22.41,0,0,1,5.2,1.43c1.41.56,2.62,1.55,4,2.13C57.19,71,60.05,73,63,72.51c2.18-.35,19.67-5.41,5.45-3.8-.41-2.51-1.77.54-7.36-2.13-1.36-.65-3.65,1-4.5-.25-.7-1,.32-2.64,1.18-3.55s3.2-.21,3.57-1.43c.27-.92-1-1.65-1.66-2.36-.84-.91-1.61-2.27-2.84-2.37-1.55-.12-2.69,1.6-4,2.37a8.69,8.69,0,0,1-2.59,1.43c-1.42.24-3.31.35-4.27-.73s.06-3-.25-4.5c-.13-.66-1-1.29-.7-1.88.89-1.64,3.65-.74,5.45-1.19,3.11-.77,6.18-1.68,9.25-2.61,2.22-.67,2.61-1.31,6.63-2.13.61-1,7.38-1.8,6.39-2.48s-9.8-.62-11.14-.36c-1.5.29-3,.68-4.49,1s-3.77,1.86-5,.71-.17-3.3.48-4.75c1.32-1.24,9.45,1.19.22-4ZM23.88,56.27l2.62.35,3.19,1.19,1.89.6,1.55.7-.6.58L31,59.34l-2.26-.58L27,57.68l-2.38-1.06Z" transform="translate(0 0)"/><path id="path5945" class="cls-4" d="M35.66,66.66c1.87.48,3.18,0,4.69,0s3-.23,4.36-.34a34.39,34.39,0,0,0,4-.33c1.4-.27,3.33-.56,4.35-1.34S55.4,63.3,54.76,62s-4.24-.2-5.7-.67-1.79-1.16-3-1.68-3-1.48-4.36-1.34-2,.95-3,1.67-1.47,2-3,2.69-5.61-1.45-6,.67,4.16,2.86,6,3.35Z" transform="translate(0 0)"/><path id="path5947" class="cls-9" d="M71.18,49.9l4,1.68,2.68-1.68,2.68.67,3.69,1.68,3,1a3.13,3.13,0,0,1-2.34.34c-1.34-.34-4.36-.67-4.36-.67l-4.36,2-2.68-.67-2.34-1.34Z" transform="translate(0 0)"/><path id="path5949" class="cls-10" d="M52.92,60.12l4.69-.33,3.35.67,5-.17,4.7-.67-4-.5s-2.51.16-3.51.33-3.69-.67-4.53-.67H56.1a8.35,8.35,0,0,0-3.18,1.34Z" transform="translate(0 0)"/><path id="path5951" class="cls-11" d="M55.09,42.53l1.68-1,.5-1.5,1.68.5.67.33v2H58.28l-1.85,1.34Z" transform="translate(0 0)"/><path id="path5953" class="cls-12" d="M70.51,58.45l4.69-.34,3.35.67,5-.17,4.69-.67-4-.5s-2.52.17-3.52.34-3.69-.67-4.53-.67H73.69a8.35,8.35,0,0,0-3.18,1.34Z" transform="translate(0 0)"/><path id="path5955" class="cls-12" d="M65.48,44.88l4.69-.34,3.35.67,5-.17,4.69-.67-4-.5s-2.51.17-3.52.34-3.68-.67-4.52-.67H68.66a8.35,8.35,0,0,0-3.18,1.34Z" transform="translate(0 0)"/><path id="path5957" class="cls-10" d="M51.07,66.32,55.76,66l3.35.67,5-.17,4.69-.67-4-.5s-2.51.16-3.52.33S57.61,65,56.77,65H54.26a8.34,8.34,0,0,0-3.19,1.34Z" transform="translate(0 0)"/><path id="path5959" class="cls-12" d="M11.87,59.79l4.69-.34,3.35.67,5-.17,4.69-.67-4-.5s-2.52.17-3.52.34-3.69-.67-4.53-.67H15.05a8.35,8.35,0,0,0-3.18,1.34Z" transform="translate(0 0)"/><path id="path5961" class="cls-13" d="M30.8,51.91l2.68-1.67,1.84.16,3-1H42l2.84-.34-1.5,2.18-2.69-.5-3.18.67-2.85,1Z" transform="translate(0 0)"/></g></g><path id="path6396" class="cls-14" d="M16.73,82.59c.11-.12.06-.11.43-.08l.39,0c.08,0,.11,0,.19-.08l.07-.07-.07,0-.17,0-.47-.13-.05,0,0,0,.06-.07s.06-.07.1-.08a1.18,1.18,0,0,1,.34,0h.25l.37,0c.05,0,.05,0,.12-.06s.09-.09.05-.08-.05,0-.09,0l-.19,0-.12,0s.07-.07.16-.15a.85.85,0,0,0,.15-.15.64.64,0,0,0-.21-.09l-.38.2c-.5.27-.49.27-.58.25s-.11,0-.1-.1,0-.09.27-.27l.27-.21,0,0a.67.67,0,0,0-.23-.1l-.09.05-.17.09-.3.17a.22.22,0,0,1-.23,0s0,0,0-.06,0-.12.22-.28l.19-.15a.69.69,0,0,0-.17-.09c-.21-.09-.24-.1-.27-.2l0-.08.06-.06c.11-.12.11-.12.31-.07a.57.57,0,0,0,.19,0l-.07-.24L16.81,80l0-.06,0-.06h.07c.1,0,.13,0,.15,0s.11.2.18.35c.18.34.17.32.22.34l.15,0-.09-.28c-.15-.43-.14-.39-.11-.46l0-.07h.08c.07,0,.09,0,.12,0s.18.3.4.71c.11.2.11.21.18.22l.1,0,.05,0,0-.15c0-.08-.05-.16-.06-.17s0-.11,0-.12.11,0,.31.07l.11,0a.62.62,0,0,0,0-.18.12.12,0,0,0-.05,0l-.1-.06-.13-.08-.12-.06L18,80c-.29-.16-.29-.16-.31-.29s0-.05,0-.09a.2.2,0,0,1,.08,0,1.23,1.23,0,0,1,.43.13l.26.09v0a.66.66,0,0,1,0-.11c0-.07,0-.08-.05-.09l-.12-.07-.14-.09a2.75,2.75,0,0,1-.37-.21.31.31,0,0,1-.05-.18s.11-.13.12-.11,0,0,0,0l.34.13.16.07v0s0-.11,0-.19a1.16,1.16,0,0,1,0-.16.46.46,0,0,1,.14-.17s.07,0,.17,0l.07,0,.06.2a.75.75,0,0,0,.07.19l.11-.12.14-.15.06-.07s0,0,.11-.06.12,0,.14.09,0,.05-.19.42a2.86,2.86,0,0,0-.17.29l-.05.08,0,.13c0,.07,0,.12,0,.12s0,0,.05,0l.09-.1.19-.23.14-.17.07,0c.08,0,.1,0,.13.08s0,.06,0,.07l0,.1a.63.63,0,0,1-.07.12c0,.06-.38.67-.39.7s0,.07,0,.12,0,.1.05.09.05,0,.07,0a2.16,2.16,0,0,1,.23-.22,2,2,0,0,1,.1.38c0,.05,0,.05,0,0a.39.39,0,0,0,.15-.13s0-.26,0-.55v-.51l.07-.06.06-.06.08,0c.07,0,.07,0,.08.1a.84.84,0,0,1,0,.18l0,.29c0,.1,0,.18,0,.19l.18-.14a.49.49,0,0,0,0-.17v-.42c0-.21,0-.29,0-.3l0,0s0,0,.1,0,.08,0,.09.07,0,.2.05.34,0,.16,0,.16l.06,0,.07-.06a.4.4,0,0,0,.07-.07s.08-.07.1-.07a.47.47,0,0,1,.21,0h.06l0,.09c0,.1,0,.15,0,.18l-.06.07a.48.48,0,0,1-.1.12.3.3,0,0,0-.07.09h0l.39.08a.23.23,0,0,1,.15.1s0,0,0,.14-.05,0-.12.06h-.22l-.29,0h-.23a.76.76,0,0,0-.18.18,2.9,2.9,0,0,0,.51.1c.2,0,.23,0,.26.08s0,.07,0,.15-.1.08-.29.09-.11,0-.11,0,0,0,0,0a0,0,0,0,0,0,0h-.37a.92.92,0,0,0-.32,0c-.08,0-.17.18-.11.16l.1,0,.2.06.12,0s0,0,0,.05a2.81,2.81,0,0,0-.29.26s0,0,.06,0l.13.05c.06,0,.09,0,.68-.35l.25-.13a.2.2,0,0,1,.11,0c.07,0,.08,0,.09,0a.13.13,0,0,1-.07.14l-.08.08-.07,0s0,0,0,0a0,0,0,0,1,0,0,.19.19,0,0,0-.08,0l-.17.14c-.05,0-.1.08-.09.09a.78.78,0,0,0,.2.09.12.12,0,0,0,.1,0,3.1,3.1,0,0,0,.38-.23c.24-.16.24-.16.31-.16s.11,0,.11.1,0,.08-.24.28c-.08.08-.16.14-.16.15s0,0,.21.1.19.08.23.21l0,.11-.06,0c-.16.1-.17.1-.31.07l-.21,0h0a2.13,2.13,0,0,0,.08.23l.08.24,0,.07c0,.1-.07.12-.13.1s-.1,0-.16-.16-.24-.46-.29-.54-.05,0-.13-.06l-.12,0a2.94,2.94,0,0,0,.19.53l0,.07,0,.1c0,.1-.07.12-.16.1s-.08,0-.16-.19l-.24-.46c-.16-.3-.16-.29-.18-.31l-.1,0c-.11,0-.11,0-.11,0s0,.06,0,.12,0,.15.05.19a.51.51,0,0,1,0,.1s-.08,0-.24,0-.17,0-.17,0a.39.39,0,0,0,0,.09c0,.08,0,.09.06.11a.61.61,0,0,1,.1.07l.2.14.27.19.18.12a.18.18,0,0,1,.1.16v.08l-.08,0c-.1,0-.12,0-.45-.12a1,1,0,0,0-.27-.11.19.19,0,0,0,0,.08.23.23,0,0,0,.09.2l0,0a2,2,0,0,0,.22.22,3,3,0,0,1,.24.23.18.18,0,0,1,0,.11c0,.06,0,.07,0,.09a.21.21,0,0,1-.17,0,3.36,3.36,0,0,1-.35-.22s-.05,0-.06,0a1.19,1.19,0,0,0,0,.15c0,.23,0,.22-.16.33l-.06.05-.09-.05a.38.38,0,0,1-.11-.08.37.37,0,0,1,0-.14V83.9s0,0,0,0l-.11.08-.08,0,0,0-.12.07-.09.06-.06,0a.19.19,0,0,1-.1-.18c0-.09,0-.1.07-.13l.1-.08a2.61,2.61,0,0,1,.4-.29s0,0,0-.12a.6.6,0,0,0,0-.11l0,0-.33.32c-.09.09-.12.11-.16.12a.12.12,0,0,1-.14-.07c0-.07,0-.1,0-.19l.26-.35c.23-.31.28-.38.28-.44a.3.3,0,0,0,0-.12l0-.06,0,0-.07.06-.11.1-.1.09s0-.05,0-.11a1.78,1.78,0,0,1,0-.2c0-.07,0-.13,0-.14a.64.64,0,0,0-.17.13.5.5,0,0,0,0,.17.59.59,0,0,1,0,.11c0,.07,0,.31,0,.56s0,.22-.07.26-.1.06-.16,0-.08-.06-.09-.29a1.88,1.88,0,0,0,0-.23s0-.08,0-.12,0-.14-.08-.08l-.08.07a1.79,1.79,0,0,0,0,.34c0,.12,0,.22,0,.24a.31.31,0,0,0,0,.11.16.16,0,0,1-.05.14c-.08.07-.12.08-.19,0s-.06,0-.09-.31,0-.24,0-.22l-.13.09-.14.1a.47.47,0,0,1-.2,0l0,0v-.08c0-.08,0-.16,0-.17l.06,0,.12-.13.07-.08a1,1,0,0,0-.25-.07c-.25-.06-.27-.07-.32-.16s0,0,0-.08Z" transform="translate(0 0)"/><path id="path6400" class="cls-14" d="M25.63,80.52c.07-.17,0-.14.44-.24l.43-.09c.09,0,.12,0,.18-.16l.05-.09h-.29l-.55,0-.07,0-.05,0,0-.09a.21.21,0,0,1,.08-.13,1.76,1.76,0,0,1,.36-.13l.27-.07.41-.1c.06,0,.07,0,.12-.1s.06-.13,0-.11-.05,0-.1,0h-.23c-.07,0-.14,0-.14,0a1.34,1.34,0,0,1,.12-.22,1.27,1.27,0,0,0,.11-.22.77.77,0,0,0-.26,0l-.34.35c-.45.46-.44.46-.54.46s-.14,0-.15-.06,0-.12.21-.39L26,78.8s0,0,0-.06a1.27,1.27,0,0,0-.28,0l-.08.09-.15.16-.27.28c-.08.1-.14.13-.23.12s-.06,0-.07,0,0-.13.14-.38a1.28,1.28,0,0,0,.15-.24l-.21,0c-.26,0-.29,0-.37-.14l-.05-.07,0-.09c.08-.16.07-.16.31-.17a.85.85,0,0,0,.22,0L25,77.93l-.15-.23v-.14l.08,0c.11,0,.15,0,.17,0a2.64,2.64,0,0,1,.32.31c.31.31.3.3.36.3h.18l-.2-.28c-.31-.41-.28-.37-.27-.46v-.08l.09,0a.17.17,0,0,1,.14,0,6.6,6.6,0,0,1,.68.62c.19.18.2.19.27.17h.18l-.1-.15a.85.85,0,0,0-.12-.17q-.08-.09-.06-.12a1.06,1.06,0,0,1,.37,0H27a.6.6,0,0,0-.09-.18s0,0-.07,0a.35.35,0,0,1-.13,0l-.17,0-.15,0-.3-.06c-.37-.07-.37-.07-.44-.2s0-.06,0-.11.05-.07.07-.07a1.45,1.45,0,0,1,.52,0h.3s0,0,0,0l-.08-.12c0-.06-.05-.07-.09-.08l-.15,0-.19,0a3,3,0,0,1-.47-.11.34.34,0,0,1-.11-.18s.07-.17.08-.16h0s.11,0,.41,0h.2l0,0-.1-.19c0-.08-.08-.15-.08-.16a.54.54,0,0,1,.09-.24s.07,0,.2,0h.08l.13.18a.93.93,0,0,0,.14.19l.08-.17.09-.2a1.17,1.17,0,0,0,.05-.11c0-.06,0-.06.1-.1s.13,0,.18,0,.05,0-.06.52c0,.15-.07.32-.08.38l0,.1.08.13c.05.07.08.12.09.11s0,0,0-.07a1,1,0,0,0,.06-.14l.13-.32.1-.24.07,0c.07,0,.1,0,.16,0s0,.06,0,.08,0,.08,0,.13a.57.57,0,0,1,0,.15c0,.09-.18.86-.18.9a.62.62,0,0,0,.06.12c.06.1.06.1.09.08a.21.21,0,0,0,.05-.07c0-.07.17-.32.17-.32a1.44,1.44,0,0,1,.24.37c0,.05,0,.05.06,0a.43.43,0,0,0,.12-.2s-.08-.28-.19-.58l-.18-.56.05-.09.05-.08h.09c.09,0,.09,0,.14.08l.09.18.14.3.09.2a1.39,1.39,0,0,0,.15-.22.5.5,0,0,0,0-.19,1.62,1.62,0,0,1-.06-.19s0-.13-.09-.26-.09-.32-.06-.34l0-.06s0,0,.11,0a.17.17,0,0,1,.12.05l.17.34a.61.61,0,0,0,.09.17A.3.3,0,0,0,29,75.7l0-.08.06-.1a.48.48,0,0,1,.08-.12.77.77,0,0,1,.22-.09h.07l0,.09c.06.1.07.15,0,.21l0,.09a.68.68,0,0,1-.07.17c0,.06-.05.11,0,.11s0,0,0,0l.44,0a.26.26,0,0,1,.21,0c.06,0,.06,0,0,.17s0,.06-.11.1l-.1,0-.14,0-.32.09-.25.08a1,1,0,0,0-.13.25,2.18,2.18,0,0,0,.58-.06c.24,0,.27,0,.32,0s.08.06,0,.16-.07.13-.27.2-.12,0-.12.07,0,.06,0,0,0,0,0,0l-.06,0-.35.1a1.76,1.76,0,0,0-.34.13c-.06.08-.11.26-.06.22h.51a.21.21,0,0,1,0,.06L29,78s0,0,.09,0h.16c.07,0,.09,0,.62-.62l.21-.23a.35.35,0,0,1,.13,0c.08,0,.1,0,.11,0a.17.17,0,0,1,0,.18l-.07.11a.35.35,0,0,1,0,.08.08.08,0,0,0,0,0s0,0,0,0,0,0-.07.09l-.13.2a1.08,1.08,0,0,0-.08.13l.26,0a.13.13,0,0,0,.11,0,3.62,3.62,0,0,0,.32-.38c.2-.25.21-.26.28-.27s.13,0,.16.06,0,.08-.16.39a2,2,0,0,0-.13.22s.06,0,.27,0,.23,0,.32.15l.07.1-.06.07c-.13.16-.14.17-.3.19a.85.85,0,0,1-.24,0h0l.17.22.17.22v.1c0,.12,0,.15-.11.16s-.12,0-.23-.13l-.5-.48s-.06,0-.16,0h-.14a5,5,0,0,0,.39.51l.06.06v.12c0,.13,0,.16-.13.17s-.11,0-.25-.15L29.56,79c-.28-.28-.27-.27-.3-.27a.23.23,0,0,0-.12,0c-.12,0-.13,0-.11,0l.07.12a1.6,1.6,0,0,0,.11.19l.05.1s-.08,0-.28,0-.19,0-.19,0a.29.29,0,0,0,.05.1c0,.07.05.08.1.09l.13,0,.26.09.37.11.23.06a.2.2,0,0,1,.16.15l0,.08-.08.06c-.09.08-.11.08-.52,0l-.33,0s0,.05,0,.1a.3.3,0,0,0,.17.18l.05,0,.32.15.35.17a.23.23,0,0,1,.05.11c0,.07,0,.08,0,.12a.19.19,0,0,1-.18.07,3,3,0,0,1-.45-.1s-.07,0-.07,0l0,.17c.08.24.08.24,0,.41l-.05.07-.12,0-.15,0-.07-.15L29,81.08,29,81s0,0,0,0l-.09.12a.21.21,0,0,0-.07.08s0,0,0,0l-.1.11-.08.1-.08,0a.23.23,0,0,1-.17-.16c0-.09,0-.11,0-.17a.52.52,0,0,0,.08-.11,2.89,2.89,0,0,1,.33-.47s0,0,0-.12a.33.33,0,0,0-.07-.11s0,0,0,0l-.24.46c-.08.13-.1.16-.14.18s-.12,0-.18,0-.07-.1,0-.22.09-.27.16-.47c.14-.41.17-.5.15-.57s-.05-.08-.07-.12l-.06-.06,0,.06-.05.08-.09.16C28,79.9,28,80,28,80s-.07,0-.1-.1-.06-.13-.1-.2l-.08-.15a.69.69,0,0,0-.14.2.71.71,0,0,0,0,.2.6.6,0,0,1,0,.11c0,.08.08.35.15.62s.06.24,0,.31-.08.1-.16.09-.1,0-.2-.28-.09-.22-.1-.24a.52.52,0,0,1-.06-.13c-.06-.14-.06-.15-.12-.05l-.06.09a1.53,1.53,0,0,0,.09.39c0,.12.06.24.07.26a.41.41,0,0,0,0,.12.19.19,0,0,1,0,.17c-.05.11-.1.13-.19.11s-.08,0-.2-.31-.11-.25-.13-.22a.82.82,0,0,0-.12.15l-.12.16a.36.36,0,0,1-.22,0h-.06l0-.09a.22.22,0,0,1,0-.19L26.2,81l.09-.18.05-.11h-.29c-.3,0-.32,0-.41-.06s0,0,0-.09Z" transform="translate(0 0)"/><path id="path6400-2" data-name="path6400" class="cls-14" d="M24.31,90.36c.1-.25,0-.21.62-.36l.62-.14c.12,0,.16-.06.25-.23l.08-.14h-.41l-.79,0-.09,0-.08,0,0-.14a.41.41,0,0,1,.11-.19,2.37,2.37,0,0,1,.53-.2l.38-.1.59-.15c.08,0,.08,0,.16-.15s.08-.2,0-.16a.25.25,0,0,1-.14,0l-.33,0h-.2a1.6,1.6,0,0,1,.17-.33,2.38,2.38,0,0,0,.16-.33,1.18,1.18,0,0,0-.37,0s-.24.25-.49.52c-.63.7-.62.69-.76.7s-.2,0-.21-.1,0-.18.28-.58l.31-.48s0-.07,0-.08a1.1,1.1,0,0,0-.4,0,1.2,1.2,0,0,0-.12.14l-.21.23c-.15.16-.26.28-.38.43a.37.37,0,0,1-.33.17c-.08,0-.09,0-.11-.08s0-.19.21-.56c.12-.19.22-.35.22-.36l-.31,0c-.37,0-.41,0-.52-.19l-.08-.11.06-.14c.11-.23.11-.23.45-.26l.31,0s-.1-.17-.22-.36l-.23-.34V86l.12,0c.15,0,.2-.06.24,0s.27.27.45.46c.44.47.42.45.51.45h.25s-.12-.19-.27-.41c-.45-.61-.41-.55-.4-.68v-.12l.13,0a.23.23,0,0,1,.2,0,11,11,0,0,1,1,.93c.27.27.28.28.39.26a.5.5,0,0,1,.17,0H26l-.14-.22-.17-.25c-.07-.09-.11-.16-.09-.19a1.49,1.49,0,0,1,.52,0h.19a1.09,1.09,0,0,0-.13-.27.13.13,0,0,0-.1-.06l-.19,0-.24-.05-.22,0L25,85.44c-.53-.1-.53-.11-.63-.3s0-.08,0-.16a.37.37,0,0,1,.1-.11,2.13,2.13,0,0,1,.74,0,3.54,3.54,0,0,0,.43,0s0,0,0-.08a1.09,1.09,0,0,1-.1-.17c-.06-.09-.08-.11-.14-.12a.82.82,0,0,1-.22,0l-.26-.06a5.4,5.4,0,0,1-.68-.16.49.49,0,0,1-.15-.26c0-.06.1-.26.12-.24h0a2.81,2.81,0,0,1,.58,0l.28,0,0-.08s-.09-.17-.14-.28a2.14,2.14,0,0,1-.12-.25.79.79,0,0,1,.13-.35s.1,0,.28,0h.12l.19.28c.1.16.19.28.19.28l.12-.25.13-.31a.49.49,0,0,0,.06-.16c0-.08,0-.09.15-.14s.18-.06.26.07.07.07-.09.77c-.05.22-.1.47-.12.56l0,.16.11.19a1,1,0,0,0,.13.17l.05-.1s0-.15.08-.22.11-.28.19-.47l.13-.35.1-.06c.11-.07.15-.06.24,0a.13.13,0,0,1,0,.12,1.18,1.18,0,0,0,0,.19,1.14,1.14,0,0,1-.05.23c0,.12-.26,1.28-.26,1.33a.7.7,0,0,0,.09.19c.08.14.09.15.12.12a.52.52,0,0,0,.08-.11l.25-.48a3.18,3.18,0,0,1,.34.56c0,.07,0,.07.08,0a.63.63,0,0,0,.17-.29s-.12-.43-.27-.88l-.26-.83.07-.13.07-.12h.13c.14,0,.14,0,.2.13l.13.26a4.61,4.61,0,0,0,.2.45l.13.29a2.21,2.21,0,0,0,.22-.32,1.16,1.16,0,0,0-.07-.28c0-.14-.07-.27-.08-.28s-.06-.2-.12-.39c-.11-.34-.14-.48-.09-.52s0,0,.05-.08,0-.06.15,0,.14,0,.18.08A5.52,5.52,0,0,1,29,83c.07.16.11.25.13.25a.7.7,0,0,0,.07-.11l.08-.12.08-.15a.82.82,0,0,1,.11-.17.86.86,0,0,1,.32-.13l.09,0,.08.13c.08.15.09.23.05.31a.45.45,0,0,0-.06.14,1.83,1.83,0,0,1-.1.25,1,1,0,0,0-.07.17.2.2,0,0,0,.08,0l.63-.07a.42.42,0,0,1,.29.07c.09.07.09.07,0,.26s0,.1-.17.15l-.14.06-.19,0-.46.14a1.76,1.76,0,0,0-.36.12,1.14,1.14,0,0,0-.18.37,3.42,3.42,0,0,0,.83-.1c.33-.06.38-.06.45,0s.11.09.05.25-.11.18-.39.29-.17.06-.17.1,0,.08-.06,0,0,0-.05,0l-.09,0-.49.15a1.92,1.92,0,0,0-.49.19c-.09.12-.16.39-.09.33h.52a.67.67,0,0,1,.21,0,.49.49,0,0,1,0,.09c-.08.13-.31.53-.33.58s0,0,.13.06a1.59,1.59,0,0,0,.22,0c.1,0,.13,0,.88-.92a3.25,3.25,0,0,1,.31-.34.56.56,0,0,1,.18-.05c.11,0,.14,0,.15,0a.24.24,0,0,1,0,.26l-.1.17a.52.52,0,0,1-.07.11.17.17,0,0,0,0,.07s0,0,0,0a.56.56,0,0,0-.09.12c0,.07-.12.21-.19.31a1.65,1.65,0,0,0-.11.2,2,2,0,0,0,.37,0,.17.17,0,0,0,.15-.07,6.54,6.54,0,0,0,.46-.57c.29-.38.29-.39.41-.41s.18,0,.22.09,0,.13-.23.59a2.86,2.86,0,0,0-.18.32s.07,0,.38,0,.33,0,.46.23l.1.15-.09.11c-.19.23-.2.24-.43.28a1.38,1.38,0,0,1-.34,0s-.05,0-.05,0l.23.33.24.33v.15c0,.17,0,.21-.15.23s-.17,0-.33-.19-.6-.61-.71-.71-.09,0-.23,0h-.21a6.38,6.38,0,0,0,.57.75l.09.1,0,.18c0,.19-.05.23-.2.25s-.15,0-.35-.23l-.59-.61c-.41-.41-.39-.39-.43-.4a.54.54,0,0,0-.17,0c-.18,0-.18,0-.16,0s.05.09.1.18l.16.3.08.14s-.12.06-.4.06-.28,0-.28,0a.56.56,0,0,0,.07.15c.06.1.07.12.14.14l.19.06.37.12.52.17.33.1a.28.28,0,0,1,.24.21l0,.12-.11.09c-.14.12-.17.12-.75,0l-.47,0a.43.43,0,0,0,0,.14c.05.15.13.25.23.27a.19.19,0,0,1,.08,0l.45.22a3.23,3.23,0,0,1,.49.26.31.31,0,0,1,.09.16c0,.1,0,.12,0,.17a.31.31,0,0,1-.25.12c-.07,0-.33-.07-.64-.16-.06,0-.1,0-.1,0a.85.85,0,0,0,.06.25c.11.37.11.35-.08.62l-.07.1-.17,0a.62.62,0,0,1-.2-.07.5.5,0,0,1-.1-.21c0-.1-.07-.22-.09-.25l0-.12s0,0,0,0l-.13.18a1.47,1.47,0,0,0-.1.12.15.15,0,0,1,0,.06,1.1,1.1,0,0,0-.14.17l-.12.14-.1,0a.31.31,0,0,1-.25-.24c0-.13,0-.16,0-.24a.81.81,0,0,0,.12-.18,6.21,6.21,0,0,1,.47-.69s0,0-.05-.19a.67.67,0,0,0-.11-.15s0,0-.06.08l-.34.67c-.1.2-.13.25-.19.28s-.18,0-.25,0-.1-.16-.05-.34.13-.39.23-.69c.2-.62.24-.76.21-.85A.58.58,0,0,0,28,89L28,88.9l0,.08s-.06.1-.07.13-.08.13-.13.23a.9.9,0,0,1-.11.19s-.09,0-.13-.14l-.15-.31a.86.86,0,0,0-.12-.21,1,1,0,0,0-.18.29.75.75,0,0,0,0,.3.49.49,0,0,1,0,.16c0,.13.12.52.23.93s.08.36,0,.47-.12.15-.22.13-.16-.07-.3-.43c-.06-.15-.12-.31-.14-.35l-.09-.2c-.08-.21-.08-.21-.16-.07l-.09.14a2.33,2.33,0,0,0,.12.58c.05.18.1.36.1.38l.05.19a.27.27,0,0,1,0,.25c-.07.16-.13.19-.26.16s-.11,0-.29-.45-.15-.38-.19-.34l-.16.23a1.91,1.91,0,0,1-.17.23.61.61,0,0,1-.32.07h-.09l-.05-.13c0-.12-.06-.25,0-.28s0-.07.06-.12.08-.18.13-.27l.07-.17-.42,0c-.42,0-.45,0-.58-.09s0-.06,0-.13Z" transform="translate(0 0)"/></g><g id="g7153"><path id="path7018" class="cls-15" d="M64.76,81.62s-12.25-.49-16.28-.57c-.32,0-.87.06-.87.38s.55.35.86.36C52.44,81.87,64.76,81.62,64.76,81.62Z" transform="translate(0 0)"/><path id="path7020" class="cls-15" d="M74.74,89.73s-11.1-.45-14.75-.52c-.29,0-.8.06-.79.34s.5.32.78.32c3.6.08,14.76-.14,14.76-.14Z" transform="translate(0 0)"/><path id="path7022" class="cls-15" d="M69.12,85.3s-6-.24-7.91-.28c-.16,0-.43,0-.43.18s.27.17.43.17C63.13,85.42,69.12,85.3,69.12,85.3Z" transform="translate(0 0)"/><path id="path7024" class="cls-15" d="M80.62,87.12s-19.13-.77-25.41-.89c-.5,0-1.37.09-1.36.59s.86.54,1.35.55c6.19.14,25.42-.25,25.42-.25Z" transform="translate(0 0)"/><path id="path7046" class="cls-15" d="M54.69,83.79s-5.64-.23-7.49-.26c-.14,0-.4,0-.4.17s.26.16.4.16c1.82,0,7.49-.07,7.49-.07Z" transform="translate(0 0)"/><path id="path7056" class="cls-15" d="M51.63,77.47s-8.12-.32-10.79-.37c-.21,0-.58,0-.58.25s.37.23.58.23C43.46,77.64,51.63,77.47,51.63,77.47Z" transform="translate(0 0)"/><path id="path7060" class="cls-15" d="M49.45,83s-5.37-.22-7.14-.25c-.14,0-.38,0-.38.16s.24.15.38.16C44.05,83.09,49.45,83,49.45,83Z" transform="translate(0 0)"/><path id="path7070" class="cls-15" d="M75.33,78.42s-15.79-.64-21-.73c-.41,0-1.13.07-1.12.48s.71.45,1.11.46c5.11.11,21-.21,21-.21Z" transform="translate(0 0)"/><path id="path7076" class="cls-15" d="M83.33,82.92s-10.84-.43-14.4-.5c-.28,0-.77,0-.77.33s.49.31.77.32C72.43,83.14,83.33,82.92,83.33,82.92Z" transform="translate(0 0)"/></g></svg>