<svg id="svg13195" xmlns="http://www.w3.org/2000/svg" xmlns:xlink="http://www.w3.org/1999/xlink" viewBox="0 0 110 110"><defs><style>.cls-1{fill:#520;fill-opacity:0;}.cls-2{fill:#76797e;}.cls-2,.cls-3{opacity:0.85;}.cls-10,.cls-11,.cls-12,.cls-13,.cls-2,.cls-3,.cls-4,.cls-5,.cls-6,.cls-7,.cls-8,.cls-9{isolation:isolate;}.cls-3{fill:url(#linear-gradient);}.cls-4,.cls-7{fill:#999;}.cls-4,.cls-9{opacity:0.9;}.cls-5{fill:#666;}.cls-5,.cls-6,.cls-7{opacity:0.8;}.cls-6{fill:#ccc;}.cls-8{opacity:0.95;fill:url(#linear-gradient-2);}.cls-9{fill:#a6a7a7;}.cls-10{fill:#b3b3b3;}.cls-10,.cls-12{opacity:0.5;}.cls-11{fill:#9c9ea0;opacity:0.67;}.cls-12{fill:#959798;}.cls-13{fill:gray;opacity:0.6;}.cls-14{fill:#6f8a91;}.cls-15{fill:#fff;}</style><linearGradient id="linear-gradient" x1="-664.52" y1="-582.39" x2="-528.13" y2="-539.89" gradientTransform="matrix(0.66, 0, 0, -0.66, 457.32, -318.41)" gradientUnits="userSpaceOnUse"><stop offset="0" stop-color="#57646d"/><stop offset="1" stop-color="#57646d" stop-opacity="0"/></linearGradient><linearGradient id="linear-gradient-2" x1="-936.74" y1="-359.11" x2="-947.98" y2="-302.96" gradientTransform="matrix(0.66, 0, 0, -0.66, 663.94, -166.77)" gradientUnits="userSpaceOnUse"><stop offset="0" stop-color="#ccc"/><stop offset="1" stop-color="gray"/></linearGradient></defs><g id="layer1"><g id="overcast"><rect id="rect6733" class="cls-1" width="110" height="110"/><g id="g5929"><path id="path5931" class="cls-2" d="M54.93,68.16c1.77,2.38,5.77,2.27,8.71,1.85,1.75-.25,3.08-1.76,4.69-2.52a21.56,21.56,0,0,1,4.52-1.84c3.83-.8,11.73-.33,11.73-.33s-10.11,2.41-10.22-1c0-1.41,2.79-.45,4.19-.67s4,2,4.36-.67-.51-2.34.5-2.68a20.58,20.58,0,0,0,2.51-1.17s-2.62-2.1-4-3c-1.23-.81-3.42-.77-3.85-2.18s.8-2.78,1.84-3.68c.8-.7,3.35-.34,3-1a10.54,10.54,0,0,0-2.35-3,17,17,0,0,0-5-2.18,25,25,0,0,0-5-1.34,24.53,24.53,0,0,0-4,0c-1.9,0-4-.45-5.7.33a8.75,8.75,0,0,0-4.19,4.19c-2.93,6.36-5.86,15.33-1.67,20.94Z" transform="translate(0 0)"/><path id="path5933" class="cls-3" d="M43.79,48.09c1.46-1.76,3.65-2.87,5-4.74.45-.63.49-1.5,1-2.13.62-.86,1.34-2.38,2.37-2.13,1.31.32.4,2.91,1.42,3.79a4.54,4.54,0,0,0,3.32.71c1-.09,2.32-.3,2.84-1.19.37-.61-.52-1.47-.23-2.13.21-.49-1.88-1,1.3-1,1.14,0,3.06,1,4.62.83,1.37-.1,5.15-1.12,3.91-1.3,1,1.95-3,3.27-4.62,4.74-.67.6-2.36.78-2.13,1.66s1.88.56,2.84.47a9.57,9.57,0,0,0,3.32-1.18c1-.51,1.72-1.69,2.84-1.9s2,.52,3.08.71,2.53,1.1,3.55.48a2.39,2.39,0,0,0,1-2.61c-.28-.76-1.56-.61-2.13-1.18s-2-1.8-1.42-2.61c.87-1.24,3,.67,4.5.71.71,0,1.43-.36,2.13-.24.18,0,.43.07.48.24.25.88-1.34,1.45-1.43,2.37-.12,1.34,1.84,2.51,1.43,3.79-.35,1.08-1.8,1.46-2.85,1.9a34.3,34.3,0,0,1-3.55.71A44.79,44.79,0,0,0,70.56,49c-.65.28-2,.25-1.89,1,.19,1.69,3.27,1.28,5,1.18,2.1-.12,3.83-2.11,5.93-2.13a6.65,6.65,0,0,1,2.84,1c1.44.69,2.45,2.34,4,2.6s3.12-1,4.74-1.18c1.17-.15,2.58-.68,3.55,0s1.79,2.31,1.18,3.32c-1.1,1.84-4.24.92-6.39.94-1.83,0-4.88-2.45-5.45-.71-.51,1.55,2.72,1.85,4.26,2.37a15.13,15.13,0,0,0,6.16,1,13.63,13.63,0,0,0,2.85-1c.55-.17,1.25-.88,1.66-.47.75.77-.22,2.29-1,3.08-1,1.12-2.77,1.38-4.27,1.66a13,13,0,0,1-3.79,0c-1.77-.2-3.44-1-5.21-1.19a17.65,17.65,0,0,0-3.56,0,31.13,31.13,0,0,0-5,1c-1.45.38-2.79,1.18-4.27,1.42-1.09.18-2.72.93-3.31,0-.71-1.1,2.29-2.41,1.65-3.55-.92-1.67-3.8-1-5.68-.71a10.58,10.58,0,0,0-4.74,2.37c-1.09.89-1.28,2.85-2.61,3.31-2.29.81-4.7-1.26-7.11-1.66-4.93-.8-12.76,3.09-14.92-1.42-2.25-4.68,5.2-9,8.53-13Z" transform="translate(0 0)"/><path id="path5935" class="cls-4" d="M47.72,53.92l5,1,4,1.34,4,.33,3.35-.33a2.51,2.51,0,0,1,1.68-1c1.34-.33.67-.33,2-.67a27.46,27.46,0,0,0,3-1l1-.67s0-.67-1.68-1-2.34-3.35-2.34-3.35a5.19,5.19,0,0,0-3.69-.33c-1.67.67-3.35,2-5.36,2.34s-6-.67-6-.67l-3,2Z" transform="translate(0 0)"/><path id="path5937" class="cls-5" d="M24.77,62l3.52-1.34,2.84,1.17a2.94,2.94,0,0,1,1.51-1.17c.84-.17,2.52.83,3.19.83s-3.69,0,2,.34,5.53,1,5.36.17-2.18-2.69.5-2.18l2.68.5,4-1,4.53,2.18,2,.17a18.31,18.31,0,0,1,3.85,1c.84.5,3.85.33.84.5s-2.52-1.17-4.19.5a7.91,7.91,0,0,1-4.36,2.51c-.83,0-2.68-.5-4.19-.5s-2.68-.33-3.35.17S44.37,67.66,43,67.33,38,66,38,66H36.33l-3-.67a1.71,1.71,0,0,0-1-1.18,15.85,15.85,0,0,0-3-.5l-2-.17Z" transform="translate(0 0)"/><path id="path5939" class="cls-6" d="M54.26,53.59l9.55,1s3.51-1.84,4-1.67,3.35,1,3.35,1,3.68-.16,4.52-.33,6.7-.84,6.7-.84,4.36,2.35,5,2.35,8.88.83,8.88.83L107,57.61,96.81,59l-10.89-.34-5.69-.16-12.07,2-8-1.18L46.21,60.46Z" transform="translate(0 0)"/><path id="path5941" class="cls-7" d="M40,61.3c1.51,2.08,5.19.5,7.71,0,1.43-.29,2.57-1.61,4-1.68S54.59,60.81,56.1,61a10.25,10.25,0,0,0,3.35-.33c1.75-.43,3.25-1.67,5-2a27.15,27.15,0,0,1,5,0,21.65,21.65,0,0,0,3.69,0c2-.34,3.71-1.67,5.7-2,1.32-.22,3.21,1.07,4,0,.49-.65,3.57-.6,2.88-1-1.24-.79-6.51-.17-7.91-.63-.9-.3-6.89.33-3.79-2.25-.72-4.17-5.16,4-8.94,3.92-1.56,0-4.37-.12-4.36-1.67,0-1.31,2.88-.31,3.69-1.34s1-2.49.33-3.35c-.86-1-2.7-.07-4-.34-3.22-.64-6.58-1.3-9.38-3-1.08-.66-1.42-2.71-2.68-2.68-2.29,0-3.52,3-4.69,5C41.87,52.88,37.54,57.86,40,61.3Z" transform="translate(0 0)"/><path id="path5943" class="cls-8" d="M52.78,37.43c-2.63,0-3.28,5-5.9,5.22-1.21.1-1.89-1.79-3.09-1.91-4.63-.43-8.44,4.33-13,5-1.81.25-3.65-.83-5.44-.48-2.18.44-7.88.45-7.35,2.62.38,1.53,5.68-1,6.15.47s-2.91,1.34-3.77,2.61c-.41.61.1,1.67-.48,2.12-2.18,1.7-4.12.79-6.87,1.07S3.58,52,3.5,54.72c0,1.4,2.74.64,4,1.2a7.62,7.62,0,0,1,2.38,1.41c.33.32.3,1,.7,1.18,2.25,1.18,5.07-.66,7.59-.48a23,23,0,0,1,5.68,1.21c2.65.88,4.94,2.67,7.59,3.54,1.15.38,2.86-.29,3.55.71.87,1.24-1.85,3.5-.71,4.5,1.43,1.24,3.58-1.38,5.45-1.66a19.58,19.58,0,0,1,5.46,0,22.41,22.41,0,0,1,5.2,1.43c1.41.56,2.62,1.55,4,2.13C57.19,71,60.05,73,63,72.51c2.18-.35,19.67-5.41,5.45-3.8-.41-2.51-1.77.54-7.36-2.13-1.36-.65-3.65,1-4.5-.25-.7-1,.32-2.64,1.18-3.55s3.2-.21,3.57-1.43c.27-.92-1-1.65-1.66-2.36-.84-.91-1.61-2.27-2.84-2.37-1.55-.12-2.69,1.6-4,2.37a8.69,8.69,0,0,1-2.59,1.43c-1.42.24-3.31.35-4.27-.73s.06-3-.25-4.5c-.13-.66-1-1.29-.7-1.88.89-1.64,3.65-.74,5.45-1.19,3.11-.77,6.18-1.68,9.25-2.61,2.22-.67,2.61-1.31,6.63-2.13.61-1,7.38-1.8,6.39-2.48s-9.8-.62-11.14-.36c-1.5.29-3,.68-4.49,1s-3.77,1.86-5,.71-.17-3.3.48-4.75c1.32-1.24,9.45,1.19.22-4ZM23.88,56.27l2.62.35,3.19,1.19,1.89.6,1.55.7-.6.58L31,59.34l-2.26-.58L27,57.68l-2.38-1.06Z" transform="translate(0 0)"/><path id="path5945" class="cls-4" d="M35.66,66.66c1.87.48,3.18,0,4.69,0s3-.23,4.36-.34a34.39,34.39,0,0,0,4-.33c1.4-.27,3.33-.56,4.35-1.34S55.4,63.3,54.76,62s-4.24-.2-5.7-.67-1.79-1.16-3-1.68-3-1.48-4.36-1.34-2,.95-3,1.67-1.47,2-3,2.69-5.61-1.45-6,.67,4.16,2.86,6,3.35Z" transform="translate(0 0)"/><path id="path5947" class="cls-9" d="M71.18,49.9l4,1.68,2.68-1.68,2.68.67,3.69,1.68,3,1a3.13,3.13,0,0,1-2.34.34c-1.34-.34-4.36-.67-4.36-.67l-4.36,2-2.68-.67-2.34-1.34Z" transform="translate(0 0)"/><path id="path5949" class="cls-10" d="M52.92,60.12l4.69-.33,3.35.67,5-.17,4.7-.67-4-.5s-2.51.16-3.51.33-3.69-.67-4.53-.67H56.1a8.35,8.35,0,0,0-3.18,1.34Z" transform="translate(0 0)"/><path id="path5951" class="cls-11" d="M55.09,42.53l1.68-1,.5-1.5,1.68.5.67.33v2H58.28l-1.85,1.34Z" transform="translate(0 0)"/><path id="path5953" class="cls-12" d="M70.51,58.45l4.69-.34,3.35.67,5-.17,4.69-.67-4-.5s-2.52.17-3.52.34-3.69-.67-4.53-.67H73.69a8.35,8.35,0,0,0-3.18,1.34Z" transform="translate(0 0)"/><path id="path5955" class="cls-12" d="M65.48,44.88l4.69-.34,3.35.67,5-.17,4.69-.67-4-.5s-2.51.17-3.52.34-3.68-.67-4.52-.67H68.66a8.35,8.35,0,0,0-3.18,1.34Z" transform="translate(0 0)"/><path id="path5957" class="cls-10" d="M51.07,66.32,55.76,66l3.35.67,5-.17,4.69-.67-4-.5s-2.51.16-3.52.33S57.61,65,56.77,65H54.26a8.34,8.34,0,0,0-3.19,1.34Z" transform="translate(0 0)"/><path id="path5959" class="cls-12" d="M11.87,59.79l4.69-.34,3.35.67,5-.17,4.69-.67-4-.5s-2.52.17-3.52.34-3.69-.67-4.53-.67H15.05a8.35,8.35,0,0,0-3.18,1.34Z" transform="translate(0 0)"/><path id="path5961" class="cls-13" d="M30.8,51.91l2.68-1.67,1.84.16,3-1H42l2.84-.34-1.5,2.18-2.69-.5-3.18.67-2.85,1Z" transform="translate(0 0)"/></g></g></g><g id="path7070"><path class="cls-14" d="M35.89,89.45s4.33-8.93,5-11.78c0-.22-.56-.54-3.51-.22s-3.24.73-3.3,1c-.72,2.82,1.86,11,1.86,11Z" transform="translate(0 0)"/><path class="cls-15" d="M35.67,89.58a.51.51,0,0,1,0-.35l.05-.11.11-.22.21-.43.42-.88.84-1.77c.55-1.17,1.09-2.36,1.61-3.55s1-2.39,1.44-3.61q.15-.47.27-.93s0-.11,0-.08,0,0,0,0a.48.48,0,0,0-.16-.08,2.23,2.23,0,0,0-.45-.08,10.38,10.38,0,0,0-1.93,0c-.64,0-1.29.11-1.93.2a6.63,6.63,0,0,0-1.85.48c-.13.08-.25.15-.26.3L34,79a7.71,7.71,0,0,0,0,1,15.86,15.86,0,0,0,.16,1.94,55.35,55.35,0,0,0,1.74,7.6Zm.22-.13A54.93,54.93,0,0,1,34,81.86a15.71,15.71,0,0,1-.2-2,8.08,8.08,0,0,1,0-1l.08-.5c0-.19.2-.34.34-.42a6.77,6.77,0,0,1,1.91-.52c.64-.11,1.29-.18,1.94-.24a10.88,10.88,0,0,1,2,0,2.49,2.49,0,0,1,.51.09.82.82,0,0,1,.27.13.35.35,0,0,1,.1.22.75.75,0,0,1,0,.15c-.08.32-.16.64-.27,1-.4,1.25-.89,2.46-1.39,3.67s-1,2.4-1.55,3.59l-.81,1.78-.41.88-.21.45-.1.22,0,.11s0-.11-.07-.13Z" transform="translate(0 0)"/></g><g id="path7070-2" data-name="path7070"><path class="cls-14" d="M43.8,78S41.68,86.23,42.16,89c0,.22.27.62,2.44.87s2.65-.08,2.62-.3C46.82,86.77,43.8,78,43.8,78Z" transform="translate(0 0)"/><path class="cls-15" d="M44,77.8a.48.48,0,0,1,0,.33l0,.11,0,.21-.11.44-.21.87-.4,1.76c-.25,1.17-.48,2.35-.67,3.53a17.76,17.76,0,0,0-.27,3.55l0,.42a.44.44,0,0,0,.23.24,2.93,2.93,0,0,0,.8.29,12.9,12.9,0,0,0,1.76.28,6,6,0,0,0,1.75,0c.13,0,.27-.12.27-.17l-.07-.42c0-.29-.12-.58-.18-.88-.26-1.16-.59-2.32-.92-3.48-.67-2.31-1.4-4.6-2.15-6.88ZM43.8,78c.79,2.27,1.56,4.55,2.27,6.85.35,1.15.7,2.3,1,3.47.06.3.14.59.19.89a4.56,4.56,0,0,1,.08.47c-.06.26-.27.3-.41.36a5.7,5.7,0,0,1-1.84.07,12.34,12.34,0,0,1-1.8-.24,3.37,3.37,0,0,1-.89-.31A.74.74,0,0,1,42,89.1c0-.18,0-.31-.06-.47A17.58,17.58,0,0,1,42.17,85c.17-1.2.38-2.39.61-3.57l.37-1.77.2-.88.1-.44,0-.22,0-.11s0,.1.08.11Z" transform="translate(0 0)"/></g><g id="path7070-3" data-name="path7070"><path class="cls-14" d="M48.09,89.54s3-8.81,3.42-11.64c0-.22-.43-.56-2.62-.3s-2.4.65-2.44.87c-.48,2.8,1.64,11.07,1.64,11.07Z" transform="translate(0 0)"/><path class="cls-15" d="M47.88,89.67a.58.58,0,0,1,0-.32l0-.11L48,89l.15-.42.29-.86.58-1.7,1.1-3.43c.35-1.15.7-2.3,1-3.46.07-.29.15-.58.2-.87l.07-.41s-.11-.11-.23-.14a5.65,5.65,0,0,0-1.75-.07,15.05,15.05,0,0,0-1.77.24c-.56.15-1.23.28-1.12,1a17.84,17.84,0,0,0,.21,3.57c.33,2.38.82,4.74,1.38,7.08Zm.21-.13c-.6-2.33-1.13-4.68-1.5-7.06a18.13,18.13,0,0,1-.28-3.61c0-.15,0-.29,0-.46A.74.74,0,0,1,46.7,78a3.27,3.27,0,0,1,.87-.32,14,14,0,0,1,1.8-.28,6.07,6.07,0,0,1,1.85,0c.14.06.36.08.44.39s0,.31-.07.48-.12.59-.18.89c-.27,1.18-.6,2.34-.93,3.5l-1,3.45-.54,1.72-.28.86-.14.43-.07.21,0,.11s0-.09-.06-.11Z" transform="translate(0 0)"/></g><g id="path7070-4" data-name="path7070"><path class="cls-14" d="M54.11,77.73S52,86,52.47,88.8c0,.22.28.63,2.44.88s2.66-.09,2.63-.31c-.4-2.83-3.43-11.64-3.43-11.64Z" transform="translate(0 0)"/><path class="cls-15" d="M54.3,77.57a.49.49,0,0,1,0,.33l0,.11-.06.22-.1.43-.22.88-.4,1.75c-.25,1.17-.48,2.35-.66,3.53a17.09,17.09,0,0,0-.27,3.56l0,.42a.49.49,0,0,0,.22.24,3.38,3.38,0,0,0,.81.29,14.34,14.34,0,0,0,1.76.27,5.68,5.68,0,0,0,1.75,0c.13,0,.27-.12.26-.17L57.37,89c0-.3-.12-.59-.18-.88-.27-1.17-.59-2.33-.93-3.48-.67-2.31-1.39-4.6-2.15-6.89Zm-.19.16q1.2,3.4,2.27,6.85c.36,1.15.7,2.3,1,3.47.07.3.14.59.2.89s.06.28.07.47-.27.3-.41.36a6,6,0,0,1-1.83.08,13.82,13.82,0,0,1-1.81-.25,3.37,3.37,0,0,1-.89-.31.71.71,0,0,1-.36-.41,4.49,4.49,0,0,1-.06-.48,17.58,17.58,0,0,1,.21-3.63c.16-1.2.37-2.38.61-3.57l.37-1.77.19-.88.11-.44,0-.22,0-.11s0,.11.08.11Z" transform="translate(0 0)"/></g><g id="path7070-5" data-name="path7070"><path class="cls-14" d="M58.4,89.31s3-8.81,3.43-11.64c0-.22-.43-.55-2.63-.3s-2.4.65-2.44.87C56.29,81,58.4,89.31,58.4,89.31Z" transform="translate(0 0)"/><path class="cls-15" d="M58.2,89.45a.47.47,0,0,1,0-.33l0-.1.08-.21.14-.43.3-.85.57-1.71,1.11-3.43c.35-1.15.69-2.3,1-3.46.06-.29.14-.58.19-.87l.07-.41s-.1-.11-.23-.14a5.91,5.91,0,0,0-1.74-.07,13,13,0,0,0-1.77.25c-.56.14-1.24.27-1.12,1A17.22,17.22,0,0,0,57,82.24c.33,2.38.82,4.73,1.37,7.07Zm.2-.14c-.59-2.33-1.12-4.68-1.5-7a17.46,17.46,0,0,1-.27-3.61c0-.16,0-.3,0-.47a.69.69,0,0,1,.34-.39,3.51,3.51,0,0,1,.87-.32,12,12,0,0,1,1.8-.27,5.7,5.7,0,0,1,1.84,0c.14.07.37.08.44.39a2.89,2.89,0,0,1-.07.48c0,.3-.12.6-.18.89-.27,1.18-.59,2.34-.93,3.5l-1,3.46-.55,1.72-.28.85-.14.43-.07.22,0,.11s0-.1-.07-.11Z" transform="translate(0 0)"/></g><g id="path7070-6" data-name="path7070"><path class="cls-14" d="M65.3,77.51s-2.12,8.27-1.64,11.06c0,.22.27.63,2.44.88s2.65-.08,2.62-.31c-.4-2.82-3.42-11.63-3.42-11.63Z" transform="translate(0 0)"/><path class="cls-15" d="M65.49,77.34a.58.58,0,0,1,0,.34l0,.1,0,.22-.11.44-.21.87-.4,1.76c-.26,1.17-.49,2.35-.67,3.53a17.76,17.76,0,0,0-.27,3.55l0,.42a.49.49,0,0,0,.22.24,3.38,3.38,0,0,0,.81.29,11.51,11.51,0,0,0,1.76.27,5.39,5.39,0,0,0,1.75,0c.13,0,.27-.11.26-.16l-.06-.42c0-.29-.12-.59-.18-.88-.27-1.17-.59-2.33-.92-3.48q-1-3.47-2.15-6.88Zm-.19.17q1.19,3.4,2.27,6.84c.35,1.15.69,2.31,1,3.48.07.29.15.58.2.88s.06.28.08.47-.28.3-.42.36a5.66,5.66,0,0,1-1.83.08,15.73,15.73,0,0,1-1.81-.24,3.08,3.08,0,0,1-.89-.32.74.74,0,0,1-.36-.41c0-.18,0-.31-.06-.47a17.68,17.68,0,0,1,.21-3.64c.16-1.19.37-2.38.61-3.56l.37-1.77.2-.88.1-.45,0-.22,0-.11s0,.11.08.12Z" transform="translate(0 0)"/></g><g id="path7070-7" data-name="path7070"><path class="cls-14" d="M69.59,89.09s3-8.81,3.42-11.64c0-.22-.43-.56-2.62-.31S68,77.8,68,78c-.48,2.79,1.64,11.07,1.64,11.07Z" transform="translate(0 0)"/><path class="cls-15" d="M69.38,89.22a.44.44,0,0,1,0-.32l0-.11.08-.21.15-.43.29-.85.57-1.71,1.11-3.42c.35-1.15.69-2.3,1-3.46.06-.3.14-.59.19-.88l.08-.4s-.11-.11-.24-.14a5.29,5.29,0,0,0-1.74-.07,11.76,11.76,0,0,0-1.77.24c-.56.15-1.24.27-1.12,1A17.17,17.17,0,0,0,68.21,82c.33,2.38.82,4.74,1.38,7.08Zm.21-.13c-.6-2.33-1.13-4.68-1.51-7.06a18.13,18.13,0,0,1-.27-3.61c0-.16,0-.3,0-.46a.63.63,0,0,1,.34-.39,3.15,3.15,0,0,1,.87-.32,14,14,0,0,1,1.8-.28,5.44,5.44,0,0,1,1.84,0c.15.06.37.08.44.38a3,3,0,0,1-.07.49c0,.3-.12.59-.17.89-.28,1.18-.6,2.34-.93,3.49l-1,3.46-.55,1.72-.27.86-.15.43-.07.21,0,.11s0-.1-.06-.11Z" transform="translate(0 0)"/></g></svg>