<svg id="svg13195" xmlns="http://www.w3.org/2000/svg" viewBox="0 0 110 110"><defs><style>.cls-1{fill:#520;fill-opacity:0;}.cls-2,.cls-3,.cls-4,.cls-5,.cls-6,.cls-7,.cls-8{fill:#fff;}.cls-2{opacity:0.85;}.cls-2,.cls-3,.cls-4,.cls-5,.cls-6,.cls-7,.cls-8,.cls-9{isolation:isolate;}.cls-3{opacity:0.9;}.cls-4{opacity:0.8;}.cls-5{opacity:0.95;}.cls-6,.cls-9{opacity:0.5;}.cls-7{opacity:0.67;}.cls-8{opacity:0.6;}.cls-9{fill:#dbe3e2;}</style></defs><g id="layer1"><g id="snowy"><rect id="rect6735" class="cls-1" width="110" height="110"/><g id="g6506"><g id="g5564"><path id="path5566" class="cls-2" d="M55,58.42c1.78,2.36,5.79,2.25,8.74,1.83,1.76-.25,3.09-1.74,4.7-2.49A21.16,21.16,0,0,1,73,55.93c3.84-.8,11.76-.33,11.76-.33S74.64,58,74.53,54.6c0-1.41,2.8-.45,4.2-.67s4,2,4.37-.66-.5-2.33.51-2.67a20,20,0,0,0,2.52-1.16s-2.63-2.08-4-3c-1.23-.81-3.43-.77-3.86-2.17s.81-2.76,1.85-3.66c.8-.68,3.36-.33,3-1a10.34,10.34,0,0,0-2.35-3,17.42,17.42,0,0,0-5-2.16,25.31,25.31,0,0,0-5-1.33,25.82,25.82,0,0,0-4,0c-1.91,0-4-.44-5.72.33a8.71,8.71,0,0,0-4.2,4.16C53.78,43.94,50.84,52.85,55,58.42Z" transform="translate(0.74 -10.21)"/><path id="path5568" class="cls-2" d="M43.87,38.49c1.47-1.74,3.67-2.84,5-4.7.45-.63.49-1.49,1-2.12.63-.85,1.34-2.37,2.38-2.12,1.31.32.4,2.89,1.42,3.77a4.56,4.56,0,0,0,3.33.7c1-.09,2.33-.29,2.85-1.17.37-.61-.53-1.47-.24-2.12.22-.49-1.87-1,1.31-.94,1.14,0,3.07.94,4.63.82,1.38-.1,5.17-1.11,3.93-1.29,1,1.94-3,3.24-4.64,4.7-.67.6-2.36.78-2.14,1.65s1.89.56,2.85.47A9.53,9.53,0,0,0,68.82,35c1-.51,1.73-1.68,2.85-1.89s2,.52,3.09.71,2.54,1.08,3.57.47a2.38,2.38,0,0,0,1-2.59c-.29-.75-1.57-.6-2.14-1.17s-2-1.79-1.43-2.59c.88-1.23,3,.67,4.52.7.71,0,1.43-.36,2.14-.23.17,0,.42.07.47.23.26.88-1.34,1.45-1.42,2.36-.13,1.33,1.84,2.48,1.42,3.76-.35,1.08-1.79,1.45-2.85,1.88a32.49,32.49,0,0,1-3.56.71,45.94,45.94,0,0,0-5.71,2.11c-.65.29-2,.25-1.9,1,.2,1.68,3.28,1.27,5,1.17,2.1-.11,3.84-2.09,5.94-2.12a6.78,6.78,0,0,1,2.85,1c1.45.68,2.46,2.32,4,2.58s3.14-1,4.76-1.17c1.18-.15,2.59-.68,3.56,0s1.79,2.29,1.19,3.29C95,46.92,91.89,46,89.73,46c-1.83,0-4.89-2.43-5.46-.7-.51,1.53,2.73,1.83,4.27,2.35a15.59,15.59,0,0,0,6.18.94,14,14,0,0,0,2.85-.94c.56-.17,1.26-.88,1.67-.47.75.76-.22,2.27-.95,3.06-1,1.1-2.78,1.36-4.28,1.64a13.08,13.08,0,0,1-3.8,0c-1.78-.19-3.45-1-5.23-1.17a17.65,17.65,0,0,0-3.56,0,30.08,30.08,0,0,0-5,.94c-1.46.37-2.8,1.17-4.28,1.41-1.1.17-2.73.92-3.33,0-.7-1.1,2.3-2.39,1.66-3.53-.92-1.66-3.81-1-5.7-.71A10.7,10.7,0,0,0,60,51.2c-1.09.88-1.28,2.83-2.62,3.29-2.3.8-4.72-1.26-7.12-1.65-4.95-.8-12.8,3.06-15-1.41-2.25-4.64,5.23-9,8.56-12.94Z" transform="translate(0.74 -10.21)"/><path id="path5570" class="cls-3" d="M47.82,44.28l5,1,4,1.33,4,.34,3.36-.34a2.53,2.53,0,0,1,1.68-1c1.35-.33.68-.33,2-.66a28,28,0,0,0,3-1l1-.66s0-.67-1.68-1S68,39,68,39a5.22,5.22,0,0,0-3.7-.33c-1.68.66-3.36,2-5.37,2.33s-6-.67-6-.67l-3,2Z" transform="translate(0.74 -10.21)"/><path id="path5572" class="cls-4" d="M24.8,52.27l3.52-1.33,2.86,1.16a2.94,2.94,0,0,1,1.51-1.16c.84-.17,2.52.83,3.2.83s-3.7,0,2,.33,5.55,1,5.38.17-2.19-2.66.5-2.16l2.69.49,4-1L55,51.77l2,.17a18.66,18.66,0,0,1,3.86,1c.84.5,3.87.34.84.5s-2.52-1.16-4.2.5a8,8,0,0,1-4.37,2.5c-.84,0-2.69-.5-4.2-.5s-2.69-.33-3.36.16-1.17,1.83-2.52,1.5-5-1.33-5-1.33H36.39l-3-.66a1.72,1.72,0,0,0-1-1.17,15.91,15.91,0,0,0-3-.5l-2-.16Z" transform="translate(0.74 -10.21)"/><path id="path5574" class="cls-4" d="M54.37,44,64,45s3.53-1.83,4-1.66,3.36,1,3.36,1,3.7-.16,4.54-.33,6.72-.83,6.72-.83,4.37,2.33,5,2.33,8.91.83,8.91.83l10.75,1.66L97.05,49.27l-10.92-.33-5.72-.16-12.09,2-8.07-1.16-14,1.16Z" transform="translate(0.74 -10.21)"/><path id="path5576" class="cls-4" d="M40.09,51.6c1.5,2.07,5.2.5,7.73,0,1.42-.28,2.57-1.59,4-1.66s2.85,1.18,4.37,1.33a10.33,10.33,0,0,0,3.36-.33c1.76-.43,3.26-1.66,5-2a27.37,27.37,0,0,1,5,0,21.77,21.77,0,0,0,3.7,0c2-.34,3.72-1.66,5.71-2,1.32-.23,3.22,1.06,4,0,.49-.65,3.58-.6,2.89-1-1.24-.79-6.53-.17-7.93-.63-.9-.29-6.91.33-3.8-2.23-.72-4.14-5.18,4-9,3.9-1.56,0-4.38-.12-4.37-1.67,0-1.3,2.89-.3,3.7-1.33s1.06-2.47.34-3.33c-.87-1-2.71-.07-4-.33-3.23-.64-6.6-1.29-9.41-3-1.08-.66-1.42-2.69-2.69-2.66-2.29,0-3.53,3-4.7,5C42,43.24,37.6,48.19,40.09,51.6Z" transform="translate(0.74 -10.21)"/><path id="path5578" class="cls-5" d="M52.89,27.9c-2.63,0-3.29,5-5.92,5.19-1.21.1-1.9-1.78-3.1-1.89-4.64-.43-8.46,4.3-13.08,4.94-1.81.25-3.65-.83-5.45-.48-2.19.44-7.9.45-7.37,2.6.38,1.52,5.7-1,6.17.47s-2.93,1.33-3.79,2.6c-.41.59.1,1.65-.48,2.09-2.18,1.69-4.13.79-6.89,1.07s-9.44-2.16-9.51.58c0,1.39,2.75.64,4,1.2a7.5,7.5,0,0,1,2.39,1.39c.33.33.3,1,.71,1.18,2.25,1.17,5.08-.65,7.61-.48a23.63,23.63,0,0,1,5.7,1.2c2.65.88,4.95,2.65,7.61,3.52,1.15.37,2.86-.29,3.55.7.87,1.24-1.85,3.47-.7,4.46,1.43,1.24,3.58-1.36,5.47-1.64a19.58,19.58,0,0,1,5.46,0A22.55,22.55,0,0,1,50.52,58c1.42.55,2.63,1.54,4,2.12,2.75,1.13,5.62,3,8.56,2.59,2.2-.34,19.73-5.36,5.47-3.76-.41-2.5-1.77.53-7.38-2.12-1.36-.65-3.66,1-4.51-.25-.71-1,.32-2.62,1.18-3.52s3.21-.21,3.58-1.42c.28-.92-1-1.64-1.66-2.35C59,48.41,58.18,47.06,57,47c-1.56-.12-2.7,1.59-4.06,2.35a8.49,8.49,0,0,1-2.6,1.42C48.87,51,47,51.08,46,50s.06-3-.25-4.47c-.14-.65-1-1.28-.71-1.87.9-1.62,3.66-.72,5.47-1.17,3.12-.77,6.2-1.68,9.28-2.6,2.23-.66,2.62-1.3,6.65-2.12.61-1,7.4-1.78,6.4-2.46S63,34.71,61.69,35c-1.51.29-3,.69-4.51.95s-3.78,1.85-5,.7-.17-3.27.47-4.71c1.33-1.23,9.49,1.18.23-4Zm-29,18.72,2.62.34,3.2,1.18,1.89.6,1.56.7-.6.57L31,49.66l-2.27-.57L27,48l-2.39-1Z" transform="translate(0.74 -10.21)"/><path id="path5580" class="cls-3" d="M35.72,56.93c1.87.48,3.19,0,4.7,0s3-.23,4.37-.34a34.38,34.38,0,0,0,4-.33c1.41-.27,3.35-.55,4.37-1.33s2.33-1.33,1.68-2.66-4.25-.2-5.71-.67-1.79-1.14-3-1.66-3-1.47-4.37-1.33-2,1-3,1.66-1.48,2-3,2.66-5.62-1.43-6,.67,4.17,2.84,6,3.33Z" transform="translate(0.74 -10.21)"/><path id="path5582" class="cls-3" d="M71.34,40.29l4,1.67,2.69-1.67,2.69.67,3.7,1.66,3,1a3.19,3.19,0,0,1-2.35.33c-1.35-.33-4.37-.66-4.37-.66l-4.37,2-2.69-.66-2.35-1.33Z" transform="translate(0.74 -10.21)"/><path id="path5584" class="cls-6" d="M53,50.44l4.71-.33,3.36.66,5-.17,4.71-.66-4-.5s-2.52.17-3.53.33-3.69-.66-4.53-.66H56.22A8.44,8.44,0,0,0,53,50.44Z" transform="translate(0.74 -10.21)"/><path id="path5586" class="cls-7" d="M55.21,33l1.68-1,.5-1.49,1.68.5.68.33v2H58.4l-1.85,1.33Z" transform="translate(0.74 -10.21)"/><path id="path5588" class="cls-6" d="M70.67,48.78l4.7-.34,3.36.67,5-.17,4.71-.66-4-.5s-2.52.16-3.53.33-3.7-.67-4.54-.67H73.86a8.34,8.34,0,0,0-3.19,1.34Z" transform="translate(0.74 -10.21)"/><path id="path5590" class="cls-6" d="M65.63,35.3l4.7-.33,3.36.66,5-.16,4.71-.67-4-.5s-2.52.17-3.53.34S72.18,34,71.34,34H68.82a8.37,8.37,0,0,0-3.19,1.33Z" transform="translate(0.74 -10.21)"/><path id="path5592" class="cls-6" d="M51.18,56.59l4.7-.33,3.36.67,5-.17L69,56.09l-4-.49s-2.53.16-3.53.33-3.7-.67-4.54-.67H54.37a8.37,8.37,0,0,0-3.19,1.33Z" transform="translate(0.74 -10.21)"/><path id="path5594" class="cls-6" d="M11.86,50.11l4.7-.34,3.36.67,5-.17,4.71-.66-4-.5s-2.52.16-3.53.33-3.7-.66-4.54-.66H15.05a8.37,8.37,0,0,0-3.19,1.33Z" transform="translate(0.74 -10.21)"/><path id="path5596" class="cls-8" d="M30.84,42.29l2.69-1.67,1.85.17,3-1H42.1L45,39.46l-1.51,2.16-2.69-.5-3.19.67-2.86,1Z" transform="translate(0.74 -10.21)"/></g><path id="path6394" class="cls-9" d="M58.87,83.33c-.24-.34-.25-.22.07-1.13l.34-1c.07-.18.06-.26-.08-.52l-.12-.22-.09.16-.23.41c-.13.24-.57,1-.61,1.11l-.13.08-.12.06-.14-.17a.59.59,0,0,1-.14-.31A3.67,3.67,0,0,1,57.8,81c0-.06.11-.33.2-.6.14-.48.19-.62.3-.92.05-.13.05-.13-.06-.34s-.18-.27-.17-.17a.68.68,0,0,1-.1.2c-.06.09-.18.3-.26.45a2.29,2.29,0,0,1-.18.28,4.82,4.82,0,0,1-.27-.5,3,3,0,0,0-.28-.48,2.11,2.11,0,0,0-.34.48s.12.52.25,1.08c.35,1.42.35,1.4.25,1.59s-.18.26-.3.21-.21-.19-.5-.86c-.22-.47-.32-.71-.36-.8s-.06-.11-.08-.11a2.5,2.5,0,0,0-.4.51s0,.14.07.27.1.34.13.48c.08.33.14.57.22.85a.58.58,0,0,1-.06.59c-.07.09-.09.1-.18.08-.25-.07-.28-.12-.55-.73a6.12,6.12,0,0,0-.27-.59,4.1,4.1,0,0,0-.31.38c-.36.47-.42.52-.69.54l-.2,0-.13-.2c-.21-.33-.21-.32,0-.81a2.33,2.33,0,0,0,.21-.45l-.64,0-.63,0-.13-.09-.13-.09.05-.19c.06-.25.1-.32.17-.35l1-.24c1-.21.92-.19,1-.31a1.13,1.13,0,0,0,.21-.35s-.34,0-.75,0c-1.16.1-1,.1-1.21,0l-.14-.11,0-.2c0-.16.08-.22.17-.27a16.72,16.72,0,0,1,2-.55c.57-.14.59-.15.66-.31a1.83,1.83,0,0,1,.13-.24l.08-.11h-.4l-.47,0c-.17,0-.29,0-.31,0a2.31,2.31,0,0,1,.38-.75,1.52,1.52,0,0,0,.14-.25,1.44,1.44,0,0,0-.45-.06.28.28,0,0,0-.17.09l-.21.22a3.57,3.57,0,0,0-.27.28l-.24.26-.47.5c-.57.62-.58.63-.91.6-.11,0-.13,0-.19-.16A.45.45,0,0,1,52,78.6a4,4,0,0,1,.61-1A5.4,5.4,0,0,0,53,77s0,0-.11,0-.2,0-.31,0-.2,0-.27.09l-.24.25a4.24,4.24,0,0,0-.3.31c-.28.3-.71.73-.78.78a.76.76,0,0,1-.47,0c-.07,0-.24-.35-.2-.35s0,0,0,0,.11-.21.53-.76l.26-.35H51l-.49,0-.41,0a1.38,1.38,0,0,1-.35-.47c0-.06,0-.16.21-.4l.11-.15.52,0a4.4,4.4,0,0,0,.51,0l-.22-.36-.28-.44a1.86,1.86,0,0,0-.14-.2c-.09-.12-.1-.13-.07-.32s.09-.29.31-.3.14,0,.91.75c.24.25.52.52.62.62l.18.16h.33a.72.72,0,0,0,.33,0,.56.56,0,0,0-.09-.14l-.2-.29c-.06-.09-.26-.38-.45-.64L52,74.08V73.9c0-.2.06-.25.27-.28s.16,0,.19,0l.21.2a2.93,2.93,0,0,1,.25.25c.13.14,1.42,1.39,1.48,1.43a.93.93,0,0,0,.32,0c.25,0,.26,0,.26-.07a.65.65,0,0,0-.09-.2c-.09-.14-.39-.7-.4-.72a4.73,4.73,0,0,1,1,0c.12,0,.13,0,.12-.08a.86.86,0,0,0-.22-.47s-.65-.18-1.35-.35l-1.27-.32-.11-.2-.1-.2.13-.16c.13-.16.13-.16.32-.16l.45,0,.74.09a2.83,2.83,0,0,0,.49,0,3.94,3.94,0,0,0-.24-.54,1.4,1.4,0,0,0-.41-.15L53.64,72l-.6-.15c-.53-.13-.72-.21-.73-.3a.45.45,0,0,0-.06-.13c-.06-.09,0-.1.07-.25s.15-.17.24-.18.49,0,.85.09a1.19,1.19,0,0,0,.43,0,.75.75,0,0,0-.07-.19.88.88,0,0,1-.09-.2s-.06-.11-.13-.23a1.55,1.55,0,0,1-.13-.29,1.43,1.43,0,0,1,.11-.53l.06-.14h.23c.26,0,.37.06.43.19a1.3,1.3,0,0,0,.13.19,3,3,0,0,1,.23.33,1.11,1.11,0,0,0,.17.23s0,0,.07-.1.39-.81.44-.9a.68.68,0,0,1,.33-.34c.16-.06.17-.06.34.2s.08.15.06.34A.87.87,0,0,1,56,70a2.54,2.54,0,0,0-.08.3c0,.15-.14.48-.22.74a3.17,3.17,0,0,0-.15.57,1.77,1.77,0,0,0,.32.55,4.78,4.78,0,0,0,.57-1.19c.21-.5.25-.56.37-.62s.21-.08.35.13.16.29.05.77c-.06.24-.06.28,0,.3s.08.12,0,.1-.08,0-.09.06l0,.13-.22.8a2.83,2.83,0,0,0-.17.8c.07.23.36.54.34.39a1,1,0,0,1,.13-.23l.29-.47c.09-.16.18-.28.2-.27s.06.06.08.12.42.85.46.91.06,0,.18-.12a1.2,1.2,0,0,0,.19-.3c.07-.15.05-.22-.43-1.94a6.13,6.13,0,0,1-.17-.69.68.68,0,0,1,.09-.28c.07-.16.1-.19.16-.18a.36.36,0,0,1,.32.25c0,.09.1.21.13.26l.09.19s0,.09.06.09,0,0,0,0a.56.56,0,0,0,.07.23c.06.1.16.33.24.5a1,1,0,0,0,.16.3,2.58,2.58,0,0,0,.36-.46.26.26,0,0,0,0-.26c-.06-.24-.14-.51-.34-1.09s-.25-.7-.18-.87.11-.27.3-.22.2,0,.56.78a3.92,3.92,0,0,0,.26.51s.11-.07.37-.48.32-.42.68-.44h.28l.06.2c.14.45.14.48,0,.81a2.42,2.42,0,0,1-.24.5.15.15,0,0,0,0,.06,6,6,0,0,0,.63,0l.62-.06.18.14c.21.17.24.24.16.39s-.17.22-.51.29l-1.51.38c-.07,0-.13.1-.23.29l-.16.29A12.08,12.08,0,0,0,62,72.74l.2,0,.21.16c.23.19.26.26.16.47s-.15.19-.59.29l-1.29.31c-.85.21-.83.2-.87.25a2.22,2.22,0,0,0-.14.24c-.11.25-.12.26-.08.24h.32l.5,0,.25,0c.06,0,0,.21-.26.58s-.22.39-.2.4a1,1,0,0,0,.25,0c.19,0,.22,0,.3-.08l.24-.21.47-.39c.17-.16.47-.41.65-.57s.36-.32.4-.37A.47.47,0,0,1,63,74l.2,0,0,.22c0,.28,0,.32-.58,1a5.49,5.49,0,0,0-.46.59.81.81,0,0,0,.76,0,.3.3,0,0,1,.11-.07s.33-.2.67-.43a6.78,6.78,0,0,1,.74-.46.56.56,0,0,1,.28,0c.15,0,.17.07.19.17a.44.44,0,0,1-.06.43,7.27,7.27,0,0,1-.75.74c-.07.07-.1.12-.08.14a2.19,2.19,0,0,0,.37.12c.57.15.55.14.73.61l.07.18-.18.2a1.13,1.13,0,0,1-.26.23,1,1,0,0,1-.36,0L64,77.55l-.18,0c-.07,0-.07,0,0,.09a2.14,2.14,0,0,1,.11.31,1.28,1.28,0,0,0,.08.23l0,.1.09.34.09.26-.13.13a.5.5,0,0,1-.51.14c-.21-.06-.24-.08-.28-.25a1.89,1.89,0,0,0-.13-.31,6.87,6.87,0,0,1-.48-1.19c0-.08,0-.08-.29-.09a1.26,1.26,0,0,0-.29,0s0,.08.05.15.35.62.58,1,.2.38.19.48-.09.28-.26.32-.28,0-.46-.21-.39-.5-.7-.88c-.61-.76-.76-.92-.9-1a1.12,1.12,0,0,0-.32,0l-.18,0,.08.11a.75.75,0,0,1,.1.2l.19.36.16.3s-.14.08-.31.06l-.5-.05a1.57,1.57,0,0,0-.37,0,1.44,1.44,0,0,0,.2.49,1.33,1.33,0,0,0,.43.17l.24.08c.19.07.77.27,1.37.46s.54.17.61.36.09.28,0,.41-.21.15-.79,0a5,5,0,0,0-.58-.09l-.32,0c-.33-.06-.34-.06-.23.16a1,1,0,0,0,.11.23,3.2,3.2,0,0,0,.84.31l.57.18.28.09a.39.39,0,0,1,.31.22c.14.23.13.34,0,.49s-.12.14-.84,0-.6-.1-.58,0,.08.22.16.4a2.75,2.75,0,0,1,.14.42.93.93,0,0,1-.17.48l-.09.12-.21,0c-.2,0-.37-.12-.39-.21a.7.7,0,0,0-.09-.18c-.06-.08-.16-.25-.24-.39a1,1,0,0,0-.15-.23s-.16.26-.33.57c-.32.59-.35.63-.61.72-.07,0-.1,0-.17-.1Z" transform="translate(0.74 -10.21)"/></g></g></g></svg>