<svg id="svg13195" xmlns="http://www.w3.org/2000/svg" xmlns:xlink="http://www.w3.org/1999/xlink" viewBox="0 0 110 119.77"><defs><style>.cls-1,.cls-2{fill:#fd5;}.cls-1,.cls-9{opacity:0.8;}.cls-1,.cls-10,.cls-11,.cls-12,.cls-13,.cls-14,.cls-2,.cls-7,.cls-8,.cls-9{isolation:isolate;}.cls-2{opacity:0.94;}.cls-3{fill:url(#radial-gradient);}.cls-4{fill:url(#linear-gradient);}.cls-5{fill:url(#linear-gradient-2);}.cls-6{fill:#520;fill-opacity:0;}.cls-10,.cls-11,.cls-12,.cls-13,.cls-7,.cls-8,.cls-9{fill:#fff;}.cls-7{opacity:0.85;}.cls-8{opacity:0.9;}.cls-10{opacity:0.95;}.cls-11,.cls-14{opacity:0.5;}.cls-12{opacity:0.67;}.cls-13{opacity:0.6;}.cls-14{fill:#dbe3e2;}</style><radialGradient id="radial-gradient" cx="538.09" cy="-519.07" r="50.51" gradientTransform="matrix(0.31, -0.01, -0.02, -0.48, -142.81, -206.05)" gradientUnits="userSpaceOnUse"><stop offset="0" stop-color="#ff0"/><stop offset="1" stop-color="#fea917"/></radialGradient><linearGradient id="linear-gradient" x1="572.89" y1="-914.34" x2="678.33" y2="-810.67" gradientTransform="matrix(0.34, 0, 0, -0.34, -172.82, -256.83)" gradientUnits="userSpaceOnUse"><stop offset="0" stop-color="#ff0"/><stop offset="1" stop-color="#ff0" stop-opacity="0"/></linearGradient><linearGradient id="linear-gradient-2" x1="651.98" y1="-756.96" x2="635.28" y2="-852.03" gradientTransform="matrix(0.34, 0, 0, -0.34, -172.82, -256.83)" gradientUnits="userSpaceOnUse"><stop offset="0" stop-color="#fff"/><stop offset="1" stop-color="#fff" stop-opacity="0"/></linearGradient></defs><g id="layer1"><g id="g5656"><path id="path5658" class="cls-1" d="M38.83.44l.66,15.27L37.86,6.28,39,15.86l-1.16-5.19-.73-4.74.48,3.61L36.06,2.61l2.1,12.57-2.1-7.55,1.1,6.22L33.34,2l3.4,12.85L33.82,7.23l1.65,6L31.39,4l3.85,11.86-2.75-5L31.55,9l.37.89-3.3-5.92,5.9,13.66-.27-.39-5-8.1,1.88,3.53-2.08-3,2.82,5.22L26.15,6.42l6.18,10.39-3.75-4.95,3.81,5.9L23.41,7l7.43,10.15-4.39-4.76,4.89,6.19-8.29-8.12,9,10.29L28.59,18l-8-6.45,10.35,9.75-8.59-5.52,1.16.92-.43-.27,2.88,2.24,1.33,1.07-8.85-5.07L27,20.92l-4.3-2.48,5.2,3.13.6.43L16.16,16.48,25.71,22,21,19.89l5.71,2.7,2.11,1.22L23,21.88,17.1,19.55l4.35,1.8-1.62-.55,3.67,1.68-2.72-.84,7.58,3.62-.58-.12L15.26,21.65l10,3-6-1.2,4.54,1.63L15.28,23.8l4.35,1.31-.18,0,.2,0,5.47,1.65-3.76-.17-2-.24,1.38.22-7-.31,12,2.31-.87,0-6.58-.14,4.56.25L18.57,29l5.32.5-9.5.3,13,0,.26,0-7.6,1.07,9-.44-8.41,1.14-1.2.15-6.07.82,14-1.4-8,2,6.29-1L21.37,33.5l-2.63.62,1.74-.36L16,35.14l12.54-2.58-8.42,2.83,6.15-1.87L15.57,38l12.8-4-8.48,3.84L29.05,34l-8.17,4.38,1.21-.51-5.32,2.75,8.64-4.16,3.64-1.55-6.64,4.36,8.32-4.65-13.8,9,13.39-8.18-7.65,6.18,5.43-3.79-4.84,4.32-.86.69.59-.44-2.76,2.45,11.43-8.86-7.39,7.59L26.1,42l-5.17,5.61,8.88-8.39,2.12-2L25,45.81l3.78-3.88-1.18,1.61-1.67,2.18.51-.58-3.24,4.47,8.66-9.86-.29.48-3.81,5.7,1.85-2.38-5.13,8.72,8.21-11.4L28.89,48l3.45-5.44-4.48,9.37L34.07,41l.83-1.42-3.77,9.27,1.45-2.95-3,8.25,6.2-13.77L32.65,50.6,35,44.43l-.31,1.25-1.27,4.7.33-1-1.34,5.34L35.92,44l-1.53,6.7,1.93-5.43L34.56,56.62l2.61-11.57-.94,7.13,1.22-4.84-.78,9,1.07-5.27-.06.9.25-1.86,1.13-5.62.09,13.34,1.5-14.09.85,8.88.14-7.35L42.8,56.18,41.7,42.73l1.49,8.2-.52-8L45.5,57,43.07,43.13,45.4,51.5l-.75-4.71L47.36,55,45,43.47l1.85,4.24,1,2.63-.56-1.72,2.92,6.7L46.08,42.1l.62,1.12,3.41,7.18-2-4.56,2.12,3.86-1.71-4.21,4.26,8L47,41.52l4.32,7.17-5.85-11L55.64,53.09,48.4,41.31l5.19,7-4.78-7.23,7.95,9.71-5.31-7.24,3.13,3.9L48.26,39l6.2,6.42-1.63-2.2L59.5,49.9,49.6,38.82l-.47-.63,7.46,6.38-2.71-3,3.61,3-2-1.81,4.52,3.48-7.6-7.68,10,6.26-9.62-8L58,39.37l2,1.13-1.19-.73.79.4L54,36.36l9.82,4.92L52.44,35.1l7.75,3.13L49.61,33.39l-1.06-.73,7,2.68,4.78,1.84-.58-.24,6.11,2.32L53.5,34.05l8.36,2.43-8.91-3,12.83,3-4.4-1.25-6.91-2.14,6,1-6.92-1.87L67.51,34,53.75,31.6l8,.54-5.52-.9,9.19.14L61.58,31l1.29,0-3.17-.24L52.89,30l5.28-.46,3.19-.14-1.13,0,6.45-.57L52,28.69l10.28-1.52-3.81.27,3.41-.64-4.32.39,8.2-1.65L53.91,27l7.6-1.87-5.35.75,10.23-3.17L54.25,25.45,62,22.69l-6.2,1.53,9.39-3.9-7.28,2.21,2.44-1-6.92,2.2,11.91-6.42L58,20.39l2.45-1.29-8,3.46.09-.06,10.62-6.27-4.77,2.36,1.53-1-7,3.71-2.56,1.27,8.07-5.77-1.76,1,1.34-1-.56.35,5.34-3.92L50.14,21.22,58,14.36l-1.74,1.27,1.31-1.15-6.24,4.79L60,10.83l-8.64,7L55.13,14,49,19.87l6.16-7.16-.39.38L59.07,8l-8.31,8.26,3.51-4.48-5.85,6.8,5.71-8.1L52.05,13,55.54,8l-8.3,10.69-.39.46,5-8.93-1.93,2.89,1.36-2.35L50,12.85l4.18-7.28-8,12.67,4.39-10-1.73,3.22L50,8.89l-3.3,6.4L50.94,4.16,45.74,15l2.13-6.3-2.38,5.67L49,2,44.61,13.88,46.22,7.1l-2.14,6.8,1.4-7.47-.81,3,1.2-6.38-2.16,8.21L44.43,7l-1,5.5-1.29,4.9L42.7,11,43,7.5l0,.22.59-6.3L42.13,10.2l.34-4.5-.55,5.83L41,17v-.59l.4-14.72-.35,7.4,0-2.7-.57,7.36L40,7.12l.27,10-.16,2.05L40,18.83,39.31,6.72l.12,3.18Z" transform="translate(0.74 -0.44)"/><path id="path5660" class="cls-2" d="M58.65,30.39c0,10.61-8.16,19.22-18.22,19.22S22.2,41,22.2,30.39s8.16-19.22,18.23-19.22S58.65,19.78,58.65,30.39Z" transform="translate(0.74 -0.44)"/><g id="g5662"><path id="path5664" class="cls-3" d="M56.12,29.84c0,9.19-7.07,16.64-15.78,16.64S24.56,39,24.56,29.84s7.07-16.63,15.78-16.63S56.12,20.66,56.12,29.84Z" transform="translate(0.74 -0.44)"/><path id="path5666" class="cls-4" d="M55.08,29.84c0,8.46-6.5,15.31-14.52,15.31S26.05,38.3,26.05,29.84s6.5-15.3,14.51-15.3S55.08,21.39,55.08,29.84Z" transform="translate(0.74 -0.44)"/><path id="path5668" class="cls-5" d="M55.08,29.84c0,8.46-6.5,15.31-14.52,15.31S26.05,38.3,26.05,29.84s6.5-15.3,14.51-15.3S55.08,21.39,55.08,29.84Z" transform="translate(0.74 -0.44)"/></g></g><g id="snowy"><rect id="rect6735" class="cls-6" y="9.77" width="110" height="110"/><g id="g6506"><g id="g5564"><path id="path5566" class="cls-7" d="M55,58.42c1.78,2.36,5.79,2.25,8.74,1.83,1.76-.25,3.09-1.74,4.7-2.49A21.16,21.16,0,0,1,73,55.93c3.84-.8,11.76-.33,11.76-.33S74.64,58,74.53,54.6c0-1.41,2.8-.45,4.2-.67s4,2,4.37-.66-.5-2.33.51-2.67a20,20,0,0,0,2.52-1.16s-2.63-2.08-4-3c-1.23-.81-3.43-.77-3.86-2.17s.81-2.76,1.85-3.66c.8-.68,3.36-.33,3-1a10.34,10.34,0,0,0-2.35-3,17.42,17.42,0,0,0-5-2.16,25.31,25.31,0,0,0-5-1.33,25.82,25.82,0,0,0-4,0c-1.91,0-4-.44-5.72.33a8.71,8.71,0,0,0-4.2,4.16C53.78,43.94,50.84,52.85,55,58.42Z" transform="translate(0.74 -0.44)"/><path id="path5568" class="cls-7" d="M43.87,38.49c1.47-1.74,3.67-2.84,5-4.7.45-.63.49-1.49,1-2.12.63-.85,1.34-2.37,2.38-2.12,1.31.32.4,2.89,1.42,3.77a4.56,4.56,0,0,0,3.33.7c1-.09,2.33-.29,2.85-1.17.37-.61-.53-1.47-.24-2.12.22-.49-1.87-1,1.31-.94,1.14,0,3.07.94,4.63.82,1.38-.1,5.17-1.11,3.93-1.29,1,1.94-3,3.24-4.64,4.7-.67.6-2.36.78-2.14,1.65s1.89.56,2.85.47A9.53,9.53,0,0,0,68.82,35c1-.51,1.73-1.68,2.85-1.89s2,.52,3.09.71,2.54,1.08,3.57.47a2.38,2.38,0,0,0,1-2.59c-.29-.75-1.57-.6-2.14-1.17s-2-1.79-1.43-2.59c.88-1.23,3,.67,4.52.7.71,0,1.43-.36,2.14-.23.17,0,.42.07.47.23.26.88-1.34,1.45-1.42,2.36-.13,1.33,1.84,2.48,1.42,3.76-.35,1.08-1.79,1.45-2.85,1.88a32.49,32.49,0,0,1-3.56.71,45.94,45.94,0,0,0-5.71,2.11c-.65.29-2,.25-1.9,1,.2,1.68,3.28,1.27,5,1.17,2.1-.11,3.84-2.09,5.94-2.12a6.78,6.78,0,0,1,2.85,1c1.45.68,2.46,2.32,4,2.58s3.14-1,4.76-1.17c1.18-.15,2.59-.68,3.56,0s1.79,2.29,1.19,3.29C95,46.92,91.89,46,89.73,46c-1.83,0-4.89-2.43-5.46-.7-.51,1.53,2.73,1.83,4.27,2.35a15.59,15.59,0,0,0,6.18.94,14,14,0,0,0,2.85-.94c.56-.17,1.26-.88,1.67-.47.75.76-.22,2.27-.95,3.06-1,1.1-2.78,1.36-4.28,1.64a13.08,13.08,0,0,1-3.8,0c-1.78-.19-3.45-1-5.23-1.17a17.65,17.65,0,0,0-3.56,0,30.08,30.08,0,0,0-5,.94c-1.46.37-2.8,1.17-4.28,1.41-1.1.17-2.73.92-3.33,0-.7-1.1,2.3-2.39,1.66-3.53-.92-1.66-3.81-1-5.7-.71A10.7,10.7,0,0,0,60,51.2c-1.09.88-1.28,2.83-2.62,3.29-2.3.8-4.72-1.26-7.12-1.65-4.95-.8-12.8,3.06-15-1.41-2.25-4.64,5.23-9,8.56-12.94Z" transform="translate(0.74 -0.44)"/><path id="path5570" class="cls-8" d="M47.82,44.28l5,1,4,1.33,4,.34,3.36-.34a2.53,2.53,0,0,1,1.68-1c1.35-.33.68-.33,2-.66a28,28,0,0,0,3-1l1-.66s0-.67-1.68-1S68,39,68,39a5.22,5.22,0,0,0-3.7-.33c-1.68.66-3.36,2-5.37,2.33s-6-.67-6-.67l-3,2Z" transform="translate(0.74 -0.44)"/><path id="path5572" class="cls-9" d="M24.8,52.27l3.52-1.33,2.86,1.16a2.94,2.94,0,0,1,1.51-1.16c.84-.17,2.52.83,3.2.83s-3.7,0,2,.33,5.55,1,5.38.17-2.19-2.66.5-2.16l2.69.49,4-1L55,51.77l2,.17a18.66,18.66,0,0,1,3.86,1c.84.5,3.87.34.84.5s-2.52-1.16-4.2.5a8,8,0,0,1-4.37,2.5c-.84,0-2.69-.5-4.2-.5s-2.69-.33-3.36.16-1.17,1.83-2.52,1.5-5-1.33-5-1.33H36.39l-3-.66a1.72,1.72,0,0,0-1-1.17,15.91,15.91,0,0,0-3-.5l-2-.16Z" transform="translate(0.74 -0.44)"/><path id="path5574" class="cls-9" d="M54.37,44,64,45s3.53-1.83,4-1.66,3.36,1,3.36,1,3.7-.16,4.54-.33,6.72-.83,6.72-.83,4.37,2.33,5,2.33,8.91.83,8.91.83l10.75,1.66L97.05,49.27l-10.92-.33-5.72-.16-12.09,2-8.07-1.16-14,1.16Z" transform="translate(0.74 -0.44)"/><path id="path5576" class="cls-9" d="M40.09,51.6c1.5,2.07,5.2.5,7.73,0,1.42-.28,2.57-1.59,4-1.66s2.85,1.18,4.37,1.33a10.33,10.33,0,0,0,3.36-.33c1.76-.43,3.26-1.66,5-2a27.37,27.37,0,0,1,5,0,21.77,21.77,0,0,0,3.7,0c2-.34,3.72-1.66,5.71-2,1.32-.23,3.22,1.06,4,0,.49-.65,3.58-.6,2.89-1-1.24-.79-6.53-.17-7.93-.63-.9-.29-6.91.33-3.8-2.23-.72-4.14-5.18,4-9,3.9-1.56,0-4.38-.12-4.37-1.67,0-1.3,2.89-.3,3.7-1.33s1.06-2.47.34-3.33c-.87-1-2.71-.07-4-.33-3.23-.64-6.6-1.29-9.41-3-1.08-.66-1.42-2.69-2.69-2.66-2.29,0-3.53,3-4.7,5C42,43.24,37.6,48.19,40.09,51.6Z" transform="translate(0.74 -0.44)"/><path id="path5578" class="cls-10" d="M52.89,27.9c-2.63,0-3.29,5-5.92,5.19-1.21.1-1.9-1.78-3.1-1.89-4.64-.43-8.46,4.3-13.08,4.94-1.81.25-3.65-.83-5.45-.48-2.19.44-7.9.45-7.37,2.6.38,1.52,5.7-1,6.17.47s-2.93,1.33-3.79,2.6c-.41.59.1,1.65-.48,2.09-2.18,1.69-4.13.79-6.89,1.07s-9.44-2.16-9.51.58c0,1.39,2.75.64,4,1.2a7.5,7.5,0,0,1,2.39,1.39c.33.33.3,1,.71,1.18,2.25,1.17,5.08-.65,7.61-.48a23.63,23.63,0,0,1,5.7,1.2c2.65.88,4.95,2.65,7.61,3.52,1.15.37,2.86-.29,3.55.7.87,1.24-1.85,3.47-.7,4.46,1.43,1.24,3.58-1.36,5.47-1.64a19.58,19.58,0,0,1,5.46,0A22.55,22.55,0,0,1,50.52,58c1.42.55,2.63,1.54,4,2.12,2.75,1.13,5.62,3,8.56,2.59,2.2-.34,19.73-5.36,5.47-3.76-.41-2.5-1.77.53-7.38-2.12-1.36-.65-3.66,1-4.51-.25-.71-1,.32-2.62,1.18-3.52s3.21-.21,3.58-1.42c.28-.92-1-1.64-1.66-2.35C59,48.41,58.18,47.06,57,47c-1.56-.12-2.7,1.59-4.06,2.35a8.49,8.49,0,0,1-2.6,1.42C48.87,51,47,51.08,46,50s.06-3-.25-4.47c-.14-.65-1-1.28-.71-1.87.9-1.62,3.66-.72,5.47-1.17,3.12-.77,6.2-1.68,9.28-2.6,2.23-.66,2.62-1.3,6.65-2.12.61-1,7.4-1.78,6.4-2.46S63,34.71,61.69,35c-1.51.29-3,.69-4.51.95s-3.78,1.85-5,.7-.17-3.27.47-4.71c1.33-1.23,9.49,1.18.23-4Zm-29,18.72,2.62.34,3.2,1.18,1.89.6,1.56.7-.6.57L31,49.66l-2.27-.57L27,48l-2.39-1Z" transform="translate(0.74 -0.44)"/><path id="path5580" class="cls-8" d="M35.72,56.93c1.87.48,3.19,0,4.7,0s3-.23,4.37-.34a34.38,34.38,0,0,0,4-.33c1.41-.27,3.35-.55,4.37-1.33s2.33-1.33,1.68-2.66-4.25-.2-5.71-.67-1.79-1.14-3-1.66-3-1.47-4.37-1.33-2,1-3,1.66-1.48,2-3,2.66-5.62-1.43-6,.67,4.17,2.84,6,3.33Z" transform="translate(0.74 -0.44)"/><path id="path5582" class="cls-8" d="M71.34,40.29l4,1.67,2.69-1.67,2.69.67,3.7,1.66,3,1a3.19,3.19,0,0,1-2.35.33c-1.35-.33-4.37-.66-4.37-.66l-4.37,2-2.69-.66-2.35-1.33Z" transform="translate(0.74 -0.44)"/><path id="path5584" class="cls-11" d="M53,50.44l4.71-.33,3.36.66,5-.17,4.71-.66-4-.5s-2.52.17-3.53.33-3.69-.66-4.53-.66H56.22A8.44,8.44,0,0,0,53,50.44Z" transform="translate(0.74 -0.44)"/><path id="path5586" class="cls-12" d="M55.21,33l1.68-1,.5-1.49,1.68.5.68.33v2H58.4l-1.85,1.33Z" transform="translate(0.74 -0.44)"/><path id="path5588" class="cls-11" d="M70.67,48.78l4.7-.34,3.36.67,5-.17,4.71-.66-4-.5s-2.52.16-3.53.33-3.7-.67-4.54-.67H73.86a8.34,8.34,0,0,0-3.19,1.34Z" transform="translate(0.74 -0.44)"/><path id="path5590" class="cls-11" d="M65.63,35.3l4.7-.33,3.36.66,5-.16,4.71-.67-4-.5s-2.52.17-3.53.34S72.18,34,71.34,34H68.82a8.37,8.37,0,0,0-3.19,1.33Z" transform="translate(0.74 -0.44)"/><path id="path5592" class="cls-11" d="M51.18,56.59l4.7-.33,3.36.67,5-.17L69,56.09l-4-.49s-2.53.16-3.53.33-3.7-.67-4.54-.67H54.37a8.37,8.37,0,0,0-3.19,1.33Z" transform="translate(0.74 -0.44)"/><path id="path5594" class="cls-11" d="M11.86,50.11l4.7-.34,3.36.67,5-.17,4.71-.66-4-.5s-2.52.16-3.53.33-3.7-.66-4.54-.66H15.05a8.37,8.37,0,0,0-3.19,1.33Z" transform="translate(0.74 -0.44)"/><path id="path5596" class="cls-13" d="M30.84,42.29l2.69-1.67,1.85.17,3-1H42.1L45,39.46l-1.51,2.16-2.69-.5-3.19.67-2.86,1Z" transform="translate(0.74 -0.44)"/></g><path id="path6400" class="cls-14" d="M41,79.59c.21-.49.07-.42,1.28-.7l1.25-.28c.25,0,.33-.12.51-.44l.16-.29H44l-.6,0-1.61.1a.7.7,0,0,1-.18-.09l-.15-.09.09-.27a.75.75,0,0,1,.24-.38,4.78,4.78,0,0,1,1.06-.38l.78-.2c.61-.17.79-.21,1.19-.3.18,0,.18,0,.34-.3s.17-.38.07-.3l-.3,0-.66,0a2,2,0,0,1-.42,0,4,4,0,0,1,.34-.65,6.05,6.05,0,0,0,.34-.63,2.23,2.23,0,0,0-.76,0s-.48.48-1,1c-1.3,1.36-1.27,1.34-1.55,1.37s-.4,0-.43-.19.07-.36.58-1.14l.62-.95c0-.07.08-.14.07-.15a2.53,2.53,0,0,0-.82-.1,2.61,2.61,0,0,0-.25.27l-.43.46c-.3.31-.52.55-.76.83a.74.74,0,0,1-.69.34c-.15,0-.17,0-.2-.14-.11-.32-.08-.39.41-1.11a6.7,6.7,0,0,0,.44-.7,5.27,5.27,0,0,0-.62-.08c-.75-.07-.84-.11-1.06-.38l-.16-.21.13-.28c.22-.46.21-.45.91-.5a3.62,3.62,0,0,0,.63-.08s-.21-.33-.46-.69l-.46-.67v-.21l0-.21.23-.08c.31-.1.41-.11.49,0s.56.53.93.91c.89.91.84.87,1,.88a2.26,2.26,0,0,0,.52,0s-.25-.37-.57-.8c-.9-1.2-.82-1.08-.8-1.34l0-.23.25-.08c.21-.07.29-.07.41,0a21.2,21.2,0,0,1,2,1.82c.54.53.57.55.78.51a1.45,1.45,0,0,1,.36,0h.17L44.21,72a5.89,5.89,0,0,0-.34-.5c-.15-.18-.22-.32-.18-.37s.38-.09,1.07-.09a2.39,2.39,0,0,0,.37,0,2.66,2.66,0,0,0-.25-.52.34.34,0,0,0-.22-.13l-.38-.09-.48-.1-.45-.08-.86-.17c-1.07-.21-1.08-.21-1.28-.59-.06-.13-.06-.17,0-.33a.59.59,0,0,1,.21-.21,5,5,0,0,1,1.5,0,5.56,5.56,0,0,0,.88,0s0-.08-.05-.14l-.21-.34c-.12-.19-.15-.21-.28-.23l-.44-.1-.53-.12c-.53-.1-1.29-.27-1.38-.31a1,1,0,0,1-.32-.53c0-.11.21-.51.24-.46a0,0,0,0,0,.07,0,5.82,5.82,0,0,1,1.18.06l.56,0-.07-.14c0-.08-.17-.34-.29-.56s-.23-.45-.24-.49a1.67,1.67,0,0,1,.26-.69c.07,0,.21-.06.58,0h.24l.38.55a6.26,6.26,0,0,0,.4.55s.11-.23.23-.5l.28-.6a2.33,2.33,0,0,0,.12-.3c.06-.18.08-.19.29-.29s.39-.11.54.13.14.14-.18,1.52c-.1.44-.21.93-.24,1.1l0,.32.23.36c.13.21.24.35.26.34a1.17,1.17,0,0,0,.1-.2c0-.09.11-.28.17-.42s.23-.56.38-.93l.27-.7.2-.11c.23-.13.31-.11.48.11s.11.17.09.24a3.65,3.65,0,0,0-.08.36c0,.15-.07.36-.1.45s-.52,2.51-.53,2.61a1.41,1.41,0,0,0,.18.38c.17.28.18.29.25.23a.69.69,0,0,0,.16-.22c.09-.2.48-.92.5-.93a4.68,4.68,0,0,1,.69,1.09c.08.13.09.14.17.07a1.09,1.09,0,0,0,.35-.56c0-.06-.25-.83-.54-1.73l-.53-1.62.14-.25.14-.25.27,0c.27,0,.27,0,.39.25a5,5,0,0,1,.26.52c.08.17.27.56.41.87s.27.57.28.58a4.68,4.68,0,0,0,.44-.64,2.92,2.92,0,0,0-.13-.55c-.09-.27-.16-.51-.17-.55s-.13-.38-.25-.77c-.23-.66-.28-.93-.19-1a.64.64,0,0,0,.1-.16c.06-.12.07-.12.33-.1s.28.06.35.15a8.4,8.4,0,0,1,.49,1,1.56,1.56,0,0,0,.26.49.91.91,0,0,0,.15-.21,1.3,1.3,0,0,1,.16-.24,2.14,2.14,0,0,0,.16-.29,1.47,1.47,0,0,1,.23-.34,1.64,1.64,0,0,1,.65-.25l.18,0,.16.26c.17.29.2.45.1.6a1.24,1.24,0,0,0-.12.28,2.61,2.61,0,0,1-.2.48,1.6,1.6,0,0,0-.13.34.28.28,0,0,0,.15,0l1.28-.14a.82.82,0,0,1,.59.14c.19.13.19.13,0,.5-.09.19-.1.2-.33.3a1.45,1.45,0,0,1-.3.11l-.38.11-.95.27a3.56,3.56,0,0,0-.71.23,2.14,2.14,0,0,0-.38.73,6.38,6.38,0,0,0,1.68-.2c.69-.11.78-.11.92,0s.24.18.1.48-.2.37-.79.58c-.3.11-.34.13-.33.2s-.08.16-.12.06a.09.09,0,0,0-.12,0l-.17,0-1,.3a4.36,4.36,0,0,0-1,.36c-.19.24-.33.77-.18.65a.9.9,0,0,1,.34,0c.16,0,.48,0,.71,0a1.15,1.15,0,0,1,.42,0,.34.34,0,0,1-.07.19c-.16.25-.63,1-.67,1.12s0,.09.26.12a3.62,3.62,0,0,0,.45,0c.2,0,.27-.1,1.79-1.81.29-.32.57-.62.63-.66a.9.9,0,0,1,.37-.11c.22,0,.28,0,.31.06a.48.48,0,0,1,0,.52l-.2.33a1.21,1.21,0,0,1-.15.22c0,.06-.06.12-.05.13s0,0,0,0a.83.83,0,0,0-.19.24l-.38.6a2,2,0,0,0-.22.39,3.33,3.33,0,0,0,.75.08c.13,0,.18,0,.3-.14a10,10,0,0,0,1-1.12c.58-.74.58-.75.81-.8s.38,0,.46.18.08.25-.47,1.15c-.2.33-.36.61-.37.64s.16.08.78.08.67.06.94.45l.2.3-.17.21c-.39.45-.43.47-.89.54a3.29,3.29,0,0,1-.7.07h-.09s.2.3.47.66l.49.64,0,.29c0,.34-.09.43-.3.45s-.36,0-.67-.36-1.22-1.2-1.45-1.4c-.06-.06-.19-.08-.47-.06l-.42,0a14.78,14.78,0,0,0,1.15,1.47l.18.2,0,.34c0,.38-.1.46-.4.5s-.31,0-.72-.45l-1.21-1.21c-.82-.79-.79-.77-.87-.79a2.83,2.83,0,0,0-.35,0c-.35,0-.37,0-.33.07l.21.36.33.57a1.63,1.63,0,0,1,.15.28c0,.09-.24.12-.81.12q-.57,0-.57.06a1.63,1.63,0,0,0,.14.29c.12.21.15.24.3.27l.38.12c.12.05.46.16.75.25l1.06.32.68.2a.57.57,0,0,1,.48.41l.1.24-.22.18c-.28.23-.34.23-1.53.07a4.94,4.94,0,0,0-1-.09,1,1,0,0,0,.55.81.4.4,0,0,1,.16.07s.43.22.92.44a9.27,9.27,0,0,1,1,.5.64.64,0,0,1,.17.32c.05.19.05.23,0,.33a.63.63,0,0,1-.51.23,11.39,11.39,0,0,1-1.31-.32c-.12,0-.2,0-.21,0a4.63,4.63,0,0,0,.13.5c.22.72.23.7-.16,1.22l-.15.2-.33-.06a1.29,1.29,0,0,1-.43-.13,1.58,1.58,0,0,1-.2-.43c-.06-.2-.14-.42-.17-.49s-.06-.17-.08-.22,0-.09-.12,0a3.54,3.54,0,0,1-.25.34l-.2.24a.29.29,0,0,1-.09.11l-.29.34-.23.27-.22,0a.65.65,0,0,1-.51-.47c-.08-.27-.07-.32.08-.48a1.64,1.64,0,0,0,.24-.35,11.22,11.22,0,0,1,1-1.35c.08-.06.08-.08-.1-.37a1.27,1.27,0,0,0-.22-.31s-.08.07-.12.16c-.14.25-.43.81-.7,1.32s-.28.49-.39.55a.39.39,0,0,1-.52-.06c-.18-.19-.2-.31-.08-.66s.26-.77.46-1.37c.4-1.2.47-1.47.41-1.65a1.13,1.13,0,0,0-.2-.35l-.15-.18-.08.15a1.52,1.52,0,0,1-.14.26s-.15.25-.25.45l-.22.38s-.18-.1-.28-.29l-.29-.59a1.42,1.42,0,0,0-.25-.42,2.08,2.08,0,0,0-.38.56,1.92,1.92,0,0,0,.1.59,1.5,1.5,0,0,1,.08.33c0,.25.25,1,.46,1.81s.18.71,0,.92-.25.29-.45.26-.31-.14-.6-.84c-.12-.3-.26-.62-.3-.69a4,4,0,0,1-.17-.39c-.16-.41-.17-.41-.34-.15a2.86,2.86,0,0,0-.16.28,4,4,0,0,0,.24,1.14c.1.36.19.7.2.75s0,.22.09.37a.5.5,0,0,1,0,.49c-.15.31-.27.38-.53.32s-.23,0-.6-.9-.31-.73-.38-.65a4.53,4.53,0,0,0-.32.45c-.15.21-.31.41-.35.45a1.23,1.23,0,0,1-.65.13h-.18l-.11-.26c-.11-.24-.13-.49,0-.56a.93.93,0,0,0,.13-.23c.06-.11.17-.35.26-.52A1.7,1.7,0,0,0,43.1,80s-.39,0-.85,0c-.85,0-.92,0-1.19-.18-.07-.07-.08-.1,0-.25Z" transform="translate(0.74 -0.44)"/></g></g></g></svg>