<svg id="svg13195" xmlns="http://www.w3.org/2000/svg" xmlns:xlink="http://www.w3.org/1999/xlink" viewBox="0 0 110 119.77"><defs><style>.cls-1,.cls-2{fill:#fd5;}.cls-1,.cls-9{opacity:0.8;}.cls-1,.cls-10,.cls-11,.cls-12,.cls-13,.cls-14,.cls-2,.cls-7,.cls-8,.cls-9{isolation:isolate;}.cls-2{opacity:0.94;}.cls-3{fill:url(#radial-gradient);}.cls-4{fill:url(#linear-gradient);}.cls-5{fill:url(#linear-gradient-2);}.cls-6{fill:#520;fill-opacity:0;}.cls-10,.cls-11,.cls-12,.cls-13,.cls-7,.cls-8,.cls-9{fill:#fff;}.cls-7{opacity:0.85;}.cls-8{opacity:0.9;}.cls-10{opacity:0.95;}.cls-11,.cls-14{opacity:0.5;}.cls-12{opacity:0.67;}.cls-13{opacity:0.6;}.cls-14{fill:#dbe3e2;}.cls-15{fill:#6f8a91;}</style><radialGradient id="radial-gradient" cx="538.09" cy="-519.07" r="50.51" gradientTransform="matrix(0.31, -0.01, -0.02, -0.48, -142.81, -206.05)" gradientUnits="userSpaceOnUse"><stop offset="0" stop-color="#ff0"/><stop offset="1" stop-color="#fea917"/></radialGradient><linearGradient id="linear-gradient" x1="572.89" y1="-914.34" x2="678.33" y2="-810.67" gradientTransform="matrix(0.34, 0, 0, -0.34, -172.82, -256.83)" gradientUnits="userSpaceOnUse"><stop offset="0" stop-color="#ff0"/><stop offset="1" stop-color="#ff0" stop-opacity="0"/></linearGradient><linearGradient id="linear-gradient-2" x1="651.98" y1="-756.96" x2="635.28" y2="-852.03" gradientTransform="matrix(0.34, 0, 0, -0.34, -172.82, -256.83)" gradientUnits="userSpaceOnUse"><stop offset="0" stop-color="#fff"/><stop offset="1" stop-color="#fff" stop-opacity="0"/></linearGradient></defs><g id="layer1"><g id="g5656"><path id="path5658" class="cls-1" d="M38.83.44l.66,15.27L37.86,6.28,39,15.86l-1.16-5.19-.73-4.74.48,3.61L36.06,2.61l2.1,12.57-2.1-7.55,1.1,6.22L33.34,2l3.4,12.85L33.82,7.23l1.65,6L31.39,4l3.85,11.86-2.75-5L31.55,9l.37.89-3.3-5.92,5.9,13.66-.27-.39-5-8.1,1.88,3.53-2.08-3,2.82,5.22L26.15,6.42l6.18,10.39-3.75-4.95,3.81,5.9L23.41,7l7.43,10.15-4.39-4.76,4.89,6.19-8.29-8.12,9,10.29L28.59,18l-8-6.45,10.35,9.75-8.59-5.52,1.16.92-.43-.27,2.88,2.24,1.33,1.07-8.85-5.07L27,20.92l-4.3-2.48,5.2,3.13.6.43L16.16,16.48,25.71,22,21,19.89l5.71,2.7,2.11,1.22L23,21.88,17.1,19.55l4.35,1.8-1.62-.55,3.67,1.68-2.72-.84,7.58,3.62-.58-.12L15.26,21.65l10,3-6-1.2,4.54,1.63L15.28,23.8l4.35,1.31-.18,0,.2,0,5.47,1.65-3.76-.17-2-.24,1.38.22-7-.31,12,2.31-.87,0-6.58-.14,4.56.25L18.57,29l5.32.5-9.5.3,13,0,.26,0-7.6,1.07,9-.44-8.41,1.14-1.2.15-6.07.82,14-1.4-8,2,6.29-1L21.37,33.5l-2.63.62,1.74-.36L16,35.14l12.54-2.58-8.42,2.83,6.15-1.87L15.57,38l12.8-4-8.48,3.84L29.05,34l-8.17,4.38,1.21-.51-5.32,2.75,8.64-4.16,3.64-1.55-6.64,4.36,8.32-4.65-13.8,9,13.39-8.18-7.65,6.18,5.43-3.79-4.84,4.32-.86.69.59-.44-2.76,2.45,11.43-8.86-7.39,7.59L26.1,42l-5.17,5.61,8.88-8.39,2.12-2L25,45.81l3.78-3.88-1.18,1.61-1.67,2.18.51-.58-3.24,4.47,8.66-9.86-.29.48-3.81,5.7,1.85-2.38-5.13,8.72,8.21-11.4L28.89,48l3.45-5.44-4.48,9.37L34.07,41l.83-1.42-3.77,9.27,1.45-2.95-3,8.25,6.2-13.77L32.65,50.6,35,44.43l-.31,1.25-1.27,4.7.33-1-1.34,5.34L35.92,44l-1.53,6.7,1.93-5.43L34.56,56.62l2.61-11.57-.94,7.13,1.22-4.84-.78,9,1.07-5.27-.06.9.25-1.86,1.13-5.62.09,13.34,1.5-14.09.85,8.88.14-7.35L42.8,56.18,41.7,42.73l1.49,8.2-.52-8L45.5,57,43.07,43.13,45.4,51.5l-.75-4.71L47.36,55,45,43.47l1.85,4.24,1,2.63-.56-1.72,2.92,6.7L46.08,42.1l.62,1.12,3.41,7.18-2-4.56,2.12,3.86-1.71-4.21,4.26,8L47,41.52l4.32,7.17-5.85-11L55.64,53.09,48.4,41.31l5.19,7-4.78-7.23,7.95,9.71-5.31-7.24,3.13,3.9L48.26,39l6.2,6.42-1.63-2.2L59.5,49.9,49.6,38.82l-.47-.63,7.46,6.38-2.71-3,3.61,3-2-1.81,4.52,3.48-7.6-7.68,10,6.26-9.62-8L58,39.37l2,1.13-1.19-.73.79.4L54,36.36l9.82,4.92L52.44,35.1l7.75,3.13L49.61,33.39l-1.06-.73,7,2.68,4.78,1.84-.58-.24,6.11,2.32L53.5,34.05l8.36,2.43-8.91-3,12.83,3-4.4-1.25-6.91-2.14,6,1-6.92-1.87L67.51,34,53.75,31.6l8,.54-5.52-.9,9.19.14L61.58,31l1.29,0-3.17-.24L52.89,30l5.28-.46,3.19-.14-1.13,0,6.45-.57L52,28.69l10.28-1.52-3.81.27,3.41-.64-4.32.39,8.2-1.65L53.91,27l7.6-1.87-5.35.75,10.23-3.17L54.25,25.45,62,22.69l-6.2,1.53,9.39-3.9-7.28,2.21,2.44-1-6.92,2.2,11.91-6.42L58,20.39l2.45-1.29-8,3.46.09-.06,10.62-6.27-4.77,2.36,1.53-1-7,3.71-2.56,1.27,8.07-5.77-1.76,1,1.34-1-.56.35,5.34-3.92L50.14,21.22,58,14.36l-1.74,1.27,1.31-1.15-6.24,4.79L60,10.83l-8.64,7L55.13,14,49,19.87l6.16-7.16-.39.38L59.07,8l-8.31,8.26,3.51-4.48-5.85,6.8,5.71-8.1L52.05,13,55.54,8l-8.3,10.69-.39.46,5-8.93-1.93,2.89,1.36-2.35L50,12.85l4.18-7.28-8,12.67,4.39-10-1.73,3.22L50,8.89l-3.3,6.4L50.94,4.16,45.74,15l2.13-6.3-2.38,5.67L49,2,44.61,13.88,46.22,7.1l-2.14,6.8,1.4-7.47-.81,3,1.2-6.38-2.16,8.21L44.43,7l-1,5.5-1.29,4.9L42.7,11,43,7.5l0,.22.59-6.3L42.13,10.2l.34-4.5-.55,5.83L41,17v-.59l.4-14.72-.35,7.4,0-2.7-.57,7.36L40,7.12l.27,10-.16,2.05L40,18.83,39.31,6.72l.12,3.18Z" transform="translate(0.74 -0.44)"/><path id="path5660" class="cls-2" d="M58.65,30.39c0,10.61-8.16,19.22-18.22,19.22S22.2,41,22.2,30.39s8.16-19.22,18.23-19.22S58.65,19.78,58.65,30.39Z" transform="translate(0.74 -0.44)"/><g id="g5662"><path id="path5664" class="cls-3" d="M56.12,29.84c0,9.19-7.07,16.64-15.78,16.64S24.56,39,24.56,29.84s7.07-16.63,15.78-16.63S56.12,20.66,56.12,29.84Z" transform="translate(0.74 -0.44)"/><path id="path5666" class="cls-4" d="M55.08,29.84c0,8.46-6.5,15.31-14.52,15.31S26.05,38.3,26.05,29.84s6.5-15.3,14.51-15.3S55.08,21.39,55.08,29.84Z" transform="translate(0.74 -0.44)"/><path id="path5668" class="cls-5" d="M55.08,29.84c0,8.46-6.5,15.31-14.52,15.31S26.05,38.3,26.05,29.84s6.5-15.3,14.51-15.3S55.08,21.39,55.08,29.84Z" transform="translate(0.74 -0.44)"/></g></g><g id="snowy"><rect id="rect6735" class="cls-6" y="9.77" width="110" height="110"/><g id="g6506"><g id="g5564"><path id="path5566" class="cls-7" d="M55,58.42c1.78,2.36,5.79,2.25,8.74,1.83,1.76-.25,3.09-1.74,4.7-2.49A21.16,21.16,0,0,1,73,55.93c3.84-.8,11.76-.33,11.76-.33S74.64,58,74.53,54.6c0-1.41,2.8-.45,4.2-.67s4,2,4.37-.66-.5-2.33.51-2.67a20,20,0,0,0,2.52-1.16s-2.63-2.08-4-3c-1.23-.81-3.43-.77-3.86-2.17s.81-2.76,1.85-3.66c.8-.68,3.36-.33,3-1a10.34,10.34,0,0,0-2.35-3,17.42,17.42,0,0,0-5-2.16,25.31,25.31,0,0,0-5-1.33,25.82,25.82,0,0,0-4,0c-1.91,0-4-.44-5.72.33a8.71,8.71,0,0,0-4.2,4.16C53.78,43.94,50.84,52.85,55,58.42Z" transform="translate(0.74 -0.44)"/><path id="path5568" class="cls-7" d="M43.87,38.49c1.47-1.74,3.67-2.84,5-4.7.45-.63.49-1.49,1-2.12.63-.85,1.34-2.37,2.38-2.12,1.31.32.4,2.89,1.42,3.77a4.56,4.56,0,0,0,3.33.7c1-.09,2.33-.29,2.85-1.17.37-.61-.53-1.47-.24-2.12.22-.49-1.87-1,1.31-.94,1.14,0,3.07.94,4.63.82,1.38-.1,5.17-1.11,3.93-1.29,1,1.94-3,3.24-4.64,4.7-.67.6-2.36.78-2.14,1.65s1.89.56,2.85.47A9.53,9.53,0,0,0,68.82,35c1-.51,1.73-1.68,2.85-1.89s2,.52,3.09.71,2.54,1.08,3.57.47a2.38,2.38,0,0,0,1-2.59c-.29-.75-1.57-.6-2.14-1.17s-2-1.79-1.43-2.59c.88-1.23,3,.67,4.52.7.71,0,1.43-.36,2.14-.23.17,0,.42.07.47.23.26.88-1.34,1.45-1.42,2.36-.13,1.33,1.84,2.48,1.42,3.76-.35,1.08-1.79,1.45-2.85,1.88a32.49,32.49,0,0,1-3.56.71,45.94,45.94,0,0,0-5.71,2.11c-.65.29-2,.25-1.9,1,.2,1.68,3.28,1.27,5,1.17,2.1-.11,3.84-2.09,5.94-2.12a6.78,6.78,0,0,1,2.85,1c1.45.68,2.46,2.32,4,2.58s3.14-1,4.76-1.17c1.18-.15,2.59-.68,3.56,0s1.79,2.29,1.19,3.29C95,46.92,91.89,46,89.73,46c-1.83,0-4.89-2.43-5.46-.7-.51,1.53,2.73,1.83,4.27,2.35a15.59,15.59,0,0,0,6.18.94,14,14,0,0,0,2.85-.94c.56-.17,1.26-.88,1.67-.47.75.76-.22,2.27-.95,3.06-1,1.1-2.78,1.36-4.28,1.64a13.08,13.08,0,0,1-3.8,0c-1.78-.19-3.45-1-5.23-1.17a17.65,17.65,0,0,0-3.56,0,30.08,30.08,0,0,0-5,.94c-1.46.37-2.8,1.17-4.28,1.41-1.1.17-2.73.92-3.33,0-.7-1.1,2.3-2.39,1.66-3.53-.92-1.66-3.81-1-5.7-.71A10.7,10.7,0,0,0,60,51.2c-1.09.88-1.28,2.83-2.62,3.29-2.3.8-4.72-1.26-7.12-1.65-4.95-.8-12.8,3.06-15-1.41-2.25-4.64,5.23-9,8.56-12.94Z" transform="translate(0.74 -0.44)"/><path id="path5570" class="cls-8" d="M47.82,44.28l5,1,4,1.33,4,.34,3.36-.34a2.53,2.53,0,0,1,1.68-1c1.35-.33.68-.33,2-.66a28,28,0,0,0,3-1l1-.66s0-.67-1.68-1S68,39,68,39a5.22,5.22,0,0,0-3.7-.33c-1.68.66-3.36,2-5.37,2.33s-6-.67-6-.67l-3,2Z" transform="translate(0.74 -0.44)"/><path id="path5572" class="cls-9" d="M24.8,52.27l3.52-1.33,2.86,1.16a2.94,2.94,0,0,1,1.51-1.16c.84-.17,2.52.83,3.2.83s-3.7,0,2,.33,5.55,1,5.38.17-2.19-2.66.5-2.16l2.69.49,4-1L55,51.77l2,.17a18.66,18.66,0,0,1,3.86,1c.84.5,3.87.34.84.5s-2.52-1.16-4.2.5a8,8,0,0,1-4.37,2.5c-.84,0-2.69-.5-4.2-.5s-2.69-.33-3.36.16-1.17,1.83-2.52,1.5-5-1.33-5-1.33H36.39l-3-.66a1.72,1.72,0,0,0-1-1.17,15.91,15.91,0,0,0-3-.5l-2-.16Z" transform="translate(0.74 -0.44)"/><path id="path5574" class="cls-9" d="M54.37,44,64,45s3.53-1.83,4-1.66,3.36,1,3.36,1,3.7-.16,4.54-.33,6.72-.83,6.72-.83,4.37,2.33,5,2.33,8.91.83,8.91.83l10.75,1.66L97.05,49.27l-10.92-.33-5.72-.16-12.09,2-8.07-1.16-14,1.16Z" transform="translate(0.74 -0.44)"/><path id="path5576" class="cls-9" d="M40.09,51.6c1.5,2.07,5.2.5,7.73,0,1.42-.28,2.57-1.59,4-1.66s2.85,1.18,4.37,1.33a10.33,10.33,0,0,0,3.36-.33c1.76-.43,3.26-1.66,5-2a27.37,27.37,0,0,1,5,0,21.77,21.77,0,0,0,3.7,0c2-.34,3.72-1.66,5.71-2,1.32-.23,3.22,1.06,4,0,.49-.65,3.58-.6,2.89-1-1.24-.79-6.53-.17-7.93-.63-.9-.29-6.91.33-3.8-2.23-.72-4.14-5.18,4-9,3.9-1.56,0-4.38-.12-4.37-1.67,0-1.3,2.89-.3,3.7-1.33s1.06-2.47.34-3.33c-.87-1-2.71-.07-4-.33-3.23-.64-6.6-1.29-9.41-3-1.08-.66-1.42-2.69-2.69-2.66-2.29,0-3.53,3-4.7,5C42,43.24,37.6,48.19,40.09,51.6Z" transform="translate(0.74 -0.44)"/><path id="path5578" class="cls-10" d="M52.89,27.9c-2.63,0-3.29,5-5.92,5.19-1.21.1-1.9-1.78-3.1-1.89-4.64-.43-8.46,4.3-13.08,4.94-1.81.25-3.65-.83-5.45-.48-2.19.44-7.9.45-7.37,2.6.38,1.52,5.7-1,6.17.47s-2.93,1.33-3.79,2.6c-.41.59.1,1.65-.48,2.09-2.18,1.69-4.13.79-6.89,1.07s-9.44-2.16-9.51.58c0,1.39,2.75.64,4,1.2a7.5,7.5,0,0,1,2.39,1.39c.33.33.3,1,.71,1.18,2.25,1.17,5.08-.65,7.61-.48a23.63,23.63,0,0,1,5.7,1.2c2.65.88,4.95,2.65,7.61,3.52,1.15.37,2.86-.29,3.55.7.87,1.24-1.85,3.47-.7,4.46,1.43,1.24,3.58-1.36,5.47-1.64a19.58,19.58,0,0,1,5.46,0A22.55,22.55,0,0,1,50.52,58c1.42.55,2.63,1.54,4,2.12,2.75,1.13,5.62,3,8.56,2.59,2.2-.34,19.73-5.36,5.47-3.76-.41-2.5-1.77.53-7.38-2.12-1.36-.65-3.66,1-4.51-.25-.71-1,.32-2.62,1.18-3.52s3.21-.21,3.58-1.42c.28-.92-1-1.64-1.66-2.35C59,48.41,58.18,47.06,57,47c-1.56-.12-2.7,1.59-4.06,2.35a8.49,8.49,0,0,1-2.6,1.42C48.87,51,47,51.08,46,50s.06-3-.25-4.47c-.14-.65-1-1.28-.71-1.87.9-1.62,3.66-.72,5.47-1.17,3.12-.77,6.2-1.68,9.28-2.6,2.23-.66,2.62-1.3,6.65-2.12.61-1,7.4-1.78,6.4-2.46S63,34.71,61.69,35c-1.51.29-3,.69-4.51.95s-3.78,1.85-5,.7-.17-3.27.47-4.71c1.33-1.23,9.49,1.18.23-4Zm-29,18.72,2.62.34,3.2,1.18,1.89.6,1.56.7-.6.57L31,49.66l-2.27-.57L27,48l-2.39-1Z" transform="translate(0.74 -0.44)"/><path id="path5580" class="cls-8" d="M35.72,56.93c1.87.48,3.19,0,4.7,0s3-.23,4.37-.34a34.38,34.38,0,0,0,4-.33c1.41-.27,3.35-.55,4.37-1.33s2.33-1.33,1.68-2.66-4.25-.2-5.71-.67-1.79-1.14-3-1.66-3-1.47-4.37-1.33-2,1-3,1.66-1.48,2-3,2.66-5.62-1.43-6,.67,4.17,2.84,6,3.33Z" transform="translate(0.74 -0.44)"/><path id="path5582" class="cls-8" d="M71.34,40.29l4,1.67,2.69-1.67,2.69.67,3.7,1.66,3,1a3.19,3.19,0,0,1-2.35.33c-1.35-.33-4.37-.66-4.37-.66l-4.37,2-2.69-.66-2.35-1.33Z" transform="translate(0.74 -0.44)"/><path id="path5584" class="cls-11" d="M53,50.44l4.71-.33,3.36.66,5-.17,4.71-.66-4-.5s-2.52.17-3.53.33-3.69-.66-4.53-.66H56.22A8.44,8.44,0,0,0,53,50.44Z" transform="translate(0.74 -0.44)"/><path id="path5586" class="cls-12" d="M55.21,33l1.68-1,.5-1.49,1.68.5.68.33v2H58.4l-1.85,1.33Z" transform="translate(0.74 -0.44)"/><path id="path5588" class="cls-11" d="M70.67,48.78l4.7-.34,3.36.67,5-.17,4.71-.66-4-.5s-2.52.16-3.53.33-3.7-.67-4.54-.67H73.86a8.34,8.34,0,0,0-3.19,1.34Z" transform="translate(0.74 -0.44)"/><path id="path5590" class="cls-11" d="M65.63,35.3l4.7-.33,3.36.66,5-.16,4.71-.67-4-.5s-2.52.17-3.53.34S72.18,34,71.34,34H68.82a8.37,8.37,0,0,0-3.19,1.33Z" transform="translate(0.74 -0.44)"/><path id="path5592" class="cls-11" d="M51.18,56.59l4.7-.33,3.36.67,5-.17L69,56.09l-4-.49s-2.53.16-3.53.33-3.7-.67-4.54-.67H54.37a8.37,8.37,0,0,0-3.19,1.33Z" transform="translate(0.74 -0.44)"/><path id="path5594" class="cls-11" d="M11.86,50.11l4.7-.34,3.36.67,5-.17,4.71-.66-4-.5s-2.52.16-3.53.33-3.7-.66-4.54-.66H15.05a8.37,8.37,0,0,0-3.19,1.33Z" transform="translate(0.74 -0.44)"/><path id="path5596" class="cls-13" d="M30.84,42.29l2.69-1.67,1.85.17,3-1H42.1L45,39.46l-1.51,2.16-2.69-.5-3.19.67-2.86,1Z" transform="translate(0.74 -0.44)"/></g><path id="path6386" class="cls-14" d="M60.79,81c-.2.12-.13.13-.64-.09-.25-.11-.49-.21-.53-.24s-.15,0-.3,0l-.13.06.08.06.23.15.61.4s0,0,0,.08l0,.07-.1.07a.3.3,0,0,1-.19.08,1.93,1.93,0,0,1-.48-.15l-.34-.13-.51-.22c-.07,0-.08,0-.2,0s-.16.1-.11.1a.43.43,0,0,1,.12.06l.24.17a.82.82,0,0,1,.16.12l-.3.14a1.88,1.88,0,0,0-.29.14,1.09,1.09,0,0,0,.27.22l.63-.11c.82-.14.81-.14.92-.08s.14.12.1.19-.12.11-.51.26l-.47.17s-.07,0-.07,0a1.12,1.12,0,0,0,.28.25l.15,0,.28,0,.5-.1a.35.35,0,0,1,.34.06c0,.05,0,.06,0,.11s-.07.16-.44.29a2.24,2.24,0,0,0-.34.14s.09.09.2.2.28.26.28.42V84l-.12.06c-.2.11-.2.11-.46-.06l-.25-.14a3.55,3.55,0,0,0,0,.37v.37l-.06.07-.06.08-.1,0c-.14,0-.18-.07-.2-.11S59,84.28,59,84c-.09-.57-.08-.54-.14-.6a1,1,0,0,0-.19-.13,3.49,3.49,0,0,0,0,.44c0,.68,0,.61-.06.7l-.07.08-.11,0c-.09,0-.12,0-.15-.11s-.12-.5-.24-1.19c0-.33-.06-.35-.14-.39a.48.48,0,0,1-.14-.09l-.06,0v.23c0,.13,0,.26,0,.28s0,.17,0,.18a1.44,1.44,0,0,1-.41-.25c-.07-.06-.14-.1-.14-.09a1.37,1.37,0,0,0-.05.25.16.16,0,0,0,.05.11l.11.13.15.17.14.15s.16.17.27.29c.33.36.34.37.31.56s0,.07-.1.1l-.13,0a2.29,2.29,0,0,1-.55-.4l-.32-.24s0,0,0,.06a1.21,1.21,0,0,1,0,.18c0,.1,0,.12,0,.16s.09.09.13.15l.17.19a5.73,5.73,0,0,1,.41.48.45.45,0,0,1,0,.28s-.21.13-.21.1a0,0,0,0,0,0,0s-.12-.07-.41-.34l-.2-.17v.08s0,.16,0,.28,0,.22,0,.24a.8.8,0,0,1-.28.18s-.09,0-.22-.14l-.09-.07v-.3a1.23,1.23,0,0,0,0-.3l-.21.11-.26.15-.13.08c-.07,0-.08,0-.18,0s-.17-.06-.16-.19,0-.09.47-.5l.37-.34.11-.1v-.19a.63.63,0,0,0,0-.19l-.09,0a1.71,1.71,0,0,1-.17.11l-.38.24-.28.17h-.1c-.12,0-.14,0-.15-.17a.14.14,0,0,1,0-.11l.13-.11.15-.14c.09-.07.85-.77.88-.8a.54.54,0,0,0,0-.18c0-.15,0-.16,0-.16l-.11,0-.43.21a2.44,2.44,0,0,1,0-.58c0-.07,0-.08,0-.08a.51.51,0,0,0-.27.11s-.13.37-.26.77l-.23.73-.12.06-.12,0-.09-.08c-.08-.09-.08-.09-.07-.2a1.51,1.51,0,0,1,0-.26l.08-.42c0-.16,0-.28,0-.29l-.32.12a.74.74,0,0,0-.1.23l-.09.25a3.46,3.46,0,0,1-.11.34c-.09.31-.14.42-.19.42l-.08,0c-.06,0-.06,0-.15,0s-.08-.1-.08-.15a3.09,3.09,0,0,1,.08-.49,1.07,1.07,0,0,0,0-.25s-.06,0-.12,0l-.11,0-.14.06-.17.06a1.09,1.09,0,0,1-.31-.08l-.07,0v-.13c0-.15,0-.22.12-.25l.12-.07a1,1,0,0,1,.2-.12.65.65,0,0,0,.14-.09l-.06,0-.5-.29a.41.41,0,0,1-.18-.21c0-.1,0-.1.13-.19a.23.23,0,0,1,.2,0l.13,0,.17.06.41.16a2,2,0,0,0,.33.11.93.93,0,0,0,.33-.17,3.45,3.45,0,0,0-.67-.37c-.27-.15-.31-.17-.34-.24s0-.13.1-.21.17-.07.43,0,.16,0,.18,0,.07,0,.06,0a0,0,0,0,0,0,.06l.08,0,.45.17a2.24,2.24,0,0,0,.45.13c.13,0,.32-.19.24-.19a.55.55,0,0,1-.13-.08l-.26-.19a1,1,0,0,1-.15-.12.12.12,0,0,1,.08,0l.54-.23s0,0-.07-.11a.51.51,0,0,0-.16-.12c-.08,0-.12,0-1.12.17l-.41.07a.54.54,0,0,1-.16-.06c-.08,0-.1-.07-.09-.1a.22.22,0,0,1,.15-.18l.16-.07.11,0s.06,0,.06,0h0s.07,0,.14,0l.29-.12.18-.08a1.52,1.52,0,0,0-.25-.23.12.12,0,0,0-.14,0,6,6,0,0,0-.64.15c-.41.11-.41.11-.51.07s-.15-.08-.11-.19,0-.11.47-.29l.3-.13s0-.07-.26-.24-.23-.2-.22-.41v-.16l.12,0c.26-.06.28-.06.46,0a1.08,1.08,0,0,1,.28.16l0,0a1.79,1.79,0,0,0,0-.36v-.37l.08-.1c.11-.11.15-.13.23-.08s.12.11.15.31.13.76.16.9,0,.08.15.15l.16.1a5.58,5.58,0,0,0,0-.85v-.12l.1-.11c.11-.13.16-.14.28-.07s.1.09.14.35.06.37.12.76.08.49.11.52a.4.4,0,0,0,.13.09c.14.08.14.08.14.06a.88.88,0,0,1,0-.18c0-.1,0-.23,0-.3a.33.33,0,0,1,0-.14s.11,0,.32.17.21.15.22.13a.5.5,0,0,0,0-.14c0-.11,0-.12,0-.18l-.1-.14-.21-.29c-.09-.11-.22-.29-.3-.4l-.2-.26a.26.26,0,0,1-.06-.28l0-.11h.12c.16,0,.19,0,.57.38a3.76,3.76,0,0,0,.33.29.48.48,0,0,0,0-.13.36.36,0,0,0,0-.31.27.27,0,0,1,0-.07,4,4,0,0,0-.22-.41,4.8,4.8,0,0,1-.23-.45.33.33,0,0,1,0-.16c0-.08,0-.1.11-.11a.27.27,0,0,1,.24.06,4.3,4.3,0,0,1,.4.46s.06.07.07.06a1.67,1.67,0,0,0,.09-.22c.11-.32.1-.31.38-.4l.1,0,.11.11.12.16a.8.8,0,0,1,0,.21l-.07.22,0,.11s0,0,.05,0l.19-.06.13,0,.06,0,.2,0,.15,0,.07.08a.28.28,0,0,1,.06.3c0,.12-.06.14-.15.15a.67.67,0,0,0-.18.07,5.2,5.2,0,0,1-.71.23s-.05,0-.06.16a.41.41,0,0,0,0,.17s.05,0,.09,0l.6-.29c.18-.09.23-.11.28-.1s.16.06.17.16,0,.17-.14.26l-.52.38c-.47.32-.57.4-.59.49a.5.5,0,0,0,0,.18V80l.07,0,.11,0,.22-.09a.91.91,0,0,1,.17-.08s0,.08,0,.18l-.05.29a.69.69,0,0,0,0,.22.84.84,0,0,0,.28-.11.72.72,0,0,0,.12-.23.87.87,0,0,1,.06-.15c0-.1.18-.43.31-.77s.12-.31.23-.34.17,0,.24,0,.08.14,0,.47l-.07.33s0,.12,0,.18,0,.2.08.15l.14-.06a2,2,0,0,0,.21-.47l.13-.33a.67.67,0,0,1,.06-.16c0-.11.05-.13.14-.17s.2-.07.28,0,.07.08,0,.49-.09.35,0,.34l.24-.07.24-.07a.49.49,0,0,1,.27.12l.07,0,0,.13c0,.11-.09.21-.13.21l-.11,0-.23.12-.15.08a3.1,3.1,0,0,0,.32.22c.32.21.35.23.39.38s0,.06-.06.1Z" transform="translate(0.74 -0.44)"/><path id="path6388" class="cls-14" d="M71.3,78.68c0-.16,0-.12.23-.37l.29-.25a.21.21,0,0,0,.07-.19v-.1l0,0-.16.09-.4.26h-.11l0-.09a.25.25,0,0,1,0-.13,1.9,1.9,0,0,1,.22-.26l.17-.16.27-.25s0,0,0-.13,0-.12,0-.09l-.08,0-.16.1-.11.07a.93.93,0,0,1,0-.22,1.35,1.35,0,0,0,0-.22.75.75,0,0,0-.2.1,4,4,0,0,0-.11.41c-.14.55-.14.54-.21.58s-.11.06-.14,0,0-.1,0-.38,0-.3,0-.34a.08.08,0,0,0,0,0,.67.67,0,0,0-.23.1s0,0,0,.1a1.8,1.8,0,0,1,0,.19c0,.12,0,.21-.08.32s0,.16-.13.19,0,0-.07,0-.08-.09,0-.34a1.2,1.2,0,0,0,0-.25l-.17.07c-.21.09-.24.1-.33.06l-.07,0v-.08c0-.16,0-.15.16-.27l.16-.11a1.32,1.32,0,0,0-.22-.11l-.22-.11,0-.06,0,0,0-.06c.06-.07.09-.09.12-.08l.37.1c.36.1.34.1.39.08l.14-.08-.27-.13c-.4-.18-.37-.16-.4-.23l0-.06.06-.06c0-.05.06-.06.1-.06s.34.07.78.18c.21.06.22.06.27,0l.09-.06,0,0L71,76.25l-.16-.08c-.06,0-.1,0-.1-.06s.09-.08.27-.19.09,0,.09-.06l-.14-.1a.11.11,0,0,0-.08,0l-.11,0-.14,0-.13,0-.24.09c-.31.1-.31.1-.42,0s0,0,0-.09a.94.94,0,0,1,0-.09,2,2,0,0,1,.38-.22l.23-.12s0,0,0,0l-.1-.06c-.06,0-.07,0-.11,0l-.13,0-.15,0-.4.12a.32.32,0,0,1-.16-.09.31.31,0,0,1,0-.16s0,0,0,0a2,2,0,0,1,.31-.15l.16-.07,0,0-.16-.1-.13-.09a.53.53,0,0,1,0-.22s0,0,.14-.1l.07,0,.17.09.18.08a.49.49,0,0,0,0-.16c0-.09,0-.18,0-.2s0-.07,0-.1,0-.06,0-.12.09-.08.16,0,.06,0,.17.42c0,.13.08.27.1.32l0,.09.11.06c.07,0,.12.06.12,0V75s0-.09,0-.14,0-.18,0-.3l0-.22,0,0c0-.07.06-.08.14,0s.05,0,.06,0a1,1,0,0,0,0,.11l0,.13c0,.07.23.73.24.75s0,.05.1.07.09,0,.1,0,0,0,0-.08,0-.31,0-.32a1.9,1.9,0,0,1,.34.18s0,0,0,0a.28.28,0,0,0,0-.2l-.39-.37-.37-.34V74l.08,0c.07,0,.07,0,.13,0l.15.09.23.17a.63.63,0,0,0,.15.1.75.75,0,0,0,0-.22.64.64,0,0,0-.11-.13l-.12-.11-.18-.17c-.15-.14-.2-.2-.19-.23a.11.11,0,0,0,0-.06s0,0,.07-.07.08,0,.11,0a1.68,1.68,0,0,1,.28.18c.08.07.13.1.13.09s0,0,0-.07v-.19a.38.38,0,0,1,0-.12.61.61,0,0,1,.13-.16l0,0,.07,0c.09,0,.12.09.12.14a.15.15,0,0,0,0,.09s0,.1,0,.15,0,.11,0,.11l0,0,.31-.22a.22.22,0,0,1,.17-.05c.07,0,.07,0,.08.13a.16.16,0,0,1,0,.12l-.06.07-.09.09-.2.2-.16.17a.9.9,0,0,0,0,.24s.12-.06.41-.29.18-.15.23-.14.09,0,.1.11,0,.12-.12.26-.07.09-.06.1,0,.06,0,0,0,0,0,0l0,0-.22.22a1.58,1.58,0,0,0-.2.24c0,.09,0,.25.05.2s0,0,.08-.06l.18-.1a.4.4,0,0,1,.12-.06.35.35,0,0,1,0,.06c0,.09,0,.36,0,.39s0,0,.09,0l.12-.06s0-.07.2-.73c0-.13.06-.25.07-.27l.08-.08s.07,0,.09,0a.15.15,0,0,1,.06.15v.11s0,.06,0,.08,0,0,0,0h0a.17.17,0,0,0,0,.09s0,.14,0,.22,0,.13,0,.13a1,1,0,0,0,.2-.09.09.09,0,0,0,.06-.08,3.22,3.22,0,0,0,.09-.43c0-.28,0-.28.09-.33s.09-.07.15,0,0,.06,0,.37a1.43,1.43,0,0,0,0,.22s0,0,.21-.09.18-.09.31,0l.09,0v.08c0,.18,0,.19-.15.27a.88.88,0,0,1-.17.12l0,0,.22.1.22.1,0,.07c0,.1,0,.13,0,.17s-.1,0-.23,0L74,75.35s-.06,0-.13.05l-.11.07a4,4,0,0,0,.51.21l.08,0,0,.09c0,.11,0,.14,0,.19s-.09,0-.25,0l-.49-.13c-.33-.09-.32-.09-.34-.08l-.09,0c-.09.07-.09.07-.07.07l.1.06a1.06,1.06,0,0,0,.17.1l.08,0s0,.07-.19.15-.15.09-.14.1,0,0,.07.06.08,0,.12,0l.12,0,.23,0,.32-.07.2-.05a.19.19,0,0,1,.19,0l.06,0,0,.07c0,.1-.06.11-.39.25l-.26.11.06.07a.24.24,0,0,0,.2.06s0,0,0,0l.3,0a1.59,1.59,0,0,1,.34,0s.05,0,.08.06,0,0,0,.09a.17.17,0,0,1-.1.13,2.07,2.07,0,0,1-.39.11s0,0,0,0l.11.11c.16.15.16.14.13.33v.08l-.1,0-.12,0a.4.4,0,0,1-.12-.08l-.11-.1L74,77.63s0,0,0,0a.74.74,0,0,1,0,.12.51.51,0,0,0,0,.1.1.1,0,0,0,0,0s0,.07,0,.13l0,.1-.06,0a.19.19,0,0,1-.2,0c-.06-.05-.07-.07,0-.13a.53.53,0,0,0,0-.13c0-.1,0-.45.05-.49s0,0-.07-.08l-.11-.05a.22.22,0,0,0,0,.06c0,.09,0,.27,0,.45s0,.16,0,.19a.12.12,0,0,1-.14.07c-.08,0-.1-.05-.12-.16l-.07-.42c-.07-.38-.09-.46-.14-.5l-.1-.06-.06,0v.29c0,.07,0,.13,0,.13s-.06,0-.11,0l-.16-.11c-.06,0-.12-.08-.12-.07s0,.16,0,.2a.35.35,0,0,0,.11.13l.07.08.38.4c.14.15.15.16.14.23s0,.12-.08.14-.1,0-.28-.13L72.56,78l-.1-.07c-.1-.08-.1-.08-.11,0V78a1.18,1.18,0,0,0,.23.26l.16.16.08.08a.19.19,0,0,1,.06.13c0,.11,0,.14-.09.17s-.07,0-.29-.15-.18-.14-.19-.11a1.08,1.08,0,0,0,0,.16.89.89,0,0,1,0,.17.28.28,0,0,1-.15.13l0,0L72,79c-.06,0-.1-.11-.09-.14v-.08a.81.81,0,0,1,0-.17.63.63,0,0,0,0-.11l-.22.13c-.21.14-.23.15-.33.13s0,0,0-.06Z" transform="translate(0.74 -0.44)"/><path id="path6390" class="cls-14" d="M69.06,64.24c0,.1,0,.09-.26.14l-.26.05c-.05,0-.07,0-.11.09l0,.06h.5l0,0,0,0,0,.06s0,.06,0,.07l-.22.08-.16,0-.25.06s0,0-.07.06,0,.08,0,.06h.29a1.08,1.08,0,0,1-.08.13.93.93,0,0,0-.07.13.45.45,0,0,0,.16,0s.1-.1.21-.21c.27-.27.26-.27.32-.27s.08,0,.09,0,0,.08-.13.23-.11.17-.13.2,0,0,0,0a.41.41,0,0,0,.16,0l.06,0,.09-.1L69.3,65c0-.06.09-.08.14-.07s0,0,0,0,0,.08-.09.23l-.09.14.13,0c.15,0,.17,0,.21.08l0,0,0,0c0,.1,0,.09-.18.1h-.13a1.29,1.29,0,0,0,.09.15l.09.14V66l0,0c-.06,0-.08,0-.1,0l-.19-.19c-.17-.2-.16-.19-.2-.19s-.1,0-.11,0l.11.17c.18.25.17.22.16.28v0l-.06,0a.11.11,0,0,1-.08,0,5,5,0,0,1-.4-.39c-.1-.11-.11-.11-.15-.11h-.11l.05.09s.07.1.07.11,0,.06,0,.07-.08,0-.22,0h-.08a.34.34,0,0,0,0,.11l0,0,.08,0,.1,0,.09,0,.18,0c.22,0,.22,0,.26.13s0,0,0,.06a.12.12,0,0,1,0,0,1,1,0,0,1-.3,0h-.18s0,0,0,0l0,.07s0,0,.05,0l.09,0,.11,0,.28.07s.07.09.06.11,0,.11,0,.1,0,0,0,0l-.24,0-.12,0,0,0a.78.78,0,0,0,0,.12.42.42,0,0,1,0,.1.25.25,0,0,1-.06.14s0,0-.12,0h0l-.07-.12-.08-.11-.05.1s0,.11-.06.12a.33.33,0,0,0,0,.06s0,0-.06.06-.08,0-.11,0,0,0,0-.31l0-.23v-.06l0-.08,0-.07,0,0a.47.47,0,0,1,0,.09l-.08.19-.06.14,0,0s-.06,0-.09,0a.06.06,0,0,1,0,0l0-.08a.24.24,0,0,1,0-.09s.12-.51.12-.53a.2.2,0,0,0,0-.08c0-.06,0-.06,0,0l0,0-.1.18a.7.7,0,0,1-.14-.22s0,0,0,0a.23.23,0,0,0-.07.11s0,.18.1.36l.1.34,0,.05,0,0h0c-.06,0-.06,0-.08,0a1.17,1.17,0,0,1,0-.11l-.08-.18a1.1,1.1,0,0,0-.06-.12l-.09.13,0,.11a.77.77,0,0,0,0,.12l0,.15c0,.14.06.2,0,.21s0,0,0,0,0,0-.07,0-.06,0-.07,0a1.42,1.42,0,0,1-.1-.21c0-.06,0-.1,0-.1l0,0s0,0,0,0l0,.06-.05.07a.39.39,0,0,1-.13,0h0l0,0c0-.06,0-.09,0-.12l0-.06a.34.34,0,0,1,0-.1.26.26,0,0,0,0-.07h0l-.27,0a.18.18,0,0,1-.12,0s0,0,0-.1,0,0,.07-.06l.06,0,.08,0,.2,0,.15,0a.55.55,0,0,0,.08-.15,1.35,1.35,0,0,0-.35,0c-.14,0-.16,0-.19,0s0,0,0-.11,0-.07.17-.11.07,0,.07,0,0,0,0,0h.06l.21-.06c.13,0,.2,0,.21-.07s.07-.15,0-.13H67s-.09,0-.09,0l0,0L67,65.7s0,0,0,0h-.09s-.06,0-.38.36l-.13.14-.08,0s-.06,0-.06,0a.09.09,0,0,1,0-.11.61.61,0,0,0,0-.06l0,0,0,0s0,0,0,0,0,0,0,0l.08-.12,0-.08a.44.44,0,0,0-.15,0,.07.07,0,0,0-.07,0l-.2.22c-.12.15-.12.15-.17.16s-.08,0-.09,0,0,0,.1-.23.08-.12.08-.13,0,0-.16,0-.14,0-.19-.1l0-.06,0,0c.08-.09.09-.1.18-.11H66a1,1,0,0,0-.09-.14l-.1-.13V65c0-.07,0-.09.06-.09s.08,0,.14.08l.29.29s0,0,.1,0h.08a2.51,2.51,0,0,0-.23-.31l0,0v-.07c0-.08,0-.09.08-.1s.06,0,.15.1l.24.25a1.45,1.45,0,0,0,.17.17H67c.07,0,.07,0,.06,0l0-.07-.06-.12,0-.06s.05,0,.17,0h.11a.39.39,0,0,0,0-.06s0,0-.06-.06l-.08,0-.16,0-.21-.07-.14,0a.13.13,0,0,1-.1-.09l0,0,0,0c.06,0,.07,0,.31,0l.2,0a.18.18,0,0,0,0-.06.16.16,0,0,0-.1-.11s0,0,0,0l-.19-.09-.2-.11a.06.06,0,0,1,0-.06s0,0,0-.07a.11.11,0,0,1,.1-.05l.27.07h0l0-.11c0-.15,0-.14,0-.25l0,0,.07,0a.12.12,0,0,1,.08,0s0,0,0,.08l0,.11v0s0,0,0,0l0-.06,0,0,0,0s0,0,.06-.06l0-.06h0a.17.17,0,0,1,.1.1c0,.06,0,.07,0,.1l0,.07a2.71,2.71,0,0,1-.2.27s0,0,0,.08a.25.25,0,0,0,0,.07l0,0c0-.05.1-.16.15-.26s.06-.1.09-.11a.07.07,0,0,1,.1,0s0,.06,0,.14-.06.15-.1.27-.11.31-.1.34l0,.08,0,0,0,0,0-.05.05-.09,0-.08a.08.08,0,0,1,0,.06l.06.13,0,.08a.52.52,0,0,0,.08-.11.23.23,0,0,0,0-.12.56.56,0,0,1,0-.07l-.09-.37c0-.14,0-.15,0-.19s.06-.06.1-.06.06,0,.12.18a.69.69,0,0,0,.06.14.26.26,0,0,0,0,.08c0,.09,0,.09.07,0s0,0,0-.06,0-.08,0-.23l0-.16a.45.45,0,0,0,0-.08.11.11,0,0,1,0-.1c0-.06.06-.07.11-.06s0,0,.12.19.06.15.08.13l.07-.09.07-.09a.25.25,0,0,1,.13,0h0l0,.05c0,.06,0,.11,0,.12s0,0,0,0a.93.93,0,0,0,0,.1l0,.07h.18c.17,0,.19,0,.24,0s0,0,0,0Z" transform="translate(0.74 -0.44)"/><path id="path6394" class="cls-14" d="M63.16,95.69c-.13-.19-.13-.12,0-.64.09-.25.18-.49.19-.53s0-.15,0-.29l-.07-.13-.05.09s-.08.16-.13.23-.32.59-.34.62,0,0-.07,0l-.07,0-.08-.1a.42.42,0,0,1-.08-.17,2,2,0,0,1,.11-.49s.06-.18.1-.34.11-.34.18-.51,0-.08,0-.19-.1-.16-.09-.1l-.06.12a2.34,2.34,0,0,0-.15.25.85.85,0,0,1-.1.15s-.07-.12-.15-.27a1.56,1.56,0,0,0-.16-.28,1.48,1.48,0,0,0-.19.27s.07.29.15.61c.19.8.19.79.13.9s-.1.14-.17.11-.11-.11-.28-.48l-.2-.45s0-.06,0-.06a1,1,0,0,0-.23.28s0,.09,0,.15a2.68,2.68,0,0,1,.07.27c0,.19.08.32.13.48a.31.31,0,0,1,0,.33c0,.06,0,.06-.11,0s-.16-.07-.31-.41a1.87,1.87,0,0,0-.15-.33l-.17.21c-.2.26-.24.29-.39.3l-.11,0-.07-.11c-.12-.19-.12-.19,0-.46a1.35,1.35,0,0,0,.12-.25H59.6l-.07-.05-.08-.06,0-.1c0-.14.05-.18.09-.2l.55-.13c.54-.12.52-.11.56-.18a.73.73,0,0,0,.12-.19l-.42,0c-.65.06-.59.06-.68,0l-.08-.06,0-.12c0-.09,0-.12.09-.15s.48-.15,1.13-.31c.32-.07.33-.08.37-.17a.91.91,0,0,1,.07-.14l0-.06h-.49c-.1,0-.17,0-.18,0a1.52,1.52,0,0,1,.22-.42c0-.07.08-.14.07-.14l-.24,0a.12.12,0,0,0-.1,0l-.12.12a1.14,1.14,0,0,0-.15.16l-.14.15-.26.28c-.32.35-.33.35-.51.33s-.08,0-.11-.08a.26.26,0,0,1,0-.13,2.27,2.27,0,0,1,.34-.57,2.33,2.33,0,0,0,.21-.32s0,0-.06,0h-.17c-.1,0-.12,0-.15,0l-.14.15-.17.17-.43.44a.41.41,0,0,1-.27,0s-.14-.19-.11-.19a0,0,0,0,0,0,0,2.64,2.64,0,0,1,.3-.42l.15-.2h-.07l-.27,0-.24,0a.83.83,0,0,1-.19-.26s0-.09.12-.23l.06-.08.29,0a1.12,1.12,0,0,0,.29,0l-.13-.2L58.54,91a1.25,1.25,0,0,1-.08-.12c-.05-.06-.06-.07,0-.18s0-.16.17-.16.08,0,.52.42l.34.34.1.09h.19a.47.47,0,0,0,.19,0l0-.08s-.08-.11-.12-.16l-.25-.36-.19-.26v-.1c0-.12,0-.14.16-.16s.08,0,.1,0l.12.11.14.14c.07.08.8.78.83.81l.18,0c.14,0,.15,0,.14,0a.37.37,0,0,0,0-.11l-.23-.4a2,2,0,0,1,.56,0c.07,0,.08,0,.07,0a.45.45,0,0,0-.12-.26,7.56,7.56,0,0,0-.76-.2l-.72-.18L59.69,90l-.06-.12.08-.09c.07-.09.08-.09.18-.09l.25,0,.42,0,.27,0a1.89,1.89,0,0,0-.13-.31.67.67,0,0,0-.23-.08l-.24-.07-.34-.08c-.3-.07-.41-.12-.41-.17s0,0,0-.07,0-.06,0-.14.09-.1.14-.1l.48,0a.86.86,0,0,0,.24,0,.29.29,0,0,0,0-.11.64.64,0,0,1,0-.11.57.57,0,0,0-.07-.13.5.5,0,0,1-.07-.17.75.75,0,0,1,.06-.3l0-.07h.13c.14,0,.21,0,.24.1a.67.67,0,0,0,.07.11,1.22,1.22,0,0,1,.13.19.71.71,0,0,0,.1.13l0-.06c0-.09.22-.45.24-.51a.44.44,0,0,1,.19-.19c.09,0,.09,0,.19.12s0,.08,0,.19a.49.49,0,0,1,0,.13s0,.09-.05.17-.07.27-.12.41a1.58,1.58,0,0,0-.08.33.85.85,0,0,0,.18.31,4.21,4.21,0,0,0,.32-.68c.12-.28.14-.31.2-.34s.13-.05.2.07.09.16,0,.43,0,.16,0,.17,0,.07,0,.06a.05.05,0,0,0-.05,0,.31.31,0,0,1,0,.08s-.06.22-.12.44a1.76,1.76,0,0,0-.1.46c0,.12.2.3.2.21a.57.57,0,0,1,.07-.13l.16-.26a.6.6,0,0,1,.11-.16l0,.07c0,.12.23.48.26.52s0,0,.1-.07l.11-.17C63,90,63,90,62.72,89a3.28,3.28,0,0,1-.09-.38.41.41,0,0,1,0-.17c0-.08.07-.1.1-.1s.14.05.18.14a1.07,1.07,0,0,0,.07.15.54.54,0,0,1,0,.11s0,0,0,0,0,0,0,0a.59.59,0,0,0,0,.12c0,.06.08.19.13.28a.65.65,0,0,0,.09.18,2.23,2.23,0,0,0,.2-.26.16.16,0,0,0,0-.15,5.65,5.65,0,0,0-.19-.61c-.14-.39-.14-.39-.1-.49s.06-.15.17-.13.11,0,.31.44a2.83,2.83,0,0,0,.15.29s.06,0,.21-.27.18-.24.38-.25h.16l0,.11c.08.25.08.27,0,.45a1.2,1.2,0,0,1-.14.28l0,0,.35,0,.35,0,.1.08c.12.09.14.13.09.22s-.09.12-.28.16l-.85.22s-.08,0-.13.16l-.09.16a6,6,0,0,0,.81-.08l.11,0,.12.09c.13.1.14.14.09.26s-.09.11-.33.16l-.73.18c-.48.11-.46.11-.49.13l-.07.14c-.07.14-.07.15,0,.14h.6s0,.12-.15.33-.12.22-.11.23H64c.11,0,.12,0,.17,0l.13-.12a2.64,2.64,0,0,0,.27-.22l.36-.32c.1-.09.21-.18.23-.21a.26.26,0,0,1,.26-.08l.11,0,0,.12c0,.16,0,.18-.33.59a1.55,1.55,0,0,0-.25.33s.06,0,.12,0a.31.31,0,0,0,.3-.06l.06,0,.38-.24.41-.26a.32.32,0,0,1,.16,0c.08,0,.1,0,.11.09a.27.27,0,0,1,0,.24,3.82,3.82,0,0,1-.42.42s0,.07,0,.08a.79.79,0,0,0,.21.06c.31.09.3.08.41.35l0,.1-.11.11a.72.72,0,0,1-.14.13.43.43,0,0,1-.2,0l-.22,0-.1,0s0,0,0,0a1.71,1.71,0,0,1,.07.18.39.39,0,0,0,0,.13.08.08,0,0,1,0,.06s0,.1.06.18l0,.15-.07.07a.27.27,0,0,1-.29.08c-.12,0-.13,0-.15-.14s0-.12-.07-.17a4.64,4.64,0,0,1-.28-.67s0,0-.16,0H65s0,0,0,.08.19.35.32.57.11.22.11.27-.05.16-.14.18-.16,0-.26-.12l-.4-.49c-.34-.43-.43-.52-.51-.54H64l-.1,0,0,.06.06.11.1.2.09.17s-.08,0-.17,0l-.28,0a.63.63,0,0,0-.21,0,.8.8,0,0,0,.11.27,1.22,1.22,0,0,0,.24.1l.14,0,.77.26c.29.09.3.09.34.2s0,.16,0,.23-.12.08-.44,0l-.33,0-.18,0c-.19,0-.19,0-.13.09s.05.12.06.13a1.77,1.77,0,0,0,.47.17l.33.1.15.06c.11,0,.13,0,.17.12s.08.19,0,.27-.06.08-.47,0-.34-.06-.33,0l.09.22a1.28,1.28,0,0,1,.08.24.48.48,0,0,1-.1.27l0,.06-.12,0c-.12,0-.21-.06-.22-.11a.88.88,0,0,0,0-.1l-.13-.22L63.79,95a2.66,2.66,0,0,0-.19.32c-.18.33-.19.35-.34.4s0,0-.09,0Z" transform="translate(0.74 -0.44)"/><path id="path6396" class="cls-14" d="M67.77,86.64c.11-.13.06-.12.47-.09l.43,0c.09,0,.12,0,.21-.09l.08-.07-.07,0-.2-.06-.52-.13,0,0,0,0,.06-.08a.25.25,0,0,1,.11-.1,2.17,2.17,0,0,1,.38,0l.27,0,.41,0c.06,0,.06,0,.14-.06s.09-.11,0-.09l-.1,0-.21-.06-.14,0,.18-.17.17-.17a.73.73,0,0,0-.23-.09,3.62,3.62,0,0,0-.42.22c-.56.3-.55.3-.64.27s-.13,0-.12-.1.06-.11.3-.3l.3-.24,0,0a.88.88,0,0,0-.26-.12l-.1.06-.19.1-.33.19a.26.26,0,0,1-.25,0s0,0,0-.07,0-.13.24-.31a1.64,1.64,0,0,0,.22-.18l-.19-.09c-.23-.1-.26-.12-.3-.23l0-.09.07-.07c.11-.13.11-.12.34-.07l.21,0s0-.12-.08-.27l-.07-.26,0-.06,0-.07H68c.11,0,.14,0,.16,0l.2.39c.2.39.19.37.24.39a.57.57,0,0,0,.17,0s0-.14-.1-.31c-.16-.48-.15-.43-.12-.51l0-.08h.09c.07,0,.1,0,.13,0a8.39,8.39,0,0,1,.44.78c.12.23.13.24.2.25a.42.42,0,0,1,.12,0l0,0,0-.17c0-.09,0-.18,0-.19a.23.23,0,0,1,0-.14,1.07,1.07,0,0,1,.36.08c.06,0,.12,0,.12,0a.81.81,0,0,0,0-.19.13.13,0,0,0-.06-.07L69.75,84l-.14-.09-.14-.07-.26-.14c-.32-.18-.32-.18-.34-.32s0-.06,0-.1a.16.16,0,0,1,.09-.05,1.5,1.5,0,0,1,.48.15l.28.1s0,0,0,0,0-.09,0-.13,0-.09-.06-.11l-.14-.07-.16-.1a4.46,4.46,0,0,1-.4-.24.35.35,0,0,1,0-.2s.12-.14.12-.12h0s.1,0,.37.14l.18.07v0s0-.13,0-.21a1.5,1.5,0,0,1,0-.18.7.7,0,0,1,.15-.2.63.63,0,0,1,.19,0l.08,0,.06.21.07.22.13-.13.15-.17.07-.08a.14.14,0,0,1,.12-.07c.11,0,.14,0,.16.1s0,.06-.21.47l-.19.33,0,.09,0,.14a.36.36,0,0,0,0,.14l0-.06.1-.11.21-.26.16-.19.07,0c.09,0,.11,0,.15.09a.11.11,0,0,1,0,.08A.91.91,0,0,0,71,83a1.05,1.05,0,0,1-.08.13c0,.07-.42.75-.43.78a.37.37,0,0,0,0,.14c0,.11,0,.11.06.1s.05,0,.07,0a2.74,2.74,0,0,1,.26-.25,2,2,0,0,1,.11.42s0,.06,0,0a.37.37,0,0,0,.16-.14s0-.29,0-.61V83l.07-.07.08-.06.08,0c.08,0,.08,0,.1.12s0,.13,0,.19l0,.32a1.74,1.74,0,0,0,0,.21,1.15,1.15,0,0,0,.2-.15.61.61,0,0,0,0-.19V83c0-.24,0-.33,0-.34l0,0s0,0,.12,0,.08.05.09.09,0,.21.06.37a.5.5,0,0,0,0,.18l.07,0,.07-.06.09-.08.1-.08a.47.47,0,0,1,.24,0h.06l0,.1c0,.11,0,.17,0,.2l-.06.08-.12.14s-.08.08-.07.09l0,0,.42.09a.27.27,0,0,1,.17.1c0,.06,0,.06,0,.16a.17.17,0,0,1-.14.07h-.24l-.33,0H72.3a.94.94,0,0,0-.2.2,4.28,4.28,0,0,0,.56.11c.23,0,.26,0,.3.09s.06.08,0,.16-.1.1-.31.1-.12,0-.13,0,0,0,0,0a0,0,0,0,0,0,0h-.77c-.09.06-.19.21-.12.19l.11,0,.22.07A.3.3,0,0,1,72,85L72,85c-.07.06-.31.26-.33.29s0,0,.07.06l.15.05c.07,0,.09,0,.76-.39l.26-.15H73c.08,0,.09,0,.09,0a.14.14,0,0,1-.06.16l-.1.08-.07.06a.05.05,0,0,0,0,0h0s0,0-.09,0l-.18.16a.6.6,0,0,0-.11.1,1.46,1.46,0,0,0,.23.1s.06,0,.11,0,.2-.12.42-.26.26-.18.34-.17.13,0,.13.1,0,.09-.27.32a1.65,1.65,0,0,0-.18.17s0,0,.24.1.21.09.25.24l0,.12-.08.05c-.17.11-.18.11-.34.08a.86.86,0,0,1-.23,0h0s0,.12.08.26l.09.26,0,.09c0,.11-.08.13-.15.11s-.11,0-.17-.18-.27-.51-.32-.6-.06,0-.15-.07l-.13,0a5.05,5.05,0,0,0,.21.59l0,.08-.05.1c0,.12-.07.14-.17.12s-.1,0-.19-.22-.13-.25-.26-.51-.18-.33-.2-.34l-.11,0c-.12,0-.12,0-.12,0s0,.06,0,.13,0,.17,0,.22,0,.1,0,.11-.09,0-.27,0-.18-.06-.19,0,0,.06,0,.11,0,.09.06.11l.11.08.22.16.31.21.19.13a.19.19,0,0,1,.11.19v.08l-.09,0c-.11,0-.13,0-.49-.14a2.2,2.2,0,0,0-.3-.13.31.31,0,0,0,0,.1.28.28,0,0,0,.09.22s.05,0,.05,0a3.24,3.24,0,0,0,.25.24l.27.26a.37.37,0,0,1,0,.12c0,.07,0,.08,0,.1a.22.22,0,0,1-.19,0,3.16,3.16,0,0,1-.39-.24s-.06,0-.06,0a.63.63,0,0,0,0,.17c0,.26,0,.25-.18.38l-.07,0-.1-.05a.46.46,0,0,1-.12-.09.4.4,0,0,1,0-.15v-.18a.22.22,0,0,0,0-.08s0,0,0,0l-.11.08-.09.06,0,0-.13.07-.1.07-.06,0a.2.2,0,0,1-.12-.2c0-.1,0-.11.07-.15a.42.42,0,0,0,.12-.08,4.44,4.44,0,0,1,.44-.34s0,0,0-.13,0-.11,0-.12l-.06,0-.36.35c-.1.1-.13.13-.17.13s-.13,0-.16-.07,0-.12,0-.22.16-.22.28-.39c.26-.34.31-.42.31-.48l0-.14,0-.07,0,0-.07.07-.13.12-.11.09s0,0-.06-.12a2,2,0,0,1,0-.22.63.63,0,0,0,0-.15.52.52,0,0,0-.18.14,1.25,1.25,0,0,0,0,.19s0,.06,0,.12,0,.35,0,.62,0,.25-.09.3-.11.07-.17,0-.09-.08-.11-.33,0-.23,0-.26,0-.09,0-.14,0-.15-.09-.08-.08.06-.08.07a1.25,1.25,0,0,0,0,.39c0,.13,0,.24,0,.26a.45.45,0,0,0,0,.13.16.16,0,0,1-.06.15c-.08.09-.13.1-.2,0s-.08,0-.1-.35,0-.27-.06-.25l-.15.11-.16.11a.48.48,0,0,1-.22,0l-.05,0v-.09a.23.23,0,0,1,0-.19l.07-.06.13-.14s.09-.08.08-.09l-.27-.08c-.28-.07-.3-.08-.36-.18s0,0,0-.08Z" transform="translate(0.74 -0.44)"/><path id="path6398" class="cls-14" d="M80.38,64.93c.09.06.08,0,.08.29a2.21,2.21,0,0,1,0,.27c0,.05,0,.07.07.12l0,0v0s0-.08,0-.13,0-.31,0-.33,0,0,0,0l0,0,.05,0a.14.14,0,0,1,.07.06,1.19,1.19,0,0,1,0,.24,1.49,1.49,0,0,0,0,.17v.26s0,0,0,.08S81,66,81,66a.21.21,0,0,1,0-.06.69.69,0,0,1,0-.13l0-.09.11.1c.07,0,.12.1.12.09a.42.42,0,0,0,0-.15l-.16-.25c-.22-.32-.22-.32-.21-.38S81,65,81,65s.06,0,.2.17l.17.17,0,0a.76.76,0,0,0,.06-.16.15.15,0,0,0,0-.06L81.32,65l-.14-.2a.14.14,0,0,1,0-.15s0,0,0,0,.09,0,.21.13l.12.13a.48.48,0,0,0,0-.13c0-.15,0-.17.12-.2l0,0,0,0c.08.07.08.07.06.21a1.25,1.25,0,0,0,0,.14l.16-.07.16-.06h.08v.05c0,.07,0,.09,0,.11l-.22.15c-.22.14-.21.13-.22.17a.62.62,0,0,0,0,.11l.19-.08c.28-.14.26-.13.31-.11h0v.06s0,.06,0,.08a4.24,4.24,0,0,1-.45.33c-.13.09-.14.09-.14.14s0,0,0,.07v0l.1,0,.12,0s.07,0,.08,0a.6.6,0,0,1,0,.22.37.37,0,0,0,0,.08l.12,0s0,0,0,0a.25.25,0,0,1,0-.07l0-.1,0-.09.07-.17c.09-.21.09-.21.18-.24s0,0,.06,0a.09.09,0,0,1,0,0,1.4,1.4,0,0,1-.06.31,1.37,1.37,0,0,0,0,.18h0l.07,0s0,0,.06,0a.63.63,0,0,1,0-.09l0-.1c0-.11.11-.25.12-.27a.19.19,0,0,1,.12,0s.09.06.08.07h0a2,2,0,0,1-.06.24l0,.11h0l.12,0,.11,0a.35.35,0,0,1,.13.08s0,0,0,.12v0l-.13.06a.53.53,0,0,0-.13.06l.09.07.11.08.06,0s0,0,0,.07,0,.08,0,.1,0,0-.3-.1l-.22-.09-.06,0-.08,0-.08,0s0,0,0,0l.07,0,.18.12.12.09,0,0c0,.06,0,.07,0,.1h0l-.07,0-.08,0-.51-.22-.08,0c-.07,0-.07,0-.06,0s0,0,0,0a1.22,1.22,0,0,1,.16.14.86.86,0,0,1-.25.09s0,0,0,0,.08.09.1.09l.37,0,.35,0,.05,0,0,0,0,0s0,0-.06.07l-.12,0-.19.05-.13,0a.6.6,0,0,0,.11.12h.23l.17,0c.14,0,.2,0,.21,0s0,0,0,0,0,0,0,.07,0,0,0,.06l-.22.06-.11,0s0,0,0,0,0,0,0,0l0,0s.06,0,.06.07a.26.26,0,0,1,0,.14v0l0,0c-.07,0-.1,0-.13,0a.1.1,0,0,0-.05,0l-.09-.06-.06,0s0,0,0,0,0,.24,0,.26a.17.17,0,0,1,0,.12s0,0-.1,0,0,0-.05-.08a.21.21,0,0,1,0-.06.39.39,0,0,0,0-.09s0-.13,0-.2,0-.15,0-.16-.12-.12-.14-.11a2.33,2.33,0,0,0,0,.35c0,.15,0,.17,0,.19s0,0-.11,0-.06-.05-.08-.18,0-.08,0-.08,0,0,0,0,0,0,0,0v0s0-.11,0-.22a1,1,0,0,0,0-.22s-.14-.1-.12-.06a.32.32,0,0,1,0,.07s0,.1,0,.14l0,.09,0,0a1.65,1.65,0,0,0-.2-.19s0,0,0,0a.37.37,0,0,0,0,.09s0,.06.29.45a.69.69,0,0,1,.1.16.17.17,0,0,1,0,.08s0,0,0,.06-.07,0-.1,0l-.06,0,0,0,0,0s0,0,0,0l0,0-.1-.11-.07-.06a.5.5,0,0,0,0,.15s0,0,0,.07l.19.24c.12.16.13.16.13.21s0,.08-.06.08,0,0-.21-.14l-.12-.11s0,0,0,.16,0,.13-.13.17l-.07,0,0,0c-.08-.1-.08-.11-.07-.21a1.42,1.42,0,0,1,0-.15s0,0,0,0l-.16.07-.15.08-.06,0c-.06,0-.08,0-.07-.08s0-.08.1-.13.29-.2.34-.23,0,0,0-.1a.38.38,0,0,1,0-.08,2.48,2.48,0,0,0-.35.17l0,0-.06,0c-.08,0-.09,0-.09-.1s0-.06.12-.13l.3-.2c.2-.13.19-.12.2-.14a.56.56,0,0,0,0-.07c0-.08,0-.08,0-.07l-.08,0-.13,0-.06,0s0-.06,0-.18,0-.11,0-.12l-.07,0s-.05,0-.06.05l0,.07-.09.15-.11.2-.07.13c0,.06,0,.07-.1.08h0l0-.05c0-.07,0-.08.05-.32a.63.63,0,0,0,.06-.19h-.06a.17.17,0,0,0-.13.08s0,0,0,0l-.13.17a1.63,1.63,0,0,1-.14.18.08.08,0,0,1-.07,0,.06.06,0,0,1-.07,0,.12.12,0,0,1,0-.11,2.17,2.17,0,0,1,.12-.26.1.1,0,0,0,0,0s-.06,0-.11,0-.15,0-.24-.08l0,0,0-.07a.19.19,0,0,1,0-.08.19.19,0,0,1,.1,0l.1,0h0s0,0,0,0a.22.22,0,0,1-.06-.07l0-.05,0,0,0-.08,0-.06,0,0a.13.13,0,0,1,.12-.08.08.08,0,0,1,.09,0l.06.07a2.4,2.4,0,0,1,.23.25s0,0,.08,0l.07,0s0,0,0,0l-.24-.21c-.07-.05-.09-.07-.09-.1s0-.08,0-.1.07,0,.14,0l.25.15c.23.14.28.16.32.16a.13.13,0,0,0,.08,0l0,0,0,0,0,0-.08-.07s-.07-.06-.07-.07,0,0,.07,0l.13,0c.06,0,.1,0,.1,0a.31.31,0,0,0-.1-.1H80c-.14,0-.15,0-.18,0s0-.07,0-.11,0-.06.2-.08l.15,0h.09c.09,0,.09,0,0-.07l-.05,0h-.48c-.05,0-.06,0-.09,0s-.07-.07,0-.12,0,0,.21-.09.16,0,.15,0,0,0-.08-.08a.76.76,0,0,1-.07-.09.22.22,0,0,1,0-.14v0h0c.06,0,.11,0,.12,0s0,0,0,0l.1.08.06,0s0-.08,0-.17,0-.19.09-.24,0,0,0,0Z" transform="translate(0.74 -0.44)"/><path id="path6400" class="cls-14" d="M60.52,76.81c.08-.19,0-.16.49-.27l.48-.11c.09,0,.12,0,.19-.17l.06-.11h-.32l-.61,0-.07,0-.06,0,0-.11a.24.24,0,0,1,.09-.14,1.89,1.89,0,0,1,.4-.15l.3-.07.45-.11c.07,0,.07,0,.13-.12s.07-.15,0-.12h-.53l.13-.24a.92.92,0,0,0,.13-.25,1,1,0,0,0-.29,0l-.38.39c-.49.52-.48.51-.59.52s-.15,0-.16-.07,0-.14.22-.44l.24-.36s0,0,0-.06a1.06,1.06,0,0,0-.31,0l-.09.1-.17.18c-.11.12-.2.21-.29.32a.29.29,0,0,1-.26.13c-.06,0-.07,0-.08-.06s0-.15.16-.42l.17-.27-.24,0c-.29,0-.32,0-.4-.14l-.07-.08.05-.11c.09-.17.08-.17.35-.19l.24,0-.17-.27-.18-.25V73.5l.09,0c.12,0,.16,0,.19,0l.35.35c.34.34.32.33.39.33a.58.58,0,0,0,.2,0,2.5,2.5,0,0,0-.21-.3c-.35-.46-.32-.42-.31-.52v-.09l.09,0a.22.22,0,0,1,.16,0,9.32,9.32,0,0,1,.75.7c.21.2.22.21.3.19a.66.66,0,0,1,.14,0h.06l-.11-.17-.13-.19c-.06-.06-.08-.12-.07-.14a1.18,1.18,0,0,1,.41,0h.14a1.59,1.59,0,0,0-.09-.2.12.12,0,0,0-.09,0l-.14,0-.19,0-.17,0-.33-.07c-.41-.08-.41-.08-.48-.22s0-.07,0-.13a.3.3,0,0,1,.08-.08,1.72,1.72,0,0,1,.57,0,2.21,2.21,0,0,0,.34,0s0,0,0,0l-.08-.13c0-.07-.06-.08-.11-.09l-.16,0-.21,0-.52-.12a.3.3,0,0,1-.12-.2s.08-.2.09-.18h0a1.9,1.9,0,0,1,.45,0l.22,0,0,0a2.17,2.17,0,0,1-.11-.22.91.91,0,0,1-.09-.18.74.74,0,0,1,.1-.27s.08,0,.22,0h.09l.14.21a1.16,1.16,0,0,0,.16.21l.09-.19.1-.23s0-.08,0-.12,0-.07.11-.11.15,0,.2,0,.06.06-.06.58c0,.17-.08.36-.09.42l0,.12.09.14a.47.47,0,0,0,.1.13s0,0,0-.07a.71.71,0,0,1,.07-.16c0-.06.08-.22.14-.36l.1-.26.08-.05c.09,0,.12,0,.18,0a.16.16,0,0,1,0,.09,1.06,1.06,0,0,0,0,.14,1.46,1.46,0,0,1,0,.17c0,.1-.2,1-.2,1a.62.62,0,0,0,.06.14c.07.11.07.12.1.09s0,0,.06-.08l.19-.36a1.9,1.9,0,0,1,.27.42s0,0,.06,0a.34.34,0,0,0,.13-.22s-.09-.32-.2-.66L63,71.65l.06-.1,0-.1.11,0c.1,0,.1,0,.14.09a1.8,1.8,0,0,1,.11.2l.15.33.11.22a1.66,1.66,0,0,0,.16-.24.61.61,0,0,0,0-.21,1.53,1.53,0,0,1-.07-.21s-.05-.15-.1-.29-.1-.36-.07-.39,0,0,0-.06,0,0,.13,0,.1,0,.13.05a3.2,3.2,0,0,1,.19.38.61.61,0,0,0,.1.19l.06-.08a.44.44,0,0,1,0-.09l.07-.11a.79.79,0,0,1,.08-.13.82.82,0,0,1,.25-.1h.07l.06.1c.07.11.08.17,0,.22l0,.11a2.05,2.05,0,0,1-.08.19c0,.06-.06.12-.05.12s0,0,.06,0l.48-.06a.3.3,0,0,1,.23.06c.07,0,.07,0,0,.19a.2.2,0,0,1-.13.12l-.11,0-.15,0-.36.1a1,1,0,0,0-.27.09.86.86,0,0,0-.15.28,3,3,0,0,0,.65-.08c.26,0,.29,0,.35,0s.09.07,0,.19-.08.14-.31.22S65,73,65,73s0,.07,0,0,0,0,0,0l-.07,0-.39.11a1.22,1.22,0,0,0-.37.14c-.08.09-.13.29-.07.25h.4a.3.3,0,0,1,.16,0,.17.17,0,0,1,0,.07c-.06.09-.24.4-.25.43s0,0,.09,0h.18c.07,0,.1,0,.68-.69.11-.13.22-.24.24-.26l.14,0c.09,0,.11,0,.12,0a.18.18,0,0,1,0,.2.52.52,0,0,0-.07.12l-.06.09s0,0,0,0h0s0,0-.07.09l-.15.23a.74.74,0,0,0-.08.15,1.4,1.4,0,0,0,.29,0,.13.13,0,0,0,.11,0,4.78,4.78,0,0,0,.36-.43c.22-.29.23-.29.31-.31s.15,0,.18.07,0,.1-.18.44a1.63,1.63,0,0,0-.14.24s.06,0,.29,0,.26,0,.36.17l.08.11-.07.08c-.15.18-.16.18-.33.21l-.27,0s0,0,0,0l.18.25.19.25v.11c0,.13,0,.16-.12.17s-.13,0-.25-.14l-.55-.54a.37.37,0,0,0-.18,0h-.16a4.69,4.69,0,0,0,.44.57l.06.07v.13c0,.15,0,.18-.15.19s-.12,0-.27-.17l-.47-.46c-.31-.3-.3-.29-.33-.3h-.13c-.14,0-.14,0-.13,0l.08.14.13.22.05.1s-.09,0-.31,0-.21,0-.21,0a.41.41,0,0,0,0,.11c.05.08.06.09.11.11l.15,0,.29.09.4.13.26.07a.23.23,0,0,1,.18.16l0,.09-.08.07c-.11.09-.13.09-.59,0l-.36,0a.45.45,0,0,0,0,.11.28.28,0,0,0,.18.2l.06,0,.36.17a3.06,3.06,0,0,1,.38.19.33.33,0,0,1,.06.12c0,.08,0,.09,0,.13a.22.22,0,0,1-.19.08,3.12,3.12,0,0,1-.5-.12s-.08,0-.08,0a1.06,1.06,0,0,0,0,.19c.08.28.08.27-.06.47l-.06.08-.13,0a.37.37,0,0,1-.16,0,.44.44,0,0,1-.08-.16c0-.08,0-.16-.06-.19l0-.08s0,0,0,0a.91.91,0,0,1-.1.13.63.63,0,0,0-.07.1l0,0a.83.83,0,0,0-.12.13l-.08.1-.09,0a.25.25,0,0,1-.19-.18c0-.1,0-.12,0-.18a1.46,1.46,0,0,0,.09-.13,3.8,3.8,0,0,1,.36-.52s0,0,0-.14a.36.36,0,0,0-.09-.12.19.19,0,0,0,0,.06c-.06.1-.17.31-.27.51s-.11.18-.15.2a.14.14,0,0,1-.2,0c-.07-.07-.07-.12,0-.25s.1-.3.18-.52c.15-.46.18-.57.16-.63a1,1,0,0,0-.08-.14l-.06-.07,0,.06a.46.46,0,0,1,0,.1,1.53,1.53,0,0,0-.1.17l-.08.15s-.07,0-.11-.11l-.11-.23a1,1,0,0,0-.09-.16.65.65,0,0,0-.15.22.54.54,0,0,0,0,.22s0,.06,0,.12.09.39.17.7.07.27,0,.35-.09.11-.17.1-.12-.05-.23-.32l-.11-.27a.91.91,0,0,1-.07-.14c-.06-.16-.06-.16-.13-.06a.41.41,0,0,0-.06.11,1.4,1.4,0,0,0,.09.43c0,.14.07.27.08.29s0,.08,0,.14,0,.11,0,.18-.1.15-.2.13-.09,0-.23-.35-.12-.28-.15-.25l-.12.18a1.15,1.15,0,0,1-.13.17.58.58,0,0,1-.25,0h-.07l0-.1c0-.1,0-.19,0-.22s0,0,0-.09.07-.13.1-.2l.06-.12A2.08,2.08,0,0,0,61,77c-.32,0-.35,0-.45-.07s0,0,0-.09Z" transform="translate(0.74 -0.44)"/><path id="path6402" class="cls-14" d="M54.58,73.23c-.21-.1-.18,0-.29-.57,0-.26-.09-.52-.1-.56s0-.15-.19-.23l-.12-.08v.11c0,.06,0,.17,0,.26s0,.68,0,.72a.18.18,0,0,1,0,.08l0,.06-.11,0a.36.36,0,0,1-.16-.11,2,2,0,0,1-.16-.48s0-.19-.07-.35-.08-.35-.11-.53,0-.08-.13-.15-.16-.08-.13,0,0,.06,0,.13a1.39,1.39,0,0,0,0,.29.72.72,0,0,1,0,.19,2.83,2.83,0,0,1-.27-.17,1.28,1.28,0,0,0-.28-.15,1.27,1.27,0,0,0,0,.33l.43.45c.58.6.57.59.57.71s0,.18-.08.19-.16,0-.49-.28-.36-.25-.4-.29l-.07,0a1.14,1.14,0,0,0,0,.37l.11.11.2.2.35.34a.33.33,0,0,1,.13.31c0,.07,0,.08-.06.09s-.17,0-.48-.2a2.2,2.2,0,0,0-.3-.2l0,.27c0,.33-.06.37-.18.46l-.1.07-.11-.06c-.2-.1-.2-.1-.21-.41l0-.28-.31.19-.3.2h-.18l0-.1c0-.14,0-.19,0-.22s.24-.24.41-.4c.41-.38.39-.36.4-.44a.75.75,0,0,0,0-.23,3,3,0,0,0-.35.24c-.54.38-.48.35-.6.33h-.1l0-.11a.21.21,0,0,1,0-.18,7.43,7.43,0,0,1,.82-.85c.23-.23.24-.24.23-.34a.38.38,0,0,1,0-.15V71.6l-.19.12a1.42,1.42,0,0,0-.22.15c-.08.06-.14.09-.16.07s0-.17,0-.47V71.3a1.12,1.12,0,0,0-.24.1.17.17,0,0,0-.06.1.79.79,0,0,1,0,.17,1.29,1.29,0,0,0,0,.21c0,.06,0,.15,0,.19l-.09.39c-.1.46-.11.47-.27.55s-.08,0-.14,0-.09-.07-.09-.1a1.92,1.92,0,0,1,0-.66,2.2,2.2,0,0,0,0-.39s0,0-.06,0l-.15.09c-.09,0-.1.06-.11.12a1.37,1.37,0,0,1,0,.19c0,.07,0,.18-.05.24a6.1,6.1,0,0,1-.16.6.39.39,0,0,1-.23.13s-.22-.1-.2-.11a0,0,0,0,0,0,0,3,3,0,0,1,0-.52l0-.25-.06,0-.25.12-.21.1a.67.67,0,0,1-.3-.13s0-.09,0-.25v-.11l.25-.16.24-.16a1,1,0,0,0-.21-.12l-.26-.13-.13-.06c-.07,0-.08,0-.12-.13s0-.17.07-.24.06,0,.66.11l.47.12.14,0,.16-.1a.75.75,0,0,0,.15-.11l-.09,0L49.32,71l-.41-.18-.29-.13,0-.09c0-.1,0-.14,0-.21s.08,0,.11,0l.16,0,.19,0,1.13.27.16-.07c.13-.07.13-.07.11-.11a.29.29,0,0,0-.1-.07,4.19,4.19,0,0,1-.39-.24,2.61,2.61,0,0,1,.48-.29c.06,0,.06,0,0-.07a.48.48,0,0,0-.24-.16l-.76.21-.71.22-.11-.07L48.58,70l0-.12c0-.11,0-.11.11-.17l.23-.11.39-.16.25-.12a2.37,2.37,0,0,0-.27-.2.66.66,0,0,0-.24,0l-.24.07-.34.1c-.29.09-.41.1-.44.06l-.07,0s0,0,0-.15,0-.12.06-.15a3.14,3.14,0,0,1,.45-.2.72.72,0,0,0,.21-.11s0,0-.09-.07l-.1-.08-.12-.07a.82.82,0,0,1-.15-.11.89.89,0,0,1-.1-.29V68l.12-.07c.12-.07.19-.08.26,0a.33.33,0,0,0,.12,0l.21.1c.07,0,.13.07.14.06a.22.22,0,0,0,0-.06c0-.11,0-.51-.05-.57a.38.38,0,0,1,.07-.26c.06-.08.06-.08.22,0s.09,0,.13.15a1.28,1.28,0,0,1,0,.13l0,.17a3.78,3.78,0,0,1,.1.42,1.75,1.75,0,0,0,.1.32.78.78,0,0,0,.31.18,3.64,3.64,0,0,0-.06-.75c0-.3,0-.34,0-.4s.08-.11.21,0,.16.1.24.36,0,.15.08.15.07,0,0,0,0,0,0,0a.24.24,0,0,1,0,.08s.06.23.12.45a1.87,1.87,0,0,0,.14.44c.1.09.33.16.28.09A.33.33,0,0,1,51,69c0-.07,0-.21,0-.31a.41.41,0,0,1,0-.19.12.12,0,0,1,.08,0l.48.31s0,0,.06-.11a1.56,1.56,0,0,0,0-.2c0-.09,0-.12-.76-.82l-.28-.29a.35.35,0,0,1,0-.17c0-.09,0-.12,0-.13a.2.2,0,0,1,.22,0l.14.09.1.07s.05,0,.06,0a0,0,0,0,1,0,0s.05,0,.1.09l.26.18.16.1a1,1,0,0,0,0-.33.17.17,0,0,0,0-.13,5,5,0,0,0-.48-.44c-.32-.27-.32-.27-.34-.37s0-.17.09-.2.11,0,.49.22l.27.18s0-.07,0-.35,0-.29.21-.41l.13-.08.09.08c.19.18.2.19.22.4a2,2,0,0,1,0,.31s0,0,0,0a2.07,2.07,0,0,0,.29-.2l.29-.21.12,0c.15,0,.19,0,.19.14s0,.16-.16.29-.54.52-.63.62,0,.09,0,.21a1.74,1.74,0,0,1,0,.18,6.67,6.67,0,0,0,.66-.48l.09-.08.14,0c.17,0,.2,0,.21.18s0,.14-.2.31l-.54.53c-.36.35-.35.33-.36.37v.15c0,.16,0,.17,0,.15l.16-.09.25-.14.13-.06s0,.11,0,.36,0,.26,0,.25a.36.36,0,0,0,.13-.05c.1,0,.11-.07.13-.13l0-.17s.08-.2.12-.33.11-.33.16-.46l.09-.3a.26.26,0,0,1,.19-.21l.1,0,.08.09c.09.13.09.16,0,.68a2.93,2.93,0,0,0-.06.42s.07,0,.13,0a.32.32,0,0,0,.23-.2.21.21,0,0,1,0-.07l.2-.4.23-.44a.37.37,0,0,1,.14-.07c.09,0,.11,0,.15,0a.28.28,0,0,1,.09.23,5.31,5.31,0,0,1-.16.57c0,.06,0,.09,0,.1l.22,0c.32-.09.31-.09.53.08l.08.07,0,.15a.7.7,0,0,1-.06.19.74.74,0,0,1-.19.08l-.21.07-.1,0s0,0,0,0l.15.12a.32.32,0,0,0,.1.09l0,0a.86.86,0,0,0,.14.14l.11.1,0,.1a.31.31,0,0,1-.21.22c-.12,0-.14,0-.21,0a.61.61,0,0,0-.15-.12,4.39,4.39,0,0,1-.57-.44s0,0-.17,0a.48.48,0,0,0-.13.09s0,0,.06.06l.57.33c.17.09.21.13.23.18a.17.17,0,0,1,0,.23c-.09.07-.14.08-.29,0L54.39,70c-.51-.2-.63-.23-.71-.21a.53.53,0,0,0-.16.09l-.08.06.07,0a.29.29,0,0,1,.11.06l.19.12.16.1s0,.08-.13.12l-.26.12a.71.71,0,0,0-.18.11s.18.16.23.17a.74.74,0,0,0,.26,0l.14,0c.11,0,.45-.09.8-.17s.31-.07.4,0,.12.12.11.21-.07.13-.38.25l-.3.12-.17.07c-.18.07-.19.07-.07.15l.12.08a1.77,1.77,0,0,0,.49-.09l.34-.08.16,0a.25.25,0,0,1,.21,0c.13.07.16.13.13.24s0,.11-.4.26-.32.12-.29.16l.19.14a.87.87,0,0,1,.19.17.47.47,0,0,1,0,.28v.08l-.12,0c-.11,0-.21.05-.24,0l-.1-.06-.23-.12c-.07,0-.13-.08-.14-.07v.37c0,.38,0,.41-.09.53s0,0-.11,0Z" transform="translate(0.74 -0.44)"/><g id="g7153"><path id="path7018" class="cls-15" d="M22.43,77.66s-3.28,8.21-4.3,10.93c-.07.21-.16.61.08.69s.39-.29.47-.5C19.69,86.11,22.43,77.66,22.43,77.66Z" transform="translate(0.74 -0.44)"/><path id="path7020" class="cls-15" d="M30.87,73s-3,7.43-3.89,9.9c-.07.19-.15.55.07.62s.35-.25.42-.45c.92-2.42,3.4-10.07,3.4-10.07Z" transform="translate(0.74 -0.44)"/><path id="path7022" class="cls-15" d="M26.22,75.65s-1.6,4-2.09,5.31c0,.11-.08.3,0,.34s.2-.14.23-.24C24.88,79.76,26.22,75.65,26.22,75.65Z" transform="translate(0.74 -0.44)"/><path id="path7024" class="cls-15" d="M30.31,68.3s-5.12,12.82-6.7,17.06c-.12.33-.26,1,.12,1.08s.61-.45.73-.77C26,81.49,30.31,68.3,30.31,68.3Z" transform="translate(0.74 -0.44)"/><path id="path7026" class="cls-15" d="M33.41,78.86s-2.37,5.93-3.1,7.9c-.06.15-.12.44.05.5s.29-.21.35-.36c.72-1.94,2.7-8,2.7-8Z" transform="translate(0.74 -0.44)"/><path id="path7028" class="cls-15" d="M38,70.93s-4,10-5.24,13.34c-.1.26-.2.74.09.84s.48-.35.58-.6C34.61,81.24,38,70.93,38,70.93Z" transform="translate(0.74 -0.44)"/><path id="path7036" class="cls-15" d="M34.75,73.27s-3,7.6-4,10.12c-.07.2-.15.56.07.64s.36-.26.44-.46C32.21,81.09,34.75,73.27,34.75,73.27Z" transform="translate(0.74 -0.44)"/><path id="path7038" class="cls-15" d="M40.53,68.9s-4,10-5.22,13.31c-.1.26-.2.74.09.84s.48-.35.57-.61c1.23-3.25,4.56-13.54,4.56-13.54Z" transform="translate(0.74 -0.44)"/><path id="path7042" class="cls-15" d="M35.14,82.6s-3,7.51-3.92,10c-.07.2-.15.56.07.64s.35-.27.43-.46c.92-2.45,3.42-10.17,3.42-10.17Z" transform="translate(0.74 -0.44)"/><path id="path7044" class="cls-15" d="M42.37,74.33s-2.49,6.25-3.26,8.32c-.06.16-.13.46,0,.53s.3-.22.36-.38c.77-2,2.85-8.47,2.85-8.47Z" transform="translate(0.74 -0.44)"/><path id="path7046" class="cls-15" d="M21.66,85.08s-1.51,3.77-2,5c0,.1-.07.28,0,.32s.18-.13.21-.23c.47-1.23,1.73-5.11,1.73-5.11Z" transform="translate(0.74 -0.44)"/><path id="path7048" class="cls-15" d="M33.59,78.08S28.1,91.84,26.4,96.39c-.13.36-.27,1,.12,1.16s.66-.48.8-.83c1.68-4.48,6.27-18.64,6.27-18.64Z" transform="translate(0.74 -0.44)"/><path id="path7050" class="cls-15" d="M32.34,85.56s-2.41,6-3.15,8c-.06.15-.12.45,0,.51s.29-.21.35-.37C30.33,91.75,32.34,85.56,32.34,85.56Z" transform="translate(0.74 -0.44)"/><path id="path7056" class="cls-15" d="M16.2,85.51S14,91,13.35,92.75c0,.14-.1.41.05.46s.26-.19.32-.33C14.38,91.11,16.2,85.51,16.2,85.51Z" transform="translate(0.74 -0.44)"/><path id="path7060" class="cls-15" d="M19.81,88.43s-1.44,3.6-1.88,4.79c0,.1-.07.27,0,.31s.17-.13.21-.22C18.61,92.14,19.81,88.43,19.81,88.43Z" transform="translate(0.74 -0.44)"/><path id="path7070" class="cls-15" d="M22.54,69.63S18.31,80.21,17,83.71c-.11.28-.22.79.09.89s.51-.36.61-.64c1.3-3.44,4.83-14.33,4.83-14.33Z" transform="translate(0.74 -0.44)"/><path id="path7076" class="cls-15" d="M27.81,65.36S24.91,72.62,24,75c-.07.19-.15.54.06.61s.35-.25.42-.44C25.39,72.83,27.81,65.36,27.81,65.36Z" transform="translate(0.74 -0.44)"/></g></g></g></g></svg>