<svg id="svg13195" xmlns="http://www.w3.org/2000/svg" xmlns:xlink="http://www.w3.org/1999/xlink" viewBox="0 0 110 119.77"><defs><style>.cls-1,.cls-2{fill:#fd5;}.cls-1,.cls-9{opacity:0.8;}.cls-1,.cls-10,.cls-11,.cls-12,.cls-13,.cls-14,.cls-2,.cls-7,.cls-8,.cls-9{isolation:isolate;}.cls-2{opacity:0.94;}.cls-3{fill:url(#radial-gradient);}.cls-4{fill:url(#linear-gradient);}.cls-5{fill:url(#linear-gradient-2);}.cls-6{fill:#520;fill-opacity:0;}.cls-10,.cls-11,.cls-12,.cls-13,.cls-7,.cls-8,.cls-9{fill:#fff;}.cls-7{opacity:0.85;}.cls-8{opacity:0.9;}.cls-10{opacity:0.95;}.cls-11,.cls-14{opacity:0.5;}.cls-12{opacity:0.67;}.cls-13{opacity:0.6;}.cls-14{fill:#dbe3e2;}</style><radialGradient id="radial-gradient" cx="538.09" cy="-519.07" r="50.51" gradientTransform="matrix(0.31, -0.01, -0.02, -0.48, -142.81, -206.05)" gradientUnits="userSpaceOnUse"><stop offset="0" stop-color="#ff0"/><stop offset="1" stop-color="#fea917"/></radialGradient><linearGradient id="linear-gradient" x1="572.89" y1="-914.34" x2="678.33" y2="-810.67" gradientTransform="matrix(0.34, 0, 0, -0.34, -172.82, -256.83)" gradientUnits="userSpaceOnUse"><stop offset="0" stop-color="#ff0"/><stop offset="1" stop-color="#ff0" stop-opacity="0"/></linearGradient><linearGradient id="linear-gradient-2" x1="651.98" y1="-756.96" x2="635.28" y2="-852.03" gradientTransform="matrix(0.34, 0, 0, -0.34, -172.82, -256.83)" gradientUnits="userSpaceOnUse"><stop offset="0" stop-color="#fff"/><stop offset="1" stop-color="#fff" stop-opacity="0"/></linearGradient></defs><g id="layer1"><g id="g5656"><path id="path5658" class="cls-1" d="M38.83.44l.66,15.27L37.86,6.28,39,15.86l-1.16-5.19-.73-4.74.48,3.61L36.06,2.61l2.1,12.57-2.1-7.55,1.1,6.22L33.34,2l3.4,12.85L33.82,7.23l1.65,6L31.39,4l3.85,11.86-2.75-5L31.55,9l.37.89-3.3-5.92,5.9,13.66-.27-.39-5-8.1,1.88,3.53-2.08-3,2.82,5.22L26.15,6.42l6.18,10.39-3.75-4.95,3.81,5.9L23.41,7l7.43,10.15-4.39-4.76,4.89,6.19-8.29-8.12,9,10.29L28.59,18l-8-6.45,10.35,9.75-8.59-5.52,1.16.92-.43-.27,2.88,2.24,1.33,1.07-8.85-5.07L27,20.92l-4.3-2.48,5.2,3.13.6.43L16.16,16.48,25.71,22,21,19.89l5.71,2.7,2.11,1.22L23,21.88,17.1,19.55l4.35,1.8-1.62-.55,3.67,1.68-2.72-.84,7.58,3.62-.58-.12L15.26,21.65l10,3-6-1.2,4.54,1.63L15.28,23.8l4.35,1.31-.18,0,.2,0,5.47,1.65-3.76-.17-2-.24,1.38.22-7-.31,12,2.31-.87,0-6.58-.14,4.56.25L18.57,29l5.32.5-9.5.3,13,0,.26,0-7.6,1.07,9-.44-8.41,1.14-1.2.15-6.07.82,14-1.4-8,2,6.29-1L21.37,33.5l-2.63.62,1.74-.36L16,35.14l12.54-2.58-8.42,2.83,6.15-1.87L15.57,38l12.8-4-8.48,3.84L29.05,34l-8.17,4.38,1.21-.51-5.32,2.75,8.64-4.16,3.64-1.55-6.64,4.36,8.32-4.65-13.8,9,13.39-8.18-7.65,6.18,5.43-3.79-4.84,4.32-.86.69.59-.44-2.76,2.45,11.43-8.86-7.39,7.59L26.1,42l-5.17,5.61,8.88-8.39,2.12-2L25,45.81l3.78-3.88-1.18,1.61-1.67,2.18.51-.58-3.24,4.47,8.66-9.86-.29.48-3.81,5.7,1.85-2.38-5.13,8.72,8.21-11.4L28.89,48l3.45-5.44-4.48,9.37L34.07,41l.83-1.42-3.77,9.27,1.45-2.95-3,8.25,6.2-13.77L32.65,50.6,35,44.43l-.31,1.25-1.27,4.7.33-1-1.34,5.34L35.92,44l-1.53,6.7,1.93-5.43L34.56,56.62l2.61-11.57-.94,7.13,1.22-4.84-.78,9,1.07-5.27-.06.9.25-1.86,1.13-5.62.09,13.34,1.5-14.09.85,8.88.14-7.35L42.8,56.18,41.7,42.73l1.49,8.2-.52-8L45.5,57,43.07,43.13,45.4,51.5l-.75-4.71L47.36,55,45,43.47l1.85,4.24,1,2.63-.56-1.72,2.92,6.7L46.08,42.1l.62,1.12,3.41,7.18-2-4.56,2.12,3.86-1.71-4.21,4.26,8L47,41.52l4.32,7.17-5.85-11L55.64,53.09,48.4,41.31l5.19,7-4.78-7.23,7.95,9.71-5.31-7.24,3.13,3.9L48.26,39l6.2,6.42-1.63-2.2L59.5,49.9,49.6,38.82l-.47-.63,7.46,6.38-2.71-3,3.61,3-2-1.81,4.52,3.48-7.6-7.68,10,6.26-9.62-8L58,39.37l2,1.13-1.19-.73.79.4L54,36.36l9.82,4.92L52.44,35.1l7.75,3.13L49.61,33.39l-1.06-.73,7,2.68,4.78,1.84-.58-.24,6.11,2.32L53.5,34.05l8.36,2.43-8.91-3,12.83,3-4.4-1.25-6.91-2.14,6,1-6.92-1.87L67.51,34,53.75,31.6l8,.54-5.52-.9,9.19.14L61.58,31l1.29,0-3.17-.24L52.89,30l5.28-.46,3.19-.14-1.13,0,6.45-.57L52,28.69l10.28-1.52-3.81.27,3.41-.64-4.32.39,8.2-1.65L53.91,27l7.6-1.87-5.35.75,10.23-3.17L54.25,25.45,62,22.69l-6.2,1.53,9.39-3.9-7.28,2.21,2.44-1-6.92,2.2,11.91-6.42L58,20.39l2.45-1.29-8,3.46.09-.06,10.62-6.27-4.77,2.36,1.53-1-7,3.71-2.56,1.27,8.07-5.77-1.76,1,1.34-1-.56.35,5.34-3.92L50.14,21.22,58,14.36l-1.74,1.27,1.31-1.15-6.24,4.79L60,10.83l-8.64,7L55.13,14,49,19.87l6.16-7.16-.39.38L59.07,8l-8.31,8.26,3.51-4.48-5.85,6.8,5.71-8.1L52.05,13,55.54,8l-8.3,10.69-.39.46,5-8.93-1.93,2.89,1.36-2.35L50,12.85l4.18-7.28-8,12.67,4.39-10-1.73,3.22L50,8.89l-3.3,6.4L50.94,4.16,45.74,15l2.13-6.3-2.38,5.67L49,2,44.61,13.88,46.22,7.1l-2.14,6.8,1.4-7.47-.81,3,1.2-6.38-2.16,8.21L44.43,7l-1,5.5-1.29,4.9L42.7,11,43,7.5l0,.22.59-6.3L42.13,10.2l.34-4.5-.55,5.83L41,17v-.59l.4-14.72-.35,7.4,0-2.7-.57,7.36L40,7.12l.27,10-.16,2.05L40,18.83,39.31,6.72l.12,3.18Z" transform="translate(0.74 -0.44)"/><path id="path5660" class="cls-2" d="M58.65,30.39c0,10.61-8.16,19.22-18.22,19.22S22.2,41,22.2,30.39s8.16-19.22,18.23-19.22S58.65,19.78,58.65,30.39Z" transform="translate(0.74 -0.44)"/><g id="g5662"><path id="path5664" class="cls-3" d="M56.12,29.84c0,9.19-7.07,16.64-15.78,16.64S24.56,39,24.56,29.84s7.07-16.63,15.78-16.63S56.12,20.66,56.12,29.84Z" transform="translate(0.74 -0.44)"/><path id="path5666" class="cls-4" d="M55.08,29.84c0,8.46-6.5,15.31-14.52,15.31S26.05,38.3,26.05,29.84s6.5-15.3,14.51-15.3S55.08,21.39,55.08,29.84Z" transform="translate(0.74 -0.44)"/><path id="path5668" class="cls-5" d="M55.08,29.84c0,8.46-6.5,15.31-14.52,15.31S26.05,38.3,26.05,29.84s6.5-15.3,14.51-15.3S55.08,21.39,55.08,29.84Z" transform="translate(0.74 -0.44)"/></g></g><g id="snowy"><rect id="rect6735" class="cls-6" y="9.77" width="110" height="110"/><g id="g6506"><g id="g5564"><path id="path5566" class="cls-7" d="M55,58.42c1.78,2.36,5.79,2.25,8.74,1.83,1.76-.25,3.09-1.74,4.7-2.49A21.16,21.16,0,0,1,73,55.93c3.84-.8,11.76-.33,11.76-.33S74.64,58,74.53,54.6c0-1.41,2.8-.45,4.2-.67s4,2,4.37-.66-.5-2.33.51-2.67a20,20,0,0,0,2.52-1.16s-2.63-2.08-4-3c-1.23-.81-3.43-.77-3.86-2.17s.81-2.76,1.85-3.66c.8-.68,3.36-.33,3-1a10.34,10.34,0,0,0-2.35-3,17.42,17.42,0,0,0-5-2.16,25.31,25.31,0,0,0-5-1.33,25.82,25.82,0,0,0-4,0c-1.91,0-4-.44-5.72.33a8.71,8.71,0,0,0-4.2,4.16C53.78,43.94,50.84,52.85,55,58.42Z" transform="translate(0.74 -0.44)"/><path id="path5568" class="cls-7" d="M43.87,38.49c1.47-1.74,3.67-2.84,5-4.7.45-.63.49-1.49,1-2.12.63-.85,1.34-2.37,2.38-2.12,1.31.32.4,2.89,1.42,3.77a4.56,4.56,0,0,0,3.33.7c1-.09,2.33-.29,2.85-1.17.37-.61-.53-1.47-.24-2.12.22-.49-1.87-1,1.31-.94,1.14,0,3.07.94,4.63.82,1.38-.1,5.17-1.11,3.93-1.29,1,1.94-3,3.24-4.64,4.7-.67.6-2.36.78-2.14,1.65s1.89.56,2.85.47A9.53,9.53,0,0,0,68.82,35c1-.51,1.73-1.68,2.85-1.89s2,.52,3.09.71,2.54,1.08,3.57.47a2.38,2.38,0,0,0,1-2.59c-.29-.75-1.57-.6-2.14-1.17s-2-1.79-1.43-2.59c.88-1.23,3,.67,4.52.7.71,0,1.43-.36,2.14-.23.17,0,.42.07.47.23.26.88-1.34,1.45-1.42,2.36-.13,1.33,1.84,2.48,1.42,3.76-.35,1.08-1.79,1.45-2.85,1.88a32.49,32.49,0,0,1-3.56.71,45.94,45.94,0,0,0-5.71,2.11c-.65.29-2,.25-1.9,1,.2,1.68,3.28,1.27,5,1.17,2.1-.11,3.84-2.09,5.94-2.12a6.78,6.78,0,0,1,2.85,1c1.45.68,2.46,2.32,4,2.58s3.14-1,4.76-1.17c1.18-.15,2.59-.68,3.56,0s1.79,2.29,1.19,3.29C95,46.92,91.89,46,89.73,46c-1.83,0-4.89-2.43-5.46-.7-.51,1.53,2.73,1.83,4.27,2.35a15.59,15.59,0,0,0,6.18.94,14,14,0,0,0,2.85-.94c.56-.17,1.26-.88,1.67-.47.75.76-.22,2.27-.95,3.06-1,1.1-2.78,1.36-4.28,1.64a13.08,13.08,0,0,1-3.8,0c-1.78-.19-3.45-1-5.23-1.17a17.65,17.65,0,0,0-3.56,0,30.08,30.08,0,0,0-5,.94c-1.46.37-2.8,1.17-4.28,1.41-1.1.17-2.73.92-3.33,0-.7-1.1,2.3-2.39,1.66-3.53-.92-1.66-3.81-1-5.7-.71A10.7,10.7,0,0,0,60,51.2c-1.09.88-1.28,2.83-2.62,3.29-2.3.8-4.72-1.26-7.12-1.65-4.95-.8-12.8,3.06-15-1.41-2.25-4.64,5.23-9,8.56-12.94Z" transform="translate(0.74 -0.44)"/><path id="path5570" class="cls-8" d="M47.82,44.28l5,1,4,1.33,4,.34,3.36-.34a2.53,2.53,0,0,1,1.68-1c1.35-.33.68-.33,2-.66a28,28,0,0,0,3-1l1-.66s0-.67-1.68-1S68,39,68,39a5.22,5.22,0,0,0-3.7-.33c-1.68.66-3.36,2-5.37,2.33s-6-.67-6-.67l-3,2Z" transform="translate(0.74 -0.44)"/><path id="path5572" class="cls-9" d="M24.8,52.27l3.52-1.33,2.86,1.16a2.94,2.94,0,0,1,1.51-1.16c.84-.17,2.52.83,3.2.83s-3.7,0,2,.33,5.55,1,5.38.17-2.19-2.66.5-2.16l2.69.49,4-1L55,51.77l2,.17a18.66,18.66,0,0,1,3.86,1c.84.5,3.87.34.84.5s-2.52-1.16-4.2.5a8,8,0,0,1-4.37,2.5c-.84,0-2.69-.5-4.2-.5s-2.69-.33-3.36.16-1.17,1.83-2.52,1.5-5-1.33-5-1.33H36.39l-3-.66a1.72,1.72,0,0,0-1-1.17,15.91,15.91,0,0,0-3-.5l-2-.16Z" transform="translate(0.74 -0.44)"/><path id="path5574" class="cls-9" d="M54.37,44,64,45s3.53-1.83,4-1.66,3.36,1,3.36,1,3.7-.16,4.54-.33,6.72-.83,6.72-.83,4.37,2.33,5,2.33,8.91.83,8.91.83l10.75,1.66L97.05,49.27l-10.92-.33-5.72-.16-12.09,2-8.07-1.16-14,1.16Z" transform="translate(0.74 -0.44)"/><path id="path5576" class="cls-9" d="M40.09,51.6c1.5,2.07,5.2.5,7.73,0,1.42-.28,2.57-1.59,4-1.66s2.85,1.18,4.37,1.33a10.33,10.33,0,0,0,3.36-.33c1.76-.43,3.26-1.66,5-2a27.37,27.37,0,0,1,5,0,21.77,21.77,0,0,0,3.7,0c2-.34,3.72-1.66,5.71-2,1.32-.23,3.22,1.06,4,0,.49-.65,3.58-.6,2.89-1-1.24-.79-6.53-.17-7.93-.63-.9-.29-6.91.33-3.8-2.23-.72-4.14-5.18,4-9,3.9-1.56,0-4.38-.12-4.37-1.67,0-1.3,2.89-.3,3.7-1.33s1.06-2.47.34-3.33c-.87-1-2.71-.07-4-.33-3.23-.64-6.6-1.29-9.41-3-1.08-.66-1.42-2.69-2.69-2.66-2.29,0-3.53,3-4.7,5C42,43.24,37.6,48.19,40.09,51.6Z" transform="translate(0.74 -0.44)"/><path id="path5578" class="cls-10" d="M52.89,27.9c-2.63,0-3.29,5-5.92,5.19-1.21.1-1.9-1.78-3.1-1.89-4.64-.43-8.46,4.3-13.08,4.94-1.81.25-3.65-.83-5.45-.48-2.19.44-7.9.45-7.37,2.6.38,1.52,5.7-1,6.17.47s-2.93,1.33-3.79,2.6c-.41.59.1,1.65-.48,2.09-2.18,1.69-4.13.79-6.89,1.07s-9.44-2.16-9.51.58c0,1.39,2.75.64,4,1.2a7.5,7.5,0,0,1,2.39,1.39c.33.33.3,1,.71,1.18,2.25,1.17,5.08-.65,7.61-.48a23.63,23.63,0,0,1,5.7,1.2c2.65.88,4.95,2.65,7.61,3.52,1.15.37,2.86-.29,3.55.7.87,1.24-1.85,3.47-.7,4.46,1.43,1.24,3.58-1.36,5.47-1.64a19.58,19.58,0,0,1,5.46,0A22.55,22.55,0,0,1,50.52,58c1.42.55,2.63,1.54,4,2.12,2.75,1.13,5.62,3,8.56,2.59,2.2-.34,19.73-5.36,5.47-3.76-.41-2.5-1.77.53-7.38-2.12-1.36-.65-3.66,1-4.51-.25-.71-1,.32-2.62,1.18-3.52s3.21-.21,3.58-1.42c.28-.92-1-1.64-1.66-2.35C59,48.41,58.18,47.06,57,47c-1.56-.12-2.7,1.59-4.06,2.35a8.49,8.49,0,0,1-2.6,1.42C48.87,51,47,51.08,46,50s.06-3-.25-4.47c-.14-.65-1-1.28-.71-1.87.9-1.62,3.66-.72,5.47-1.17,3.12-.77,6.2-1.68,9.28-2.6,2.23-.66,2.62-1.3,6.65-2.12.61-1,7.4-1.78,6.4-2.46S63,34.71,61.69,35c-1.51.29-3,.69-4.51.95s-3.78,1.85-5,.7-.17-3.27.47-4.71c1.33-1.23,9.49,1.18.23-4Zm-29,18.72,2.62.34,3.2,1.18,1.89.6,1.56.7-.6.57L31,49.66l-2.27-.57L27,48l-2.39-1Z" transform="translate(0.74 -0.44)"/><path id="path5580" class="cls-8" d="M35.72,56.93c1.87.48,3.19,0,4.7,0s3-.23,4.37-.34a34.38,34.38,0,0,0,4-.33c1.41-.27,3.35-.55,4.37-1.33s2.33-1.33,1.68-2.66-4.25-.2-5.71-.67-1.79-1.14-3-1.66-3-1.47-4.37-1.33-2,1-3,1.66-1.48,2-3,2.66-5.62-1.43-6,.67,4.17,2.84,6,3.33Z" transform="translate(0.74 -0.44)"/><path id="path5582" class="cls-8" d="M71.34,40.29l4,1.67,2.69-1.67,2.69.67,3.7,1.66,3,1a3.19,3.19,0,0,1-2.35.33c-1.35-.33-4.37-.66-4.37-.66l-4.37,2-2.69-.66-2.35-1.33Z" transform="translate(0.74 -0.44)"/><path id="path5584" class="cls-11" d="M53,50.44l4.71-.33,3.36.66,5-.17,4.71-.66-4-.5s-2.52.17-3.53.33-3.69-.66-4.53-.66H56.22A8.44,8.44,0,0,0,53,50.44Z" transform="translate(0.74 -0.44)"/><path id="path5586" class="cls-12" d="M55.21,33l1.68-1,.5-1.49,1.68.5.68.33v2H58.4l-1.85,1.33Z" transform="translate(0.74 -0.44)"/><path id="path5588" class="cls-11" d="M70.67,48.78l4.7-.34,3.36.67,5-.17,4.71-.66-4-.5s-2.52.16-3.53.33-3.7-.67-4.54-.67H73.86a8.34,8.34,0,0,0-3.19,1.34Z" transform="translate(0.74 -0.44)"/><path id="path5590" class="cls-11" d="M65.63,35.3l4.7-.33,3.36.66,5-.16,4.71-.67-4-.5s-2.52.17-3.53.34S72.18,34,71.34,34H68.82a8.37,8.37,0,0,0-3.19,1.33Z" transform="translate(0.74 -0.44)"/><path id="path5592" class="cls-11" d="M51.18,56.59l4.7-.33,3.36.67,5-.17L69,56.09l-4-.49s-2.53.16-3.53.33-3.7-.67-4.54-.67H54.37a8.37,8.37,0,0,0-3.19,1.33Z" transform="translate(0.74 -0.44)"/><path id="path5594" class="cls-11" d="M11.86,50.11l4.7-.34,3.36.67,5-.17,4.71-.66-4-.5s-2.52.16-3.53.33-3.7-.66-4.54-.66H15.05a8.37,8.37,0,0,0-3.19,1.33Z" transform="translate(0.74 -0.44)"/><path id="path5596" class="cls-13" d="M30.84,42.29l2.69-1.67,1.85.17,3-1H42.1L45,39.46l-1.51,2.16-2.69-.5-3.19.67-2.86,1Z" transform="translate(0.74 -0.44)"/></g><path id="path6386" class="cls-14" d="M43.08,80.34c-.21.13-.14.14-.65-.08L41.9,80c-.1,0-.15,0-.3,0l-.13.06.09.06.22.15c.14.08.58.37.61.4s0,0,0,.08l0,.07-.11.07a.34.34,0,0,1-.18.07,1.55,1.55,0,0,1-.49-.14l-.33-.14a4.24,4.24,0,0,1-.51-.21c-.08,0-.08,0-.21,0s-.16.09-.1.09l.11.07a2.13,2.13,0,0,0,.25.17l.15.11-.29.15-.29.14a1.05,1.05,0,0,0,.26.22l.63-.11c.83-.15.81-.14.92-.08s.14.11.11.19-.12.11-.51.25l-.48.18-.06,0a1.07,1.07,0,0,0,.27.25l.16,0,.28-.05.49-.1a.35.35,0,0,1,.34.06s.06.06,0,.11-.08.16-.44.29l-.35.14.21.19c.25.23.27.27.28.42v.12l-.12.07c-.2.11-.19.11-.46-.06a1.17,1.17,0,0,0-.25-.14s0,.17,0,.37V84l0,.07-.06.07-.11,0c-.14,0-.18-.07-.19-.11s-.06-.35-.1-.58c-.08-.57-.07-.55-.14-.6a.74.74,0,0,0-.19-.13s0,.19,0,.44c0,.67,0,.61-.07.7l-.06.08-.12,0c-.09,0-.12,0-.15-.11a11.27,11.27,0,0,1-.23-1.19c-.06-.33-.06-.35-.15-.39L40,82.06l-.06,0v.51c0,.1,0,.17,0,.18s-.16-.07-.41-.26l-.15-.09a1.43,1.43,0,0,0,0,.26.15.15,0,0,0,0,.11.79.79,0,0,1,.12.13,1.14,1.14,0,0,0,.15.17l.14.14.26.3c.34.36.34.36.31.55s0,.08-.1.11a.21.21,0,0,1-.13,0,2,2,0,0,1-.55-.39,2.3,2.3,0,0,0-.31-.24s0,0,0,.06,0,.12,0,.18,0,.12,0,.16a1.08,1.08,0,0,1,.14.15l.16.19c.16.17.39.44.42.48a.42.42,0,0,1,0,.27s-.21.13-.21.11a0,0,0,0,0,0,0,3.15,3.15,0,0,1-.41-.34l-.19-.17v.08s0,.16,0,.28a1.24,1.24,0,0,1,0,.24.85.85,0,0,1-.27.18s-.1,0-.23-.14l-.08-.07v-.6l-.22.11-.26.15-.12.07c-.07.05-.08.05-.18,0s-.17-.06-.16-.19,0-.09.46-.51l.38-.33.1-.1v-.19c0-.11,0-.2,0-.2l-.08,0-.17.11-.39.23L37.5,84h-.1c-.12,0-.14,0-.15-.17s0-.09,0-.11l.12-.11.15-.14c.09-.07.85-.77.88-.8a.82.82,0,0,0,0-.18c0-.15,0-.16,0-.16l-.12,0c-.08.05-.41.2-.43.21a2.53,2.53,0,0,1,0-.59c0-.07,0-.07,0-.07a.55.55,0,0,0-.28.11s-.13.37-.25.77l-.24.73-.12.06-.11,0-.09-.09c-.09-.08-.09-.08-.08-.19s0-.18,0-.26l.09-.42a2.63,2.63,0,0,0,0-.29,1.44,1.44,0,0,0-.32.12,1.14,1.14,0,0,0-.1.23c0,.12-.08.23-.08.25a3.35,3.35,0,0,0-.11.34c-.1.3-.15.41-.2.41l-.08,0s-.06,0-.14,0-.09-.09-.09-.14,0-.29.08-.5a.62.62,0,0,0,0-.24s-.06,0-.11,0l-.12,0-.14.07a.58.58,0,0,1-.17.06,1,1,0,0,1-.3-.08l-.08,0,0-.13c0-.16,0-.22.12-.25a.34.34,0,0,0,.11-.07l.2-.12a.44.44,0,0,0,.14-.09l0,0-.5-.29a.4.4,0,0,1-.18-.21c0-.1,0-.1.12-.19a.2.2,0,0,1,.2,0l.14,0,.17.06.41.16a1.69,1.69,0,0,0,.32.11.93.93,0,0,0,.33-.17,3.79,3.79,0,0,0-.66-.38c-.28-.14-.31-.16-.34-.23s0-.14.09-.21.17-.08.44,0,.16,0,.17,0,.07,0,.06,0,0,0,0,0l.08,0,.44.16a2.51,2.51,0,0,0,.46.14c.13,0,.32-.19.23-.19L37.4,81a2.21,2.21,0,0,0-.26-.19c-.08-.06-.15-.11-.14-.13s0,0,.07,0l.54-.23s0,0-.06-.11l-.16-.13c-.08,0-.13,0-1.13.18l-.4.07a.46.46,0,0,1-.16-.06c-.09,0-.11-.07-.1-.11a.2.2,0,0,1,.16-.17l.15-.07L36,80s0,0,0,0,0,0,0,0,.07,0,.13,0l.3-.11.18-.08a1.18,1.18,0,0,0-.25-.23.15.15,0,0,0-.15,0c-.14,0-.3.06-.64.16s-.41.11-.5.07-.15-.08-.12-.19,0-.11.47-.29l.3-.13s0-.07-.26-.24-.22-.2-.22-.41v-.17l.11,0c.27-.07.28-.07.47,0a1.1,1.1,0,0,1,.27.17l0,0v-.73l.09-.1c.1-.11.14-.13.23-.08s.11.11.14.31.13.76.16.9,0,.08.15.14l.16.11a5.58,5.58,0,0,0,0-.85V78l.1-.11c.12-.13.16-.14.28-.08s.1.1.14.36.06.37.13.76.08.49.1.52l.13.09c.14.08.15.08.14.06s0-.09,0-.19,0-.22,0-.29a.71.71,0,0,1,0-.14s.12,0,.33.17.21.15.22.13a.88.88,0,0,0,0-.14c0-.11,0-.13,0-.18a1,1,0,0,1-.11-.15l-.21-.28-.3-.41-.19-.25a.26.26,0,0,1-.07-.28l0-.11H38c.17,0,.19,0,.58.39l.32.29A.7.7,0,0,0,39,78a.35.35,0,0,0,0-.32.11.11,0,0,1,0-.07s-.1-.19-.22-.4a3.72,3.72,0,0,1-.23-.45.24.24,0,0,1,0-.16c0-.09,0-.1.1-.11a.29.29,0,0,1,.25,0s.2.23.39.47c0,0,.07.07.08.06s0-.11.08-.22c.11-.32.1-.31.38-.4l.11,0,.1.11a.79.79,0,0,1,.12.16.52.52,0,0,1,0,.21l-.07.22,0,.11s0,0,0,0l.18,0,.14,0h.06l.19-.05.16,0,.06.08a.28.28,0,0,1,.06.3c0,.12-.05.14-.15.15l-.18.06a4.5,4.5,0,0,1-.7.24s0,0-.06.16a.43.43,0,0,0,0,.17s0,0,.08,0l.6-.3c.18-.08.23-.1.29-.09a.17.17,0,0,1,.17.16c0,.12,0,.17-.14.26l-.53.37c-.46.33-.56.41-.59.49a1.11,1.11,0,0,0,0,.19v.1l.07,0,.12,0,.21-.1.18-.07s0,.08,0,.18,0,.18,0,.29a.65.65,0,0,0,0,.21.67.67,0,0,0,.29-.1.68.68,0,0,0,.12-.24.81.81,0,0,1,0-.14c.05-.1.18-.43.32-.78s.12-.3.23-.34.17,0,.23,0,.08.13,0,.46c0,.15-.07.3-.08.34a.86.86,0,0,1,0,.18c-.05.19,0,.2.09.15l.13-.06a2,2,0,0,0,.21-.48l.13-.32.06-.16c0-.11.06-.13.14-.17s.2-.07.28,0,.08.07,0,.49-.08.35,0,.34L42.5,79l.25-.07A.55.55,0,0,1,43,79l.06,0,0,.12c0,.12-.08.22-.13.22l-.11,0-.23.12-.14.08.32.22c.32.2.34.23.38.38s0,.06-.06.09Z" transform="translate(0.74 -0.44)"/><path id="path6388" class="cls-14" d="M53.59,78c0-.16-.05-.12.23-.37l.28-.26c.06,0,.07-.07.07-.19v-.09l-.06,0-.15.1-.41.26h-.11v-.08a.28.28,0,0,1,0-.13,1.44,1.44,0,0,1,.22-.26l.18-.16a2.74,2.74,0,0,1,.26-.25s0,0,0-.13,0-.13,0-.09,0,0-.07,0l-.17.1c-.06,0-.1.07-.11.06v-.21a.88.88,0,0,0,0-.22.63.63,0,0,0-.2.1s0,.2-.11.41c-.14.54-.14.54-.21.58s-.1.06-.13,0,0-.11,0-.38,0-.3,0-.34,0,0,0,0a.62.62,0,0,0-.22.1s0,.05,0,.1l0,.18a2.61,2.61,0,0,0-.08.33.23.23,0,0,1-.13.19s-.05,0-.08,0-.07-.09-.05-.35,0-.24,0-.24l-.18.07c-.2.09-.23.09-.33,0l-.07,0v-.09c0-.15,0-.15.16-.26l.15-.11L52,76.34l-.21-.1,0-.06,0-.05.05-.06c.07-.07.09-.09.12-.08l.37.1c.36.1.35.1.4.07l.13-.07a2.67,2.67,0,0,0-.26-.13c-.41-.18-.37-.16-.4-.23l0-.06,0-.06c.05,0,.07-.06.11-.06a6.32,6.32,0,0,1,.77.18c.22.06.23.06.28,0l.09-.06,0,0-.13-.07-.16-.08c-.07,0-.1,0-.1-.07s.08-.08.26-.18l.09-.06-.14-.1a.09.09,0,0,0-.07,0l-.11,0-.14,0-.13,0-.25.09c-.31.1-.31.1-.42,0a.08.08,0,0,1,0-.09.24.24,0,0,1,0-.09,1.73,1.73,0,0,1,.39-.22,1.3,1.3,0,0,0,.23-.13.07.07,0,0,0,0,0l-.11-.05c-.06,0-.07,0-.1,0l-.13,0-.16,0a2.39,2.39,0,0,1-.4.12.25.25,0,0,1-.16-.08s0-.17,0-.16h0a1.33,1.33,0,0,1,.31-.16l.15-.07,0,0L52,74.31a.48.48,0,0,1-.13-.09.49.49,0,0,1,0-.21s.05-.05.15-.1l.06,0,.18.08.18.09a1.47,1.47,0,0,0,0-.16,1.8,1.8,0,0,0,0-.2.38.38,0,0,0,0-.1s0-.06,0-.12.08-.08.15,0,.06,0,.18.42c0,.13.08.27.09.32l0,.09.12.06.11.05s0,0,0-.07a.69.69,0,0,0,0-.13s0-.18,0-.3l0-.22,0-.06c0-.06.07-.07.15,0s0,0,0,0,0,.06,0,.11a.38.38,0,0,1,0,.13c0,.07.23.73.24.75a.32.32,0,0,0,.1.07c.09,0,.09,0,.1,0a.19.19,0,0,0,0-.08c0-.07,0-.31,0-.32a1.35,1.35,0,0,1,.34.18s0,0,.06,0a.46.46,0,0,0,0-.2l-.39-.37-.37-.34v-.17l.07,0c.08,0,.08,0,.14,0l.14.1.23.17.16.1a1.38,1.38,0,0,0,0-.22s0-.07-.11-.13l-.13-.12-.17-.16c-.16-.14-.21-.2-.2-.23s0,0,0-.06,0,0,.07-.07.08,0,.11,0a2.38,2.38,0,0,1,.27.18c.08.06.13.1.14.09a.28.28,0,0,0,0-.08v-.08s0,0,0-.1a.47.47,0,0,1,0-.12.5.5,0,0,1,.14-.16l0,0,.08,0c.08,0,.11.08.11.14a.31.31,0,0,0,0,.09s0,.1,0,.15a.63.63,0,0,0,0,.11l0,0,.31-.22a.25.25,0,0,1,.18,0c.06,0,.06,0,.07.12s0,.07,0,.13S55,73,55,73s0,0-.08.08a2.06,2.06,0,0,1-.21.21l-.15.17a.47.47,0,0,0,0,.24s.11-.06.4-.3.19-.14.24-.14.09,0,.09.12,0,.12-.12.26-.07.08-.06.1,0,.06,0,0,0,0,0,0l0,0s-.11.11-.22.22a1.5,1.5,0,0,0-.21.24c0,.09,0,.25,0,.19l.09,0L55,74.3c.06,0,.11-.06.11,0s0,0,0,.06,0,.36,0,.39,0,0,.08,0l.12-.06c.05,0,.06-.07.21-.73a1.65,1.65,0,0,1,.06-.27.59.59,0,0,1,.08-.08c.06,0,.07,0,.09,0s.07.08.06.14v.12a.22.22,0,0,1,0,.08s0,0,0,0,0,0,0,0a.41.41,0,0,0,0,.09,1.62,1.62,0,0,1,0,.21v.14l.21-.09a.17.17,0,0,0,.06-.08c0-.09,0-.2.08-.43s0-.28.1-.33.08-.07.14,0,.06,0,0,.37V74s0,0,.21-.1.19-.08.31,0l.1,0L57,74c0,.18,0,.19-.15.27a.88.88,0,0,1-.17.12l0,0,.21.1.22.09,0,.08c0,.1,0,.13,0,.16s-.09,0-.22,0l-.58-.15s-.06,0-.13,0l-.1.07a3.46,3.46,0,0,0,.51.21l.07,0,0,.09c.05.11,0,.13,0,.19s-.08,0-.25,0l-.49-.14c-.32-.08-.31-.08-.34-.07l-.09,0c-.08.06-.08.07-.07.07l.11.06.16.1.08,0s0,.07-.19.15-.15.09-.14.1l.08,0c.06,0,.07,0,.11,0l.12,0,.23-.05.32-.07.21,0a.15.15,0,0,1,.18,0l.06,0,0,.08c0,.1,0,.11-.39.24a1.75,1.75,0,0,0-.26.12s0,0,.06.06a.22.22,0,0,0,.2.07h.06l.3,0a2.08,2.08,0,0,1,.33,0,.12.12,0,0,1,.09.06s0,0,0,.09,0,.11-.1.13l-.38.11s-.06,0-.05,0l.1.11c.16.16.16.15.13.34v.08l-.09,0-.13,0-.11-.08L56.35,77l-.05,0s0,0,0,0a.57.57,0,0,1,0,.12l0,.09a.11.11,0,0,1,0,0s0,.07,0,.13l0,.1-.07,0a.19.19,0,0,1-.2,0c-.06-.06-.06-.07-.05-.13a.51.51,0,0,0,0-.13,2.24,2.24,0,0,1,0-.49s0,0-.08-.08l-.1,0s0,0,0,.06,0,.27,0,.45,0,.16,0,.19-.08.08-.15.06-.09,0-.11-.15,0-.24-.08-.43c-.07-.37-.09-.45-.13-.49l-.1-.06-.07,0v0a.14.14,0,0,1,0,.09v.28s-.06,0-.11,0l-.17-.11-.12-.08a.62.62,0,0,0,0,.2.53.53,0,0,0,.11.14l.07.07.38.41c.14.15.15.16.14.23s0,.12-.08.14-.1,0-.28-.13l-.17-.14-.1-.07c-.1-.09-.11-.09-.11,0s0,.09,0,.09.06.1.22.26l.16.17.08.08c0,.06.06.07.06.13s0,.14-.09.17-.06,0-.28-.15-.19-.15-.2-.11l0,.16a1.59,1.59,0,0,1,0,.17.39.39,0,0,1-.15.13l0,0-.07,0c-.06,0-.1-.11-.09-.14s0,0,0-.08a1.09,1.09,0,0,0,0-.17c0-.06,0-.11,0-.11L54,78c-.21.14-.23.15-.34.13s0,0,0-.06Z" transform="translate(0.74 -0.44)"/><path id="path6390" class="cls-14" d="M51.35,63.59c-.05.1,0,.09-.27.14l-.26.05s-.07,0-.11.09l0,.06h.5l0,0,0,0,0,0a.16.16,0,0,1,0,.08.71.71,0,0,1-.22.07l-.16,0-.25.06s0,0-.07.06,0,.07,0,.06,0,0,.06,0h.22a.81.81,0,0,1-.07.14c0,.06-.08.12-.07.12l.15,0,.21-.21c.27-.27.27-.27.33-.27s.08,0,.08,0,0,.07-.12.23l-.14.19a.08.08,0,0,0,0,0,.51.51,0,0,0,.17,0s0,0,0-.05l.09-.1a1.25,1.25,0,0,0,.16-.17.15.15,0,0,1,.14-.06s0,0,.05,0,0,.08-.09.22a.84.84,0,0,0-.1.15l.13,0c.15,0,.17,0,.21.08l0,0,0,.06c0,.09,0,.09-.19.1h-.13l.09.15.09.14v.08l0,0c-.07,0-.09,0-.1,0a2,2,0,0,1-.19-.2c-.18-.19-.17-.18-.21-.18s-.1,0-.1,0a.67.67,0,0,0,.11.16c.18.26.16.23.16.28v0l0,0c-.05,0-.06,0-.09,0a3.33,3.33,0,0,1-.39-.38c-.11-.11-.12-.12-.16-.11H50.6l.06.09.07.11s0,.06,0,.07a.61.61,0,0,1-.22,0h-.07a.76.76,0,0,0,0,.11l.05,0,.08,0,.09,0,.1,0,.17,0c.22,0,.22.05.26.12a.06.06,0,0,1,0,.07s0,0,0,0a.71.71,0,0,1-.31,0h-.18s0,0,0,0l0,.07s0,0,.06,0l.09,0L51,66l.28.07a.24.24,0,0,1,.06.11.46.46,0,0,1,0,.1h0s-.06,0-.24,0l-.11,0v0a1.29,1.29,0,0,0,.06.12.43.43,0,0,0,0,.1.59.59,0,0,1-.06.14h-.17l-.08-.12a1.16,1.16,0,0,0-.07-.11s0,0-.06.1l-.06.12a.21.21,0,0,1,0,.06s0,0-.06.06-.08,0-.11,0,0,0,0-.31c0-.09,0-.19.06-.23v-.06L50.44,66a.3.3,0,0,0,0-.07l0,0,0,.09-.08.19-.06.14,0,0s-.06,0-.1,0,0,0,0,0a.15.15,0,0,0,0-.08.37.37,0,0,0,0-.09s.12-.51.13-.53a.28.28,0,0,0,0-.08c0-.06,0-.06,0,0s0,0,0,0l-.11.19a.93.93,0,0,1-.14-.23s0,0,0,0a.26.26,0,0,0-.08.11s.05.17.11.36l.1.34,0,0,0,0h-.06c-.05,0-.05,0-.08-.05a.54.54,0,0,0,0-.11l-.08-.18L49.55,66a.73.73,0,0,0-.1.13,1,1,0,0,0,0,.11,1.1,1.1,0,0,0,0,.11,1.07,1.07,0,0,0,.05.16c0,.14,0,.2,0,.21l0,0s0,0-.07,0,0,0-.07,0a1.79,1.79,0,0,1-.09-.21.69.69,0,0,0-.05-.1l0,0a.14.14,0,0,1,0,0l0,.06a.21.21,0,0,1,0,.07l-.14,0h0l0,0c0-.06,0-.09,0-.13l0,0,0-.1,0-.07h0l-.26,0a.21.21,0,0,1-.12,0s0,0,0-.11,0,0,.06-.06l.07,0,.08,0L49,66l.15,0s.09-.14.08-.15a1.58,1.58,0,0,0-.35,0c-.14,0-.16,0-.19,0s0,0,0-.1,0-.07.16-.11.07,0,.07,0,0,0,0,0,0,0,0,0h0l.21-.06a.6.6,0,0,0,.2-.07s.07-.15,0-.13a.16.16,0,0,1-.07,0h-.23a0,0,0,0,1,0,0l.15-.23s0,0-.06,0h-.09s0,0-.38.36a.7.7,0,0,1-.13.13l-.08,0s0,0-.06,0a.11.11,0,0,1,0-.11l0-.06,0,0a0,0,0,0,0,0,0h0s0,0,0,0a.62.62,0,0,1,.08-.12s0-.08,0-.08l-.15,0s0,0-.06,0l-.2.23c-.13.15-.13.15-.17.16s-.08,0-.1,0,0-.05.11-.23l.07-.13s0,0-.16,0a.2.2,0,0,1-.19-.1l0-.06,0,0c.08-.1.09-.1.18-.11h.17a1,1,0,0,0-.1-.14l-.09-.14v0c0-.07,0-.09.07-.1s.07,0,.13.08l.3.3h.18s-.16-.22-.23-.31l0,0v-.07c0-.08,0-.09.09-.1s.06,0,.14.09l.24.26c.17.17.16.16.18.16h.07c.07,0,.08,0,.07,0l0-.08a1.05,1.05,0,0,0-.07-.11.3.3,0,0,0,0-.06s.05,0,.17,0,.12,0,.12,0a.33.33,0,0,0,0-.06s0,0-.06-.06l-.08,0-.15-.05-.22-.07-.14,0a.11.11,0,0,1-.09-.08l0,0,0,0c.06,0,.08-.05.32,0l.19,0s0,0,0-.06-.05-.1-.09-.11l0,0-.19-.09-.2-.11a.24.24,0,0,1,0-.07s0,0,0-.06a.14.14,0,0,1,.11-.05l.26.07h0a.65.65,0,0,0,0-.1c0-.15,0-.14,0-.25l0,0h.07l.09,0s0,.05,0,.09,0,.09,0,.1l0,0s0,0,0,0l.06-.07,0-.05v0l.07-.06,0-.06h0a.13.13,0,0,1,.1.1c0,.06,0,.07,0,.1l-.05.07a1.72,1.72,0,0,1-.2.27s0,0,0,.08l0,.06s0,0,0,0l.15-.27c0-.08.06-.1.08-.11a.09.09,0,0,1,.11,0s0,.06,0,.13l-.1.28c-.09.25-.11.3-.09.34a.13.13,0,0,0,0,.07l0,0v0l0,0,.06-.09,0-.08s0,0,.06.06l.06.12,0,.09a.53.53,0,0,0,.09-.11.43.43,0,0,0,0-.12l0-.07s0-.21-.08-.38,0-.14,0-.18.05-.06.09-.06.07,0,.12.18.05.13.06.14l0,.08c0,.09,0,.09.07,0s0-.05,0-.05a1.32,1.32,0,0,0-.05-.24.9.9,0,0,1,0-.15s0,0,0-.08a.11.11,0,0,1,0-.1c0-.06.05-.08.11-.06s.05,0,.12.18.06.16.07.14l.07-.09.07-.09a.21.21,0,0,1,.14,0h0l0,0a.12.12,0,0,1,0,.12l0,0,0,.1,0,.07h.17c.18,0,.19,0,.25,0s0,0,0,.05Z" transform="translate(0.74 -0.44)"/><path id="path6394" class="cls-14" d="M45.45,95c-.13-.19-.14-.13,0-.64.09-.25.17-.49.19-.53s0-.15,0-.29l-.06-.13,0,.09-.13.23-.34.62-.08,0-.06,0-.08-.1a.26.26,0,0,1-.08-.18,2,2,0,0,1,.1-.48l.11-.34c.08-.26.11-.34.17-.51s0-.08,0-.2-.1-.15-.1-.09a.3.3,0,0,1-.06.11c0,.06-.1.17-.14.26a.85.85,0,0,1-.1.15,1.56,1.56,0,0,1-.16-.28,2.29,2.29,0,0,0-.15-.27.79.79,0,0,0-.19.27s.06.29.14.61c.2.8.19.78.14.89s-.1.15-.17.12-.12-.11-.28-.48-.18-.4-.21-.45,0-.06,0-.06a1.24,1.24,0,0,0-.22.28l0,.15.07.27c0,.19.08.32.12.48a.31.31,0,0,1,0,.33c0,.05,0,.06-.1.05s-.16-.07-.31-.42l-.15-.32a1.25,1.25,0,0,0-.18.21c-.2.26-.23.29-.38.3h-.12l-.07-.11c-.12-.19-.12-.18,0-.45L42.6,94a1.86,1.86,0,0,0-.36,0l-.36,0-.07,0-.07-.06,0-.1c0-.14.06-.18.1-.2l.55-.13c.54-.12.51-.11.56-.18a1.3,1.3,0,0,0,.12-.19,2.71,2.71,0,0,0-.43,0c-.65.06-.58.06-.68,0L41.9,93l0-.12c0-.09,0-.12.1-.15a9.86,9.86,0,0,1,1.12-.31c.32-.08.34-.08.37-.17a1,1,0,0,1,.08-.14l0-.06h-.49c-.09,0-.16,0-.17,0s.05-.16.21-.42a.84.84,0,0,0,.08-.14.64.64,0,0,0-.25,0,.12.12,0,0,0-.1,0,.67.67,0,0,1-.12.12l-.15.16-.13.14-.26.29c-.33.35-.33.35-.52.33s-.07,0-.11-.09a.35.35,0,0,1,0-.12,2.29,2.29,0,0,1,.35-.57c.11-.16.21-.31.21-.32s0,0-.07,0h-.17c-.1,0-.11,0-.15,0l-.14.15a1.25,1.25,0,0,0-.16.17c-.16.17-.4.41-.44.44a.46.46,0,0,1-.26,0s-.14-.19-.12-.2a0,0,0,0,0,0,0,2.08,2.08,0,0,1,.29-.42l.15-.2H41l-.27,0-.23,0a.7.7,0,0,1-.19-.26s0-.1.11-.23l.06-.09h.29l.29,0-.12-.2-.16-.25a.59.59,0,0,0-.08-.11c-.05-.07-.05-.08,0-.18s0-.17.17-.17.09,0,.52.42c.14.14.29.3.35.35l.1.09H42a.47.47,0,0,0,.19,0,.19.19,0,0,0-.05-.08l-.11-.16c0-.06-.15-.22-.26-.36l-.19-.26v-.1c0-.12,0-.14.15-.16s.09,0,.11,0a1.08,1.08,0,0,0,.11.11,1.82,1.82,0,0,1,.14.14c.08.08.8.78.84.8s.09,0,.17,0,.15,0,.15,0a.18.18,0,0,0-.05-.11c0-.08-.22-.4-.22-.41a2.2,2.2,0,0,1,.56,0c.07,0,.07,0,.07,0a.58.58,0,0,0-.13-.26l-.76-.2L42,89.45,42,89.33l-.06-.11.07-.09c.08-.09.08-.09.19-.09l.25,0,.41.06a2.26,2.26,0,0,0,.28,0,2.5,2.5,0,0,0-.14-.3.67.67,0,0,0-.23-.08l-.24-.07-.34-.08c-.29-.08-.4-.12-.41-.17a.17.17,0,0,0,0-.07c0-.05,0-.06,0-.15s.08-.09.13-.09a3,3,0,0,1,.48.05l.24,0s0-.06,0-.11a.62.62,0,0,0,0-.11.57.57,0,0,0-.07-.13.87.87,0,0,1-.07-.17.72.72,0,0,1,.06-.3l0-.07h.13c.15,0,.21,0,.24.1a.76.76,0,0,0,.08.11.87.87,0,0,1,.13.19.36.36,0,0,0,.09.12s0,0,0,0,.22-.46.25-.51a.35.35,0,0,1,.19-.19c.09,0,.09,0,.18.11a.23.23,0,0,1,0,.2c0,.06,0,.12,0,.13a.94.94,0,0,0,0,.17c0,.08-.08.27-.13.41s-.08.29-.08.32a1.1,1.1,0,0,0,.18.31s.11-.17.32-.67c.12-.28.14-.31.21-.35s.12,0,.2.08.08.16,0,.43,0,.16,0,.17,0,.07,0,.06-.05,0-.05,0a.19.19,0,0,0,0,.07s-.07.23-.13.45a2,2,0,0,0-.09.45c0,.13.2.3.19.22a.57.57,0,0,1,.07-.13l.16-.27a.67.67,0,0,1,.11-.15.21.21,0,0,1,.05.07l.26.51s0,0,.1-.06a.94.94,0,0,0,.11-.17c0-.08,0-.12-.24-1.09,0-.18-.1-.36-.1-.39a.47.47,0,0,1,.05-.16c0-.09.06-.1.09-.1s.14,0,.18.14l.07.15a.54.54,0,0,1,.05.11s0,.05,0,.05h0s0,.07,0,.13l.13.28a.89.89,0,0,0,.09.17,1.25,1.25,0,0,0,.21-.25.19.19,0,0,0,0-.15,5.65,5.65,0,0,0-.19-.61c-.14-.39-.14-.4-.11-.49s.07-.16.18-.13.1,0,.31.44c.07.15.14.28.14.29s.07,0,.22-.27.17-.24.38-.25H47l0,.11c.08.25.08.27,0,.45l-.13.28s0,0,0,0l.36,0,.35,0,.1.08c.11.09.13.13.09.22s-.1.12-.29.16l-.85.22s-.07.05-.13.16l-.09.16a4.78,4.78,0,0,0,.81-.09l.11,0,.12.09c.13.11.15.15.09.27s-.08.11-.33.16l-.72.17c-.48.12-.47.12-.49.14a.51.51,0,0,0-.08.14c-.07.14-.07.14,0,.14a1,1,0,0,1,.18,0h.42s0,.12-.14.33-.13.22-.11.23h.14c.1,0,.12,0,.16-.05l.14-.11.26-.22.37-.32.23-.21a.25.25,0,0,1,.26-.08l.11,0v.12c0,.16,0,.18-.33.59a2.11,2.11,0,0,0-.25.33l.12,0a.35.35,0,0,0,.3-.06l.07,0,.37-.24.42-.26a.4.4,0,0,1,.15,0c.09,0,.1,0,.11.1a.25.25,0,0,1,0,.24,5.12,5.12,0,0,1-.42.42s-.06.06-.05.07l.21.07c.32.09.31.08.41.35l0,.1-.1.11c-.06.06-.12.12-.15.12a.55.55,0,0,1-.2,0l-.22,0-.1,0s0,0,0,0,0,.11.06.18a.7.7,0,0,0,0,.13.17.17,0,0,0,0,.05.88.88,0,0,0,0,.19l0,.15-.07.07a.27.27,0,0,1-.29.08c-.12,0-.14,0-.16-.14a.77.77,0,0,0-.07-.17,4.45,4.45,0,0,1-.27-.67s0,0-.16,0h-.17a.27.27,0,0,0,0,.08l.32.57c.1.17.12.21.11.27s-.05.16-.14.18-.16,0-.26-.12l-.39-.49c-.35-.43-.43-.52-.51-.54h-.18l-.1,0,0,.06a.64.64,0,0,1,.06.11,1.52,1.52,0,0,0,.11.2c0,.09.08.16.08.17s-.07,0-.17,0l-.28,0h-.21a.81.81,0,0,0,.12.28.87.87,0,0,0,.24.1l.14,0c.1,0,.42.15.76.25s.3.1.34.21,0,.16,0,.23-.13.08-.45,0l-.32-.05-.18,0c-.19,0-.19,0-.14.09l.07.13a1.6,1.6,0,0,0,.47.17l.32.1.16,0a.26.26,0,0,1,.17.13c.08.13.08.19,0,.27s-.06.08-.47,0-.34-.06-.32,0a1.26,1.26,0,0,0,.08.23,1.08,1.08,0,0,1,.09.23.56.56,0,0,1-.1.28l0,.06-.12,0c-.11,0-.21-.07-.21-.11l-.06-.1-.13-.22c0-.08-.08-.14-.09-.13s-.09.14-.18.32c-.18.33-.2.35-.35.4s0,0-.09,0Z" transform="translate(0.74 -0.44)"/><path id="path6396" class="cls-14" d="M50.05,86c.12-.14.07-.13.48-.09l.43,0c.08,0,.12,0,.21-.09l.08-.07-.08,0L51,85.7l-.53-.14-.05,0,0,0,.06-.07a.32.32,0,0,1,.11-.1,1.49,1.49,0,0,1,.38,0l.27,0a3.49,3.49,0,0,1,.41,0c.06,0,.07,0,.14-.07s.09-.1.05-.09-.05,0-.09,0l-.22-.06-.13,0a1.66,1.66,0,0,1,.18-.17l.17-.17a.59.59,0,0,0-.24-.09l-.42.22c-.55.3-.54.29-.64.27s-.12,0-.11-.1,0-.11.3-.31l.29-.23s0,0,0,0a.8.8,0,0,0-.25-.11l-.11.06-.18.1-.33.19a.26.26,0,0,1-.25,0s-.06,0-.06-.07,0-.14.25-.31l.21-.18a.82.82,0,0,0-.19-.09c-.23-.1-.26-.12-.3-.23l0-.09.07-.07c.12-.13.11-.13.34-.07a.73.73,0,0,0,.21,0,2,2,0,0,0-.07-.27l-.08-.26,0-.07,0-.06h.08c.11,0,.15,0,.17,0l.2.39c.19.38.18.37.24.39l.16,0a2,2,0,0,0-.1-.31c-.16-.48-.15-.43-.11-.52l0-.07H51a.17.17,0,0,1,.13,0s.2.33.44.79c.12.23.12.24.2.25a.23.23,0,0,1,.11,0l.06,0,0-.17c0-.09-.05-.18-.06-.2s0-.12,0-.13.13,0,.35.08l.12,0a.68.68,0,0,0,0-.19s0,0-.06-.07L52,83.36l-.15-.09-.13-.07-.26-.14c-.32-.18-.32-.18-.35-.33s0-.06.05-.09a.16.16,0,0,1,.09,0,1.58,1.58,0,0,1,.48.15,2,2,0,0,0,.28.1v0l0-.13c0-.08,0-.09-.06-.11l-.13-.07-.16-.1c-.16-.08-.38-.22-.41-.24a.35.35,0,0,1,0-.2s.12-.14.13-.13,0,0,0,0l.37.14.17.08V82a1.58,1.58,0,0,1,0-.21,1.5,1.5,0,0,1,0-.18.62.62,0,0,1,.16-.2s.07,0,.19,0l.07,0,.07.21a1.91,1.91,0,0,0,.07.22l.12-.14.16-.16a.25.25,0,0,1,.07-.08s0-.06.12-.07.13,0,.16.1,0,.06-.22.47l-.19.33-.05.09,0,.14a.36.36,0,0,0,0,.14l0-.06.1-.11L53,82.3l.15-.2h.08c.08,0,.11,0,.14.08s0,.07,0,.09l-.06.11s-.06.1-.07.13-.43.75-.44.78a.28.28,0,0,0,0,.14c0,.11,0,.11.05.1l.08-.06.25-.24a1.27,1.27,0,0,1,.11.42s0,0,0,0a.41.41,0,0,0,.17-.14V82.36l.07-.07.07-.06.08,0c.08,0,.08,0,.1.12s0,.13,0,.2l0,.32a1.21,1.21,0,0,0,0,.21,2,2,0,0,0,.2-.16.72.72,0,0,0,0-.19.77.77,0,0,1,0-.19s0-.14,0-.27,0-.33,0-.34l.05,0s0,0,.11,0a.22.22,0,0,1,.1.08,3,3,0,0,1,0,.37,1.38,1.38,0,0,0,0,.19l.08,0,.07-.06.08-.08a.29.29,0,0,1,.11-.08.55.55,0,0,1,.23,0h.06l0,.1c0,.11,0,.16,0,.2l-.07.08-.11.13a.34.34,0,0,0-.08.1l.05,0,.42.08a.37.37,0,0,1,.18.11c0,.06,0,.06-.05.16s0,.06-.13.06h-.57a1.06,1.06,0,0,0-.26,0s-.2.18-.19.2a3.4,3.4,0,0,0,.56.11c.23,0,.26,0,.29.08s.06.09,0,.17-.11.1-.32.1-.12,0-.12,0,0,0,0,0a0,0,0,0,0,0,0H54.3a1.41,1.41,0,0,0-.36,0c-.08.06-.18.21-.12.19l.11,0,.23.07.13,0a.09.09,0,0,1,0,.05l-.33.29s0,0,.07.07l.14,0c.07,0,.1,0,.76-.39l.27-.15a.31.31,0,0,1,.13,0c.07,0,.09,0,.09,0a.16.16,0,0,1-.07.16l-.1.08-.07.06a.07.07,0,0,0,0,0s0,0,0,0L55,84.7l-.19.15-.11.11.24.1a.14.14,0,0,0,.11,0l.41-.26c.27-.18.27-.18.35-.17s.12,0,.12.1,0,.09-.26.32l-.19.16s0,0,.24.11.21.09.26.24l0,.12-.08,0c-.17.1-.18.11-.33.08l-.23,0h0l.09.26.09.26,0,.09c-.05.1-.07.12-.14.11s-.11,0-.18-.19l-.32-.59s-.05-.05-.14-.07l-.14,0a4.44,4.44,0,0,0,.22.59l0,.09,0,.1c-.05.12-.08.14-.18.12s-.1,0-.18-.22l-.27-.51C54,85.4,54,85.41,54,85.4l-.12,0c-.12,0-.12,0-.11,0a.84.84,0,0,1,0,.13,1.19,1.19,0,0,0,.05.22l0,.1s-.09,0-.28,0-.18-.06-.18,0,0,.06,0,.1,0,.09.07.12l.11.08.21.16a3.37,3.37,0,0,1,.31.21l.2.13a.2.2,0,0,1,.11.18v.09l-.08,0c-.12,0-.14,0-.5-.14a1.31,1.31,0,0,0-.3-.13v.1a.26.26,0,0,0,.1.22s0,0,0,0l.25.23a3.06,3.06,0,0,1,.27.27s0,.06,0,.12,0,.08,0,.1a.2.2,0,0,1-.18,0c-.05,0-.2-.12-.39-.24s-.06,0-.07,0,0,.09,0,.17c0,.25,0,.25-.17.37l-.07,0-.1,0a.33.33,0,0,1-.12-.09s0-.08,0-.16a1.23,1.23,0,0,1,0-.17v-.08s0,0,0,0l-.12.08-.09.06,0,0-.12.07-.1.07-.07,0a.2.2,0,0,1-.11-.21c0-.09,0-.11.07-.14a.44.44,0,0,0,.11-.09c.08-.07.4-.31.44-.33s0,0,0-.13,0-.12,0-.12a.11.11,0,0,0,0,0l-.36.35c-.11.1-.14.13-.18.13s-.13,0-.16-.07,0-.12,0-.22l.29-.39c.25-.34.3-.42.3-.48a.35.35,0,0,0,0-.14l0-.07,0,0a.23.23,0,0,1-.07.07l-.13.11a.37.37,0,0,1-.11.1s0,0-.06-.12,0-.13,0-.22,0-.15,0-.16a.73.73,0,0,0-.18.14.49.49,0,0,0,0,.2.75.75,0,0,1,0,.12c0,.08,0,.35,0,.62s0,.25-.09.3-.11.07-.17,0-.08-.07-.1-.33a2.1,2.1,0,0,0,0-.25s0-.09,0-.14,0-.15-.1-.08l-.08.07a1.66,1.66,0,0,0,0,.39c0,.12,0,.24,0,.26a.72.72,0,0,1,0,.13.16.16,0,0,1-.06.15c-.08.08-.12.09-.2,0S51,87.3,51,87s0-.27-.05-.25l-.15.11-.16.11a.45.45,0,0,1-.22,0l-.06,0v-.09c0-.09,0-.18,0-.19l.06-.06.14-.14.08-.09-.28-.08c-.27-.07-.29-.08-.36-.18s0,0,0-.08Z" transform="translate(0.74 -0.44)"/><path id="path6398" class="cls-14" d="M62.66,64.27c.09.07.08,0,.09.3v.27s0,.07.07.12l0,0v0s0-.09,0-.13,0-.32.06-.33,0,0,0,0l0,0,0,0a.17.17,0,0,1,.06.06.74.74,0,0,1,0,.24s0,.09,0,.17,0,.17,0,.25,0,0,.05.09.07,0,0,0a.21.21,0,0,1,0-.06s0-.09,0-.14a.38.38,0,0,1,0-.08l.12.1c.06,0,.11.1.11.09a.44.44,0,0,0,.05-.15l-.17-.25c-.22-.33-.21-.32-.21-.38s0-.08.06-.08.07,0,.21.17l.16.17,0,0a.49.49,0,0,0,0-.16l0-.07-.08-.11c-.05-.07-.08-.13-.13-.19s-.06-.1,0-.15,0,0,0,0,.08,0,.2.13.12.13.13.12l0-.12c0-.15.06-.17.12-.2l.05,0,0,0c.09.07.09.07.07.21l0,.13s.08,0,.16-.06l.16-.06h.08v0c0,.07,0,.09,0,.1l-.23.15c-.22.15-.21.14-.22.18l0,.1a.9.9,0,0,0,.19-.08c.28-.13.25-.12.3-.1h0v.06a.1.1,0,0,1,0,.08,5.1,5.1,0,0,1-.46.33c-.13.08-.13.09-.14.13a.19.19,0,0,1,0,.08v0l.1,0,.12,0s.07,0,.08,0a.64.64,0,0,1,0,.23.24.24,0,0,1,0,.07.27.27,0,0,0,.12,0s0,0,0,0a.41.41,0,0,1,0-.08l0-.09,0-.09.07-.17c.09-.21.09-.21.17-.24s0,0,.07,0,0,0,0,.06a1,1,0,0,1-.06.31.84.84,0,0,0,0,.18h0l.08,0s0,0,.06,0a.47.47,0,0,1,0-.09l0-.1a2.06,2.06,0,0,1,.12-.27.31.31,0,0,1,.12,0s.1.07.09.07v0s0,.06-.06.24l0,.11h0l.13,0,.1,0a.35.35,0,0,1,.13.08s0,0,0,.12l0,0-.12.06-.13,0s0,0,.09.07l.11.09s0,0,0,0,0,0,0,.07,0,.08,0,.1,0,0-.3-.1l-.21-.1-.06,0-.09,0-.08,0,0,0,.08.05.17.12.13.09v0s0,.07,0,.1a0,0,0,0,1,0,0l-.07,0L65,66l-.5-.22-.09,0c-.06,0-.06,0-.06,0l0,0,.17.15a1.28,1.28,0,0,1-.25.09s0,0,0,0,.07.1.09.1l.38,0,.35,0,0,0,0,0,0,.06c0,.05,0,.05-.07.07l-.11,0-.2,0-.13,0,.11.11a.22.22,0,0,0,.12,0H65l.16,0c.15,0,.2,0,.21,0s0,0,0,0,0,0,0,.07,0,0-.05.06l-.22.06-.11,0,0,0,0,0,.05,0a.33.33,0,0,1,.06.06.61.61,0,0,1,0,.15v0l-.06,0c-.07,0-.1,0-.12,0l-.06,0-.09-.07-.06,0a0,0,0,0,1,0,0s0,.24,0,.27a.23.23,0,0,1-.06.12s0,0-.1,0,0,0-.05-.08a.56.56,0,0,0,0-.07s0,0,0-.08a1.22,1.22,0,0,1,0-.21.88.88,0,0,0,0-.15s-.12-.12-.13-.11a1.29,1.29,0,0,0,0,.35c0,.15,0,.17,0,.19s0,0-.1,0-.07-.06-.08-.19,0-.07,0-.07,0,0,0,0,0,0,0,0v0s0-.11,0-.22a.76.76,0,0,0,0-.22s-.14-.1-.12-.06a.24.24,0,0,0,0,.07.49.49,0,0,0,0,.14s0,.09,0,.09l0,0-.2-.19s0,0,0,.05a.37.37,0,0,0,0,.09s0,.06.29.45l.11.15a.26.26,0,0,1,0,.09s0,0,0,0a.09.09,0,0,1-.11,0l0,0s0,0,0,0l0,0h0s0,0,0,0l-.11-.11-.07-.06a1.24,1.24,0,0,0-.05.15.1.1,0,0,0,0,.07,2,2,0,0,0,.18.24c.13.15.13.15.13.2s0,.08-.06.09-.05,0-.21-.15l-.11-.1s0,0-.05.16,0,.13-.13.17l-.07,0,0,0c-.07-.1-.07-.1-.07-.2a.52.52,0,0,1,0-.15v0l-.15.07-.15.07h-.06c-.07,0-.08,0-.08-.09s0-.07.1-.12l.35-.24s0,0,0-.09a.39.39,0,0,0,0-.09,2.38,2.38,0,0,0-.34.18l0,0-.07,0c-.08,0-.09,0-.08-.1s0-.06.12-.13l.3-.2c.19-.13.19-.13.19-.14s0,0,0-.07,0-.08,0-.08,0,0-.08,0l-.13,0s-.06,0-.06,0,0,0,0-.17,0-.12,0-.12l-.06,0s-.06,0-.07,0l0,.07-.08.15-.11.2-.07.13a.13.13,0,0,1-.11.08h-.05l0,0c0-.07,0-.08.06-.32l.06-.19h-.06a.16.16,0,0,0-.13.08l0,0a.89.89,0,0,0-.13.17,1.3,1.3,0,0,1-.15.18L62,67s0,0-.06,0a.14.14,0,0,1,0-.12l.12-.25s0,0,0,0h-.1c-.16,0-.15,0-.24-.09l0,0,0-.06s0-.08,0-.08l.1,0H62s0,0,0,0l-.06-.07s0,0,0,0,0,0,0,0a.45.45,0,0,0,0-.08l-.05-.06,0,0a.16.16,0,0,1,.12-.09c.06,0,.07,0,.09,0l.06.07a2.65,2.65,0,0,1,.24.25s0,0,.08,0l.07,0,0,0-.24-.2c-.07-.06-.08-.07-.09-.1s0-.08,0-.1a.11.11,0,0,1,.14,0l.26.15c.22.14.28.16.31.16l.08,0,.05,0,0,0,0,0a.57.57,0,0,0-.08-.08l-.06-.06s0,0,.07,0l.13,0,.09,0s-.07-.09-.09-.1h-.58c-.15,0-.15,0-.19,0s-.05-.07,0-.11,0-.06.19-.09l.16,0,.08,0c.09,0,.09,0,0-.06l0,0a.81.81,0,0,0-.24,0h-.24c-.06,0-.07,0-.1,0s-.07-.07,0-.12,0-.05.2-.09.17,0,.15,0,0,0-.07-.08l-.08-.1a.28.28,0,0,1,0-.13v0h.06s.1,0,.11,0l.05,0,.09.08.06,0a1.4,1.4,0,0,0,0-.18c0-.17,0-.19.09-.23s0,0,0,0Z" transform="translate(0.74 -0.44)"/><path id="path6400" class="cls-14" d="M42.81,76.15c.07-.18,0-.16.48-.26l.48-.11c.1,0,.13,0,.2-.17L44,75.5h-.31l-.62,0-.07,0-.06,0,0-.11a.31.31,0,0,1,.09-.14,1.55,1.55,0,0,1,.41-.15l.29-.07.46-.12c.07,0,.07,0,.13-.11s.06-.15,0-.12H44a.7.7,0,0,1-.16,0,1.4,1.4,0,0,1,.13-.25l.13-.24a1,1,0,0,0-.29,0s-.19.19-.38.4c-.5.51-.49.51-.59.52s-.16,0-.17-.08,0-.13.22-.43.22-.32.24-.36l0-.06a1.17,1.17,0,0,0-.32,0l-.09.1-.17.18-.29.32a.28.28,0,0,1-.26.13s-.06,0-.08-.06,0-.15.16-.42a1.89,1.89,0,0,0,.17-.27l-.24,0c-.28,0-.32,0-.4-.14l-.06-.09.05-.1c.08-.18.08-.17.34-.19a1,1,0,0,0,.24,0,1.89,1.89,0,0,0-.17-.27L41.9,73v-.16l.09,0c.12,0,.16,0,.19,0s.21.2.35.35c.34.34.33.33.4.33h.19a3.11,3.11,0,0,0-.21-.31c-.34-.46-.32-.41-.31-.51v-.09l.1,0c.08,0,.11,0,.15,0a8.56,8.56,0,0,1,.76.7c.2.2.21.21.29.19h.21L44,73.26l-.13-.19c-.06-.06-.09-.12-.08-.14a1.23,1.23,0,0,1,.41,0h.14a.5.5,0,0,0-.09-.2.1.1,0,0,0-.08,0l-.15,0-.18,0-.17,0-.33-.06c-.41-.08-.42-.08-.49-.23s0-.06,0-.12A.29.29,0,0,1,43,72a1.77,1.77,0,0,1,.58,0h.33s0,0,0-.06l-.08-.12c0-.08-.05-.09-.1-.09l-.17,0-.2,0a3.67,3.67,0,0,1-.53-.12.37.37,0,0,1-.12-.2s.08-.19.09-.17h0a1.87,1.87,0,0,1,.45,0l.21,0,0-.06a2.34,2.34,0,0,0-.11-.21l-.09-.18a.68.68,0,0,1,.1-.27s.08,0,.22,0h.09l.15.21.15.21a1.92,1.92,0,0,1,.09-.19c0-.1.09-.21.11-.23s0-.08,0-.12,0-.07.11-.11.15,0,.21,0,.05.05-.07.58c0,.17-.08.36-.09.42l0,.12.09.14a.44.44,0,0,0,.1.13s0,0,0-.08a.84.84,0,0,0,.07-.16s.09-.21.14-.35l.11-.27.07,0c.09,0,.12,0,.19,0s0,.07,0,.09a.78.78,0,0,0,0,.14c0,.06,0,.14,0,.17s-.21,1-.21,1a.43.43,0,0,0,.07.14c.06.11.07.11.1.09l.06-.08a3.63,3.63,0,0,1,.19-.36,2.1,2.1,0,0,1,.26.42c0,.05,0,.05.07,0a.51.51,0,0,0,.13-.22s-.1-.32-.21-.66l-.2-.62,0-.09.06-.1h.1c.1,0,.1,0,.15.1l.1.2.16.33.1.22a1.66,1.66,0,0,0,.17-.24,1.33,1.33,0,0,0-.05-.21,1.56,1.56,0,0,0-.07-.21,2.76,2.76,0,0,0-.09-.3c-.09-.25-.11-.35-.07-.38l0-.06c0-.05,0-.05.12,0s.11,0,.13.06a2.1,2.1,0,0,1,.19.38,1.05,1.05,0,0,0,.1.19s0,0,.06-.08,0-.09.06-.09a.67.67,0,0,1,.06-.11.68.68,0,0,1,.09-.14.66.66,0,0,1,.25-.09h.07l.06.09c.06.11.07.17,0,.23s0,.07,0,.11a.67.67,0,0,1-.08.18l0,.13s0,0,.06,0l.49-.06a.32.32,0,0,1,.23.06c.06,0,.06,0,0,.19s0,.07-.12.11a.31.31,0,0,1-.12,0l-.14,0-.36.1a1.11,1.11,0,0,0-.28.09.74.74,0,0,0-.14.28,4.39,4.39,0,0,0,.64-.08c.26,0,.3,0,.35,0s.09.07,0,.19-.08.14-.3.22-.13,0-.13.07,0,.07-.05,0,0,0,0,0h-.07l-.38.12a1.56,1.56,0,0,0-.38.14c-.07.09-.13.29-.07.25h.4a.28.28,0,0,1,.16,0s0,0,0,.07a4.09,4.09,0,0,0-.26.43s0,0,.1,0h.17c.08,0,.1,0,.69-.69a3.21,3.21,0,0,1,.24-.25.34.34,0,0,1,.14,0c.08,0,.1,0,.11,0a.18.18,0,0,1,0,.2.66.66,0,0,0-.08.13l-.06.08,0,.05s0,0,0,0a.24.24,0,0,0-.08.09l-.14.23a1.29,1.29,0,0,0-.09.15,1.4,1.4,0,0,0,.29,0,.16.16,0,0,0,.12,0l.36-.43c.22-.29.22-.29.31-.31s.14,0,.17.07,0,.09-.18.44l-.14.24s.06,0,.3,0,.25,0,.36.18l.07.11-.06.08c-.15.17-.16.18-.34.21a1.06,1.06,0,0,1-.27,0h0a1.63,1.63,0,0,0,.18.25l.19.24v.11c0,.13,0,.17-.12.18s-.14,0-.26-.14-.46-.46-.55-.54-.07,0-.18,0h-.16a6.37,6.37,0,0,0,.44.56l.07.08v.13c0,.15,0,.17-.16.19s-.12,0-.27-.17-.23-.23-.46-.46-.31-.3-.34-.3a.52.52,0,0,0-.13,0c-.13,0-.14,0-.13,0l.09.14a2,2,0,0,0,.12.21l.06.11s-.09.05-.31.05-.22,0-.22,0l.06.11c0,.08,0,.09.11.1l.14,0,.29.09.41.13.25.07a.23.23,0,0,1,.19.16l0,.09-.09.07c-.1.09-.13.09-.58,0a2,2,0,0,0-.37,0,.45.45,0,0,0,0,.11.29.29,0,0,0,.19.2l.06,0,.35.17a2.43,2.43,0,0,1,.38.19.17.17,0,0,1,.06.12c0,.07,0,.09,0,.12a.23.23,0,0,1-.2.09,3.4,3.4,0,0,1-.5-.12s-.08,0-.08,0a1.33,1.33,0,0,0,0,.19c.09.28.09.27-.06.47L47,77.2l-.13,0a.37.37,0,0,1-.16-.05A.34.34,0,0,1,46.6,77l-.07-.19,0-.08s0,0,0,0l-.1.13-.08.09,0,0-.11.12-.09.11-.08,0a.25.25,0,0,1-.2-.18c0-.1,0-.12,0-.18a.48.48,0,0,0,.09-.14,4.27,4.27,0,0,1,.37-.51s0,0,0-.14a1,1,0,0,0-.08-.12s0,0,0,.06-.16.31-.27.5-.1.19-.14.21-.14,0-.2,0-.08-.12,0-.25.1-.3.18-.52c.16-.46.18-.57.16-.64a.66.66,0,0,0-.08-.13l-.06-.07,0,.06a.88.88,0,0,1-.06.1s-.06.09-.1.17a.88.88,0,0,1-.08.14s-.07,0-.1-.11-.07-.14-.12-.22a.54.54,0,0,0-.09-.16,1,1,0,0,0-.15.21,1.57,1.57,0,0,0,0,.23.39.39,0,0,1,0,.12c0,.1.1.39.18.7s.06.27,0,.34-.1.12-.18.11-.12-.06-.22-.32-.1-.24-.12-.27L44.6,76c-.07-.15-.07-.15-.13-.05l-.07.1a1.93,1.93,0,0,0,.09.44c0,.14.08.27.08.29s0,.08,0,.14a.22.22,0,0,1,0,.18c-.06.12-.11.15-.21.13s-.09,0-.23-.35-.11-.28-.14-.25l-.13.17a1.45,1.45,0,0,1-.13.18.55.55,0,0,1-.25.05h-.06l-.05-.1a.22.22,0,0,1,0-.21s0,0,0-.09l.09-.2a.4.4,0,0,0,.06-.13l-.32,0c-.33,0-.35,0-.46-.07s0,0,0-.1Z" transform="translate(0.74 -0.44)"/><path id="path6402" class="cls-14" d="M36.86,72.58c-.21-.1-.18,0-.28-.57,0-.27-.1-.52-.11-.56s0-.15-.18-.24l-.12-.07v.37c0,.16,0,.68,0,.72l0,.08,0,.06L36,72.32a.34.34,0,0,1-.16-.1,2.11,2.11,0,0,1-.15-.48s0-.19-.08-.35-.08-.35-.11-.53,0-.08-.13-.15-.16-.08-.13,0a.38.38,0,0,1,0,.13v.48a1.68,1.68,0,0,1-.28-.16L34.69,71a1,1,0,0,0,0,.34s.2.22.43.45c.57.6.56.58.57.71s0,.18-.09.19-.15,0-.49-.28-.36-.25-.4-.29l-.07,0a1.49,1.49,0,0,0,0,.36l.11.12.2.19c.13.14.23.24.35.35a.36.36,0,0,1,.14.31c0,.07,0,.08-.07.09s-.17,0-.47-.2a1.83,1.83,0,0,0-.3-.2,1.2,1.2,0,0,0-.05.27c0,.33,0,.37-.18.46l-.09.07-.12-.06c-.2-.1-.19-.1-.21-.41a1.08,1.08,0,0,0,0-.28l-.31.19-.3.2h-.18l0-.1c0-.14,0-.19,0-.22a5.44,5.44,0,0,1,.41-.4c.4-.38.39-.36.39-.44a1,1,0,0,0,0-.23,2.1,2.1,0,0,0-.36.24c-.53.38-.48.35-.59.33h-.1l0-.11c0-.1,0-.13,0-.18a10.25,10.25,0,0,1,.82-.85c.24-.23.25-.24.23-.34V71l-.2.12-.22.14c-.08.07-.14.09-.16.08a1.47,1.47,0,0,1,0-.48,1.26,1.26,0,0,0,0-.16,1.07,1.07,0,0,0-.23.1.17.17,0,0,0-.06.1l0,.16c0,.06,0,.16-.06.22s0,.14,0,.19-.05.22-.08.38c-.11.47-.11.48-.28.56s-.07,0-.14,0a.27.27,0,0,1-.09-.1,2.3,2.3,0,0,1,0-.66c0-.21,0-.38,0-.39s0,0-.07,0L32,71.3c-.08,0-.09.06-.1.11s0,.13,0,.2-.05.18-.06.23c-.05.23-.14.57-.16.61a.41.41,0,0,1-.23.13s-.22-.1-.2-.11a0,0,0,0,0,0,0s0-.14,0-.52l0-.25-.07,0-.25.12-.21.1a.78.78,0,0,1-.3-.13s0-.09,0-.25v-.11l.25-.16a2.49,2.49,0,0,0,.24-.17L30.73,71l-.26-.13-.13-.06c-.08,0-.08,0-.12-.13s0-.17.06-.24.06-.06.66.1l.48.13.13,0,.16-.09c.09-.06.16-.11.15-.12l-.08,0-.18-.08-.4-.18L30.9,70l0-.09c-.05-.11,0-.14.06-.22a.11.11,0,0,1,.1,0l.16,0,.19.05,1.13.27a.59.59,0,0,0,.17-.07c.12-.07.13-.08.1-.11a.23.23,0,0,0-.09-.07l-.4-.24a3.12,3.12,0,0,1,.48-.29c.07,0,.07,0,0-.07a.39.39,0,0,0-.24-.16s-.37.09-.76.21l-.71.21L31,69.41l-.11-.07,0-.12c0-.12,0-.12.12-.17l.23-.11.38-.17.25-.11a1.47,1.47,0,0,0-.26-.2.67.67,0,0,0-.25.05l-.24.06-.33.1c-.3.09-.42.11-.44.07l-.07,0c-.05,0-.05,0,0-.14s0-.12.07-.15a3.83,3.83,0,0,1,.44-.21.73.73,0,0,0,.22-.1s0,0-.09-.08-.1-.06-.1-.07l-.13-.07a.67.67,0,0,1-.14-.11.7.7,0,0,1-.1-.29v-.08l.11-.07c.13-.07.2-.08.26,0l.12,0,.21.1c.07,0,.14.07.14.06s0,0,0-.07,0-.5,0-.56a.33.33,0,0,1,.07-.26c.06-.08.06-.08.22,0s.08,0,.12.15a.34.34,0,0,1,0,.13,1,1,0,0,0,.05.17c0,.08.07.27.1.42a1.33,1.33,0,0,0,.09.32.92.92,0,0,0,.31.18,2.87,2.87,0,0,0-.06-.75c0-.3,0-.34,0-.4s.09-.11.22,0,.15.09.24.36,0,.15.08.15.07,0,0,0a0,0,0,0,0,0,.05.24.24,0,0,0,0,.08s0,.23.11.45a1.63,1.63,0,0,0,.15.44c.1.09.32.16.28.09a.5.5,0,0,1,0-.15,2.91,2.91,0,0,0,0-.31.51.51,0,0,1,0-.19l.08,0c.1.08.44.3.48.32s0,0,0-.12a.66.66,0,0,0,0-.19c0-.1,0-.13-.76-.83l-.28-.28a.53.53,0,0,1,0-.17c0-.1,0-.12,0-.13a.19.19,0,0,1,.23,0l.14.09.09.07s.05,0,.06,0h0a.3.3,0,0,0,.1.09l.25.18.17.1a2.36,2.36,0,0,0,0-.33.18.18,0,0,0-.06-.14c-.1-.1-.22-.21-.48-.43s-.31-.27-.33-.37,0-.17.08-.2.11,0,.5.22l.27.17s0-.06,0-.34,0-.29.2-.41l.14-.08.08.08c.2.18.21.19.23.39a1.49,1.49,0,0,1,0,.32v0l.29-.2.29-.21.13,0c.15,0,.18,0,.19.14s0,.15-.17.29-.54.52-.63.62,0,.08,0,.21V67a5,5,0,0,0,.66-.49l.09-.07.15,0c.16,0,.2.05.21.18s0,.14-.2.31l-.55.52c-.36.35-.34.34-.35.38a.35.35,0,0,0,0,.15c0,.16,0,.16,0,.15a.58.58,0,0,1,.15-.09l.26-.14.12-.06s0,.11,0,.36,0,.25,0,.25a.4.4,0,0,0,.13-.06c.09,0,.1-.06.12-.12a1.77,1.77,0,0,1,.06-.17c0-.05.07-.2.11-.33s.12-.34.16-.46.09-.26.1-.3a.26.26,0,0,1,.18-.21l.11,0,.07.1c.1.13.1.16,0,.68a2.2,2.2,0,0,0,0,.42s.06,0,.12,0a.33.33,0,0,0,.24-.2s0-.07,0-.07l.21-.4a3.39,3.39,0,0,1,.23-.44.3.3,0,0,1,.14-.07c.08,0,.1,0,.14,0a.25.25,0,0,1,.09.23,3.4,3.4,0,0,1-.15.57c0,.05,0,.09,0,.09a.77.77,0,0,0,.21,0c.32-.08.31-.09.53.09l.09.07,0,.15a.27.27,0,0,1-.26.27l-.21.06-.1,0s0,0,0,.05l.14.12.1.09s0,0,0,0a1,1,0,0,0,.14.13l.12.11,0,.1a.27.27,0,0,1-.21.21c-.12,0-.14,0-.21,0L37.6,69a4.57,4.57,0,0,1-.58-.44s0,0-.16,0a.44.44,0,0,0-.14.09s0,0,.07.06l.56.33c.17.09.21.12.23.17s0,.17,0,.23-.14.09-.29,0l-.58-.22c-.52-.2-.64-.23-.72-.21a.4.4,0,0,0-.15.09l-.08.06.06,0,.11.07.19.12.17.1s0,.08-.13.12l-.27.12-.18.1a1,1,0,0,0,.24.18,1.15,1.15,0,0,0,.26,0,.33.33,0,0,1,.14,0l.79-.17c.3-.07.31-.07.4,0s.13.12.11.21-.06.13-.37.25l-.31.12-.17.07c-.18.07-.18.07-.07.15l.12.08a2.42,2.42,0,0,0,.5-.09l.33-.08.16,0a.22.22,0,0,1,.21,0c.14.07.17.13.14.24s0,.1-.4.25-.33.13-.29.16a1,1,0,0,0,.19.15l.19.16a.63.63,0,0,1,0,.29v.08l-.11,0c-.11,0-.22,0-.25,0a.36.36,0,0,0-.1-.06l-.22-.12c-.08,0-.14-.08-.15-.07s0,.17,0,.37c0,.38,0,.41-.1.53s0,0-.11,0Z" transform="translate(0.74 -0.44)"/></g></g></g></svg>