<svg id="svg13195" xmlns="http://www.w3.org/2000/svg" xmlns:xlink="http://www.w3.org/1999/xlink" viewBox="0 0 110 110"><defs><style>.cls-1{fill:#520;fill-opacity:0;}.cls-2{fill:#6f8a91;}.cls-3{fill:#76797e;}.cls-3,.cls-4{opacity:0.85;}.cls-10,.cls-11,.cls-12,.cls-13,.cls-14,.cls-3,.cls-4,.cls-5,.cls-6,.cls-7,.cls-8,.cls-9{isolation:isolate;}.cls-4{fill:url(#linear-gradient);}.cls-5,.cls-8{fill:#999;}.cls-10,.cls-5{opacity:0.9;}.cls-6{fill:#666;}.cls-6,.cls-7,.cls-8{opacity:0.8;}.cls-7{fill:#ccc;}.cls-9{opacity:0.95;fill:url(#linear-gradient-2);}.cls-10{fill:#a6a7a7;}.cls-11{fill:#b3b3b3;}.cls-11,.cls-13{opacity:0.5;}.cls-12{fill:#9c9ea0;opacity:0.67;}.cls-13{fill:#959798;}.cls-14{fill:gray;opacity:0.6;}.cls-15{fill:#fff;}</style><linearGradient id="linear-gradient" x1="-664.52" y1="-582.39" x2="-528.13" y2="-539.89" gradientTransform="matrix(0.66, 0, 0, -0.66, 457.32, -333.15)" gradientUnits="userSpaceOnUse"><stop offset="0" stop-color="#57646d"/><stop offset="1" stop-color="#57646d" stop-opacity="0"/></linearGradient><linearGradient id="linear-gradient-2" x1="-936.74" y1="-359.11" x2="-947.98" y2="-302.96" gradientTransform="matrix(0.66, 0, 0, -0.66, 663.94, -181.51)" gradientUnits="userSpaceOnUse"><stop offset="0" stop-color="#ccc"/><stop offset="1" stop-color="gray"/></linearGradient></defs><g id="layer1"><g id="heavy_rain" data-name="heavy rain"><rect id="rect6737" class="cls-1" width="110" height="110"/><g id="g6555"><g id="g6697"><path id="path6625" class="cls-2" d="M34.27,50s7.3,11,9.77,14.49c.19.28.6.72.87.52s0-.7-.24-1C42.25,60.51,34.27,50,34.27,50Z" transform="translate(0 0)"/><path id="path6629" class="cls-2" d="M51.87,61.07S58.71,71.34,61,74.66c.18.27.56.68.82.49s-.05-.65-.22-.91C59.35,71,51.87,61.07,51.87,61.07Z" transform="translate(0 0)"/><path id="path6631" class="cls-2" d="M50.82,48.6s6.2,9.31,8.3,12.32c.17.24.51.61.75.44s0-.59-.21-.83C57.6,57.56,50.82,48.6,50.82,48.6Z" transform="translate(0 0)"/><path id="path6633" class="cls-2" d="M50.53,55.8s3.33,5,4.46,6.6c.08.13.27.33.39.24s0-.32-.1-.44C54.17,60.6,50.53,55.8,50.53,55.8Z" transform="translate(0 0)"/><path id="path6635" class="cls-2" d="M45.22,45.36s10.68,16,14.3,21.21c.28.41.88,1.06,1.28.77s-.07-1-.35-1.43C56.9,60.79,45.22,45.36,45.22,45.36Z" transform="translate(0 0)"/><path id="path6637" class="cls-2" d="M57,52.26s4.94,7.42,6.61,9.82c.13.19.41.49.59.35s0-.47-.16-.66C62.4,59.4,57,52.26,57,52.26Z" transform="translate(0 0)"/><path id="path6639" class="cls-2" d="M53.91,44.39S62.26,56.92,65.09,61c.22.32.69.83,1,.6s0-.8-.27-1.11C63.05,56.45,53.91,44.39,53.91,44.39Z" transform="translate(0 0)"/><path id="path6641" class="cls-2" d="M48.78,45.45s9.76,14.64,13.07,19.38c.26.38.8,1,1.17.7s-.06-.94-.32-1.3C59.46,59.55,48.78,45.45,48.78,45.45Z" transform="translate(0 0)"/><path id="path6643" class="cls-2" d="M50.94,56.23S60.76,71,64.09,75.75c.26.38.81,1,1.18.71s-.06-.95-.32-1.32C61.68,70.43,50.94,56.23,50.94,56.23Z" transform="translate(0 0)"/><path id="path6645" class="cls-2" d="M60,36.34S71.2,53.1,75,58.53c.29.42.92,1.11,1.34.8s-.07-1.08-.37-1.5C72.25,52.48,60,36.34,60,36.34Z" transform="translate(0 0)"/><path id="path6647" class="cls-2" d="M51.7,46.23S58,55.74,60.19,58.82c.16.24.52.63.76.45s0-.6-.21-.84C58.63,55.39,51.7,46.23,51.7,46.23Z" transform="translate(0 0)"/><path id="path6649" class="cls-2" d="M53,34.86s8.33,12.5,11.15,16.55c.23.31.69.82,1,.59s-.05-.8-.27-1.11C62.14,46.89,53,34.86,53,34.86Z" transform="translate(0 0)"/><path id="path6651" class="cls-2" d="M64.32,49.82s9.76,14.65,13.06,19.4c.26.37.81,1,1.18.69s-.07-.93-.32-1.3C75,63.93,64.32,49.82,64.32,49.82Z" transform="translate(0 0)"/><path id="path6653" class="cls-2" d="M62.36,53.47s6.26,9.39,8.38,12.43c.17.24.52.62.75.45s0-.6-.2-.84C69.21,62.51,62.36,53.47,62.36,53.47Z" transform="translate(0 0)"/><path id="path6655" class="cls-2" d="M58.22,38.91s5.21,7.81,7,10.34c.14.2.43.51.63.37s0-.5-.17-.7C63.92,46.43,58.22,38.91,58.22,38.91Z" transform="translate(0 0)"/><path id="path6657" class="cls-2" d="M57.84,68.44s3.14,4.72,4.21,6.25c.08.12.26.31.37.22s0-.3-.1-.42C61.28,73,57.84,68.44,57.84,68.44Z" transform="translate(0 0)"/><path id="path6659" class="cls-2" d="M56.25,51.43S67.72,68.63,71.6,74.2c.31.44,1,1.14,1.38.82s-.08-1.1-.38-1.54C68.79,68,56.25,51.43,56.25,51.43Z" transform="translate(0 0)"/><path id="path6661" class="cls-2" d="M63.69,58.92s5,7.52,6.72,10c.13.19.41.5.6.36s0-.48-.17-.67C69.18,66.16,63.69,58.92,63.69,58.92Z" transform="translate(0 0)"/><path id="path6663" class="cls-2" d="M48.86,48.31S55.31,58,57.5,61.13c.17.25.53.64.78.46s0-.62-.21-.86C55.92,57.64,48.86,48.31,48.86,48.31Z" transform="translate(0 0)"/><path id="path6665" class="cls-2" d="M55.3,49.19s7.76,11.65,10.39,15.42c.21.3.64.77.93.56s-.05-.75-.25-1C63.79,60.41,55.3,49.19,55.3,49.19Z" transform="translate(0 0)"/><path id="path6667" class="cls-2" d="M56.64,73.1s4.54,6.8,6.08,9c.12.17.37.45.54.32s0-.43-.15-.61C61.61,79.65,56.64,73.1,56.64,73.1Z" transform="translate(0 0)"/><path id="path6671" class="cls-2" d="M65.57,73.42s5.35,8,7.17,10.64c.14.2.44.53.64.38s0-.52-.17-.72c-1.78-2.56-7.64-10.3-7.64-10.3Z" transform="translate(0 0)"/><path id="path6673" class="cls-2" d="M60.28,73.18s3,4.5,4,6c.08.11.25.3.36.21s0-.28-.09-.4C63.56,77.51,60.28,73.18,60.28,73.18Z" transform="translate(0 0)"/><path id="path6675" class="cls-2" d="M59.31,69.44s7.87,11.81,10.53,15.63c.21.3.65.78.94.56s0-.75-.25-1C67.92,80.81,59.31,69.44,59.31,69.44Z" transform="translate(0 0)"/><path id="path6677" class="cls-2" d="M57,75.19s4.53,6.8,6.07,9c.12.17.37.45.54.32s0-.43-.14-.6C61.94,81.74,57,75.19,57,75.19Z" transform="translate(0 0)"/><path id="path6679" class="cls-2" d="M51.18,71.82s5.44,8.16,7.28,10.8c.14.21.45.54.65.39s0-.52-.17-.72C57.13,79.68,51.18,71.82,51.18,71.82Z" transform="translate(0 0)"/><path id="path6681" class="cls-2" d="M62.35,81.17s4.43,6.65,5.93,8.8c.12.17.37.44.54.32s0-.43-.15-.6C67.2,87.57,62.35,81.17,62.35,81.17Z" transform="translate(0 0)"/><path id="path6683" class="cls-2" d="M49.56,60s8.82,13.23,11.81,17.51c.23.34.72.88,1.05.63s-.05-.84-.28-1.18C59.21,72.69,49.56,60,49.56,60Z" transform="translate(0 0)"/><path id="path6685" class="cls-2" d="M46,60.26S52.46,70,54.65,73.11c.17.25.53.65.78.47s0-.62-.21-.87C53.07,69.61,46,60.26,46,60.26Z" transform="translate(0 0)"/><path id="path6689" class="cls-2" d="M39.93,59.83S47,70.47,49.42,73.92c.19.27.58.7.85.5s-.05-.68-.23-1C47.68,70.07,39.93,59.83,39.93,59.83Z" transform="translate(0 0)"/><path id="path6691" class="cls-2" d="M40.2,45.63s6,9.08,8.1,12c.17.23.5.6.73.43s0-.58-.2-.81C46.82,54.37,40.2,45.63,40.2,45.63Z" transform="translate(0 0)"/><path id="path6693" class="cls-2" d="M60.08,54.45s6.33,9.52,8.48,12.6c.17.24.53.62.76.45s0-.61-.2-.85C67,63.61,60.08,54.45,60.08,54.45Z" transform="translate(0 0)"/><path id="path6695" class="cls-2" d="M68.46,51.39S77,64.18,79.87,68.32c.22.33.7.85,1,.61s0-.81-.28-1.14C77.78,63.71,68.46,51.39,68.46,51.39Z" transform="translate(0 0)"/></g><g id="g6587"><path id="path6589" class="cls-3" d="M54.93,53.42c1.77,2.38,5.77,2.27,8.71,1.85,1.75-.25,3.08-1.76,4.69-2.52a21.56,21.56,0,0,1,4.52-1.84c3.83-.81,11.73-.34,11.73-.34s-10.11,2.42-10.22-1c0-1.41,2.79-.45,4.19-.67s4,2,4.36-.67-.51-2.35.5-2.68a20.58,20.58,0,0,0,2.51-1.17s-2.62-2.1-4-3c-1.23-.81-3.42-.77-3.85-2.18s.8-2.78,1.84-3.68c.8-.7,3.35-.34,3-1a10.57,10.57,0,0,0-2.35-3,17.26,17.26,0,0,0-5-2.17,25,25,0,0,0-5-1.34,24.53,24.53,0,0,0-4,0c-1.9.05-4-.45-5.7.33a8.75,8.75,0,0,0-4.19,4.19c-2.93,6.36-5.86,15.33-1.67,20.94Z" transform="translate(0 0)"/><path id="path6591" class="cls-4" d="M43.79,33.35c1.46-1.76,3.65-2.87,5-4.74.45-.64.49-1.5,1-2.13.62-.86,1.34-2.39,2.37-2.13,1.31.32.4,2.91,1.42,3.79a4.54,4.54,0,0,0,3.32.71c1-.1,2.32-.3,2.84-1.19.37-.61-.52-1.48-.23-2.13.21-.49-1.88-1,1.3-1,1.14,0,3.06.94,4.62.83,1.37-.1,5.15-1.12,3.91-1.3,1,1.95-3,3.27-4.62,4.74-.67.6-2.36.78-2.13,1.66s1.88.56,2.84.47a9.57,9.57,0,0,0,3.32-1.18c1-.52,1.72-1.7,2.84-1.9s2,.52,3.08.71,2.53,1.09,3.55.47a2.38,2.38,0,0,0,1-2.6c-.28-.76-1.56-.61-2.13-1.19s-2-1.79-1.42-2.6c.87-1.24,3,.67,4.5.71a14.18,14.18,0,0,1,2.13-.24c.18,0,.43.07.48.24.25.88-1.34,1.45-1.43,2.37-.12,1.34,1.84,2.5,1.43,3.79-.35,1.08-1.8,1.46-2.85,1.89a31.87,31.87,0,0,1-3.55.72,44.79,44.79,0,0,0-5.69,2.13c-.65.28-2,.24-1.89,1,.19,1.69,3.27,1.28,5,1.18,2.1-.12,3.83-2.11,5.93-2.13a6.65,6.65,0,0,1,2.84,1c1.44.69,2.45,2.34,4,2.6s3.12-1,4.74-1.18c1.17-.15,2.58-.69,3.55,0S96.52,39,95.91,40c-1.1,1.85-4.24.93-6.39,1-1.83,0-4.88-2.45-5.45-.71-.51,1.55,2.72,1.84,4.26,2.37a15.48,15.48,0,0,0,6.16.95,14.24,14.24,0,0,0,2.85-.95c.55-.17,1.25-.88,1.66-.47.75.76-.22,2.29-1,3.08-1,1.11-2.77,1.37-4.27,1.66a13,13,0,0,1-3.79,0c-1.77-.2-3.44-1-5.21-1.19a17.65,17.65,0,0,0-3.56,0,31.13,31.13,0,0,0-5,.95C74.8,47,73.46,47.8,72,48c-1.09.18-2.72.93-3.31,0-.71-1.1,2.29-2.41,1.65-3.55-.92-1.68-3.8-1-5.68-.71a10.56,10.56,0,0,0-4.74,2.36c-1.09.89-1.28,2.86-2.61,3.32-2.29.81-4.7-1.26-7.11-1.66-4.93-.8-12.76,3.09-14.92-1.42-2.25-4.68,5.2-9,8.53-13Z" transform="translate(0 0)"/><path id="path6593" class="cls-5" d="M47.72,39.18l5,1,4,1.34,4,.33,3.35-.33a2.51,2.51,0,0,1,1.68-1c1.34-.33.67-.33,2-.67a27.46,27.46,0,0,0,3-1l1-.67s0-.67-1.68-1-2.34-3.35-2.34-3.35a5.19,5.19,0,0,0-3.69-.33c-1.67.67-3.35,2-5.36,2.34s-6-.67-6-.67l-3,2Z" transform="translate(0 0)"/><path id="path6595" class="cls-6" d="M24.77,47.22l3.52-1.34,2.84,1.18a3,3,0,0,1,1.51-1.18c.84-.16,2.52.84,3.19.84s-3.69,0,2,.34,5.53,1,5.36.16-2.18-2.68.5-2.17l2.68.5,4-1,4.53,2.18,2,.17a18.78,18.78,0,0,1,3.85,1c.84.51,3.85.34.84.51s-2.52-1.18-4.19.5a8,8,0,0,1-4.36,2.51c-.83,0-2.68-.5-4.19-.5s-2.68-.34-3.35.17S44.37,52.92,43,52.59s-5-1.34-5-1.34H36.33l-3-.68a1.71,1.71,0,0,0-1-1.17,15.85,15.85,0,0,0-3-.5l-2-.17Z" transform="translate(0 0)"/><path id="path6597" class="cls-7" d="M54.26,38.85l9.55,1s3.51-1.84,4-1.67,3.35,1,3.35,1,3.68-.17,4.52-.33S82.4,38,82.4,38s4.36,2.34,5,2.34,8.88.84,8.88.84L107,42.87,96.81,44.21l-10.89-.34-5.69-.16-12.07,2-8-1.18L46.21,45.72Z" transform="translate(0 0)"/><path id="path6599" class="cls-8" d="M40,46.55c1.51,2.09,5.19.51,7.71,0,1.43-.28,2.57-1.6,4-1.67s2.85,1.19,4.36,1.34a10,10,0,0,0,3.35-.34c1.75-.43,3.25-1.67,5-2a27.15,27.15,0,0,1,5,0,21.65,21.65,0,0,0,3.69,0c2-.34,3.71-1.67,5.7-2,1.32-.22,3.21,1.07,4,0,.49-.65,3.57-.6,2.88-1-1.24-.79-6.51-.18-7.91-.63-.9-.3-6.89.33-3.79-2.25-.72-4.17-5.16,4-8.94,3.92-1.56,0-4.37-.12-4.36-1.67,0-1.31,2.88-.31,3.69-1.34s1-2.49.33-3.35c-.86-1-2.7-.08-4-.34-3.22-.64-6.58-1.3-9.38-3-1.08-.65-1.42-2.7-2.68-2.68-2.29,0-3.52,3.06-4.69,5C41.87,38.13,37.54,43.12,40,46.55Z" transform="translate(0 0)"/><path id="path6601" class="cls-9" d="M52.78,22.68c-2.63,0-3.28,5-5.9,5.23C45.67,28,45,26.11,43.79,26c-4.63-.43-8.44,4.33-13,5-1.81.25-3.65-.84-5.44-.48-2.18.43-7.88.45-7.35,2.62.38,1.53,5.68-1,6.15.47s-2.91,1.34-3.77,2.61c-.41.61.1,1.67-.48,2.12-2.18,1.7-4.12.79-6.87,1.07S3.58,37.22,3.5,40c0,1.4,2.74.65,4,1.21a7.62,7.62,0,0,1,2.38,1.41c.33.32.3,1,.7,1.18,2.25,1.18,5.07-.66,7.59-.48a23.47,23.47,0,0,1,5.68,1.2c2.65.89,4.94,2.68,7.59,3.55,1.15.38,2.86-.29,3.55.7.87,1.25-1.85,3.51-.71,4.5,1.43,1.25,3.58-1.38,5.45-1.65a19.21,19.21,0,0,1,5.46,0A21.47,21.47,0,0,1,50.42,53c1.41.55,2.62,1.55,4,2.13,2.75,1.14,5.61,3.07,8.55,2.61,2.18-.34,19.67-5.4,5.45-3.79-.41-2.52-1.77.54-7.36-2.14-1.36-.64-3.65,1-4.5-.24-.7-1,.32-2.64,1.18-3.55s3.2-.21,3.57-1.43c.27-.92-1-1.65-1.66-2.36-.84-.91-1.61-2.27-2.84-2.37-1.55-.12-2.69,1.6-4,2.37a8.92,8.92,0,0,1-2.59,1.43c-1.42.24-3.31.35-4.27-.73s.06-3-.25-4.5c-.13-.66-1-1.29-.7-1.88.89-1.64,3.65-.74,5.45-1.19,3.11-.77,6.18-1.68,9.25-2.61,2.22-.67,2.61-1.32,6.63-2.13.61-1.05,7.38-1.8,6.39-2.48s-9.8-.62-11.14-.36c-1.5.29-3,.68-4.49.95s-3.77,1.86-5,.7-.17-3.29.48-4.74c1.32-1.24,9.45,1.19.22-4ZM23.88,41.53l2.62.35,3.19,1.18,1.89.61,1.55.7-.6.58L31,44.6,28.73,44,27,42.94l-2.38-1.06Z" transform="translate(0 0)"/><path id="path6603" class="cls-5" d="M35.66,51.92c1.87.48,3.18,0,4.69,0s3-.23,4.36-.34a34.39,34.39,0,0,0,4-.33c1.4-.28,3.33-.56,4.35-1.35s2.32-1.34,1.68-2.68-4.24-.2-5.7-.67-1.79-1.15-3-1.67-3-1.48-4.36-1.34-2,1-3,1.67-1.47,2-3,2.68-5.61-1.44-6,.67,4.16,2.87,6,3.36Z" transform="translate(0 0)"/><path id="path6605" class="cls-10" d="M71.18,35.16l4,1.68,2.68-1.68,2.68.67,3.69,1.68,3,1a3.13,3.13,0,0,1-2.34.34c-1.34-.34-4.36-.67-4.36-.67l-4.36,2-2.68-.67-2.34-1.34Z" transform="translate(0 0)"/><path id="path6607" class="cls-11" d="M52.92,45.38l4.69-.33,3.35.67,5-.17,4.7-.67-4-.5s-2.51.16-3.51.33S59.45,44,58.61,44H56.1a8.35,8.35,0,0,0-3.18,1.34Z" transform="translate(0 0)"/><path id="path6609" class="cls-12" d="M55.09,27.79l1.68-1,.5-1.5,1.68.5.67.33v2H58.28l-1.85,1.34Z" transform="translate(0 0)"/><path id="path6611" class="cls-13" d="M70.51,43.71l4.69-.34,3.35.67,5-.17,4.69-.67-4-.5s-2.52.17-3.52.34-3.69-.67-4.53-.67H73.69a8.35,8.35,0,0,0-3.18,1.34Z" transform="translate(0 0)"/><path id="path6613" class="cls-13" d="M65.48,30.13l4.69-.33,3.35.67,5-.17,4.69-.67-4-.5s-2.51.17-3.52.33-3.68-.67-4.52-.67H68.66a8.35,8.35,0,0,0-3.18,1.34Z" transform="translate(0 0)"/><path id="path6615" class="cls-11" d="M51.07,51.58l4.69-.33,3.35.67,5-.17,4.69-.67-4-.51s-2.51.17-3.52.34-3.68-.67-4.52-.67H54.26a8.34,8.34,0,0,0-3.19,1.34Z" transform="translate(0 0)"/><path id="path6617" class="cls-13" d="M11.87,45.05l4.69-.34,3.35.67,5-.17,4.69-.67-4-.5s-2.52.17-3.52.34-3.69-.67-4.53-.67H15.05a8.35,8.35,0,0,0-3.18,1.34Z" transform="translate(0 0)"/><path id="path6619" class="cls-14" d="M30.8,37.17l2.68-1.67,1.84.16,3-1H42l2.84-.34-1.5,2.18L40.68,36l-3.18.67-2.85,1Z" transform="translate(0 0)"/></g></g></g></g><g id="path7070"><path class="cls-2" d="M27.69,75s5.64-11.61,6.45-15.31c.06-.3-.73-.71-4.57-.3s-4.21,1-4.29,1.24C24.34,64.34,27.69,75,27.69,75Z" transform="translate(0 0)"/><path class="cls-15" d="M27.48,75.17a.62.62,0,0,1,.06-.38l.07-.14.14-.28.27-.58.55-1.14,1.08-2.3q1.08-2.3,2.09-4.62c.67-1.56,1.32-3.12,1.86-4.71.14-.4.26-.8.36-1.21a.49.49,0,0,0,0-.12l0,0a.82.82,0,0,0-.23-.11,2.8,2.8,0,0,0-.59-.11,15,15,0,0,0-2.51,0c-.84.06-1.69.15-2.52.27a9,9,0,0,0-2.42.62c-.17.11-.32.22-.34.41l-.11.62a10.45,10.45,0,0,0-.05,1.26,21.43,21.43,0,0,0,.22,2.52A71.39,71.39,0,0,0,27.69,75Zm.21-.13a70.62,70.62,0,0,1-2.39-9.87,19.35,19.35,0,0,1-.25-2.53,10.94,10.94,0,0,1,0-1.28l.1-.64a.77.77,0,0,1,.43-.53,8.69,8.69,0,0,1,2.48-.67c.84-.14,1.68-.23,2.53-.31a14.54,14.54,0,0,1,2.56-.05,3.08,3.08,0,0,1,.65.12.83.83,0,0,1,.34.17.34.34,0,0,1,.11.24.68.68,0,0,1,0,.19,12.41,12.41,0,0,1-.35,1.23c-.53,1.63-1.17,3.2-1.82,4.76s-1.33,3.12-2,4.67L29,72.85,28.46,74l-.27.58-.13.29L28,75s0-.09-.08-.09Z" transform="translate(0 0)"/></g></svg>