<svg id="svg13195" xmlns="http://www.w3.org/2000/svg" xmlns:xlink="http://www.w3.org/1999/xlink" viewBox="0 0 110 119.77"><defs><style>.cls-1,.cls-2{fill:#fd5;}.cls-1,.cls-9{opacity:0.8;}.cls-1,.cls-10,.cls-11,.cls-12,.cls-13,.cls-14,.cls-2,.cls-7,.cls-8,.cls-9{isolation:isolate;}.cls-2{opacity:0.94;}.cls-3{fill:url(#radial-gradient);}.cls-4{fill:url(#linear-gradient);}.cls-5{fill:url(#linear-gradient-2);}.cls-6{fill:#520;fill-opacity:0;}.cls-10,.cls-11,.cls-12,.cls-13,.cls-7,.cls-8,.cls-9{fill:#fff;}.cls-7{opacity:0.85;}.cls-8{opacity:0.9;}.cls-10{opacity:0.95;}.cls-11,.cls-14{opacity:0.5;}.cls-12{opacity:0.67;}.cls-13{opacity:0.6;}.cls-14{fill:#dbe3e2;}</style><radialGradient id="radial-gradient" cx="538.09" cy="-519.07" r="50.51" gradientTransform="matrix(0.31, -0.01, -0.02, -0.48, -142.81, -206.05)" gradientUnits="userSpaceOnUse"><stop offset="0" stop-color="#ff0"/><stop offset="1" stop-color="#fea917"/></radialGradient><linearGradient id="linear-gradient" x1="572.89" y1="-914.34" x2="678.33" y2="-810.67" gradientTransform="matrix(0.34, 0, 0, -0.34, -172.82, -256.83)" gradientUnits="userSpaceOnUse"><stop offset="0" stop-color="#ff0"/><stop offset="1" stop-color="#ff0" stop-opacity="0"/></linearGradient><linearGradient id="linear-gradient-2" x1="651.98" y1="-756.96" x2="635.28" y2="-852.03" gradientTransform="matrix(0.34, 0, 0, -0.34, -172.82, -256.83)" gradientUnits="userSpaceOnUse"><stop offset="0" stop-color="#fff"/><stop offset="1" stop-color="#fff" stop-opacity="0"/></linearGradient></defs><g id="layer1"><g id="g5656"><path id="path5658" class="cls-1" d="M38.83.44l.66,15.27L37.86,6.28,39,15.86l-1.16-5.19-.73-4.74.48,3.61L36.06,2.61l2.1,12.57-2.1-7.55,1.1,6.22L33.34,2l3.4,12.85L33.82,7.23l1.65,6L31.39,4l3.85,11.86-2.75-5L31.55,9l.37.89-3.3-5.92,5.9,13.66-.27-.39-5-8.1,1.88,3.53-2.08-3,2.82,5.22L26.15,6.42l6.18,10.39-3.75-4.95,3.81,5.9L23.41,7l7.43,10.15-4.39-4.76,4.89,6.19-8.29-8.12,9,10.29L28.59,18l-8-6.45,10.35,9.75-8.59-5.52,1.16.92-.43-.27,2.88,2.24,1.33,1.07-8.85-5.07L27,20.92l-4.3-2.48,5.2,3.13.6.43L16.16,16.48,25.71,22,21,19.89l5.71,2.7,2.11,1.22L23,21.88,17.1,19.55l4.35,1.8-1.62-.55,3.67,1.68-2.72-.84,7.58,3.62-.58-.12L15.26,21.65l10,3-6-1.2,4.54,1.63L15.28,23.8l4.35,1.31-.18,0,.2,0,5.47,1.65-3.76-.17-2-.24,1.38.22-7-.31,12,2.31-.87,0-6.58-.14,4.56.25L18.57,29l5.32.5-9.5.3,13,0,.26,0-7.6,1.07,9-.44-8.41,1.14-1.2.15-6.07.82,14-1.4-8,2,6.29-1L21.37,33.5l-2.63.62,1.74-.36L16,35.14l12.54-2.58-8.42,2.83,6.15-1.87L15.57,38l12.8-4-8.48,3.84L29.05,34l-8.17,4.38,1.21-.51-5.32,2.75,8.64-4.16,3.64-1.55-6.64,4.36,8.32-4.65-13.8,9,13.39-8.18-7.65,6.18,5.43-3.79-4.84,4.32-.86.69.59-.44-2.76,2.45,11.43-8.86-7.39,7.59L26.1,42l-5.17,5.61,8.88-8.39,2.12-2L25,45.81l3.78-3.88-1.18,1.61-1.67,2.18.51-.58-3.24,4.47,8.66-9.86-.29.48-3.81,5.7,1.85-2.38-5.13,8.72,8.21-11.4L28.89,48l3.45-5.44-4.48,9.37L34.07,41l.83-1.42-3.77,9.27,1.45-2.95-3,8.25,6.2-13.77L32.65,50.6,35,44.43l-.31,1.25-1.27,4.7.33-1-1.34,5.34L35.92,44l-1.53,6.7,1.93-5.43L34.56,56.62l2.61-11.57-.94,7.13,1.22-4.84-.78,9,1.07-5.27-.06.9.25-1.86,1.13-5.62.09,13.34,1.5-14.09.85,8.88.14-7.35L42.8,56.18,41.7,42.73l1.49,8.2-.52-8L45.5,57,43.07,43.13,45.4,51.5l-.75-4.71L47.36,55,45,43.47l1.85,4.24,1,2.63-.56-1.72,2.92,6.7L46.08,42.1l.62,1.12,3.41,7.18-2-4.56,2.12,3.86-1.71-4.21,4.26,8L47,41.52l4.32,7.17-5.85-11L55.64,53.09,48.4,41.31l5.19,7-4.78-7.23,7.95,9.71-5.31-7.24,3.13,3.9L48.26,39l6.2,6.42-1.63-2.2L59.5,49.9,49.6,38.82l-.47-.63,7.46,6.38-2.71-3,3.61,3-2-1.81,4.52,3.48-7.6-7.68,10,6.26-9.62-8L58,39.37l2,1.13-1.19-.73.79.4L54,36.36l9.82,4.92L52.44,35.1l7.75,3.13L49.61,33.39l-1.06-.73,7,2.68,4.78,1.84-.58-.24,6.11,2.32L53.5,34.05l8.36,2.43-8.91-3,12.83,3-4.4-1.25-6.91-2.14,6,1-6.92-1.87L67.51,34,53.75,31.6l8,.54-5.52-.9,9.19.14L61.58,31l1.29,0-3.17-.24L52.89,30l5.28-.46,3.19-.14-1.13,0,6.45-.57L52,28.69l10.28-1.52-3.81.27,3.41-.64-4.32.39,8.2-1.65L53.91,27l7.6-1.87-5.35.75,10.23-3.17L54.25,25.45,62,22.69l-6.2,1.53,9.39-3.9-7.28,2.21,2.44-1-6.92,2.2,11.91-6.42L58,20.39l2.45-1.29-8,3.46.09-.06,10.62-6.27-4.77,2.36,1.53-1-7,3.71-2.56,1.27,8.07-5.77-1.76,1,1.34-1-.56.35,5.34-3.92L50.14,21.22,58,14.36l-1.74,1.27,1.31-1.15-6.24,4.79L60,10.83l-8.64,7L55.13,14,49,19.87l6.16-7.16-.39.38L59.07,8l-8.31,8.26,3.51-4.48-5.85,6.8,5.71-8.1L52.05,13,55.54,8l-8.3,10.69-.39.46,5-8.93-1.93,2.89,1.36-2.35L50,12.85l4.18-7.28-8,12.67,4.39-10-1.73,3.22L50,8.89l-3.3,6.4L50.94,4.16,45.74,15l2.13-6.3-2.38,5.67L49,2,44.61,13.88,46.22,7.1l-2.14,6.8,1.4-7.47-.81,3,1.2-6.38-2.16,8.21L44.43,7l-1,5.5-1.29,4.9L42.7,11,43,7.5l0,.22.59-6.3L42.13,10.2l.34-4.5-.55,5.83L41,17v-.59l.4-14.72-.35,7.4,0-2.7-.57,7.36L40,7.12l.27,10-.16,2.05L40,18.83,39.31,6.72l.12,3.18Z" transform="translate(0.74 -0.44)"/><path id="path5660" class="cls-2" d="M58.65,30.39c0,10.61-8.16,19.22-18.22,19.22S22.2,41,22.2,30.39s8.16-19.22,18.23-19.22S58.65,19.78,58.65,30.39Z" transform="translate(0.74 -0.44)"/><g id="g5662"><path id="path5664" class="cls-3" d="M56.12,29.84c0,9.19-7.07,16.64-15.78,16.64S24.56,39,24.56,29.84s7.07-16.63,15.78-16.63S56.12,20.66,56.12,29.84Z" transform="translate(0.74 -0.44)"/><path id="path5666" class="cls-4" d="M55.08,29.84c0,8.46-6.5,15.31-14.52,15.31S26.05,38.3,26.05,29.84s6.5-15.3,14.51-15.3S55.08,21.39,55.08,29.84Z" transform="translate(0.74 -0.44)"/><path id="path5668" class="cls-5" d="M55.08,29.84c0,8.46-6.5,15.31-14.52,15.31S26.05,38.3,26.05,29.84s6.5-15.3,14.51-15.3S55.08,21.39,55.08,29.84Z" transform="translate(0.74 -0.44)"/></g></g><g id="snowy"><rect id="rect6735" class="cls-6" y="9.77" width="110" height="110"/><g id="g6506"><g id="g5564"><path id="path5566" class="cls-7" d="M55,58.42c1.78,2.36,5.79,2.25,8.74,1.83,1.76-.25,3.09-1.74,4.7-2.49A21.16,21.16,0,0,1,73,55.93c3.84-.8,11.76-.33,11.76-.33S74.64,58,74.53,54.6c0-1.41,2.8-.45,4.2-.67s4,2,4.37-.66-.5-2.33.51-2.67a20,20,0,0,0,2.52-1.16s-2.63-2.08-4-3c-1.23-.81-3.43-.77-3.86-2.17s.81-2.76,1.85-3.66c.8-.68,3.36-.33,3-1a10.34,10.34,0,0,0-2.35-3,17.42,17.42,0,0,0-5-2.16,25.31,25.31,0,0,0-5-1.33,25.82,25.82,0,0,0-4,0c-1.91,0-4-.44-5.72.33a8.71,8.71,0,0,0-4.2,4.16C53.78,43.94,50.84,52.85,55,58.42Z" transform="translate(0.74 -0.44)"/><path id="path5568" class="cls-7" d="M43.87,38.49c1.47-1.74,3.67-2.84,5-4.7.45-.63.49-1.49,1-2.12.63-.85,1.34-2.37,2.38-2.12,1.31.32.4,2.89,1.42,3.77a4.56,4.56,0,0,0,3.33.7c1-.09,2.33-.29,2.85-1.17.37-.61-.53-1.47-.24-2.12.22-.49-1.87-1,1.31-.94,1.14,0,3.07.94,4.63.82,1.38-.1,5.17-1.11,3.93-1.29,1,1.94-3,3.24-4.64,4.7-.67.6-2.36.78-2.14,1.65s1.89.56,2.85.47A9.53,9.53,0,0,0,68.82,35c1-.51,1.73-1.68,2.85-1.89s2,.52,3.09.71,2.54,1.08,3.57.47a2.38,2.38,0,0,0,1-2.59c-.29-.75-1.57-.6-2.14-1.17s-2-1.79-1.43-2.59c.88-1.23,3,.67,4.52.7.71,0,1.43-.36,2.14-.23.17,0,.42.07.47.23.26.88-1.34,1.45-1.42,2.36-.13,1.33,1.84,2.48,1.42,3.76-.35,1.08-1.79,1.45-2.85,1.88a32.49,32.49,0,0,1-3.56.71,45.94,45.94,0,0,0-5.71,2.11c-.65.29-2,.25-1.9,1,.2,1.68,3.28,1.27,5,1.17,2.1-.11,3.84-2.09,5.94-2.12a6.78,6.78,0,0,1,2.85,1c1.45.68,2.46,2.32,4,2.58s3.14-1,4.76-1.17c1.18-.15,2.59-.68,3.56,0s1.79,2.29,1.19,3.29C95,46.92,91.89,46,89.73,46c-1.83,0-4.89-2.43-5.46-.7-.51,1.53,2.73,1.83,4.27,2.35a15.59,15.59,0,0,0,6.18.94,14,14,0,0,0,2.85-.94c.56-.17,1.26-.88,1.67-.47.75.76-.22,2.27-.95,3.06-1,1.1-2.78,1.36-4.28,1.64a13.08,13.08,0,0,1-3.8,0c-1.78-.19-3.45-1-5.23-1.17a17.65,17.65,0,0,0-3.56,0,30.08,30.08,0,0,0-5,.94c-1.46.37-2.8,1.17-4.28,1.41-1.1.17-2.73.92-3.33,0-.7-1.1,2.3-2.39,1.66-3.53-.92-1.66-3.81-1-5.7-.71A10.7,10.7,0,0,0,60,51.2c-1.09.88-1.28,2.83-2.62,3.29-2.3.8-4.72-1.26-7.12-1.65-4.95-.8-12.8,3.06-15-1.41-2.25-4.64,5.23-9,8.56-12.94Z" transform="translate(0.74 -0.44)"/><path id="path5570" class="cls-8" d="M47.82,44.28l5,1,4,1.33,4,.34,3.36-.34a2.53,2.53,0,0,1,1.68-1c1.35-.33.68-.33,2-.66a28,28,0,0,0,3-1l1-.66s0-.67-1.68-1S68,39,68,39a5.22,5.22,0,0,0-3.7-.33c-1.68.66-3.36,2-5.37,2.33s-6-.67-6-.67l-3,2Z" transform="translate(0.74 -0.44)"/><path id="path5572" class="cls-9" d="M24.8,52.27l3.52-1.33,2.86,1.16a2.94,2.94,0,0,1,1.51-1.16c.84-.17,2.52.83,3.2.83s-3.7,0,2,.33,5.55,1,5.38.17-2.19-2.66.5-2.16l2.69.49,4-1L55,51.77l2,.17a18.66,18.66,0,0,1,3.86,1c.84.5,3.87.34.84.5s-2.52-1.16-4.2.5a8,8,0,0,1-4.37,2.5c-.84,0-2.69-.5-4.2-.5s-2.69-.33-3.36.16-1.17,1.83-2.52,1.5-5-1.33-5-1.33H36.39l-3-.66a1.72,1.72,0,0,0-1-1.17,15.91,15.91,0,0,0-3-.5l-2-.16Z" transform="translate(0.74 -0.44)"/><path id="path5574" class="cls-9" d="M54.37,44,64,45s3.53-1.83,4-1.66,3.36,1,3.36,1,3.7-.16,4.54-.33,6.72-.83,6.72-.83,4.37,2.33,5,2.33,8.91.83,8.91.83l10.75,1.66L97.05,49.27l-10.92-.33-5.72-.16-12.09,2-8.07-1.16-14,1.16Z" transform="translate(0.74 -0.44)"/><path id="path5576" class="cls-9" d="M40.09,51.6c1.5,2.07,5.2.5,7.73,0,1.42-.28,2.57-1.59,4-1.66s2.85,1.18,4.37,1.33a10.33,10.33,0,0,0,3.36-.33c1.76-.43,3.26-1.66,5-2a27.37,27.37,0,0,1,5,0,21.77,21.77,0,0,0,3.7,0c2-.34,3.72-1.66,5.71-2,1.32-.23,3.22,1.06,4,0,.49-.65,3.58-.6,2.89-1-1.24-.79-6.53-.17-7.93-.63-.9-.29-6.91.33-3.8-2.23-.72-4.14-5.18,4-9,3.9-1.56,0-4.38-.12-4.37-1.67,0-1.3,2.89-.3,3.7-1.33s1.06-2.47.34-3.33c-.87-1-2.71-.07-4-.33-3.23-.64-6.6-1.29-9.41-3-1.08-.66-1.42-2.69-2.69-2.66-2.29,0-3.53,3-4.7,5C42,43.24,37.6,48.19,40.09,51.6Z" transform="translate(0.74 -0.44)"/><path id="path5578" class="cls-10" d="M52.89,27.9c-2.63,0-3.29,5-5.92,5.19-1.21.1-1.9-1.78-3.1-1.89-4.64-.43-8.46,4.3-13.08,4.94-1.81.25-3.65-.83-5.45-.48-2.19.44-7.9.45-7.37,2.6.38,1.52,5.7-1,6.17.47s-2.93,1.33-3.79,2.6c-.41.59.1,1.65-.48,2.09-2.18,1.69-4.13.79-6.89,1.07s-9.44-2.16-9.51.58c0,1.39,2.75.64,4,1.2a7.5,7.5,0,0,1,2.39,1.39c.33.33.3,1,.71,1.18,2.25,1.17,5.08-.65,7.61-.48a23.63,23.63,0,0,1,5.7,1.2c2.65.88,4.95,2.65,7.61,3.52,1.15.37,2.86-.29,3.55.7.87,1.24-1.85,3.47-.7,4.46,1.43,1.24,3.58-1.36,5.47-1.64a19.58,19.58,0,0,1,5.46,0A22.55,22.55,0,0,1,50.52,58c1.42.55,2.63,1.54,4,2.12,2.75,1.13,5.62,3,8.56,2.59,2.2-.34,19.73-5.36,5.47-3.76-.41-2.5-1.77.53-7.38-2.12-1.36-.65-3.66,1-4.51-.25-.71-1,.32-2.62,1.18-3.52s3.21-.21,3.58-1.42c.28-.92-1-1.64-1.66-2.35C59,48.41,58.18,47.06,57,47c-1.56-.12-2.7,1.59-4.06,2.35a8.49,8.49,0,0,1-2.6,1.42C48.87,51,47,51.08,46,50s.06-3-.25-4.47c-.14-.65-1-1.28-.71-1.87.9-1.62,3.66-.72,5.47-1.17,3.12-.77,6.2-1.68,9.28-2.6,2.23-.66,2.62-1.3,6.65-2.12.61-1,7.4-1.78,6.4-2.46S63,34.71,61.69,35c-1.51.29-3,.69-4.51.95s-3.78,1.85-5,.7-.17-3.27.47-4.71c1.33-1.23,9.49,1.18.23-4Zm-29,18.72,2.62.34,3.2,1.18,1.89.6,1.56.7-.6.57L31,49.66l-2.27-.57L27,48l-2.39-1Z" transform="translate(0.74 -0.44)"/><path id="path5580" class="cls-8" d="M35.72,56.93c1.87.48,3.19,0,4.7,0s3-.23,4.37-.34a34.38,34.38,0,0,0,4-.33c1.41-.27,3.35-.55,4.37-1.33s2.33-1.33,1.68-2.66-4.25-.2-5.71-.67-1.79-1.14-3-1.66-3-1.47-4.37-1.33-2,1-3,1.66-1.48,2-3,2.66-5.62-1.43-6,.67,4.17,2.84,6,3.33Z" transform="translate(0.74 -0.44)"/><path id="path5582" class="cls-8" d="M71.34,40.29l4,1.67,2.69-1.67,2.69.67,3.7,1.66,3,1a3.19,3.19,0,0,1-2.35.33c-1.35-.33-4.37-.66-4.37-.66l-4.37,2-2.69-.66-2.35-1.33Z" transform="translate(0.74 -0.44)"/><path id="path5584" class="cls-11" d="M53,50.44l4.71-.33,3.36.66,5-.17,4.71-.66-4-.5s-2.52.17-3.53.33-3.69-.66-4.53-.66H56.22A8.44,8.44,0,0,0,53,50.44Z" transform="translate(0.74 -0.44)"/><path id="path5586" class="cls-12" d="M55.21,33l1.68-1,.5-1.49,1.68.5.68.33v2H58.4l-1.85,1.33Z" transform="translate(0.74 -0.44)"/><path id="path5588" class="cls-11" d="M70.67,48.78l4.7-.34,3.36.67,5-.17,4.71-.66-4-.5s-2.52.16-3.53.33-3.7-.67-4.54-.67H73.86a8.34,8.34,0,0,0-3.19,1.34Z" transform="translate(0.74 -0.44)"/><path id="path5590" class="cls-11" d="M65.63,35.3l4.7-.33,3.36.66,5-.16,4.71-.67-4-.5s-2.52.17-3.53.34S72.18,34,71.34,34H68.82a8.37,8.37,0,0,0-3.19,1.33Z" transform="translate(0.74 -0.44)"/><path id="path5592" class="cls-11" d="M51.18,56.59l4.7-.33,3.36.67,5-.17L69,56.09l-4-.49s-2.53.16-3.53.33-3.7-.67-4.54-.67H54.37a8.37,8.37,0,0,0-3.19,1.33Z" transform="translate(0.74 -0.44)"/><path id="path5594" class="cls-11" d="M11.86,50.11l4.7-.34,3.36.67,5-.17,4.71-.66-4-.5s-2.52.16-3.53.33-3.7-.66-4.54-.66H15.05a8.37,8.37,0,0,0-3.19,1.33Z" transform="translate(0.74 -0.44)"/><path id="path5596" class="cls-13" d="M30.84,42.29l2.69-1.67,1.85.17,3-1H42.1L45,39.46l-1.51,2.16-2.69-.5-3.19.67-2.86,1Z" transform="translate(0.74 -0.44)"/></g><path id="path6386" class="cls-14" d="M35.56,79.71c-.2.13-.13.14-.64-.08l-.53-.24c-.1,0-.15,0-.31,0l-.13.06.09.06.23.15.6.39.05.09,0,.07-.11.07a.29.29,0,0,1-.18.07,2.39,2.39,0,0,1-.49-.14l-.33-.14a5.09,5.09,0,0,1-.51-.21c-.08,0-.08,0-.2,0S33,80,33,80l.12.07.24.17.16.11a2.34,2.34,0,0,1-.3.14,2.64,2.64,0,0,0-.29.15.83.83,0,0,0,.26.21l.63-.1c.83-.15.82-.15.92-.08s.15.11.11.19-.12.11-.51.25l-.48.18s-.06,0-.06,0a1.29,1.29,0,0,0,.27.25l.16,0,.28,0,.5-.1a.34.34,0,0,1,.33.06c0,.05.06.06,0,.11s-.08.16-.44.29a2.69,2.69,0,0,0-.35.14l.21.19c.25.23.28.27.28.42v.12L35,82.8c-.2.11-.2.11-.47-.06a1,1,0,0,0-.24-.14,1.85,1.85,0,0,0,0,.37v.37l-.06.07-.06.07-.1,0c-.14,0-.19-.07-.2-.11s-.06-.35-.1-.58c-.08-.57-.07-.55-.14-.6A.73.73,0,0,0,33.4,82s0,.2,0,.45c0,.67,0,.61-.06.7l-.07.08-.12,0c-.09,0-.12,0-.14-.11a10,10,0,0,1-.24-1.19c-.06-.34-.06-.35-.15-.39l-.13-.09-.06-.05v.23c0,.13,0,.25,0,.28s0,.17,0,.18-.16-.07-.41-.26l-.14-.09a.86.86,0,0,0,0,.26.21.21,0,0,0,0,.11.79.79,0,0,1,.12.13l.15.17a1.85,1.85,0,0,0,.14.14l.27.3c.33.36.33.36.3.55s0,.08-.09.11a.25.25,0,0,1-.14,0,2.19,2.19,0,0,1-.55-.39,1.61,1.61,0,0,0-.31-.24s0,0,0,.06,0,.12,0,.18,0,.12,0,.16l.13.15.16.19a4.71,4.71,0,0,1,.42.48.41.41,0,0,1,0,.27s-.21.13-.21.11,0,0,0,0a3.15,3.15,0,0,1-.41-.34L31.57,84V84a2.89,2.89,0,0,0,0,.29c0,.11,0,.22,0,.24a.9.9,0,0,1-.28.18s-.09,0-.22-.14l-.09-.07v-.6l-.22.11-.26.15-.12.07c-.07,0-.08,0-.18,0s-.17-.06-.16-.19,0-.09.46-.51l.38-.33.1-.1V83a.56.56,0,0,0,0-.2l-.09,0-.17.1-.38.24-.29.18h-.1c-.11,0-.14,0-.14-.17s0-.09,0-.11l.12-.11.15-.14c.09-.07.86-.77.88-.8a.49.49,0,0,0,0-.19c0-.14,0-.15,0-.15l-.12,0c-.08,0-.41.2-.42.2a2.15,2.15,0,0,1,0-.58c0-.07,0-.07,0-.07a.51.51,0,0,0-.27.11s-.13.37-.26.77l-.23.73-.12.06-.12,0-.09-.09c-.09-.08-.09-.08-.07-.19a1.38,1.38,0,0,1,0-.26l.08-.43c0-.15.05-.28.05-.28a1.5,1.5,0,0,0-.33.12,1.14,1.14,0,0,0-.1.23c0,.12-.07.23-.08.25s-.06.17-.11.34-.15.41-.2.41l-.08,0s0,0-.14,0-.09-.09-.09-.14a3.6,3.6,0,0,1,.09-.5.72.72,0,0,0,0-.24l-.11,0-.12,0L28,82.3a.74.74,0,0,1-.18.06,1,1,0,0,1-.3-.08l-.07,0V82.1c0-.15,0-.21.12-.24a.34.34,0,0,0,.11-.07l.21-.12a.48.48,0,0,0,.13-.09.11.11,0,0,0-.05,0l-.5-.29a.39.39,0,0,1-.18-.22c0-.09,0-.09.13-.18s.09,0,.2,0l.13,0,.17.06.41.16a2,2,0,0,0,.32.11A.85.85,0,0,0,29,81a3.29,3.29,0,0,0-.66-.38c-.28-.14-.31-.16-.34-.23s0-.14.09-.21.17-.08.44,0,.16,0,.17,0,.08,0,.06,0a0,0,0,0,0,0,.05l.08,0,.44.16a1.66,1.66,0,0,0,.46.13c.13,0,.32-.18.23-.18l-.12-.08-.26-.19a.54.54,0,0,1-.15-.13s0,0,.08,0l.53-.23s0,0-.06-.11a.83.83,0,0,0-.16-.13c-.08,0-.12,0-1.13.18l-.4.07a.54.54,0,0,1-.16-.06c-.09,0-.1-.07-.09-.11s.05-.14.15-.17l.16-.07.11,0,0,0s0,0,0,0,.07,0,.13,0l.3-.11a.65.65,0,0,0,.18-.09,2.17,2.17,0,0,0-.25-.23.18.18,0,0,0-.15,0,6.33,6.33,0,0,0-.63.16c-.41.11-.41.11-.51.07s-.15-.08-.12-.19,0-.11.47-.29l.31-.13s0-.07-.26-.24-.23-.2-.23-.41v-.17l.12,0c.26-.06.28-.06.46,0s.24.13.27.17l0,0a1.91,1.91,0,0,0,0-.37v-.36l.09-.1c.1-.12.14-.13.23-.08s.12.11.14.31.13.76.16.9.05.07.16.14l.16.1s0-.59,0-.84l0-.12.11-.11c.11-.13.15-.14.27-.08s.11.1.14.36.06.37.13.76.08.49.1.52l.14.09c.13.08.14.08.14.06a.69.69,0,0,1,0-.19c0-.09,0-.22,0-.29l0-.14s.12,0,.33.17.21.15.22.13a.37.37,0,0,0,0-.14c0-.11,0-.13,0-.18s-.07-.1-.11-.15-.12-.17-.21-.28-.21-.3-.3-.41l-.19-.25a.26.26,0,0,1-.06-.28l0-.11h.13c.16,0,.18,0,.57.39a2.23,2.23,0,0,0,.32.28.22.22,0,0,0,.05-.12.35.35,0,0,0,0-.32.17.17,0,0,1,0-.07l-.22-.4c-.12-.22-.22-.42-.23-.45A.32.32,0,0,1,31,76c0-.09.05-.1.1-.11a.29.29,0,0,1,.25,0,5.38,5.38,0,0,1,.39.47s.07.07.08,0a.89.89,0,0,0,.08-.21c.11-.32.1-.31.38-.4l.11,0,.11.11a.64.64,0,0,1,.11.16.52.52,0,0,1,0,.21c0,.09-.05.19-.06.22l0,.11s0,0,0,0l.18-.05a.39.39,0,0,0,.14,0h.06l.19,0,.16,0,.06.07a.28.28,0,0,1,.07.31c0,.12-.06.14-.16.15L33,77a4.17,4.17,0,0,1-.7.24s0,0-.06.16a.43.43,0,0,0,0,.17s0,0,.08,0l.61-.3c.17-.08.22-.1.28-.09s.16.06.17.16,0,.17-.14.26l-.53.37c-.46.33-.56.41-.58.49a.4.4,0,0,0,0,.19v.1l.07,0,.12,0,.21-.1.18-.07s0,.08,0,.17,0,.19,0,.3,0,.21,0,.21a.63.63,0,0,0,.29-.1.68.68,0,0,0,.12-.24.52.52,0,0,1,.06-.14c0-.1.18-.43.31-.78s.12-.3.23-.34.17,0,.24,0,.07.13,0,.46c0,.15-.07.3-.07.34a1.72,1.72,0,0,0,0,.18c-.05.19-.05.2.08.15l.13-.06s.1-.16.22-.48l.12-.33.06-.15c0-.11.06-.13.14-.17s.2-.07.28,0,.08.07,0,.49-.08.35,0,.34l.23-.08.25-.07a.55.55,0,0,1,.27.13l.06.05,0,.12c0,.12-.09.22-.14.22l-.11,0-.23.12-.14.08a3.71,3.71,0,0,0,.32.22c.32.2.34.23.38.38s0,.06-.06.09Z" transform="translate(0.74 -0.44)"/><path id="path6388" class="cls-14" d="M46.07,77.4c0-.16,0-.12.23-.37l.28-.26c.06,0,.07-.07.07-.19v-.09l-.06,0-.15.1-.4.26h-.11l0-.08a.18.18,0,0,1,0-.13,1.44,1.44,0,0,1,.22-.26l.17-.16.27-.26s0,0,0-.12,0-.13,0-.09,0,0-.07,0l-.17.1c-.05,0-.1.07-.11.06v-.43a.68.68,0,0,0-.21.1s-.05.2-.11.41c-.14.54-.13.54-.2.58s-.11.06-.14,0,0-.11,0-.38,0-.3,0-.34,0,0,0,0a1,1,0,0,0-.22.09.39.39,0,0,0,0,.11l0,.18a2.61,2.61,0,0,0-.08.33.23.23,0,0,1-.13.19s0,0-.07,0-.08-.09-.06-.35a1.77,1.77,0,0,0,0-.24l-.18.07c-.2.09-.23.09-.32,0l-.08,0V76.2c0-.15,0-.15.16-.26l.15-.11a1.32,1.32,0,0,0-.22-.12l-.21-.1,0-.06,0-.06,0,0c.07-.07.1-.09.12-.09l.38.1c.36.11.34.11.39.08l.13-.07a.87.87,0,0,0-.26-.13c-.41-.18-.37-.16-.4-.23l0-.06.06-.06s.06-.06.1-.06a5.9,5.9,0,0,1,.77.18c.22.06.23.06.28,0a.28.28,0,0,1,.09-.06l0,0L45.8,75l-.16-.08c-.06,0-.1,0-.1-.07s.09-.08.26-.18l.09-.06a.85.85,0,0,0-.13-.1.11.11,0,0,0-.08,0l-.11,0-.14,0-.13,0-.25.08c-.3.11-.31.11-.41,0s0,0,0-.09a.2.2,0,0,1,0-.09,1.73,1.73,0,0,1,.39-.22,1.3,1.3,0,0,0,.23-.13l0,0-.11,0c-.05,0-.06,0-.1,0l-.13,0-.15,0a2.42,2.42,0,0,1-.41.12.2.2,0,0,1-.15-.09.27.27,0,0,1,0-.15h0a1.74,1.74,0,0,1,.31-.16l.16-.07,0,0-.16-.11-.13-.09a.37.37,0,0,1,0-.21s0,0,.14-.1l.06,0,.18.08.18.09s0-.08,0-.17a1.67,1.67,0,0,1,0-.19s0-.07,0-.1,0-.06,0-.12.08-.08.16,0,0,0,.17.42c0,.13.08.27.1.32l0,.09.11.06.12,0a.23.23,0,0,0,0-.07s0-.09,0-.13,0-.18,0-.3l0-.22,0-.06c0-.06.06-.07.14,0s.05,0,.05,0l0,.11,0,.13c0,.07.22.72.24.75s0,0,.09.07.09,0,.1,0a.19.19,0,0,0,0-.08c0-.07,0-.31,0-.32a1.64,1.64,0,0,1,.33.18s0,0,.06,0a.35.35,0,0,0,0-.2s-.19-.18-.39-.37l-.37-.34v-.17l.07,0c.08,0,.08,0,.14,0l.14.1.24.17.15.1a.79.79,0,0,0,0-.23.74.74,0,0,0-.11-.12,1.2,1.2,0,0,1-.12-.12l-.18-.16c-.15-.14-.21-.2-.19-.23v-.06s0,0,.07-.07.08,0,.11,0l.27.18c.09.06.13.1.14.09s0,0,0-.08a.54.54,0,0,1,0-.08v-.1a.38.38,0,0,1,0-.12.46.46,0,0,1,.13-.16l0,0,.08,0c.09,0,.12.08.11.14s0,.06,0,.09a.61.61,0,0,1,0,.15.63.63,0,0,0,0,.11l.05,0,.31-.23a.34.34,0,0,1,.17,0c.07,0,.07,0,.08.13a.15.15,0,0,1,0,.13s0,.07-.06.07l-.08.08-.21.21-.15.17a.63.63,0,0,0,0,.24,2.15,2.15,0,0,0,.41-.3c.16-.12.18-.14.23-.14s.09,0,.1.11,0,.13-.13.27-.07.08,0,.1,0,.06,0,0,0,0,0,0,0,0,0,0l-.22.22a1.17,1.17,0,0,0-.2.24c0,.09,0,.25,0,.19l.09,0,.18-.11c.06,0,.11-.06.12,0a.11.11,0,0,1,0,.06c0,.09,0,.36,0,.39s0,0,.08,0l.12-.06s.06-.07.21-.73c0-.13.06-.25.07-.27s0,0,.08-.08.07,0,.08,0a.15.15,0,0,1,.07.14.53.53,0,0,0,0,.12v.08a0,0,0,0,0,0,0s0,0,0,0a.55.55,0,0,0,0,.09s0,.14,0,.21a1,1,0,0,0,0,.14l.21-.09a.1.1,0,0,0,.06-.08,3.81,3.81,0,0,0,.08-.43c0-.28,0-.28.1-.33s.09-.07.14,0,.06,0,.05.37c0,.11,0,.21,0,.22s.06,0,.22-.1.18-.08.3,0l.1.05,0,.08c0,.18,0,.18-.14.27a.78.78,0,0,1-.18.12s0,0,0,0l.22.1.22.09,0,.08c0,.1,0,.13,0,.16s-.1,0-.23,0l-.58-.15s-.06,0-.13.05l-.1.07a4,4,0,0,0,.51.21l.07,0,0,.09c0,.11,0,.13,0,.19s-.08,0-.25,0l-.49-.14c-.32-.08-.31-.08-.33-.07a.16.16,0,0,0-.09.05c-.09.06-.09.07-.08.07l.11.06.17.1.08,0s0,.07-.2.15-.14.09-.14.1l.08.05c.06,0,.07,0,.12,0l.11,0,.23,0,.33-.07L49,75a.15.15,0,0,1,.18,0l.06,0,0,.08c0,.1-.05.11-.38.24a1.3,1.3,0,0,0-.26.12.11.11,0,0,0,.06.06.24.24,0,0,0,.2.07h.05a1.3,1.3,0,0,0,.3,0,2.08,2.08,0,0,1,.33,0,.14.14,0,0,1,.09.05s0,.06,0,.1a.17.17,0,0,1-.1.13l-.39.11s-.06,0,0,0a.66.66,0,0,0,.1.11c.16.16.16.15.14.34v.08l-.1,0-.13,0L49,76.5l-.11-.11-.06,0s0,0,0,0a.74.74,0,0,1,0,.12l0,.09v0a.86.86,0,0,0,0,.13l0,.11-.07,0a.17.17,0,0,1-.19,0c-.07-.06-.07-.07,0-.13s0-.09,0-.13a3.09,3.09,0,0,1,.05-.49s0,0-.08-.08l-.1-.05a.22.22,0,0,0,0,.06c0,.08,0,.27,0,.44s0,.17,0,.2-.08.08-.14.06-.1,0-.12-.16,0-.23-.08-.42c-.07-.37-.09-.45-.13-.49l-.1-.06-.07,0v.13a.62.62,0,0,0,0,.16.5.5,0,0,1,0,.13s-.06,0-.11,0l-.16-.11-.13-.07a.64.64,0,0,0,0,.2.38.38,0,0,0,.11.14.4.4,0,0,0,.07.07c0,.06.2.23.37.41s.15.16.14.23,0,.12-.08.14-.1,0-.27-.13l-.18-.14-.1-.07c-.1-.09-.1-.09-.11,0v.09s.07.1.22.26l.16.17a.59.59,0,0,1,.08.08.15.15,0,0,1,.06.13c0,.1,0,.14-.09.17s-.06,0-.28-.15-.19-.15-.2-.12,0,.09,0,.17a1.09,1.09,0,0,1,0,.17.39.39,0,0,1-.15.13l-.05,0-.06,0c-.07,0-.11-.11-.1-.14s0,0,0-.08v-.17a.75.75,0,0,1,0-.11l-.22.13c-.21.14-.23.15-.33.13s0,0,0-.06Z" transform="translate(0.74 -0.44)"/><path id="path6390" class="cls-14" d="M43.83,63c0,.1,0,.09-.27.14l-.26,0s-.06,0-.1.09l0,0h.51l0,0,0,0,0,0a.11.11,0,0,1-.05.08.63.63,0,0,1-.22.07l-.16,0-.24,0s0,0-.07.07,0,.07,0,.06h.28s0,.07-.07.13l-.07.13.15,0,.21-.21c.28-.27.27-.27.33-.27s.08,0,.09,0,0,.07-.13.23l-.13.19,0,0a.51.51,0,0,0,.17,0l.05-.06a.38.38,0,0,0,.09-.09,1.25,1.25,0,0,0,.16-.17.16.16,0,0,1,.15-.06s0,0,0,0,0,.08-.09.22l-.1.15.13,0c.16,0,.17,0,.22.08l0,0,0,.06c0,.09,0,.09-.19.1h-.13l.09.15.09.14v.08l-.05,0c-.06,0-.09,0-.1,0s-.11-.11-.19-.19-.17-.18-.21-.18-.1,0-.1,0l.11.16c.18.25.16.23.16.28v0l-.05,0s-.06,0-.08,0a3,3,0,0,1-.4-.38c-.11-.11-.11-.12-.16-.11s0,0-.07,0h0l.06.09.07.11s0,.06,0,.07-.07,0-.22,0a.14.14,0,0,0-.07,0,.34.34,0,0,0,0,.11l0,0h.08l.1,0,.09,0,.18,0c.21,0,.22,0,.25.12a0,0,0,0,1,0,.07l-.05,0a.69.69,0,0,1-.31,0H43.2a0,0,0,0,0,0,0l0,.07s0,0,.06,0l.09,0,.11,0,.28.07a.24.24,0,0,1,.06.11.23.23,0,0,1-.05.1,0,0,0,0,0,0,0s-.07,0-.24,0l-.12,0v0l.06.12,0,.1a.35.35,0,0,1-.06.14h-.17l-.07-.11-.08-.11a.39.39,0,0,0-.05.1.43.43,0,0,0-.06.12.33.33,0,0,0,0,.06s0,0-.06.06-.08,0-.11,0,0,0,0-.31c0-.09.05-.19.06-.23v-.06l0-.08s0-.07-.06-.07l0,0a.63.63,0,0,1,0,.09s0,.11-.08.19l-.06.14,0,0c-.05,0-.06,0-.1,0s0,0,0,0,0,0,0-.08a.94.94,0,0,1,0-.09s.12-.51.12-.53a.28.28,0,0,0,0-.08c0-.06,0-.06,0,0s0,0,0,0a1.39,1.39,0,0,1-.11.19.77.77,0,0,1-.13-.23s0,0,0,0a.23.23,0,0,0-.07.11s0,.17.1.36l.1.33,0,.06,0,0h-.06s0,0-.07,0l-.06-.11-.08-.18a.55.55,0,0,0,0-.12.43.43,0,0,0-.09.13s0,0,0,.11a.62.62,0,0,1,0,.11.75.75,0,0,1,0,.16c0,.14.05.2,0,.21l0,0s0,0-.06,0-.06,0-.08,0l-.09-.21,0-.1s0,0,0,0l0,0a.3.3,0,0,0,0,.06l-.05.07-.14.05h0l0-.05c0-.06,0-.1,0-.13a.08.08,0,0,0,0,0l0-.1a.25.25,0,0,1,0-.07h0l-.26,0a.24.24,0,0,1-.12,0s0,0,0-.11a.11.11,0,0,1,.07-.06l.06,0,.08,0,.19,0,.15,0s.09-.14.08-.15a1.51,1.51,0,0,0-.34,0c-.14,0-.16,0-.19,0s0,0,0-.1,0-.07.17-.11.07,0,.06,0,0,0,0,0h.06l.21-.06a.6.6,0,0,0,.2-.07s.07-.15,0-.13h-.3l0,0a2.65,2.65,0,0,1,.14-.23s0,0,0,0h-.1s0,0-.37.36c-.06.07-.12.13-.14.13l-.07,0c-.05,0-.06,0-.06,0a.09.09,0,0,1,0-.11l0-.06,0,0s0,0,0,0h0l0,0,.08-.12.05-.08-.16,0a.07.07,0,0,0-.06,0l-.2.23c-.12.15-.12.15-.17.16s-.08,0-.09,0,0,0,.1-.23l.08-.13s0,0-.16,0-.14,0-.19-.1l0-.06,0,0c.09-.1.09-.1.19-.11h.16l-.09-.14-.1-.14v0c0-.08,0-.09.06-.1s.07,0,.14.08l.29.3h.18a2.86,2.86,0,0,0-.23-.31l0,0v-.07c0-.08,0-.1.09-.1s.06,0,.14.09l.25.26.17.16h.14l0-.08a.67.67,0,0,1-.06-.12.15.15,0,0,1,0-.05s.05,0,.16,0h.12a.11.11,0,0,0,0-.06s0,0-.06-.06l-.07,0-.16,0-.21-.07-.14,0a.11.11,0,0,1-.1-.08l0,0,0,0c.06-.05.07-.05.31,0l.2,0,0-.06c0-.06,0-.1-.09-.11l0,0L41.37,63l-.21-.11a.24.24,0,0,1,0-.07s0-.05,0-.06a.14.14,0,0,1,.11-.05l.27.07s0,0,0,0l0-.1c0-.15,0-.14,0-.25l0,0h.07l.08,0a.26.26,0,0,1,0,.09l0,.1,0,0s0,0,0,0l.06-.07,0,0,0,0,.06-.06.05-.06h0a.13.13,0,0,1,.1.1c0,.06,0,.07,0,.1a.13.13,0,0,0,0,.07,1.7,1.7,0,0,1-.21.27s0,0,0,.08L42,63l0,0,.15-.27c0-.08.06-.1.08-.11a.09.09,0,0,1,.11,0s0,.06,0,.13a2,2,0,0,1-.1.28c-.09.25-.1.3-.09.34a.13.13,0,0,0,0,.07l0,0v0l0,0,.06-.09s0-.08,0-.08,0,0,.05.06l.06.12c0,.05,0,.09.05.09a.52.52,0,0,0,.08-.11.43.43,0,0,0,0-.12.56.56,0,0,1,0-.07l-.09-.38c0-.14,0-.14,0-.19s0,0,.1,0,.06,0,.11.18,0,.13.06.14a.59.59,0,0,1,0,.08c0,.09,0,.09.06,0l0,0a.91.91,0,0,0,0-.24l0-.15a.45.45,0,0,0,0-.08.11.11,0,0,1,0-.1c0-.06.06-.08.11-.06s0,0,.12.18.06.16.07.14l.07-.09.08-.09a.17.17,0,0,1,.13,0h0l0,.05a.17.17,0,0,1,0,.12s0,0,0,.05l-.06.1,0,.07h.17c.18,0,.19,0,.25,0s0,0,0,.05Z" transform="translate(0.74 -0.44)"/><path id="path6394" class="cls-14" d="M37.93,94.41c-.13-.19-.14-.13,0-.64.09-.25.17-.49.19-.53s0-.15,0-.29l-.07-.13,0,.09-.13.23c-.07.14-.32.59-.34.62l-.08,0-.06,0-.08-.1a.31.31,0,0,1-.08-.18,2,2,0,0,1,.1-.48s.06-.19.11-.34.11-.34.17-.51,0-.08,0-.2-.1-.15-.1-.09a.3.3,0,0,1-.06.11l-.14.25a.74.74,0,0,1-.1.16,1.25,1.25,0,0,1-.15-.28,1.71,1.71,0,0,0-.16-.27,1,1,0,0,0-.19.27s.06.29.14.61c.2.8.2.78.14.89s-.1.15-.17.12-.11-.11-.28-.48l-.2-.45,0-.06a1,1,0,0,0-.23.28s0,.08,0,.15l.07.27a4.71,4.71,0,0,0,.13.48.34.34,0,0,1,0,.33s-.05.06-.1,0-.16-.06-.31-.41a2.67,2.67,0,0,0-.15-.32,1.25,1.25,0,0,0-.18.21c-.2.26-.23.29-.38.3H35l-.07-.11c-.11-.19-.11-.18,0-.45a1.8,1.8,0,0,0,.12-.25h-.36l-.35,0-.08-.06-.07,0,0-.1c0-.14,0-.18.09-.2l.55-.13c.54-.12.51-.11.56-.18a1.3,1.3,0,0,0,.12-.19l-.42,0c-.65.06-.59.06-.68,0l-.08-.06,0-.12c0-.09,0-.12.09-.15a9.67,9.67,0,0,1,1.13-.31c.31-.08.33-.08.36-.17l.08-.14,0-.06h-.48c-.1,0-.17,0-.18,0a1.48,1.48,0,0,1,.21-.42c0-.07.09-.14.08-.14a.61.61,0,0,0-.25,0,.16.16,0,0,0-.1,0l-.12.12-.15.16-.13.14-.26.29c-.33.34-.33.35-.52.33s-.07,0-.1-.09a.24.24,0,0,1,0-.12,2.46,2.46,0,0,1,.35-.57,2.33,2.33,0,0,0,.21-.32s0,0-.06,0H34.4c-.09,0-.11,0-.15,0l-.13.15a1.36,1.36,0,0,0-.17.17,5.1,5.1,0,0,1-.44.43.39.39,0,0,1-.26,0s-.14-.2-.12-.2a0,0,0,0,0,0,0,2.64,2.64,0,0,1,.3-.42l.15-.2h-.07l-.28,0-.23,0a.7.7,0,0,1-.19-.26s0-.1.11-.23l.06-.09h.3l.29,0-.13-.2-.16-.25a.59.59,0,0,0-.08-.11c0-.07,0-.08,0-.18s.06-.17.18-.17.08,0,.51.42c.14.14.29.3.35.35l.1.09h.19a.44.44,0,0,0,.18,0,.19.19,0,0,0,0-.08,1.16,1.16,0,0,0-.11-.16l-.25-.36-.19-.26v-.1c0-.12,0-.14.15-.16s.09,0,.11,0l.12.11.14.14c.07.08.79.78.83.8l.18,0c.14,0,.14,0,.14,0a.25.25,0,0,0,0-.11c0-.08-.23-.4-.23-.41a2.23,2.23,0,0,1,.56,0c.07,0,.07,0,.07,0a.49.49,0,0,0-.13-.26l-.75-.2-.72-.18-.06-.11-.06-.11.08-.09c.07-.09.07-.09.18-.09l.25,0,.41.06.28,0a2.27,2.27,0,0,0-.13-.3.77.77,0,0,0-.23-.08L35,88.06,34.66,88c-.3-.08-.41-.12-.41-.17a.27.27,0,0,0,0-.07s0-.06,0-.15.09-.09.14-.09a3.13,3.13,0,0,1,.48,0,.65.65,0,0,0,.24,0l0-.1a1.22,1.22,0,0,0-.06-.12L35,87.22a1.12,1.12,0,0,1-.08-.17.93.93,0,0,1,.06-.3l0-.08h.13c.15,0,.21,0,.25.1a.34.34,0,0,0,.07.11,1.06,1.06,0,0,1,.13.18l.09.13s0,0,0,0,.22-.46.25-.51a.39.39,0,0,1,.19-.19c.09,0,.09,0,.19.11a.22.22,0,0,1,0,.2.49.49,0,0,1,0,.13.94.94,0,0,0,0,.17c0,.08-.08.27-.12.41a1.14,1.14,0,0,0-.08.32.77.77,0,0,0,.18.31,3.43,3.43,0,0,0,.31-.67c.12-.28.14-.31.21-.35s.12,0,.2.08.09.16,0,.43,0,.16,0,.17.05.07,0,.06,0,0,0,0a.19.19,0,0,1,0,.07s-.07.23-.13.45a2,2,0,0,0-.09.45c0,.13.2.3.19.22a.57.57,0,0,1,.07-.13c0-.06.12-.18.17-.27a.67.67,0,0,1,.11-.15l.05.07c0,.12.23.48.25.51s0,0,.1-.07a.57.57,0,0,0,.11-.16c0-.08,0-.12-.24-1.09-.05-.18-.09-.36-.1-.39a.47.47,0,0,1,0-.16c0-.09.06-.1.09-.1s.14.05.18.14l.08.15.05.11s0,0,0,0,0,0,0,0,0,.07,0,.13l.13.28a.67.67,0,0,0,.1.17,1.58,1.58,0,0,0,.2-.26.16.16,0,0,0,0-.14,5.65,5.65,0,0,0-.19-.61c-.14-.39-.14-.4-.1-.49s.06-.16.17-.13.11,0,.31.44a2.83,2.83,0,0,0,.15.29s.06,0,.21-.27.17-.24.38-.25h.16l0,.12c.08.25.08.27,0,.45a1.53,1.53,0,0,1-.14.28l0,0,.35,0,.35,0,.1.08c.12.09.13.13.09.22s-.1.12-.29.16l-.85.22s-.07,0-.13.15a1.65,1.65,0,0,0-.08.17,6.25,6.25,0,0,0,.8-.09l.12,0,.11.09c.14.11.15.15.09.27s-.08.11-.33.16l-.72.17c-.48.12-.47.12-.49.14a.64.64,0,0,0-.08.14c-.06.14-.07.14,0,.14a1,1,0,0,1,.18,0h.43s0,.12-.15.33-.13.22-.11.22l.14,0c.1,0,.12,0,.17,0l.13-.11.26-.22.37-.32.23-.21a.23.23,0,0,1,.26-.08l.11,0,0,.12c0,.16,0,.18-.33.59a2.66,2.66,0,0,0-.26.33.31.31,0,0,0,.12,0,.38.38,0,0,0,.31-.06l.06,0,.38-.24.41-.26a.47.47,0,0,1,.16,0c.08,0,.09,0,.11.1a.27.27,0,0,1,0,.24,3.82,3.82,0,0,1-.42.42s-.06.06,0,.07l.21.07c.32.09.31.08.41.34l0,.11-.1.11a.41.41,0,0,1-.14.12.6.6,0,0,1-.21,0l-.22,0-.1,0s0,0,0,0a.54.54,0,0,1,.06.18.7.7,0,0,0,0,.13s0,0,0,0,0,.11,0,.19l.05.15-.07.07a.27.27,0,0,1-.29.08c-.12,0-.14-.05-.16-.14a.77.77,0,0,0-.07-.17,4.45,4.45,0,0,1-.27-.67s0,0-.16,0h-.16s0,0,0,.08.19.35.32.57.11.21.11.27-.05.16-.15.18-.16,0-.26-.12l-.39-.49c-.34-.43-.43-.52-.51-.54a.47.47,0,0,0-.17,0l-.11,0,0,.06.06.11a1.19,1.19,0,0,0,.1.2l.09.17s-.08,0-.17,0l-.29,0h-.21a.81.81,0,0,0,.12.28,1,1,0,0,0,.24.1s.07,0,.14,0,.43.15.77.25.3.1.34.21,0,.16,0,.23-.12.08-.45,0l-.32,0-.18,0c-.19,0-.19,0-.13.09a.54.54,0,0,0,.06.13,1.6,1.6,0,0,0,.47.17l.32.1.16.05a.23.23,0,0,1,.17.13c.08.13.08.19,0,.27s-.07.08-.47,0-.34-.06-.33,0a1.08,1.08,0,0,0,.09.23,1.59,1.59,0,0,1,.08.23.5.5,0,0,1-.1.28l-.05.06-.12,0c-.11,0-.21-.07-.21-.11l-.06-.11-.13-.21a.44.44,0,0,0-.09-.14l-.18.33c-.18.33-.2.35-.34.4s-.06,0-.1,0Z" transform="translate(0.74 -0.44)"/><path id="path6396" class="cls-14" d="M42.53,85.36c.12-.14.07-.13.48-.09l.43,0c.09,0,.12,0,.21-.09l.08-.07-.08,0-.19-.05-.53-.14,0,0,0,0,0-.07c.05-.06.08-.09.12-.1a1.49,1.49,0,0,1,.38,0l.27,0,.41,0c.06,0,.06,0,.13-.07s.1-.1.06-.09-.05,0-.1,0L44,84.47l-.14,0a1,1,0,0,1,.18-.17,2.25,2.25,0,0,0,.17-.17.82.82,0,0,0-.24-.1l-.42.23c-.55.3-.54.29-.63.27s-.13,0-.12-.1.06-.11.3-.31a2.6,2.6,0,0,1,.3-.23s0,0,0,0a.71.71,0,0,0-.25-.11l-.1.06-.19.1-.33.19a.23.23,0,0,1-.25,0c-.05,0-.05,0-.05-.06s0-.14.24-.31l.21-.18a.62.62,0,0,0-.19-.09c-.23-.1-.25-.12-.29-.23l0-.09.06-.07c.12-.13.12-.13.35-.07a.64.64,0,0,0,.21,0s0-.12-.08-.27l-.08-.26,0-.07,0-.06h.08c.11,0,.15,0,.17,0l.2.39c.19.38.18.37.24.39l.17,0s0-.14-.1-.31c-.17-.48-.16-.43-.12-.52l0-.07h.09a.16.16,0,0,1,.13,0,7.84,7.84,0,0,1,.44.79c.12.23.13.24.2.25a.2.2,0,0,1,.11,0l.06,0,0-.17a1.29,1.29,0,0,0-.06-.2c0-.07,0-.12,0-.13s.13,0,.35.08l.12,0a.68.68,0,0,0,0-.19.11.11,0,0,0-.06-.07l-.11-.06-.14-.09-.14-.07L44,82.43c-.32-.18-.32-.18-.34-.33s0-.06,0-.1l.09,0a1.58,1.58,0,0,1,.48.15l.28.1a0,0,0,0,0,0,0s0-.09,0-.13,0-.09-.07-.11l-.13-.07-.16-.1c-.16-.08-.38-.22-.41-.24a.28.28,0,0,1,0-.2.38.38,0,0,1,.12-.13s0,0,0,0l.37.14.18.08v0s0-.13,0-.21,0-.17,0-.18.12-.19.15-.2.07,0,.19,0l.08,0,.06.21.07.22.13-.14.15-.16.07-.08c0-.05,0-.06.12-.07s.13,0,.16.1,0,.06-.21.47a2.74,2.74,0,0,0-.19.33l-.05.09,0,.14,0,.13s0,0,.05,0a1.09,1.09,0,0,0,.1-.11l.22-.26.16-.2h.07c.09,0,.11,0,.14.08a.1.1,0,0,1,0,.09.48.48,0,0,0-.06.11l-.08.13c0,.07-.43.75-.44.78s0,.08,0,.14,0,.11.06.1a.32.32,0,0,0,.07-.06l.26-.24a2.35,2.35,0,0,1,.11.42s0,0,0,0a.41.41,0,0,0,.17-.14,5.42,5.42,0,0,0,0-.61v-.57l.07-.07.07-.07.08,0c.09,0,.09,0,.1.12s0,.13,0,.2l0,.32a.83.83,0,0,0,0,.21,2,2,0,0,0,.2-.16.56.56,0,0,0,0-.19v-.46c0-.24,0-.33,0-.34l0,0s0,0,.11,0,.09,0,.1.08a3,3,0,0,1,.05.37.8.8,0,0,0,0,.19l.07-.05.07-.06.08-.08a.29.29,0,0,1,.11-.08.57.57,0,0,1,.23,0h.07l0,.1c0,.11,0,.16,0,.2a.24.24,0,0,0-.06.08.68.68,0,0,1-.12.13.78.78,0,0,0-.08.1l0,0,.42.08a.33.33,0,0,1,.18.11c0,.06,0,.06,0,.16s-.05.06-.13.06h-.57a1,1,0,0,0-.25,0,.92.92,0,0,0-.2.19,2.28,2.28,0,0,0,.56.12c.23,0,.26,0,.3.08s.05.09,0,.17-.11.1-.31.1-.13,0-.13,0,0,0-.05,0a0,0,0,0,0,0,0h-.41a1.31,1.31,0,0,0-.35,0c-.09.06-.19.21-.13.19l.11,0,.23.07.13,0s0,0,0,0L46.4,84s0,0,.07.07l.14.05c.07,0,.1,0,.76-.39l.27-.15a.31.31,0,0,1,.13,0c.07,0,.09,0,.09,0a.16.16,0,0,1-.07.16l-.09.08-.07.06s0,0,0,0,0,0,0,0l-.09.06-.18.15-.11.1a.81.81,0,0,0,.23.11.14.14,0,0,0,.11,0l.42-.26c.26-.18.26-.18.34-.17s.12,0,.13.1,0,.09-.27.32l-.18.16s0,.05.24.11.2.09.25.24l0,.12-.07,0c-.18.1-.19.11-.34.08l-.23,0h0a1.26,1.26,0,0,0,.08.26l.09.26,0,.09c0,.1-.07.12-.14.11s-.11,0-.18-.19-.27-.51-.32-.59,0,0-.14-.07l-.14,0a4.44,4.44,0,0,0,.22.59l0,.09-.05.1c0,.12-.08.14-.18.12s-.09,0-.18-.22l-.27-.51c-.18-.34-.17-.33-.19-.34l-.12,0c-.11,0-.12,0-.11,0s0,.07,0,.14,0,.17,0,.22l0,.1s-.09,0-.27,0-.19-.06-.19,0a.51.51,0,0,0,0,.1c0,.08,0,.09.07.12l.11.08a2,2,0,0,0,.22.15l.3.22.2.13a.2.2,0,0,1,.11.18v.09l-.09,0c-.11,0-.13,0-.5-.13a1.35,1.35,0,0,0-.29-.13.22.22,0,0,0,0,.1.29.29,0,0,0,.1.22l0,0,.25.23a2.48,2.48,0,0,1,.26.27.14.14,0,0,1,0,.12c0,.06,0,.08,0,.1a.26.26,0,0,1-.19,0s-.2-.12-.39-.24c0,0-.06,0-.06,0A.63.63,0,0,0,46,87c0,.25,0,.25-.18.37l-.07.05-.1-.05a.33.33,0,0,1-.12-.09.47.47,0,0,1,0-.16.76.76,0,0,0,0-.17v-.08s0,0,0,0a.41.41,0,0,1-.12.08l-.09.06s0,0,0,0a.57.57,0,0,0-.13.07l-.1.07-.07,0a.22.22,0,0,1-.11-.21c0-.09,0-.11.07-.14l.11-.09c.09-.07.4-.31.45-.33s0,0,0-.13a.91.91,0,0,0,0-.12.09.09,0,0,0-.06,0l-.36.35c-.1.1-.14.12-.18.13a.14.14,0,0,1-.16-.07c0-.08,0-.12,0-.22l.29-.39c.25-.34.3-.42.3-.48a.35.35,0,0,0,0-.14l0-.07,0,0a.46.46,0,0,1-.07.07l-.13.11-.1.1s0-.05-.06-.12,0-.13,0-.22,0-.15,0-.16a.73.73,0,0,0-.18.14.49.49,0,0,0,0,.2.59.59,0,0,1,0,.11c0,.09,0,.36,0,.63s0,.25-.08.3-.11.07-.18,0-.08-.07-.1-.33a2.1,2.1,0,0,0,0-.25s0-.09,0-.14,0-.15-.09-.08-.08.06-.08.07a1.19,1.19,0,0,0,0,.39c0,.12,0,.24,0,.26v.13c0,.08,0,.1-.06.15s-.13.09-.21,0-.07,0-.1-.35,0-.27,0-.25l-.15.11-.16.11a.46.46,0,0,1-.22,0l-.06,0v-.09c0-.09,0-.18,0-.19s0,0,.06-.06l.14-.14.08-.09a1.6,1.6,0,0,0-.27-.08c-.28-.07-.3-.08-.36-.18s0,0,0-.08Z" transform="translate(0.74 -0.44)"/><path id="path6398" class="cls-14" d="M55.14,63.64c.09.07.08,0,.09.3v.27c0,.05,0,.07.07.12l.05,0v0a.69.69,0,0,1,0-.13c0-.07,0-.32,0-.33l0,0,0,0,.05,0a.11.11,0,0,1,.06.06.7.7,0,0,1,0,.24v.16c0,.14,0,.18,0,.26s0,0,0,.08.07.06.06,0,0,0,0-.06,0-.09,0-.14,0-.08,0-.08.05,0,.11.1l.12.09a.83.83,0,0,0,0-.15l-.17-.25c-.22-.33-.21-.32-.2-.38s0-.08,0-.08.07,0,.21.17l.16.17,0,0a.85.85,0,0,0,.06-.17s0,0-.05-.06a.52.52,0,0,1-.07-.11L56,63.55a.18.18,0,0,1,0-.15s0,0,0,0,.08,0,.21.13.12.13.12.12l0-.12c0-.15.06-.17.13-.2l0,0,0,0c.09.07.09.06.07.21s0,.13,0,.13l.16-.06.15-.06H57v.05c0,.07,0,.09,0,.1l-.22.15c-.23.15-.22.14-.23.18s0,.1,0,.1l.19-.08c.28-.13.25-.12.3-.1h.05V64s0,.06,0,.08a4.24,4.24,0,0,1-.45.33c-.14.08-.14.09-.14.13s0,.06,0,.08v0l.1,0,.11-.05s.07,0,.08,0a.51.51,0,0,1,0,.23s0,.07,0,.07.09,0,.11,0l0,0a.41.41,0,0,1,0-.08l0-.09,0-.09.07-.17c.09-.21.09-.21.18-.24s0,0,.06,0a.09.09,0,0,1,0,.06,1,1,0,0,1-.06.31l0,.18h0l.08,0s0,0,.06,0a.23.23,0,0,1,0-.09l0-.1a1.71,1.71,0,0,1,.13-.27.22.22,0,0,1,.12-.05l.08.07s0,0,0,0a1.48,1.48,0,0,1-.07.24l0,.11h0l.13,0,.11,0s.12.06.13.08a.39.39,0,0,1,0,.12v0l-.13.06-.13,0s0,0,.09.07L58,65l.06,0s0,0,0,.07,0,.08-.05.1,0,0-.3-.1l-.21-.1-.06,0-.08,0-.08,0,0,0,.08,0,.17.12.13.08v0c0,.05,0,.07,0,.1h0l-.07,0-.09,0-.5-.22-.09,0c-.06,0-.06,0,0,0s0,0,0,0l.17.15a1.45,1.45,0,0,1-.25.09s0,0,0,0,.07.1.1.1l.37,0,.35,0,0,0,0,0,0,.06s0,0-.07.07l-.11,0-.2,0-.12,0a.9.9,0,0,0,.1.11h.24l.17,0c.14,0,.2,0,.21,0l0,0s0,0,0,.07,0,0,0,.06l-.23.06-.11,0s0,0,0,0,0,0,0,0l0,0s.06,0,.06.06a.34.34,0,0,1,0,.15v0l-.06,0c-.06,0-.1,0-.12,0l-.05,0-.09-.07-.06,0s0,0,0,0,0,.24,0,.27a.14.14,0,0,1-.06.12s0,0-.1,0,0,0,0-.08a.23.23,0,0,1,0-.07.37.37,0,0,0,0-.08s0-.13,0-.21a.4.4,0,0,0,0-.15s-.12-.12-.13-.11a1.29,1.29,0,0,0,0,.35c0,.15,0,.17,0,.19s0,0-.1,0-.06-.06-.08-.19,0-.07,0-.07,0,0,0,0,0,0,0,0v0l0-.22a.76.76,0,0,0,0-.22s-.14-.1-.12-.06a.32.32,0,0,1,0,.07s0,.09,0,.14,0,.09,0,.09a.07.07,0,0,1,0,0L56.2,66s0,0,0,0a.37.37,0,0,0,0,.09s0,.06.28.45c.06.07.1.14.11.15a.11.11,0,0,1,0,.08s0,.06,0,.06-.07,0-.1,0l-.06,0,0,0,0,0h0l0,0-.11-.11-.07-.06s0,.1,0,.15a.06.06,0,0,0,0,.07,2.58,2.58,0,0,0,.19.24c.12.15.12.15.12.2s0,.08-.05.09-.06,0-.22-.15L56,67s0,0,0,.16,0,.13-.13.17l-.07,0,0,0c-.08-.1-.08-.1-.08-.2a.52.52,0,0,1,0-.15v0l-.15.07-.15.07h-.06c-.07,0-.08,0-.08-.09s0-.07.11-.12l.34-.24s0,0,0-.09l0-.09a3,3,0,0,0-.35.18l-.05,0-.07,0c-.07,0-.08,0-.08-.1s0-.06.12-.13l.3-.2.2-.14a.32.32,0,0,1,0-.08v-.07l-.08,0-.13,0h-.07s0,0,0-.17a.56.56,0,0,0,0-.12l-.07,0c-.05,0-.05,0-.07.05a.17.17,0,0,1,0,.07l-.08.15-.11.2-.07.13a.12.12,0,0,1-.1.08h-.06l0-.05c0-.07,0-.08.05-.32a1.38,1.38,0,0,0,.06-.19H55a.17.17,0,0,0-.13.08s0,0,0,0a1.87,1.87,0,0,0-.13.17l-.14.18-.08,0s-.05,0-.06,0a.11.11,0,0,1,0-.12,1,1,0,0,1,.12-.25s0,0,0-.05h-.1c-.16,0-.15,0-.24-.09l0,0,0-.06s0-.08,0-.08l.09,0h.16s0,0,0,0l0-.07,0,0,0,0a.8.8,0,0,0-.06-.08l0-.06,0,0a.14.14,0,0,1,.11-.09c.06,0,.07,0,.1,0l.06.07a1.69,1.69,0,0,1,.23.25s0,0,.08,0l.07,0s0,0,0,0l-.23-.2c-.07-.06-.09-.08-.1-.1a.09.09,0,0,1,0-.11s.07,0,.13,0l.26.15c.23.14.28.16.32.16l.08,0,0,0,0,0s0,0,0,0l-.08-.08s-.07,0-.07-.06,0,0,.07,0l.13,0,.1,0-.1-.1h-.19a2.82,2.82,0,0,0-.39,0c-.14,0-.15,0-.19,0s0-.07,0-.11,0-.06.2-.09l.15,0,.08,0c.09,0,.1,0,.05-.06l-.05,0h-.48a.12.12,0,0,1-.1,0s-.06-.07,0-.12,0,0,.21-.09.16,0,.15-.05l-.08-.08a.48.48,0,0,1-.08-.1.28.28,0,0,1,0-.13v0h.06c.06,0,.11,0,.12,0l0,0,.09.07.06,0a.57.57,0,0,0,0-.18c0-.17,0-.19.09-.23s0,0,0,0Z" transform="translate(0.74 -0.44)"/><path id="path6400" class="cls-14" d="M35.29,75.52c.08-.18,0-.16.48-.26l.48-.11c.1,0,.13,0,.2-.17l.06-.11h-.32l-.62,0-.07,0,0,0,0-.11a.42.42,0,0,1,.09-.14,1.55,1.55,0,0,1,.41-.15l.3-.08.45-.11c.07,0,.07,0,.13-.11s.06-.15,0-.12h-.53a2,2,0,0,1,.13-.25,2.43,2.43,0,0,0,.13-.24,1,1,0,0,0-.29,0l-.38.39c-.49.52-.48.52-.59.52s-.15,0-.17-.07,0-.13.23-.43l.23-.36,0-.06a1.06,1.06,0,0,0-.31,0,.88.88,0,0,0-.1.1l-.16.18a4,4,0,0,0-.29.32.29.29,0,0,1-.26.13c-.06,0-.07,0-.08-.06s0-.15.15-.42a1.21,1.21,0,0,0,.17-.27l-.24,0c-.28,0-.32,0-.4-.15l-.06-.08,0-.1c.08-.18.08-.17.35-.19l.24,0a2.71,2.71,0,0,0-.18-.27l-.17-.25v-.16l.08,0c.12,0,.16,0,.19,0a4.76,4.76,0,0,1,.36.35c.34.34.32.33.39.33a.58.58,0,0,0,.2,0s-.09-.14-.22-.31c-.34-.46-.31-.41-.3-.51v-.09l.1,0a.22.22,0,0,1,.16,0s.33.29.75.7c.2.2.22.21.3.19h.2l-.11-.17-.13-.19c-.06-.06-.08-.12-.07-.14a1.14,1.14,0,0,1,.41,0h.14a.75.75,0,0,0-.1-.2.1.1,0,0,0-.08,0l-.14,0-.19,0-.17,0-.33-.06c-.41-.08-.41-.08-.49-.23s0-.06,0-.12a.2.2,0,0,1,.08-.08,1.7,1.7,0,0,1,.57,0h.34a.1.1,0,0,0,0-.06.62.62,0,0,1-.08-.12c0-.08-.06-.09-.11-.09l-.17,0-.2,0a3.67,3.67,0,0,1-.53-.12.37.37,0,0,1-.12-.2s.08-.19.09-.17h0a1.88,1.88,0,0,1,.45,0l.21,0,0-.06-.12-.21a1.36,1.36,0,0,0-.09-.18.68.68,0,0,1,.1-.27.51.51,0,0,1,.22,0h.1l.14.21.15.21a1.15,1.15,0,0,0,.09-.19l.11-.23,0-.12c0-.07,0-.07.11-.11s.14,0,.2,0,0,0-.07.58c0,.17-.08.36-.09.42l0,.12.09.14a.44.44,0,0,0,.1.13L37,71l.06-.16.15-.35.1-.27.08,0c.08-.05.11,0,.18,0s0,.06,0,.09,0,.08,0,.14,0,.14,0,.17-.2,1-.2,1,0,.08.06.14.07.11.1.09l.06-.08a3.63,3.63,0,0,1,.19-.36,2.1,2.1,0,0,1,.26.42s0,0,.07,0a.43.43,0,0,0,.13-.22s-.09-.32-.2-.66l-.21-.62.06-.09,0-.1H38c.1,0,.1,0,.15.1a1.23,1.23,0,0,1,.1.2l.16.33a1,1,0,0,0,.11.22,1.66,1.66,0,0,0,.16-.24.7.7,0,0,0,0-.21l-.06-.21-.1-.3c-.08-.25-.1-.35-.07-.38a.15.15,0,0,0,0-.06s0,0,.12,0,.11,0,.14.06a3.72,3.72,0,0,1,.18.38,1.05,1.05,0,0,0,.1.19s0,0,.06-.08l.06-.09a.42.42,0,0,0,.06-.12l.09-.13a.66.66,0,0,1,.25-.09h.07l.06.09c.06.11.07.17,0,.23a.37.37,0,0,0,0,.11,1.08,1.08,0,0,1-.07.18.81.81,0,0,0-.06.13h.06l.49-.06a.32.32,0,0,1,.23.06c.07,0,.07,0,0,.19s0,.07-.12.11a.29.29,0,0,1-.11,0l-.15,0-.36.1a1.29,1.29,0,0,0-.28.09.92.92,0,0,0-.14.28,4.39,4.39,0,0,0,.64-.08c.26,0,.3,0,.35,0s.09.07,0,.19-.08.14-.3.22-.13.05-.13.07,0,.07,0,0,0,0,0,0l-.06,0-.39.12a1.56,1.56,0,0,0-.38.14c-.07.09-.12.29-.06.24h.39a.45.45,0,0,1,.17,0,.17.17,0,0,1,0,.07l-.26.43s0,0,.1,0a.48.48,0,0,0,.17,0c.08,0,.11,0,.69-.69l.24-.25a.34.34,0,0,1,.14,0c.08,0,.11,0,.12,0a.18.18,0,0,1,0,.2l-.08.13,0,.08s0,0,0,0,0,0,0,0,0,0-.07.09l-.15.23c0,.08-.09.14-.08.15l.28,0s.07,0,.12-.06a4.43,4.43,0,0,0,.36-.42C41,72,41,72,41.06,72s.14,0,.17.07,0,.09-.17.44a1.63,1.63,0,0,0-.14.24s0,0,.29,0,.26,0,.36.17l.08.12-.07.08c-.15.17-.16.18-.34.21a1,1,0,0,1-.26,0h0s.08.12.18.26l.19.24V74c0,.13,0,.17-.12.17s-.13,0-.25-.13-.47-.46-.56-.54-.07,0-.18,0H40a6.37,6.37,0,0,0,.44.56l.07.08v.13c0,.14,0,.17-.15.19s-.12,0-.28-.17-.22-.23-.46-.46-.3-.3-.33-.3a.63.63,0,0,0-.14,0c-.13,0-.14,0-.12,0l.08.14.12.21a.67.67,0,0,1,.06.11s-.09,0-.31,0-.22,0-.22,0l.06.11c0,.08.06.09.11.1l.15,0,.28.09.41.13.26.07a.23.23,0,0,1,.18.16l0,.09-.08.07c-.11.09-.13.09-.59,0a2.7,2.7,0,0,0-.36,0s0,.06,0,.11a.28.28,0,0,0,.18.2l.06,0,.35.17a2.43,2.43,0,0,1,.38.19.22.22,0,0,1,.07.12c0,.07,0,.09,0,.12a.22.22,0,0,1-.2.09,3.74,3.74,0,0,1-.5-.12s-.07,0-.08,0a1.33,1.33,0,0,0,.05.19c.09.28.09.27-.06.47l0,.07-.13,0c-.07,0-.15,0-.16,0a.44.44,0,0,1-.08-.16L39,76.15l0-.08s0,0,0,0a.91.91,0,0,1-.1.13l-.08.09a.09.09,0,0,1,0,0l-.11.12-.09.11-.08,0a.26.26,0,0,1-.2-.18c0-.1,0-.12,0-.18a.85.85,0,0,0,.1-.14,4.33,4.33,0,0,1,.36-.51s0,0,0-.14a.43.43,0,0,0-.08-.12s0,0,0,.06l-.26.5c-.08.15-.11.19-.15.21s-.14,0-.2,0-.08-.12,0-.25l.17-.52c.16-.46.19-.57.16-.64a.38.38,0,0,0-.08-.13l0-.07,0,.06a2.27,2.27,0,0,1-.15.27.65.65,0,0,1-.09.14s-.07,0-.1-.11l-.11-.22a.74.74,0,0,0-.1-.16,1,1,0,0,0-.14.21.91.91,0,0,0,0,.23.77.77,0,0,1,0,.12c0,.1.09.39.17.7s.07.27,0,.34-.1.12-.17.11-.12-.06-.23-.32-.1-.24-.12-.27l-.06-.15c-.06-.15-.07-.16-.13,0a.41.41,0,0,0-.06.1s0,.16.09.44a2.49,2.49,0,0,1,.07.29.49.49,0,0,1,0,.14.19.19,0,0,1,0,.18c-.06.12-.1.15-.21.13s-.08,0-.22-.35S36.53,76,36.5,76l-.12.17a1.1,1.1,0,0,1-.14.17.43.43,0,0,1-.24.06h-.07l0-.1c0-.09,0-.18,0-.21l.05-.09s.06-.13.1-.2.06-.12,0-.13l-.32,0c-.33,0-.35,0-.45-.07s0,0,0-.1Z" transform="translate(0.74 -0.44)"/><path id="path6402" class="cls-14" d="M29.35,72c-.22-.1-.19,0-.29-.57,0-.27-.1-.52-.1-.56s-.05-.15-.19-.24l-.12-.07v.37c0,.16,0,.68,0,.71l0,.09,0,.06-.12,0a.4.4,0,0,1-.16-.1,2.77,2.77,0,0,1-.15-.48s0-.19-.07-.35a4.6,4.6,0,0,1-.11-.53c0-.08,0-.08-.13-.15s-.17-.08-.13,0a.52.52,0,0,1,0,.13v.3a.9.9,0,0,1,0,.18,1.68,1.68,0,0,1-.28-.16l-.27-.16a1,1,0,0,0,0,.34s.2.22.43.45c.57.59.57.58.57.71s0,.18-.09.19-.15,0-.48-.28l-.41-.29-.06,0a1.51,1.51,0,0,0-.06.36l.12.12c.05,0,.14.13.19.19s.23.24.35.35a.33.33,0,0,1,.14.31c0,.07,0,.07-.07.09s-.17,0-.47-.2a1.45,1.45,0,0,0-.3-.2s0,.12,0,.27c0,.33-.06.37-.18.46l-.1.07-.11-.06c-.2-.1-.2-.1-.21-.41a1.4,1.4,0,0,0,0-.28l-.31.19-.29.2h-.19l0-.1c0-.14-.05-.19,0-.22s.24-.24.41-.4c.41-.38.39-.36.4-.44a.75.75,0,0,0,0-.23,3.66,3.66,0,0,0-.36.24c-.53.38-.48.35-.59.33h-.1l0-.11c0-.1,0-.13,0-.18a10.25,10.25,0,0,1,.82-.85c.24-.23.25-.24.24-.34a.81.81,0,0,1,0-.16v-.07l-.19.12a1.77,1.77,0,0,0-.22.14c-.08.07-.14.09-.17.08a1.47,1.47,0,0,1,0-.48.46.46,0,0,0,0-.16l-.23.1a.17.17,0,0,0-.06.1.62.62,0,0,1,0,.16,1.74,1.74,0,0,0-.05.22c0,.06,0,.14,0,.19l-.09.38c-.11.47-.11.48-.28.56s-.07,0-.14,0a.27.27,0,0,1-.09-.1,2.52,2.52,0,0,1,0-.66c0-.21,0-.38,0-.39s0,0-.07,0l-.14.09c-.09,0-.1.06-.11.11s0,.13-.05.2,0,.18-.06.23c-.05.23-.13.57-.15.61a.44.44,0,0,1-.24.13.53.53,0,0,1-.2-.11,0,0,0,0,0,0,0s0-.14,0-.52l0-.25-.06,0-.25.12-.21.1a.67.67,0,0,1-.3-.13s0-.09,0-.25V70.8l.25-.16a2.49,2.49,0,0,0,.24-.17l-.21-.11L23,70.23l-.13-.06c-.07,0-.08,0-.12-.13s0-.17.06-.24.07-.06.66.1l.48.12.13,0,.16-.09a.56.56,0,0,0,.16-.12l-.09,0-.18-.08-.4-.18-.3-.13,0-.09c-.05-.11-.05-.14.05-.22s.08,0,.11,0l.15,0,.2,0c.1,0,1.08.27,1.13.27l.16-.07c.13-.07.13-.08.11-.11l-.1-.07-.4-.24a3,3,0,0,1,.49-.29c.06,0,.06,0,0-.07a.39.39,0,0,0-.24-.16s-.36.09-.75.21l-.72.21-.11-.06-.1-.07,0-.12c0-.12,0-.12.11-.17l.23-.11.38-.17.26-.11a2.1,2.1,0,0,0-.27-.2.6.6,0,0,0-.24,0l-.25.06-.33.1c-.3.09-.41.11-.44.07l-.07,0c-.05,0-.05,0,0-.14s0-.12.07-.15a3.83,3.83,0,0,1,.44-.21,1.24,1.24,0,0,0,.22-.1l-.09-.08-.1-.07-.12-.07a.82.82,0,0,1-.15-.11.7.7,0,0,1-.1-.29v-.08l.11-.07c.13-.07.2-.08.26,0l.12,0a1,1,0,0,1,.21.1c.08,0,.14.07.15.06V66.8c0-.1,0-.5,0-.56a.38.38,0,0,1,.07-.26c.06-.08.06-.08.22,0s.08,0,.12.15a.36.36,0,0,1,.05.13l0,.17c0,.08.07.27.1.42a2.11,2.11,0,0,0,.09.32.87.87,0,0,0,.32.18,3.39,3.39,0,0,0-.07-.75c0-.3,0-.34,0-.41s.08-.1.21,0,.16.09.24.36.05.15.08.15.07,0,0,0,0,0,0,0,0,.06,0,.08.06.22.12.45a1.87,1.87,0,0,0,.14.44c.1.09.33.16.28.09a.35.35,0,0,1,0-.15v-.31a.51.51,0,0,1,0-.19l.08,0,.48.32s0,0,.05-.12a.66.66,0,0,0,0-.19c0-.1,0-.13-.76-.83l-.28-.28a.58.58,0,0,1,0-.17c0-.1,0-.12,0-.13a.18.18,0,0,1,.22,0l.14.09.1.07s0,0,0,0,0,0,0,0a.3.3,0,0,0,.1.09l.26.18a1.18,1.18,0,0,0,.16.1,2.36,2.36,0,0,0,.05-.33.18.18,0,0,0-.06-.14,4.86,4.86,0,0,0-.47-.43c-.32-.27-.32-.27-.34-.37s0-.17.09-.2.11,0,.49.22l.27.17s0-.06.05-.34,0-.29.21-.41l.13-.08.09.08c.19.18.2.19.22.39a1,1,0,0,1,0,.32v0l.3-.2.29-.21.12,0c.15,0,.18,0,.19.14s0,.15-.17.29l-.63.62a.4.4,0,0,0,0,.21c0,.09,0,.17,0,.18a5.91,5.91,0,0,0,.65-.49l.09-.07.15,0c.17,0,.2,0,.21.18s0,.14-.2.31l-.54.52c-.36.35-.35.34-.36.38v.15c0,.16,0,.16,0,.15l.16-.09.25-.14.12-.06s0,.11,0,.36,0,.25,0,.25l.13-.06c.09,0,.1-.06.12-.12a1.77,1.77,0,0,1,.06-.17l.12-.33.15-.46c.05-.13.09-.27.1-.3a.26.26,0,0,1,.18-.21l.11,0,.07.1c.1.13.1.16,0,.68a2.2,2.2,0,0,0-.05.42l.13,0a.34.34,0,0,0,.23-.2s0-.07,0-.07.1-.19.2-.41a3.75,3.75,0,0,1,.23-.43.37.37,0,0,1,.14-.07c.09,0,.11,0,.14,0a.25.25,0,0,1,.1.23c0,.06-.07.29-.16.57,0,0,0,.09,0,.09a.89.89,0,0,0,.22,0c.31-.08.3-.09.52.09l.09.07,0,.15a1.2,1.2,0,0,1-.06.18.67.67,0,0,1-.19.09l-.22.06-.1,0s0,0,0,0a.69.69,0,0,1,.14.12l.11.09,0,0,.14.13.12.11,0,.1a.25.25,0,0,1-.21.21c-.11,0-.14,0-.2,0l-.15-.11A4.57,4.57,0,0,1,29.5,68s0,0-.16,0l-.14.09s0,0,.07.06l.57.33c.16.09.2.12.23.17s0,.17,0,.23-.13.09-.28,0l-.59-.22c-.52-.2-.64-.23-.72-.21a.55.55,0,0,0-.15.08l-.08.07.07,0,.1.07.2.12.16.1s0,.08-.13.12l-.26.12a1.19,1.19,0,0,0-.19.1,1,1,0,0,0,.24.18.78.78,0,0,0,.26,0l.14,0,.8-.17c.29-.07.31-.07.4,0s.12.12.1.21-.06.13-.37.25l-.31.12-.17.07c-.18.07-.18.07-.06.15l.11.08a2.42,2.42,0,0,0,.5-.09l.33-.08.16,0a.24.24,0,0,1,.22,0c.13.07.16.13.13.24s0,.1-.4.25-.33.13-.29.16a1,1,0,0,0,.19.15l.19.16a.52.52,0,0,1,.05.29v.08l-.11.05c-.11,0-.22,0-.25,0l-.1-.06-.22-.12c-.07-.05-.14-.08-.14-.07a1.91,1.91,0,0,0,0,.37c0,.38,0,.41-.1.53s0,0-.1,0Z" transform="translate(0.74 -0.44)"/><path id="path6386-2" data-name="path6386" class="cls-14" d="M62.38,81.57c-.2.13-.13.14-.64-.08l-.53-.24c-.1,0-.15,0-.31,0l-.12.06.08.06.23.15.61.4,0,.08,0,.07-.11.07a.29.29,0,0,1-.18.07A2.39,2.39,0,0,1,61,82.1L60.66,82a5.09,5.09,0,0,1-.51-.21c-.08,0-.08,0-.2,0s-.16.09-.11.09a.41.41,0,0,1,.12.07l.24.17.16.11s-.14.07-.3.15a1.88,1.88,0,0,0-.29.14,1.27,1.27,0,0,0,.26.22l.63-.11c.83-.15.82-.15.93-.08s.14.11.1.19-.12.11-.51.25l-.48.18s-.06,0-.06,0a1.6,1.6,0,0,0,.27.25l.16,0,.28,0,.5-.1a.34.34,0,0,1,.33.06c.06.05.06.06,0,.11s-.07.16-.44.29a2.69,2.69,0,0,0-.35.14l.21.19c.25.23.28.27.28.42v.12l-.11.07c-.2.11-.2.11-.47-.06a1,1,0,0,0-.24-.14,1.85,1.85,0,0,0,0,.37v.37l-.06.07-.06.07-.1,0c-.14,0-.18-.07-.2-.11s-.06-.35-.09-.58c-.09-.57-.08-.55-.15-.6a1.07,1.07,0,0,0-.18-.14,3.71,3.71,0,0,0,0,.45c0,.67,0,.61-.06.7l-.07.08-.12,0c-.09,0-.12,0-.14-.11a10,10,0,0,1-.24-1.19c-.06-.34-.06-.35-.15-.39l-.13-.09-.06-.05v.23c0,.13,0,.25,0,.28s0,.17,0,.18-.16-.07-.41-.26l-.14-.09a.86.86,0,0,0,0,.26.16.16,0,0,0,0,.11l.11.13.15.17.14.14.27.3c.33.36.33.36.3.55s0,.08-.09.11a.25.25,0,0,1-.14,0,2.19,2.19,0,0,1-.55-.39,2.3,2.3,0,0,0-.31-.24s0,0,0,.06,0,.12,0,.18,0,.12,0,.16l.13.15.16.19a4.71,4.71,0,0,1,.42.48.41.41,0,0,1,0,.27s-.21.13-.21.11a0,0,0,0,0,0,0s-.12-.08-.42-.34l-.19-.17v.08a2.26,2.26,0,0,0,0,.28c0,.11,0,.22,0,.24a.9.9,0,0,1-.28.18s-.09,0-.22-.14l-.09-.07v-.3a1.23,1.23,0,0,0,0-.3l-.21.11-.27.15-.12.07c-.07,0-.08,0-.18,0s-.17-.06-.16-.19,0-.09.47-.51l.37-.33.1-.1,0-.19a.72.72,0,0,0,0-.2l-.09,0-.17.1-.38.24-.28.18H56.7c-.11,0-.14,0-.14-.17s0-.09,0-.11l.12-.11.16-.14.88-.8a1,1,0,0,0,0-.19c0-.14,0-.15,0-.15l-.11,0-.43.2a2.15,2.15,0,0,1,0-.58c0-.07,0-.07,0-.07a.51.51,0,0,0-.27.11s-.13.37-.26.77l-.23.73-.12.06-.12,0-.09-.09c-.09-.08-.09-.08-.07-.19a1.38,1.38,0,0,1,0-.26l.08-.42c0-.16.05-.29.05-.29a1.5,1.5,0,0,0-.33.12,1.14,1.14,0,0,0-.1.23c0,.12-.07.23-.08.25s-.05.17-.11.34-.15.41-.2.41l-.07,0c-.06,0-.06,0-.15,0s-.09-.09-.09-.14a3.6,3.6,0,0,1,.09-.5.72.72,0,0,0,0-.24l-.11,0-.12,0-.13.07a.74.74,0,0,1-.18.06,1,1,0,0,1-.3-.08l-.07,0V84c0-.16,0-.22.12-.25l.12-.07a1,1,0,0,1,.2-.12.48.48,0,0,0,.13-.09.11.11,0,0,0,0,0l-.5-.29a.39.39,0,0,1-.18-.22c0-.09,0-.09.13-.18a.2.2,0,0,1,.2,0l.13,0,.17.06.41.16a2,2,0,0,0,.32.11.85.85,0,0,0,.33-.17,3.29,3.29,0,0,0-.66-.38c-.28-.14-.31-.16-.34-.23s0-.14.09-.21.17-.08.44,0,.16,0,.18,0,.07,0,.06,0,0,.05,0,.05l.08,0,.45.16a1.56,1.56,0,0,0,.45.13c.13,0,.32-.18.23-.18l-.12-.08L56.45,82a.54.54,0,0,1-.15-.13l.08,0,.54-.23s0,0-.07-.11a.83.83,0,0,0-.16-.13c-.08,0-.12,0-1.13.18l-.4.07a.54.54,0,0,1-.16-.06c-.09,0-.1-.07-.09-.11s.06-.14.15-.17l.16-.07.11,0,.05,0s0,0,0,0,.07,0,.13,0l.3-.11.18-.08a1.18,1.18,0,0,0-.25-.23.14.14,0,0,0-.14,0,5.7,5.7,0,0,0-.64.16c-.41.11-.41.11-.51.07s-.15-.08-.12-.19,0-.11.48-.29l.3-.13s0-.07-.26-.24-.23-.2-.22-.41v-.17l.12,0c.26-.07.28-.07.46,0s.24.13.27.17l0,0a1.91,1.91,0,0,0,0-.37v-.36l.09-.1c.1-.12.14-.13.23-.08s.12.11.15.31.13.76.15.9.05.07.16.14a.56.56,0,0,0,.16.1s0-.59,0-.84v-.12l.1-.11c.11-.13.15-.14.27-.08s.11.1.15.36,0,.37.12.76.08.49.1.52l.14.09c.14.08.14.08.14.06a.69.69,0,0,1,0-.19c0-.09,0-.22,0-.29l0-.14s.12,0,.33.17.21.15.22.13a.61.61,0,0,0,0-.14c0-.11,0-.13,0-.18s-.07-.1-.11-.15-.12-.17-.21-.28l-.29-.41-.2-.25a.26.26,0,0,1-.06-.28l0-.11h.13c.16,0,.18,0,.57.39a3.1,3.1,0,0,0,.32.28.22.22,0,0,0,.05-.12.35.35,0,0,0,0-.32.17.17,0,0,1,0-.07l-.22-.4c-.12-.22-.22-.42-.23-.45a.32.32,0,0,1,0-.16c0-.09,0-.1.11-.11a.27.27,0,0,1,.24,0c.05,0,.21.23.4.47,0,0,.06.07.07.06a1.07,1.07,0,0,0,.08-.22c.11-.32.11-.31.38-.4l.11,0,.11.11a.64.64,0,0,1,.11.16.46.46,0,0,1,0,.21l-.07.22,0,.11s0,0,0,0l.18,0a.39.39,0,0,0,.14,0h.06l.19,0,.16,0,.07.07a.3.3,0,0,1,.06.31c0,.12-.06.14-.16.15l-.18.06a4.17,4.17,0,0,1-.7.24s0,0-.06.16a.43.43,0,0,0,0,.17s0,0,.08,0l.61-.3c.17-.08.22-.1.28-.09s.16.06.17.16,0,.17-.14.26-.3.21-.53.37c-.46.33-.56.41-.58.49a.4.4,0,0,0,0,.19v.1l.07,0,.12,0,.21-.1.18-.07s0,.08,0,.17l0,.3a.65.65,0,0,0,0,.21.63.63,0,0,0,.28-.1.68.68,0,0,0,.12-.24s0-.07.06-.14.18-.43.31-.78.12-.3.23-.34.17,0,.24,0,.07.13,0,.46c0,.15-.07.3-.07.34a1.72,1.72,0,0,0,0,.18c-.05.19-.05.2.08.15l.14-.06a2,2,0,0,0,.21-.48l.12-.33.07-.15c0-.11,0-.13.13-.17s.2-.07.28,0,.08.07,0,.49-.08.35,0,.34l.23-.08.25-.07a.52.52,0,0,1,.27.13l.06.05,0,.12c0,.12-.09.22-.14.22l-.11.05-.23.12-.14.08a3.71,3.71,0,0,0,.32.22c.32.2.34.23.38.38s0,.06-.06.09Z" transform="translate(0.74 -0.44)"/><path id="path6388-2" data-name="path6388" class="cls-14" d="M72.89,79.26c0-.16,0-.12.23-.37l.28-.26c.06,0,.07-.07.07-.19v-.09l-.06,0-.15.1-.4.26h-.11l0-.08a.18.18,0,0,1,0-.13,1.44,1.44,0,0,1,.22-.26l.17-.16c.14-.14.18-.17.27-.25s0,0,0-.13,0-.13,0-.09,0,0-.07,0l-.17.1s-.1.07-.11.06v-.43a.68.68,0,0,0-.21.1s0,.2-.11.41c-.14.54-.13.54-.2.58s-.11.06-.14,0,0-.11,0-.38,0-.3,0-.34v0a.67.67,0,0,0-.23.1.66.66,0,0,0,0,.1l0,.18c0,.13-.06.22-.08.33a.23.23,0,0,1-.13.19s-.05,0-.07,0-.08-.09,0-.35,0-.24,0-.24l-.17.07c-.21.09-.24.09-.33.05l-.07,0v-.09c0-.15,0-.15.16-.26l.15-.11-.21-.12-.22-.1,0-.06,0-.06,0,0c.07-.07.1-.09.12-.09l.38.11c.36.1.34.1.39.07a.52.52,0,0,0,.13-.07,1.28,1.28,0,0,0-.26-.13c-.4-.18-.37-.16-.4-.23l0-.06.06-.06s.06-.06.1-.06a5.9,5.9,0,0,1,.77.18c.22.06.23.06.28,0l.09-.06.05,0-.14-.07-.16-.08c-.06,0-.1,0-.1-.07s.09-.08.26-.18l.1-.06-.14-.1a.11.11,0,0,0-.08,0l-.11,0-.14,0-.13,0-.25.08c-.3.11-.31.11-.41,0s0,0,0-.09a.2.2,0,0,1,0-.09,1.73,1.73,0,0,1,.39-.22,1.3,1.3,0,0,0,.23-.13l0,0-.1,0c-.06,0-.07,0-.11,0l-.13,0-.15,0a2.42,2.42,0,0,1-.41.12.2.2,0,0,1-.15-.09.27.27,0,0,1,0-.15h0a1.74,1.74,0,0,1,.31-.16l.16-.07,0,0-.16-.11-.13-.09a.37.37,0,0,1,0-.21s0,0,.14-.1l.06,0,.18.08.18.09s0-.08,0-.17,0-.17,0-.19,0-.07,0-.1,0-.06,0-.12.08-.08.16,0,.05,0,.17.42c0,.13.08.27.1.32l0,.09.11.06.12,0a.23.23,0,0,0,0-.07s0-.09,0-.13,0-.18,0-.3l0-.22,0-.06c0-.06.06-.07.14,0s0,0,0,0l0,.11,0,.13c0,.07.22.73.24.75s0,0,.1.07.08,0,.1,0v-.4a1.87,1.87,0,0,1,.34.18s0,0,.05,0a.35.35,0,0,0,0-.2s-.19-.18-.39-.37l-.37-.34v-.17l.07,0c.08,0,.08,0,.14,0l.14.1.24.17.15.1a.75.75,0,0,0,0-.22s0-.07-.11-.13a1.2,1.2,0,0,1-.12-.12L73,74.33c-.15-.14-.2-.2-.19-.23V74s0,0,.07-.07.08,0,.11,0l.27.18c.09.06.13.1.14.09s0,0,0-.08a.54.54,0,0,1,0-.08V74a.38.38,0,0,1,0-.12.46.46,0,0,1,.13-.16l0,0,.08,0c.09,0,.12.08.11.14s0,.06,0,.09a.61.61,0,0,1,0,.15.63.63,0,0,0,0,.11l0,0,.31-.22a.22.22,0,0,1,.17,0c.07,0,.07,0,.08.12a.17.17,0,0,1,0,.13s-.06.07-.07.07l-.08.08-.21.21-.15.17a.63.63,0,0,0,0,.24,2.15,2.15,0,0,0,.41-.3c.16-.12.18-.14.23-.14s.09,0,.1.12,0,.12-.12.26-.08.08-.06.1,0,.06,0,0,0,0,0,0,0,0,0,0l-.22.22a1.17,1.17,0,0,0-.2.24c0,.09,0,.25,0,.19l.09,0,.18-.11c.06,0,.11-.06.12,0a.11.11,0,0,1,0,.06c0,.09,0,.36,0,.39s0,0,.09,0l.11-.06s.06-.07.21-.73c0-.13.06-.25.07-.27s0,0,.08-.08.07,0,.09,0a.16.16,0,0,1,.06.14s0,.09,0,.12v.08a0,0,0,0,0,0,0s0,0,0,0a.55.55,0,0,0,0,.09s0,.14,0,.21a.3.3,0,0,0,0,.14l.2-.09a.1.1,0,0,0,.06-.08,2.36,2.36,0,0,0,.08-.43c.05-.28.05-.28.1-.33s.09-.07.14,0,.06.05,0,.37c0,.11,0,.21,0,.22s.06,0,.22-.1a.26.26,0,0,1,.31,0l.09.05v.08c0,.18,0,.19-.15.27a.78.78,0,0,1-.18.12s0,0,0,0l.22.1.22.09,0,.08c0,.1,0,.13,0,.16s-.1,0-.23,0l-.58-.15s-.06,0-.13,0l-.1.07a4,4,0,0,0,.51.21l.08,0,0,.09c0,.11,0,.13,0,.19s-.08,0-.25,0l-.48-.14c-.33-.08-.32-.08-.34-.07l-.09.05c-.09.06-.09.07-.08.07l.11.06.17.1.08.05s0,.07-.2.15-.14.09-.14.1l.08,0c.06,0,.08,0,.12,0L75,77l.23,0,.33-.07.2-.05a.15.15,0,0,1,.18,0l.06,0L76,77c0,.1,0,.11-.38.24a1.3,1.3,0,0,0-.26.12l.06.06a.21.21,0,0,0,.2.07,0,0,0,0,1,0,0l.3,0a2.08,2.08,0,0,1,.33,0,.14.14,0,0,1,.09,0s.05.06,0,.1a.17.17,0,0,1-.1.13l-.39.11-.05,0A.66.66,0,0,0,76,78c.17.16.16.15.14.34v.08l-.1,0-.13,0-.11-.08-.11-.11-.06,0s0,0,0,0a.74.74,0,0,1,0,.12l0,.09v0a.86.86,0,0,0,0,.13l0,.11-.07,0a.17.17,0,0,1-.19,0c-.06-.06-.07-.07,0-.13s0-.09,0-.13,0-.45,0-.49,0,0-.08-.08l-.1-.05a.22.22,0,0,0,0,.06c0,.08,0,.27,0,.44s0,.17,0,.2-.08.08-.14.06-.1,0-.12-.15,0-.24-.08-.43c-.06-.37-.09-.45-.13-.49l-.1-.06-.07,0v.14a.68.68,0,0,0,0,.15,1.09,1.09,0,0,1,0,.13s-.06,0-.11,0l-.16-.11L74,77.63a.64.64,0,0,0,0,.2.38.38,0,0,0,.11.14s0,0,.07.07.2.23.37.41.15.16.14.23,0,.12-.08.14-.1,0-.27-.13l-.18-.14-.1-.07c-.1-.09-.1-.09-.11,0v.09s.07.1.22.26l.17.17.07.08a.17.17,0,0,1,.07.13c0,.11,0,.14-.1.17s-.06,0-.28-.15-.19-.15-.2-.12,0,.09,0,.17a1.09,1.09,0,0,1,0,.17.39.39,0,0,1-.15.13l0,0-.06,0c-.06,0-.11-.11-.09-.14v-.08a.86.86,0,0,1,0-.17.75.75,0,0,1,0-.11l-.22.13c-.21.14-.23.15-.33.13s0,0,0-.06Z" transform="translate(0.74 -0.44)"/><path id="path6390-2" data-name="path6390" class="cls-14" d="M70.65,64.82c0,.1,0,.09-.26.14l-.26.05c-.06,0-.07,0-.11.09l0,.05h.5l0,0,0,0,0,0a.15.15,0,0,1,0,.08.81.81,0,0,1-.22.07l-.17,0-.24,0s0,0-.07.07,0,.07,0,.06h.29l-.08.13-.07.13.15,0,.21-.21c.28-.27.27-.27.33-.27s.08,0,.09,0,0,.07-.13.23l-.13.19,0,0a.51.51,0,0,0,.17,0l0-.06a.38.38,0,0,0,.09-.09c.07-.06.11-.11.17-.17a.13.13,0,0,1,.14-.06s0,0,0,0,0,.08-.09.22-.1.14-.09.15L71,66c.16,0,.18,0,.22.08l0,0,0,.06c0,.09,0,.09-.19.1h-.13l.09.15.09.14v.08l0,0c-.06,0-.09,0-.1,0l-.19-.2c-.18-.19-.17-.18-.2-.18s-.11,0-.11,0l.11.16c.18.25.17.23.16.28v0l0,0s-.06,0-.08,0a3,3,0,0,1-.4-.38c-.11-.11-.11-.12-.16-.11s-.05,0-.07,0h0l.06.09.07.11a.13.13,0,0,1,0,.07.61.61,0,0,1-.22,0,.17.17,0,0,0-.08,0,.34.34,0,0,0,0,.11l0,0h.08l.1,0,.09,0,.18,0c.21,0,.22,0,.26.12a.06.06,0,0,1,0,.07l0,0a.69.69,0,0,1-.31,0H70a0,0,0,0,0,0,0l0,.07s0,0,.06,0l.09,0,.11,0,.28.07a.24.24,0,0,1,.06.11.23.23,0,0,1,0,.1,0,0,0,0,0,0,0s-.07,0-.24,0l-.12,0v0l.06.12.05.1a.35.35,0,0,1-.06.14h-.17l-.07-.11L70,67.63a.39.39,0,0,0,0,.1.43.43,0,0,0-.06.12l0,.06s0,0-.06.06-.08,0-.11,0,0,0,0-.31c0-.09,0-.19.06-.23v-.06l0-.08s0-.07-.06-.07l0,0a.94.94,0,0,0,0,.09,1.84,1.84,0,0,0-.09.19l-.06.14,0,0s-.06,0-.1,0,0,0,0,0a.45.45,0,0,1,0-.08.24.24,0,0,1,0-.09c0-.05.12-.51.12-.53a.28.28,0,0,0,0-.08c0-.06,0-.06,0,0s0,0,0,0a1.39,1.39,0,0,1-.11.19,1.14,1.14,0,0,1-.13-.23s0,0,0,0a.23.23,0,0,0-.07.11s0,.17.1.36l.1.33,0,.06,0,0h0c-.06,0-.06,0-.08,0L69,67.5l-.07-.18-.06-.12-.09.13s0,0,0,.11a.62.62,0,0,1,0,.11.75.75,0,0,1,0,.16c0,.14,0,.2,0,.21s0,0,0,0,0,0-.06,0-.06,0-.07,0a1.42,1.42,0,0,1-.1-.21l0-.1,0,0s0,0,0,0l0,.06,0,.07-.14.05h0l0-.05c0-.06,0-.1,0-.13a.08.08,0,0,0,0,0,.93.93,0,0,1,.05-.1l0-.07h0l-.26,0a.24.24,0,0,1-.12,0s0,0,0-.11a.11.11,0,0,1,.07-.06l.06,0,.08,0,.19,0,.15,0s.09-.14.08-.15a1.51,1.51,0,0,0-.34,0c-.14,0-.16,0-.19,0s0,0,0-.1,0-.07.17-.11.07,0,.07,0,0,0,0,0h.06l.21-.06a.6.6,0,0,0,.2-.07c0-.05.08-.15,0-.13h-.3l0,0a2.65,2.65,0,0,1,.14-.23s0,0,0,0h-.09s-.06,0-.38.36a.7.7,0,0,1-.13.13l-.08,0s-.06,0-.06,0a.09.09,0,0,1,0-.11l0-.06,0,0s0,0,0,0h0l0,0,.08-.12,0-.08-.16,0a.08.08,0,0,0-.06,0l-.2.23c-.12.15-.12.15-.17.16s-.08,0-.09,0,0,0,.1-.23l.08-.13s0,0-.16,0-.14,0-.19-.1l0-.06,0,0c.09-.1.09-.1.19-.11h.16l-.09-.14-.1-.14v-.05c0-.07,0-.09.06-.1s.07,0,.14.08l.29.3h.18a2.86,2.86,0,0,0-.23-.31l0,0v-.07c0-.08,0-.1.09-.1s.06,0,.14.09l.25.26.17.16a.08.08,0,0,0,.07,0h.07l0-.08-.06-.11,0-.06s0,0,.16,0h.12a.11.11,0,0,0,0-.06s0,0-.06-.06l-.07,0-.16,0-.21-.07-.14-.05a.11.11,0,0,1-.1-.08l0,0,.05,0c.06,0,.07,0,.31,0l.2,0a.39.39,0,0,0,0-.06c0-.06,0-.1-.09-.11l0,0-.19-.09L68,64.7s0,0,0-.07,0,0,0-.06a.14.14,0,0,1,.11,0l.27.07h0l0-.1c0-.15,0-.14,0-.25l0,0h.07l.08,0a.26.26,0,0,1,0,.09s0,.09,0,.1l0,0s0,0,0,0l.06-.07s0,0,0-.05l0,0,.06-.06,0-.06h0a.16.16,0,0,1,.11.1c0,.06,0,.07,0,.1a.13.13,0,0,0,0,.07,1.7,1.7,0,0,1-.21.27s0,0,0,.08,0,.06,0,.06l0,0L69,64.6c0-.08.06-.1.08-.11a.09.09,0,0,1,.11,0s0,.06,0,.13a2,2,0,0,1-.1.28c-.09.25-.1.3-.09.34a.13.13,0,0,0,0,.07l0,0,0,0a.09.09,0,0,1,0,0s0-.05,0-.09,0-.08.05-.08,0,0,0,.06l.06.12s0,.09,0,.09a.52.52,0,0,0,.08-.11.43.43,0,0,0,0-.12.56.56,0,0,1,0-.07l-.09-.38c0-.14,0-.14,0-.19s.05,0,.1,0,.06,0,.11.18a.9.9,0,0,1,.06.14.59.59,0,0,1,0,.08c0,.09,0,.09.06,0l0-.05a.91.91,0,0,0,0-.24c0-.07,0-.14,0-.15a.45.45,0,0,0,0-.08.11.11,0,0,1,0-.1c0-.06.06-.08.11-.06s0,0,.12.18.06.16.07.14l.07-.09.08-.09a.17.17,0,0,1,.13,0h0l0,0a.17.17,0,0,1,0,.12s0,0,0,0l-.06.1,0,.07h.17c.18,0,.19,0,.25,0s0,0,0,0Z" transform="translate(0.74 -0.44)"/><path id="path6394-2" data-name="path6394" class="cls-14" d="M64.75,96.27c-.13-.19-.13-.13,0-.64.09-.25.17-.49.19-.53s0-.15,0-.29l-.07-.13-.05.09-.13.23c-.07.14-.32.59-.34.62l-.07,0-.07,0-.08-.1a.31.31,0,0,1-.08-.18,2,2,0,0,1,.1-.48s.06-.19.11-.34.11-.34.17-.51,0-.08,0-.2-.1-.15-.1-.09a.41.41,0,0,1,0,.11l-.15.25a.74.74,0,0,1-.1.16s-.07-.12-.15-.28a1.71,1.71,0,0,0-.16-.27,1.2,1.2,0,0,0-.19.27s.07.29.14.61c.2.8.2.78.14.89s-.1.15-.17.12-.11-.11-.28-.48l-.2-.45,0-.06a1,1,0,0,0-.23.28s0,.08,0,.15l.07.27a4.71,4.71,0,0,0,.13.48.34.34,0,0,1,0,.33s-.05.06-.1,0-.16-.06-.31-.41a1.59,1.59,0,0,0-.15-.32,1.25,1.25,0,0,0-.18.21c-.19.26-.23.29-.38.3h-.11l-.07-.11c-.12-.19-.12-.18,0-.45a1.8,1.8,0,0,0,.12-.25h-.36l-.35,0-.08,0L61,95.12l0-.1c0-.14,0-.18.09-.2l.55-.13c.54-.12.52-.11.56-.18a1.3,1.3,0,0,0,.12-.19l-.42,0c-.65.06-.59.06-.68,0l-.08-.06,0-.12c0-.09,0-.12.09-.15a9.67,9.67,0,0,1,1.13-.31c.32-.08.33-.08.36-.17l.08-.14,0-.06h-.48c-.1,0-.17,0-.18,0a1.48,1.48,0,0,1,.21-.42c0-.07.09-.14.08-.14a.61.61,0,0,0-.25,0,.16.16,0,0,0-.1,0l-.11.12a1.21,1.21,0,0,0-.16.16,1.79,1.79,0,0,1-.13.14l-.26.29c-.33.35-.33.35-.51.33s-.08,0-.11-.09a.24.24,0,0,1,0-.12,2.7,2.7,0,0,1,.35-.57,2.33,2.33,0,0,0,.21-.32s0,0-.06,0h-.17c-.1,0-.12,0-.16,0l-.13.15a1.36,1.36,0,0,0-.17.17,5.1,5.1,0,0,1-.44.43.39.39,0,0,1-.26,0s-.14-.19-.12-.2a0,0,0,0,0,0,0,2.64,2.64,0,0,1,.3-.42l.15-.2h-.07l-.28,0-.23,0a.83.83,0,0,1-.19-.26s0-.1.12-.23l.06-.09h.29l.29,0-.13-.2a2.58,2.58,0,0,1-.15-.25L60,91.44c0-.07,0-.08,0-.18s.06-.17.18-.17.08,0,.51.42l.35.35.1.09h.19a.44.44,0,0,0,.18,0,.19.19,0,0,0,0-.08,1.16,1.16,0,0,0-.11-.16l-.25-.36-.19-.26V91c0-.12,0-.14.15-.16s.09,0,.11,0l.12.11.14.14c.07.08.79.78.83.8s.09,0,.18,0,.14,0,.14,0a.25.25,0,0,0,0-.11c0-.08-.23-.4-.23-.41a2.23,2.23,0,0,1,.56,0c.07,0,.07,0,.07,0a.49.49,0,0,0-.13-.26l-.75-.2-.72-.18-.06-.11-.06-.11.08-.09c.07-.09.07-.09.18-.09l.25,0,.41.06.28,0a2.27,2.27,0,0,0-.13-.3.77.77,0,0,0-.23-.08l-.25-.07-.33-.08c-.3-.08-.41-.12-.41-.17a.27.27,0,0,0,0-.07s0-.06,0-.15.09-.09.14-.09a3.13,3.13,0,0,1,.48,0,.65.65,0,0,0,.24,0l0-.1,0-.11-.07-.13a1.12,1.12,0,0,1-.08-.17,1.32,1.32,0,0,1,.06-.3l0-.08h.13c.15,0,.21,0,.25.1a.34.34,0,0,0,.07.11.87.87,0,0,1,.13.19l.09.12s0,0,0,0,.22-.46.25-.51a.39.39,0,0,1,.19-.19c.09,0,.09,0,.19.11a.22.22,0,0,1,0,.2.49.49,0,0,1,0,.13.94.94,0,0,0,0,.17c0,.08-.07.27-.12.41a1.14,1.14,0,0,0-.08.32.77.77,0,0,0,.18.31,3.71,3.71,0,0,0,.32-.67c.11-.28.13-.31.2-.35s.12,0,.2.08.09.16,0,.43,0,.16,0,.17.05.07,0,.06,0,0,0,0a.19.19,0,0,1,0,.07s-.06.23-.13.45a2,2,0,0,0-.09.45c0,.13.2.3.19.22a.57.57,0,0,1,.07-.13,2.12,2.12,0,0,0,.17-.27.67.67,0,0,1,.11-.15l0,.07c0,.12.23.48.25.51s0,0,.1-.07a.57.57,0,0,0,.11-.16c0-.08,0-.12-.24-1.09,0-.18-.09-.36-.1-.39a.47.47,0,0,1,.05-.16c0-.09.06-.1.1-.1a.21.21,0,0,1,.17.14l.08.15,0,.11s0,0,0,0,0,0,0,0a.4.4,0,0,0,0,.13l.14.28A.52.52,0,0,0,65,90a1.58,1.58,0,0,0,.2-.26.14.14,0,0,0,0-.14A5.65,5.65,0,0,0,65,89c-.14-.39-.14-.4-.1-.49s.06-.16.17-.13.11,0,.31.44a2.83,2.83,0,0,0,.15.29s.06,0,.21-.27.17-.24.38-.25h.16l0,.12c.08.25.08.27,0,.45a1.53,1.53,0,0,1-.14.28l0,0,.35,0,.35,0,.1.08c.12.09.13.13.09.22s-.1.12-.29.16l-.84.22s-.08,0-.14.16a1.09,1.09,0,0,0-.08.16,4.8,4.8,0,0,0,.8-.09l.12,0,.11.09c.14.11.15.15.09.27s-.08.11-.33.16l-.72.17c-.48.12-.47.12-.49.14a.64.64,0,0,0-.08.14c-.06.14-.07.14,0,.14a1,1,0,0,1,.18,0h.43s0,.12-.15.33-.12.22-.11.23h.14c.1,0,.12,0,.17,0l.13-.11.26-.22.37-.32.23-.21a.24.24,0,0,1,.26-.08l.11,0,0,.12c0,.16,0,.18-.33.59a2.66,2.66,0,0,0-.26.33.31.31,0,0,0,.12,0A.38.38,0,0,0,67,92l.06,0,.38-.24.41-.26a.47.47,0,0,1,.16,0c.08,0,.09,0,.11.1a.27.27,0,0,1,0,.24,3.82,3.82,0,0,1-.42.42s-.06.06-.05.07l.21.07c.32.09.31.08.41.35l0,.1-.1.11a.41.41,0,0,1-.14.12.6.6,0,0,1-.21,0l-.21,0-.11,0s0,0,0,0a.54.54,0,0,1,.06.18.7.7,0,0,0,.05.13s0,0,0,0,0,.11,0,.19l0,.15-.07.07a.27.27,0,0,1-.29.08c-.12,0-.13-.05-.16-.14a.77.77,0,0,0-.07-.17,4.45,4.45,0,0,1-.27-.67s0,0-.16,0h-.16s0,0,0,.08.19.35.32.57.11.21.11.27,0,.16-.15.18-.16,0-.26-.12l-.39-.49c-.34-.43-.43-.52-.51-.54a.47.47,0,0,0-.17,0l-.1,0,0,.06.06.11a1.19,1.19,0,0,0,.1.2l.09.17s-.08.05-.17,0l-.29,0h-.2s.08.24.11.28a1,1,0,0,0,.24.1s.07,0,.14,0,.43.15.77.25.3.1.34.21,0,.16,0,.23-.12.08-.45,0l-.32,0-.18,0c-.19,0-.19,0-.13.09a.54.54,0,0,0,.06.13,1.6,1.6,0,0,0,.47.17l.32.1.16,0c.11,0,.13,0,.17.13s.08.19,0,.27-.07.08-.47,0-.34-.06-.33,0a1.08,1.08,0,0,0,.09.23,1.59,1.59,0,0,1,.08.23.5.5,0,0,1-.1.28l0,.06-.13,0c-.11,0-.21-.07-.21-.11l-.06-.11s-.08-.14-.13-.21a.46.46,0,0,0-.08-.13,2.66,2.66,0,0,0-.19.32c-.18.33-.2.35-.34.4s-.06,0-.1,0Z" transform="translate(0.74 -0.44)"/><path id="path6396-2" data-name="path6396" class="cls-14" d="M69.35,87.22c.12-.14.07-.13.48-.09l.43,0c.09,0,.12,0,.21-.09l.08-.07-.08,0-.19-.06-.52-.14-.06,0,0,0,0-.07c0-.06.08-.09.12-.1a1.49,1.49,0,0,1,.38,0l.27,0,.41,0c.06,0,.06,0,.14-.07s.09-.1,0-.09,0,0-.1,0l-.21-.06-.14,0a1,1,0,0,1,.18-.17A2.25,2.25,0,0,0,71,86a.82.82,0,0,0-.24-.1l-.42.23c-.55.3-.54.29-.63.27s-.13,0-.12-.1.06-.11.3-.31.26-.21.3-.23,0,0,0,0a.71.71,0,0,0-.25-.11l-.1.06-.19.1-.33.19a.23.23,0,0,1-.25,0s0,0,0-.06,0-.14.24-.31l.22-.18-.2-.09c-.23-.1-.25-.12-.29-.23L69,85l.07-.07c.11-.13.11-.13.34-.07a.64.64,0,0,0,.21,0s0-.12-.08-.27l-.08-.26,0-.07,0-.06h.09c.11,0,.14,0,.16,0l.2.39c.19.38.18.37.24.39l.17,0s0-.14-.1-.31c-.17-.48-.16-.43-.12-.52l0-.07h.09a.16.16,0,0,1,.13,0,7.84,7.84,0,0,1,.44.79c.12.23.13.24.2.25a.27.27,0,0,1,.12,0l0,0,0-.17a1.29,1.29,0,0,0-.06-.2c0-.07,0-.12,0-.13s.13,0,.35.08l.12,0a.68.68,0,0,0,0-.19.13.13,0,0,0-.06-.07l-.11-.06-.14-.09-.14-.07-.26-.14c-.32-.18-.32-.18-.34-.33s0-.06,0-.09a.16.16,0,0,1,.09-.05,1.5,1.5,0,0,1,.48.15l.28.1a0,0,0,0,0,0,0s0-.09,0-.13,0-.09-.07-.11l-.13-.07-.16-.1-.4-.24a.29.29,0,0,1,0-.2.38.38,0,0,1,.12-.13s0,0,0,0l.37.14.18.08v0s0-.13,0-.21,0-.17,0-.18a.59.59,0,0,1,.15-.2s.08,0,.19.05l.08,0,.06.21.07.22.13-.14.15-.16.07-.08c0-.05,0-.06.12-.07s.13,0,.16.1,0,.06-.21.47a2.74,2.74,0,0,0-.19.33l0,.09,0,.14,0,.14L72,83.9l.09-.11.22-.26.16-.2h.07c.09,0,.11,0,.15.08a.14.14,0,0,1,0,.09.48.48,0,0,0-.06.11l-.08.13c0,.07-.43.75-.44.78l0,.14c0,.11,0,.11.06.1a.32.32,0,0,0,.07-.06l.26-.24a2.35,2.35,0,0,1,.11.42s0,0,0,0a.41.41,0,0,0,.17-.14s0-.3,0-.61v-.57l.07-.07.07-.07.09,0c.08,0,.08,0,.09.12s0,.13,0,.2l0,.32c0,.11,0,.21,0,.21a1.27,1.27,0,0,0,.2-.16.56.56,0,0,0,0-.19v-.46c0-.24,0-.33,0-.34l0,0s0,0,.11,0,.09,0,.1.08,0,.22.06.37a.59.59,0,0,0,0,.19l.07-.05.07-.06s0,0,.08-.08a.29.29,0,0,1,.11-.08.6.6,0,0,1,.24,0h.06l0,.1c0,.11,0,.16,0,.2a.24.24,0,0,0-.06.08.68.68,0,0,1-.12.13.78.78,0,0,0-.08.1l.05,0,.43.08a.34.34,0,0,1,.17.11c0,.06,0,.06,0,.16s0,.06-.13.06h-.57a1,1,0,0,0-.25,0,.76.76,0,0,0-.2.2,4.28,4.28,0,0,0,.56.11c.23,0,.26,0,.3.08s0,.09,0,.17-.11.1-.31.1-.13,0-.13,0,0,0,0,0a0,0,0,0,0,0,0H73.6a1.31,1.31,0,0,0-.35,0c-.09.06-.19.21-.13.19l.11,0,.23.07.13,0a.09.09,0,0,1,0,0l-.33.29s0,0,.07.07l.14.05c.07,0,.1,0,.76-.39l.27-.15a.31.31,0,0,1,.13,0c.07,0,.09,0,.09,0a.15.15,0,0,1-.07.16l-.09.08-.07.06s0,0,0,0,0,0,0,0l-.09.06-.18.15a.51.51,0,0,0-.11.11,1.46,1.46,0,0,0,.23.1.14.14,0,0,0,.11,0c.1,0,.2-.12.42-.26s.26-.18.34-.17.12,0,.13.1,0,.09-.27.32l-.18.16s0,0,.24.11.2.09.25.24l0,.12-.07,0c-.17.1-.19.11-.34.08l-.23,0h0a1.26,1.26,0,0,0,.08.26l.09.26,0,.09c0,.1-.07.12-.14.11s-.11,0-.18-.19-.26-.51-.32-.59-.05,0-.14-.07l-.14,0s.15.43.22.59l0,.09,0,.1c0,.12-.08.14-.18.12s-.09,0-.18-.22L73.45,87c-.17-.34-.17-.33-.19-.34l-.12,0c-.11,0-.12,0-.11,0a.5.5,0,0,1,0,.14c0,.07,0,.17,0,.22l0,.1s-.09,0-.27,0-.19-.06-.19,0a.84.84,0,0,0,0,.1c0,.08,0,.09.06.12l.11.08a2,2,0,0,0,.22.15l.3.22.2.13a.2.2,0,0,1,.11.18V88l-.09,0c-.11,0-.13,0-.5-.13a1.35,1.35,0,0,0-.29-.13.22.22,0,0,0,0,.1.29.29,0,0,0,.1.22l0,0a2.36,2.36,0,0,0,.25.23,2.48,2.48,0,0,1,.26.27.14.14,0,0,1,0,.12c0,.06,0,.08,0,.1a.22.22,0,0,1-.19,0c-.05,0-.2-.12-.39-.24,0,0-.06,0-.06,0a.63.63,0,0,0,0,.17c0,.25,0,.25-.18.37l-.07,0-.1,0a.46.46,0,0,1-.12-.09.47.47,0,0,1,0-.16v-.17a.22.22,0,0,1,0-.08s0,0,0,0a.41.41,0,0,1-.12.08l-.08.06,0,0a.57.57,0,0,0-.13.07l-.1.07-.07,0a.22.22,0,0,1-.11-.21c0-.09,0-.11.07-.14l.12-.09a4.56,4.56,0,0,1,.44-.33s0,0,0-.13l0-.12s0,0-.06,0l-.36.35c-.1.1-.13.12-.18.13a.14.14,0,0,1-.16-.07c0-.08,0-.12,0-.22l.29-.39c.25-.34.3-.42.3-.48a.35.35,0,0,0,0-.14l0-.07,0,0a.23.23,0,0,1-.07.07l-.13.11a.78.78,0,0,1-.1.1s-.05-.05-.06-.12,0-.13,0-.22a.62.62,0,0,0,0-.16,1,1,0,0,0-.18.14.49.49,0,0,0,0,.2.59.59,0,0,1,0,.11c0,.09,0,.36,0,.63s0,.25-.08.3-.11.07-.18,0-.08-.07-.1-.33,0-.22,0-.25a.52.52,0,0,1,0-.14c0-.15,0-.15-.09-.08s-.08.06-.08.07a1.19,1.19,0,0,0,0,.39c0,.12,0,.24,0,.26v.13c0,.08,0,.1-.06.15s-.13.09-.21,0-.07,0-.1-.35,0-.27-.05-.25l-.15.11-.16.11a.46.46,0,0,1-.22,0l0,0V88c0-.09,0-.18,0-.19l.07-.06.13-.14.08-.09-.27-.08c-.28-.07-.3-.08-.36-.18s0,0,0-.08Z" transform="translate(0.74 -0.44)"/><path id="path6398-2" data-name="path6398" class="cls-14" d="M82,65.5c.09.07.09,0,.09.3v.27c0,.05,0,.07.07.12l0,0v0a.69.69,0,0,1,0-.13l0-.33s0,0,0,0l0,0,0,0a.14.14,0,0,1,.07.06,1.19,1.19,0,0,1,0,.24v.16c0,.14,0,.18,0,.26s0,0,.05.08.07.06.06,0v-.06s0-.09,0-.14,0-.08,0-.08l.11.1.12.09a.83.83,0,0,0,0-.15s-.08-.12-.17-.25c-.21-.33-.21-.32-.2-.38s0-.08,0-.08.07,0,.21.17l.16.17,0,0a1,1,0,0,0,.06-.16l0-.07a.52.52,0,0,1-.07-.11l-.14-.19a.18.18,0,0,1,0-.15s0,0,0,0,.08,0,.21.13.12.13.12.12,0,0,0-.12.06-.17.13-.2l0,0,.05,0c.08.07.08.07.06.21s0,.13,0,.13a.52.52,0,0,0,.16-.06l.15-.06h.09v0c0,.07,0,.09,0,.1l-.22.15c-.23.15-.22.14-.23.18l0,.1.19-.08c.28-.13.25-.12.31-.1h0v.06s0,.06,0,.08a4.24,4.24,0,0,1-.45.33c-.13.08-.14.09-.14.13s0,.06,0,.08v0l.1,0,.11,0s.08,0,.08,0,0,.09,0,.23,0,.07,0,.07.09,0,.11,0,0,0,0,0a.41.41,0,0,1,0-.08.36.36,0,0,0,0-.09.63.63,0,0,0,0-.09l.07-.17c.09-.21.09-.21.18-.24s0,0,.06,0a.21.21,0,0,1,0,.06,2.1,2.1,0,0,1-.07.31l0,.18h0l.08,0s.05,0,.06,0a.63.63,0,0,1,0-.09l0-.1c0-.11.12-.26.13-.27a.22.22,0,0,1,.12-.05l.08.07v0a1.48,1.48,0,0,1-.07.24l0,.11h0l.13,0,.11,0a.46.46,0,0,1,.13.08.39.39,0,0,1,0,.12v0l-.13.06-.13,0s0,0,.09.07l.11.09.06,0s0,0,0,.07,0,.08,0,.1,0,0-.3-.1l-.21-.1-.06,0-.08,0-.08,0,0,0,.08,0,.17.12.13.09,0,0c0,.05,0,.07,0,.1h-.05l-.07,0-.09,0-.5-.22-.08,0c-.07,0-.07,0-.06,0s0,0,0,0l.16.15a.86.86,0,0,1-.25.09s0,0,0,0,.07.1.1.1l.37,0,.35,0,0,0,0,0,0,.06s0,0-.07.07l-.11,0-.2,0-.12,0a.56.56,0,0,0,.11.11h.23l.17,0c.14,0,.2,0,.21,0a.07.07,0,0,0,0,0s0,0,0,.07,0,0,0,.06l-.23.06-.11,0s0,0,0,0l0,0,0,0s.06,0,.06.06a.24.24,0,0,1,0,.15v0l-.06,0c-.06,0-.09,0-.12,0l0,0-.09-.07-.06,0s0,0,0,0,0,.24,0,.27a.17.17,0,0,1,0,.12s0,0-.11,0,0,0,0-.08a.23.23,0,0,1,0-.07.37.37,0,0,0,0-.08s0-.13,0-.21a.4.4,0,0,0,0-.15s-.12-.12-.13-.11a1.29,1.29,0,0,0,0,.35c0,.15,0,.17,0,.19s0,0-.1,0-.06-.06-.08-.19,0-.07,0-.07,0,0,0,0,0,0,0,0v0l0-.22a.76.76,0,0,0,0-.22s-.14-.1-.12-.06a.32.32,0,0,1,0,.07s0,.09,0,.14,0,.09,0,.09l0,0-.2-.18s0,0,0,0A.37.37,0,0,0,83,68s0,.06.28.45c.06.07.1.14.11.15a.22.22,0,0,1,0,.09s0,0,0,0-.07,0-.1,0l-.06-.05,0,0,0,0h0l0,0a1.13,1.13,0,0,0-.11-.11l-.06-.06a.5.5,0,0,0-.05.15.06.06,0,0,0,0,.07,2.58,2.58,0,0,0,.19.24c.12.15.12.15.12.2s0,.08,0,.09-.06,0-.21-.15l-.12-.1s0,0-.05.16,0,.13-.13.17l-.07,0,0,0c-.08-.1-.08-.1-.07-.2s0-.13,0-.15,0,0,0,0l-.15.07-.15.07h-.06c-.07,0-.08,0-.08-.09s0-.07.11-.12l.34-.24s0,0,0-.09a.78.78,0,0,1,0-.09,3,3,0,0,0-.35.18l0,0-.07,0c-.07,0-.08,0-.08-.1s0-.06.12-.13l.3-.2.2-.14a.32.32,0,0,1,0-.08c0-.07,0-.07,0-.07l-.08,0-.13,0s-.06,0-.07,0,0,0,0-.17,0-.12,0-.12l-.07,0a.09.09,0,0,0-.07.05.13.13,0,0,1,0,.07l-.08.15L82,68l-.07.13a.12.12,0,0,1-.1.08h-.06l0-.05c0-.07,0-.08,0-.32a1.38,1.38,0,0,0,.06-.19h-.06a.17.17,0,0,0-.13.08s0,0,0,0l-.13.17-.14.18-.07,0s0,0-.07,0a.11.11,0,0,1,0-.12,1.55,1.55,0,0,1,.12-.25.13.13,0,0,0,0-.05h-.11c-.16,0-.15,0-.24-.09l0,0,0-.06s0-.08.05-.08l.09,0h.16s0,0,0,0l0-.07,0,0,0,0-.06-.08,0-.06,0,0a.14.14,0,0,1,.11-.09c.06,0,.07,0,.1,0l.06.07a1.69,1.69,0,0,1,.23.25s0,0,.08,0l.07,0s0,0,0,0l-.23-.2c-.07-.06-.09-.07-.1-.1a.09.09,0,0,1,0-.11s.07,0,.13,0l.26.15c.23.14.28.16.32.16l.08,0,0,0,0,0s0,0,0,0L82.07,67S82,67,82,67s0,0,.07,0l.13,0s.1,0,.1,0l-.1-.1h-.58c-.14,0-.15,0-.19,0s0-.07,0-.11,0-.06.2-.09l.15,0,.08,0c.1,0,.1,0,0-.06l0,0h-.48a.12.12,0,0,1-.1,0s-.06-.07,0-.12,0,0,.21-.09.16,0,.15-.05a.57.57,0,0,0-.08-.08.22.22,0,0,1-.07-.1.15.15,0,0,1,0-.13v0h0c.06,0,.11,0,.12,0s0,0,0,0l.09.08.07,0s0-.08,0-.18,0-.19.09-.23,0,0,0,0Z" transform="translate(0.74 -0.44)"/><path id="path6400-2" data-name="path6400" class="cls-14" d="M62.11,77.38c.08-.18,0-.16.48-.26l.48-.11c.1,0,.13,0,.2-.17l.06-.11H63l-.61,0-.08,0,0,0,0-.11a.42.42,0,0,1,.09-.14,1.7,1.7,0,0,1,.41-.15l.3-.07.45-.12c.07,0,.07,0,.13-.11s.06-.15,0-.12h-.37a.74.74,0,0,1-.16,0l.13-.25a1.18,1.18,0,0,0,.13-.24,1,1,0,0,0-.29,0l-.38.39c-.49.52-.48.52-.59.52s-.15,0-.16-.07,0-.13.22-.43l.24-.36,0-.06a1.06,1.06,0,0,0-.31,0l-.1.1-.16.18a4,4,0,0,0-.29.32.29.29,0,0,1-.26.13c-.06,0-.07,0-.08-.06s0-.15.15-.42a1.21,1.21,0,0,0,.17-.27l-.24,0c-.28,0-.32,0-.4-.14l-.06-.09,0-.1c.08-.18.08-.17.35-.19l.24,0a2.71,2.71,0,0,0-.18-.27l-.17-.25v-.16l.08,0c.12,0,.16,0,.19,0a4.76,4.76,0,0,1,.36.35c.34.34.32.33.39.33a.58.58,0,0,0,.2,0s-.09-.14-.22-.31c-.34-.46-.31-.41-.3-.51V73.8l.1,0a.22.22,0,0,1,.16,0s.33.29.75.7c.21.2.22.21.3.19h.2l-.11-.17-.13-.19c-.06-.06-.08-.12-.07-.14a1.18,1.18,0,0,1,.41,0h.14a.75.75,0,0,0-.1-.2.09.09,0,0,0-.08,0l-.14,0-.19,0-.17,0-.33-.06c-.41-.08-.41-.08-.49-.23s0-.06,0-.12a.2.2,0,0,1,.08-.08,1.72,1.72,0,0,1,.57,0h.34a.1.1,0,0,0,0-.06l-.08-.12C63,73,63,73,63,73l-.17,0-.2,0a3.67,3.67,0,0,1-.53-.12.37.37,0,0,1-.12-.2s.08-.19.09-.17h0a1.9,1.9,0,0,1,.45,0l.22,0,0-.06a1.78,1.78,0,0,1-.11-.21L62.5,72a.57.57,0,0,1,.11-.27s.08,0,.21,0h.1l.14.21.15.21A1.15,1.15,0,0,0,63.3,72l.11-.23.05-.12c0-.07,0-.07.11-.11s.14,0,.2,0,0,0-.07.58c0,.17-.08.36-.09.42l0,.12.09.14a.44.44,0,0,0,.1.13.56.56,0,0,0,0-.08l.06-.16s.09-.21.15-.35l.1-.27.08,0c.08-.05.11,0,.18,0s0,.06,0,.09,0,.08,0,.14,0,.14,0,.17-.2,1-.2,1a.62.62,0,0,0,.06.14c.07.11.07.11.1.09s0,0,.06-.08a3.63,3.63,0,0,1,.19-.36,2.1,2.1,0,0,1,.26.42s0,0,.07,0,.14-.17.13-.22-.09-.32-.2-.66l-.21-.62.06-.09,0-.1h.1c.11,0,.11,0,.15.1a1.23,1.23,0,0,1,.1.2l.16.33a1,1,0,0,0,.11.22,1.66,1.66,0,0,0,.16-.24.47.47,0,0,0-.05-.21l-.06-.21s-.05-.15-.1-.3-.1-.35-.07-.38a.15.15,0,0,0,0-.06s0,0,.12,0,.11,0,.14.06.11.21.19.38a.78.78,0,0,0,.09.19s0,0,.06-.08l.06-.09.07-.12a.49.49,0,0,1,.08-.13.73.73,0,0,1,.25-.09h.07l.06.09c.06.11.07.17,0,.23a.37.37,0,0,0,0,.11,1.08,1.08,0,0,1-.07.18.81.81,0,0,0-.06.13h.06l.49-.06a.32.32,0,0,1,.23.06c.07,0,.07,0,0,.19s0,.07-.12.11a.29.29,0,0,1-.11,0l-.15,0-.36.1a1.29,1.29,0,0,0-.28.09.92.92,0,0,0-.14.28,4.39,4.39,0,0,0,.64-.08c.26,0,.3,0,.35,0s.1.07,0,.19-.08.14-.3.22-.13.05-.13.07,0,.07,0,0,0,0,0,0h-.06L66,73.7a1.56,1.56,0,0,0-.38.14c-.07.09-.12.29-.06.25s.06,0,.12,0H66a.35.35,0,0,1,.17,0,.17.17,0,0,1,0,.07l-.26.43s0,0,.1,0a.48.48,0,0,0,.17,0c.08,0,.11,0,.69-.69l.24-.25a.34.34,0,0,1,.14,0c.09,0,.11,0,.12,0a.18.18,0,0,1,0,.2l-.08.13,0,.08s0,0,0,0,0,0,0,0,0,0-.07.09l-.15.23c0,.08-.09.14-.08.15l.28,0a.16.16,0,0,0,.12-.05,4.78,4.78,0,0,0,.36-.43c.22-.29.22-.29.31-.31s.14,0,.18.07,0,.09-.18.44a1.63,1.63,0,0,0-.14.24s.06,0,.29,0,.26,0,.36.18l.08.11L68.4,75c-.15.17-.16.18-.33.21a1.07,1.07,0,0,1-.27,0h0s.08.12.18.26l.19.24v.11c0,.13,0,.17-.12.18s-.13,0-.25-.14-.47-.46-.56-.54-.07,0-.18,0h-.16a6.37,6.37,0,0,0,.44.56l.07.08v.13c0,.14,0,.17-.15.19s-.12,0-.28-.17l-.46-.46c-.31-.31-.3-.3-.33-.3a.63.63,0,0,0-.14,0c-.13,0-.14,0-.12,0l.08.14.12.21a.3.3,0,0,1,.06.11s-.09,0-.31,0-.22,0-.21,0a.41.41,0,0,0,0,.11c0,.08.06.09.11.1l.15,0,.28.09.41.13.26.07a.23.23,0,0,1,.18.16l0,.09L67,76.8c-.11.09-.13.09-.59,0a2,2,0,0,0-.36,0s0,.06,0,.11a.28.28,0,0,0,.18.2l.06,0,.35.17a2.43,2.43,0,0,1,.38.19.22.22,0,0,1,.07.12c0,.07,0,.09,0,.12s-.12.1-.19.09a3.41,3.41,0,0,1-.51-.12s-.07,0-.07,0a.88.88,0,0,0,0,.19c.09.28.09.27-.06.47l0,.07-.13,0c-.07,0-.15,0-.16,0a.44.44,0,0,1-.08-.16c0-.08-.05-.16-.06-.19l0-.08s0,0,0,0a.91.91,0,0,1-.1.13.3.3,0,0,0-.07.09l0,0-.11.12-.09.11-.08,0a.24.24,0,0,1-.19-.18c0-.1,0-.12,0-.18a.85.85,0,0,0,.1-.14,4.33,4.33,0,0,1,.36-.51s0,0,0-.14a.28.28,0,0,0-.08-.12s0,0,0,.06l-.26.5c-.08.15-.11.19-.15.21s-.14,0-.2,0-.08-.12,0-.25l.17-.52c.16-.46.19-.57.16-.64a.38.38,0,0,0-.08-.13l0-.07,0,.06,0,.1a.93.93,0,0,0-.1.17.65.65,0,0,1-.09.14s-.06,0-.1-.11l-.11-.22a.74.74,0,0,0-.1-.16,1,1,0,0,0-.14.21.59.59,0,0,0,0,.23s0,.06,0,.12.09.39.17.7.07.27,0,.34-.1.12-.17.11-.12-.06-.23-.32-.1-.24-.12-.27l-.06-.15c-.06-.15-.07-.15-.13,0a.41.41,0,0,0-.06.1,1.44,1.44,0,0,0,.09.44c0,.14.07.27.08.29s0,.08,0,.14,0,.11,0,.18-.1.15-.2.13-.09,0-.23-.35-.12-.28-.15-.25L63.2,78a1.1,1.1,0,0,1-.14.17.43.43,0,0,1-.24.06h-.07l0-.1c0-.09-.05-.18,0-.21l.05-.09s.06-.13.1-.2.06-.12,0-.13l-.32,0c-.32,0-.35,0-.45-.07s0,0,0-.1Z" transform="translate(0.74 -0.44)"/><path id="path6402-2" data-name="path6402" class="cls-14" d="M56.17,73.81c-.21-.1-.18,0-.29-.57-.05-.27-.1-.52-.1-.56s-.05-.15-.19-.24l-.12-.07v.11s0,.17,0,.26,0,.68,0,.71l0,.09,0,.06-.12,0a.3.3,0,0,1-.15-.1A2,2,0,0,1,55,73s0-.19-.07-.35a4.6,4.6,0,0,1-.11-.53c0-.08,0-.08-.13-.15s-.16-.08-.13,0a.52.52,0,0,1,0,.13v.3a.9.9,0,0,1,0,.18,1.68,1.68,0,0,1-.28-.16L54,72.19a1.34,1.34,0,0,0,0,.34l.43.45c.58.59.57.58.57.71s0,.18-.09.19-.15,0-.48-.28L54,73.31l-.06,0a1.12,1.12,0,0,0-.05.36s.05.07.11.12.14.13.19.19.23.24.35.35.16.19.14.31,0,.07-.07.09-.17,0-.47-.2a1.45,1.45,0,0,0-.3-.2s0,.12,0,.27c0,.33-.06.37-.18.46l-.1.07L53.39,75c-.2-.1-.2-.1-.21-.41,0-.15,0-.28,0-.28l-.32.19-.29.2h-.18l0-.1c0-.14-.05-.19,0-.22s.24-.24.41-.4c.41-.38.39-.36.4-.44a.75.75,0,0,0,0-.23,3,3,0,0,0-.35.24c-.54.38-.49.35-.6.33h-.1l0-.11c0-.1,0-.13,0-.18a10.25,10.25,0,0,1,.82-.85c.24-.23.25-.24.24-.34a.81.81,0,0,1,0-.16v-.07l-.19.12a1.77,1.77,0,0,0-.22.14c-.08.07-.14.09-.17.08a1.47,1.47,0,0,1,0-.48.46.46,0,0,0,0-.16l-.23.1a.17.17,0,0,0-.06.1.62.62,0,0,1,0,.16,1.74,1.74,0,0,0-.05.22c0,.06,0,.14,0,.19L52,73c-.11.47-.11.48-.28.56s-.07,0-.14,0a.27.27,0,0,1-.09-.1,2.52,2.52,0,0,1,0-.66,2.2,2.2,0,0,0,0-.39s0,0-.06,0l-.15.09c-.09,0-.1.06-.11.11s0,.13-.05.2,0,.18-.06.23c-.05.23-.13.57-.15.61a.44.44,0,0,1-.24.13.53.53,0,0,1-.2-.11s0,0,0,0a3,3,0,0,1,0-.52l0-.25-.06,0-.25.12-.21.1a.67.67,0,0,1-.3-.13s0-.09,0-.25v-.11L50,72.5a2.49,2.49,0,0,0,.24-.17L50,72.22l-.26-.13L49.64,72c-.07,0-.08,0-.12-.13s0-.17.06-.24.07-.06.66.1l.48.12.13,0,.17-.09a.61.61,0,0,0,.15-.12l-.09,0-.18-.08-.4-.18-.3-.13,0-.09c0-.11,0-.14.05-.22s.08,0,.11,0l.16,0,.19,0c.1,0,1.08.27,1.13.27l.16-.07c.13-.07.13-.08.11-.11L52,71l-.4-.24a3,3,0,0,1,.49-.29c.06,0,.06,0,0-.07a.39.39,0,0,0-.24-.16s-.36.09-.75.21l-.72.21-.1-.06-.11-.07,0-.12c0-.12,0-.12.11-.17l.23-.11.39-.17.25-.11a1.58,1.58,0,0,0-.27-.2.6.6,0,0,0-.24,0l-.25.06-.33.1c-.3.09-.41.11-.44.07l-.07,0s0,0,0-.14,0-.12.07-.15a3.83,3.83,0,0,1,.44-.21.73.73,0,0,0,.22-.1l-.09-.08-.1-.07L50,69.1A.82.82,0,0,1,49.8,69a.7.7,0,0,1-.1-.29v-.08l.11-.07c.13-.07.2-.08.27,0a.48.48,0,0,0,.12,0l.2.1c.08,0,.14.07.15.06a.14.14,0,0,0,0-.07c0-.1,0-.5,0-.56a.38.38,0,0,1,.07-.26c.06-.08.06-.08.22,0s.08,0,.13.15a.58.58,0,0,1,0,.13l0,.17c0,.08.07.27.1.42a2.11,2.11,0,0,0,.09.32.87.87,0,0,0,.32.18,3.39,3.39,0,0,0-.07-.75c0-.3,0-.34,0-.41s.08-.1.21,0,.16.09.24.36.05.15.08.15.07,0,0,0,0,0,0,0a.24.24,0,0,1,0,.08s.06.23.12.45a1.87,1.87,0,0,0,.14.44c.1.09.33.16.28.09a.35.35,0,0,1,0-.15v-.31a.51.51,0,0,1,0-.19l.08,0,.48.32s0,0,.05-.12a.66.66,0,0,0,0-.19c0-.1,0-.13-.75-.83a3.32,3.32,0,0,1-.28-.28.35.35,0,0,1,0-.17c0-.1,0-.12,0-.13a.18.18,0,0,1,.22,0l.14.09.1.07s0,0,0,0,0,0,0,0a.49.49,0,0,0,.1.09l.26.18.16.1a2.36,2.36,0,0,0,.05-.33.18.18,0,0,0-.06-.14,4.86,4.86,0,0,0-.47-.43c-.32-.27-.32-.27-.34-.37s0-.17.09-.2.11,0,.49.22l.27.17s0-.06.05-.34,0-.29.21-.41l.13-.08.09.08c.19.18.2.19.22.39a1,1,0,0,1,0,.32v0l.3-.2.29-.21.12,0c.15,0,.18,0,.19.14s0,.15-.17.29l-.63.62a.4.4,0,0,0,0,.21c0,.09,0,.17,0,.18a6.81,6.81,0,0,0,.66-.49l.08-.07.15,0c.17,0,.2,0,.21.18s0,.14-.2.31l-.54.52c-.36.35-.35.34-.36.38v.15c0,.16,0,.16,0,.15l.16-.09.25-.14.13-.06s0,.11,0,.36,0,.25,0,.25l.13-.06c.09,0,.11-.06.12-.12a1.77,1.77,0,0,1,.06-.17l.12-.33.15-.46c.05-.13.09-.27.1-.3a.26.26,0,0,1,.19-.21l.1,0,.07.1c.1.13.1.16,0,.68a2.2,2.2,0,0,0,0,.42l.13,0A.32.32,0,0,0,56,69s0-.07,0-.07.1-.19.2-.41.21-.41.23-.43a.37.37,0,0,1,.14-.07c.09,0,.11,0,.15,0a.26.26,0,0,1,.09.23c0,.06-.07.29-.16.57,0,0,0,.09,0,.09a.89.89,0,0,0,.22,0c.31-.08.3-.09.53.09l.08.07,0,.15a1.2,1.2,0,0,1-.06.18.67.67,0,0,1-.19.09l-.22.06-.1,0s0,0,0,0a.69.69,0,0,1,.14.12l.11.09s0,0,0,0l.14.13.12.11,0,.1a.25.25,0,0,1-.21.21c-.11,0-.14,0-.2,0l-.15-.11a4.57,4.57,0,0,1-.58-.44s0,0-.16,0l-.14.09s0,0,.07.06l.57.33c.16.09.2.12.23.17s0,.17,0,.23-.13.09-.28,0L56,70.54c-.52-.2-.64-.23-.71-.21a.37.37,0,0,0-.16.09l-.08.06.07,0,.11.07.19.12.16.1s-.05.08-.13.12l-.26.12-.19.1a1,1,0,0,0,.24.18,1.09,1.09,0,0,0,.26,0,.39.39,0,0,1,.14,0l.8-.17c.29-.07.31-.07.4,0s.12.12.11.21-.07.13-.38.25l-.3.12-.17.07c-.19.07-.19.07-.07.15l.12.08a2.51,2.51,0,0,0,.49-.09l.33-.08.17,0a.22.22,0,0,1,.21,0c.13.07.16.13.13.24s0,.1-.4.25-.32.13-.29.16a1,1,0,0,0,.19.15,1.43,1.43,0,0,1,.19.16.52.52,0,0,1,.05.29v.08l-.11.05c-.11,0-.22,0-.25,0l-.1-.06L56.51,73c-.07,0-.14-.08-.14-.07a1.91,1.91,0,0,0,0,.37c0,.38,0,.41-.09.53s-.05,0-.11,0Z" transform="translate(0.74 -0.44)"/></g></g></g></svg>