<svg id="svg13195" xmlns="http://www.w3.org/2000/svg" viewBox="0 0 110 110"><defs><style>.cls-1{fill:#520;fill-opacity:0;}.cls-2,.cls-3,.cls-4,.cls-5,.cls-6,.cls-7,.cls-8{fill:#fff;}.cls-2{opacity:0.85;}.cls-2,.cls-3,.cls-4,.cls-5,.cls-6,.cls-7,.cls-8,.cls-9{isolation:isolate;}.cls-3{opacity:0.9;}.cls-4{opacity:0.8;}.cls-5{opacity:0.95;}.cls-6,.cls-9{opacity:0.5;}.cls-7{opacity:0.67;}.cls-8{opacity:0.6;}.cls-9{fill:#dbe3e2;}</style></defs><g id="layer1"><g id="snowy"><rect id="rect6735" class="cls-1" width="110" height="110"/><g id="g6506"><g id="g5564"><path id="path5566" class="cls-2" d="M55,58.42c1.78,2.36,5.79,2.25,8.74,1.83,1.76-.25,3.09-1.74,4.7-2.49A21.16,21.16,0,0,1,73,55.93c3.84-.8,11.76-.33,11.76-.33S74.64,58,74.53,54.6c0-1.41,2.8-.45,4.2-.67s4,2,4.37-.66-.5-2.33.51-2.67a20,20,0,0,0,2.52-1.16s-2.63-2.08-4-3c-1.23-.81-3.43-.77-3.86-2.17s.81-2.76,1.85-3.66c.8-.68,3.36-.33,3-1a10.34,10.34,0,0,0-2.35-3,17.42,17.42,0,0,0-5-2.16,25.31,25.31,0,0,0-5-1.33,25.82,25.82,0,0,0-4,0c-1.91,0-4-.44-5.72.33a8.71,8.71,0,0,0-4.2,4.16C53.78,43.94,50.84,52.85,55,58.42Z" transform="translate(0.74 -10.21)"/><path id="path5568" class="cls-2" d="M43.87,38.49c1.47-1.74,3.67-2.84,5-4.7.45-.63.49-1.49,1-2.12.63-.85,1.34-2.37,2.38-2.12,1.31.32.4,2.89,1.42,3.77a4.56,4.56,0,0,0,3.33.7c1-.09,2.33-.29,2.85-1.17.37-.61-.53-1.47-.24-2.12.22-.49-1.87-1,1.31-.94,1.14,0,3.07.94,4.63.82,1.38-.1,5.17-1.11,3.93-1.29,1,1.94-3,3.24-4.64,4.7-.67.6-2.36.78-2.14,1.65s1.89.56,2.85.47A9.53,9.53,0,0,0,68.82,35c1-.51,1.73-1.68,2.85-1.89s2,.52,3.09.71,2.54,1.08,3.57.47a2.38,2.38,0,0,0,1-2.59c-.29-.75-1.57-.6-2.14-1.17s-2-1.79-1.43-2.59c.88-1.23,3,.67,4.52.7.71,0,1.43-.36,2.14-.23.17,0,.42.07.47.23.26.88-1.34,1.45-1.42,2.36-.13,1.33,1.84,2.48,1.42,3.76-.35,1.08-1.79,1.45-2.85,1.88a32.49,32.49,0,0,1-3.56.71,45.94,45.94,0,0,0-5.71,2.11c-.65.29-2,.25-1.9,1,.2,1.68,3.28,1.27,5,1.17,2.1-.11,3.84-2.09,5.94-2.12a6.78,6.78,0,0,1,2.85,1c1.45.68,2.46,2.32,4,2.58s3.14-1,4.76-1.17c1.18-.15,2.59-.68,3.56,0s1.79,2.29,1.19,3.29C95,46.92,91.89,46,89.73,46c-1.83,0-4.89-2.43-5.46-.7-.51,1.53,2.73,1.83,4.27,2.35a15.59,15.59,0,0,0,6.18.94,14,14,0,0,0,2.85-.94c.56-.17,1.26-.88,1.67-.47.75.76-.22,2.27-.95,3.06-1,1.1-2.78,1.36-4.28,1.64a13.08,13.08,0,0,1-3.8,0c-1.78-.19-3.45-1-5.23-1.17a17.65,17.65,0,0,0-3.56,0,30.08,30.08,0,0,0-5,.94c-1.46.37-2.8,1.17-4.28,1.41-1.1.17-2.73.92-3.33,0-.7-1.1,2.3-2.39,1.66-3.53-.92-1.66-3.81-1-5.7-.71A10.7,10.7,0,0,0,60,51.2c-1.09.88-1.28,2.83-2.62,3.29-2.3.8-4.72-1.26-7.12-1.65-4.95-.8-12.8,3.06-15-1.41-2.25-4.64,5.23-9,8.56-12.94Z" transform="translate(0.74 -10.21)"/><path id="path5570" class="cls-3" d="M47.82,44.28l5,1,4,1.33,4,.34,3.36-.34a2.53,2.53,0,0,1,1.68-1c1.35-.33.68-.33,2-.66a28,28,0,0,0,3-1l1-.66s0-.67-1.68-1S68,39,68,39a5.22,5.22,0,0,0-3.7-.33c-1.68.66-3.36,2-5.37,2.33s-6-.67-6-.67l-3,2Z" transform="translate(0.74 -10.21)"/><path id="path5572" class="cls-4" d="M24.8,52.27l3.52-1.33,2.86,1.16a2.94,2.94,0,0,1,1.51-1.16c.84-.17,2.52.83,3.2.83s-3.7,0,2,.33,5.55,1,5.38.17-2.19-2.66.5-2.16l2.69.49,4-1L55,51.77l2,.17a18.66,18.66,0,0,1,3.86,1c.84.5,3.87.34.84.5s-2.52-1.16-4.2.5a8,8,0,0,1-4.37,2.5c-.84,0-2.69-.5-4.2-.5s-2.69-.33-3.36.16-1.17,1.83-2.52,1.5-5-1.33-5-1.33H36.39l-3-.66a1.72,1.72,0,0,0-1-1.17,15.91,15.91,0,0,0-3-.5l-2-.16Z" transform="translate(0.74 -10.21)"/><path id="path5574" class="cls-4" d="M54.37,44,64,45s3.53-1.83,4-1.66,3.36,1,3.36,1,3.7-.16,4.54-.33,6.72-.83,6.72-.83,4.37,2.33,5,2.33,8.91.83,8.91.83l10.75,1.66L97.05,49.27l-10.92-.33-5.72-.16-12.09,2-8.07-1.16-14,1.16Z" transform="translate(0.74 -10.21)"/><path id="path5576" class="cls-4" d="M40.09,51.6c1.5,2.07,5.2.5,7.73,0,1.42-.28,2.57-1.59,4-1.66s2.85,1.18,4.37,1.33a10.33,10.33,0,0,0,3.36-.33c1.76-.43,3.26-1.66,5-2a27.37,27.37,0,0,1,5,0,21.77,21.77,0,0,0,3.7,0c2-.34,3.72-1.66,5.71-2,1.32-.23,3.22,1.06,4,0,.49-.65,3.58-.6,2.89-1-1.24-.79-6.53-.17-7.93-.63-.9-.29-6.91.33-3.8-2.23-.72-4.14-5.18,4-9,3.9-1.56,0-4.38-.12-4.37-1.67,0-1.3,2.89-.3,3.7-1.33s1.06-2.47.34-3.33c-.87-1-2.71-.07-4-.33-3.23-.64-6.6-1.29-9.41-3-1.08-.66-1.42-2.69-2.69-2.66-2.29,0-3.53,3-4.7,5C42,43.24,37.6,48.19,40.09,51.6Z" transform="translate(0.74 -10.21)"/><path id="path5578" class="cls-5" d="M52.89,27.9c-2.63,0-3.29,5-5.92,5.19-1.21.1-1.9-1.78-3.1-1.89-4.64-.43-8.46,4.3-13.08,4.94-1.81.25-3.65-.83-5.45-.48-2.19.44-7.9.45-7.37,2.6.38,1.52,5.7-1,6.17.47s-2.93,1.33-3.79,2.6c-.41.59.1,1.65-.48,2.09-2.18,1.69-4.13.79-6.89,1.07s-9.44-2.16-9.51.58c0,1.39,2.75.64,4,1.2a7.5,7.5,0,0,1,2.39,1.39c.33.33.3,1,.71,1.18,2.25,1.17,5.08-.65,7.61-.48a23.63,23.63,0,0,1,5.7,1.2c2.65.88,4.95,2.65,7.61,3.52,1.15.37,2.86-.29,3.55.7.87,1.24-1.85,3.47-.7,4.46,1.43,1.24,3.58-1.36,5.47-1.64a19.58,19.58,0,0,1,5.46,0A22.55,22.55,0,0,1,50.52,58c1.42.55,2.63,1.54,4,2.12,2.75,1.13,5.62,3,8.56,2.59,2.2-.34,19.73-5.36,5.47-3.76-.41-2.5-1.77.53-7.38-2.12-1.36-.65-3.66,1-4.51-.25-.71-1,.32-2.62,1.18-3.52s3.21-.21,3.58-1.42c.28-.92-1-1.64-1.66-2.35C59,48.41,58.18,47.06,57,47c-1.56-.12-2.7,1.59-4.06,2.35a8.49,8.49,0,0,1-2.6,1.42C48.87,51,47,51.08,46,50s.06-3-.25-4.47c-.14-.65-1-1.28-.71-1.87.9-1.62,3.66-.72,5.47-1.17,3.12-.77,6.2-1.68,9.28-2.6,2.23-.66,2.62-1.3,6.65-2.12.61-1,7.4-1.78,6.4-2.46S63,34.71,61.69,35c-1.51.29-3,.69-4.51.95s-3.78,1.85-5,.7-.17-3.27.47-4.71c1.33-1.23,9.49,1.18.23-4Zm-29,18.72,2.62.34,3.2,1.18,1.89.6,1.56.7-.6.57L31,49.66l-2.27-.57L27,48l-2.39-1Z" transform="translate(0.74 -10.21)"/><path id="path5580" class="cls-3" d="M35.72,56.93c1.87.48,3.19,0,4.7,0s3-.23,4.37-.34a34.38,34.38,0,0,0,4-.33c1.41-.27,3.35-.55,4.37-1.33s2.33-1.33,1.68-2.66-4.25-.2-5.71-.67-1.79-1.14-3-1.66-3-1.47-4.37-1.33-2,1-3,1.66-1.48,2-3,2.66-5.62-1.43-6,.67,4.17,2.84,6,3.33Z" transform="translate(0.74 -10.21)"/><path id="path5582" class="cls-3" d="M71.34,40.29l4,1.67,2.69-1.67,2.69.67,3.7,1.66,3,1a3.19,3.19,0,0,1-2.35.33c-1.35-.33-4.37-.66-4.37-.66l-4.37,2-2.69-.66-2.35-1.33Z" transform="translate(0.74 -10.21)"/><path id="path5584" class="cls-6" d="M53,50.44l4.71-.33,3.36.66,5-.17,4.71-.66-4-.5s-2.52.17-3.53.33-3.69-.66-4.53-.66H56.22A8.44,8.44,0,0,0,53,50.44Z" transform="translate(0.74 -10.21)"/><path id="path5586" class="cls-7" d="M55.21,33l1.68-1,.5-1.49,1.68.5.68.33v2H58.4l-1.85,1.33Z" transform="translate(0.74 -10.21)"/><path id="path5588" class="cls-6" d="M70.67,48.78l4.7-.34,3.36.67,5-.17,4.71-.66-4-.5s-2.52.16-3.53.33-3.7-.67-4.54-.67H73.86a8.34,8.34,0,0,0-3.19,1.34Z" transform="translate(0.74 -10.21)"/><path id="path5590" class="cls-6" d="M65.63,35.3l4.7-.33,3.36.66,5-.16,4.71-.67-4-.5s-2.52.17-3.53.34S72.18,34,71.34,34H68.82a8.37,8.37,0,0,0-3.19,1.33Z" transform="translate(0.74 -10.21)"/><path id="path5592" class="cls-6" d="M51.18,56.59l4.7-.33,3.36.67,5-.17L69,56.09l-4-.49s-2.53.16-3.53.33-3.7-.67-4.54-.67H54.37a8.37,8.37,0,0,0-3.19,1.33Z" transform="translate(0.74 -10.21)"/><path id="path5594" class="cls-6" d="M11.86,50.11l4.7-.34,3.36.67,5-.17,4.71-.66-4-.5s-2.52.16-3.53.33-3.7-.66-4.54-.66H15.05a8.37,8.37,0,0,0-3.19,1.33Z" transform="translate(0.74 -10.21)"/><path id="path5596" class="cls-8" d="M30.84,42.29l2.69-1.67,1.85.17,3-1H42.1L45,39.46l-1.51,2.16-2.69-.5-3.19.67-2.86,1Z" transform="translate(0.74 -10.21)"/></g><path id="path6386" class="cls-9" d="M48.88,83c-.21.12-.14.13-.65-.09-.25-.11-.49-.21-.53-.24s-.15,0-.3,0l-.13.06.09.06.22.15.61.4s0,0,.05.08l0,.07-.11.07a.3.3,0,0,1-.18.08,2,2,0,0,1-.49-.15l-.34-.13-.51-.22c-.07,0-.07,0-.2,0s-.16.1-.1.1l.11.06a2.13,2.13,0,0,0,.25.17l.15.12-.29.14a1.16,1.16,0,0,0-.29.14.9.9,0,0,0,.26.22l.63-.11c.83-.14.81-.14.92-.08s.14.12.11.19-.12.11-.52.26l-.47.17s-.07,0-.07,0a1.32,1.32,0,0,0,.28.25l.16,0,.28,0,.49-.1a.35.35,0,0,1,.34.06s0,.06,0,.11-.07.16-.44.29l-.34.14s.09.09.2.2.28.26.29.42V86l-.12.06c-.2.11-.19.11-.46-.06a1.17,1.17,0,0,0-.25-.14s0,.17,0,.37v.37l-.06.07-.06.08-.1,0c-.14,0-.18-.07-.19-.11s-.07-.34-.1-.58c-.08-.57-.08-.54-.14-.6a1,1,0,0,0-.19-.13,3.49,3.49,0,0,0,0,.44c0,.68,0,.61-.06.7l-.07.08-.11,0c-.09,0-.12,0-.15-.11a10.66,10.66,0,0,1-.23-1.19c-.06-.33-.07-.35-.15-.39l-.14-.09-.06,0v.23a2.39,2.39,0,0,0,0,.28c0,.1,0,.17,0,.18s-.17-.07-.42-.25c-.07-.06-.13-.1-.14-.09a1.37,1.37,0,0,0,0,.25.16.16,0,0,0,0,.11.81.81,0,0,1,.11.13l.15.17a1,1,0,0,1,.14.15s.16.17.27.29c.33.36.34.37.31.56s0,.07-.1.1l-.13,0a2.29,2.29,0,0,1-.55-.4,2.33,2.33,0,0,0-.32-.24s0,0,0,.06a1.21,1.21,0,0,1,0,.18c0,.1,0,.12,0,.16l.14.15a1.6,1.6,0,0,0,.16.19,5.73,5.73,0,0,1,.41.48.45.45,0,0,1,0,.28s-.21.13-.21.1a0,0,0,0,0,0,0,1.91,1.91,0,0,1-.41-.34l-.19-.17,0,.08s0,.16,0,.28a1.24,1.24,0,0,1,0,.24.8.8,0,0,1-.28.18s-.09,0-.22-.14l-.08-.07v-.3a1.23,1.23,0,0,0,0-.3L44,87.3l-.26.15-.13.08c-.06,0-.07,0-.18,0s-.16-.06-.16-.19,0-.09.47-.5l.38-.34.1-.1v-.19a.39.39,0,0,0,0-.19l-.08,0-.18.11-.38.24-.28.17h-.1c-.12,0-.14,0-.15-.17a.14.14,0,0,1,0-.11l.13-.11.15-.14c.09-.07.85-.77.88-.8a.54.54,0,0,0,0-.18c0-.15,0-.16,0-.16l-.11,0-.43.21a2.44,2.44,0,0,1,0-.58c0-.07,0-.08,0-.08a.52.52,0,0,0-.28.11s-.13.37-.26.77l-.23.73-.12.06-.12,0-.08-.08c-.09-.09-.09-.09-.08-.2s0-.17,0-.26l.08-.42c0-.16.05-.28.05-.29l-.32.12a.74.74,0,0,0-.1.23c0,.12-.08.23-.08.25s-.06.17-.11.34-.15.42-.2.42l-.08,0c-.05,0-.06,0-.14-.05s-.09-.1-.09-.15,0-.29.08-.49a1.07,1.07,0,0,0,0-.25s-.06,0-.12,0l-.11.05-.14.06a.7.7,0,0,1-.17.06.75.75,0,0,1-.3-.08l-.08,0v-.13c0-.15.05-.22.12-.25l.12-.07a1,1,0,0,1,.2-.12.44.44,0,0,0,.14-.09l-.06,0-.5-.29a.39.39,0,0,1-.17-.21c0-.1,0-.1.12-.19a.23.23,0,0,1,.2,0l.14,0a.58.58,0,0,0,.16.06l.42.16a1.69,1.69,0,0,0,.32.11.93.93,0,0,0,.33-.17,3.45,3.45,0,0,0-.67-.37c-.27-.15-.3-.17-.33-.24s0-.13.09-.21.17-.07.44,0,.15,0,.17,0,.07,0,.06,0a0,0,0,0,0,0,.06l.07,0,.45.17a2.24,2.24,0,0,0,.45.13c.13,0,.32-.19.24-.19l-.13-.08-.26-.19c-.08-.06-.15-.11-.14-.12s0,0,.07,0l.54-.23s0,0-.06-.11a.92.92,0,0,0-.16-.12c-.09,0-.13,0-1.13.17l-.4.07a.5.5,0,0,1-.17-.06c-.08,0-.1-.07-.09-.1a.22.22,0,0,1,.15-.18l.16-.07.11,0s.06,0,.06,0,0,0,0,0,.06,0,.13,0l.29-.12.19-.08a1.52,1.52,0,0,0-.25-.23.16.16,0,0,0-.15,0,6,6,0,0,0-.64.15c-.41.11-.41.11-.51.07s-.15-.08-.11-.19,0-.11.47-.29l.3-.13s0-.07-.26-.24-.23-.2-.22-.41v-.16l.12,0c.26-.06.28-.06.46,0A1.08,1.08,0,0,1,42,81l0,0a2.3,2.3,0,0,0,0-.36v-.37l.08-.1c.11-.11.15-.13.23-.08s.12.11.15.31.13.76.16.9.05.08.15.15l.16.1a5.58,5.58,0,0,0,0-.85v-.11l.1-.12c.12-.13.16-.14.28-.07s.1.09.14.35.06.37.12.76.09.49.11.52a.4.4,0,0,0,.13.09c.14.08.15.08.14.06s0-.09,0-.18,0-.23,0-.3a.33.33,0,0,1,0-.14s.12,0,.32.17.22.15.22.13a.5.5,0,0,0,0-.14c0-.11,0-.12,0-.18l-.1-.14-.21-.29-.3-.4-.19-.26a.24.24,0,0,1-.07-.28l0-.11h.12c.17,0,.19,0,.58.38a3,3,0,0,0,.32.29.52.52,0,0,0,.05-.12.37.37,0,0,0,0-.32.27.27,0,0,1,0-.07,4,4,0,0,0-.22-.41,4.8,4.8,0,0,1-.23-.45.26.26,0,0,1,0-.16c0-.08,0-.1.1-.11a.3.3,0,0,1,.25.06c.05,0,.2.23.39.46,0,0,.06.07.07.06a1.67,1.67,0,0,0,.09-.22c.11-.32.1-.31.38-.4l.1,0,.11.11a1.24,1.24,0,0,1,.12.16.52.52,0,0,1,0,.21l-.07.23,0,.1s0,0,.06,0a.93.93,0,0,1,.18-.06l.14,0,.05,0,.2,0,.15,0,.07.08a.28.28,0,0,1,.06.3c0,.12-.06.14-.15.15a.67.67,0,0,0-.18.07,5.6,5.6,0,0,1-.7.23s0,0-.07.16v.17s.05,0,.09,0l.6-.29c.18-.09.23-.11.28-.1s.16.06.18.16,0,.17-.15.26l-.52.38c-.47.32-.56.4-.59.49a.9.9,0,0,0,0,.18V82l.07,0a.45.45,0,0,1,.12-.06l.21-.09.18-.08s0,.08,0,.18l-.05.29a.69.69,0,0,0,0,.22,1.25,1.25,0,0,0,.29-.1.86.86,0,0,0,.11-.24.87.87,0,0,1,.06-.15c0-.1.18-.43.31-.77s.13-.31.24-.34.16,0,.23,0,.08.14,0,.47c0,.14-.07.29-.08.33a.74.74,0,0,1,0,.18c0,.2,0,.2.09.15L47.3,82a2,2,0,0,0,.21-.47l.13-.33s0-.1.06-.16.06-.13.14-.17.2-.07.28,0,.08.07,0,.48-.08.35,0,.34l.24-.07.24-.07a.46.46,0,0,1,.27.12l.07,0,0,.13c0,.11-.08.21-.13.21l-.11,0-.23.12-.14.08a2.44,2.44,0,0,0,.31.22c.33.21.35.23.39.38s0,.06-.06.1Z" transform="translate(0.74 -10.21)"/><path id="path6388" class="cls-9" d="M59.38,80.67c0-.16,0-.12.23-.37l.29-.25C60,80,60,80,60,79.86v-.1l-.06,0-.15.09-.41.26h-.11v-.09a.28.28,0,0,1,0-.13,1.9,1.9,0,0,1,.22-.26l.17-.16.27-.25s0,0,0-.13,0-.12,0-.09,0,0-.07,0l-.17.1-.11.07a.7.7,0,0,1,0-.22.88.88,0,0,0,0-.22.93.93,0,0,0-.2.1,4,4,0,0,0-.11.41c-.14.55-.14.54-.21.58s-.1.06-.14,0,0-.1,0-.38,0-.3,0-.34a.08.08,0,0,0,0,0,.67.67,0,0,0-.23.1s0,0,0,.1a1.8,1.8,0,0,1,0,.19c0,.12-.05.21-.07.32s-.06.16-.13.19,0,0-.08,0-.07-.09,0-.34a1.2,1.2,0,0,0,0-.25l-.17.07c-.2.09-.23.1-.33.06l-.07,0v-.08c0-.16,0-.15.17-.27L58,79.1,57.8,79l-.22-.11,0-.06,0,0,0-.06c.07-.07.09-.09.12-.08l.37.1c.36.1.35.1.39.08l.14-.08a2.67,2.67,0,0,0-.26-.13c-.41-.18-.37-.16-.41-.23l0-.06.05-.06s.07-.06.11-.06.33.07.77.18c.22.06.23.06.28,0l.08-.06,0,0-.14-.07L59,78.16c-.06,0-.1,0-.1-.06s.09-.08.27-.19.09,0,.09-.06l-.14-.1a.11.11,0,0,0-.08,0l-.11,0-.14,0-.12,0-.25.09c-.31.1-.31.1-.42,0s0,0,0-.09a.94.94,0,0,1,0-.09,1.91,1.91,0,0,1,.39-.22l.23-.12s0,0,0,0l-.1-.06c-.06,0-.07,0-.11,0l-.12,0-.16,0-.4.12a.32.32,0,0,1-.16-.09s0-.17,0-.16h0a1.88,1.88,0,0,1,.32-.15l.15-.07,0,0-.16-.1-.13-.09a.53.53,0,0,1,0-.22s0-.05.14-.1l.07,0,.18.09.18.08a1.48,1.48,0,0,1,0-.16c0-.09,0-.18,0-.2a.38.38,0,0,0,0-.1s0-.06,0-.12.09-.08.16,0,.06,0,.17.42c0,.13.09.27.1.32l0,.09.11.06c.07,0,.12.06.12.05V77s0-.09,0-.14,0-.18,0-.3l0-.22,0-.05c0-.07.07-.08.14,0s0,0,.06,0a1,1,0,0,0,0,.11.93.93,0,0,1,0,.13c0,.07.23.73.24.75a.21.21,0,0,0,.1.07c.08,0,.09,0,.1,0a.19.19,0,0,0,0-.08c0-.07,0-.31,0-.32a1.9,1.9,0,0,1,.34.18s0,0,.06,0a.34.34,0,0,0,0-.2l-.39-.37-.37-.34V76l.08,0c.07,0,.07,0,.14,0l.14.09.23.17.16.11s0-.21,0-.23L59.79,76l-.12-.11-.18-.17c-.15-.14-.2-.2-.19-.23s0,0,0-.06,0,0,.07-.07.08,0,.11,0a2.38,2.38,0,0,1,.27.18c.08.07.13.1.14.09a.24.24,0,0,0,0-.07v-.19a.38.38,0,0,1,0-.12.61.61,0,0,1,.13-.16l.05,0,.07,0c.09,0,.12.09.12.14a.31.31,0,0,0,0,.09,1,1,0,0,0,0,.15c0,.06,0,.11,0,.11l0,0,.31-.22a.24.24,0,0,1,.18,0c.06,0,.06,0,.07.13s0,.06,0,.12,0,.07-.06.07a.39.39,0,0,0-.08.09l-.21.2a.76.76,0,0,0-.15.17.7.7,0,0,0,0,.25,2.4,2.4,0,0,0,.41-.3c.16-.13.19-.15.24-.14s.08,0,.09.11,0,.12-.12.26-.07.09-.06.1,0,.06,0,0h0l0,0-.22.22-.2.24c0,.09,0,.25,0,.2s0,0,.08-.06l.19-.1a.3.3,0,0,1,.11-.06s0,0,0,.06a2.72,2.72,0,0,0,0,.39s0,0,.08,0a.67.67,0,0,0,.12-.06s0-.07.2-.73c0-.13.06-.25.07-.27l.08-.08c.06,0,.07,0,.09,0a.13.13,0,0,1,.06.15v.11a.22.22,0,0,1,0,.08s0,0,0,0h0a.17.17,0,0,0,0,.09s0,.14,0,.22,0,.13,0,.13a1,1,0,0,0,.2-.09.09.09,0,0,0,.06-.08,3.22,3.22,0,0,0,.09-.43c0-.28,0-.28.09-.33s.09-.07.15,0,.05.06,0,.37v.22s.05,0,.21-.09.18-.09.31,0l.1,0,0,.08c0,.18,0,.19-.15.27a.88.88,0,0,1-.17.12l0,0,.22.1.22.1,0,.07c0,.1,0,.13,0,.17s-.1,0-.22,0l-.58-.15s-.06,0-.13,0l-.11.07s.36.16.51.22l.08,0,0,.09c0,.11,0,.14,0,.19s-.09,0-.25,0l-.49-.13c-.33-.09-.32-.09-.34-.08l-.09,0c-.08.07-.09.07-.07.07l.1.06.17.1.08,0s0,.07-.19.15-.15.09-.14.1l.08.06c.06,0,.07,0,.11,0l.12,0,.23-.05.32-.07.2,0a.19.19,0,0,1,.19,0l.06,0,0,.07c0,.1-.06.11-.39.25l-.26.11s0,0,.06.07a.24.24,0,0,0,.2.06h0l.31,0a1.53,1.53,0,0,1,.33,0s.05,0,.09.06,0,0,0,.09a.17.17,0,0,1-.1.13l-.38.12s-.06,0-.06,0a1,1,0,0,1,.11.11c.16.15.16.14.13.33v.08l-.09,0-.13,0a.4.4,0,0,1-.12-.08l-.11-.1,0,0s0,0,0,0a.74.74,0,0,1,0,.12.51.51,0,0,0,0,.1.1.1,0,0,1,0,0S62,80,62,80l0,.1-.06,0a.19.19,0,0,1-.2,0c-.06,0-.07-.07,0-.13a.53.53,0,0,0,0-.13,3,3,0,0,1,.06-.49s0,0-.08-.08l-.1,0s0,0,0,.06,0,.27,0,.45,0,.16,0,.19a.12.12,0,0,1-.14.07c-.07,0-.1,0-.12-.16l-.07-.42c-.07-.38-.09-.46-.13-.5L61,78.86l-.06,0v.42s-.06,0-.12,0l-.16-.11c-.06,0-.11-.08-.12-.07a.56.56,0,0,0,0,.2s.09.13.11.13l.07.08.38.4c.14.15.15.16.14.23s0,.12-.08.14-.1,0-.28-.13L60.64,80l-.1-.07c-.1-.08-.1-.08-.1,0a.46.46,0,0,0,0,.1,1.66,1.66,0,0,0,.23.26l.16.16.08.08c.05.06.06.07.06.13s0,.14-.09.17-.07,0-.29-.15-.18-.14-.19-.11,0,.09,0,.16a.89.89,0,0,1,0,.17.3.3,0,0,1-.14.13l-.05,0-.07,0c-.06,0-.1-.11-.09-.14v-.08s0-.11,0-.17,0-.11,0-.11l-.21.14c-.22.13-.24.14-.34.12s0,0,0-.06Z" transform="translate(0.74 -10.21)"/><path id="path6390" class="cls-9" d="M57.14,66.23c0,.1,0,.09-.26.14l-.26,0s-.07,0-.11.09l0,.06H57l0,0,0,0,0,.06s0,.06-.05.07l-.22.08-.16,0-.25.06s0,0-.07.06,0,.08,0,.06h.19s.09,0,.09,0l-.07.13a.6.6,0,0,0-.08.13.45.45,0,0,0,.16,0s.1-.1.21-.21c.27-.27.27-.26.32-.27s.09,0,.09,0,0,.08-.12.23l-.14.2a0,0,0,0,0,0,0,.5.5,0,0,0,.17,0l.05,0,.09-.1.16-.16c0-.06.09-.08.14-.07s0,0,0,0,0,.08-.09.23l-.09.14.13,0c.15,0,.17,0,.21.08l0,0,0,.05c0,.1,0,.09-.19.1h-.13l.09.15.09.14V68l0,0c-.06,0-.08,0-.1,0l-.18-.19c-.18-.2-.17-.19-.21-.19s-.1,0-.11,0l.12.17c.17.25.16.22.15.28v0l-.05,0h-.09l-.39-.39c-.11-.11-.12-.11-.16-.11H56.4l.06.09.06.11s0,.06,0,.07-.08,0-.22,0h-.08a1,1,0,0,0,.05.11.09.09,0,0,0,0,0l.07,0,.1,0,.09,0,.18,0c.22.05.22.05.26.13s0,0,0,.06l0,0a1.12,1.12,0,0,1-.31,0h-.18s0,0,0,0a.25.25,0,0,0,0,.07s0,0,0,0l.09,0,.11,0,.28.07a.23.23,0,0,1,.07.11.22.22,0,0,1-.05.1h0l-.24,0-.12,0,0,0,.06.11a.94.94,0,0,1,0,.1.25.25,0,0,1-.06.14s0,0-.11,0h0l-.08-.12L56.48,69l0,.1a.64.64,0,0,1-.06.12.11.11,0,0,0,0,.06s0,0-.07.06-.08,0-.11,0,0,0,0-.31a2,2,0,0,0,.05-.23l0-.06,0-.08-.05-.07a.05.05,0,0,0,0,0l0,.09-.08.19-.06.14,0,0c-.05,0-.07,0-.1,0a.06.06,0,0,1,0,0s0-.05,0-.08a.37.37,0,0,0,0-.09s.12-.51.12-.53a.2.2,0,0,0,0-.08c0-.06,0-.06-.05,0l0,0-.1.18a.7.7,0,0,1-.14-.22s0,0,0,0a.19.19,0,0,0-.08.11s0,.18.1.36l.11.34,0,0,0,0h0s0,0-.08,0a1.17,1.17,0,0,1-.05-.11l-.08-.18c0-.07,0-.12-.06-.12l-.09.13a.45.45,0,0,0,0,.11c0,.06,0,.11,0,.12a1.15,1.15,0,0,0,0,.15c0,.14,0,.2,0,.21s0,0,0,0,0,0-.07,0-.06,0-.07,0l-.1-.21c0-.06,0-.1-.05-.1l0,0,0,0s0,0,0,.06l0,.07a.39.39,0,0,1-.13,0h0l0,0c0-.06,0-.09,0-.12l0-.06a.34.34,0,0,1,0-.1.17.17,0,0,0,0-.07h0l-.26,0a.15.15,0,0,1-.13,0s0,0,0-.1,0,0,.07-.06l.06,0,.08,0,.2,0L55,68.6a.55.55,0,0,0,.08-.15,1.38,1.38,0,0,0-.35,0c-.14,0-.16,0-.19,0s-.05,0,0-.1.05-.08.17-.12.07,0,.07,0,0,0,0,0h.06l.21-.06c.13,0,.2,0,.21-.07s.07-.15,0-.13H55s0,0,0,0a1.28,1.28,0,0,0,.14-.23s0,0-.05,0H55s-.06,0-.38.36l-.13.14-.08,0s0,0-.06,0a.11.11,0,0,1,0-.11.15.15,0,0,0,0-.06l0,0a0,0,0,0,0,0,0h0s0,0,0,0a1.25,1.25,0,0,0,.08-.12l0-.08-.15,0a.07.07,0,0,0-.07,0l-.19.22C54,68,54,68,54,68.05s-.07,0-.09,0,0-.05.1-.23l.08-.13s0,0-.16,0a.18.18,0,0,1-.19-.1l0-.06,0,0c.08-.09.09-.1.18-.11h.17l-.1-.14-.1-.13V67c0-.07,0-.09.07-.09s.07,0,.13.08l.29.29a.13.13,0,0,0,.1,0h.08a3.46,3.46,0,0,0-.22-.31l0,0v-.07c0-.08,0-.09.08-.1s.07,0,.15.1l.24.25.18.17H55c.07,0,.07,0,.07,0s0,0-.05-.07a.34.34,0,0,0-.06-.12A.28.28,0,0,1,55,67s0,0,.17,0,.12,0,.11,0a.39.39,0,0,0,0-.06s0,0-.06-.06l-.08,0-.15,0-.22-.07-.14,0a.14.14,0,0,1-.09-.09l0,0,0,0c.06,0,.07,0,.32,0l.19,0a.18.18,0,0,0,0-.06.16.16,0,0,0-.1-.11l0,0-.19-.09-.2-.11a.09.09,0,0,1,0-.06s0,0,0-.07a.12.12,0,0,1,.1,0l.27.07h0s0-.06,0-.11,0-.14,0-.25l0,0,.07,0a.16.16,0,0,1,.09,0s0,0,0,.08a.53.53,0,0,0,0,.11v0s0,0,0,0l.05-.06,0,0,0,0,.06-.07,0-.06h.05a.17.17,0,0,1,.1.1c0,.06,0,.07,0,.1l0,.07a1.72,1.72,0,0,1-.2.27s0,0,0,.08l0,.07,0,0s.09-.16.15-.26,0-.1.08-.11.07,0,.1,0,0,.06,0,.14-.06.15-.1.27-.11.31-.1.34l0,.08,0,0,0,0,0,0,.05-.09a.28.28,0,0,0,0-.08.11.11,0,0,1,.06.06l0,.13,0,.08a.31.31,0,0,0,.08-.11.45.45,0,0,0,0-.12s0,0,0-.07,0-.21-.08-.37,0-.15,0-.19,0-.06.09-.06.06,0,.12.18a.69.69,0,0,0,.06.14l0,.08c0,.09,0,.09.07,0a.15.15,0,0,0,0-.06s0-.08,0-.23l0-.16s0-.05,0-.08,0-.06,0-.1.06-.07.12-.06,0,0,.11.19.06.15.08.13,0,0,.07-.09l.07-.09a.27.27,0,0,1,.13,0h0l0,0c0,.06,0,.11,0,.12l0,0a.93.93,0,0,1-.05.1l0,.07h.18c.17,0,.19,0,.24,0s0,0,0,0Z" transform="translate(0.74 -10.21)"/><path id="path6394" class="cls-9" d="M51.25,97.68c-.14-.19-.14-.12,0-.64.08-.25.17-.49.19-.53s0-.15,0-.29l-.06-.12-.06.08s-.08.16-.12.23l-.35.62a.1.1,0,0,1-.07,0l-.07,0-.07-.1a.35.35,0,0,1-.09-.17,2.65,2.65,0,0,1,.11-.49l.11-.34c.08-.26.11-.34.17-.51s0-.08,0-.19-.1-.16-.09-.1a1.2,1.2,0,0,1-.06.12l-.15.25a1.27,1.27,0,0,1-.09.15,1.28,1.28,0,0,1-.16-.27c-.08-.16-.15-.28-.15-.28a1.17,1.17,0,0,0-.2.27s.07.3.15.61c.19.8.19.79.13.9s-.09.14-.16.11S50,97,49.82,96.6l-.2-.45s0-.06,0-.06a1,1,0,0,0-.22.28.41.41,0,0,0,0,.15l.07.27a4.8,4.8,0,0,0,.12.48.31.31,0,0,1,0,.33c0,.06-.05.06-.1.05s-.16-.07-.31-.41a2.44,2.44,0,0,0-.16-.33l-.17.21c-.2.26-.24.29-.39.31h-.11l-.07-.11c-.12-.19-.12-.19,0-.46s.12-.25.12-.25a2.62,2.62,0,0,0-.37,0h-.35l-.07,0-.08-.06,0-.1c0-.14.06-.18.09-.19l.55-.14c.54-.12.52-.11.57-.18s.12-.18.11-.19a2.58,2.58,0,0,0-.42,0c-.65.06-.59.06-.68,0l-.08-.06,0-.11c0-.1,0-.13.1-.16s.47-.15,1.12-.31c.32-.07.33-.08.37-.17l.07-.14,0-.06H49c-.1,0-.16,0-.17,0s0-.16.21-.42a.84.84,0,0,0,.08-.14l-.25,0a.12.12,0,0,0-.1,0,1.35,1.35,0,0,1-.12.12l-.15.16-.13.15s-.16.16-.27.28c-.32.35-.33.35-.51.33s-.08,0-.11-.08a.26.26,0,0,1,0-.13,2.27,2.27,0,0,1,.34-.57,1.58,1.58,0,0,0,.21-.32s0,0-.06,0h-.17c-.1,0-.11,0-.15,0l-.14.14-.17.17c-.15.17-.39.41-.43.44a.42.42,0,0,1-.27,0s-.13-.19-.11-.19,0,0,0,0,.06-.12.29-.42l.15-.2h-.07l-.27,0-.23,0a.86.86,0,0,1-.2-.26s0-.09.12-.23l.06-.08.29,0a1.12,1.12,0,0,0,.29,0l-.12-.2c-.07-.11-.14-.22-.16-.24l-.08-.12c0-.06,0-.07,0-.18s0-.16.17-.16.08,0,.52.42l.34.34.11.09h.18a.47.47,0,0,0,.19,0s0,0,0-.08-.08-.11-.12-.16l-.25-.36-.19-.26v-.1c0-.11,0-.14.15-.16s.08,0,.1,0l.12.11.14.14.83.81.18,0c.14,0,.15,0,.15,0l0-.11c-.05-.08-.22-.39-.22-.4a1.91,1.91,0,0,1,.56,0c.06,0,.07,0,.06,0a.45.45,0,0,0-.12-.26,6.14,6.14,0,0,0-.76-.2l-.72-.18,0-.11-.06-.12.07-.09c.08-.09.08-.09.18-.09l.25,0,.42.05.27,0a1.29,1.29,0,0,0-.13-.31.67.67,0,0,0-.23-.08l-.24-.07L48,91.25c-.3-.07-.4-.12-.41-.17s0,0,0-.07,0-.06,0-.14.08-.1.13-.1l.48,0a.86.86,0,0,0,.24,0s0-.06,0-.11a.41.41,0,0,1-.05-.11.57.57,0,0,0-.07-.13.5.5,0,0,1-.07-.17.75.75,0,0,1,.06-.3l0-.07h.13c.14,0,.21,0,.24.1a.38.38,0,0,0,.08.11l.13.19a.48.48,0,0,0,.09.13l0-.06c0-.09.22-.45.24-.51a.44.44,0,0,1,.19-.19c.09,0,.09,0,.19.12s0,.08,0,.19l0,.13a.94.94,0,0,0,0,.17c0,.08-.08.27-.13.41a3.35,3.35,0,0,0-.08.33,1.27,1.27,0,0,0,.18.31,4.21,4.21,0,0,0,.32-.68c.12-.28.14-.31.2-.34s.13,0,.21.07.08.16,0,.43,0,.16,0,.17,0,.07,0,.06,0,0,0,0l0,.08s-.06.22-.12.44a1.76,1.76,0,0,0-.1.46c0,.12.2.3.2.21a.57.57,0,0,1,.07-.13l.16-.26c0-.09.1-.16.11-.15s0,0,0,.06l.26.52s0,0,.1-.07l.11-.17c0-.08,0-.12-.25-1.09a3.28,3.28,0,0,1-.09-.38.45.45,0,0,1,0-.17c0-.08.06-.1.09-.1s.14,0,.18.14a1.07,1.07,0,0,0,.07.15.54.54,0,0,1,0,.11s0,0,0,0,0,0,0,0a.59.59,0,0,0,.05.12l.13.28a.65.65,0,0,0,.09.18,2.23,2.23,0,0,0,.2-.26.13.13,0,0,0,0-.15,4.35,4.35,0,0,0-.19-.61c-.13-.39-.13-.39-.1-.49s.07-.15.17-.13.11,0,.31.44l.15.29s.07,0,.21-.27.18-.24.38-.25h.16l0,.11c.07.25.07.27,0,.46a1.25,1.25,0,0,1-.14.27s0,0,0,0l.35,0,.35,0,.1.08c.12.09.14.13.1.22s-.1.12-.29.16l-.85.22s-.07.05-.13.16a1.07,1.07,0,0,0-.09.16,5.81,5.81,0,0,0,.81-.08l.11,0,.12.09c.13.1.14.14.09.26s-.09.11-.33.16l-.73.18c-.48.11-.46.11-.49.13l-.07.14c-.07.14-.07.15,0,.14h.6s0,.12-.14.33-.13.22-.12.23h.14c.11,0,.12,0,.17,0l.14-.12.26-.22.36-.32c.1-.09.21-.18.23-.21a.27.27,0,0,1,.27-.08l.11,0v.12c0,.16,0,.18-.33.59a1.55,1.55,0,0,0-.25.33s.06,0,.12,0a.31.31,0,0,0,.3-.06s.05,0,.07,0l.37-.24a4.15,4.15,0,0,1,.42-.26.29.29,0,0,1,.15,0c.08,0,.1,0,.11.09a.24.24,0,0,1,0,.24,5.12,5.12,0,0,1-.42.42s-.06.07,0,.08a.79.79,0,0,0,.21.06c.32.09.31.08.41.35l0,.1-.1.11-.15.13a.43.43,0,0,1-.2,0l-.22,0-.1,0s0,0,0,0l.06.18,0,.13a.08.08,0,0,1,0,.06s0,.1.06.18l0,.15-.07.07a.26.26,0,0,1-.29.08c-.11,0-.13,0-.15-.14a.77.77,0,0,0-.07-.17,6.15,6.15,0,0,1-.28-.67s0,0-.15,0h-.17a.27.27,0,0,0,0,.08l.32.57c.1.17.12.22.11.27s0,.16-.14.18-.16,0-.26-.12l-.39-.49c-.35-.43-.43-.52-.51-.54H52l-.1,0,0,.06.06.11a1.52,1.52,0,0,0,.11.2l.08.17s-.08,0-.17,0l-.28,0h-.21a.86.86,0,0,0,.12.27.94.94,0,0,0,.23.1l.14,0,.77.26c.29.09.3.09.34.2s.05.16,0,.23-.12.08-.44,0l-.33-.05-.18,0c-.19,0-.19,0-.13.09l.06.13a1.77,1.77,0,0,0,.47.17l.33.1.16.06c.1,0,.12,0,.17.12s.07.19,0,.27-.06.09-.47,0-.34-.06-.33,0l.09.22a1.61,1.61,0,0,1,.09.24.69.69,0,0,1-.1.27l-.05.06-.12,0c-.11,0-.21-.06-.22-.11a.29.29,0,0,0,0-.1L52,97.14,51.87,97a2.66,2.66,0,0,0-.19.32c-.17.33-.19.35-.34.4s-.05,0-.09,0Z" transform="translate(0.74 -10.21)"/><path id="path6396" class="cls-9" d="M55.85,88.63c.12-.13.06-.12.48-.09l.43,0c.08,0,.11,0,.21-.09l.07-.07-.07,0-.2-.06-.52-.13,0,0,0,0,.06-.08a.25.25,0,0,1,.11-.1,2.17,2.17,0,0,1,.38,0L57,88a3.49,3.49,0,0,1,.41,0c.06,0,.06,0,.14-.06s.09-.11,0-.09l-.09,0-.22-.06-.13,0s.07-.08.17-.17l.18-.17a.89.89,0,0,0-.24-.09l-.42.22c-.56.3-.55.3-.64.27s-.13,0-.12-.1.06-.11.31-.3l.29-.24,0,0a.82.82,0,0,0-.25-.12l-.11.06-.19.1c-.12.07-.22.12-.32.19a.28.28,0,0,1-.26,0s0,0,0-.07,0-.13.25-.31a1.25,1.25,0,0,0,.21-.18l-.19-.09c-.23-.1-.26-.12-.3-.23l0-.09.07-.07c.12-.13.11-.12.34-.07a.69.69,0,0,0,.21,0L56,86l-.08-.26,0-.06,0-.07h.08c.11,0,.14,0,.16,0s.13.23.21.39c.19.39.18.37.23.39s.16.06.17,0a2,2,0,0,0-.1-.31c-.16-.48-.15-.43-.12-.51l0-.08h.09c.08,0,.1,0,.13,0a7.32,7.32,0,0,1,.45.78c.11.23.12.24.19.25a.42.42,0,0,1,.12,0l0,0,0-.17c0-.09-.06-.18-.06-.19s0-.13,0-.14a1.09,1.09,0,0,1,.35.08c.06,0,.12,0,.12,0a.81.81,0,0,0,0-.19.18.18,0,0,0,0-.07L57.83,86s-.1-.06-.14-.09l-.13-.07-.26-.14c-.32-.18-.33-.18-.35-.32s0-.06,0-.1a.16.16,0,0,1,.09,0,1.6,1.6,0,0,1,.49.15l.27.1s0,0,0,0a.79.79,0,0,0,0-.13c0-.07,0-.09-.06-.11l-.14-.07s-.12-.07-.15-.1a3.75,3.75,0,0,1-.41-.24.35.35,0,0,1,0-.2s.12-.14.13-.12h0s.1,0,.37.14l.17.07v-.05s0-.13,0-.21a1.5,1.5,0,0,1,0-.18.59.59,0,0,1,.16-.2l.18,0,.08,0,.07.21a.87.87,0,0,0,.07.22l.12-.13.15-.17.07-.08a.14.14,0,0,1,.13-.07c.1,0,.13,0,.15.1s0,.06-.21.47L58.4,85l0,.09,0,.14a.36.36,0,0,0,0,.14s0,0,.05-.05l.1-.12s.13-.15.21-.26l.16-.19.08,0c.08,0,.11,0,.14.09s0,.06,0,.08l-.06.11a.49.49,0,0,1-.08.13c0,.07-.42.75-.43.78a.27.27,0,0,0,0,.14c0,.11,0,.11,0,.1s0,0,.07,0a2.74,2.74,0,0,1,.26-.25,2,2,0,0,1,.11.42s0,.06.05,0,.16-.1.17-.14V85l.08-.07.07-.06.08,0c.08,0,.08,0,.1.12s0,.13,0,.19l0,.32c0,.12,0,.21,0,.21A1.19,1.19,0,0,0,60,85.6s0-.1,0-.19v-.47c0-.24,0-.33.05-.34a.14.14,0,0,0,0,0s0,0,.12,0,.08,0,.09.09a2.11,2.11,0,0,1,.06.37.5.5,0,0,0,0,.18l.07,0,.08-.06L60.6,85a.48.48,0,0,1,.11-.08.43.43,0,0,1,.23,0H61l0,.1c0,.11,0,.17,0,.2l-.07.08-.11.14a.25.25,0,0,0-.08.09l0,0,.42.09a.27.27,0,0,1,.17.1c0,.06,0,.06,0,.17s-.05,0-.14.06H61l-.33,0h-.25s-.2.18-.19.2a3.38,3.38,0,0,0,.55.11c.23,0,.26,0,.3.09s.06.08,0,.16-.1.1-.31.1-.12,0-.13,0,0,0,0,0a0,0,0,0,0,0,0h-.77c-.08.06-.18.21-.12.19l.11,0,.22.07a.3.3,0,0,1,.14.06l0,0a3.73,3.73,0,0,0-.33.29s0,0,.07.06l.14,0c.07,0,.1,0,.76-.39l.27-.15h.13c.07,0,.08,0,.09,0a.16.16,0,0,1-.07.16l-.1.08-.07.06a.05.05,0,0,0,0,0,0,0,0,0,1,0,0s0,0-.08,0l-.19.16-.11.1.23.1s.06,0,.11,0,.2-.12.42-.26.27-.18.34-.17.13,0,.13.1,0,.09-.27.32l-.18.17s0,0,.24.1.21.09.25.25l0,.11-.08,0c-.17.11-.18.11-.34.08a1,1,0,0,1-.23,0h0l.09.26.09.26,0,.09c0,.11-.07.13-.15.11s-.1,0-.17-.18-.27-.51-.32-.6-.06,0-.14-.07l-.14,0a4.47,4.47,0,0,0,.21.59l0,.08,0,.1c-.06.12-.08.14-.18.12s-.1,0-.19-.22-.12-.25-.26-.51-.17-.33-.2-.34l-.11,0c-.12,0-.12,0-.11,0a1.32,1.32,0,0,0,0,.13c0,.07,0,.17,0,.22s0,.1,0,.11-.09,0-.27,0-.18,0-.19,0l0,.11c0,.07,0,.09.07.11l.11.08.21.16.31.21.19.13a.19.19,0,0,1,.11.19v.08l-.09,0c-.11,0-.13,0-.49-.14a2.2,2.2,0,0,0-.3-.13.31.31,0,0,0,0,.1.26.26,0,0,0,.1.22l0,0s.12.11.25.24.26.24.27.26a.37.37,0,0,1,0,.12c0,.07,0,.08-.05.1a.22.22,0,0,1-.19,0,3.37,3.37,0,0,1-.38-.24s-.06,0-.07,0,0,.09,0,.17c0,.26,0,.25-.18.38l-.06,0-.1,0a.19.19,0,0,1-.15-.24v-.26s0,0,0,0l-.12.08-.09.06,0,0-.13.07-.1.07-.06,0a.22.22,0,0,1-.12-.2c0-.1,0-.11.08-.15a.38.38,0,0,0,.11-.08,4.44,4.44,0,0,1,.44-.34s0,0,0-.13a.77.77,0,0,0,0-.12l-.06,0c-.06.07-.21.21-.35.35s-.14.13-.18.13-.13,0-.16-.07,0-.12,0-.22l.28-.39c.26-.34.31-.42.31-.48a.7.7,0,0,0,0-.14l0-.07,0,0a.45.45,0,0,1-.07.07l-.13.12-.11.1s-.05-.06-.06-.13,0-.13,0-.22a.34.34,0,0,0,0-.15.63.63,0,0,0-.18.14.62.62,0,0,0,0,.19,1.05,1.05,0,0,0,0,.12c0,.08,0,.35,0,.62s0,.25-.09.3-.11.07-.17,0-.09-.08-.11-.33,0-.23,0-.26,0-.09,0-.14,0-.15-.09-.08l-.08.07a1.32,1.32,0,0,0,0,.39c0,.13,0,.24,0,.26s0,.08,0,.13a.16.16,0,0,1-.06.15c-.08.09-.12.1-.2,0s-.07,0-.1-.35,0-.27-.06-.25l-.15.11-.15.11a.45.45,0,0,1-.22,0l-.06,0v-.09a.23.23,0,0,1,0-.19l.07-.06.13-.14a.34.34,0,0,0,.09-.09l-.28-.08c-.28-.07-.3-.08-.36-.18s0,0,0-.08Z" transform="translate(0.74 -10.21)"/><path id="path6398" class="cls-9" d="M68.46,66.92c.09.06.08,0,.08.29s0,.25,0,.27,0,.07.06.12l0,.05V67.6a.44.44,0,0,0,0-.13c0-.07,0-.31,0-.33s0,0,0,0l0,0,0,0a.14.14,0,0,1,.07.06,1.19,1.19,0,0,1,0,.24s0,.09,0,.17,0,.17,0,.26,0,0,0,.08.07,0,.06,0a.21.21,0,0,1,0-.06.51.51,0,0,0,0-.13l0-.09a.89.89,0,0,1,.12.1c.06,0,.11.1.11.09a.42.42,0,0,0,0-.15,2.27,2.27,0,0,0-.16-.25c-.22-.32-.22-.32-.21-.38s0-.08.06-.08.07,0,.2.17l.17.17,0,0a.43.43,0,0,0,0-.16l0-.06L69.4,67l-.13-.2a.13.13,0,0,1,0-.15s0,0,0,0,.08,0,.2.13l.12.13a.36.36,0,0,0,0-.13c0-.15.06-.17.12-.2l0,0,0,0c.08.06.08.06.06.2a1.25,1.25,0,0,0,0,.14l.16-.07.16-.06h.08v0a.25.25,0,0,1,0,.11l-.23.15c-.22.14-.21.13-.22.17s0,.1,0,.11l.18-.08c.29-.14.26-.13.31-.11h0v.06s0,.06,0,.08a4.24,4.24,0,0,1-.45.33c-.13.09-.14.09-.14.14a.17.17,0,0,1,0,.07v0l.1,0,.12-.05s.07,0,.08,0a.6.6,0,0,1,0,.22.37.37,0,0,0,0,.08l.12,0s0,0,0,0a.25.25,0,0,1,0-.07l0-.1a.47.47,0,0,0,0-.09l.08-.17c.08-.21.09-.21.17-.24s0,0,.06,0a.09.09,0,0,1,0,0,1,1,0,0,1-.06.31.46.46,0,0,0,0,.18h0l.07,0s0,0,.06-.05l0-.09,0-.1c0-.11.11-.25.12-.27a.19.19,0,0,1,.12,0s.1.06.09.07h0s0,.06-.06.24l0,.11h0l.12,0,.11,0a.57.57,0,0,1,.13.08s0,.05,0,.12v0l-.13.06c-.07,0-.12,0-.12.06l.09.07.11.08,0,0s0,0,0,.07a.09.09,0,0,1,0,.11s0,0-.3-.11l-.21-.09-.07,0-.08,0-.08,0s0,0,0,0l.07.05.18.12.13.09v0c0,.06,0,.07,0,.1H71l-.08,0-.08,0-.51-.22-.08,0c-.06,0-.07,0-.06,0l0,0a1.41,1.41,0,0,1,.17.14,1.28,1.28,0,0,1-.25.09s0,0,0,0,.08.09.1.09l.37,0,.35,0,0,0,0,0v0c0,.05,0,.05-.07.07l-.12,0-.19,0-.13,0a.6.6,0,0,0,.11.12h.12l.12,0H71c.15,0,.2,0,.21,0l0,0s0,0,0,.07,0,0,0,.06l-.22.06-.11,0a.09.09,0,0,0,0,0l0,0,.06,0,.06.07a.46.46,0,0,1,0,.14v0l-.06,0c-.07,0-.1,0-.13,0l-.05,0-.09-.06-.06,0s0,0,0,0a1.86,1.86,0,0,1,0,.26.17.17,0,0,1,0,.12s0,0-.1,0,0,0,0-.08a.22.22,0,0,0,0-.06v-.09s0-.13,0-.2,0-.15,0-.16a.63.63,0,0,0-.13-.11,1.47,1.47,0,0,0,0,.35c0,.15,0,.17,0,.19s0,0-.1,0S70,70,70,69.82s0-.08,0-.08,0,0,0,0a0,0,0,0,0,0,0v0s0-.11,0-.22a.76.76,0,0,0,0-.22s-.14-.1-.13-.06,0,0,0,.07,0,.1,0,.14a.22.22,0,0,1,0,.09l0,0-.2-.19s0,0,0,.05a.37.37,0,0,0,0,.09s0,.06.29.45a.69.69,0,0,1,.1.16.17.17,0,0,1,0,.08s0,.05,0,.06-.07,0-.1,0l-.06,0,0,0s0,0,0,0h0s0,0,0,0l-.1-.11-.07-.06a.5.5,0,0,0,0,.15s0,0,0,.07a1.43,1.43,0,0,0,.18.24c.13.16.13.16.13.21s0,.08-.06.08,0,0-.21-.14l-.11-.11s0,0-.05.16,0,.13-.14.17l-.06,0,0,0c-.07-.1-.08-.11-.07-.21a.73.73,0,0,1,0-.15v0l-.15.07-.16.08,0,0c-.07,0-.09,0-.08-.08s0-.08.1-.13l.35-.23a.23.23,0,0,0,0-.1.37.37,0,0,0,0-.08,2.48,2.48,0,0,0-.35.17l0,0-.07,0c-.08,0-.09,0-.08-.1s0-.06.12-.13l.29-.2c.2-.13.19-.12.2-.14a.56.56,0,0,0,0-.07c0-.08,0-.08,0-.07l-.08,0-.13,0-.06,0s0-.06,0-.18,0-.11,0-.11,0,0-.06,0-.06,0-.07,0l0,.07-.08.15-.12.2a1,1,0,0,0-.06.13.12.12,0,0,1-.11.08h-.05l0,0c0-.07,0-.08.05-.32a.63.63,0,0,0,.06-.19h-.06a.15.15,0,0,0-.12.08s0,0,0,0l-.13.17a1.63,1.63,0,0,1-.14.18s0,0-.07,0a.06.06,0,0,1-.07,0,.15.15,0,0,1,0-.11,2.17,2.17,0,0,1,.12-.26s0,0,0,0H67.7c-.15,0-.15,0-.24-.08l0,0,0-.07a.19.19,0,0,1,0-.08l.1,0,.1,0h0s0,0,0,0l-.06-.07,0,0,0,0s0,0,0-.08l0-.06,0,0a.13.13,0,0,1,.12-.08c.06,0,.07,0,.09,0l.06.07a2.4,2.4,0,0,1,.23.25s0,0,.08,0l.07,0s0,0,0,0l-.24-.21c-.07,0-.09-.07-.09-.1s0-.08,0-.1.07,0,.14,0l.25.15c.23.14.28.16.32.16a.13.13,0,0,0,.08,0l0,0,0,0,0,0-.08-.07-.07-.07s0,0,.07,0l.14,0,.09,0a.31.31,0,0,0-.1-.1h-.57c-.15,0-.16,0-.19,0s-.05-.07,0-.11,0,0,.2-.08l.15,0,.09,0c.09,0,.09,0,0-.07l-.05,0a.75.75,0,0,0-.24,0h-.24s-.06,0-.09,0-.07-.07,0-.12,0-.05.21-.09.16,0,.15,0L68,67.43l-.08-.09a.33.33,0,0,1,0-.14v0H68a.17.17,0,0,1,.11,0s0,0,0,0l.1.08.06,0a1.45,1.45,0,0,0,0-.17c0-.18,0-.19.09-.24s0,0,0,0Z" transform="translate(0.74 -10.21)"/><path id="path6400" class="cls-9" d="M48.6,78.8c.08-.19,0-.16.49-.27l.48-.11c.09,0,.13,0,.19-.17l.06-.1H49.5l-.61,0-.07,0-.06,0,0-.11a.24.24,0,0,1,.09-.14,1.89,1.89,0,0,1,.4-.15l.3-.07.46-.11c.06,0,.07,0,.12-.12s.07-.15,0-.12h-.37a.39.39,0,0,1-.16,0l.14-.24a1.09,1.09,0,0,0,.12-.25.9.9,0,0,0-.28,0,4.83,4.83,0,0,0-.38.39c-.5.52-.49.51-.6.52s-.15,0-.16-.07,0-.14.22-.44l.24-.36s0-.05,0-.06a1.06,1.06,0,0,0-.31,0l-.09.1-.17.18c-.11.12-.2.21-.29.32a.29.29,0,0,1-.26.13c-.06,0-.06,0-.08-.06s0-.15.16-.42a1.89,1.89,0,0,0,.17-.27l-.24,0c-.29,0-.32,0-.4-.14l-.06-.08,0-.11c.09-.17.08-.17.35-.19a1,1,0,0,0,.24,0l-.17-.27-.18-.25v-.16l.09,0c.12,0,.16,0,.19,0s.21.2.35.35c.34.34.32.33.39.33h.2a2.5,2.5,0,0,0-.21-.3c-.35-.46-.32-.42-.31-.52v-.09l.1,0a.19.19,0,0,1,.15,0,7.73,7.73,0,0,1,.75.7c.21.2.22.21.3.19h.2l-.11-.17-.13-.19c0-.06-.08-.11-.07-.13s.15,0,.41,0h.14a.83.83,0,0,0-.09-.2.11.11,0,0,0-.09,0l-.14,0-.19,0-.17,0-.33-.07c-.4-.08-.41-.08-.48-.22s0-.07,0-.13a.3.3,0,0,1,.08-.08,2.16,2.16,0,0,1,.58,0,2.08,2.08,0,0,0,.33,0s0,0,0-.05l-.08-.13c0-.07,0-.08-.1-.09l-.17,0-.21,0-.52-.12a.41.41,0,0,1-.12-.2c0-.05.08-.2.09-.18s0,0,0,0a1.9,1.9,0,0,1,.45,0l.22,0,0-.05-.11-.22a.91.91,0,0,1-.09-.18.74.74,0,0,1,.1-.27s.08,0,.22,0h.09l.15.21a1.46,1.46,0,0,0,.15.21l.09-.19.1-.23A.43.43,0,0,0,50,73c0-.06,0-.07.11-.11s.15,0,.21,0,0,.06-.07.58c0,.17-.08.36-.09.43l0,.11.08.14c.06.08.1.14.11.13l0-.07s0-.11.07-.16.08-.22.14-.36l.11-.26.07,0c.09,0,.12,0,.19,0s0,.07,0,.09a1.06,1.06,0,0,0,0,.14,1.46,1.46,0,0,1,0,.17c0,.1-.2,1-.2,1a.43.43,0,0,0,.07.14c.06.11.07.12.09.09a.17.17,0,0,0,.06-.08l.19-.36a1.9,1.9,0,0,1,.27.42c0,.05,0,.05.06,0a.41.41,0,0,0,.14-.22s-.1-.31-.21-.66l-.2-.61.05-.1.06-.1.1,0c.1,0,.1,0,.15.09l.1.2.15.33.11.22s.15-.21.17-.24a1.66,1.66,0,0,0,0-.21,1.56,1.56,0,0,0-.07-.21s0-.15-.09-.29-.11-.36-.07-.39a.3.3,0,0,0,0-.06s0,0,.13,0,.11,0,.13,0a3.2,3.2,0,0,1,.19.38.61.61,0,0,0,.1.19l.06-.08s.05-.09.06-.09l.06-.11a.4.4,0,0,1,.09-.13.67.67,0,0,1,.24-.1h.07l.06.1c.07.11.08.17,0,.23l0,.1a2.05,2.05,0,0,1-.08.19,1,1,0,0,0,0,.12s0,0,.06,0l.49,0a.25.25,0,0,1,.22,0c.07,0,.07,0,0,.19s0,.08-.13.12l-.11,0-.15,0-.36.1a1,1,0,0,0-.27.09.67.67,0,0,0-.14.28,2.33,2.33,0,0,0,.64-.08c.26,0,.29,0,.35,0s.09.07,0,.19-.08.14-.31.22S53,75,53,75s0,.07,0,0,0,0,0,0l-.07,0-.39.11a1.59,1.59,0,0,0-.37.14c-.07.09-.13.29-.07.25h.4a.28.28,0,0,1,.16,0s0,0,0,.07-.24.4-.25.43,0,0,.1,0h.17c.08,0,.1,0,.68-.69.11-.13.22-.24.24-.26l.15,0c.08,0,.1,0,.11,0a.18.18,0,0,1,0,.2s-.06.09-.07.12a.7.7,0,0,1-.06.09l0,0s0,0,0,0,0,0-.07.09-.1.15-.14.23a1.29,1.29,0,0,0-.09.15,1.4,1.4,0,0,0,.29,0,.13.13,0,0,0,.11,0,4.78,4.78,0,0,0,.36-.43c.23-.29.23-.29.32-.31s.14,0,.17.07,0,.1-.18.44l-.14.24s.06,0,.3,0,.25,0,.35.17l.08.11-.06.08c-.15.18-.16.18-.34.21l-.27,0h0l.19.25.18.25v.11c0,.13,0,.16-.11.17s-.14,0-.26-.14l-.55-.54a.37.37,0,0,0-.18,0h-.16a4.69,4.69,0,0,0,.44.57l.07.07,0,.13c0,.15,0,.18-.15.19s-.12,0-.27-.17L53,77.08c-.31-.3-.3-.29-.33-.3h-.13c-.14,0-.14,0-.13,0l.08.14.13.22.06.1s-.1,0-.31,0-.22,0-.22,0l0,.11c.05.08.06.09.12.11l.14,0,.29.1.4.12.26.07a.24.24,0,0,1,.19.16l0,.09-.08.07c-.11.09-.13.09-.58,0l-.37,0a.45.45,0,0,0,0,.11.3.3,0,0,0,.18.2s.06,0,.06,0l.36.17a2.43,2.43,0,0,1,.38.19.22.22,0,0,1,.06.12c0,.08,0,.09,0,.13a.22.22,0,0,1-.19.08,3.12,3.12,0,0,1-.5-.12s-.08,0-.08,0a1.37,1.37,0,0,0,.05.18c.08.28.08.27-.06.47l-.06.08-.13,0a.37.37,0,0,1-.16,0,.44.44,0,0,1-.08-.16c0-.08,0-.16-.06-.19l0-.08s0,0,0,0a.5.5,0,0,1-.1.13.63.63,0,0,0-.07.1s0,0,0,0a.54.54,0,0,0-.11.13l-.09.1-.09,0a.25.25,0,0,1-.19-.18c0-.1,0-.12,0-.18a.6.6,0,0,0,.09-.13,3.07,3.07,0,0,1,.37-.52s0,0,0-.14a.36.36,0,0,0-.09-.12l0,.06c0,.1-.17.31-.27.51s-.1.18-.15.2a.14.14,0,0,1-.2,0c-.07-.07-.07-.12,0-.25s.1-.3.18-.52c.15-.46.18-.57.16-.63a.5.5,0,0,0-.08-.14l-.06-.07,0,.06a.46.46,0,0,1,0,.1l-.1.17c0,.08-.08.14-.08.15s-.07,0-.11-.11L51,77.84a.54.54,0,0,0-.09-.16.65.65,0,0,0-.15.22.54.54,0,0,0,0,.22s0,.06,0,.13.09.38.17.69.07.27,0,.35-.09.11-.17.1-.12,0-.23-.32c0-.12-.1-.24-.11-.27a.91.91,0,0,1-.07-.14c-.06-.16-.06-.16-.13-.06l-.06.11a1.91,1.91,0,0,0,.09.43c0,.14.08.27.08.29a.82.82,0,0,0,0,.14.19.19,0,0,1,0,.18c0,.12-.1.15-.2.13s-.09,0-.23-.34-.12-.29-.14-.26l-.13.18a1.15,1.15,0,0,1-.13.17.58.58,0,0,1-.25.05h-.07l0-.1c0-.1-.05-.19,0-.22s0,0,0-.09.07-.13.1-.2a.57.57,0,0,0,.06-.12,2.08,2.08,0,0,0-.33,0c-.32,0-.35,0-.45-.07s0,0,0-.09Z" transform="translate(0.74 -10.21)"/><path id="path6402" class="cls-9" d="M42.66,75.22c-.21-.1-.18,0-.28-.57-.06-.26-.1-.52-.11-.56s0-.15-.18-.23L42,73.78v.37c0,.16,0,.68,0,.72L42,75l0,.06-.12,0a.44.44,0,0,1-.16-.11,2.11,2.11,0,0,1-.15-.48s0-.19-.08-.35-.08-.35-.11-.53,0-.08-.13-.15-.16-.08-.13,0,0,.06,0,.13v.29a.72.72,0,0,1,0,.19,2.83,2.83,0,0,1-.27-.17,1.77,1.77,0,0,0-.27-.15.76.76,0,0,0,0,.33s.2.22.43.45c.57.6.56.59.57.71s0,.18-.09.19-.16,0-.49-.28-.36-.25-.4-.29l-.07,0a1.14,1.14,0,0,0,0,.37l.11.11.2.2.35.34a.37.37,0,0,1,.14.31c0,.07,0,.08-.07.09s-.17,0-.48-.2l-.29-.2a1.38,1.38,0,0,0,0,.27c0,.33-.06.37-.18.46l-.09.07-.12-.06c-.2-.1-.2-.1-.21-.41a1.08,1.08,0,0,0,0-.28l-.31.19-.3.2h-.18l0-.1c0-.14,0-.19,0-.22s.24-.24.41-.4c.41-.38.39-.36.4-.44s0-.22,0-.23a2.1,2.1,0,0,0-.36.24c-.54.38-.48.35-.6.33h-.1l0-.11a.21.21,0,0,1,0-.18,8.62,8.62,0,0,1,.82-.85c.24-.23.24-.24.23-.34a.75.75,0,0,1,0-.15v-.08l-.19.12-.22.15c-.08.06-.14.09-.16.07s0-.17,0-.47v-.17a.89.89,0,0,0-.23.1.13.13,0,0,0-.06.1l-.05.17s0,.15,0,.21,0,.15,0,.19l-.09.39c-.1.46-.1.47-.27.55s-.07,0-.14,0a.27.27,0,0,1-.09-.1,2.26,2.26,0,0,1,0-.66,2.2,2.2,0,0,0,0-.39s0,0-.06,0l-.15.09c-.08,0-.09.06-.11.12a1.08,1.08,0,0,1,0,.19c0,.07,0,.18-.06.24a6.1,6.1,0,0,1-.16.6.36.36,0,0,1-.23.13c-.05,0-.22-.1-.2-.11a0,0,0,0,0,0,0,2.62,2.62,0,0,1,0-.52l0-.25-.07,0-.25.12-.21.1a.72.72,0,0,1-.3-.13s0-.09,0-.25v-.11l.24-.16.25-.16-.22-.12-.25-.13-.13-.06c-.08,0-.09,0-.13-.13s0-.17.07-.24.06,0,.66.11l.47.12.14,0,.16-.1c.09-.06.16-.1.15-.11l-.08-.05L37.4,73l-.4-.18-.3-.13-.05-.09c0-.1,0-.14.06-.21s.07,0,.1,0l.16,0,.19.05,1.13.27.17-.07c.12-.07.12-.07.1-.11a.23.23,0,0,0-.09-.07c-.09,0-.4-.23-.4-.23a2.21,2.21,0,0,1,.48-.3c.06,0,.07,0,0-.07a.48.48,0,0,0-.24-.16l-.76.21-.71.22-.11-.07L36.66,72l0-.12c0-.11,0-.11.11-.17l.23-.11.39-.16.25-.12-.27-.2a1.05,1.05,0,0,0-.24.05l-.24.07-.34.1c-.29.09-.41.1-.44.06s0,0-.06,0-.06,0,0-.15,0-.12.07-.15a2.87,2.87,0,0,1,.44-.2l.22-.11s0,0-.09-.07-.1-.07-.1-.08l-.13-.07a.67.67,0,0,1-.14-.11.7.7,0,0,1-.1-.29l0-.08L36.3,70c.13-.08.19-.09.26,0a.33.33,0,0,0,.12,0l.21.1c.07,0,.14.07.14.06s0,0,0-.06,0-.51,0-.57a.33.33,0,0,1,.07-.26c0-.08.06-.08.21,0s.09,0,.13.15a1.28,1.28,0,0,1,0,.13s0,.09,0,.17.07.27.11.42a1.33,1.33,0,0,0,.09.32.78.78,0,0,0,.31.18,3.64,3.64,0,0,0-.06-.75c0-.3,0-.34,0-.4s.09-.11.21,0,.16.1.24.36,0,.15.08.15.08,0,0,0a0,0,0,0,0,0,.05s0,.06,0,.08.06.23.12.45a1.63,1.63,0,0,0,.15.44c.1.09.32.16.27.09V71c0-.07,0-.21,0-.31a.51.51,0,0,1,0-.19.13.13,0,0,1,.07,0l.49.31s0,0,.05-.11a1.56,1.56,0,0,0,0-.2c0-.09,0-.12-.76-.82l-.28-.29a.35.35,0,0,1,0-.17c0-.09,0-.12,0-.13a.21.21,0,0,1,.23,0l.14.09.09.07s0,0,.06,0h0s.05,0,.11.09l.25.18c.09.06.16.11.17.1a1.6,1.6,0,0,0,0-.33c0-.06,0-.08,0-.13a5,5,0,0,0-.48-.44c-.31-.27-.31-.27-.33-.37s0-.17.08-.2.11,0,.49.22a3,3,0,0,0,.28.18s0-.07,0-.35,0-.29.21-.41l.13-.08.09.08c.2.18.2.19.23.4a3,3,0,0,1,0,.31,0,0,0,0,0,0,0l.29-.2.29-.21.12,0c.15,0,.19,0,.2.14s0,.16-.17.29l-.63.62s0,.09,0,.21v.18a5.65,5.65,0,0,0,.66-.48l.09-.08.15,0c.16,0,.19.05.21.18s0,.14-.21.31l-.54.53c-.36.35-.35.33-.36.37a1.14,1.14,0,0,0,0,.15c0,.16,0,.17,0,.15l.16-.09a1.86,1.86,0,0,0,.25-.14l.13-.06s.05.11,0,.36,0,.26,0,.25l.13,0c.09,0,.1-.07.12-.13s0-.11.06-.17l.11-.33c0-.12.12-.33.16-.46l.09-.3a.23.23,0,0,1,.19-.2l.1,0,.08.09c.1.13.1.16,0,.68a2.2,2.2,0,0,0,0,.42s.06,0,.12,0a.35.35,0,0,0,.24-.2.24.24,0,0,1,0-.07l.21-.4a2.88,2.88,0,0,1,.23-.44.26.26,0,0,1,.14-.07c.08,0,.1,0,.14,0a.28.28,0,0,1,.09.23c0,.07-.07.29-.15.57,0,.06,0,.09,0,.1l.22,0c.32-.09.31-.09.53.08l.09.07,0,.15a.47.47,0,0,1-.06.19.74.74,0,0,1-.19.08l-.21.07-.1,0s0,0,0,.05a1.31,1.31,0,0,1,.15.12.32.32,0,0,0,.1.09l0,0,.14.14.11.1,0,.1a.29.29,0,0,1-.21.22c-.12,0-.14,0-.21,0a.61.61,0,0,0-.15-.12,4.39,4.39,0,0,1-.57-.44s0,0-.16,0a.44.44,0,0,0-.14.09s0,0,.07.06l.56.33c.17.09.21.13.23.18a.17.17,0,0,1,0,.23c-.08.07-.14.08-.29,0L42.47,72c-.51-.2-.63-.23-.71-.21a.53.53,0,0,0-.16.09l-.08.06.07,0,.11.06.19.12.16.1s0,.08-.13.12l-.26.12a.71.71,0,0,0-.18.11.59.59,0,0,0,.24.17.69.69,0,0,0,.25,0l.15,0,.79-.18c.3-.07.31-.07.4,0s.13.12.11.21-.07.13-.37.25l-.31.12-.17.07c-.18.07-.18.07-.07.15l.12.08a1.87,1.87,0,0,0,.5-.09l.33-.08.16,0a.25.25,0,0,1,.21,0c.13.07.16.13.13.24s0,.11-.4.26-.32.12-.29.16l.19.14a.87.87,0,0,1,.19.17.55.55,0,0,1,.06.28v.08l-.12,0c-.1,0-.21,0-.24,0a.36.36,0,0,0-.1-.06L43,74.39l-.15-.07s0,.17,0,.37c0,.38,0,.41-.1.53s0,0-.11,0Z" transform="translate(0.74 -10.21)"/></g></g></g></svg>