<svg id="svg13195" xmlns="http://www.w3.org/2000/svg" xmlns:xlink="http://www.w3.org/1999/xlink" viewBox="0 0 110 110"><defs><style>.cls-1{fill:#520;fill-opacity:0;}.cls-2,.cls-3{fill:#fd5;}.cls-10,.cls-11,.cls-12,.cls-2{opacity:0.8;}.cls-10,.cls-11,.cls-12,.cls-13,.cls-14,.cls-15,.cls-16,.cls-17,.cls-18,.cls-19,.cls-2,.cls-3,.cls-7,.cls-8,.cls-9{isolation:isolate;}.cls-3{opacity:0.94;}.cls-4{fill:url(#radial-gradient);}.cls-5{fill:url(#linear-gradient);}.cls-6{fill:url(#linear-gradient-2);}.cls-7{fill:#76797e;}.cls-7,.cls-8{opacity:0.85;}.cls-8{fill:url(#linear-gradient-3);}.cls-12,.cls-9{fill:#999;}.cls-14,.cls-9{opacity:0.9;}.cls-10{fill:#666;}.cls-11{fill:#ccc;}.cls-13{opacity:0.95;fill:url(#linear-gradient-4);}.cls-14{fill:#a6a7a7;}.cls-15{fill:#b3b3b3;}.cls-15,.cls-17,.cls-19{opacity:0.5;}.cls-16{fill:#9c9ea0;opacity:0.67;}.cls-17{fill:#959798;}.cls-18{fill:gray;opacity:0.6;}.cls-19{fill:#dbe3e2;}</style><radialGradient id="radial-gradient" cx="495.86" cy="-564.23" r="50.51" gradientTransform="matrix(0.37, -0.01, -0.02, -0.54, -167.11, -244.85)" gradientUnits="userSpaceOnUse"><stop offset="0" stop-color="#ff0"/><stop offset="1" stop-color="#fea917"/></radialGradient><linearGradient id="linear-gradient" x1="540.99" y1="-998.73" x2="661.02" y2="-880.72" gradientTransform="matrix(0.34, 0, 0, -0.34, -172.75, -270.68)" gradientUnits="userSpaceOnUse"><stop offset="0" stop-color="#ff0"/><stop offset="1" stop-color="#ff0" stop-opacity="0"/></linearGradient><linearGradient id="linear-gradient-2" x1="630.55" y1="-822.25" x2="612" y2="-927.84" gradientTransform="matrix(0.34, 0, 0, -0.34, -172.75, -270.68)" gradientUnits="userSpaceOnUse"><stop offset="0" stop-color="#fff"/><stop offset="1" stop-color="#fff" stop-opacity="0"/></linearGradient><linearGradient id="linear-gradient-3" x1="-662.29" y1="-585.76" x2="-525.9" y2="-543.26" gradientTransform="matrix(0.66, 0, 0, -0.66, 453.74, -322.8)" gradientUnits="userSpaceOnUse"><stop offset="0" stop-color="#57646d"/><stop offset="1" stop-color="#57646d" stop-opacity="0"/></linearGradient><linearGradient id="linear-gradient-4" x1="-934.51" y1="-362.49" x2="-945.75" y2="-306.34" gradientTransform="matrix(0.66, 0, 0, -0.66, 659.1, -172.08)" gradientUnits="userSpaceOnUse"><stop offset="0" stop-color="#ccc"/><stop offset="1" stop-color="gray"/></linearGradient></defs><g id="layer1"><g id="sun_rain" data-name="sun rain"><rect id="rect6741" class="cls-1" width="110" height="110"/><g id="g6664"><g id="g7284"><path id="path7286" class="cls-2" d="M31,9.22l.78,17L29.88,15.7l1.34,10.64-1.35-5.76L29,15.32l.56,4-1.8-7.69,2.46,13.95L27.77,17.2l1.29,6.91L24.59,11l4,14.27-3.42-8.47,1.93,6.68L22.31,13.13l4.51,13.16L23.59,20.8l-1.1-2.13.44,1-3.87-6.57L26,28.25l-.31-.44-5.84-9L22,22.74l-2.43-3.38,3.3,5.79-6.7-9.3,7.23,11.54L19,21.89l4.46,6.56L13,16.53,21.66,27.8l-5.14-5.28,5.73,6.87-9.71-9L23.08,31.8l-4.06-3L9.64,21.6,21.76,32.42,11.7,26.29l1.36,1-.5-.3,3.36,2.49,1.56,1.19L7.13,25.06,17.2,32l-5-2.75,6.08,3.47.7.48L4.48,27l11.18,6.14-5.51-2.36,6.68,3,2.47,1.36L12.52,33,5.58,30.43l5.1,2-1.91-.61,4.3,1.87-3.19-.94,8.88,4-.68-.13L3.42,32.76l11.69,3.32-7-1.34,5.31,1.81-10-1.39,5.09,1.45-.21,0,.24,0L15,38.45l-4.41-.18L8.24,38l1.62.25-8.18-.35,14,2.57-1,0L7,40.35l5.34.28-5,.25,6.23.56-11.12.33,15.22,0,.3,0L9,43l10.58-.5L9.77,43.8,8.37,44l-7.11.91,16.37-1.56L8.28,45.51l7.37-1.06-5.08,1.47-3.08.69,2-.4L4.25,47.74l14.68-2.86L9.08,48,16.28,46,3.79,50.9l15-4.46L8.84,50.71l10.73-4.27L10,51.31l1.4-.57-6.22,3,10.12-4.61,4.26-1.72L11.79,52.3l9.75-5.17-16.15,10L21.05,48l-9,6.86,6.37-4.21-5.67,4.8-1,.76.69-.49L9.25,58.46l13.37-9.84L14,57l2.15-1.72-6.05,6.22,10.38-9.31L22.94,50l-8.1,9.57,4.42-4.31-1.38,1.79-2,2.42.6-.64-3.79,5,10.13-11-.33.53-4.46,6.34,2.16-2.65-6,9.68L23.84,54.1,19.38,62l4-6-5.25,10.4,7.27-12.1,1-1.58L22,62.94l1.7-3.27-3.55,9.16L27.4,53.54,23.79,64.9l2.74-6.84-.36,1.38-1.49,5.22.39-1.07L23.5,69.51l4.11-12L25.82,65l2.25-6L26,71.59l3.06-12.85L28,66.66l1.43-5.37-.91,10,1.24-5.86-.07,1L30,64.4l1.32-6.24L31.39,73l1.76-15.64,1,9.85L34.3,59l1.36,12.08L34.37,56.17l1.75,9.1-.61-8.89L38.82,72,36,56.62l2.72,9.29-.87-5.23L41,69.82,38.18,57l2.17,4.71,1.13,2.92-.66-1.91,3.42,7.43L39.5,55.47l.72,1.25,4,8L41.9,59.63l2.49,4.28-2-4.68,5,8.84L40.51,54.82l5.06,8L38.73,50.6l12,17.07L42.22,54.59l6.07,7.77-5.6-8L52,65.12l-6.22-8,3.67,4.33L42.05,52l7.26,7.13L47.4,56.71l7.81,7.42L43.62,51.83l-.55-.71,8.73,7.09-3.17-3.36,4.23,3.35-2.28-2,5.29,3.86L47,51.53l11.74,6.95L47.45,49.61l6,2.83,2.34,1.26-1.39-.81.92.43L48.75,49.1l11.49,5.46L47,47.7,56,51.18,43.64,45.8,42.39,45l8.25,3,5.59,2-.68-.27,7.15,2.58L48.18,46.53,58,49.23,47.54,45.86l15,3.34-5.15-1.39-8.09-2.38,7.06,1.16-8.1-2.08,16.3,2-16.1-2.7,9.41.61-6.46-1,10.76.16-4.55-.47,1.52,0-3.72-.27-8-.83,6.18-.51,3.72-.16-1.31,0,7.55-.63-17.25-.11,12-1.7-4.47.3,4-.71-5,.44,9.6-1.84-13.81,1.6,8.9-2.07-6.27.83,12-3.52L49.07,37l9-3.06-7.26,1.7,11-4.33-8.52,2.45,2.86-1.1-8.1,2.45L62,28,53.4,31.37l2.87-1.43-9.35,3.84.11-.07,12.42-7-5.57,2.62,1.78-1.13-8.14,4.12-3,1.41L54,27.35,51.9,28.52l1.57-1.08-.64.38,6.24-4.35L44.25,32.29l9.18-7.62-2,1.42,1.53-1.29-7.31,5.32,10.21-9.37L45.71,28.58l4.38-4.35-7.21,6.56,7.2-7.95-.46.42,5.08-5.65L45,26.78l4.12-5-6.85,7.55,6.68-9-2.43,2.77,4.09-5.48L40.86,29.51,40.4,30l5.84-9.92L44,23.32l1.6-2.61L44,23l4.89-8.09L39.52,29l5.14-11.07-2,3.58L44,18.6l-3.86,7.1,5-12.35L39.11,25.41l2.49-7-2.79,6.3L42.88,11l-5.1,13.15,1.88-7.53-2.5,7.55,1.64-8.3-.95,3.35,1.41-7.08-2.53,9.11.84-4.73-1.22,6.11-1.51,5.44.7-7.15L36,17.06l-.05.24.69-7-1.71,9.75.4-5-.65,6.48-1.07,6v-.65L34,10.57l-.42,8.21,0-3L33,24l-.62-7.32.31,11.05L32.49,30l-.06-.33-.85-13.44.14,3.53Z" transform="translate(0 0)"/><path id="path7288" class="cls-3" d="M54.22,42.47A21.34,21.34,0,1,1,32.88,21.14,21.34,21.34,0,0,1,54.22,42.47Z" transform="translate(0 0)"/><g id="g7290"><path id="path7292" class="cls-4" d="M51.25,41.86A18.47,18.47,0,1,1,32.78,23.4,18.47,18.47,0,0,1,51.25,41.86Z" transform="translate(0 0)"/><path id="path7294" class="cls-5" d="M50,41.86a17,17,0,1,1-17-17A17,17,0,0,1,50,41.86Z" transform="translate(0 0)"/><path id="path7296" class="cls-6" d="M50,41.86a17,17,0,1,1-17-17A17,17,0,0,1,50,41.86Z" transform="translate(0 0)"/></g></g><g id="g7082"><path id="path7084" class="cls-7" d="M55.26,63.65C57,66,61,65.9,63.92,65.48c1.74-.25,3.06-1.75,4.66-2.5a21.68,21.68,0,0,1,4.5-1.83c3.8-.8,11.65-.33,11.65-.33s-10,2.4-10.15-1c0-1.4,2.77-.45,4.16-.67s4,2,4.33-.66-.5-2.33.5-2.67a19.17,19.17,0,0,0,2.5-1.16s-2.61-2.09-4-3c-1.23-.8-3.4-.76-3.83-2.16s.8-2.77,1.83-3.67c.8-.69,3.33-.33,3-1a10.38,10.38,0,0,0-2.33-3,16.94,16.94,0,0,0-5-2.17,25,25,0,0,0-5-1.33,25.44,25.44,0,0,0-4,0c-1.89,0-3.94-.44-5.66.33a8.71,8.71,0,0,0-4.17,4.17C54,49.15,51.09,58.07,55.26,63.65Z" transform="translate(0 0)"/><path id="path7086" class="cls-8" d="M44.19,43.7C45.64,42,47.82,40.85,49.13,39c.45-.63.49-1.49.94-2.12.62-.85,1.33-2.37,2.36-2.12,1.3.32.4,2.89,1.41,3.77a4.48,4.48,0,0,0,3.3.7c1-.09,2.31-.29,2.83-1.17.36-.62-.53-1.47-.24-2.12.22-.49-1.86-1,1.29-.94,1.14,0,3,.93,4.6.82,1.36-.1,5.12-1.12,3.88-1.3,1,2-3,3.25-4.59,4.71-.67.6-2.34.79-2.12,1.65s1.88.56,2.83.47a9.4,9.4,0,0,0,3.29-1.17c1-.51,1.72-1.68,2.83-1.89s2,.52,3.06.71,2.52,1.09,3.53.47a2.38,2.38,0,0,0,1-2.59c-.29-.76-1.55-.6-2.12-1.18s-2-1.78-1.42-2.59c.87-1.23,3,.67,4.48.71a14,14,0,0,1,2.12-.24c.17,0,.42.07.47.24.26.88-1.33,1.44-1.41,2.35-.13,1.34,1.82,2.49,1.41,3.77C82.46,41,81,41.38,80,41.82a31.48,31.48,0,0,1-3.53.7,45.74,45.74,0,0,0-5.65,2.12c-.65.28-2,.25-1.89.94.2,1.69,3.26,1.28,5,1.18,2.08-.12,3.8-2.09,5.89-2.12a6.64,6.64,0,0,1,2.82.94c1.44.69,2.44,2.33,4,2.59s3.1-1,4.71-1.17c1.17-.15,2.57-.68,3.53,0S96.6,49.29,96,50.29c-1.1,1.84-4.22.93-6.36,1-1.82,0-4.85-2.44-5.42-.71-.5,1.53,2.71,1.83,4.24,2.35a15.28,15.28,0,0,0,6.12.95,14.06,14.06,0,0,0,2.83-.95c.55-.16,1.25-.87,1.65-.47.75.77-.22,2.28-.94,3.06-1,1.11-2.75,1.37-4.24,1.65a12.87,12.87,0,0,1-3.77,0c-1.76-.19-3.42-1-5.18-1.17a16.66,16.66,0,0,0-3.53,0,29.81,29.81,0,0,0-5,.94c-1.44.37-2.77,1.17-4.24,1.41-1.08.18-2.71.93-3.3,0-.69-1.1,2.28-2.39,1.65-3.53-.92-1.66-3.78-1-5.65-.71a10.56,10.56,0,0,0-4.71,2.36c-1.08.88-1.27,2.83-2.59,3.29-2.28.81-4.68-1.25-7.07-1.64-4.9-.81-12.68,3.06-14.83-1.42-2.24-4.65,5.17-9,8.48-12.95Z" transform="translate(0 0)"/><path id="path7088" class="cls-9" d="M48.1,49.5l5,1,4,1.33,4,.33,3.33-.33a2.43,2.43,0,0,1,1.66-1c1.33-.33.67-.33,2-.67a27.77,27.77,0,0,0,3-1l1-.66s0-.67-1.67-1-2.33-3.33-2.33-3.33a5.16,5.16,0,0,0-3.66-.34c-1.67.67-3.33,2-5.33,2.34s-6-.67-6-.67l-3,2Z" transform="translate(0 0)"/><path id="path7090" class="cls-10" d="M25.28,57.49l3.5-1.33,2.83,1.16a3,3,0,0,1,1.5-1.16c.83-.17,2.5.83,3.16.83s-3.66,0,2,.33,5.5,1,5.33.17-2.16-2.66.5-2.17l2.67.5,4-1L55.26,57l2,.17a18.68,18.68,0,0,1,3.83,1c.83.5,3.83.33.83.5s-2.5-1.17-4.16.49a7.89,7.89,0,0,1-4.33,2.5c-.84,0-2.67-.5-4.17-.5s-2.66-.33-3.33.17-1.16,1.83-2.5,1.5-5-1.33-5-1.33H36.77l-3-.67a1.74,1.74,0,0,0-1-1.17,15.71,15.71,0,0,0-3-.5l-2-.16Z" transform="translate(0 0)"/><path id="path7092" class="cls-11" d="M54.59,49.16l9.49,1s3.5-1.83,4-1.66l3.33,1s3.66-.17,4.5-.34,6.66-.83,6.66-.83,4.33,2.33,5,2.33,8.83.83,8.83.83l10.66,1.67L96.89,54.49l-10.82-.33L80.4,54l-12,2-8-1.16L46.6,56Z" transform="translate(0 0)"/><path id="path7094" class="cls-12" d="M40.44,56.82c1.49,2.07,5.15.5,7.66,0,1.41-.28,2.55-1.59,4-1.66s2.83,1.18,4.33,1.33a10.13,10.13,0,0,0,3.33-.33c1.75-.43,3.24-1.66,5-2a26.1,26.1,0,0,1,5,0,21.3,21.3,0,0,0,3.66,0c2-.34,3.69-1.66,5.66-2,1.31-.22,3.2,1.06,4,0,.48-.64,3.55-.6,2.86-1-1.22-.78-6.47-.17-7.86-.62-.89-.3-6.85.33-3.76-2.24-.72-4.14-5.14,4-8.89,3.9-1.55,0-4.35-.12-4.33-1.66,0-1.3,2.86-.31,3.66-1.34.68-.88,1-2.47.33-3.33-.85-1-2.68-.07-4-.33-3.21-.64-6.54-1.3-9.33-3-1.07-.65-1.41-2.68-2.66-2.66-2.28,0-3.5,3-4.67,5C42.28,48.45,38,53.41,40.44,56.82Z" transform="translate(0 0)"/><path id="path7096" class="cls-13" d="M53.13,33.1c-2.61,0-3.27,5-5.87,5.19-1.2.1-1.88-1.78-3.07-1.89-4.61-.44-8.39,4.3-13,4.94-1.79.25-3.62-.83-5.39-.47-2.17.43-7.84.45-7.31,2.6.37,1.52,5.64-1,6.11.47s-2.9,1.33-3.75,2.59c-.41.6.1,1.66-.47,2.11-2.17,1.69-4.1.79-6.83,1.06s-9.36-2.16-9.43.58c0,1.39,2.72.64,4,1.2a7.49,7.49,0,0,1,2.36,1.4c.33.32.3,1,.71,1.18,2.22,1.17,5-.66,7.54-.48a23.16,23.16,0,0,1,5.64,1.2c2.64.87,4.91,2.65,7.55,3.52,1.14.38,2.83-.28,3.52.7.86,1.24-1.84,3.48-.7,4.47,1.42,1.24,3.55-1.37,5.42-1.65a19.68,19.68,0,0,1,5.42,0,22.17,22.17,0,0,1,5.17,1.43c1.4.55,2.6,1.54,4,2.12,2.73,1.13,5.57,3,8.49,2.6,2.17-.35,19.55-5.37,5.42-3.78-.41-2.5-1.76.54-7.32-2.12-1.35-.64-3.63,1-4.47-.25-.7-1,.32-2.62,1.18-3.52s3.18-.21,3.54-1.42c.27-.92-1-1.65-1.65-2.35-.83-.9-1.6-2.25-2.82-2.35-1.55-.13-2.67,1.59-4,2.35A8.73,8.73,0,0,1,50.55,56c-1.41.24-3.29.35-4.24-.72s.06-3-.25-4.47c-.14-.66-1-1.29-.7-1.88.88-1.62,3.63-.72,5.42-1.17,3.09-.77,6.15-1.68,9.19-2.6,2.21-.66,2.6-1.31,6.6-2.12.6-1,7.33-1.79,6.34-2.46s-9.73-.62-11.06-.36c-1.5.29-3,.68-4.48.94s-3.74,1.86-4.94.71-.17-3.28.47-4.72c1.32-1.24,9.4,1.18.23-4ZM24.4,51.83l2.6.35,3.17,1.17,1.88.6,1.54.7-.59.58-1.53-.35-2.24-.58-1.76-1.07-2.37-1Z" transform="translate(0 0)"/><path id="path7098" class="cls-9" d="M36.11,62.15c1.86.48,3.16.06,4.66,0s2.94-.22,4.33-.33a33.88,33.88,0,0,0,4-.33c1.39-.27,3.31-.56,4.33-1.34s2.3-1.33,1.66-2.66-4.21-.2-5.66-.67-1.78-1.14-3-1.66-3-1.47-4.33-1.33-2,.94-3,1.66-1.46,2-3,2.67-5.57-1.44-6,.66,4.14,2.85,6,3.33Z" transform="translate(0 0)"/><path id="path7100" class="cls-14" d="M71.41,45.5l4,1.66,2.66-1.66,2.67.67,3.66,1.66,3,1a3.09,3.09,0,0,1-2.33.33c-1.34-.33-4.33-.66-4.33-.66l-4.33,2-2.67-.67L71.41,48.5Z" transform="translate(0 0)"/><path id="path7102" class="cls-15" d="M53.26,55.66l4.66-.34,3.33.67,5-.17,4.66-.66-4-.5s-2.49.17-3.49.33-3.67-.66-4.5-.66h-2.5a8.32,8.32,0,0,0-3.16,1.33Z" transform="translate(0 0)"/><path id="path7104" class="cls-16" d="M55.42,38.17l1.67-1,.5-1.5,1.66.5.67.34v2H58.59l-1.83,1.33Z" transform="translate(0 0)"/><path id="path7106" class="cls-17" d="M70.75,54l4.66-.33,3.33.67,5-.17,4.67-.67-4-.5s-2.5.17-3.5.34-3.66-.67-4.49-.67h-2.5A8.32,8.32,0,0,0,70.74,54Z" transform="translate(0 0)"/><path id="path7108" class="cls-17" d="M65.75,40.5l4.66-.33,3.33.67,5-.17L83.4,40l-4-.5s-2.49.17-3.49.34-3.67-.67-4.5-.67h-2.5a8.32,8.32,0,0,0-3.16,1.33Z" transform="translate(0 0)"/><path id="path7110" class="cls-15" d="M51.43,61.82l4.66-.33,3.33.66,5-.16,4.66-.67-4-.5s-2.49.17-3.49.33-3.67-.66-4.5-.66h-2.5a8.32,8.32,0,0,0-3.16,1.33Z" transform="translate(0 0)"/><path id="path7112" class="cls-17" d="M12.46,55.32,17.12,55l3.33.67,5-.17,4.66-.66-4-.5s-2.5.16-3.5.33S19,54,18.12,54h-2.5a8.32,8.32,0,0,0-3.16,1.33Z" transform="translate(0 0)"/><path id="path7114" class="cls-18" d="M31.28,47.5l2.66-1.67,1.83.17,3-1h3.67l2.83-.33-1.5,2.16-2.67-.5L37.94,47l-2.83,1Z" transform="translate(0 0)"/></g></g></g></g><path id="path6386" class="cls-19" d="M46.43,90.06c-.21.12-.14.13-.65-.09l-.53-.24c-.1,0-.15,0-.3,0l-.13.06.09.06.22.15c.14.08.58.37.61.4s0,0,0,.08l0,.07-.11.07a.38.38,0,0,1-.18.08,2,2,0,0,1-.49-.15l-.34-.13-.51-.22c-.07,0-.07,0-.2,0s-.16.09-.1.09l.11.07a2.13,2.13,0,0,0,.25.17,1,1,0,0,1,.15.12l-.29.14a1.16,1.16,0,0,0-.29.14,1.05,1.05,0,0,0,.26.22l.63-.11c.83-.15.81-.14.92-.08s.14.12.11.19-.12.11-.51.25l-.48.18s-.06,0-.06,0a1.07,1.07,0,0,0,.27.25l.16,0,.28,0,.49-.1a.35.35,0,0,1,.34.06c.05,0,.05.06,0,.11s-.08.16-.44.29a2.69,2.69,0,0,0-.35.14l.21.19c.25.23.27.27.28.42v.12l-.12.07c-.2.11-.19.11-.46-.06a1.17,1.17,0,0,0-.25-.14s0,.17,0,.37v.37l-.06.07-.06.07-.1,0c-.14-.05-.18-.07-.19-.11s-.06-.34-.1-.58c-.08-.57-.08-.54-.14-.6a1,1,0,0,0-.19-.13,3.49,3.49,0,0,0,0,.44c0,.68,0,.61-.06.7l-.07.08-.11,0c-.09,0-.12,0-.15-.11a11.27,11.27,0,0,1-.23-1.19c-.06-.33-.07-.35-.15-.39l-.14-.09-.06,0v.51c0,.1,0,.17,0,.18s-.17-.07-.42-.25c-.07-.06-.13-.1-.14-.09a1.22,1.22,0,0,0,0,.25.22.22,0,0,0,0,.11.5.5,0,0,1,.11.13l.15.17a1,1,0,0,1,.14.15,2.94,2.94,0,0,1,.27.29c.34.36.34.37.31.56s0,.07-.1.1l-.13,0a2.53,2.53,0,0,1-.55-.4l-.31-.24s0,0,0,.06a1.21,1.21,0,0,1,0,.18c0,.1,0,.12,0,.16a1.08,1.08,0,0,1,.14.15l.16.19a5.73,5.73,0,0,1,.41.48.39.39,0,0,1,0,.28s-.21.12-.21.1l0,0a2.47,2.47,0,0,1-.41-.34l-.19-.17v.08s0,.16,0,.28a1.24,1.24,0,0,1,0,.24.8.8,0,0,1-.28.18s-.09,0-.22-.14l-.08-.07v-.6l-.22.11-.26.15-.12.07c-.07,0-.08,0-.19,0s-.16-.06-.16-.19,0-.09.47-.5l.38-.34.1-.1V93.3a.44.44,0,0,0,0-.2l-.08.05-.17.11-.39.23-.28.18h-.1c-.12,0-.14,0-.15-.17a.14.14,0,0,1,0-.11l.13-.11.15-.14c.09-.07.85-.77.88-.8a.82.82,0,0,0,0-.18c0-.15,0-.16,0-.16a.34.34,0,0,0-.12,0l-.43.21a2.53,2.53,0,0,1,0-.59c0-.07,0-.07,0-.07a.55.55,0,0,0-.28.11s-.13.37-.25.77l-.24.73-.12.06-.12,0-.08-.08c-.09-.09-.09-.09-.08-.2s0-.17,0-.26l.08-.42a1.75,1.75,0,0,0,0-.29,1.84,1.84,0,0,0-.32.12.74.74,0,0,0-.1.23c0,.12-.08.23-.08.25a3.35,3.35,0,0,0-.11.34c-.1.3-.15.41-.2.42l-.08,0s-.06,0-.14-.06-.09-.09-.09-.14,0-.29.08-.5a.61.61,0,0,0,0-.24s-.06,0-.11,0l-.12,0a.52.52,0,0,0-.14.06.7.7,0,0,1-.17.06,1,1,0,0,1-.3-.08l-.08,0v-.13c0-.16,0-.22.12-.25a.37.37,0,0,0,.12-.07l.2-.12a.44.44,0,0,0,.14-.09l-.06,0-.5-.29a.43.43,0,0,1-.17-.21c0-.1,0-.1.12-.19a.23.23,0,0,1,.2,0l.14,0a.58.58,0,0,0,.16.06l.42.16a1.69,1.69,0,0,0,.32.11.93.93,0,0,0,.33-.17,3.79,3.79,0,0,0-.66-.38c-.28-.14-.31-.16-.34-.23s0-.13.09-.21.17-.07.44,0,.16,0,.17,0,.07,0,.06,0,0,0,0,0l.07,0,.45.16a2.51,2.51,0,0,0,.46.14c.13,0,.32-.19.23-.19l-.13-.08-.26-.19c-.08-.06-.15-.11-.14-.13s0,0,.07,0L41,90.1s0,0-.06-.11l-.16-.13c-.09,0-.13,0-1.13.18l-.4.07a.46.46,0,0,1-.16-.06c-.09,0-.11-.07-.1-.11a.2.2,0,0,1,.16-.17l.15-.07.12,0s0,0,0,0,0,0,0,0,.07,0,.13,0l.3-.11.18-.08a1.18,1.18,0,0,0-.25-.23.14.14,0,0,0-.15,0,6,6,0,0,0-.64.15c-.41.11-.41.11-.51.07s-.14-.08-.11-.19,0-.11.47-.29l.3-.13s0-.07-.26-.24-.23-.2-.22-.41v-.17l.11,0c.27-.07.28-.06.47,0a1.4,1.4,0,0,1,.27.17l0,0v-.73l.09-.1c.1-.11.14-.13.23-.08s.11.11.14.31.13.76.16.9,0,.08.15.14l.16.11a5.58,5.58,0,0,0,0-.85V87.7l.1-.11c.12-.13.16-.14.28-.07s.1.09.14.35l.12.76c.09.51.09.49.11.52l.13.09c.14.08.15.08.14.06l0-.18c0-.1,0-.23,0-.3a.33.33,0,0,1,0-.14s.12,0,.32.17.22.15.23.13,0-.07,0-.14,0-.13,0-.18L42,88.52l-.21-.29c-.08-.11-.22-.29-.3-.41l-.19-.25a.26.26,0,0,1-.07-.28l0-.11h.12c.17,0,.19,0,.58.39l.32.29a.7.7,0,0,0,0-.13.38.38,0,0,0,0-.32.13.13,0,0,1,0-.07,4.36,4.36,0,0,0-.21-.4c-.12-.22-.23-.42-.24-.45a.34.34,0,0,1,0-.16c0-.09,0-.1.1-.11a.27.27,0,0,1,.25.06,4.89,4.89,0,0,1,.39.46s.06.07.08.06,0-.11.08-.22c.11-.32.1-.31.38-.4l.11,0,.1.11a.79.79,0,0,1,.12.16.52.52,0,0,1,0,.21l-.07.22,0,.11s0,0,.06,0l.18,0,.14,0h.06l.19,0,.15,0,.07.08a.28.28,0,0,1,.06.3c0,.12-.06.14-.15.15l-.18.06a4.5,4.5,0,0,1-.7.24c-.05,0-.05,0-.07.16v.17s0,0,.09,0l.6-.3c.18-.08.23-.1.28-.09s.16.06.18.16,0,.17-.14.26l-.53.37c-.47.33-.56.41-.59.49A1.11,1.11,0,0,0,43,89v.1l.07,0,.12,0,.21-.09a.86.86,0,0,1,.18-.08s0,.08,0,.18l0,.29a.69.69,0,0,0,0,.22.88.88,0,0,0,.29-.11.68.68,0,0,0,.12-.24A.81.81,0,0,1,44,89c.05-.1.18-.43.32-.78s.12-.3.23-.33.17-.05.23,0,.08.13,0,.46c0,.15-.07.3-.08.34a.74.74,0,0,1,0,.18c-.05.2-.05.2.09.15l.13-.06a2,2,0,0,0,.21-.48l.13-.32.06-.16c0-.11.06-.13.14-.17s.2-.07.28,0,.08.08,0,.49-.08.35,0,.34a1.57,1.57,0,0,0,.24-.08l.25-.06a.45.45,0,0,1,.27.12l.06,0,0,.12c0,.12-.08.22-.13.22l-.11,0-.23.12-.14.08s.14.1.31.22c.33.21.35.23.39.38s0,.06-.06.1Z" transform="translate(0 0)"/><path id="path6388" class="cls-19" d="M56.94,87.74c0-.16,0-.12.22-.37l.29-.25c.06-.05.07-.08.07-.2v-.09l-.06,0-.15.09-.41.26h-.11v-.09a.28.28,0,0,1,0-.13,1.9,1.9,0,0,1,.22-.26l.18-.16.26-.25s0,0,.05-.13,0-.13,0-.09l-.07,0-.17.1c-.06,0-.11.07-.11.06a1.25,1.25,0,0,1,0-.21.88.88,0,0,0,0-.22.63.63,0,0,0-.2.1s0,.2-.11.41c-.14.55-.14.54-.21.58s-.1.06-.14,0,0-.11,0-.38,0-.3,0-.34,0-.05,0-.05a.67.67,0,0,0-.23.1l0,.1a1.21,1.21,0,0,1-.05.18c0,.13,0,.22-.07.33a.23.23,0,0,1-.13.19s-.05,0-.08,0-.07-.09,0-.34a1.2,1.2,0,0,0,0-.25l-.17.07c-.2.09-.23.1-.33,0l-.07,0v-.09c0-.15,0-.14.17-.26l.15-.11a1.32,1.32,0,0,0-.22-.12l-.21-.1,0-.06,0,0,.05-.06c.07-.07.09-.09.12-.08l.37.1c.36.1.35.1.4.07l.13-.07-.26-.13c-.41-.18-.37-.16-.4-.23l0-.06,0-.06c.05,0,.07-.06.11-.06s.33.07.77.18c.22.06.23.06.28,0l.09-.06,0,0-.13-.07-.17-.08c-.06,0-.1,0-.1-.07a1,1,0,0,1,.27-.18s.09,0,.09-.06l-.14-.1h-.07l-.11,0-.15.05-.12,0-.25.09c-.31.1-.31.1-.42,0s0,0,0-.09a.24.24,0,0,1,0-.09,1.73,1.73,0,0,1,.39-.22l.23-.13a.07.07,0,0,0,0,0l-.1,0c-.06,0-.07,0-.1,0l-.13,0-.16,0-.4.12a.32.32,0,0,1-.16-.09s0-.17,0-.16a0,0,0,0,0,0,0,1.88,1.88,0,0,1,.32-.15l.15-.07,0,0-.15-.1-.14-.09a.83.83,0,0,1,0-.22s0,0,.14-.1l.07,0,.18.08.18.09a1.48,1.48,0,0,1,0-.16c0-.09,0-.18,0-.2a.38.38,0,0,0,0-.1s0-.06,0-.12.09-.08.16,0,.06,0,.18.42c0,.13.08.27.09.32l0,.09.12.06c.06,0,.11.06.11,0s0,0,0-.07,0-.09,0-.13,0-.18,0-.3l0-.22,0,0c0-.07.07-.08.14,0s.06,0,.06,0a1,1,0,0,0,0,.11.38.38,0,0,1,0,.13c0,.07.23.73.24.75a.32.32,0,0,0,.1.07c.09,0,.09,0,.1,0a.19.19,0,0,0,0-.08c0-.07,0-.31,0-.32a1.9,1.9,0,0,1,.34.18s0,0,.06,0a.34.34,0,0,0,0-.2s-.18-.18-.38-.37l-.38-.34V83.1l.07,0a.12.12,0,0,1,.14,0l.14.1.23.17a.75.75,0,0,0,.16.1s0-.2,0-.22-.05-.07-.11-.13L57.22,83l-.17-.16c-.16-.14-.21-.2-.2-.23s0,0,0-.06,0,0,.07-.07.08,0,.11,0l.27.18c.08.07.13.1.14.09a.24.24,0,0,0,0-.07v-.09s0,0,0-.1,0-.1,0-.12a.5.5,0,0,1,.14-.16l0,0,.08.05c.08,0,.11.08.11.14a.31.31,0,0,0,0,.09s0,.1,0,.15a.63.63,0,0,0,0,.11l0,0,.31-.22a.24.24,0,0,1,.18-.05c.06,0,.06,0,.07.12s0,.07,0,.13,0,.07-.06.07a.39.39,0,0,0-.08.09l-.21.2a1.22,1.22,0,0,0-.15.17.64.64,0,0,0,0,.24s.12-.06.41-.29.19-.15.24-.15.09,0,.09.12,0,.12-.12.26-.07.09-.06.1,0,.06,0,0,0,0,0,0,0,0,0,0l-.21.22A1.5,1.5,0,0,0,58,84c0,.09,0,.25.05.2s0,0,.08-.06l.19-.1a.4.4,0,0,1,.11-.06s0,0,0,.06,0,.36,0,.39,0,0,.08,0l.12-.06s.06-.07.2-.73c0-.13.06-.25.07-.27a.59.59,0,0,1,.08-.08c.06,0,.07,0,.09,0s.07.08.06.14v.12a.22.22,0,0,1,0,.08s0,0,0,0h0a.41.41,0,0,0,0,.09,1.62,1.62,0,0,1,0,.21v.14l.21-.09a.13.13,0,0,0,.06-.08c0-.09,0-.2.08-.43s0-.28.1-.33.08-.07.14,0,.06,0,0,.37v.22s0,0,.21-.09.18-.09.31,0l.1,0,0,.08c0,.18,0,.19-.15.27a.88.88,0,0,1-.17.12l0,0,.22.1.22.1,0,.07c0,.1,0,.13,0,.17s-.1,0-.22,0l-.58-.15s-.06,0-.13,0l-.1.07a3.46,3.46,0,0,0,.51.21l.07,0,0,.09c.05.11,0,.14,0,.19s-.09,0-.25,0l-.49-.14c-.33-.08-.31-.08-.34-.07l-.09,0c-.08.06-.09.07-.07.07l.1.06.17.1.08,0s0,.07-.19.15-.15.09-.14.1l.08,0c.06,0,.07,0,.11,0l.12,0,.23,0,.32-.07.21,0a.16.16,0,0,1,.18,0l.06,0,0,.08c0,.1-.06.11-.39.24l-.26.12s0,0,.06.06a.22.22,0,0,0,.2.07s.05,0,.05,0l.31,0a1.53,1.53,0,0,1,.33,0,.14.14,0,0,1,.09.06s0,0,0,.09a.17.17,0,0,1-.1.13,2.14,2.14,0,0,1-.38.11s-.06,0-.06,0a1,1,0,0,0,.11.11c.16.16.16.15.13.34v.08l-.09,0-.13,0a.29.29,0,0,1-.11-.08l-.12-.1-.05,0s0,0,0,0a.74.74,0,0,1,0,.12.77.77,0,0,1,0,.1.1.1,0,0,1,0,0l0,.13,0,.1-.06,0a.19.19,0,0,1-.2,0c-.06-.06-.06-.07-.05-.13a.51.51,0,0,0,0-.13,2.24,2.24,0,0,1,0-.49s0,0-.08-.08l-.1,0s0,0,0,.06,0,.27,0,.45,0,.16,0,.19-.08.08-.15.06-.09,0-.11-.15,0-.24-.08-.43c-.07-.37-.09-.45-.13-.49l-.11-.06-.06,0v.42s-.06,0-.12,0l-.16-.11a.44.44,0,0,0-.12-.08.65.65,0,0,0,0,.21.69.69,0,0,0,.11.13l.07.08.38.4c.14.15.15.16.14.23s0,.12-.08.14-.1,0-.28-.13L58.2,87a.3.3,0,0,1-.1-.07c-.11-.09-.11-.09-.11,0a.46.46,0,0,0,0,.1,1.4,1.4,0,0,0,.23.25l.16.17.08.08c0,.06.06.07.06.13s0,.14-.09.17-.06,0-.29-.15-.18-.15-.19-.11,0,.08,0,.16,0,.15,0,.17a.39.39,0,0,1-.15.13l0,0-.07,0c-.06-.05-.1-.11-.09-.14v-.08s0-.11,0-.17,0-.11,0-.11l-.21.13c-.22.14-.23.15-.34.13s0,0,0-.06Z" transform="translate(0 0)"/><path id="path6390" class="cls-19" d="M54.7,73.3c-.05.1,0,.09-.27.14l-.26,0c-.05,0-.07,0-.11.09l0,.06h.5l0,0,0,0,0,0a.12.12,0,0,1,0,.08.71.71,0,0,1-.22.07l-.16,0L53.9,74s0,0-.07.06,0,.07,0,.06h.06a.28.28,0,0,0,.13,0c.05,0,.09,0,.09,0l-.07.13a.6.6,0,0,0-.08.13.45.45,0,0,0,.16,0l.21-.21c.27-.27.27-.27.32-.27s.09,0,.09,0,0,.07-.12.23a1.46,1.46,0,0,1-.14.19.08.08,0,0,0,0,0,.5.5,0,0,0,.17,0s0,0,0,0l.09-.1.16-.16c0-.06.09-.08.14-.07a0,0,0,0,1,0,0c0,.07,0,.08-.09.23a.62.62,0,0,0-.1.14l.13,0c.15,0,.17,0,.21.08l0,0,0,.06c-.05.09-.05.09-.19.1H55l.09.15.09.14v.08l0,0c-.07,0-.09,0-.11,0l-.18-.2c-.18-.19-.17-.18-.21-.18h-.11l.12.16c.18.26.16.23.15.28v0l0,0a.14.14,0,0,1-.09,0s-.17-.16-.39-.39-.12-.11-.16-.11H54l.06.09.07.11s0,.06,0,.07a.61.61,0,0,1-.22,0h-.08l0,.11,0,0,.07,0,.1,0,.09,0,.18,0c.22,0,.22,0,.26.13s0,0,0,.06l0,0a1.11,1.11,0,0,1-.31,0h-.18s0,0,0,0l0,.07s0,.05.05.05l.1,0,.1,0,.29.07a.24.24,0,0,1,.06.11.3.3,0,0,1,0,.1h0s-.06,0-.24,0l-.11,0v0a1.29,1.29,0,0,0,.06.12l0,.1s0,.13,0,.14h-.17l-.08-.12a.49.49,0,0,0-.08-.11l-.05.1a.64.64,0,0,1-.06.12s0,0,0,.06,0,0-.06.06-.08,0-.11,0,0,0,0-.31a2,2,0,0,0,0-.23l0-.06-.05-.08,0-.07s0,0,0,0l0,.09L53.6,76l-.06.14,0,0s-.07,0-.1,0,0,0,0,0,0,0,0-.08a.37.37,0,0,0,0-.09s.12-.51.12-.53a.2.2,0,0,0,0-.08c0-.06,0-.06,0,0l0,0-.11.19a1,1,0,0,1-.14-.22s0,0,0,0a.26.26,0,0,0-.08.11s0,.18.11.36l.1.34,0,0,0,.05h-.06s0,0-.08,0A.54.54,0,0,0,53,76L53,75.8l-.05-.12a.73.73,0,0,0-.1.13.62.62,0,0,0,0,.11.6.6,0,0,0,0,.11,1.07,1.07,0,0,0,0,.16c0,.14.05.2,0,.21l0,0s0,0-.07,0-.06,0-.07,0l-.1-.21c0-.06,0-.1,0-.1l0,0a.14.14,0,0,1,0,0s0,0,0,.06a.21.21,0,0,1-.05.07.32.32,0,0,1-.13,0h0l0,0c0-.06,0-.09,0-.13l0,0a.26.26,0,0,1,0-.1l0-.07h0l-.26,0A.16.16,0,0,1,52,76s0,0,0-.1,0,0,.07-.06l.06,0s0,0,.08,0l.2-.05.15,0a.37.37,0,0,0,.08-.15,1.58,1.58,0,0,0-.35,0c-.14,0-.16,0-.19,0s0,0,0-.1,0-.07.16-.11.07,0,.07,0,0,0,0,0h.06l.2-.06a.72.72,0,0,0,.21-.07s.07-.15,0-.13a.08.08,0,0,1-.07,0h-.15s-.08,0-.08,0,0,0,0,0,.14-.22.15-.23,0,0-.06,0h-.09s-.06,0-.38.36l-.13.13-.08,0s-.05,0-.06,0a.14.14,0,0,1,0-.11l.05-.06a.09.09,0,0,1,0,0,0,0,0,0,0,0,0h0s0,0,0,0l.09-.12,0-.08a.44.44,0,0,0-.15,0s0,0-.06,0a1.66,1.66,0,0,0-.2.22c-.13.15-.13.15-.18.16s-.07,0-.09,0,0,0,.1-.23a.6.6,0,0,0,.08-.13s0,0-.16,0a.2.2,0,0,1-.19-.1l0-.06,0,0c.08-.09.09-.1.18-.11h.17l-.1-.14-.09-.13v-.06c0-.07,0-.09.07-.09s.07,0,.13.07l.29.3a.13.13,0,0,0,.1,0h.09L51.89,74l0,0v-.07c0-.08,0-.09.08-.1s.07,0,.15.09l.24.26.18.17h.07c.07,0,.08,0,.07,0s0,0,0-.07a.63.63,0,0,0-.07-.12.3.3,0,0,0,0-.06s.05,0,.17,0h.12a.33.33,0,0,0,0-.06s0,0-.06-.06l-.08,0-.15,0-.22-.07-.14,0a.11.11,0,0,1-.09-.08l0,0,0,0c.06,0,.07,0,.32,0l.19,0s0,0,0-.06a.16.16,0,0,0-.1-.11s0,0,0,0l-.19-.09-.2-.11a.16.16,0,0,1,0-.06c0-.05,0-.05,0-.07a.14.14,0,0,1,.11,0l.26.07s0,0,0,0a.65.65,0,0,0,0-.1c0-.15,0-.14,0-.25l0,0,.07,0,.09,0s0,0,0,.09a.41.41,0,0,0,0,.1l0,0s0,0,0,0l0-.06s0,0,.05,0,0,0,0,0l.07-.06,0-.06h0a.14.14,0,0,1,.1.1c0,.06,0,.07,0,.1L53,73a1.72,1.72,0,0,1-.2.27s0,0,0,.08l0,.06s0,0,0,0l.15-.27a.29.29,0,0,1,.08-.11.09.09,0,0,1,.11,0s0,.06,0,.13l-.1.28c-.09.25-.11.3-.1.34l0,.07,0,0,0,0,0,0,.06-.09,0-.08s0,0,.06.06l.06.12,0,.09a.31.31,0,0,0,.08-.11.24.24,0,0,0,0-.12s0,0,0-.07,0-.21-.08-.38,0-.14,0-.18,0-.06.09-.06.06,0,.12.18a.69.69,0,0,0,.06.14l0,.08c0,.09,0,.09.07,0s0-.06,0-.06a1.32,1.32,0,0,0-.05-.24,1.27,1.27,0,0,0,0-.15s0,0,0-.08,0-.06,0-.1.06-.08.12-.06,0,0,.11.19.06.15.08.13,0,0,.07-.09l.07-.09a.21.21,0,0,1,.14,0h0l0,.05s0,.11,0,.12a.14.14,0,0,0,0,.05l0,.1s0,.07,0,.07h.17c.18,0,.19,0,.24,0s0,0,0,0Z" transform="translate(0 0)"/><path id="path6394" class="cls-19" d="M48.8,104.75c-.14-.19-.14-.13,0-.64.09-.25.17-.49.19-.53s0-.15-.05-.29l-.06-.13-.06.09s-.08.16-.12.23-.33.59-.34.62l-.08.05-.07,0-.07-.1a.34.34,0,0,1-.09-.18,2.76,2.76,0,0,1,.11-.48l.11-.34c.08-.26.11-.34.17-.51s0-.08,0-.2-.09-.15-.09-.09l-.06.11-.15.26a1.27,1.27,0,0,1-.09.15,1.71,1.71,0,0,1-.16-.27c-.08-.16-.15-.28-.15-.28a.89.89,0,0,0-.19.27s.06.29.14.61c.19.8.19.79.14.9s-.1.14-.17.11-.12-.11-.28-.48-.18-.4-.21-.45,0-.06,0-.06a1.24,1.24,0,0,0-.22.28,1.17,1.17,0,0,0,0,.15l.07.27c0,.19.08.32.12.48a.31.31,0,0,1,0,.33c0,.06,0,.06-.1,0s-.16-.07-.31-.41a1.88,1.88,0,0,0-.16-.33l-.17.21c-.2.26-.23.29-.38.3h-.12l-.07-.11c-.12-.18-.12-.18,0-.45l.12-.25h-.36l-.36,0-.07,0-.07-.06,0-.1c0-.14.06-.18.1-.2l.55-.13c.53-.12.51-.11.56-.18a1.3,1.3,0,0,0,.12-.19l-.43,0c-.65.06-.59.06-.68,0l-.08-.06,0-.12c0-.09,0-.12.1-.15a9.86,9.86,0,0,1,1.12-.31c.32-.08.33-.08.37-.17a1,1,0,0,1,.08-.14l0-.06H46.5c-.1,0-.16,0-.17,0s.05-.16.21-.42a.84.84,0,0,0,.08-.14.9.9,0,0,0-.25,0,.12.12,0,0,0-.1.05,1.35,1.35,0,0,1-.12.12l-.15.16-.13.14-.27.29c-.32.35-.33.35-.51.33s-.07,0-.11-.08a.45.45,0,0,1,0-.13,2.1,2.1,0,0,1,.34-.57,3.12,3.12,0,0,0,.22-.32s0,0-.07,0h-.17c-.1,0-.11,0-.15,0l-.14.15-.17.17c-.15.17-.39.41-.43.44a.42.42,0,0,1-.27,0s-.13-.19-.11-.2l0,0s.06-.12.29-.42l.15-.2h-.07l-.27,0-.23,0a.86.86,0,0,1-.2-.26s0-.1.12-.23l.06-.09h.29l.29,0-.12-.2-.16-.25-.08-.11c-.05-.06-.05-.07,0-.18s.05-.16.17-.17.09,0,.52.43l.35.34.1.09h.18a.47.47,0,0,0,.19,0,.19.19,0,0,0-.05-.08l-.11-.16s-.15-.22-.26-.36L45,99.55v-.1c0-.12,0-.14.15-.16s.08,0,.1,0l.12.11.14.14.83.81.18,0c.15,0,.15,0,.15,0a.34.34,0,0,0-.05-.11,4.53,4.53,0,0,1-.22-.41,2.2,2.2,0,0,1,.56,0c.06,0,.07,0,.07,0a.58.58,0,0,0-.13-.26l-.76-.2-.71-.17L45.33,99l-.06-.11.07-.09c.08-.09.08-.09.18-.09l.25,0,.42,0,.27,0a1.29,1.29,0,0,0-.13-.31.67.67,0,0,0-.23-.08l-.24-.07-.34-.08c-.29-.08-.4-.12-.41-.17a.17.17,0,0,0,0-.07s0-.06,0-.15.08-.09.13-.09a3,3,0,0,1,.48,0,.86.86,0,0,0,.24,0s0-.06,0-.11l0-.11a.57.57,0,0,0-.07-.13.5.5,0,0,1-.07-.17.75.75,0,0,1,.06-.3l0-.07H46c.15,0,.21,0,.24.1a.76.76,0,0,0,.08.11,1.46,1.46,0,0,1,.13.19c0,.07.08.13.09.12s0,0,0-.05.22-.45.24-.51a.44.44,0,0,1,.19-.19c.09,0,.1,0,.19.11a.23.23,0,0,1,0,.2c0,.06,0,.12,0,.13a.94.94,0,0,0-.05.17c0,.08-.08.27-.13.41s-.08.29-.08.32a1,1,0,0,0,.18.31s.11-.17.32-.67c.12-.28.14-.31.21-.35s.12,0,.2.08.08.16,0,.43,0,.16,0,.17,0,.07,0,.06,0,0,0,0l0,.08s-.06.22-.12.44a1.73,1.73,0,0,0-.1.45c.05.13.21.3.2.22a.57.57,0,0,1,.07-.13L48,99a.6.6,0,0,1,.11-.16.21.21,0,0,1,.05.07l.26.51s0,0,.1-.06l.11-.17c0-.08,0-.12-.24-1.09,0-.18-.1-.36-.1-.39a.47.47,0,0,1,.05-.16c0-.09.06-.1.09-.1s.14,0,.18.14l.07.15a.54.54,0,0,1,.05.11s0,0,0,0,0,0,0,0,0,.07,0,.13l.13.28c0,.1.08.18.09.17a1.25,1.25,0,0,0,.21-.25.19.19,0,0,0,0-.15,4.42,4.42,0,0,0-.2-.61c-.13-.39-.13-.4-.1-.49s.07-.15.17-.13.11,0,.31.44l.15.29s.07,0,.21-.27.18-.24.39-.25h.15l0,.11c.07.25.07.27,0,.45a1.53,1.53,0,0,1-.14.28l0,0,.36,0,.35,0L51,98c.12.09.14.13.1.22s-.1.12-.29.16l-.85.22s-.07,0-.13.16l-.09.16a4.78,4.78,0,0,0,.81-.09l.11,0,.12.1c.13.1.14.14.09.26s-.09.11-.33.16l-.72.17c-.49.12-.47.12-.49.14a.75.75,0,0,0-.08.14c-.07.14-.07.15-.05.14h.6s0,.12-.14.33-.13.22-.11.23h.14c.1,0,.12,0,.16,0l.14-.12.26-.22.37-.32a2.45,2.45,0,0,0,.22-.21.27.27,0,0,1,.27-.08l.11,0v.12c0,.16,0,.18-.33.59a2.11,2.11,0,0,0-.25.33l.12,0a.3.3,0,0,0,.3-.06l.07,0,.37-.24.42-.26a.29.29,0,0,1,.15,0c.09,0,.1,0,.11.09a.25.25,0,0,1,0,.24,5.12,5.12,0,0,1-.42.42s-.06.07,0,.08l.21.06c.32.09.31.08.41.35l0,.1-.1.11a.7.7,0,0,1-.15.13.66.66,0,0,1-.2,0l-.22,0-.1,0s0,0,0,0,0,.11.06.18a1.28,1.28,0,0,1,0,.13.08.08,0,0,1,0,0s0,.11.06.19l0,.15-.07.07a.25.25,0,0,1-.28.08c-.12,0-.14,0-.16-.14a.77.77,0,0,0-.07-.17,6.15,6.15,0,0,1-.28-.67c0-.05,0-.05-.15-.05H50.6a.27.27,0,0,0,0,.08L51,102c.1.17.12.22.11.27s-.05.16-.14.18-.16,0-.26-.12l-.39-.49c-.35-.43-.43-.52-.51-.54h-.18l-.1,0,0,.06.06.11a1.52,1.52,0,0,0,.11.2c0,.09.08.16.08.17s-.07,0-.17,0l-.28,0h-.21a.81.81,0,0,0,.12.28.87.87,0,0,0,.24.1l.13,0,.77.26c.29.09.3.09.34.2s0,.16,0,.23-.12.08-.44,0l-.32,0-.19,0c-.18,0-.19,0-.13.09l.07.13a1.46,1.46,0,0,0,.47.17l.32.1.16,0a.26.26,0,0,1,.17.13c.08.13.07.19,0,.27s-.06.08-.47,0-.34-.06-.33,0l.09.22a1.61,1.61,0,0,1,.09.24.69.69,0,0,1-.1.27l0,.06-.12,0c-.11,0-.21-.06-.22-.11a.29.29,0,0,0,0-.1l-.13-.22a.48.48,0,0,0-.09-.13s-.09.14-.18.32-.2.35-.35.4,0,0-.09,0Z" transform="translate(0 0)"/><path id="path6396" class="cls-19" d="M53.4,95.7c.12-.14.07-.13.48-.09l.43,0c.08,0,.12,0,.21-.09l.07-.07-.07,0-.2-.06-.52-.13,0,0,0,0,.06-.07a.25.25,0,0,1,.11-.1,2.17,2.17,0,0,1,.38,0l.27,0a3.49,3.49,0,0,1,.41,0c.06,0,.06,0,.14-.07s.09-.1.05-.09-.05,0-.09,0l-.22-.06-.13,0,.17-.17.18-.17a.89.89,0,0,0-.24-.09l-.42.22c-.56.3-.55.3-.64.27s-.12,0-.12-.1.06-.11.31-.31l.29-.23s0,0,0,0A1.12,1.12,0,0,0,54,94l-.11.06-.18.1a3.22,3.22,0,0,0-.33.19.28.28,0,0,1-.26,0s-.05,0-.05-.07,0-.14.25-.31l.21-.18a.82.82,0,0,0-.19-.09c-.23-.1-.26-.12-.3-.23l0-.09.07-.07c.12-.13.11-.13.34-.07a.73.73,0,0,0,.21,0l-.07-.27-.08-.26,0-.06,0-.07h.08c.11,0,.15,0,.16,0s.13.23.21.39c.19.38.18.37.24.39s.15.06.16,0a2,2,0,0,0-.1-.31c-.16-.48-.15-.43-.12-.52l0-.07h.09c.08,0,.1,0,.13,0s.21.34.45.79c.12.23.12.24.19.25a.42.42,0,0,1,.12,0l.06,0-.05-.17c0-.09,0-.18-.06-.19s0-.13,0-.14.13,0,.35.08l.12,0a.47.47,0,0,0,0-.19s0,0,0-.07l-.11-.06L55.24,93l-.13-.07-.26-.14c-.32-.18-.33-.18-.35-.32s0-.06,0-.1a.19.19,0,0,1,.08,0,1.6,1.6,0,0,1,.49.15,2,2,0,0,0,.28.1v0l0-.13c0-.08,0-.09-.06-.11l-.13-.07-.16-.1c-.16-.08-.38-.22-.41-.24a.35.35,0,0,1-.05-.2s.12-.14.13-.12a0,0,0,0,0,0,0,2.8,2.8,0,0,1,.37.15l.17.07v0s0-.13,0-.21a1.5,1.5,0,0,1,0-.18.51.51,0,0,1,.16-.2s.07,0,.19,0l.07,0,.07.21a.87.87,0,0,0,.07.22l.12-.14.15-.16.07-.08a.14.14,0,0,1,.13-.07c.1,0,.13,0,.15.1s0,.06-.21.47l-.19.33-.05.09,0,.14a.36.36,0,0,0,.05.14l0-.06.1-.11.21-.26.16-.19.08,0c.08,0,.11,0,.14.09s0,.06,0,.08l-.06.11s-.06.1-.07.13-.43.75-.44.78a.28.28,0,0,0,0,.14c0,.11,0,.11,0,.1l.08-.06.25-.24a1.27,1.27,0,0,1,.11.42c0,.05,0,.05,0,0a.35.35,0,0,0,.17-.14V92.07L57,92l.07-.06.08,0c.08,0,.08,0,.1.11s0,.14,0,.2l0,.32c0,.11,0,.21,0,.21a.9.9,0,0,0,.21-.16s0-.09,0-.18V92c0-.24,0-.33,0-.34s0,0,0,0,0,0,.12,0a.22.22,0,0,1,.1.08s0,.22,0,.37a.52.52,0,0,0,0,.19l.07,0,.08-.06.08-.08a.29.29,0,0,1,.11-.08.53.53,0,0,1,.23,0h.06l0,.1c0,.11,0,.16,0,.2l-.07.08-.11.13a.34.34,0,0,0-.08.1l.05,0,.42.09a.32.32,0,0,1,.18.1c0,.06,0,.06,0,.16a.16.16,0,0,1-.14.07h-.1a.52.52,0,0,0-.13,0l-.33,0h-.26s-.2.18-.19.2a3.4,3.4,0,0,0,.56.11c.22,0,.25,0,.29.09s.06.08,0,.16-.1.1-.31.1-.12,0-.13,0,0,.05,0,0a0,0,0,0,0,0,0h-.42a1.31,1.31,0,0,0-.35,0c-.08.06-.18.21-.12.19l.11,0,.23.07.13,0a.15.15,0,0,1,0,.06,3.73,3.73,0,0,0-.33.29s0,0,.07.06l.14,0c.07,0,.1,0,.76-.39l.27-.15a.31.31,0,0,1,.13,0c.07,0,.09,0,.09.05a.16.16,0,0,1-.07.16l-.1.08-.07.06a.05.05,0,0,0,0,0s0,0,0,0,0,0-.08,0l-.19.16a.6.6,0,0,0-.11.1l.23.1a.13.13,0,0,0,.12,0l.41-.26c.26-.18.27-.18.35-.17s.12,0,.12.1,0,.09-.27.32l-.18.17s0,0,.24.1.21.09.26.24l0,.12-.08.05c-.17.1-.18.11-.33.08l-.24-.05h0l.09.26.09.26,0,.09c-.05.1-.07.12-.15.11s-.1,0-.17-.19l-.32-.59s-.05,0-.14-.07l-.14,0a4.44,4.44,0,0,0,.22.59l0,.09,0,.1c-.05.12-.08.14-.18.12s-.1,0-.18-.22l-.27-.51c-.18-.34-.17-.33-.2-.34l-.11,0c-.12,0-.12,0-.11,0a1.32,1.32,0,0,0,0,.13,1.19,1.19,0,0,0,0,.22s0,.1,0,.1-.08,0-.27,0-.18-.06-.18,0,0,.06,0,.1,0,.1.07.12l.11.08.21.16c.09,0,.22.15.31.21l.19.13a.21.21,0,0,1,.12.19v.08l-.08,0c-.12,0-.14,0-.5-.14a2.2,2.2,0,0,0-.3-.13v.1a.26.26,0,0,0,.1.22s0,0,0,0,.12.11.25.24a2.31,2.31,0,0,1,.27.26.33.33,0,0,1,0,.12c0,.06,0,.08,0,.1a.22.22,0,0,1-.19,0l-.38-.24s-.06,0-.07,0,0,.09,0,.17c0,.26,0,.25-.17.37l-.07,0-.1,0a.33.33,0,0,1-.12-.09s0-.08,0-.15v-.26s0,0,0,0l-.12.08-.09.06,0,0-.13.07-.1.07-.06,0a.22.22,0,0,1-.12-.21c0-.09,0-.11.08-.14a.44.44,0,0,0,.11-.09l.44-.33s0,0,0-.13,0-.12,0-.12l0,0-.36.35c-.11.1-.14.13-.18.13s-.13,0-.16-.07,0-.12,0-.22l.29-.39c.25-.34.3-.42.3-.48a.7.7,0,0,0,0-.14l0-.07,0,0-.07.07a.6.6,0,0,0-.13.12l-.11.09s0,0-.06-.12,0-.13,0-.22a.34.34,0,0,0,0-.15.78.78,0,0,0-.18.13.71.71,0,0,0,0,.2.75.75,0,0,1,0,.12c0,.08,0,.35,0,.62s0,.25-.09.3-.11.07-.17,0-.08-.08-.1-.33a2.07,2.07,0,0,0,0-.26s0-.09,0-.14,0-.15-.1-.08l-.08.07a1.25,1.25,0,0,0,0,.39c0,.12,0,.24,0,.26s0,.08,0,.13a.16.16,0,0,1-.06.15c-.08.08-.12.09-.2.05s-.07,0-.1-.35,0-.27-.06-.25l-.14.11-.16.11a.45.45,0,0,1-.22,0l-.06,0v-.09a.23.23,0,0,1,0-.19l.07-.06.14-.14L54,96,53.74,96c-.27-.07-.29-.08-.36-.18s0,0,0-.08Z" transform="translate(0 0)"/><path id="path6398" class="cls-19" d="M66,74c.09.07.08,0,.09.3v.27s0,.07.07.12l0,0v0a.51.51,0,0,0,0-.13c0-.07.05-.32.05-.33l0,0,0,0,.06,0a.17.17,0,0,1,.06.06,1.19,1.19,0,0,1,0,.24s0,.09,0,.17,0,.17,0,.25,0,0,0,.09.06.05,0,0a.21.21,0,0,1,0-.06.52.52,0,0,0,0-.14l0-.08a.5.5,0,0,1,.12.1c.06,0,.11.1.11.09a.42.42,0,0,0,0-.15,2.27,2.27,0,0,0-.16-.25c-.22-.32-.22-.32-.21-.38s0-.08.06-.08.07,0,.2.17l.17.17,0,0a.43.43,0,0,0,0-.16.27.27,0,0,0,0-.07l-.08-.1-.13-.2c0-.06-.06-.1,0-.15s0,0,0,0,.08,0,.2.13a1.37,1.37,0,0,0,.13.13l0-.13c0-.15.06-.17.12-.2l0,0,0,0c.09.07.08.07.06.21a1,1,0,0,0,0,.14l.16-.07.16-.06h.08v.05c0,.07,0,.09,0,.1l-.23.16c-.22.14-.21.13-.22.17a.34.34,0,0,0,0,.11l.18-.09c.29-.13.26-.12.31-.1h.05v.06a.07.07,0,0,1,0,.08,3.28,3.28,0,0,1-.45.33c-.13.09-.13.09-.14.14a.17.17,0,0,1,0,.07v0l.1,0,.12,0a.13.13,0,0,1,.08,0,.64.64,0,0,1,0,.23.37.37,0,0,0,0,.08l.12,0s0,0,0,0l0-.08,0-.09,0-.09.07-.17c.09-.21.09-.21.17-.24a.07.07,0,0,1,.07,0,.13.13,0,0,1,0,.05,1,1,0,0,1-.06.31.46.46,0,0,0,0,.18h0l.07,0s.06,0,.06,0l0-.09a.93.93,0,0,0,0-.1,2.06,2.06,0,0,1,.12-.27.31.31,0,0,1,.12,0s.1.07.09.07,0,0,0,0,0,.06-.06.24l0,.11h0l.12,0,.11,0a.35.35,0,0,1,.13.08s0,0,0,.12l0,0-.13.06-.12,0s0,0,.09.07l.11.09,0,0s0,0,0,.07,0,.08,0,.1,0,0-.3-.1l-.21-.1-.06,0-.09,0-.08,0,0,0,.08,0,.17.12.13.09v0s0,.07,0,.1,0,0,0,0l-.07,0-.09,0-.51-.22-.08,0c-.06,0-.07,0-.06,0s0,0,0,0a1.47,1.47,0,0,1,.17.15,1.28,1.28,0,0,1-.25.09s0,0,0,0,.08.1.1.1l.38,0,.35,0,0,0,0,.05,0,0s0,0-.07.07l-.12,0-.19,0-.13,0,.11.12h.24l.16,0c.15,0,.2,0,.21,0s0,0,0,0,0,0,0,.07,0,0,0,.06l-.22.06-.11,0a.05.05,0,0,0,0,0l0,0,0,0a.33.33,0,0,0,.06.06.61.61,0,0,1,0,.15v0l-.06,0c-.07,0-.1,0-.13,0l0,0-.09-.06-.06,0a.1.1,0,0,0,0,0s0,.24,0,.26a.23.23,0,0,1-.06.12s0,0-.1,0a.1.1,0,0,1,0-.08.22.22,0,0,0,0-.06V77a1.15,1.15,0,0,1,0-.2.9.9,0,0,0,0-.16s-.12-.12-.13-.11a1.47,1.47,0,0,0,0,.35c0,.15,0,.17,0,.19s0,0-.1,0-.07-.06-.08-.19,0-.07,0-.07,0,0,0,0l0,0v0s0-.11,0-.22a.76.76,0,0,0,0-.22s-.14-.1-.13-.06,0,0,0,.07a.89.89,0,0,1,0,.14s0,.09,0,.09l0,0-.2-.19s0,0,0,0a.37.37,0,0,0,0,.09s0,.06.29.45l.11.16v.08s0,0,0,.06-.07,0-.11,0l-.06,0s0,0,0,0l0,0h0s0,0,0,0l-.1-.11-.07-.06a.5.5,0,0,0,0,.15.1.1,0,0,0,0,.07,1.43,1.43,0,0,0,.18.24c.13.15.13.16.13.21s0,.07-.06.08,0,0-.21-.15l-.11-.1s0,0,0,.16,0,.13-.13.17l-.07,0,0,0c-.07-.11-.08-.11-.07-.21a.61.61,0,0,1,0-.15v0l-.15.07-.16.08,0,0c-.07,0-.08,0-.08-.09s0-.07.1-.12l.35-.23a.29.29,0,0,0,0-.1.39.39,0,0,0,0-.09L66.2,77l0,0-.07,0c-.08,0-.09,0-.08-.1s0-.06.12-.13l.29-.2c.2-.13.19-.13.2-.14a.56.56,0,0,0,0-.07c0-.08,0-.08,0-.07l-.08,0-.13,0-.06,0s0-.06,0-.18,0-.12,0-.12l-.06,0s-.06,0-.07,0l0,.07-.08.15-.11.2a.57.57,0,0,0-.07.13.13.13,0,0,1-.11.08h0l0,0c0-.07,0-.08.06-.32a.81.81,0,0,0,.05-.19h-.06a.15.15,0,0,0-.12.08l0,0a.89.89,0,0,0-.13.17l-.15.18-.07,0s0,0-.06,0a.14.14,0,0,1,0-.12l.12-.25s0,0,0,0,0,0-.1,0-.16,0-.24-.09l0,0L65,76a.19.19,0,0,1,0-.08l.1,0h.15s0,0,0,0l-.06-.07s0,0,0,0l0,0a.45.45,0,0,0-.05-.08l0-.06,0,0a.13.13,0,0,1,.12-.08c.06,0,.07,0,.09,0l.06.07a1.64,1.64,0,0,1,.23.25s0,0,.08,0l.08,0s0,0,0,0a2.49,2.49,0,0,1-.24-.2c-.07-.06-.08-.07-.09-.1s0-.08,0-.1.07,0,.14,0l.26.15c.22.14.27.16.31.16l.08,0,0,0,0,0,0,0a.57.57,0,0,0-.08-.08s-.06,0-.06-.06,0,0,.07,0l.13,0s.09,0,.09,0-.07-.09-.09-.1h-.13s0,0-.07,0h-.38c-.15,0-.15,0-.19,0s0-.07,0-.11,0-.06.19-.08l.16,0h.08c.09,0,.09,0,0-.07l0,0a.81.81,0,0,0-.24,0H65.4c-.06,0-.07,0-.1,0s-.07-.07,0-.12,0,0,.2-.09.17,0,.15,0,0,0-.07-.08l-.08-.09a.33.33,0,0,1,0-.14v0h.06s.1,0,.11,0a.11.11,0,0,0,0,0l.09.08.06,0a1.45,1.45,0,0,0,0-.17c0-.18,0-.2.09-.24s0,0,.05,0Z" transform="translate(0 0)"/><path id="path6400" class="cls-19" d="M46.15,85.87c.08-.19,0-.16.49-.27l.48-.11c.09,0,.13,0,.19-.17l.06-.11h-.31l-.62,0-.07,0-.06,0,0-.11a.31.31,0,0,1,.09-.14,2.13,2.13,0,0,1,.4-.15l.3-.07.46-.12c.06,0,.07,0,.12-.11s.07-.15,0-.12h-.53l.14-.24a1.35,1.35,0,0,0,.12-.25.67.67,0,0,0-.28,0,3.45,3.45,0,0,0-.38.39c-.5.52-.49.51-.6.52s-.15,0-.16-.08,0-.13.22-.43l.24-.36a.28.28,0,0,0,0-.06,1.17,1.17,0,0,0-.32,0l-.09.1-.17.18-.29.32a.28.28,0,0,1-.26.13c-.06,0-.06,0-.08-.06s0-.15.16-.42a1.89,1.89,0,0,0,.17-.27l-.24,0c-.28,0-.32,0-.4-.14L45,83.57l0-.11c.09-.18.08-.17.35-.19a1,1,0,0,0,.24,0L45.43,83l-.18-.25v-.16l.09,0c.12,0,.16,0,.19,0s.21.2.35.35c.34.34.33.33.4.33a.53.53,0,0,0,.19,0,3.11,3.11,0,0,0-.21-.31c-.34-.46-.32-.41-.31-.51v-.09l.1,0c.08,0,.11,0,.15,0A7.73,7.73,0,0,1,47,83c.21.2.22.21.3.19h.2l-.1-.17-.14-.19c0-.06-.08-.12-.07-.14a1.23,1.23,0,0,1,.41,0h.14a.83.83,0,0,0-.09-.2.1.1,0,0,0-.08-.05l-.15,0a.58.58,0,0,0-.18,0l-.17,0-.33-.07c-.41-.08-.42-.08-.49-.23s0-.06,0-.12l.08-.08a1.77,1.77,0,0,1,.58,0,2.08,2.08,0,0,0,.33,0s0,0,0-.06l-.08-.12c0-.08,0-.09-.1-.09l-.17,0-.21,0a4.14,4.14,0,0,1-.52-.13.37.37,0,0,1-.12-.2s.08-.19.09-.17h0a1.9,1.9,0,0,1,.45,0l.22,0,0,0a2.15,2.15,0,0,0-.11-.22c0-.09-.09-.17-.09-.18a.74.74,0,0,1,.1-.27s.08,0,.22,0H47l.15.21.15.21.09-.19a1.24,1.24,0,0,1,.11-.23s0-.08,0-.12,0-.07.11-.11.15,0,.21,0,0,0-.07.58c0,.17-.08.36-.09.42l0,.12.09.14c.05.08.09.14.1.13s0,0,0-.07l.07-.16c0-.06.09-.22.14-.36l.11-.27.07,0c.09,0,.12,0,.19,0s0,.07,0,.09a1.06,1.06,0,0,0,0,.14,1.46,1.46,0,0,1,0,.17c0,.1-.2,1-.2,1a.43.43,0,0,0,.07.14c.06.11.07.11.09.09a.17.17,0,0,0,.06-.08l.2-.36a2.1,2.1,0,0,1,.26.42s0,0,.07,0a.46.46,0,0,0,.13-.22s-.1-.32-.21-.66l-.2-.62,0-.09.06-.1.1,0c.1,0,.1,0,.15.09l.1.2.15.33.11.22s.15-.21.17-.24a1.33,1.33,0,0,0-.05-.21,1.56,1.56,0,0,0-.07-.21,2.27,2.27,0,0,0-.09-.29c-.09-.26-.11-.36-.07-.39l0-.06s0,0,.12,0,.11,0,.13.06a2.54,2.54,0,0,1,.19.38.61.61,0,0,0,.1.19s0,0,.06-.08,0-.09.06-.09a.67.67,0,0,1,.06-.11.4.4,0,0,1,.09-.13.52.52,0,0,1,.25-.1h.07l0,.09c.07.12.08.18,0,.23s0,.07,0,.11a2.05,2.05,0,0,1-.08.19,1,1,0,0,0-.05.12s0,0,.06,0l.49-.06a.29.29,0,0,1,.22.06c.07,0,.07,0,0,.19s0,.08-.13.11l-.11,0a.43.43,0,0,0-.14,0l-.37.1a1,1,0,0,0-.27.09.67.67,0,0,0-.14.28,3,3,0,0,0,.64-.08c.26,0,.29,0,.35,0s.09.07,0,.19-.08.14-.3.22-.14,0-.13.07,0,.07-.05,0,0,0,0,0l-.07,0-.38.11a1.56,1.56,0,0,0-.38.14c-.07.09-.13.29-.07.25H50a.28.28,0,0,1,.16,0s0,0,0,.07a4.09,4.09,0,0,0-.26.43s0,0,.1,0a.48.48,0,0,0,.17,0c.08,0,.1,0,.69-.68l.23-.26.15,0c.08,0,.1,0,.11,0a.16.16,0,0,1,0,.19c0,.05-.06.1-.07.13l-.06.08,0,0s0,0,0,0a.53.53,0,0,0-.07.09l-.14.23-.09.15a1.4,1.4,0,0,0,.29,0,.13.13,0,0,0,.11,0c.09-.09.18-.2.37-.43s.22-.29.31-.31.14,0,.17.07,0,.1-.18.44c-.07.12-.14.23-.14.24s.06,0,.3,0,.25,0,.36.17l.07.11-.06.08c-.15.17-.16.18-.34.21a1.07,1.07,0,0,1-.27,0s0,0,0,0A1.63,1.63,0,0,0,52,84l.18.25v.1c0,.14,0,.17-.11.18s-.14,0-.26-.14-.46-.46-.55-.54-.07,0-.18,0H50.9a4.84,4.84,0,0,0,.44.56l.07.08,0,.13c0,.15,0,.17-.15.19s-.12,0-.27-.17-.23-.23-.47-.46-.3-.3-.33-.3H50c-.14,0-.14,0-.13,0A.64.64,0,0,1,50,84l.13.22a.79.79,0,0,1,.06.1s-.09,0-.31,0-.22,0-.22,0,0,.06.05.11.06.09.12.11l.14,0,.29.09.41.13.25.07a.23.23,0,0,1,.19.16l0,.09-.08.07c-.1.09-.13.09-.58,0a2,2,0,0,0-.37,0,.45.45,0,0,0,0,.11.3.3,0,0,0,.18.2l.07,0a3.85,3.85,0,0,0,.35.17,2.43,2.43,0,0,1,.38.19.17.17,0,0,1,.06.12c0,.07,0,.09,0,.13a.25.25,0,0,1-.2.08,3.4,3.4,0,0,1-.5-.12c-.05,0-.08,0-.08,0a1.06,1.06,0,0,0,0,.19c.08.28.09.27-.06.47l-.06.08-.13,0a.37.37,0,0,1-.16,0,.44.44,0,0,1-.08-.16c0-.08,0-.16-.06-.19l0-.08s0,0-.05,0a.77.77,0,0,1-.09.13.41.41,0,0,0-.08.1l0,0a.69.69,0,0,0-.11.12l-.09.11-.09,0a.25.25,0,0,1-.19-.18c0-.1,0-.12,0-.18a.6.6,0,0,0,.09-.13,3.75,3.75,0,0,1,.37-.52s0,0,0-.14l-.08-.12s0,0-.05.06-.16.31-.27.5-.1.19-.15.21a.14.14,0,0,1-.19,0c-.07-.07-.08-.12,0-.25s.1-.3.18-.52c.15-.46.18-.57.16-.64a.66.66,0,0,0-.08-.13L49,84.77l0,.06a.23.23,0,0,1-.05.1l-.1.17-.08.15s-.07,0-.11-.12-.07-.13-.11-.22a.54.54,0,0,0-.09-.16,1,1,0,0,0-.15.21.59.59,0,0,0,0,.23.39.39,0,0,1,0,.12c0,.1.09.39.17.7s.07.27,0,.35-.09.11-.17.1-.12-.06-.23-.32-.1-.24-.11-.27a.71.71,0,0,1-.07-.15c-.06-.15-.06-.15-.13,0l-.06.1a1.84,1.84,0,0,0,.09.44c0,.14.08.27.08.29s0,.08,0,.14a.22.22,0,0,1,0,.18c-.06.12-.11.15-.21.13s-.09,0-.23-.35-.11-.28-.14-.25l-.13.17a1.45,1.45,0,0,1-.13.18.55.55,0,0,1-.25,0h-.07l0-.09c0-.1,0-.19,0-.22l.05-.09.1-.2a.57.57,0,0,0,.06-.12h-.32c-.33,0-.35,0-.46-.07s0,0,0-.1Z" transform="translate(0 0)"/><path id="path6402" class="cls-19" d="M40.21,82.29c-.21-.1-.18,0-.28-.57,0-.27-.1-.52-.11-.56s0-.15-.18-.24l-.12-.07v.37c0,.16,0,.68,0,.72a.54.54,0,0,1,0,.08l0,.06-.12,0a.44.44,0,0,1-.16-.11,2.11,2.11,0,0,1-.15-.48s0-.19-.08-.35-.08-.35-.11-.53,0-.08-.13-.15-.16-.08-.13,0a.38.38,0,0,1,0,.13v.3a.72.72,0,0,1,0,.19l-.27-.17a1.77,1.77,0,0,0-.27-.15A1,1,0,0,0,38,81s.2.22.43.45c.57.6.56.59.57.71s0,.18-.09.19-.15,0-.49-.28-.36-.25-.4-.29l-.07,0a1.49,1.49,0,0,0-.05.36l.11.12.2.19.35.35a.36.36,0,0,1,.14.31c0,.07,0,.08-.07.09s-.17,0-.47-.2a3.24,3.24,0,0,0-.3-.2,1.2,1.2,0,0,0,0,.27c0,.33,0,.37-.18.46l-.09.07-.12-.06c-.2-.1-.2-.1-.21-.41a1.08,1.08,0,0,0,0-.28l-.31.19-.3.2h-.18l0-.1c0-.14,0-.19,0-.22l.41-.4c.41-.38.4-.36.4-.44s0-.22,0-.23a2.1,2.1,0,0,0-.36.24c-.54.38-.48.35-.59.33h-.11l0-.11c0-.1,0-.13,0-.18a8.62,8.62,0,0,1,.82-.85c.24-.23.25-.24.23-.34a.85.85,0,0,1,0-.16v-.07l-.19.12-.22.14c-.08.07-.14.1-.16.08a1.58,1.58,0,0,1,0-.47.81.81,0,0,0,0-.17,1.07,1.07,0,0,0-.23.1.13.13,0,0,0-.06.1s0,.11,0,.16a1.8,1.8,0,0,0-.06.22c0,.06,0,.15,0,.19s0,.22-.08.38c-.11.47-.11.48-.28.56s-.07,0-.14,0a.27.27,0,0,1-.09-.1,2.28,2.28,0,0,1,0-.66,2.2,2.2,0,0,0,0-.39s0,0-.06,0l-.15.09c-.08,0-.09.06-.1.12l0,.19c0,.07-.05.18-.06.23,0,.23-.14.57-.16.61a.36.36,0,0,1-.23.13s-.22-.1-.2-.11a0,0,0,0,0,0,0,2.62,2.62,0,0,1,.05-.52l0-.25-.07,0-.25.12-.21.1a.78.78,0,0,1-.3-.13s0-.09,0-.25v-.11L34,81l.25-.17-.21-.11a1.47,1.47,0,0,1-.26-.13l-.13-.06c-.08,0-.09,0-.13-.13s0-.17.07-.24.06,0,.66.11l.48.12.13,0,.16-.1.15-.11-.08,0L35,80.06l-.4-.18-.3-.13,0-.09c-.05-.1,0-.14.06-.21s.07,0,.1,0l.16,0,.19,0,1.13.27L36,79.7c.12-.07.13-.08.1-.11a.23.23,0,0,0-.09-.07l-.4-.24A3.12,3.12,0,0,1,36.1,79c.06,0,.07,0,0-.07a.48.48,0,0,0-.24-.16s-.37.09-.76.21l-.71.21-.11-.06-.11-.07,0-.12c0-.12,0-.12.12-.17l.22-.11.39-.16.25-.12a1.26,1.26,0,0,0-.27-.2.66.66,0,0,0-.24,0l-.24.07a2.43,2.43,0,0,0-.34.1c-.29.08-.41.1-.44.06s0,0-.06,0-.06,0,0-.15,0-.12.07-.15a3.83,3.83,0,0,1,.44-.21.93.93,0,0,0,.22-.1l-.09-.08-.1-.07L34,77.58a.67.67,0,0,1-.14-.11.7.7,0,0,1-.1-.29V77.1l.11-.07c.13-.07.2-.08.26,0l.12,0,.21.1c.07,0,.14.07.14.06s0,0,0-.07,0-.5,0-.56a.33.33,0,0,1,.07-.26c.06-.08.06-.08.21,0s.09,0,.13.15l0,.13a1,1,0,0,0,0,.17c0,.08.06.27.1.42a1.33,1.33,0,0,0,.09.32.92.92,0,0,0,.31.18,2.87,2.87,0,0,0-.06-.75c0-.3,0-.34,0-.4s.09-.11.22,0,.15.1.23.36S36,77,36,77s.07,0,0,0a0,0,0,0,0,0,0,.24.24,0,0,0,0,.08s.05.23.11.45a1.63,1.63,0,0,0,.15.44c.1.09.32.16.27.09V78a2.91,2.91,0,0,0,0-.31.51.51,0,0,1,0-.19l.08,0,.48.31s0,0,0-.11a1.64,1.64,0,0,0,0-.2c0-.09,0-.12-.76-.82l-.28-.29a.53.53,0,0,1,0-.17c0-.09,0-.12,0-.13a.21.21,0,0,1,.23,0l.14.09.09.07s0,0,.06,0,0,0,0,0l.11.09.25.18.17.1a1.6,1.6,0,0,0,0-.33c0-.06,0-.08-.05-.14s-.22-.21-.48-.43-.31-.27-.33-.37,0-.17.08-.2.11,0,.5.22l.27.17s0-.06,0-.34,0-.29.2-.41l.14-.08.08.08c.2.18.21.19.23.4a2.83,2.83,0,0,1,0,.31v0l.29-.2.29-.21.13,0c.14,0,.18,0,.19.14s0,.16-.17.29-.54.52-.63.62,0,.09,0,.21v.18a5.65,5.65,0,0,0,.66-.48l.09-.08.15,0c.16,0,.19,0,.21.18s0,.14-.21.31l-.54.52c-.36.35-.34.34-.35.38a.35.35,0,0,0,0,.15c0,.16,0,.17,0,.15a.58.58,0,0,1,.15-.09l.26-.14.12-.06s0,.11,0,.36,0,.26,0,.25l.13-.05c.09,0,.1-.07.12-.13a1.77,1.77,0,0,1,.06-.17s.07-.2.11-.33.12-.33.16-.46a2.49,2.49,0,0,0,.09-.3.29.29,0,0,1,.19-.21l.11,0,.07.1c.1.13.1.16,0,.68a2.2,2.2,0,0,0-.05.42s.06,0,.12,0a.35.35,0,0,0,.24-.2s0-.07,0-.07l.21-.4a2.88,2.88,0,0,1,.23-.44.26.26,0,0,1,.14-.07c.08,0,.1,0,.14,0a.25.25,0,0,1,.09.23,5,5,0,0,1-.15.57q0,.09,0,.09a.77.77,0,0,0,.21-.05c.32-.08.31-.09.53.09l.09.07,0,.15a.25.25,0,0,1-.25.27l-.21.07L41,78s0,0,0,0l.14.12.1.09.05,0a1,1,0,0,0,.14.13l.12.11,0,.1a.29.29,0,0,1-.21.22c-.12,0-.14,0-.21,0a.65.65,0,0,0-.15-.11,4.39,4.39,0,0,1-.57-.44s0,0-.16,0a.44.44,0,0,0-.14.09s0,0,.07.06l.56.33c.17.09.21.12.23.18s0,.16,0,.22-.14.09-.29,0L40,79c-.52-.2-.64-.23-.72-.21a.53.53,0,0,0-.16.09l-.08.06.07,0,.11.07.19.12.16.1s0,.08-.13.12l-.26.12a.89.89,0,0,0-.18.1.79.79,0,0,0,.24.18.69.69,0,0,0,.25,0l.15,0c.11,0,.44-.09.79-.17s.31-.07.4,0,.13.12.11.21-.06.13-.37.25l-.31.12-.17.07c-.18.07-.18.07-.07.15l.12.08a2.42,2.42,0,0,0,.5-.09l.33-.08.16,0a.25.25,0,0,1,.21,0c.13.07.16.13.14.24s0,.11-.4.26-.33.12-.3.15l.2.15.19.16a.63.63,0,0,1,0,.29v.08l-.12,0c-.1,0-.21.05-.24,0a.36.36,0,0,0-.1-.06l-.22-.12c-.08,0-.14-.08-.15-.07s0,.17,0,.37c0,.38,0,.41-.1.53s0,0-.11,0Z" transform="translate(0 0)"/></svg>