<svg id="svg13195" xmlns="http://www.w3.org/2000/svg" xmlns:xlink="http://www.w3.org/1999/xlink" viewBox="0 0 110 119.77"><defs><style>.cls-1,.cls-2{fill:#fd5;}.cls-1,.cls-9{opacity:0.8;}.cls-1,.cls-10,.cls-11,.cls-12,.cls-13,.cls-14,.cls-2,.cls-7,.cls-8,.cls-9{isolation:isolate;}.cls-2{opacity:0.94;}.cls-3{fill:url(#radial-gradient);}.cls-4{fill:url(#linear-gradient);}.cls-5{fill:url(#linear-gradient-2);}.cls-6{fill:#520;fill-opacity:0;}.cls-10,.cls-11,.cls-12,.cls-13,.cls-7,.cls-8,.cls-9{fill:#fff;}.cls-7{opacity:0.85;}.cls-8{opacity:0.9;}.cls-10{opacity:0.95;}.cls-11,.cls-14{opacity:0.5;}.cls-12{opacity:0.67;}.cls-13{opacity:0.6;}.cls-14{fill:#dbe3e2;}.cls-15{fill:#6f8a91;}</style><radialGradient id="radial-gradient" cx="535.07" cy="-517.34" r="50.51" gradientTransform="matrix(0.31, -0.01, -0.02, -0.48, -142.81, -206.05)" gradientUnits="userSpaceOnUse"><stop offset="0" stop-color="#ff0"/><stop offset="1" stop-color="#fea917"/></radialGradient><linearGradient id="linear-gradient" x1="570" y1="-911.96" x2="675.44" y2="-808.3" gradientTransform="matrix(0.34, 0, 0, -0.34, -172.82, -256.83)" gradientUnits="userSpaceOnUse"><stop offset="0" stop-color="#ff0"/><stop offset="1" stop-color="#ff0" stop-opacity="0"/></linearGradient><linearGradient id="linear-gradient-2" x1="649.09" y1="-754.59" x2="632.38" y2="-849.66" gradientTransform="matrix(0.34, 0, 0, -0.34, -172.82, -256.83)" gradientUnits="userSpaceOnUse"><stop offset="0" stop-color="#fff"/><stop offset="1" stop-color="#fff" stop-opacity="0"/></linearGradient></defs><g id="layer1"><g id="g5656"><path id="path5658" class="cls-1" d="M37.85-.36l.67,15.27L36.88,5.48,38,15.07l-1.16-5.2-.73-4.73.48,3.6L35.08,1.81l2.11,12.57L35.08,6.83l1.1,6.23L32.37,1.21l3.4,12.85L32.85,6.43l1.65,6L30.42,3.16,34.27,15l-2.75-4.95-.95-1.91L31,9l-3.3-5.92,5.89,13.66-.26-.39-5-8.1,1.88,3.54L28.09,8.78,30.91,14,25.18,5.62,31.36,16l-3.75-5,3.8,5.9-9-10.73,7.42,10.15-4.38-4.76,4.89,6.19-8.3-8.12,9,10.29-3.47-2.73-8-6.46L30,20.54,21.36,15l1.16.92-.43-.27L25,17.91,26.3,19l-8.85-5.06,8.61,6.2-4.3-2.48L27,20.77l.59.43L15.19,15.69l9.55,5.53L20,19.09l5.71,2.7L27.85,23l-5.79-1.93-5.93-2.33,4.35,1.8L18.85,20l3.67,1.68-2.71-.84,7.58,3.63-.58-.12-12.53-3.5,10,3-6-1.21,4.53,1.63L14.31,23l4.34,1.3-.17,0,.2,0L24.15,26l-3.76-.16-2-.25,1.39.22-7-.31,12,2.31-.87,0-6.59-.13,4.57.24-4.27.23,5.32.5-9.5.3,13,0,.26,0-7.6,1.08,9-.45-8.41,1.14-1.2.16-6.07.82,14-1.41-8,2,6.29-1L20.39,32.7l-2.63.62L19.51,33,15,34.34l12.55-2.57L19.12,34.6l6.15-1.88L14.59,37.19l12.81-4L18.91,37l9.17-3.84-8.17,4.38,1.2-.51L15.8,39.79l8.64-4.15,3.64-1.56-6.65,4.37,8.33-4.66-13.8,9,13.39-8.17-7.66,6.18L27.13,37l-4.84,4.32-.87.69.59-.44L19.26,44l11.43-8.87-7.4,7.59,1.84-1.55L20,46.77l8.87-8.39,2.13-2L24,45l3.77-3.88-1.17,1.62L25,44.93l.51-.59-3.24,4.47L30.89,39l-.28.48L26.8,45.14l1.84-2.39-5.12,8.72,8.21-11.4-3.81,7.08,3.45-5.44-4.48,9.38,6.2-10.91.83-1.41L30.16,48l1.44-3-3,8.25,6.2-13.77L31.68,49.8,34,43.63l-.31,1.25-1.28,4.7.34-1L31.44,54,35,43.18l-1.53,6.7,1.92-5.43L33.59,55.82,36.2,44.25l-.94,7.13,1.22-4.84-.78,9,1.06-5.28-.06.91L37,49.34l1.14-5.62.08,13.34L39.68,43l.85,8.88.14-7.34,1.16,10.88-1.1-13.46,1.49,8.2-.52-8,2.83,14.09L42.1,42.33l2.32,8.37L43.68,46l2.71,8.24L44,42.67l1.86,4.25,1,2.62-.57-1.72,2.93,6.7-4-13.22.61,1.13,3.41,7.17-2-4.55,2.12,3.86-1.71-4.22,4.26,8L46,40.72l4.32,7.17-5.84-11L54.66,52.29,47.43,40.51l5.18,7-4.77-7.23L55.79,50l-5.31-7.24,3.13,3.9-6.32-8.46,6.2,6.43-1.63-2.2,6.67,6.69L48.62,38l-.46-.64,7.46,6.38-2.71-3,3.61,3-2-1.81,4.52,3.48-7.6-7.68,10,6.26-9.63-8L57,38.57l2,1.14L57.81,39l.78.39L53,35.56l9.82,4.92L51.47,34.3l7.75,3.13L48.64,32.59l-1.06-.73,7,2.68,4.78,1.84-.58-.24,6.11,2.33-12.4-5.22,8.36,2.43-8.92-3,12.84,3L60.4,34.4l-6.9-2.14,6,1L52.6,31.43l13.93,1.81L52.78,30.8l8,.55-5.52-.91,9.19.14-3.89-.42,1.3,0L58.72,30l-6.8-.75,5.28-.45,3.19-.15-1.13,0L65.71,28,51,27.9l10.28-1.53-3.82.27L60.85,26l-4.32.39,8.21-1.65-11.8,1.44,7.6-1.87-5.36.75,10.24-3.17L53.28,24.65,61,21.89,54.8,23.42l9.4-3.9-7.28,2.21,2.44-1-6.92,2.2,11.9-6.41L57,19.59l2.45-1.29-8,3.46.1-.06,10.61-6.27-4.76,2.36,1.53-1-7,3.72-2.57,1.26L57.47,16,55.7,17l1.35-1-.56.35,5.33-3.92L49.17,20.42,57,13.56l-1.74,1.28,1.31-1.16-6.24,4.79L59.06,10l-8.65,7,3.74-3.91L48,19.07l6.16-7.16-.39.38L58.09,7.2l-8.31,8.26L53.3,11l-5.85,6.79,5.71-8.1-2.08,2.49,3.49-4.94-8.3,10.69-.39.47,5-8.94-1.93,2.9L50.3,10,49,12.05l4.18-7.28-8,12.67,4.38-10-1.73,3.22L49,8.09l-3.3,6.4L50,3.37,44.77,14.23,46.9,7.92,44.52,13.6,48,1.24,43.64,13.08,45.25,6.3l-2.14,6.8,1.4-7.47-.81,3,1.2-6.38-2.16,8.21.72-4.26-1,5.51-1.29,4.9.59-6.45.35-3.46,0,.21L42.62.63,41.16,9.41,41.5,4.9l-.56,5.83L40,16.16v-.58L40.44.86l-.35,7.4,0-2.7-.58,7.35L39,6.32l.26,10-.15,2.05,0-.29L38.34,5.92l.12,3.19Z" transform="translate(1.71 0.36)"/><path id="path5660" class="cls-2" d="M57.68,29.59c0,10.61-8.16,19.22-18.23,19.22S21.23,40.2,21.23,29.59s8.16-19.21,18.22-19.21S57.68,19,57.68,29.59Z" transform="translate(1.71 0.36)"/><g id="g5662"><path id="path5664" class="cls-3" d="M55.15,29.05c0,9.18-7.07,16.63-15.78,16.63S23.59,38.23,23.59,29.05s7.06-16.64,15.78-16.64S55.15,19.86,55.15,29.05Z" transform="translate(1.71 0.36)"/><path id="path5666" class="cls-4" d="M54.11,29.05c0,8.45-6.5,15.3-14.52,15.3S25.08,37.5,25.08,29.05s6.49-15.31,14.51-15.31S54.11,20.59,54.11,29.05Z" transform="translate(1.71 0.36)"/><path id="path5668" class="cls-5" d="M54.11,29.05c0,8.45-6.5,15.3-14.52,15.3S25.08,37.5,25.08,29.05s6.49-15.31,14.51-15.31S54.11,20.59,54.11,29.05Z" transform="translate(1.71 0.36)"/></g></g><g id="snowy"><rect id="rect6735" class="cls-6" y="9.77" width="110" height="110"/><g id="g6506"><g id="g5564"><path id="path5566" class="cls-7" d="M54.07,57.63c1.78,2.36,5.79,2.24,8.74,1.82,1.76-.24,3.09-1.74,4.7-2.49a21.16,21.16,0,0,1,4.54-1.83c3.84-.8,11.76-.33,11.76-.33s-10.15,2.4-10.25-1c0-1.4,2.8-.45,4.2-.67s4,2,4.37-.66-.5-2.33.5-2.66a20.23,20.23,0,0,0,2.52-1.17s-2.62-2.08-4-3c-1.24-.8-3.43-.76-3.86-2.16s.8-2.77,1.85-3.66c.8-.69,3.36-.34,3-1a10.52,10.52,0,0,0-2.35-3,17.42,17.42,0,0,0-5-2.16,26.94,26.94,0,0,0-5-1.33,26,26,0,0,0-4,0c-1.9.06-4-.44-5.71.33a8.71,8.71,0,0,0-4.2,4.16c-3,6.31-5.88,15.22-1.68,20.8Z" transform="translate(1.71 0.36)"/><path id="path5568" class="cls-7" d="M42.9,37.7c1.47-1.75,3.66-2.85,5-4.71.45-.63.49-1.49,1-2.12.62-.85,1.34-2.36,2.37-2.11,1.32.31.4,2.89,1.43,3.76a4.61,4.61,0,0,0,3.33.71c1-.1,2.33-.3,2.85-1.18.36-.61-.53-1.47-.24-2.12.22-.48-1.88-1,1.31-.94,1.14,0,3.07.94,4.63.83,1.38-.1,5.17-1.12,3.92-1.3,1,1.94-3,3.25-4.63,4.71-.67.59-2.36.78-2.14,1.64s1.89.56,2.85.47a9.61,9.61,0,0,0,3.33-1.17c1-.51,1.73-1.68,2.85-1.88s2,.51,3.09.7,2.54,1.09,3.56.47a2.35,2.35,0,0,0,1-2.59c-.28-.75-1.56-.6-2.13-1.17s-2-1.79-1.43-2.59c.88-1.23,3,.67,4.52.71a14.18,14.18,0,0,1,2.13-.24c.18,0,.43.07.48.24.26.87-1.34,1.44-1.43,2.35-.12,1.33,1.84,2.49,1.43,3.76-.35,1.08-1.8,1.45-2.85,1.88a32.2,32.2,0,0,1-3.57.71,44.87,44.87,0,0,0-5.7,2.12c-.65.28-2,.24-1.9.94.19,1.68,3.28,1.27,5,1.17,2.1-.11,3.84-2.09,5.94-2.11a6.77,6.77,0,0,1,2.85.94c1.45.69,2.46,2.33,4,2.59s3.13-1,4.75-1.18c1.18-.14,2.6-.68,3.57,0s1.79,2.29,1.19,3.29c-1.12,1.84-4.26.93-6.42.94-1.84,0-4.89-2.43-5.47-.7-.51,1.53,2.74,1.83,4.28,2.35a15.36,15.36,0,0,0,6.18.94,14,14,0,0,0,2.85-.94c.55-.17,1.26-.88,1.67-.47.75.76-.22,2.28-1,3.06-1,1.11-2.78,1.37-4.28,1.64a12.74,12.74,0,0,1-3.8,0c-1.78-.19-3.46-1-5.23-1.17a17.75,17.75,0,0,0-3.57,0,32.74,32.74,0,0,0-5,.94c-1.45.37-2.79,1.17-4.27,1.41-1.1.18-2.74.93-3.33,0-.71-1.09,2.3-2.39,1.66-3.53-.92-1.66-3.81-1-5.7-.7a10.53,10.53,0,0,0-4.75,2.35c-1.1.88-1.29,2.83-2.62,3.29-2.3.8-4.72-1.25-7.13-1.64-4.94-.81-12.8,3.06-15-1.42-2.25-4.64,5.22-9,8.56-12.93Z" transform="translate(1.71 0.36)"/><path id="path5570" class="cls-8" d="M46.84,43.49l5,1,4,1.33,4,.34,3.36-.34a2.5,2.5,0,0,1,1.68-1c1.35-.34.67-.34,2-.67a28,28,0,0,0,3-1l1-.66s0-.67-1.68-1S67,38.16,67,38.16a5.28,5.28,0,0,0-3.7-.33c-1.68.67-3.36,2-5.38,2.33s-6-.67-6-.67l-3,2Z" transform="translate(1.71 0.36)"/><path id="path5572" class="cls-9" d="M23.82,51.47l3.53-1.33,2.86,1.16a3,3,0,0,1,1.51-1.16c.84-.17,2.52.83,3.19.83s-3.69,0,2,.33,5.54,1,5.38.17-2.19-2.66.5-2.16l2.69.5,4-1L54.07,51l2,.17a18.84,18.84,0,0,1,3.86,1c.84.49,3.86.33.84.49s-2.52-1.16-4.2.5a8,8,0,0,1-4.37,2.5c-.84,0-2.69-.5-4.2-.5s-2.69-.33-3.36.17-1.18,1.83-2.52,1.49-5-1.33-5-1.33H35.42l-3-.66a1.73,1.73,0,0,0-1-1.17,15.85,15.85,0,0,0-3-.5l-2-.16Z" transform="translate(1.71 0.36)"/><path id="path5574" class="cls-9" d="M53.4,43.15l9.57,1s3.53-1.83,4-1.66,3.36,1,3.36,1,3.69-.17,4.53-.34,6.73-.83,6.73-.83,4.36,2.33,5,2.33,8.9.83,8.9.83l10.76,1.67L96.08,48.48l-10.93-.34L79.44,48l-12.1,2-8.06-1.16L45.33,50Z" transform="translate(1.71 0.36)"/><path id="path5576" class="cls-9" d="M39.11,50.81c1.51,2.06,5.21.5,7.73,0,1.43-.29,2.58-1.6,4-1.67s2.85,1.18,4.37,1.33a10.33,10.33,0,0,0,3.36-.33c1.75-.43,3.26-1.66,5-2a27.37,27.37,0,0,1,5,0,21.65,21.65,0,0,0,3.69,0c2-.33,3.73-1.65,5.72-2,1.32-.23,3.22,1.06,4,0,.49-.65,3.58-.6,2.89-1-1.24-.78-6.53-.17-7.93-.63-.9-.29-6.91.34-3.8-2.23-.72-4.14-5.18,4-9,3.9-1.56,0-4.38-.12-4.37-1.67,0-1.29,2.89-.3,3.7-1.33.69-.88,1.05-2.47.33-3.32-.86-1-2.71-.07-4-.34-3.23-.63-6.6-1.29-9.41-3-1.08-.65-1.42-2.68-2.69-2.66-2.3,0-3.53,3-4.7,5C41,42.45,36.63,47.39,39.11,50.81Z" transform="translate(1.71 0.36)"/><path id="path5578" class="cls-10" d="M51.92,27.11c-2.64,0-3.3,5-5.92,5.18-1.21.11-1.9-1.78-3.1-1.89-4.65-.43-8.46,4.3-13.08,4.94-1.81.25-3.66-.83-5.45-.47-2.19.43-7.9.45-7.37,2.59.37,1.53,5.69-1,6.16.47s-2.92,1.34-3.78,2.6c-.41.6.1,1.65-.48,2.1-2.19,1.68-4.13.79-6.89,1.06s-9.44-2.15-9.51.58c0,1.39,2.74.64,4,1.2a7.34,7.34,0,0,1,2.39,1.4c.33.32.3,1,.71,1.17,2.25,1.17,5.08-.65,7.61-.47a23.24,23.24,0,0,1,5.7,1.19c2.65.88,4.95,2.65,7.61,3.52,1.15.38,2.86-.28,3.55.7.87,1.24-1.85,3.48-.71,4.47,1.44,1.23,3.59-1.37,5.47-1.65a19.65,19.65,0,0,1,5.47,0,22.55,22.55,0,0,1,5.22,1.42c1.42.56,2.63,1.54,4,2.12,2.76,1.13,5.63,3,8.57,2.59,2.19-.34,19.73-5.36,5.47-3.76-.41-2.5-1.77.53-7.38-2.12-1.36-.65-3.66,1-4.51-.25-.71-1,.32-2.62,1.18-3.52s3.21-.21,3.58-1.42c.27-.92-1-1.64-1.67-2.35-.83-.9-1.61-2.24-2.84-2.34-1.56-.13-2.7,1.58-4.06,2.34a8.49,8.49,0,0,1-2.6,1.42c-1.42.24-3.32.35-4.28-.72s.06-3-.25-4.46c-.14-.66-1-1.29-.71-1.88.89-1.62,3.66-.72,5.47-1.17,3.12-.77,6.2-1.68,9.27-2.59,2.23-.67,2.63-1.31,6.66-2.12.61-1,7.4-1.79,6.4-2.46s-9.82-.62-11.16-.36c-1.51.29-3,.68-4.52.94s-3.77,1.85-5,.7-.16-3.27.48-4.71c1.33-1.23,9.48,1.19.23-4Zm-29,18.71,2.62.35,3.2,1.17,1.89.6,1.56.7-.6.57-1.54-.35-2.27-.57L26,47.22l-2.39-1Z" transform="translate(1.71 0.36)"/><path id="path5580" class="cls-8" d="M34.75,56.13c1.87.48,3.19.06,4.7,0s3-.22,4.37-.33a36.71,36.71,0,0,0,4-.34c1.41-.27,3.35-.55,4.37-1.33s2.32-1.33,1.68-2.66-4.25-.2-5.71-.66-1.8-1.15-3-1.67-3-1.47-4.37-1.33-2,.95-3,1.66-1.48,2-3,2.67-5.63-1.44-6.05.66,4.17,2.85,6.05,3.33Z" transform="translate(1.71 0.36)"/><path id="path5582" class="cls-8" d="M70.37,39.49l4,1.67,2.69-1.67,2.69.67,3.69,1.66,3,1a3.14,3.14,0,0,1-2.35.33c-1.35-.33-4.37-.66-4.37-.66l-4.37,2-2.69-.66-2.35-1.33Z" transform="translate(1.71 0.36)"/><path id="path5584" class="cls-11" d="M52.05,49.64l4.71-.33,3.36.66,5-.16,4.7-.67-4-.5s-2.52.17-3.53.34-3.69-.67-4.53-.67H55.25a8.44,8.44,0,0,0-3.2,1.33Z" transform="translate(1.71 0.36)"/><path id="path5586" class="cls-12" d="M54.24,32.18l1.68-1,.5-1.5,1.68.5.67.33v2H57.43l-1.85,1.33Z" transform="translate(1.71 0.36)"/><path id="path5588" class="cls-11" d="M69.7,48l4.7-.34,3.36.67,5-.17,4.71-.66-4-.5s-2.52.17-3.52.33-3.7-.66-4.54-.66H72.89A8.37,8.37,0,0,0,69.7,48Z" transform="translate(1.71 0.36)"/><path id="path5590" class="cls-11" d="M64.65,34.5l4.71-.33,3.36.67,5-.17L82.47,34l-4-.49s-2.52.16-3.53.33-3.69-.67-4.53-.67H67.85a8.44,8.44,0,0,0-3.2,1.33Z" transform="translate(1.71 0.36)"/><path id="path5592" class="cls-11" d="M50.2,55.8l4.71-.34,3.36.67,5-.17L68,55.3l-4-.5s-2.52.16-3.53.33-3.69-.67-4.53-.67H53.4a8.41,8.41,0,0,0-3.2,1.34Z" transform="translate(1.71 0.36)"/><path id="path5594" class="cls-11" d="M10.88,49.31,15.59,49l3.36.66,5-.17,4.71-.66-4-.5s-2.52.17-3.53.33S17.44,48,16.6,48H14.08a8.44,8.44,0,0,0-3.2,1.33Z" transform="translate(1.71 0.36)"/><path id="path5596" class="cls-13" d="M29.87,41.49l2.69-1.66,1.85.16,3-1h3.7L44,38.66l-1.52,2.16-2.68-.49-3.2.66-2.85,1Z" transform="translate(1.71 0.36)"/></g><path id="path6400" class="cls-14" d="M32.7,79c.21-.49.07-.41,1.27-.69.59-.14,1.16-.27,1.26-.28.25-.05.33-.12.51-.45l.15-.28h-.23l-.6,0-1.61.09a.7.7,0,0,1-.19-.09l-.14-.08.09-.28a.78.78,0,0,1,.23-.37,5,5,0,0,1,1.07-.39l.78-.2c.61-.16.79-.21,1.19-.29.18,0,.18,0,.33-.31s.18-.38.07-.3a.81.81,0,0,1-.29,0l-.66,0H35.5s.15-.3.35-.64a5.61,5.61,0,0,0,.34-.64,2.51,2.51,0,0,0-.76-.05l-1,1c-1.3,1.36-1.28,1.34-1.56,1.36s-.4,0-.43-.19.07-.35.59-1.14l.62-1c.05-.07.08-.13.06-.15a2.49,2.49,0,0,0-.82-.09l-.24.26c-.11.13-.3.34-.43.47-.3.31-.52.54-.76.83a.76.76,0,0,1-.69.34c-.15,0-.17,0-.21-.15-.1-.32-.07-.39.42-1.1a6.25,6.25,0,0,0,.44-.71l-.63-.08c-.74-.07-.84-.1-1.05-.38L29.59,73l.13-.27c.21-.46.2-.46.91-.51a3.84,3.84,0,0,0,.62-.07,6.64,6.64,0,0,0-.45-.7l-.46-.67v-.42l.23-.07c.32-.1.42-.11.5-.06s.56.53.93.91c.89.91.84.87,1,.88a1.92,1.92,0,0,0,.52,0,7,7,0,0,0-.56-.8c-.9-1.21-.83-1.08-.8-1.35l0-.23.25-.08a.48.48,0,0,1,.41,0,24.82,24.82,0,0,1,2,1.82c.54.53.57.55.78.52a2.19,2.19,0,0,1,.36,0h.17l-.29-.43-.34-.5c-.15-.17-.22-.31-.19-.36a2.87,2.87,0,0,1,1.07-.1,1.77,1.77,0,0,0,.37,0,2,2,0,0,0-.24-.53.38.38,0,0,0-.22-.13l-.38-.08c-.13,0-.35-.08-.49-.11s-.33,0-.44-.08l-.87-.17c-1.06-.2-1.08-.21-1.27-.59-.07-.13-.06-.17,0-.32a.63.63,0,0,1,.2-.22,5.52,5.52,0,0,1,1.51,0,5.56,5.56,0,0,0,.88,0s0-.08,0-.14a3.28,3.28,0,0,1-.21-.33c-.12-.19-.15-.22-.28-.24a3.13,3.13,0,0,1-.44-.1L34,67.31c-.52-.1-1.28-.28-1.37-.32a1,1,0,0,1-.32-.52c0-.11.21-.51.24-.47a.06.06,0,0,0,.07,0,4.89,4.89,0,0,1,1.17.06l.57.05L34.27,66c0-.08-.18-.33-.29-.56s-.23-.44-.24-.48a1.71,1.71,0,0,1,.26-.7c.07,0,.21-.06.57,0h.25l.38.55.39.54a4.18,4.18,0,0,0,.24-.49c.12-.27.25-.54.28-.6s.09-.21.12-.31.08-.19.29-.29.39-.1.54.14.13.13-.18,1.52c-.1.43-.21.93-.24,1.1l-.06.31.24.36c.13.21.24.35.26.34a.73.73,0,0,0,.1-.19,4.12,4.12,0,0,1,.17-.42l.38-.94.27-.69.2-.11c.22-.13.31-.11.48.11s.1.16.08.23,0,.22-.07.37-.07.35-.1.45-.52,2.51-.53,2.61a1.4,1.4,0,0,0,.18.37c.17.28.18.29.25.24a1,1,0,0,0,.16-.23c.09-.19.48-.91.5-.93a5.59,5.59,0,0,1,.69,1.09c.08.14.09.14.17.08a1.07,1.07,0,0,0,.35-.57s-.25-.83-.54-1.72l-.54-1.62.15-.25.14-.26.27,0c.26,0,.26,0,.39.25s.18.34.26.51l.41.88c.15.31.27.57.28.57a4.29,4.29,0,0,0,.43-.63,1.88,1.88,0,0,0-.12-.55c-.09-.27-.16-.52-.18-.56s-.12-.38-.25-.76c-.22-.67-.27-.94-.18-1a.42.42,0,0,0,.1-.15c.06-.12.07-.13.32-.1s.29.05.35.14a9.79,9.79,0,0,1,.5,1,2.07,2.07,0,0,0,.25.49s.09-.09.16-.21a1.09,1.09,0,0,1,.16-.23l.16-.29a1.38,1.38,0,0,1,.23-.35,1.8,1.8,0,0,1,.65-.25l.18,0,.15.25c.18.29.2.45.11.61a1.14,1.14,0,0,0-.12.27,4.64,4.64,0,0,1-.2.49,1.24,1.24,0,0,0-.14.33s.08,0,.16,0l1.28-.14a.88.88,0,0,1,.59.15c.18.13.18.13,0,.5-.08.18-.09.2-.32.3l-.3.11-.38.1-1,.27a4.07,4.07,0,0,0-.71.23,2.27,2.27,0,0,0-.38.74,7.84,7.84,0,0,0,1.68-.2c.68-.11.77-.11.92,0s.24.19.1.49-.21.37-.79.57c-.31.11-.34.13-.34.2s-.07.17-.11.07-.07-.08-.12-.06l-.17,0-1,.3a4.08,4.08,0,0,0-1,.37c-.19.24-.33.76-.18.64a1.41,1.41,0,0,1,.34,0h.7a1,1,0,0,1,.43,0,.31.31,0,0,1-.07.18c-.16.25-.64,1-.67,1.13s0,.08.25.11a2.36,2.36,0,0,0,.45,0c.21,0,.28-.1,1.8-1.81.29-.32.57-.62.63-.66a.87.87,0,0,1,.37-.1c.22,0,.28,0,.3.06a.47.47,0,0,1,0,.52l-.2.32a1.3,1.3,0,0,1-.15.23s-.06.11,0,.13,0,0,0,0-.11.11-.19.24l-.38.6a1.72,1.72,0,0,0-.22.39,4,4,0,0,0,.75.08.34.34,0,0,0,.3-.14A12.78,12.78,0,0,0,47,70.59c.59-.75.59-.75.82-.8s.37-.06.46.18.08.25-.47,1.15c-.2.32-.36.61-.37.64s.16.07.78.08.67,0,.93.45l.21.29-.18.21c-.39.46-.42.48-.88.55a3.29,3.29,0,0,1-.7.07h-.1a7,7,0,0,0,.48.66l.49.65,0,.28c0,.35-.09.43-.31.46s-.35,0-.66-.37S46.25,73.9,46,73.69c-.07-.06-.19-.07-.47-.06l-.42,0a15.8,15.8,0,0,0,1.15,1.48l.18.19,0,.34c0,.39-.1.46-.4.5s-.31,0-.72-.44-.59-.6-1.22-1.21c-.81-.8-.78-.77-.86-.79a1.75,1.75,0,0,0-.36,0c-.35,0-.36,0-.32.07a3.89,3.89,0,0,1,.21.36l.33.57a1.32,1.32,0,0,1,.15.28c0,.08-.24.12-.81.12-.38,0-.58,0-.57,0a1.35,1.35,0,0,0,.14.3c.12.2.15.23.3.27l.38.12.75.24,1.06.33.68.19a.57.57,0,0,1,.48.41l.1.24-.22.18c-.28.23-.34.24-1.53.07a6.22,6.22,0,0,0-1-.09.84.84,0,0,0,.07.29.76.76,0,0,0,.48.52.46.46,0,0,1,.16.08s.43.22.92.44a10.23,10.23,0,0,1,1,.49.74.74,0,0,1,.17.32c0,.2,0,.24-.05.33a.58.58,0,0,1-.51.23A10.55,10.55,0,0,1,44,79.85c-.12,0-.2,0-.21,0a3.26,3.26,0,0,0,.13.49c.22.73.23.7-.16,1.22l-.15.21-.34-.07a1.29,1.29,0,0,1-.42-.13,1.23,1.23,0,0,1-.2-.42c-.07-.2-.14-.42-.17-.49s-.06-.17-.08-.23,0-.09-.12,0a2.06,2.06,0,0,1-.26.34,2,2,0,0,0-.19.25l-.09.11s-.17.18-.29.33l-.23.27-.22,0a.61.61,0,0,1-.51-.47c-.08-.26-.07-.32.08-.47a2,2,0,0,0,.24-.35,10.52,10.52,0,0,1,1-1.35c.09-.07.09-.08-.09-.37a1.66,1.66,0,0,0-.22-.31s-.08.07-.13.15c-.13.26-.42.81-.7,1.33s-.27.48-.38.54a.38.38,0,0,1-.52-.06c-.19-.18-.2-.3-.09-.65l.46-1.37c.41-1.2.48-1.48.42-1.66a1.41,1.41,0,0,0-.2-.35l-.15-.18-.08.16a1.39,1.39,0,0,1-.14.25s-.15.26-.26.45a2.18,2.18,0,0,1-.22.38s-.17-.1-.27-.29l-.29-.59a2.27,2.27,0,0,0-.25-.41,1.87,1.87,0,0,0-.38.56,1.91,1.91,0,0,0,.1.58,2.57,2.57,0,0,1,.08.33c0,.25.24,1,.45,1.81s.18.71,0,.92-.25.3-.45.27-.31-.14-.6-.84c-.12-.31-.26-.62-.3-.7a3.72,3.72,0,0,1-.17-.38c-.16-.42-.17-.42-.34-.15a2,2,0,0,0-.16.28,3.69,3.69,0,0,0,.23,1.13c.1.37.2.71.21.76s.05.22.09.37a.5.5,0,0,1,0,.48c-.15.31-.27.39-.53.33s-.24,0-.6-.9-.31-.74-.38-.66-.18.24-.33.45a2.57,2.57,0,0,1-.35.45,1.19,1.19,0,0,1-.64.14h-.18l-.11-.26c-.11-.24-.13-.49-.05-.56a1.41,1.41,0,0,0,.13-.24c0-.11.17-.34.26-.52a1.51,1.51,0,0,0,.15-.33,8.43,8.43,0,0,0-.85,0c-.85.06-.92,0-1.19-.18-.08-.06-.08-.1,0-.25Z" transform="translate(1.71 0.36)"/><g id="g7153"><path id="path7018" class="cls-15" d="M60.82,67.29s-3.28,8.21-4.29,10.93c-.08.22-.17.62.07.7s.4-.29.47-.5C58.08,75.74,60.82,67.29,60.82,67.29Z" transform="translate(1.71 0.36)"/><path id="path7020" class="cls-15" d="M69.26,62.62s-3,7.44-3.89,9.91c-.07.19-.14.55.07.62s.36-.26.43-.45c.91-2.42,3.39-10.08,3.39-10.08Z" transform="translate(1.71 0.36)"/><path id="path7022" class="cls-15" d="M64.61,65.29s-1.59,4-2.09,5.31c0,.1-.08.3,0,.34s.19-.14.23-.25C63.28,69.39,64.61,65.29,64.61,65.29Z" transform="translate(1.71 0.36)"/><path id="path7024" class="cls-15" d="M68.71,57.94S63.59,70.75,62,75c-.13.33-.26,1,.11,1.08s.61-.45.74-.78c1.57-4.17,5.85-17.36,5.85-17.36Z" transform="translate(1.71 0.36)"/><path id="path7026" class="cls-15" d="M71.81,68.5s-2.37,5.93-3.1,7.89c-.06.16-.12.44.05.5s.28-.2.34-.36c.73-1.93,2.71-8,2.71-8Z" transform="translate(1.71 0.36)"/><path id="path7028" class="cls-15" d="M76.34,60.57s-4,10-5.23,13.34c-.1.26-.2.74.09.84s.48-.35.57-.61c1.23-3.26,4.57-13.57,4.57-13.57Z" transform="translate(1.71 0.36)"/><path id="path7036" class="cls-15" d="M73.14,62.9s-3,7.61-4,10.13c-.08.19-.16.56.06.64s.37-.27.44-.46C70.6,70.73,73.14,62.9,73.14,62.9Z" transform="translate(1.71 0.36)"/><path id="path7038" class="cls-15" d="M78.93,58.54s-4,10-5.23,13.3c-.09.26-.2.75.09.84s.48-.34.58-.6c1.22-3.26,4.56-13.54,4.56-13.54Z" transform="translate(1.71 0.36)"/><path id="path7042" class="cls-15" d="M73.54,72.23s-3,7.51-3.93,10c-.07.2-.15.56.07.63s.36-.26.43-.45C71,80,73.54,72.23,73.54,72.23Z" transform="translate(1.71 0.36)"/><path id="path7044" class="cls-15" d="M80.77,64s-2.5,6.25-3.27,8.32c-.06.16-.12.46.06.52s.3-.21.36-.37c.76-2,2.85-8.47,2.85-8.47Z" transform="translate(1.71 0.36)"/><path id="path7046" class="cls-15" d="M60.05,74.71s-1.51,3.78-2,5c0,.1-.08.28,0,.32s.18-.13.22-.23c.46-1.23,1.72-5.12,1.72-5.12Z" transform="translate(1.71 0.36)"/><path id="path7048" class="cls-15" d="M72,67.72S66.49,81.47,64.8,86c-.14.36-.28,1,.12,1.16s.66-.48.79-.83C67.4,81.87,72,67.72,72,67.72Z" transform="translate(1.71 0.36)"/><path id="path7050" class="cls-15" d="M70.73,75.2s-2.4,6-3.14,8c-.06.15-.13.44,0,.5s.29-.21.34-.36C68.72,81.39,70.73,75.2,70.73,75.2Z" transform="translate(1.71 0.36)"/><path id="path7056" class="cls-15" d="M54.59,75.15s-2.17,5.44-2.84,7.24c0,.14-.11.4,0,.46s.26-.19.31-.33C52.78,80.75,54.59,75.15,54.59,75.15Z" transform="translate(1.71 0.36)"/><path id="path7060" class="cls-15" d="M58.21,78.07s-1.44,3.6-1.89,4.79c0,.09-.07.27,0,.3s.17-.12.2-.21C57,81.77,58.21,78.07,58.21,78.07Z" transform="translate(1.71 0.36)"/><path id="path7070" class="cls-15" d="M60.93,59.27S56.71,69.84,55.4,73.35c-.1.28-.21.79.09.89s.51-.37.61-.64c1.3-3.45,4.83-14.33,4.83-14.33Z" transform="translate(1.71 0.36)"/><path id="path7076" class="cls-15" d="M66.21,55s-2.9,7.26-3.8,9.67c-.07.18-.14.54.07.61s.34-.26.41-.44C63.78,62.47,66.21,55,66.21,55Z" transform="translate(1.71 0.36)"/></g></g></g></g></svg>