<svg id="svg13195" xmlns="http://www.w3.org/2000/svg" xmlns:xlink="http://www.w3.org/1999/xlink" viewBox="0 0 110 110"><defs><style>.cls-1{fill:#520;fill-opacity:0;}.cls-2,.cls-3{fill:#fd5;}.cls-11,.cls-12,.cls-13,.cls-2{opacity:0.8;}.cls-10,.cls-11,.cls-12,.cls-13,.cls-14,.cls-15,.cls-16,.cls-17,.cls-18,.cls-19,.cls-2,.cls-20,.cls-3,.cls-8,.cls-9{isolation:isolate;}.cls-3{opacity:0.94;}.cls-4{fill:url(#radial-gradient);}.cls-5{fill:url(#linear-gradient);}.cls-6{fill:url(#linear-gradient-2);}.cls-7{fill:#6f8a91;}.cls-8{fill:#76797e;}.cls-8,.cls-9{opacity:0.85;}.cls-9{fill:url(#linear-gradient-3);}.cls-10,.cls-13{fill:#999;}.cls-10,.cls-15{opacity:0.9;}.cls-11{fill:#666;}.cls-12{fill:#ccc;}.cls-14{opacity:0.95;fill:url(#linear-gradient-4);}.cls-15{fill:#a6a7a7;}.cls-16{fill:#b3b3b3;}.cls-16,.cls-18,.cls-20{opacity:0.5;}.cls-17{fill:#9c9ea0;opacity:0.67;}.cls-18{fill:#959798;}.cls-19{fill:gray;opacity:0.6;}.cls-20{fill:#dbe3e2;}</style><radialGradient id="radial-gradient" cx="495.86" cy="-564.23" r="50.51" gradientTransform="matrix(0.37, -0.01, -0.02, -0.54, -167.11, -244.85)" gradientUnits="userSpaceOnUse"><stop offset="0" stop-color="#ff0"/><stop offset="1" stop-color="#fea917"/></radialGradient><linearGradient id="linear-gradient" x1="540.99" y1="-998.73" x2="661.02" y2="-880.72" gradientTransform="matrix(0.34, 0, 0, -0.34, -172.75, -270.68)" gradientUnits="userSpaceOnUse"><stop offset="0" stop-color="#ff0"/><stop offset="1" stop-color="#ff0" stop-opacity="0"/></linearGradient><linearGradient id="linear-gradient-2" x1="630.55" y1="-822.25" x2="612" y2="-927.84" gradientTransform="matrix(0.34, 0, 0, -0.34, -172.75, -270.68)" gradientUnits="userSpaceOnUse"><stop offset="0" stop-color="#fff"/><stop offset="1" stop-color="#fff" stop-opacity="0"/></linearGradient><linearGradient id="linear-gradient-3" x1="-662.29" y1="-585.76" x2="-525.9" y2="-543.26" gradientTransform="matrix(0.66, 0, 0, -0.66, 453.74, -322.8)" gradientUnits="userSpaceOnUse"><stop offset="0" stop-color="#57646d"/><stop offset="1" stop-color="#57646d" stop-opacity="0"/></linearGradient><linearGradient id="linear-gradient-4" x1="-934.51" y1="-362.49" x2="-945.75" y2="-306.34" gradientTransform="matrix(0.66, 0, 0, -0.66, 659.1, -172.08)" gradientUnits="userSpaceOnUse"><stop offset="0" stop-color="#ccc"/><stop offset="1" stop-color="gray"/></linearGradient></defs><g id="layer1"><g id="sun_rain" data-name="sun rain"><rect id="rect6741" class="cls-1" width="110" height="110"/><g id="g6664"><g id="g7284"><path id="path7286" class="cls-2" d="M31,9.22l.78,17L29.88,15.7l1.34,10.64-1.35-5.76L29,15.32l.56,4-1.8-7.69,2.46,13.95L27.77,17.2l1.29,6.91L24.59,11l4,14.27-3.42-8.47,1.93,6.68L22.31,13.13l4.51,13.16L23.59,20.8l-1.1-2.13.44,1-3.87-6.57L26,28.25l-.31-.44-5.84-9L22,22.74l-2.43-3.38,3.3,5.79-6.7-9.3,7.23,11.54L19,21.89l4.46,6.56L13,16.53,21.66,27.8l-5.14-5.28,5.73,6.87-9.71-9L23.08,31.8l-4.06-3L9.64,21.6,21.76,32.42,11.7,26.29l1.36,1-.5-.3,3.36,2.49,1.56,1.19L7.13,25.06,17.2,32l-5-2.75,6.08,3.47.7.48L4.48,27l11.18,6.14-5.51-2.36,6.68,3,2.47,1.36L12.52,33,5.58,30.43l5.1,2-1.91-.61,4.3,1.87-3.19-.94,8.88,4-.68-.13L3.42,32.76l11.69,3.32-7-1.34,5.31,1.81-10-1.39,5.09,1.45-.21,0,.24,0L15,38.45l-4.41-.18L8.24,38l1.62.25-8.18-.35,14,2.57-1,0L7,40.35l5.34.28-5,.25,6.23.56-11.12.33,15.22,0,.3,0L9,43l10.58-.5L9.77,43.8,8.37,44l-7.11.91,16.37-1.56L8.28,45.51l7.37-1.06-5.08,1.47-3.08.69,2-.4L4.25,47.74l14.68-2.86L9.08,48,16.28,46,3.79,50.9l15-4.46L8.84,50.71l10.73-4.27L10,51.31l1.4-.57-6.22,3,10.12-4.61,4.26-1.72L11.79,52.3l9.75-5.17-16.15,10L21.05,48l-9,6.86,6.37-4.21-5.67,4.8-1,.76.69-.49L9.25,58.46l13.37-9.84L14,57l2.15-1.72-6.05,6.22,10.38-9.31L22.94,50l-8.1,9.57,4.42-4.31-1.38,1.79-2,2.42.6-.64-3.79,5,10.13-11-.33.53-4.46,6.34,2.16-2.65-6,9.68L23.84,54.1,19.38,62l4-6-5.25,10.4,7.27-12.1,1-1.58L22,62.94l1.7-3.27-3.55,9.16L27.4,53.54,23.79,64.9l2.74-6.84-.36,1.38-1.49,5.22.39-1.07L23.5,69.51l4.11-12L25.82,65l2.25-6L26,71.59l3.06-12.85L28,66.66l1.43-5.37-.91,10,1.24-5.86-.07,1L30,64.4l1.32-6.24L31.39,73l1.76-15.64,1,9.85L34.3,59l1.36,12.08L34.37,56.17l1.75,9.1-.61-8.89L38.82,72,36,56.62l2.72,9.29-.87-5.23L41,69.82,38.18,57l2.17,4.71,1.13,2.92-.66-1.91,3.42,7.43L39.5,55.47l.72,1.25,4,8L41.9,59.63l2.49,4.28-2-4.68,5,8.84L40.51,54.82l5.06,8L38.73,50.6l12,17.07L42.22,54.59l6.07,7.77-5.6-8L52,65.12l-6.22-8,3.67,4.33L42.05,52l7.26,7.13L47.4,56.71l7.81,7.42L43.62,51.83l-.55-.71,8.73,7.09-3.17-3.36,4.23,3.35-2.28-2,5.29,3.86L47,51.53l11.74,6.95L47.45,49.61l6,2.83,2.34,1.26-1.39-.81.92.43L48.75,49.1l11.49,5.46L47,47.7,56,51.18,43.64,45.8,42.39,45l8.25,3,5.59,2-.68-.27,7.15,2.58L48.18,46.53,58,49.23,47.54,45.86l15,3.34-5.15-1.39-8.09-2.38,7.06,1.16-8.1-2.08,16.3,2-16.1-2.7,9.41.61-6.46-1,10.76.16-4.55-.47,1.52,0-3.72-.27-8-.83,6.18-.51,3.72-.16-1.31,0,7.55-.63-17.25-.11,12-1.7-4.47.3,4-.71-5,.44,9.6-1.84-13.81,1.6,8.9-2.07-6.27.83,12-3.52L49.07,37l9-3.06-7.26,1.7,11-4.33-8.52,2.45,2.86-1.1-8.1,2.45L62,28,53.4,31.37l2.87-1.43-9.35,3.84.11-.07,12.42-7-5.57,2.62,1.78-1.13-8.14,4.12-3,1.41L54,27.35,51.9,28.52l1.57-1.08-.64.38,6.24-4.35L44.25,32.29l9.18-7.62-2,1.42,1.53-1.29-7.31,5.32,10.21-9.37L45.71,28.58l4.38-4.35-7.21,6.56,7.2-7.95-.46.42,5.08-5.65L45,26.78l4.12-5-6.85,7.55,6.68-9-2.43,2.77,4.09-5.48L40.86,29.51,40.4,30l5.84-9.92L44,23.32l1.6-2.61L44,23l4.89-8.09L39.52,29l5.14-11.07-2,3.58L44,18.6l-3.86,7.1,5-12.35L39.11,25.41l2.49-7-2.79,6.3L42.88,11l-5.1,13.15,1.88-7.53-2.5,7.55,1.64-8.3-.95,3.35,1.41-7.08-2.53,9.11.84-4.73-1.22,6.11-1.51,5.44.7-7.15L36,17.06l-.05.24.69-7-1.71,9.75.4-5-.65,6.48-1.07,6v-.65L34,10.57l-.42,8.21,0-3L33,24l-.62-7.32.31,11.05L32.49,30l-.06-.33-.85-13.44.14,3.53Z" transform="translate(0 0)"/><path id="path7288" class="cls-3" d="M54.22,42.47A21.34,21.34,0,1,1,32.88,21.14,21.34,21.34,0,0,1,54.22,42.47Z" transform="translate(0 0)"/><g id="g7290"><path id="path7292" class="cls-4" d="M51.25,41.86A18.47,18.47,0,1,1,32.78,23.4,18.47,18.47,0,0,1,51.25,41.86Z" transform="translate(0 0)"/><path id="path7294" class="cls-5" d="M50,41.86a17,17,0,1,1-17-17A17,17,0,0,1,50,41.86Z" transform="translate(0 0)"/><path id="path7296" class="cls-6" d="M50,41.86a17,17,0,1,1-17-17A17,17,0,0,1,50,41.86Z" transform="translate(0 0)"/></g></g><g id="g7153"><path id="path7018" class="cls-7" d="M27.51,76.79S27,89,26.9,93.07c0,.32.06.88.37.88s.35-.56.36-.87C27.73,89.11,27.51,76.79,27.51,76.79Z" transform="translate(0 0)"/><path id="path7020" class="cls-7" d="M35.65,66.84s-.48,11.1-.56,14.75c0,.28,0,.79.34.79s.32-.5.32-.79c.09-3.59-.1-14.75-.1-14.75Z" transform="translate(0 0)"/><path id="path7022" class="cls-7" d="M31.2,72.44s-.26,6-.3,7.91c0,.16,0,.43.18.43s.17-.27.18-.42C31.3,78.43,31.2,72.44,31.2,72.44Z" transform="translate(0 0)"/><path id="path7024" class="cls-7" d="M33.05,61s-.82,19.12-.95,25.41c0,.49.08,1.36.58,1.36s.55-.86.56-1.35c.15-6.19-.19-25.42-.19-25.42Z" transform="translate(0 0)"/><path id="path7026" class="cls-7" d="M41.1,73.39s-.38,8.85-.45,11.76c0,.23,0,.63.27.63s.26-.4.26-.63c.07-2.86-.08-11.76-.08-11.76Z" transform="translate(0 0)"/><path id="path7028" class="cls-7" d="M43.23,60.94s-.64,15-.74,19.86c0,.39.07,1.07.45,1.07s.43-.68.44-1.06c.12-4.84-.15-19.87-.15-19.87Z" transform="translate(0 0)"/><path id="path7036" class="cls-7" d="M40.38,65.45s-.49,11.35-.57,15.08c0,.29.06.81.35.8s.32-.51.33-.8C40.58,76.86,40.38,65.45,40.38,65.45Z" transform="translate(0 0)"/><path id="path7038" class="cls-7" d="M45.47,57.1S44.84,72,44.73,76.92c0,.38.07,1.06.45,1.06s.43-.67.44-1c.12-4.83-.15-19.83-.15-19.83Z" transform="translate(0 0)"/><path id="path7042" class="cls-7" d="M44.7,77.5s-.48,11.21-.56,14.89c0,.29,0,.8.34.8s.32-.5.33-.79c.08-3.63-.11-14.9-.11-14.9Z" transform="translate(0 0)"/><path id="path7044" class="cls-7" d="M49.91,63.39s-.4,9.32-.47,12.38c0,.25,0,.67.28.67S50,76,50,75.78c.07-3-.09-12.39-.09-12.39Z" transform="translate(0 0)"/><path id="path7046" class="cls-7" d="M29.65,86.87s-.24,5.63-.28,7.49c0,.14,0,.4.17.4s.16-.26.17-.4c0-1.82-.06-7.49-.06-7.49Z" transform="translate(0 0)"/><path id="path7048" class="cls-7" d="M41,72.28s-.88,20.53-1,27.28c0,.53.09,1.47.62,1.46s.59-.92.6-1.45c.16-6.64-.2-27.29-.2-27.29Z" transform="translate(0 0)"/><path id="path7050" class="cls-7" d="M42.57,82.66s-.38,9-.45,11.93c0,.23,0,.64.28.64s.25-.41.26-.63C42.73,91.69,42.57,82.66,42.57,82.66Z" transform="translate(0 0)"/><path id="path7056" class="cls-7" d="M23.33,89.91S23,98,22.92,100.7c0,.21,0,.58.25.58s.23-.37.24-.57C23.47,98.08,23.33,89.91,23.33,89.91Z" transform="translate(0 0)"/><path id="path7060" class="cls-7" d="M28.84,92.11s-.23,5.37-.27,7.13c0,.14,0,.39.16.39s.15-.25.16-.38C28.93,97.51,28.84,92.11,28.84,92.11Z" transform="translate(0 0)"/><path id="path7070" class="cls-7" d="M24.34,66.21s-.68,15.79-.79,21c0,.41.07,1.13.48,1.13s.45-.72.46-1.12c.13-5.11-.15-21-.15-21Z" transform="translate(0 0)"/><path id="path7076" class="cls-7" d="M28.86,58.23s-.46,10.83-.54,14.39c0,.28.05.78.33.78s.31-.49.32-.77C29.05,69.12,28.86,58.23,28.86,58.23Z" transform="translate(0 0)"/></g><g id="g7082"><path id="path7084" class="cls-8" d="M55.26,63.65C57,66,61,65.9,63.92,65.48c1.74-.25,3.06-1.75,4.66-2.5a21.68,21.68,0,0,1,4.5-1.83c3.8-.8,11.65-.33,11.65-.33s-10,2.4-10.15-1c0-1.4,2.77-.45,4.16-.67s4,2,4.33-.66-.5-2.33.5-2.67a19.17,19.17,0,0,0,2.5-1.16s-2.61-2.09-4-3c-1.23-.8-3.4-.76-3.83-2.16s.8-2.77,1.83-3.67c.8-.69,3.33-.33,3-1a10.38,10.38,0,0,0-2.33-3,16.94,16.94,0,0,0-5-2.17,25,25,0,0,0-5-1.33,25.44,25.44,0,0,0-4,0c-1.89,0-3.94-.44-5.66.33a8.71,8.71,0,0,0-4.17,4.17C54,49.15,51.09,58.07,55.26,63.65Z" transform="translate(0 0)"/><path id="path7086" class="cls-9" d="M44.19,43.7C45.64,42,47.82,40.85,49.13,39c.45-.63.49-1.49.94-2.12.62-.85,1.33-2.37,2.36-2.12,1.3.32.4,2.89,1.41,3.77a4.48,4.48,0,0,0,3.3.7c1-.09,2.31-.29,2.83-1.17.36-.62-.53-1.47-.24-2.12.22-.49-1.86-1,1.29-.94,1.14,0,3,.93,4.6.82,1.36-.1,5.12-1.12,3.88-1.3,1,2-3,3.25-4.59,4.71-.67.6-2.34.79-2.12,1.65s1.88.56,2.83.47a9.4,9.4,0,0,0,3.29-1.17c1-.51,1.72-1.68,2.83-1.89s2,.52,3.06.71,2.52,1.09,3.53.47a2.38,2.38,0,0,0,1-2.59c-.29-.76-1.55-.6-2.12-1.18s-2-1.78-1.42-2.59c.87-1.23,3,.67,4.48.71a14,14,0,0,1,2.12-.24c.17,0,.42.07.47.24.26.88-1.33,1.44-1.41,2.35-.13,1.34,1.82,2.49,1.41,3.77C82.46,41,81,41.38,80,41.82a31.48,31.48,0,0,1-3.53.7,45.74,45.74,0,0,0-5.65,2.12c-.65.28-2,.25-1.89.94.2,1.69,3.26,1.28,5,1.18,2.08-.12,3.8-2.09,5.89-2.12a6.64,6.64,0,0,1,2.82.94c1.44.69,2.44,2.33,4,2.59s3.1-1,4.71-1.17c1.17-.15,2.57-.68,3.53,0S96.6,49.29,96,50.29c-1.1,1.84-4.22.93-6.36,1-1.82,0-4.85-2.44-5.42-.71-.5,1.53,2.71,1.83,4.24,2.35a15.28,15.28,0,0,0,6.12.95,14.06,14.06,0,0,0,2.83-.95c.55-.16,1.25-.87,1.65-.47.75.77-.22,2.28-.94,3.06-1,1.11-2.75,1.37-4.24,1.65a12.87,12.87,0,0,1-3.77,0c-1.76-.19-3.42-1-5.18-1.17a16.66,16.66,0,0,0-3.53,0,29.81,29.81,0,0,0-5,.94c-1.44.37-2.77,1.17-4.24,1.41-1.08.18-2.71.93-3.3,0-.69-1.1,2.28-2.39,1.65-3.53-.92-1.66-3.78-1-5.65-.71a10.56,10.56,0,0,0-4.71,2.36c-1.08.88-1.27,2.83-2.59,3.29-2.28.81-4.68-1.25-7.07-1.64-4.9-.81-12.68,3.06-14.83-1.42-2.24-4.65,5.17-9,8.48-12.95Z" transform="translate(0 0)"/><path id="path7088" class="cls-10" d="M48.1,49.5l5,1,4,1.33,4,.33,3.33-.33a2.43,2.43,0,0,1,1.66-1c1.33-.33.67-.33,2-.67a27.77,27.77,0,0,0,3-1l1-.66s0-.67-1.67-1-2.33-3.33-2.33-3.33a5.16,5.16,0,0,0-3.66-.34c-1.67.67-3.33,2-5.33,2.34s-6-.67-6-.67l-3,2Z" transform="translate(0 0)"/><path id="path7090" class="cls-11" d="M25.28,57.49l3.5-1.33,2.83,1.16a3,3,0,0,1,1.5-1.16c.83-.17,2.5.83,3.16.83s-3.66,0,2,.33,5.5,1,5.33.17-2.16-2.66.5-2.17l2.67.5,4-1L55.26,57l2,.17a18.68,18.68,0,0,1,3.83,1c.83.5,3.83.33.83.5s-2.5-1.17-4.16.49a7.89,7.89,0,0,1-4.33,2.5c-.84,0-2.67-.5-4.17-.5s-2.66-.33-3.33.17-1.16,1.83-2.5,1.5-5-1.33-5-1.33H36.77l-3-.67a1.74,1.74,0,0,0-1-1.17,15.71,15.71,0,0,0-3-.5l-2-.16Z" transform="translate(0 0)"/><path id="path7092" class="cls-12" d="M54.59,49.16l9.49,1s3.5-1.83,4-1.66l3.33,1s3.66-.17,4.5-.34,6.66-.83,6.66-.83,4.33,2.33,5,2.33,8.83.83,8.83.83l10.66,1.67L96.89,54.49l-10.82-.33L80.4,54l-12,2-8-1.16L46.6,56Z" transform="translate(0 0)"/><path id="path7094" class="cls-13" d="M40.44,56.82c1.49,2.07,5.15.5,7.66,0,1.41-.28,2.55-1.59,4-1.66s2.83,1.18,4.33,1.33a10.13,10.13,0,0,0,3.33-.33c1.75-.43,3.24-1.66,5-2a26.1,26.1,0,0,1,5,0,21.3,21.3,0,0,0,3.66,0c2-.34,3.69-1.66,5.66-2,1.31-.22,3.2,1.06,4,0,.48-.64,3.55-.6,2.86-1-1.22-.78-6.47-.17-7.86-.62-.89-.3-6.85.33-3.76-2.24-.72-4.14-5.14,4-8.89,3.9-1.55,0-4.35-.12-4.33-1.66,0-1.3,2.86-.31,3.66-1.34.68-.88,1-2.47.33-3.33-.85-1-2.68-.07-4-.33-3.21-.64-6.54-1.3-9.33-3-1.07-.65-1.41-2.68-2.66-2.66-2.28,0-3.5,3-4.67,5C42.28,48.45,38,53.41,40.44,56.82Z" transform="translate(0 0)"/><path id="path7096" class="cls-14" d="M53.13,33.1c-2.61,0-3.27,5-5.87,5.19-1.2.1-1.88-1.78-3.07-1.89-4.61-.44-8.39,4.3-13,4.94-1.79.25-3.62-.83-5.39-.47-2.17.43-7.84.45-7.31,2.6.37,1.52,5.64-1,6.11.47s-2.9,1.33-3.75,2.59c-.41.6.1,1.66-.47,2.11-2.17,1.69-4.1.79-6.83,1.06s-9.36-2.16-9.43.58c0,1.39,2.72.64,4,1.2a7.49,7.49,0,0,1,2.36,1.4c.33.32.3,1,.71,1.18,2.22,1.17,5-.66,7.54-.48a23.16,23.16,0,0,1,5.64,1.2c2.64.87,4.91,2.65,7.55,3.52,1.14.38,2.83-.28,3.52.7.86,1.24-1.84,3.48-.7,4.47,1.42,1.24,3.55-1.37,5.42-1.65a19.68,19.68,0,0,1,5.42,0,22.17,22.17,0,0,1,5.17,1.43c1.4.55,2.6,1.54,4,2.12,2.73,1.13,5.57,3,8.49,2.6,2.17-.35,19.55-5.37,5.42-3.78-.41-2.5-1.76.54-7.32-2.12-1.35-.64-3.63,1-4.47-.25-.7-1,.32-2.62,1.18-3.52s3.18-.21,3.54-1.42c.27-.92-1-1.65-1.65-2.35-.83-.9-1.6-2.25-2.82-2.35-1.55-.13-2.67,1.59-4,2.35A8.73,8.73,0,0,1,50.55,56c-1.41.24-3.29.35-4.24-.72s.06-3-.25-4.47c-.14-.66-1-1.29-.7-1.88.88-1.62,3.63-.72,5.42-1.17,3.09-.77,6.15-1.68,9.19-2.6,2.21-.66,2.6-1.31,6.6-2.12.6-1,7.33-1.79,6.34-2.46s-9.73-.62-11.06-.36c-1.5.29-3,.68-4.48.94s-3.74,1.86-4.94.71-.17-3.28.47-4.72c1.32-1.24,9.4,1.18.23-4ZM24.4,51.83l2.6.35,3.17,1.17,1.88.6,1.54.7-.59.58-1.53-.35-2.24-.58-1.76-1.07-2.37-1Z" transform="translate(0 0)"/><path id="path7098" class="cls-10" d="M36.11,62.15c1.86.48,3.16.06,4.66,0s2.94-.22,4.33-.33a33.88,33.88,0,0,0,4-.33c1.39-.27,3.31-.56,4.33-1.34s2.3-1.33,1.66-2.66-4.21-.2-5.66-.67-1.78-1.14-3-1.66-3-1.47-4.33-1.33-2,.94-3,1.66-1.46,2-3,2.67-5.57-1.44-6,.66,4.14,2.85,6,3.33Z" transform="translate(0 0)"/><path id="path7100" class="cls-15" d="M71.41,45.5l4,1.66,2.66-1.66,2.67.67,3.66,1.66,3,1a3.09,3.09,0,0,1-2.33.33c-1.34-.33-4.33-.66-4.33-.66l-4.33,2-2.67-.67L71.41,48.5Z" transform="translate(0 0)"/><path id="path7102" class="cls-16" d="M53.26,55.66l4.66-.34,3.33.67,5-.17,4.66-.66-4-.5s-2.49.17-3.49.33-3.67-.66-4.5-.66h-2.5a8.32,8.32,0,0,0-3.16,1.33Z" transform="translate(0 0)"/><path id="path7104" class="cls-17" d="M55.42,38.17l1.67-1,.5-1.5,1.66.5.67.34v2H58.59l-1.83,1.33Z" transform="translate(0 0)"/><path id="path7106" class="cls-18" d="M70.75,54l4.66-.33,3.33.67,5-.17,4.67-.67-4-.5s-2.5.17-3.5.34-3.66-.67-4.49-.67h-2.5A8.32,8.32,0,0,0,70.74,54Z" transform="translate(0 0)"/><path id="path7108" class="cls-18" d="M65.75,40.5l4.66-.33,3.33.67,5-.17L83.4,40l-4-.5s-2.49.17-3.49.34-3.67-.67-4.5-.67h-2.5a8.32,8.32,0,0,0-3.16,1.33Z" transform="translate(0 0)"/><path id="path7110" class="cls-16" d="M51.43,61.82l4.66-.33,3.33.66,5-.16,4.66-.67-4-.5s-2.49.17-3.49.33-3.67-.66-4.5-.66h-2.5a8.32,8.32,0,0,0-3.16,1.33Z" transform="translate(0 0)"/><path id="path7112" class="cls-18" d="M12.46,55.32,17.12,55l3.33.67,5-.17,4.66-.66-4-.5s-2.5.16-3.5.33S19,54,18.12,54h-2.5a8.32,8.32,0,0,0-3.16,1.33Z" transform="translate(0 0)"/><path id="path7114" class="cls-19" d="M31.28,47.5l2.66-1.67,1.83.17,3-1h3.67l2.83-.33-1.5,2.16-2.67-.5L37.94,47l-2.83,1Z" transform="translate(0 0)"/></g></g></g></g><path id="path6386" class="cls-20" d="M64.86,86.27c-.2.13-.14.14-.65-.08L63.69,86a.29.29,0,0,0-.31,0l-.13.07.09.06.23.15.6.39,0,.08,0,.08-.11.07a.32.32,0,0,1-.18.07,2.39,2.39,0,0,1-.49-.14l-.33-.14c-.27-.1-.35-.14-.51-.21s-.08,0-.2,0-.17.09-.11.09l.11.07.25.17.15.11a1.88,1.88,0,0,1-.29.14l-.29.14a1.05,1.05,0,0,0,.26.22l.63-.1c.83-.15.82-.15.92-.08s.14.11.11.18-.12.11-.51.26l-.48.18s-.06,0-.06,0a1.29,1.29,0,0,0,.27.25l.16,0,.28,0,.49-.1a.33.33,0,0,1,.34.06s.06,0,0,.11-.08.16-.44.29l-.35.13a2.27,2.27,0,0,0,.21.2c.25.23.28.26.28.42v.12l-.12.07c-.2.11-.19.11-.46-.06a1.57,1.57,0,0,0-.25-.15s0,.18,0,.38v.37l-.06.07-.06.07-.11,0c-.14-.05-.18-.07-.19-.12s-.06-.34-.1-.58c-.08-.56-.07-.54-.14-.59a1,1,0,0,0-.19-.14s0,.2,0,.45c0,.67,0,.61-.07.7l-.06.08-.12,0c-.09,0-.12-.06-.15-.11a11.27,11.27,0,0,1-.23-1.19c-.06-.34-.06-.35-.15-.39L61.79,88l-.06,0v.23c0,.13,0,.25,0,.27s0,.17,0,.18-.16-.07-.41-.25l-.14-.09a.86.86,0,0,0-.05.26.21.21,0,0,0,0,.11.79.79,0,0,1,.12.13s.1.12.15.16a1,1,0,0,0,.14.15l.27.3c.33.36.33.36.3.55s0,.08-.1.11a.21.21,0,0,1-.13,0,2,2,0,0,1-.55-.39,3,3,0,0,0-.31-.25s0,0,0,.07,0,.11,0,.18,0,.11,0,.16a1.08,1.08,0,0,1,.14.15l.16.19a4.71,4.71,0,0,1,.42.48.42.42,0,0,1,0,.27s-.21.13-.21.11a0,0,0,0,0,0,0,3.15,3.15,0,0,1-.41-.34l-.19-.17v.07a2.51,2.51,0,0,0,0,.29l0,.23a.87.87,0,0,1-.28.19s-.1,0-.22-.14l-.09-.07v-.61l-.22.12-.26.14-.12.08c-.07,0-.08,0-.18,0s-.17-.07-.16-.19,0-.09.46-.51l.38-.33.1-.1v-.19a.54.54,0,0,0,0-.2l-.09.05-.17.1-.39.24-.28.18h-.1c-.11,0-.14,0-.15-.17s0-.09,0-.11l.12-.11.15-.14c.09-.07.86-.77.88-.8a.49.49,0,0,0,0-.19c0-.15,0-.15,0-.15a.34.34,0,0,0-.12,0c-.08,0-.41.2-.42.2a2.15,2.15,0,0,1,0-.58c0-.07,0-.07,0-.07a.48.48,0,0,0-.27.11s-.13.37-.26.77l-.24.73-.11,0-.12.06-.09-.09c-.09-.08-.09-.08-.08-.19s0-.18,0-.26l.09-.43a1.21,1.21,0,0,0,0-.28l-.32.11a1.38,1.38,0,0,0-.1.24c0,.12-.07.23-.08.24s-.06.18-.11.35-.15.41-.2.41l-.08,0s0,0-.14-.05-.09-.09-.09-.14,0-.29.08-.5a.64.64,0,0,0,0-.25l-.11,0-.12,0-.14.06a.43.43,0,0,1-.17.07.83.83,0,0,1-.3-.09l-.08,0,0-.14c0-.15,0-.21.12-.24l.11-.07.2-.12a.44.44,0,0,0,.14-.09s0,0-.05,0l-.5-.3a.34.34,0,0,1-.18-.21c0-.09,0-.09.13-.18s.08,0,.19,0l.14,0,.17.06.41.16a1.6,1.6,0,0,0,.32.1.85.85,0,0,0,.33-.16,3.29,3.29,0,0,0-.66-.38c-.28-.14-.31-.17-.34-.24s0-.13.09-.2.17-.08.44,0,.16,0,.17,0,.08,0,.06,0a0,0,0,0,0,0,0l.08,0,.44.16a1.66,1.66,0,0,0,.46.13c.13,0,.32-.18.23-.18l-.13-.09-.25-.18a.54.54,0,0,1-.15-.13s0,0,.07,0a5.81,5.81,0,0,0,.54-.22s0,0-.06-.11l-.16-.13c-.08,0-.12,0-1.13.17l-.4.08a.54.54,0,0,1-.16-.06c-.09-.06-.11-.07-.1-.11s.06-.14.16-.17l.15-.07.12,0s0,0,0,0,0,0,0,0a.4.4,0,0,0,.13,0l.3-.11a.65.65,0,0,0,.18-.09,2.17,2.17,0,0,0-.25-.23.18.18,0,0,0-.15,0,4.7,4.7,0,0,0-.64.16c-.4.11-.41.11-.5.07s-.15-.08-.12-.19,0-.11.47-.29l.3-.13s0-.07-.26-.24-.22-.2-.22-.42v-.16l.12,0c.26-.06.27-.06.46,0l.27.16,0,0v-.73l.09-.1c.1-.12.14-.13.23-.08s.11.11.14.31.13.76.16.89,0,.08.15.15l.16.1a6.59,6.59,0,0,0,0-.84l0-.12.1-.11c.12-.13.16-.14.28-.08s.1.1.14.36.06.37.13.76.08.49.1.52l.14.09c.13.08.14.08.13.06l0-.19c0-.09,0-.22,0-.29s0-.14,0-.15.12,0,.33.18.21.15.22.13a.37.37,0,0,0,0-.14c0-.11,0-.13,0-.18a1,1,0,0,1-.11-.15l-.21-.29c-.08-.11-.21-.29-.3-.4l-.19-.25a.27.27,0,0,1-.07-.28l0-.11h.13c.16,0,.18,0,.57.39a2.23,2.23,0,0,0,.32.28s0-.06,0-.12a.37.37,0,0,0,0-.32.13.13,0,0,1,0-.07l-.22-.41a3.21,3.21,0,0,1-.23-.44.32.32,0,0,1,0-.16c0-.09,0-.1.1-.11a.29.29,0,0,1,.25,0A5.38,5.38,0,0,1,61,83s.07.06.08,0a.89.89,0,0,0,.08-.21c.11-.32.1-.31.38-.4l.11,0,.1.11c.06.06.12.13.12.16a.55.55,0,0,1,0,.21c0,.09-.06.19-.06.22l0,.1s0,0,.05,0l.18-.05.14,0,.06,0,.19,0,.16,0,.06.08a.28.28,0,0,1,.06.31c0,.12-.05.13-.15.15l-.18.06a4.17,4.17,0,0,1-.7.24c-.05,0-.05,0-.06.16a.43.43,0,0,0,0,.17s0,0,.08,0l.6-.29c.18-.09.23-.1.29-.09a.17.17,0,0,1,.17.16c0,.12,0,.16-.14.26l-.53.37c-.46.33-.56.41-.59.49a.53.53,0,0,0,0,.18v.11l.07,0,.12,0,.21-.1.18-.08s0,.09,0,.18l0,.3,0,.21a.63.63,0,0,0,.29-.1.77.77,0,0,0,.12-.24.81.81,0,0,1,0-.14c.05-.1.19-.43.32-.78s.12-.3.23-.34.17,0,.24,0,.07.13,0,.46a2.46,2.46,0,0,0-.07.33s0,.13,0,.19,0,.19.08.14l.13-.05s.1-.16.21-.48l.13-.33a1.13,1.13,0,0,0,.06-.16.23.23,0,0,1,.14-.16c.14-.08.2-.07.28,0s.08.07,0,.49-.08.35,0,.34l.23-.08.25-.07a.55.55,0,0,1,.27.13l.06,0,0,.12c0,.12-.08.21-.13.22l-.11,0-.23.12a.54.54,0,0,0-.14.08,2.7,2.7,0,0,0,.32.21c.32.21.34.23.38.39s0,.06-.06.09Z" transform="translate(0 0)"/><path id="path6388" class="cls-20" d="M75.37,84c0-.16,0-.12.23-.37l.28-.26c.06,0,.07-.08.07-.19v-.09l-.06,0-.15.1-.4.26h-.12v-.08a.18.18,0,0,1,0-.13,1,1,0,0,1,.22-.26l.17-.17a2.74,2.74,0,0,1,.27-.25s0,0,0-.13,0-.12,0-.08l-.07,0-.17.1a.3.3,0,0,1-.11.06v-.22a.82.82,0,0,0,0-.21.75.75,0,0,0-.2.1s0,.19-.11.41c-.14.54-.14.53-.2.58s-.11.06-.14,0,0-.1,0-.38,0-.3,0-.33,0-.05,0-.05a.85.85,0,0,0-.22.09.39.39,0,0,0,0,.11l0,.18a2.61,2.61,0,0,0-.08.33.25.25,0,0,1-.13.19s0,0-.07,0-.08-.09-.06-.35l0-.24a.62.62,0,0,0-.18.07c-.2.09-.23.09-.32,0l-.08,0v-.09c0-.15,0-.15.16-.26l.15-.11a1.32,1.32,0,0,0-.22-.12l-.21-.11,0,0,0-.06,0,0c.07-.07.09-.09.12-.09l.37.1c.37.11.35.11.4.08l.13-.08-.26-.12c-.41-.18-.37-.16-.4-.23l0-.06,0-.06c0-.05.07-.06.11-.06a6.32,6.32,0,0,1,.77.18c.22.06.23.06.28,0a.28.28,0,0,1,.09-.06l0,0-.13-.07-.16-.08c-.07,0-.1,0-.1-.07s.08-.08.26-.18l.09-.06a.42.42,0,0,0-.14-.1A.09.09,0,0,0,75,81l-.11,0-.14.05-.13,0-.25.08c-.31.11-.31.11-.41,0s0,0,0-.09a.17.17,0,0,1,0-.09,1.38,1.38,0,0,1,.39-.22c.12-.07.23-.12.23-.13l0,0-.11,0c-.05,0-.07,0-.1,0l-.13,0-.16,0-.4.12a.24.24,0,0,1-.16-.09s0-.16,0-.15h0a1.33,1.33,0,0,1,.31-.16l.15-.07,0,0-.15-.11-.13-.09a.51.51,0,0,1,0-.22s.05,0,.15-.09l.06,0,.18.09.18.09a1.6,1.6,0,0,0,0-.17,1.67,1.67,0,0,1,0-.19s0-.07,0-.1,0-.06,0-.12.08-.08.16,0,0,0,.17.42c0,.13.08.27.1.32l0,.09.11.06.12,0a.23.23,0,0,0,0-.07s0-.09,0-.13,0-.18,0-.3l0-.22,0-.06c0-.06.06-.07.14,0s0,0,0,0a1,1,0,0,1,0,.11.83.83,0,0,0,0,.12c0,.08.22.73.23.76l.1.07c.09,0,.09,0,.1,0a.17.17,0,0,0,0-.08c0-.06,0-.3,0-.31a1.64,1.64,0,0,1,.33.18s.05,0,.06,0a.32.32,0,0,0,0-.19s-.19-.18-.39-.37l-.37-.34v-.18l.07,0c.08,0,.08,0,.14,0a.94.94,0,0,1,.14.1l.23.16.16.11a1.4,1.4,0,0,0,0-.23.74.74,0,0,0-.11-.12l-.13-.12L75.48,79c-.16-.14-.21-.2-.19-.23v-.06s0,0,.07-.07.08,0,.11,0l.27.19.14.09s0,0,0-.08,0-.08,0-.08v-.1a.2.2,0,0,1,0-.12.46.46,0,0,1,.13-.16l0,0,.08,0c.08,0,.11.09.11.15a.31.31,0,0,0,0,.09.49.49,0,0,1,0,.15.63.63,0,0,0,0,.11l0,0,.31-.23a.31.31,0,0,1,.18,0c.07,0,.07,0,.08.13a.15.15,0,0,1,0,.13l-.06.07s0,0-.08.08-.13.14-.21.21l-.15.17a.48.48,0,0,0,0,.24,2.42,2.42,0,0,0,.4-.3c.17-.13.19-.14.24-.14s.09,0,.1.11,0,.13-.13.27-.07.08-.06.1,0,0,0,0,0,0,0,0l0,0-.22.23a.87.87,0,0,0-.2.24c0,.09,0,.25,0,.19l.09,0,.18-.11c.06,0,.11-.06.11,0s0,0,0,.06,0,.36,0,.39,0,0,.08,0l.12-.06s.06-.07.21-.74c0-.12.06-.24.06-.26a.24.24,0,0,1,.09-.08s.07,0,.08,0a.14.14,0,0,1,.07.14.49.49,0,0,0,0,.11v.08a0,0,0,0,0,0,0s0,0,0,0,0,0,0,.09,0,.14,0,.21v.13a1,1,0,0,0,.21-.08.16.16,0,0,0,.06-.09c0-.09,0-.19.08-.42s0-.28.1-.33.09-.07.14,0,.06,0,.05.37c0,.11,0,.21,0,.21s0,0,.22-.09.18-.08.3,0l.1,0,0,.08c0,.17,0,.18-.15.27a.63.63,0,0,1-.17.12h0a1.24,1.24,0,0,0,.22.11l.22.09,0,.08c0,.09,0,.12,0,.16s-.1,0-.23,0l-.58-.15s-.06,0-.13.05-.1.06-.1.07a4,4,0,0,0,.51.21l.07,0,0,.09c0,.1,0,.13,0,.19s-.08,0-.25,0l-.49-.14c-.32-.09-.31-.08-.34-.08l-.08.06c-.09.06-.09.06-.08.07l.11.06.16.1.08,0s0,.07-.19.15-.14.09-.14.1l.08.05c.06,0,.07,0,.12,0l.11,0,.23,0,.32-.07.21,0a.15.15,0,0,1,.18,0l.06,0,0,.08c0,.1,0,.11-.39.24a1.07,1.07,0,0,0-.25.12l0,.06a.25.25,0,0,0,.2.07h.06a1.31,1.31,0,0,0,.3,0l.33,0a.24.24,0,0,1,.09.06s0,.06,0,.1a.17.17,0,0,1-.1.13l-.39.11s-.06,0,0,0a.66.66,0,0,0,.1.11c.16.16.16.15.14.34v.07l-.1,0-.13,0-.11-.09-.12-.1,0,0s0,0,0,0,0,.09,0,.13a.81.81,0,0,0,0,.09v0a.86.86,0,0,0,0,.13l0,.11-.07,0a.19.19,0,0,1-.2,0c-.06-.06-.06-.07,0-.14a.37.37,0,0,0,0-.12,3.09,3.09,0,0,1,0-.49s0,0-.08-.08l-.1,0s0,0,0,.06,0,.27,0,.44,0,.17,0,.2-.08.08-.15.06-.09,0-.11-.16-.05-.24-.08-.42c-.07-.37-.09-.45-.13-.49l-.1-.06-.07,0v.05a.11.11,0,0,1,0,.08v.29s-.06,0-.11,0l-.16-.11-.13-.07a1.12,1.12,0,0,0,0,.2.41.41,0,0,0,.12.14l.06.07.38.41c.15.15.15.15.14.23s0,.11-.08.14-.1,0-.27-.13l-.18-.14-.1-.07c-.1-.09-.1-.09-.11,0s0,.08,0,.09.07.1.22.26l.16.17.08.08a.15.15,0,0,1,.06.13c0,.1,0,.14-.09.16s-.06,0-.28-.14-.19-.15-.2-.12,0,.09,0,.17a.47.47,0,0,1,0,.16.41.41,0,0,1-.15.14l-.05,0-.06,0c-.07-.05-.11-.11-.1-.14s0,0,0-.08a1,1,0,0,0,0-.17v-.11l-.22.13c-.21.14-.23.15-.33.13s0,0,0-.06Z" transform="translate(0 0)"/><path id="path6390" class="cls-20" d="M73.13,69.52c0,.1,0,.08-.27.14l-.26,0s-.07,0-.1.09l0,0H73l0,0,0,0,0,.05A.16.16,0,0,1,73,70a.63.63,0,0,1-.22.07l-.16,0-.24,0s0,0-.07.06,0,.08,0,.07h.28l-.07.13c0,.07-.08.13-.07.13l.15,0,.21-.21c.27-.27.27-.27.33-.27s.08,0,.08,0,0,.07-.12.23l-.13.19,0,0,.17,0,0-.06a.76.76,0,0,0,.09-.09,1.25,1.25,0,0,0,.16-.17.16.16,0,0,1,.15-.06s0,0,0,0,0,.08-.09.22l-.1.14s.06,0,.13,0,.17,0,.22.09l0,0,0,.06c0,.09,0,.09-.19.1h-.13l.09.14.09.14v.09h0c-.07,0-.09,0-.1,0a1.61,1.61,0,0,1-.19-.19C73.05,71,73.06,71,73,71h-.1s0,.08.11.17c.18.25.16.23.16.28v0h-.05s-.06,0-.08,0a3.09,3.09,0,0,1-.4-.38c-.11-.11-.12-.12-.16-.11h-.11l.06.09s.06.1.07.1,0,.07,0,.08a.48.48,0,0,1-.22,0s-.07,0-.07,0l0,.11,0,0,.08,0,.1,0,.09,0,.17,0c.22.05.22.05.26.13s0,0,0,.07,0,0,0,0H72.5a0,0,0,0,0,0,0,.21.21,0,0,1,0,.07.07.07,0,0,0,.06.05l.09,0,.11,0,.28.07a.2.2,0,0,1,.06.11s0,.1-.05.09h0a1,1,0,0,1-.25,0h-.11v0a1.3,1.3,0,0,1,.06.12.43.43,0,0,0,0,.1.42.42,0,0,1-.06.14h-.17l-.08-.11-.07-.12a.81.81,0,0,0,0,.1.61.61,0,0,0-.06.13.33.33,0,0,0,0,.06s0,0-.06.06-.08,0-.11,0,0,0,0-.32l.06-.22V72l0-.08a.3.3,0,0,0,0-.07l0,0a.3.3,0,0,1,0,.08L72,72.2l-.06.15,0,0c-.05,0-.06,0-.1,0s0,0,0,0a.56.56,0,0,0,0-.07.37.37,0,0,0,0-.09s.13-.52.13-.54a.27.27,0,0,0,0-.07c0-.06,0-.06,0,0s0,0,0,0a1.39,1.39,0,0,1-.11.19.93.93,0,0,1-.14-.23s0,0,0,0-.08.09-.07.11,0,.17.1.36l.1.33,0,0,0,.06h-.06s0,0-.08-.06a.93.93,0,0,0-.05-.1L71.38,72l0-.11s-.09.11-.09.12,0,.06,0,.12a.45.45,0,0,1,0,.11s0,.08,0,.16,0,.19,0,.21l0,0s0,0-.07,0,0,0-.07,0a1.79,1.79,0,0,1-.09-.21.69.69,0,0,0-.05-.1l0,0s0,0,0,0l0,.06a.21.21,0,0,1,0,.07.47.47,0,0,1-.14,0h0l0,0c0-.06,0-.1,0-.13a.11.11,0,0,1,0,0l0-.1s0-.07,0-.07,0,0,0,0l-.26,0a.21.21,0,0,1-.12,0s0,0,0-.11a.11.11,0,0,1,.07-.06l.06,0,.08,0,.19,0,.15,0s.09-.14.08-.15l-.35,0c-.14,0-.15,0-.18,0s0,0,0-.1,0-.07.16-.11.07,0,.07,0,0,0,0,0,0,0,0,0h0l.21-.06.2-.07s.07-.15,0-.13H71s-.09,0-.09,0a.1.1,0,0,1,0,0l.15-.22s0,0,0,0a.33.33,0,0,0-.1,0s0,0-.38.36l-.13.13-.07,0h-.07a.11.11,0,0,1,0-.11l0-.07,0,0a0,0,0,0,0,0,0h0l0,0a1.17,1.17,0,0,1,.08-.13s0-.07,0-.07a.44.44,0,0,0-.15,0s0,0-.06,0a2,2,0,0,0-.2.23c-.12.15-.13.15-.17.16s-.08,0-.1,0,0,0,.11-.23a.6.6,0,0,1,.08-.13s0,0-.16,0-.14,0-.19-.1l0-.06,0,0c.08-.1.09-.1.19-.11s.12,0,.14,0h0L70,70.46l-.1-.14v-.06c0-.07,0-.08.07-.09s.07,0,.14.08l.29.3h.18a2.12,2.12,0,0,0-.23-.31l0,0v-.07c0-.08,0-.1.09-.1s.06,0,.14.09l.25.26c.16.16.15.16.17.16h.14a.54.54,0,0,0,0-.08L71,70.34a.33.33,0,0,1,0-.06s0,0,.17,0h.12a.17.17,0,0,0,0-.07.07.07,0,0,0-.06,0l-.08,0-.15,0L70.69,70l-.13,0c-.06,0-.08,0-.1-.09l0,0,0,0c.05,0,.07,0,.31,0l.2,0a.21.21,0,0,0,0-.06c0-.06,0-.1-.09-.11l0,0a1.27,1.27,0,0,0-.18-.09l-.21-.11a.24.24,0,0,1,0-.07s0,0,0-.07a.17.17,0,0,1,.11,0l.27.07h0a.43.43,0,0,0,0-.1c0-.15,0-.15,0-.25l0,0H71l.09,0a.26.26,0,0,1,0,.09l0,.1,0,.05s0,0,0,0l.06-.07s0,0,0,0l0,0s0,0,.06-.07l.05,0h0c.06,0,.09,0,.1.1s0,.07,0,.1a.22.22,0,0,0-.06.07,2.37,2.37,0,0,1-.2.27s0,0,0,.08l0,.06s0,0,0,0l.15-.27c0-.08.06-.1.08-.11s.08,0,.11,0,0,.06,0,.13l-.1.28c-.09.25-.1.3-.09.34a.13.13,0,0,0,0,.07l0,0v0s0,0,0-.05l.06-.1s0-.07,0-.07,0,0,.05.06l.06.12s0,.09.05.09A.52.52,0,0,0,72,70a.59.59,0,0,0,0-.13l0-.06a2.9,2.9,0,0,0-.08-.38c0-.14,0-.14,0-.19s0-.06.09,0,.07,0,.12.18l.06.14,0,.08c0,.09,0,.09.07,0l0,0a1.32,1.32,0,0,0,0-.24c0-.07,0-.14,0-.15s0,0,0-.08a.11.11,0,0,1,0-.1c0-.06,0-.08.11-.07s0,0,.12.19.06.16.07.14l.07-.09a.38.38,0,0,1,.08-.09.23.23,0,0,1,.13,0h0l0,0a.12.12,0,0,1,0,.12l0,0-.06.11a.26.26,0,0,0,0,.07h.17c.18,0,.19,0,.25,0s0,0,0,0Z" transform="translate(0 0)"/><path id="path6394" class="cls-20" d="M67.23,101c-.13-.2-.14-.13,0-.64.09-.25.17-.49.19-.53s0-.15,0-.3l-.07-.12,0,.09-.13.23c-.07.14-.32.59-.34.62l-.08.05-.06,0-.08-.09a.3.3,0,0,1-.08-.18,1.78,1.78,0,0,1,.1-.48l.11-.34c.08-.27.11-.34.17-.51s0-.08,0-.2-.1-.15-.1-.09a.3.3,0,0,1-.06.11l-.14.25a.74.74,0,0,1-.1.16,1.56,1.56,0,0,1-.16-.28,1.33,1.33,0,0,0-.15-.27,1,1,0,0,0-.19.27s.06.29.14.61c.2.8.19.78.14.89s-.1.15-.17.12-.12-.11-.28-.48l-.2-.46s0-.06,0-.06a1.58,1.58,0,0,0-.22.29s0,.08,0,.15l.07.27c0,.18.08.32.13.48a.34.34,0,0,1,0,.33s-.05.06-.1,0-.16-.06-.31-.41l-.15-.33a1.64,1.64,0,0,0-.18.22c-.2.26-.23.29-.38.3H64.3l-.07-.11c-.12-.19-.12-.18,0-.46a2,2,0,0,0,.12-.25H64l-.35,0-.08-.06-.07-.05,0-.1c0-.14.06-.18.1-.2l.55-.13c.54-.12.51-.11.56-.18a1.3,1.3,0,0,0,.12-.19l-.43,0c-.65,0-.58.06-.67,0L63.69,99l0-.11c0-.09,0-.12.09-.15a9.86,9.86,0,0,1,1.12-.31c.32-.08.34-.08.37-.17a.64.64,0,0,1,.08-.14l0-.06H65.2l-.27,0c-.09,0-.16,0-.17,0A1.48,1.48,0,0,1,65,97.6l.08-.14a.64.64,0,0,0-.25,0,.14.14,0,0,0-.1,0,1.33,1.33,0,0,1-.12.12l-.15.15-.13.15-.26.28c-.33.35-.33.36-.52.34s-.07,0-.11-.09a.35.35,0,0,1,0-.13,2.33,2.33,0,0,1,.35-.56c.11-.17.21-.31.21-.32s0,0-.07,0H63.7c-.09,0-.11,0-.15,0a.9.9,0,0,1-.14.14l-.16.17a4.31,4.31,0,0,1-.44.44.39.39,0,0,1-.26,0s-.14-.2-.12-.2l0,0a2.26,2.26,0,0,1,.29-.43l.16-.19h-.08l-.27,0-.23,0a.57.57,0,0,1-.19-.26s0-.09.11-.22l.06-.09h.29l.29,0a1.79,1.79,0,0,0-.12-.2l-.16-.25a.38.38,0,0,0-.08-.11c-.05-.07-.05-.08,0-.18s.05-.17.18-.17.08,0,.51.42c.14.14.29.3.35.35l.1.09h.19a.44.44,0,0,0,.18,0,.19.19,0,0,0-.05-.08l-.11-.16c0-.06-.15-.22-.26-.36l-.19-.26v-.11c0-.11,0-.14.15-.15s.09,0,.11,0l.11.12.15.14c.07.08.79.78.83.8l.17,0c.15,0,.15,0,.15,0a.25.25,0,0,0,0-.11c-.05-.08-.22-.39-.22-.4a2.2,2.2,0,0,1,.56,0c.07,0,.07,0,.07,0a.49.49,0,0,0-.13-.26l-.75-.2-.72-.18-.06-.11-.06-.11.08-.09c.07-.09.07-.09.18-.09l.25,0,.41.05a1.52,1.52,0,0,0,.28,0l-.13-.31a1.21,1.21,0,0,0-.24-.08l-.24-.06L64,94.53c-.29-.07-.4-.11-.41-.16a.13.13,0,0,0,0-.07s0-.06,0-.15.08-.09.13-.09a2.67,2.67,0,0,1,.48,0,.55.55,0,0,0,.24,0s0-.05,0-.11l0-.11-.07-.13a.64.64,0,0,1-.07-.16.72.72,0,0,1,.06-.3l0-.08h.13c.15,0,.21,0,.24.1l.08.11a1.06,1.06,0,0,1,.13.18.48.48,0,0,0,.09.13s0,0,0-.05.22-.46.25-.51a.39.39,0,0,1,.19-.19c.09,0,.09,0,.18.11a.21.21,0,0,1,0,.19.5.5,0,0,1,0,.14.72.72,0,0,0,0,.17c0,.08-.08.26-.12.41a2.16,2.16,0,0,0-.09.32,1,1,0,0,0,.19.31,3.43,3.43,0,0,0,.31-.67c.12-.28.14-.31.21-.35s.12,0,.2.08.09.16,0,.43,0,.15,0,.17,0,.06,0,.06,0,0,0,0a.19.19,0,0,1,0,.07s-.07.23-.13.45a2,2,0,0,0-.09.45c0,.13.2.3.19.22a.57.57,0,0,1,.07-.13,2.14,2.14,0,0,0,.16-.27.67.67,0,0,1,.11-.15s0,0,0,.07l.26.51s0,0,.1-.07A.57.57,0,0,0,67,95.4c0-.09,0-.13-.24-1.09-.05-.18-.1-.36-.1-.39a.47.47,0,0,1,0-.16c0-.09.06-.11.09-.1a.19.19,0,0,1,.18.14l.08.15,0,.1s0,.06,0,.06,0,0,0,0,0,.07,0,.13l.13.28.09.17a1.12,1.12,0,0,0,.21-.26.16.16,0,0,0,0-.14,6.36,6.36,0,0,0-.19-.62c-.14-.39-.14-.39-.11-.49s.07-.15.18-.12.11,0,.31.44a1.61,1.61,0,0,0,.15.28s.06,0,.21-.27.17-.23.38-.24h.15l0,.12c.08.25.08.26,0,.45a1.21,1.21,0,0,1-.13.28,0,0,0,0,0,0,0l.35,0,.35,0,.1.08c.11.09.13.13.09.22s-.1.12-.29.16l-.85.21s-.07.06-.13.16l-.08.17s.57,0,.8-.09l.12,0,.11.09c.13.11.15.15.09.27s-.08.1-.33.16l-.72.17c-.48.12-.47.12-.49.14a.64.64,0,0,0-.08.14c-.07.14-.07.14,0,.14h.61s0,.12-.15.33-.13.22-.11.22l.14,0c.1,0,.12,0,.17,0a.5.5,0,0,1,.13-.11l.26-.23L69,96l.23-.21a.23.23,0,0,1,.26-.08l.11,0v.12c0,.16,0,.18-.33.58a2.48,2.48,0,0,0-.25.34l.12,0a.35.35,0,0,0,.3-.06l.07,0,.38-.24a2.94,2.94,0,0,1,.41-.26.27.27,0,0,1,.15,0c.09,0,.1,0,.11.1a.25.25,0,0,1,0,.24s-.21.22-.42.42c0,0-.06.06,0,.07l.21.07c.32.08.31.08.41.34l0,.11-.1.11a.58.58,0,0,1-.15.12.55.55,0,0,1-.2,0l-.22,0-.1,0s0,0,0,0a1.07,1.07,0,0,1,.06.17.36.36,0,0,0,0,.13.21.21,0,0,0,0,.06s0,.11,0,.19l0,.15-.07.07a.29.29,0,0,1-.29.08c-.12,0-.14,0-.16-.14a.61.61,0,0,0-.07-.17,4.45,4.45,0,0,1-.27-.67c0-.05,0-.05-.16-.05H69a.44.44,0,0,0,0,.08l.33.57c.09.17.11.21.1.27s0,.16-.14.18-.16,0-.26-.12l-.39-.49c-.35-.43-.43-.52-.51-.54a.51.51,0,0,0-.18,0h-.1l0,.07a.3.3,0,0,1,.06.11,1.52,1.52,0,0,0,.11.2,1,1,0,0,1,.09.17s-.08,0-.17,0l-.29,0a.85.85,0,0,0-.21,0,.77.77,0,0,0,.12.27.56.56,0,0,0,.24.1l.14,0c.1,0,.42.15.76.25s.31.1.35.21,0,.16,0,.23-.13.08-.45,0l-.32,0-.18,0c-.19,0-.19,0-.14.09l.07.13a1.6,1.6,0,0,0,.47.17l.32.1.16.05a.23.23,0,0,1,.17.13c.08.12.08.19,0,.27s-.06.08-.46,0-.35,0-.33,0a1.34,1.34,0,0,0,.09.23,1.59,1.59,0,0,1,.08.23.53.53,0,0,1-.1.27l-.05.07-.12,0c-.11,0-.21-.07-.21-.11a.67.67,0,0,0-.06-.11l-.13-.21a.44.44,0,0,0-.09-.14s-.09.15-.18.33-.2.35-.35.4,0,0-.09,0Z" transform="translate(0 0)"/><path id="path6396" class="cls-20" d="M71.83,91.92c.12-.14.07-.13.48-.09l.43,0c.08,0,.12,0,.21-.09l.08-.07-.08,0-.19-.05-.53-.14,0,0,0,0,.06-.07a.24.24,0,0,1,.11-.1,1.49,1.49,0,0,1,.38,0H73l.41,0c.07,0,.07,0,.14-.06s.1-.1.06-.09l-.1,0L73.26,91l-.14,0,.18-.17a1.47,1.47,0,0,0,.17-.16.82.82,0,0,0-.24-.1l-.42.23c-.55.3-.54.29-.64.27s-.12,0-.11-.1.06-.11.3-.31l.3-.24a.05.05,0,0,0,0,0,.71.71,0,0,0-.25-.11l-.11,0-.18.11-.33.19a.23.23,0,0,1-.25,0s-.06,0,0-.07,0-.13.24-.31l.21-.17a.62.62,0,0,0-.19-.09c-.23-.1-.26-.13-.3-.24l0-.08.07-.07c.12-.13.12-.13.35-.07a.65.65,0,0,0,.2,0A1.65,1.65,0,0,0,72,89.3L71.92,89,72,89l0-.06h.08c.11,0,.15,0,.17,0l.2.39c.19.38.18.36.24.39l.16,0s0-.14-.09-.32c-.17-.47-.16-.43-.12-.51l0-.07h.09a.17.17,0,0,1,.13,0,7.84,7.84,0,0,1,.44.79c.12.22.13.23.2.24l.11,0,.06,0,0-.17c0-.09-.05-.18-.06-.2s0-.12,0-.13.13,0,.35.08l.12,0a.75.75,0,0,0,0-.2.12.12,0,0,0-.06-.06l-.11-.07-.15-.08-.13-.07L73.28,89c-.32-.17-.32-.18-.35-.32s0-.06,0-.1l.09,0a1.58,1.58,0,0,1,.48.15,1.45,1.45,0,0,0,.28.09s0,0,0-.05a.83.83,0,0,1,0-.12c0-.08,0-.09-.06-.11l-.13-.08-.16-.09L73,88.07a.29.29,0,0,1,0-.2s.11-.14.12-.13,0,0,0,0l.37.14.18.08v-.06s0-.12,0-.21,0-.16,0-.18a.7.7,0,0,1,.16-.19s.07,0,.19,0l.07,0,.07.22a1,1,0,0,0,.07.21l.13-.13.15-.16.07-.09s0,0,.12-.06.13,0,.16.1,0,.06-.22.47c-.07.13-.16.27-.18.32l0,.1,0,.14c0,.08,0,.14,0,.13s0,0,0-.05l.1-.11.22-.26.15-.2H75c.09,0,.11,0,.14.08a.1.1,0,0,1,0,.09l-.07.11-.07.13c0,.07-.43.75-.44.78a.53.53,0,0,0,0,.14c0,.1,0,.11.06.1a.32.32,0,0,0,.07-.06l.25-.24a1.27,1.27,0,0,1,.11.42c0,.05,0,.05.05,0a.41.41,0,0,0,.17-.14s0-.3,0-.61v-.58l.07-.06.07-.07.08,0c.08,0,.08,0,.1.12a1.08,1.08,0,0,1,0,.19l0,.33a1.21,1.21,0,0,0,0,.21,2,2,0,0,0,.2-.16.72.72,0,0,0,0-.19,1.88,1.88,0,0,0,0-.19s0-.14,0-.27,0-.33.05-.34l0,0s0,0,.11,0,.09.05.1.08a2.73,2.73,0,0,1,0,.37l0,.19.08,0a.15.15,0,0,1,.07-.06l.08-.08.11-.09a.85.85,0,0,1,.23,0H77l0,.1c0,.11,0,.16,0,.2l-.07.08-.11.13-.08.09,0,0,.42.09a.31.31,0,0,1,.18.11c0,.06,0,.06-.05.16s0,0-.13.06h-.82s-.21.17-.2.19a2.09,2.09,0,0,0,.56.11c.23,0,.26,0,.29.09s.06.09,0,.17-.11.09-.32.1-.12,0-.12,0,0,0,0,0a0,0,0,0,0,0,0h-.41a1.41,1.41,0,0,0-.36,0c-.08.06-.18.21-.12.19s.06,0,.11,0l.23.07a.36.36,0,0,1,.13,0s0,0,0,0l-.33.29s0,0,.07.07l.14,0c.07,0,.1,0,.76-.39l.27-.15a.28.28,0,0,1,.13,0c.07,0,.09,0,.09.06a.16.16,0,0,1-.07.16.36.36,0,0,0-.09.08s-.06,0-.07.06l0,0s0,0,0,0l-.08.06-.18.15c-.07,0-.12.1-.11.1a1.24,1.24,0,0,0,.23.11.12.12,0,0,0,.11,0,2.58,2.58,0,0,0,.41-.26c.27-.17.27-.17.35-.17s.12,0,.12.11,0,.09-.26.32l-.19.16s0,0,.24.11.21.09.26.24l0,.12-.07,0c-.18.11-.19.11-.34.09l-.23,0h0l.09.26.09.26,0,.09c0,.1-.07.12-.14.11s-.11,0-.18-.19l-.32-.6s0,0-.14-.06l-.14,0a5,5,0,0,0,.22.59l0,.08,0,.11c0,.12-.08.14-.18.12s-.09-.05-.18-.22l-.27-.51c-.18-.34-.17-.33-.19-.34l-.12,0c-.11,0-.12,0-.11,0s0,.07,0,.14,0,.16,0,.22l0,.1s-.09,0-.27,0-.19,0-.19,0a.59.59,0,0,0,0,.11c0,.08,0,.09.07.12l.11.08.21.15.31.22.2.13a.2.2,0,0,1,.11.18v.09l-.09,0c-.12,0-.14,0-.5-.13a1.65,1.65,0,0,0-.29-.13.22.22,0,0,0,0,.1.29.29,0,0,0,.1.22s0,0,0,0l.25.23a1.56,1.56,0,0,1,.27.27s0,.06,0,.11,0,.08,0,.1a.17.17,0,0,1-.18,0l-.39-.23s-.06,0-.07,0a1.6,1.6,0,0,1,0,.17c0,.25,0,.24-.17.37l-.07.05-.1-.05a.33.33,0,0,1-.12-.09.47.47,0,0,1,0-.16c0-.07,0-.15,0-.17v-.08s0,0,0,0l-.12.08-.09.06s0,0,0,0l-.13.08-.1.06-.07,0a.21.21,0,0,1-.11-.2c0-.09,0-.11.07-.14l.11-.09a2.67,2.67,0,0,1,.45-.33s0,0,0-.13,0-.12,0-.12a.11.11,0,0,0-.05,0l-.36.35c-.11.1-.14.12-.18.13a.14.14,0,0,1-.16-.07c0-.08,0-.12,0-.22l.29-.39c.25-.34.3-.42.3-.49a.35.35,0,0,0,0-.13l0-.07,0,0-.07.07-.13.11-.11.1s0,0-.05-.12,0-.14,0-.22,0-.15,0-.16a.73.73,0,0,0-.18.14.46.46,0,0,0,0,.2.59.59,0,0,1,0,.11c0,.09,0,.35,0,.63s0,.24-.08.29-.11.07-.18,0-.08-.07-.1-.33a2.1,2.1,0,0,0,0-.25s0-.09,0-.14,0-.15-.09-.08l-.09.07a1.62,1.62,0,0,0,0,.38c0,.13,0,.25,0,.27a.78.78,0,0,1,0,.13.18.18,0,0,1,0,.15c-.09.08-.13.09-.21.05s-.07,0-.1-.35,0-.27,0-.25a.56.56,0,0,0-.15.11.69.69,0,0,1-.16.1.35.35,0,0,1-.22,0l-.06,0v-.1c0-.09,0-.17,0-.18s0,0,.06-.06a1.84,1.84,0,0,1,.14-.14l.08-.09a1.6,1.6,0,0,0-.27-.08c-.28-.07-.3-.08-.37-.18s0,0,0-.08Z" transform="translate(0 0)"/><path id="path6398" class="cls-20" d="M84.44,70.2c.09.07.08,0,.09.29v.27c0,.06,0,.08.07.13l.05,0v-.05a.74.74,0,0,1,0-.12c0-.07,0-.32,0-.34l0,0,0,0,0,0,.06.07a1.07,1.07,0,0,1,0,.23v.17c0,.14,0,.18,0,.26s0,0,0,.08.07,0,.06,0,0,0,0-.06,0-.09,0-.14a.78.78,0,0,1,0-.09l.12.1.11.1a.44.44,0,0,0,.05-.15l-.17-.25c-.22-.33-.21-.32-.21-.38s0-.08.06-.08.07,0,.21.17l.16.17,0,0a.48.48,0,0,0,0-.17l0-.06-.07-.11-.14-.19a.2.2,0,0,1,0-.16s0,0,0,0,.08,0,.21.13a1.14,1.14,0,0,0,.12.12l0-.12c0-.15.06-.17.12-.2l.05,0,0,0c.09.07.09.06.07.21l0,.13.17-.06.15-.07,0,0h0v.05c0,.07,0,.09,0,.1l-.23.15c-.22.15-.21.14-.22.18l0,.1L86,70.6c.28-.13.25-.12.3-.11l0,0v0a.12.12,0,0,1,0,.09,4.09,4.09,0,0,1-.46.32c-.13.09-.13.1-.13.14a.24.24,0,0,1,0,.08v0l.1,0,.11-.05s.07,0,.08,0a.79.79,0,0,1,0,.23l0,.07a.19.19,0,0,0,.12,0s0,0,0,0a.41.41,0,0,1,0-.08l0-.09,0-.09.07-.17c.09-.21.09-.22.17-.24s0,0,.07,0a.09.09,0,0,1,0,0,.91.91,0,0,1-.06.31l0,.18s0,0,0,0l.08,0s0,0,.06,0a.23.23,0,0,1,0-.09l0-.11c0-.1.11-.25.13-.27s.09,0,.12,0l.08.07s0,0,0,0A1.21,1.21,0,0,1,87,71l0,.12h0l.13,0,.1,0s.12.06.13.08,0,0,0,.12v0l-.13,0-.13.06.09.07.11.09.06,0s0,0,0,.08,0,.08,0,.1,0,0-.3-.1l-.21-.1-.06,0-.08,0s-.09,0-.08,0l0,0,.08,0,.17.12.13.08v0S87,72,87,72s0,0,0,0l-.07,0-.09,0-.5-.22a.2.2,0,0,0-.09,0c-.06,0-.06,0-.06,0l0,0,.17.14a1,1,0,0,1-.25.1s0,0,0,0a.19.19,0,0,0,.1.1l.37,0,.35,0,0,0,0,0,0,.06s0,0-.07.07l-.11,0-.2,0-.13,0,.11.11a.22.22,0,0,0,.12,0h.12l.16,0c.15,0,.21,0,.22,0l0,0s0,0,0,.07,0,.06,0,.07l-.23.06-.11,0,0,0,0,0s0,0,0,.05A.33.33,0,0,1,87,73a.61.61,0,0,1,0,.15v0l-.06,0c-.06,0-.1,0-.12,0l-.06,0-.08-.07-.07,0a0,0,0,0,1,0,0s0,.24,0,.27a.23.23,0,0,1-.06.12s0,0-.1,0a.16.16,0,0,1,0-.08s0-.06,0-.07a.38.38,0,0,1,0-.08s0-.13,0-.21a1.32,1.32,0,0,0,0-.16s-.12-.11-.13-.1a1.29,1.29,0,0,0,0,.35c0,.15,0,.16,0,.19s0,0-.1,0S86,73.23,86,73.1,86,73,86,73s0,0,0,0,0,0,0,0v0l0-.22a.76.76,0,0,0,0-.22s-.14-.1-.12-.07a.56.56,0,0,0,0,.07.66.66,0,0,0,0,.15s0,.09,0,.09a.07.07,0,0,1,0,0l-.2-.18s0,0,0,0a.93.93,0,0,0,0,.1s0,.06.29.44l.11.16a.21.21,0,0,1,0,.08c0,.05,0,.06,0,.06a.11.11,0,0,1-.11,0s0,0,0,0l0,0s0,0,0,0h0l0-.05-.11-.1a.15.15,0,0,0-.07-.06s0,.1-.05.15a.1.1,0,0,0,0,.07,2.21,2.21,0,0,0,.19.24c.12.15.12.15.12.2s0,.08-.06.09,0,0-.21-.15l-.11-.1s0,0,0,.15,0,.14-.13.18l-.07,0,0,0c-.08-.1-.08-.11-.08-.2a.52.52,0,0,1,0-.15v0l-.15.07-.15.07-.06,0c-.07,0-.08,0-.08-.08s0-.07.1-.12l.35-.24s0,0,0-.09A.81.81,0,0,0,85,73a2.56,2.56,0,0,0-.35.17l0,0-.07,0c-.07,0-.09,0-.08-.1s0-.07.12-.13l.3-.2c.19-.13.19-.13.19-.14s0,0,0-.08v-.07l-.09,0-.13,0-.06,0s0-.05,0-.17a.56.56,0,0,0,0-.12l-.07,0s0,0-.07,0,0,.05,0,.07l-.08.14-.11.21-.07.13a.13.13,0,0,1-.11.08h0l0,0c0-.07,0-.08,0-.32l.06-.19s0,0-.06,0a.17.17,0,0,0-.13.08s0,0,0,0a.62.62,0,0,0-.13.17,1.3,1.3,0,0,1-.15.18l-.07,0s0,0-.06,0a.15.15,0,0,1,0-.12l.12-.26s0,0,0,0h-.1c-.16,0-.15,0-.24-.09l0,0,0-.06,0-.09.09,0h.16s0,0,0,0l0-.07s0-.05-.05-.05,0,0,0,0,0,0-.06-.07l0-.06,0,0a.13.13,0,0,1,.11-.09c.06,0,.07,0,.09,0s0,.05.06.06a1.79,1.79,0,0,1,.24.26s0,0,.08,0,.07,0,.07,0l0,0-.24-.2c-.07-.06-.08-.08-.09-.1a.09.09,0,0,1,0-.11s.07,0,.13,0l.26.16c.22.13.28.16.32.16l.08,0,0,0,0,0,0,0s0,0-.08-.07l-.06-.06s0,0,.07,0l.13,0,.09,0s-.07-.09-.09-.1a.29.29,0,0,0-.13,0h-.07l-.38,0c-.15,0-.15,0-.19,0s0-.06,0-.1,0-.06.19-.09l.16,0,.08,0c.09,0,.09,0,0-.06s0,0,0-.05h-.48s-.07,0-.1,0-.06-.07,0-.13,0,0,.21-.08.16,0,.15,0L84,70.71a.51.51,0,0,1-.08-.09.32.32,0,0,1,0-.14v0H84c.05,0,.11,0,.12,0l0,0,.09.07.06,0a1.4,1.4,0,0,0,0-.18c0-.18,0-.19.09-.23s0,0,0,0Z" transform="translate(0 0)"/><path id="path6400" class="cls-20" d="M64.59,82.08c.08-.19,0-.16.48-.26l.48-.11c.1,0,.13,0,.2-.17l.06-.11h-.09l-.23,0-.62,0-.07,0,0,0,0-.1a.31.31,0,0,1,.09-.14,1.55,1.55,0,0,1,.41-.15l.29-.08.46-.11c.07,0,.07,0,.13-.12s.06-.14,0-.11-.05,0-.11,0h-.41a.92.92,0,0,1,.13-.25,2.43,2.43,0,0,0,.13-.24,1,1,0,0,0-.29,0l-.38.39c-.5.52-.49.51-.59.52s-.16,0-.17-.07,0-.14.23-.43.21-.33.23-.37a.15.15,0,0,0,0-.05,1.17,1.17,0,0,0-.32,0l-.09.1-.16.18a4,4,0,0,0-.29.32.33.33,0,0,1-.27.13c-.05,0-.06,0-.08-.06s0-.15.16-.42L64.1,80a1,1,0,0,0-.24,0c-.28,0-.32,0-.4-.15l-.06-.08.05-.1c.08-.18.08-.18.34-.2a1.35,1.35,0,0,0,.24,0,1.21,1.21,0,0,0-.17-.27l-.17-.26v-.15l.09,0c.12,0,.16,0,.19,0s.21.2.36.34c.34.35.32.34.39.34a1.15,1.15,0,0,0,.2,0l-.22-.31c-.34-.46-.31-.41-.31-.51V78.5l.1,0c.08,0,.11,0,.15,0a9.44,9.44,0,0,1,.76.69c.2.21.21.21.29.2h.21l-.11-.17L65.67,79c-.06-.07-.09-.12-.07-.14a1.23,1.23,0,0,1,.4,0h.15a.92.92,0,0,0-.1-.2.12.12,0,0,0-.08,0l-.15,0-.18,0-.17,0-.33-.06c-.41-.08-.41-.08-.49-.23s0-.06,0-.12,0-.08.07-.08a1.77,1.77,0,0,1,.58,0h.33s0,0,0-.06l-.09-.13c0-.07,0-.08-.1-.09l-.17,0-.2,0c-.2,0-.49-.1-.53-.12a.37.37,0,0,1-.12-.2.43.43,0,0,1,.09-.18h0s.12,0,.45,0l.21,0,0-.06a2.34,2.34,0,0,0-.11-.21L65,76.7a.64.64,0,0,1,.1-.26s.08,0,.22,0h.1l.14.22.15.2.09-.18.11-.24a.66.66,0,0,0,0-.11c0-.07,0-.07.11-.11s.15,0,.21,0,0,0-.07.58c0,.17-.08.36-.09.42l0,.12.09.14a.44.44,0,0,0,.1.13l0-.08.06-.16.15-.36.1-.26.08,0c.08,0,.11,0,.18,0s0,.06,0,.09,0,.08,0,.14,0,.13,0,.17-.2,1-.21,1a.56.56,0,0,0,.07.14c.07.11.07.11.1.09a.45.45,0,0,0,.06-.09,3.29,3.29,0,0,1,.19-.35,2.1,2.1,0,0,1,.26.42s0,0,.07,0a.48.48,0,0,0,.13-.21s-.09-.32-.21-.66l-.2-.62.05-.09.06-.1h.1c.1,0,.1,0,.15.1a1.65,1.65,0,0,1,.1.19l.16.34.1.22a1.66,1.66,0,0,0,.17-.24.8.8,0,0,0,0-.22,2.12,2.12,0,0,1-.06-.21s0-.14-.1-.29-.1-.36-.07-.38a.15.15,0,0,0,0-.06s0,0,.12,0,.11,0,.13.06a2.1,2.1,0,0,1,.19.38l.1.19s0,0,.06-.09l.06-.09s0,0,.06-.11l.09-.13a.66.66,0,0,1,.25-.09l.07,0,.06.1c.06.11.07.17,0,.23a.28.28,0,0,0,0,.11.83.83,0,0,1-.08.18l0,.13s0,0,.06,0l.49,0a.32.32,0,0,1,.23.06c.07,0,.07,0,0,.19s0,.07-.12.11l-.12,0-.14,0-.36.11-.28.08a1.21,1.21,0,0,0-.14.28,2.48,2.48,0,0,0,.64-.07c.26,0,.3,0,.35,0s.09.07,0,.18-.08.14-.3.22-.13,0-.13.08,0,.06,0,0,0,0,0,0l-.07,0-.38.12a1.56,1.56,0,0,0-.38.14c-.07.09-.13.29-.07.24a.52.52,0,0,1,.13,0h.44a.13.13,0,0,1,0,.07l-.26.43s0,0,.1,0a.48.48,0,0,0,.17,0c.08,0,.11,0,.69-.69a3.23,3.23,0,0,1,.24-.25.23.23,0,0,1,.14,0c.08,0,.1,0,.11,0a.18.18,0,0,1,0,.2l-.08.13,0,.08a.09.09,0,0,0,0,0s0,0,0,0,0,0-.08.09l-.14.23c-.05.07-.09.14-.08.14a1,1,0,0,0,.28,0c.05,0,.07,0,.12-.06a5.33,5.33,0,0,0,.36-.43c.22-.28.22-.28.31-.3s.14,0,.17.07,0,.09-.18.44l-.14.24s.06,0,.3,0,.26,0,.36.17l.08.12-.07.08c-.15.17-.16.18-.34.2s-.22,0-.26,0h0a1.7,1.7,0,0,0,.18.26l.19.24v.11c0,.13,0,.16-.12.17s-.14,0-.26-.14l-.55-.53s-.07,0-.18,0h-.16a6.37,6.37,0,0,0,.44.56l.07.08v.13c0,.14,0,.17-.16.19s-.11,0-.27-.17-.22-.23-.46-.46-.3-.3-.33-.31h-.14c-.13,0-.14,0-.12,0l.08.13a2.18,2.18,0,0,0,.12.22.67.67,0,0,1,.06.11s-.09,0-.31,0-.22,0-.22,0a.67.67,0,0,0,.06.11c0,.08,0,.09.11.1l.15,0,.28.09.41.13.26.07a.21.21,0,0,1,.18.16l0,.09-.09.07c-.1.09-.13.09-.58,0l-.36,0s0,.06,0,.11a.29.29,0,0,0,.19.2l.06,0,.35.17a2.43,2.43,0,0,1,.38.19.22.22,0,0,1,.07.12c0,.07,0,.09,0,.12a.23.23,0,0,1-.2.09,3.4,3.4,0,0,1-.5-.12s-.07,0-.08,0a1.33,1.33,0,0,0,0,.19c.09.28.09.27-.06.47l-.06.07-.12,0a.59.59,0,0,1-.17,0,.64.64,0,0,1-.07-.16l-.07-.19,0-.09s0,0,0,0a.91.91,0,0,1-.1.13l-.08.09s0,0,0,0l-.11.13-.09.11-.08,0a.25.25,0,0,1-.2-.18c0-.11,0-.13,0-.18a.85.85,0,0,0,.1-.14,4.33,4.33,0,0,1,.36-.51s0,0,0-.15a.49.49,0,0,0-.08-.11s0,0,0,.06l-.27.5c-.07.15-.1.19-.14.21s-.14,0-.2,0-.08-.12,0-.25.09-.3.17-.53c.16-.45.18-.56.16-.63a.66.66,0,0,0-.08-.13l0-.07,0,.06a.88.88,0,0,1-.06.1l-.09.17a.65.65,0,0,1-.09.14s-.07,0-.1-.11-.07-.14-.12-.22a.54.54,0,0,0-.09-.16.7.7,0,0,0-.14.21.91.91,0,0,0,0,.23s0,.06,0,.12.09.39.17.69.07.27,0,.35-.1.12-.18.1-.11,0-.22-.32c0-.11-.1-.23-.12-.26l-.06-.15c-.07-.16-.07-.16-.13,0l-.07.1a1.6,1.6,0,0,0,.1.43c0,.14.07.27.07.29s0,.09,0,.14a.24.24,0,0,1,0,.19c-.06.12-.11.15-.21.12s-.09,0-.23-.34-.11-.28-.14-.25l-.12.17a1.1,1.1,0,0,1-.14.17.43.43,0,0,1-.24.06h-.07l0-.1c0-.09,0-.19,0-.21s0-.05,0-.09l.1-.2.05-.13h-.32c-.33,0-.35,0-.46-.06s0,0,0-.1Z" transform="translate(0 0)"/><path id="path6402" class="cls-20" d="M58.64,78.51c-.21-.1-.18,0-.28-.58l-.11-.56c0-.11,0-.14-.18-.23L58,77.07v.37c0,.15,0,.68,0,.71a.28.28,0,0,1,0,.08l0,.07-.12,0a.29.29,0,0,1-.16-.11,2,2,0,0,1-.15-.47s0-.19-.08-.35-.07-.35-.11-.53,0-.08-.12-.15-.17-.08-.14,0a.38.38,0,0,1,0,.13v.48a1.68,1.68,0,0,1-.28-.16l-.27-.16a1,1,0,0,0,0,.34l.43.45c.57.59.56.58.57.71s0,.17-.09.18-.15,0-.49-.27l-.4-.29-.06,0a1.09,1.09,0,0,0-.06.36l.11.11a1.89,1.89,0,0,1,.2.2c.13.14.23.24.35.35a.36.36,0,0,1,.14.31c0,.06,0,.07-.07.09s-.17,0-.47-.2L56.3,79a1.17,1.17,0,0,0,0,.28c0,.33-.06.37-.19.46L56,79.8l-.12-.06c-.2-.11-.19-.1-.2-.41a1.4,1.4,0,0,0,0-.28l-.31.19-.3.19h-.18l0-.1c0-.14,0-.19,0-.22s.24-.24.41-.4c.4-.38.39-.36.39-.44a1,1,0,0,0,0-.23s-.16.1-.36.23c-.53.38-.48.35-.59.34h-.1l0-.12a.19.19,0,0,1,0-.18c0-.06.34-.37.82-.84.24-.23.25-.25.24-.34a.86.86,0,0,1,0-.16v-.07L55.4,77l-.23.14c-.07.06-.14.09-.16.08a1.47,1.47,0,0,1,0-.48.46.46,0,0,0,0-.16,1.07,1.07,0,0,0-.23.1.17.17,0,0,0-.06.1,1.23,1.23,0,0,0,0,.16,1.6,1.6,0,0,0,0,.21c0,.06,0,.15-.05.2s0,.22-.08.38c-.11.47-.11.48-.28.56s-.07,0-.14,0a.38.38,0,0,1-.09-.1,2.36,2.36,0,0,1,0-.67c0-.2,0-.37,0-.38s0,0-.07,0l-.14.09c-.09,0-.1.07-.11.12l0,.2c0,.07-.05.18-.06.23,0,.23-.14.57-.16.61a.44.44,0,0,1-.23.13s-.22-.1-.2-.11a0,0,0,0,0,0,0s0-.14,0-.52l0-.25-.07,0-.24.12-.22.1a.78.78,0,0,1-.3-.13s0-.09,0-.25v-.11l.25-.16.24-.17-.21-.11-.26-.13-.13-.06c-.08,0-.08,0-.12-.13s0-.18.06-.24.06-.06.66.1l.48.12.13,0,.16-.1c.1-.05.16-.1.15-.11s0,0-.08,0l-.18-.08-.4-.19-.3-.13,0-.09c-.06-.1,0-.13,0-.21s.07,0,.1,0l.16,0,.2,0,1.12.27a.59.59,0,0,0,.17-.07c.12-.08.13-.08.1-.11a.23.23,0,0,0-.09-.07l-.4-.24a2.32,2.32,0,0,1,.49-.29c.06,0,.06,0,0-.08a.51.51,0,0,0-.24-.16l-.76.22-.71.21-.11-.07-.1-.06v-.12c0-.12,0-.12.12-.17l.23-.11.38-.17.26-.11a2.1,2.1,0,0,0-.27-.2.74.74,0,0,0-.24,0l-.25.07-.33.1c-.3.09-.41.11-.44.07l-.07,0s0,0,0-.14,0-.13.07-.15a3.83,3.83,0,0,1,.44-.21c.14-.06.22-.09.22-.11l-.09-.07-.1-.07-.13-.08a.46.46,0,0,1-.14-.1.7.7,0,0,1-.1-.29v-.09l.11-.06c.13-.07.2-.08.26,0a.45.45,0,0,0,.12.06l.21.1.14.06s0,0,0-.07,0-.51,0-.57a.41.41,0,0,1,.07-.26c.06-.08.06-.08.22,0s.08,0,.12.15a.47.47,0,0,1,0,.14.69.69,0,0,0,0,.17c0,.08.07.27.1.42a1.5,1.5,0,0,0,.09.32,1.12,1.12,0,0,0,.31.18,2.86,2.86,0,0,0-.06-.75c0-.3,0-.34,0-.41s.09-.1.22,0,.15.1.24.36,0,.16.08.16.07,0,0,0,0,0,0,0a.31.31,0,0,0,0,.08s.05.22.11.45a2.18,2.18,0,0,0,.15.44c.1.09.33.16.28.09a.5.5,0,0,1,0-.15,2.91,2.91,0,0,0,0-.31.51.51,0,0,1,0-.19s.05,0,.08,0a5.15,5.15,0,0,0,.48.31s0,0,0-.11a.72.72,0,0,0,0-.2c0-.09,0-.12-.76-.82l-.28-.28a1.08,1.08,0,0,1,0-.17c0-.1,0-.12,0-.13a.21.21,0,0,1,.23,0l.14.1a.31.31,0,0,1,.09.07s0,0,.06,0,0,0,0,0a.3.3,0,0,0,.1.09s.17.11.25.18l.17.1a2.36,2.36,0,0,0,0-.33.18.18,0,0,0-.06-.14,4.86,4.86,0,0,0-.47-.43c-.32-.27-.32-.27-.34-.38s0-.16.09-.19.1,0,.49.22l.27.17s0-.07,0-.34,0-.3.21-.41l.13-.09.09.08c.19.18.2.2.22.4a1.42,1.42,0,0,1,0,.31v0l.3-.2.28-.21h.13c.15,0,.18,0,.19.15s0,.15-.17.29-.54.52-.63.62a.38.38,0,0,0,0,.2.72.72,0,0,0,0,.19,5.91,5.91,0,0,0,.65-.49l.09-.07.15,0c.17,0,.2,0,.21.18s0,.14-.2.31l-.55.52c-.35.35-.34.34-.35.37a.41.41,0,0,0,0,.16c0,.16,0,.16,0,.15a.54.54,0,0,1,.16-.09l.25-.14.12-.06s0,.11,0,.36,0,.25,0,.25l.13-.06c.09,0,.1-.06.12-.12a1.77,1.77,0,0,1,.06-.17l.12-.33.15-.47c0-.12.09-.26.1-.29a.25.25,0,0,1,.18-.21l.11,0,.07.1c.1.13.1.15,0,.68a2.06,2.06,0,0,0-.05.42l.12,0a.36.36,0,0,0,.24-.2s0-.07,0-.07a3.91,3.91,0,0,0,.21-.41,3.75,3.75,0,0,1,.23-.43.37.37,0,0,1,.14-.07c.09,0,.1,0,.14,0a.27.27,0,0,1,.1.23,5.24,5.24,0,0,1-.16.58s0,.09,0,.09l.21-.05c.32-.09.31-.09.53.09l.09.07,0,.15a.55.55,0,0,1-.07.18.47.47,0,0,1-.18.09l-.22.06-.1,0s0,0,0,0l.14.12.11.09s0,0,0,0l.14.13.12.11,0,.09a.27.27,0,0,1-.21.22c-.12,0-.14,0-.2,0L59.38,75a5.75,5.75,0,0,1-.58-.44s0,0-.16,0a.65.65,0,0,0-.14.09s0,0,.07,0l.56.33c.17.1.21.13.23.18s0,.16,0,.23-.13.09-.28,0l-.59-.22c-.52-.2-.64-.24-.72-.21a.55.55,0,0,0-.15.08l-.08.07.06,0,.11.07.19.12.17.1s0,.08-.13.12l-.26.12a1.19,1.19,0,0,0-.19.1,1,1,0,0,0,.24.18A.78.78,0,0,0,58,76l.14,0,.8-.17c.29-.07.31-.07.39,0s.13.11.11.2-.06.14-.37.26l-.31.12-.17.07c-.18.06-.18.07-.07.15l.12.07a1.45,1.45,0,0,0,.5-.09l.33-.08.16,0c.11,0,.13,0,.21,0s.17.12.14.24,0,.1-.4.25-.33.13-.29.16a1.73,1.73,0,0,0,.19.15l.19.16a.6.6,0,0,1,0,.29v.08l-.11,0a.31.31,0,0,1-.25,0s-.05,0-.1-.06L59,77.67l-.14-.07a2.07,2.07,0,0,0,0,.38c0,.38,0,.41-.1.52s0,0-.11,0Z" transform="translate(0 0)"/></svg>