<svg id="svg13195" xmlns="http://www.w3.org/2000/svg" xmlns:xlink="http://www.w3.org/1999/xlink" viewBox="0 0 110 110"><defs><style>.cls-1,.cls-2{fill:#fd5;}.cls-1,.cls-11,.cls-12,.cls-13{opacity:0.8;}.cls-1,.cls-10,.cls-11,.cls-12,.cls-13,.cls-14,.cls-15,.cls-16,.cls-17,.cls-18,.cls-19,.cls-2,.cls-8,.cls-9{isolation:isolate;}.cls-2{opacity:0.94;}.cls-3{fill:url(#radial-gradient);}.cls-4{fill:url(#linear-gradient);}.cls-5{fill:url(#linear-gradient-2);}.cls-6{fill:#520;fill-opacity:0;}.cls-7{fill:url(#linear-gradient-3);}.cls-8{fill:#76797e;}.cls-8,.cls-9{opacity:0.85;}.cls-9{fill:url(#linear-gradient-4);}.cls-10,.cls-13{fill:#999;}.cls-10,.cls-15{opacity:0.9;}.cls-11{fill:#666;}.cls-12{fill:#ccc;}.cls-14{opacity:0.95;fill:url(#linear-gradient-5);}.cls-15{fill:#a6a7a7;}.cls-16{fill:#b3b3b3;}.cls-16,.cls-18{opacity:0.5;}.cls-17{fill:#9c9ea0;opacity:0.67;}.cls-18{fill:#959798;}.cls-19{fill:gray;opacity:0.6;}.cls-20{fill:#fff;}.cls-21{fill:url(#linear-gradient-6);}.cls-22{fill:url(#linear-gradient-7);}</style><radialGradient id="radial-gradient" cx="535.16" cy="-505.46" r="38.44" gradientTransform="matrix(0.31, -0.01, -0.02, -0.48, -142.81, -206.05)" gradientUnits="userSpaceOnUse"><stop offset="0" stop-color="#ff0"/><stop offset="1" stop-color="#fea917"/></radialGradient><linearGradient id="linear-gradient" x1="579.87" y1="-885.96" x2="660.12" y2="-807.07" gradientTransform="matrix(0.34, 0, 0, -0.34, -172.82, -256.83)" gradientUnits="userSpaceOnUse"><stop offset="0" stop-color="#ff0"/><stop offset="1" stop-color="#ff0" stop-opacity="0"/></linearGradient><linearGradient id="linear-gradient-2" x1="640.06" y1="-766.19" x2="627.35" y2="-838.54" gradientTransform="matrix(0.34, 0, 0, -0.34, -172.82, -256.83)" gradientUnits="userSpaceOnUse"><stop offset="0" stop-color="#fff"/><stop offset="1" stop-color="#fff" stop-opacity="0"/></linearGradient><linearGradient id="linear-gradient-3" x1="282.47" y1="-1080.84" x2="254.01" y2="-1018.79" gradientTransform="matrix(0.64, 0, 0, -0.64, -99.36, -589.02)" gradientUnits="userSpaceOnUse"><stop offset="0" stop-color="aqua"/><stop offset="1" stop-color="#fff"/></linearGradient><linearGradient id="linear-gradient-4" x1="-664.52" y1="-582.39" x2="-528.13" y2="-539.89" gradientTransform="matrix(0.66, 0, 0, -0.66, 457.32, -335.93)" gradientUnits="userSpaceOnUse"><stop offset="0" stop-color="#57646d"/><stop offset="1" stop-color="#57646d" stop-opacity="0"/></linearGradient><linearGradient id="linear-gradient-5" x1="-936.74" y1="-359.11" x2="-947.98" y2="-302.96" gradientTransform="matrix(0.66, 0, 0, -0.66, 663.94, -184.29)" gradientUnits="userSpaceOnUse"><stop offset="0" stop-color="#ccc"/><stop offset="1" stop-color="gray"/></linearGradient><linearGradient id="linear-gradient-6" x1="2211.26" y1="-359.52" x2="2334.36" y2="-545.97" gradientTransform="matrix(0.46, 0, 0, -0.46, -954.79, -112.64)" gradientUnits="userSpaceOnUse"><stop offset="0" stop-color="#fff"/><stop offset="1" stop-color="aqua"/></linearGradient><linearGradient id="linear-gradient-7" x1="1323.2" y1="-1691.16" x2="1446.3" y2="-1877.61" gradientTransform="matrix(-0.23, 0.06, -0.08, -0.18, 224.29, -334.87)" xlink:href="#linear-gradient-6"/></defs><g id="g5656"><path id="path5658" class="cls-1" d="M36.59,2.84l.51,11.62L35.86,7.28l.87,7.3-.88-3.95L35.3,7l.36,2.74L34.49,4.49l1.6,9.57-1.6-5.75.83,4.74-2.9-9L35,13.81,32.79,8,34,12.59l-3.1-7.07,2.93,9-2.1-3.76-.72-1.46.29.67-2.51-4.5,4.48,10.39-.2-.3-3.8-6.16,1.43,2.69L29.16,9.79l2.15,4L27,7.39l4.7,7.91-2.86-3.77L31.69,16,24.86,7.85l5.65,7.73L27.17,12l3.73,4.71-6.32-6.18,6.86,7.83L28.8,16.24l-6.1-4.91,7.88,7.42L24,14.54l.88.7L24.6,15l2.18,1.7,1,.82L21.07,13.7l6.55,4.73-3.27-1.89,3.95,2.38.45.33-9.4-4.2,7.26,4.21L23,17.64l4.34,2.06,1.61.93-4.41-1.48-4.51-1.77,3.31,1.37-1.24-.41,2.8,1.27L22.86,19l5.77,2.76-.44-.09L18.66,19l7.6,2.27-4.54-.91,3.45,1.24-6.5-1,3.31,1-.13,0,.15,0,4.17,1.26-2.87-.13-1.51-.18,1.06.16-5.33-.23,9.11,1.75-.66,0-5-.11,3.48.19-3.25.17,4.05.39L18,25.16l9.89,0,.2,0L22.3,26l6.88-.34-6.39.87-.92.11-4.62.63,10.64-1.07-6.07,1.5L26.61,27l-3.3,1-2,.47,1.33-.27L19.2,29.25l9.54-2-6.4,2.15L27,28l-8.13,3.39,9.75-3.05-6.46,2.92,7-2.92-6.22,3.33.91-.39-4,2.09,6.57-3.16,2.78-1.18L24.1,32.37l6.33-3.54-10.5,6.83,10.19-6.23-5.83,4.71,4.14-2.89-3.68,3.29-.66.52.45-.33-2.1,1.87,8.7-6.75-5.63,5.77,1.4-1.18L23,38.71l6.75-6.39,1.61-1.51-5.26,6.56L29,34.42l-.89,1.22L26.78,37.3l.39-.44-2.46,3.4,6.59-7.5-.22.36-2.9,4.34,1.4-1.81-3.9,6.63,6.25-8.67L29,39l2.63-4.14L28.25,42,33,33.69l.63-1.07-2.86,7.05,1.1-2.25L29.53,43.7l4.72-10.48L31.9,41l1.78-4.69-.23,1-1,3.58.25-.74-1,4.06L34.38,36l-1.16,5.1,1.46-4.14L33.35,45.6l2-8.81-.72,5.43.93-3.69L35,45.41l.81-4,0,.68.19-1.41.86-4.28.07,10.15L38,35.82l.65,6.76L38.74,37l.88,8.27L38.78,35l1.14,6.23-.4-6.09,2.15,10.72L39.82,35.33,41.6,41.7,41,38.12l2.06,6.26-1.83-8.79,1.41,3.23.73,2L43,39.51,45.2,44.6,42.12,34.55l.46.85,2.6,5.46-1.5-3.47,1.61,2.94L44,37.12l3.24,6.06L42.77,34.1l3.29,5.46-4.45-8.35,7.78,11.7-5.51-9,3.95,5.33-3.64-5.5,6.06,7.39-4-5.51,2.39,3-4.81-6.44,4.71,4.89-1.24-1.68,5.08,5.1-7.54-8.44-.36-.48,5.68,4.85-2.06-2.3,2.75,2.3L49.32,35l3.44,2.65L47,31.85l7.64,4.76-7.33-6.08,3.89,1.94,1.52.86-.91-.55.6.29-4.25-2.89,7.47,3.74L47,29.22l5.89,2.38L44.8,27.91,44,27.36l5.37,2L53,30.8l-.44-.18,4.65,1.77-9.44-4,6.37,1.85L47.34,28l9.77,2.29-3.35-.95L48.5,27.66l4.59.8L47.82,27l10.6,1.38L48,26.55l6.12.42-4.2-.69,7,.11-3-.32,1,0-2.42-.18-5.18-.57,4-.35,2.42-.11-.85,0,4.91-.43-11.22-.08,7.83-1.16-2.91.2,2.6-.48-3.29.3,6.25-1.26-9,1.1,5.78-1.43-4.08.57,7.79-2.41-9.24,2.1,5.89-2.1-4.73,1.17,7.15-3L51.1,19.65,53,18.9,47.7,20.57l9-4.88L51.15,18,53,17l-6.08,2.64.07-.05,8.08-4.77-3.63,1.79,1.16-.77L47.33,18.7l-1.95,1,6.14-4.4-1.34.8,1-.74-.42.26,4.06-3-9.63,6,6-5.22-1.32,1,1-.88-4.75,3.65,6.65-6.43-6.59,5.37,2.85-3-4.69,4.5L49,12.17l-.29.3L52,8.59l-6.33,6.29,2.68-3.41-4.46,5.18,4.35-6.17-1.58,1.9,2.66-3.76L43,16.75l-.3.36,3.8-6.8L45,12.51l1-1.79-1,1.57,3.18-5.55-6.11,9.64L45.47,8.8l-1.32,2.45.91-2-2.51,4.87,3.26-8.47-4,8.27,1.62-4.8-1.81,4.32,2.64-9.41-3.31,9,1.22-5.16-1.63,5.17L41.66,7.4,41,9.69,42,4.83l-1.65,6.25.55-3.24L40.07,12l-1,3.73.45-4.91.26-2.63,0,.16.44-4.79-1.11,6.68.26-3.43L39,11.28l-.7,4.13V15l.31-11.21L38.29,9.4l0-2.06-.44,5.6-.4-5,.21,7.57-.12,1.57,0-.23L37,7.62l.1,2.42Z" transform="translate(0 0)"/><path id="path5660" class="cls-2" d="M51.68,25.63c0,8.08-6.21,14.63-13.87,14.63S23.94,33.71,23.94,25.63,30.15,11,37.81,11,51.68,17.56,51.68,25.63Z" transform="translate(0 0)"/><g id="g5662"><path id="path5664" class="cls-3" d="M49.75,25.22c0,7-5.37,12.66-12,12.66s-12-5.67-12-12.66,5.38-12.66,12-12.66S49.75,18.23,49.75,25.22Z" transform="translate(0 0)"/><path id="path5666" class="cls-4" d="M49,25.22c0,6.43-4.94,11.65-11,11.65s-11-5.22-11-11.65,4.95-11.65,11.05-11.65S49,18.79,49,25.22Z" transform="translate(0 0)"/><path id="path5668" class="cls-5" d="M49,25.22c0,6.43-4.94,11.65-11,11.65s-11-5.22-11-11.65,4.95-11.65,11.05-11.65S49,18.79,49,25.22Z" transform="translate(0 0)"/></g></g><g id="layer1"><g id="thunder"><rect id="rect6743" class="cls-6" width="110" height="110"/><g id="g6155"><path id="path6145" class="cls-7" d="M51.87,49.3c-.82.65-2.78.54-2.7,1.58.06.8,2.27.09,2.25.9,0,1.3-2.54.65-3.71,1.23a10.16,10.16,0,0,0-2.14,1.47c-.84.73-2.43,1.37-2.25,2.47s1.6,1.48,2.59,1.46,1.44-1,2.25-1.35c.53-.22,1.35-.93,1.68-.45.58.84-1.14,1.69-1.8,2.48s-1.86,1.34-2.25,2.36c-.31.84-.68,2.28.12,2.7,1.71.91,3.3-4.06,5-3,1,.62-.24,2.33-.34,3.49s-1,2.43-.23,3c1.29,1,3.58-.38,4.5-1.69,1.21-1.72.36-4.21.12-6.3-.14-1.19-1.11-2.3-.9-3.49a1.82,1.82,0,0,1,1-1.46c1.95-.61,3.73,1.78,5.74,2.14.92.16,2.14-.66,2.81,0,1.44,1.42.06,4,.11,6.07.09,3.34-.73,6.85.34,10a12,12,0,0,0,2.47,3.49c1.81,2.22,3.28,5,5.85,6.3,1.18.58,3.2,1.43,3.94.34,2.21-3.29-4-6.86-5.4-10.58-.62-1.7-2.66-4.17-1.24-5.28,2.15-1.69,4.68,4.46,7.31,3.71a2.57,2.57,0,0,0,1.58-2.59c-.25-1.76-2.68-2.34-3.94-3.6a38.78,38.78,0,0,1-5.06-5.51c-.54-.79-1.49-1.66-1.24-2.59A1.88,1.88,0,0,1,70,55.49c2.15-.08,3.52,2.72,5.62,3.15,1.37.28,3.51.78,4.16-.45.84-1.57-1.08-3.62-2.47-4.73-2.94-2.33-7.2-2.23-10.91-2.81-1.3-.2-2.73.29-3.94-.22-1.88-.8-2.52-3.65-4.5-4.16a5.84,5.84,0,0,0-4.16,1c-.8.46-1.18,1.45-1.91,2Z" transform="translate(0 0)"/><g id="g6358"><path id="path6204" class="cls-8" d="M54.93,50.64c1.77,2.38,5.77,2.27,8.71,1.85,1.75-.25,3.08-1.76,4.69-2.52a21.56,21.56,0,0,1,4.52-1.84c3.83-.81,11.73-.33,11.73-.33s-10.11,2.41-10.22-1c0-1.41,2.79-.45,4.19-.67s4,2,4.36-.67-.51-2.34.5-2.68a20.58,20.58,0,0,0,2.51-1.17s-2.62-2.1-4-3c-1.23-.81-3.42-.77-3.85-2.18s.8-2.78,1.84-3.68c.8-.7,3.35-.34,3-1a10.54,10.54,0,0,0-2.35-3,17,17,0,0,0-5-2.18,25,25,0,0,0-5-1.34,24.53,24.53,0,0,0-4,0c-1.9.05-4-.45-5.7.33A8.75,8.75,0,0,0,56.6,29.7C53.67,36.06,50.74,45,54.93,50.64Z" transform="translate(0 0)"/><path id="path4162" class="cls-9" d="M43.79,30.57c1.46-1.76,3.65-2.87,5-4.74.45-.63.49-1.5,1-2.13.62-.86,1.34-2.39,2.37-2.13,1.31.32.4,2.91,1.42,3.79a4.54,4.54,0,0,0,3.32.71c1-.1,2.32-.3,2.84-1.19.37-.61-.52-1.47-.23-2.13.21-.49-1.88-1,1.3-.95,1.14,0,3.06.95,4.62.83,1.37-.1,5.15-1.12,3.91-1.3,1,2-3,3.27-4.62,4.74-.67.6-2.36.78-2.13,1.66s1.88.56,2.84.47A9.57,9.57,0,0,0,68.67,27c1-.51,1.72-1.69,2.84-1.9s2,.52,3.08.71,2.53,1.1,3.55.48a2.39,2.39,0,0,0,1-2.61c-.28-.76-1.56-.61-2.13-1.19s-2-1.79-1.42-2.6c.87-1.24,3,.67,4.5.71.71,0,1.43-.36,2.13-.24.18,0,.43.07.48.24.25.88-1.34,1.45-1.43,2.37-.12,1.34,1.84,2.51,1.43,3.79-.35,1.08-1.8,1.46-2.85,1.9a34.3,34.3,0,0,1-3.55.71,44.79,44.79,0,0,0-5.69,2.13c-.65.28-2,.24-1.89.95.19,1.69,3.27,1.28,5,1.18,2.1-.12,3.83-2.11,5.93-2.13a6.65,6.65,0,0,1,2.84.95c1.44.69,2.45,2.34,4,2.6s3.12-1,4.74-1.18c1.17-.15,2.58-.68,3.55,0s1.79,2.31,1.18,3.32c-1.1,1.84-4.24.92-6.39.94-1.83,0-4.88-2.45-5.45-.71-.51,1.55,2.72,1.85,4.26,2.37a15.3,15.3,0,0,0,6.16.95,13.63,13.63,0,0,0,2.85-.95c.55-.17,1.25-.88,1.66-.47.75.77-.22,2.29-1,3.08-1,1.12-2.77,1.38-4.27,1.66a13,13,0,0,1-3.79,0c-1.77-.2-3.44-1-5.21-1.19a17.65,17.65,0,0,0-3.56,0,31.13,31.13,0,0,0-5,1C74.8,44.22,73.46,45,72,45.26c-1.09.18-2.72.93-3.31,0-.71-1.1,2.29-2.41,1.65-3.55-.92-1.67-3.8-1-5.68-.71a10.48,10.48,0,0,0-4.74,2.37c-1.09.89-1.28,2.85-2.61,3.31-2.29.81-4.7-1.26-7.11-1.66-4.93-.8-12.76,3.09-14.92-1.42-2.25-4.68,5.2-9,8.53-13Z" transform="translate(0 0)"/><path id="path5972" class="cls-10" d="M47.72,36.4l5,1,4,1.34,4,.33,3.35-.33a2.51,2.51,0,0,1,1.68-1c1.34-.33.67-.33,2-.67a27.46,27.46,0,0,0,3-1l1-.67s0-.67-1.68-1S67.83,31,67.83,31a5.19,5.19,0,0,0-3.69-.33c-1.67.67-3.35,2-5.36,2.34s-6-.67-6-.67l-3,2Z" transform="translate(0 0)"/><path id="path6018" class="cls-11" d="M24.77,44.45l3.52-1.35,2.84,1.18a3,3,0,0,1,1.51-1.18c.84-.16,2.52.84,3.19.84s-3.69,0,2,.34,5.53,1,5.36.17-2.18-2.69.5-2.18l2.68.5,4-1,4.53,2.18,2,.17a18.31,18.31,0,0,1,3.85,1c.84.5,3.85.33.84.5s-2.52-1.17-4.19.5a7.91,7.91,0,0,1-4.36,2.51c-.83,0-2.68-.5-4.19-.5s-2.68-.33-3.35.17S44.37,50.14,43,49.81s-5-1.34-5-1.34H36.33l-3-.67a1.71,1.71,0,0,0-1-1.18,15.85,15.85,0,0,0-3-.5l-2-.17Z" transform="translate(0 0)"/><path id="path6246" class="cls-12" d="M54.26,36.07l9.55,1s3.51-1.84,4-1.67,3.35,1,3.35,1,3.68-.16,4.52-.33,6.7-.84,6.7-.84,4.36,2.35,5,2.35,8.88.83,8.88.83L107,40.09,96.81,41.43l-10.89-.34-5.69-.16-12.07,2-8-1.18L46.21,42.94Z" transform="translate(0 0)"/><path id="path4231" class="cls-13" d="M40,43.78c1.51,2.08,5.19.5,7.71,0,1.43-.29,2.57-1.61,4-1.68s2.85,1.19,4.36,1.34a10,10,0,0,0,3.35-.34c1.75-.42,3.25-1.66,5-2a27.15,27.15,0,0,1,5,0,21.65,21.65,0,0,0,3.69,0c2-.34,3.71-1.67,5.7-2,1.32-.22,3.21,1.07,4,0,.49-.65,3.57-.6,2.88-1-1.24-.79-6.51-.17-7.91-.63-.9-.3-6.89.33-3.79-2.25-.72-4.17-5.16,4-8.94,3.92-1.56,0-4.37-.12-4.36-1.67,0-1.31,2.88-.31,3.69-1.34s1-2.49.33-3.35c-.86-1-2.7-.07-4-.34-3.22-.64-6.58-1.3-9.38-3-1.08-.66-1.42-2.71-2.68-2.68-2.29,0-3.52,3-4.69,5C41.87,35.36,37.54,40.34,40,43.78Z" transform="translate(0 0)"/><path id="path4188" class="cls-14" d="M52.78,19.91c-2.63,0-3.28,5-5.9,5.22-1.21.1-1.89-1.8-3.09-1.91-4.63-.43-8.44,4.33-13,5-1.81.25-3.65-.83-5.44-.48-2.18.44-7.88.45-7.35,2.62.38,1.53,5.68-1,6.15.47s-2.91,1.34-3.77,2.61c-.41.61.1,1.67-.48,2.12-2.18,1.7-4.12.79-6.87,1.07s-9.41-2.17-9.49.59c0,1.4,2.74.64,4,1.2a7.62,7.62,0,0,1,2.38,1.41c.33.32.3,1,.7,1.18,2.25,1.18,5.07-.66,7.59-.48a23,23,0,0,1,5.68,1.21c2.65.88,4.94,2.67,7.59,3.54,1.15.38,2.86-.29,3.55.71.87,1.24-1.85,3.5-.71,4.5,1.43,1.24,3.58-1.38,5.45-1.66a19.58,19.58,0,0,1,5.46,0,21.93,21.93,0,0,1,5.2,1.43c1.41.56,2.62,1.55,4,2.13C57.19,53.51,60.05,55.45,63,55c2.18-.34,19.67-5.4,5.45-3.79-.41-2.52-1.77.54-7.36-2.13-1.36-.65-3.65,1-4.5-.25-.7-1,.32-2.64,1.18-3.55s3.2-.21,3.57-1.43c.27-.92-1-1.65-1.66-2.36-.84-.91-1.61-2.27-2.84-2.37-1.55-.12-2.69,1.6-4,2.37a8.69,8.69,0,0,1-2.59,1.43c-1.42.24-3.31.35-4.27-.73s.06-3-.25-4.5c-.13-.66-1-1.29-.7-1.88.89-1.64,3.65-.74,5.45-1.19,3.11-.77,6.18-1.68,9.25-2.61,2.22-.67,2.61-1.32,6.63-2.13.61-1,7.38-1.8,6.39-2.48s-9.8-.62-11.14-.36c-1.5.29-3,.68-4.49.95s-3.77,1.86-5,.71-.17-3.3.48-4.75c1.32-1.24,9.45,1.19.22-4ZM23.88,38.75l2.62.35,3.19,1.19,1.89.6,1.55.7-.6.58L31,41.82l-2.26-.58L27,40.16,24.59,39.1Z" transform="translate(0 0)"/><path id="path4265" class="cls-10" d="M35.66,49.14c1.87.48,3.18,0,4.69,0s3-.23,4.36-.34a34.39,34.39,0,0,0,4-.33c1.4-.28,3.33-.56,4.35-1.34s2.32-1.35,1.68-2.68-4.24-.2-5.7-.67-1.79-1.16-3-1.68-3-1.48-4.36-1.34-2,1-3,1.67-1.47,2-3,2.69-5.61-1.45-6,.67,4.16,2.86,6,3.35Z" transform="translate(0 0)"/><path id="path5878" class="cls-15" d="M71.18,32.38l4,1.68,2.68-1.68,2.68.67,3.69,1.68,3,1a3.13,3.13,0,0,1-2.34.34c-1.34-.34-4.36-.67-4.36-.67l-4.36,2-2.68-.67L71.18,35.4Z" transform="translate(0 0)"/><path id="path6036" class="cls-16" d="M52.92,42.6l4.69-.33,3.35.67,5-.17,4.7-.67-4-.5s-2.51.16-3.51.33-3.69-.67-4.53-.67H56.1a8.35,8.35,0,0,0-3.18,1.34Z" transform="translate(0 0)"/><path id="path6082" class="cls-17" d="M55.09,25l1.68-1,.5-1.5L59,23l.67.33v2H58.28l-1.85,1.34Z" transform="translate(0 0)"/><path id="path6196" class="cls-18" d="M70.51,40.93l4.69-.34,3.35.67,5-.17,4.69-.67-4-.5s-2.52.17-3.52.34-3.69-.67-4.53-.67H73.69a8.35,8.35,0,0,0-3.18,1.34Z" transform="translate(0 0)"/><path id="path6198" class="cls-18" d="M65.48,27.36,70.17,27l3.35.67,5-.17,4.69-.67-4-.5s-2.51.17-3.52.34S72,26,71.18,26H68.67a8.34,8.34,0,0,0-3.19,1.34Z" transform="translate(0 0)"/><path id="path6200" class="cls-16" d="M51.07,48.8l4.69-.33,3.35.67,5-.17,4.69-.67-4-.5s-2.51.16-3.52.33-3.68-.67-4.52-.67H54.26a8.34,8.34,0,0,0-3.19,1.34Z" transform="translate(0 0)"/><path id="path6202" class="cls-18" d="M11.87,42.27l4.69-.34,3.35.67,5-.17,4.69-.67-4-.5s-2.52.17-3.52.34-3.69-.67-4.53-.67H15.05a8.35,8.35,0,0,0-3.18,1.34Z" transform="translate(0 0)"/><path id="path6272" class="cls-19" d="M30.8,34.39l2.68-1.67,1.84.16,3-1H42l2.84-.34-1.5,2.18-2.69-.5-3.18.67-2.85,1Z" transform="translate(0 0)"/></g><g id="g4157"><path id="path10782" class="cls-20" d="M57.1,48.21l-1.26.93,1.86,2.48h0l2.48,3.09.18.23.28.06,3,.59,2.13,1.18-.44,1.57-.1.34.2.3,1.11,1.67v4.56l.59,2.65-.27,1.92-.31.9,0,.14,0,.16.3,4v.23l.15.19,2.77,3.71c1.84,1.65,5.58,5.31,1.11-1.15l-2.49-3.31-.29-3.62.26-.79,0-.08v-.07L68.69,68v-.14l0-.14L68.07,65V63.29l.79.1.49.32.08.82,0,.25.22.11,1.39.75.52,1.26.06.12.09.07,1.58,1.25,0,0,0,0,2.95,1.31.25-.33-2.76-1.8h0L72.4,66.44l-.55-1.32L71.78,65l-.14-.08-1.31-.7-.09-.81,0-.21L70,63.06l-.78-.49-.08,0-.1,0-1-.13V60.19l-.13-.2-1-1.56.52-1.81.17-.6-.54-.31-2.78-1.53-.1-.06-.13,0-2.8-.56-.31-.38,2.13.52,0,0,0,0L65,53.41l2.63.68,2.3,1.37H70L75,56,76.8,57.6l.14-.16-1.68-1.86-.07,0-.09,0-5-.49-2.25-1.33,0,0h0L65.09,53H65l-1.85.26-2.68-.65L59,50.68v0L57.1,48.21Z" transform="translate(0 0)"/><path id="path10247" class="cls-21" d="M57.86,49.76l-1-.91,0,.84-1-.36,1.86,2.48h0l2.47,3.09.19.23.27.06,3,.59L65.85,57l-.45,1.57-.1.34.2.31,1.11,1.66v4.48l0,.08.59,2.65L66.94,70l-.3.89,0,.14v.16l.3,4,0,.23.14.19,2.78,3.71C71.69,81,75.42,84.63,71,78.17l-2.49-3.31-.29-3.62.26-.79,0-.07V70.3l.31-2.15,0-.15,0-.14-.61-2.72V63.49l.8.1.48.31.09.82,0,.25.22.11,1.39.75.52,1.27.06.11.08.07,1.58,1.25,0,0,0,0,3,1.31.24-.33-2.76-1.8h0l-1.41-1.12L72,65.31l-.07-.14-.15-.07-1.31-.71-.08-.8,0-.22-.17-.11-.78-.49-.09-.06h-.1l-1-.13V60.38l-.12-.2-1-1.55.52-1.82.17-.6-.55-.3-2.77-1.54-.1-.06-.13,0-2.81-.56-.3-.37,2.13.51,0,0,0,0,1.85-.25,2.63.67L70,55.65h0l.06,0,4.93.47,1.83,1.64.14-.16-1.68-1.85-.08-.06H75.2l-5-.49L68,53.88l0,0h0l-2.73-.7,0,0-.06,0-1.86.25-2.67-.64-1.51-1.89,0,0-1.46-2.68Z" transform="translate(0 0)"/></g><g id="g4163"><path id="path4087" class="cls-20" d="M53.74,51.83l.32-.48.12.34.43-.28-.51,1.23h0l-.72,1.55-.05.11-.12.06L51.84,55l-.86.74.48.57.1.12-.05.15-.27.8.62,1.5.1.24v.07l.14,1.13.45.73.29.31,0,0,0,.07.5,1.63,0,.09,0,.09-.76,1.84c-.64.89-1.88,2.84-.74-.31l.69-1.64-.45-1.48-.26-.27,0,0v0l-.51-.81,0-.06v-.06l-.14-1.15-.09-.21-.18-.45-.38.14-.19.19.1.34,0,.1-.09.08-.56.48-.05.56v.06l0,0-.57.7,0,0,0,0-1.23.9-.18-.1,1.07-1.07h0l.51-.63.05-.6,0-.06,0,0,.53-.45L49.85,59l0-.09.07-.07.3-.3,0,0,.05,0,.48-.18-.32-.78,0-.09,0-.1.26-.75-.56-.65L50,55.68l.22-.19,1.12-1,0,0,.05,0,1.29-.59.09-.19-1,.49h0l-1,.14-1.19.62-.9.84h-.05l-2.35.84-.63.89-.1,0,.53-1,0,0,0,0,2.37-.85.89-.82h0l1.23-.64h0l1-.14,1.21-.61.43-1h0l.28-1.26Z" transform="translate(0 0)"/><path id="path4083" class="cls-22" d="M53.74,51.83l.32-.48.12.34.43-.28-.51,1.23h0l-.72,1.55-.05.11-.12.06L51.84,55l-.86.74.48.57.1.12-.05.15-.27.8.62,1.5.1.24v.07l.14,1.13.45.73.29.31,0,0,0,.07.5,1.63,0,.09,0,.09-.76,1.84c-.64.89-1.88,2.84-.74-.31l.69-1.64-.45-1.48-.26-.27,0,0v0l-.51-.81,0-.06v-.06l-.14-1.15-.09-.21-.18-.45-.38.14-.19.19.1.34,0,.1-.09.08-.56.48-.05.56v.06l0,0-.57.7,0,0,0,0-1.23.9-.18-.1,1.07-1.07h0l.51-.63.05-.6,0-.06,0,0,.53-.45L49.85,59l0-.09.07-.07.3-.3,0,0,.05,0,.48-.18-.32-.78,0-.09,0-.1.26-.75-.56-.65L50,55.68l.22-.19,1.12-1,0,0,.05,0,1.29-.59.09-.19-1,.49h0l-1,.14-1.19.62-.9.84h-.05l-2.35.84-.63.89-.1,0,.53-1,0,0,0,0,2.37-.85.89-.82h0l1.23-.64h0l1-.14,1.21-.61.43-1h0l.28-1.26Z" transform="translate(0 0)"/></g></g></g></g></svg>