<svg id="svg13195" xmlns="http://www.w3.org/2000/svg" xmlns:xlink="http://www.w3.org/1999/xlink" viewBox="0 0 110 110"><defs><style>.cls-1{fill:#520;fill-opacity:0;}.cls-2,.cls-3{fill:#fd5;}.cls-10,.cls-11,.cls-12,.cls-2{opacity:0.8;}.cls-10,.cls-11,.cls-12,.cls-13,.cls-14,.cls-15,.cls-16,.cls-17,.cls-18,.cls-19,.cls-2,.cls-3,.cls-7,.cls-8,.cls-9{isolation:isolate;}.cls-3{opacity:0.94;}.cls-4{fill:url(#radial-gradient);}.cls-5{fill:url(#linear-gradient);}.cls-6{fill:url(#linear-gradient-2);}.cls-7{fill:#76797e;}.cls-7,.cls-8{opacity:0.85;}.cls-8{fill:url(#linear-gradient-3);}.cls-12,.cls-9{fill:#999;}.cls-14,.cls-9{opacity:0.9;}.cls-10{fill:#666;}.cls-11{fill:#ccc;}.cls-13{opacity:0.95;fill:url(#linear-gradient-4);}.cls-14{fill:#a6a7a7;}.cls-15{fill:#b3b3b3;}.cls-15,.cls-17,.cls-19{opacity:0.5;}.cls-16{fill:#9c9ea0;opacity:0.67;}.cls-17{fill:#959798;}.cls-18{fill:gray;opacity:0.6;}.cls-19{fill:#dbe3e2;}</style><radialGradient id="radial-gradient" cx="495.86" cy="-564.23" r="50.51" gradientTransform="matrix(0.37, -0.01, -0.02, -0.54, -167.11, -244.85)" gradientUnits="userSpaceOnUse"><stop offset="0" stop-color="#ff0"/><stop offset="1" stop-color="#fea917"/></radialGradient><linearGradient id="linear-gradient" x1="540.99" y1="-998.73" x2="661.02" y2="-880.72" gradientTransform="matrix(0.34, 0, 0, -0.34, -172.75, -270.68)" gradientUnits="userSpaceOnUse"><stop offset="0" stop-color="#ff0"/><stop offset="1" stop-color="#ff0" stop-opacity="0"/></linearGradient><linearGradient id="linear-gradient-2" x1="630.55" y1="-822.25" x2="612" y2="-927.84" gradientTransform="matrix(0.34, 0, 0, -0.34, -172.75, -270.68)" gradientUnits="userSpaceOnUse"><stop offset="0" stop-color="#fff"/><stop offset="1" stop-color="#fff" stop-opacity="0"/></linearGradient><linearGradient id="linear-gradient-3" x1="-662.29" y1="-585.76" x2="-525.9" y2="-543.26" gradientTransform="matrix(0.66, 0, 0, -0.66, 453.74, -322.8)" gradientUnits="userSpaceOnUse"><stop offset="0" stop-color="#57646d"/><stop offset="1" stop-color="#57646d" stop-opacity="0"/></linearGradient><linearGradient id="linear-gradient-4" x1="-934.51" y1="-362.49" x2="-945.75" y2="-306.34" gradientTransform="matrix(0.66, 0, 0, -0.66, 659.1, -172.08)" gradientUnits="userSpaceOnUse"><stop offset="0" stop-color="#ccc"/><stop offset="1" stop-color="gray"/></linearGradient></defs><g id="layer1"><g id="sun_rain" data-name="sun rain"><rect id="rect6741" class="cls-1" width="110" height="110"/><g id="g6664"><g id="g7284"><path id="path7286" class="cls-2" d="M31,9.22l.78,17L29.88,15.7l1.34,10.64-1.35-5.76L29,15.32l.56,4-1.8-7.69,2.46,13.95L27.77,17.2l1.29,6.91L24.59,11l4,14.27-3.42-8.47,1.93,6.68L22.31,13.13l4.51,13.16L23.59,20.8l-1.1-2.13.44,1-3.87-6.57L26,28.25l-.31-.44-5.84-9L22,22.74l-2.43-3.38,3.3,5.79-6.7-9.3,7.23,11.54L19,21.89l4.46,6.56L13,16.53,21.66,27.8l-5.14-5.28,5.73,6.87-9.71-9L23.08,31.8l-4.06-3L9.64,21.6,21.76,32.42,11.7,26.29l1.36,1-.5-.3,3.36,2.49,1.56,1.19L7.13,25.06,17.2,32l-5-2.75,6.08,3.47.7.48L4.48,27l11.18,6.14-5.51-2.36,6.68,3,2.47,1.36L12.52,33,5.58,30.43l5.1,2-1.91-.61,4.3,1.87-3.19-.94,8.88,4-.68-.13L3.42,32.76l11.69,3.32-7-1.34,5.31,1.81-10-1.39,5.09,1.45-.21,0,.24,0L15,38.45l-4.41-.18L8.24,38l1.62.25-8.18-.35,14,2.57-1,0L7,40.35l5.34.28-5,.25,6.23.56-11.12.33,15.22,0,.3,0L9,43l10.58-.5L9.77,43.8,8.37,44l-7.11.91,16.37-1.56L8.28,45.51l7.37-1.06-5.08,1.47-3.08.69,2-.4L4.25,47.74l14.68-2.86L9.08,48,16.28,46,3.79,50.9l15-4.46L8.84,50.71l10.73-4.27L10,51.31l1.4-.57-6.22,3,10.12-4.61,4.26-1.72L11.79,52.3l9.75-5.17-16.15,10L21.05,48l-9,6.86,6.37-4.21-5.67,4.8-1,.76.69-.49L9.25,58.46l13.37-9.84L14,57l2.15-1.72-6.05,6.22,10.38-9.31L22.94,50l-8.1,9.57,4.42-4.31-1.38,1.79-2,2.42.6-.64-3.79,5,10.13-11-.33.53-4.46,6.34,2.16-2.65-6,9.68L23.84,54.1,19.38,62l4-6-5.25,10.4,7.27-12.1,1-1.58L22,62.94l1.7-3.27-3.55,9.16L27.4,53.54,23.79,64.9l2.74-6.84-.36,1.38-1.49,5.22.39-1.07L23.5,69.51l4.11-12L25.82,65l2.25-6L26,71.59l3.06-12.85L28,66.66l1.43-5.37-.91,10,1.24-5.86-.07,1L30,64.4l1.32-6.24L31.39,73l1.76-15.64,1,9.85L34.3,59l1.36,12.08L34.37,56.17l1.75,9.1-.61-8.89L38.82,72,36,56.62l2.72,9.29-.87-5.23L41,69.82,38.18,57l2.17,4.71,1.13,2.92-.66-1.91,3.42,7.43L39.5,55.47l.72,1.25,4,8L41.9,59.63l2.49,4.28-2-4.68,5,8.84L40.51,54.82l5.06,8L38.73,50.6l12,17.07L42.22,54.59l6.07,7.77-5.6-8L52,65.12l-6.22-8,3.67,4.33L42.05,52l7.26,7.13L47.4,56.71l7.81,7.42L43.62,51.83l-.55-.71,8.73,7.09-3.17-3.36,4.23,3.35-2.28-2,5.29,3.86L47,51.53l11.74,6.95L47.45,49.61l6,2.83,2.34,1.26-1.39-.81.92.43L48.75,49.1l11.49,5.46L47,47.7,56,51.18,43.64,45.8,42.39,45l8.25,3,5.59,2-.68-.27,7.15,2.58L48.18,46.53,58,49.23,47.54,45.86l15,3.34-5.15-1.39-8.09-2.38,7.06,1.16-8.1-2.08,16.3,2-16.1-2.7,9.41.61-6.46-1,10.76.16-4.55-.47,1.52,0-3.72-.27-8-.83,6.18-.51,3.72-.16-1.31,0,7.55-.63-17.25-.11,12-1.7-4.47.3,4-.71-5,.44,9.6-1.84-13.81,1.6,8.9-2.07-6.27.83,12-3.52L49.07,37l9-3.06-7.26,1.7,11-4.33-8.52,2.45,2.86-1.1-8.1,2.45L62,28,53.4,31.37l2.87-1.43-9.35,3.84.11-.07,12.42-7-5.57,2.62,1.78-1.13-8.14,4.12-3,1.41L54,27.35,51.9,28.52l1.57-1.08-.64.38,6.24-4.35L44.25,32.29l9.18-7.62-2,1.42,1.53-1.29-7.31,5.32,10.21-9.37L45.71,28.58l4.38-4.35-7.21,6.56,7.2-7.95-.46.42,5.08-5.65L45,26.78l4.12-5-6.85,7.55,6.68-9-2.43,2.77,4.09-5.48L40.86,29.51,40.4,30l5.84-9.92L44,23.32l1.6-2.61L44,23l4.89-8.09L39.52,29l5.14-11.07-2,3.58L44,18.6l-3.86,7.1,5-12.35L39.11,25.41l2.49-7-2.79,6.3L42.88,11l-5.1,13.15,1.88-7.53-2.5,7.55,1.64-8.3-.95,3.35,1.41-7.08-2.53,9.11.84-4.73-1.22,6.11-1.51,5.44.7-7.15L36,17.06l-.05.24.69-7-1.71,9.75.4-5-.65,6.48-1.07,6v-.65L34,10.57l-.42,8.21,0-3L33,24l-.62-7.32.31,11.05L32.49,30l-.06-.33-.85-13.44.14,3.53Z" transform="translate(0 0)"/><path id="path7288" class="cls-3" d="M54.22,42.47A21.34,21.34,0,1,1,32.88,21.14,21.34,21.34,0,0,1,54.22,42.47Z" transform="translate(0 0)"/><g id="g7290"><path id="path7292" class="cls-4" d="M51.25,41.86A18.47,18.47,0,1,1,32.78,23.4,18.47,18.47,0,0,1,51.25,41.86Z" transform="translate(0 0)"/><path id="path7294" class="cls-5" d="M50,41.86a17,17,0,1,1-17-17A17,17,0,0,1,50,41.86Z" transform="translate(0 0)"/><path id="path7296" class="cls-6" d="M50,41.86a17,17,0,1,1-17-17A17,17,0,0,1,50,41.86Z" transform="translate(0 0)"/></g></g><g id="g7082"><path id="path7084" class="cls-7" d="M55.26,63.65C57,66,61,65.9,63.92,65.48c1.74-.25,3.06-1.75,4.66-2.5a21.68,21.68,0,0,1,4.5-1.83c3.8-.8,11.65-.33,11.65-.33s-10,2.4-10.15-1c0-1.4,2.77-.45,4.16-.67s4,2,4.33-.66-.5-2.33.5-2.67a19.17,19.17,0,0,0,2.5-1.16s-2.61-2.09-4-3c-1.23-.8-3.4-.76-3.83-2.16s.8-2.77,1.83-3.67c.8-.69,3.33-.33,3-1a10.38,10.38,0,0,0-2.33-3,16.94,16.94,0,0,0-5-2.17,25,25,0,0,0-5-1.33,25.44,25.44,0,0,0-4,0c-1.89,0-3.94-.44-5.66.33a8.71,8.71,0,0,0-4.17,4.17C54,49.15,51.09,58.07,55.26,63.65Z" transform="translate(0 0)"/><path id="path7086" class="cls-8" d="M44.19,43.7C45.64,42,47.82,40.85,49.13,39c.45-.63.49-1.49.94-2.12.62-.85,1.33-2.37,2.36-2.12,1.3.32.4,2.89,1.41,3.77a4.48,4.48,0,0,0,3.3.7c1-.09,2.31-.29,2.83-1.17.36-.62-.53-1.47-.24-2.12.22-.49-1.86-1,1.29-.94,1.14,0,3,.93,4.6.82,1.36-.1,5.12-1.12,3.88-1.3,1,2-3,3.25-4.59,4.71-.67.6-2.34.79-2.12,1.65s1.88.56,2.83.47a9.4,9.4,0,0,0,3.29-1.17c1-.51,1.72-1.68,2.83-1.89s2,.52,3.06.71,2.52,1.09,3.53.47a2.38,2.38,0,0,0,1-2.59c-.29-.76-1.55-.6-2.12-1.18s-2-1.78-1.42-2.59c.87-1.23,3,.67,4.48.71a14,14,0,0,1,2.12-.24c.17,0,.42.07.47.24.26.88-1.33,1.44-1.41,2.35-.13,1.34,1.82,2.49,1.41,3.77C82.46,41,81,41.38,80,41.82a31.48,31.48,0,0,1-3.53.7,45.74,45.74,0,0,0-5.65,2.12c-.65.28-2,.25-1.89.94.2,1.69,3.26,1.28,5,1.18,2.08-.12,3.8-2.09,5.89-2.12a6.64,6.64,0,0,1,2.82.94c1.44.69,2.44,2.33,4,2.59s3.1-1,4.71-1.17c1.17-.15,2.57-.68,3.53,0S96.6,49.29,96,50.29c-1.1,1.84-4.22.93-6.36,1-1.82,0-4.85-2.44-5.42-.71-.5,1.53,2.71,1.83,4.24,2.35a15.28,15.28,0,0,0,6.12.95,14.06,14.06,0,0,0,2.83-.95c.55-.16,1.25-.87,1.65-.47.75.77-.22,2.28-.94,3.06-1,1.11-2.75,1.37-4.24,1.65a12.87,12.87,0,0,1-3.77,0c-1.76-.19-3.42-1-5.18-1.17a16.66,16.66,0,0,0-3.53,0,29.81,29.81,0,0,0-5,.94c-1.44.37-2.77,1.17-4.24,1.41-1.08.18-2.71.93-3.3,0-.69-1.1,2.28-2.39,1.65-3.53-.92-1.66-3.78-1-5.65-.71a10.56,10.56,0,0,0-4.71,2.36c-1.08.88-1.27,2.83-2.59,3.29-2.28.81-4.68-1.25-7.07-1.64-4.9-.81-12.68,3.06-14.83-1.42-2.24-4.65,5.17-9,8.48-12.95Z" transform="translate(0 0)"/><path id="path7088" class="cls-9" d="M48.1,49.5l5,1,4,1.33,4,.33,3.33-.33a2.43,2.43,0,0,1,1.66-1c1.33-.33.67-.33,2-.67a27.77,27.77,0,0,0,3-1l1-.66s0-.67-1.67-1-2.33-3.33-2.33-3.33a5.16,5.16,0,0,0-3.66-.34c-1.67.67-3.33,2-5.33,2.34s-6-.67-6-.67l-3,2Z" transform="translate(0 0)"/><path id="path7090" class="cls-10" d="M25.28,57.49l3.5-1.33,2.83,1.16a3,3,0,0,1,1.5-1.16c.83-.17,2.5.83,3.16.83s-3.66,0,2,.33,5.5,1,5.33.17-2.16-2.66.5-2.17l2.67.5,4-1L55.26,57l2,.17a18.68,18.68,0,0,1,3.83,1c.83.5,3.83.33.83.5s-2.5-1.17-4.16.49a7.89,7.89,0,0,1-4.33,2.5c-.84,0-2.67-.5-4.17-.5s-2.66-.33-3.33.17-1.16,1.83-2.5,1.5-5-1.33-5-1.33H36.77l-3-.67a1.74,1.74,0,0,0-1-1.17,15.71,15.71,0,0,0-3-.5l-2-.16Z" transform="translate(0 0)"/><path id="path7092" class="cls-11" d="M54.59,49.16l9.49,1s3.5-1.83,4-1.66l3.33,1s3.66-.17,4.5-.34,6.66-.83,6.66-.83,4.33,2.33,5,2.33,8.83.83,8.83.83l10.66,1.67L96.89,54.49l-10.82-.33L80.4,54l-12,2-8-1.16L46.6,56Z" transform="translate(0 0)"/><path id="path7094" class="cls-12" d="M40.44,56.82c1.49,2.07,5.15.5,7.66,0,1.41-.28,2.55-1.59,4-1.66s2.83,1.18,4.33,1.33a10.13,10.13,0,0,0,3.33-.33c1.75-.43,3.24-1.66,5-2a26.1,26.1,0,0,1,5,0,21.3,21.3,0,0,0,3.66,0c2-.34,3.69-1.66,5.66-2,1.31-.22,3.2,1.06,4,0,.48-.64,3.55-.6,2.86-1-1.22-.78-6.47-.17-7.86-.62-.89-.3-6.85.33-3.76-2.24-.72-4.14-5.14,4-8.89,3.9-1.55,0-4.35-.12-4.33-1.66,0-1.3,2.86-.31,3.66-1.34.68-.88,1-2.47.33-3.33-.85-1-2.68-.07-4-.33-3.21-.64-6.54-1.3-9.33-3-1.07-.65-1.41-2.68-2.66-2.66-2.28,0-3.5,3-4.67,5C42.28,48.45,38,53.41,40.44,56.82Z" transform="translate(0 0)"/><path id="path7096" class="cls-13" d="M53.13,33.1c-2.61,0-3.27,5-5.87,5.19-1.2.1-1.88-1.78-3.07-1.89-4.61-.44-8.39,4.3-13,4.94-1.79.25-3.62-.83-5.39-.47-2.17.43-7.84.45-7.31,2.6.37,1.52,5.64-1,6.11.47s-2.9,1.33-3.75,2.59c-.41.6.1,1.66-.47,2.11-2.17,1.69-4.1.79-6.83,1.06s-9.36-2.16-9.43.58c0,1.39,2.72.64,4,1.2a7.49,7.49,0,0,1,2.36,1.4c.33.32.3,1,.71,1.18,2.22,1.17,5-.66,7.54-.48a23.16,23.16,0,0,1,5.64,1.2c2.64.87,4.91,2.65,7.55,3.52,1.14.38,2.83-.28,3.52.7.86,1.24-1.84,3.48-.7,4.47,1.42,1.24,3.55-1.37,5.42-1.65a19.68,19.68,0,0,1,5.42,0,22.17,22.17,0,0,1,5.17,1.43c1.4.55,2.6,1.54,4,2.12,2.73,1.13,5.57,3,8.49,2.6,2.17-.35,19.55-5.37,5.42-3.78-.41-2.5-1.76.54-7.32-2.12-1.35-.64-3.63,1-4.47-.25-.7-1,.32-2.62,1.18-3.52s3.18-.21,3.54-1.42c.27-.92-1-1.65-1.65-2.35-.83-.9-1.6-2.25-2.82-2.35-1.55-.13-2.67,1.59-4,2.35A8.73,8.73,0,0,1,50.55,56c-1.41.24-3.29.35-4.24-.72s.06-3-.25-4.47c-.14-.66-1-1.29-.7-1.88.88-1.62,3.63-.72,5.42-1.17,3.09-.77,6.15-1.68,9.19-2.6,2.21-.66,2.6-1.31,6.6-2.12.6-1,7.33-1.79,6.34-2.46s-9.73-.62-11.06-.36c-1.5.29-3,.68-4.48.94s-3.74,1.86-4.94.71-.17-3.28.47-4.72c1.32-1.24,9.4,1.18.23-4ZM24.4,51.83l2.6.35,3.17,1.17,1.88.6,1.54.7-.59.58-1.53-.35-2.24-.58-1.76-1.07-2.37-1Z" transform="translate(0 0)"/><path id="path7098" class="cls-9" d="M36.11,62.15c1.86.48,3.16.06,4.66,0s2.94-.22,4.33-.33a33.88,33.88,0,0,0,4-.33c1.39-.27,3.31-.56,4.33-1.34s2.3-1.33,1.66-2.66-4.21-.2-5.66-.67-1.78-1.14-3-1.66-3-1.47-4.33-1.33-2,.94-3,1.66-1.46,2-3,2.67-5.57-1.44-6,.66,4.14,2.85,6,3.33Z" transform="translate(0 0)"/><path id="path7100" class="cls-14" d="M71.41,45.5l4,1.66,2.66-1.66,2.67.67,3.66,1.66,3,1a3.09,3.09,0,0,1-2.33.33c-1.34-.33-4.33-.66-4.33-.66l-4.33,2-2.67-.67L71.41,48.5Z" transform="translate(0 0)"/><path id="path7102" class="cls-15" d="M53.26,55.66l4.66-.34,3.33.67,5-.17,4.66-.66-4-.5s-2.49.17-3.49.33-3.67-.66-4.5-.66h-2.5a8.32,8.32,0,0,0-3.16,1.33Z" transform="translate(0 0)"/><path id="path7104" class="cls-16" d="M55.42,38.17l1.67-1,.5-1.5,1.66.5.67.34v2H58.59l-1.83,1.33Z" transform="translate(0 0)"/><path id="path7106" class="cls-17" d="M70.75,54l4.66-.33,3.33.67,5-.17,4.67-.67-4-.5s-2.5.17-3.5.34-3.66-.67-4.49-.67h-2.5A8.32,8.32,0,0,0,70.74,54Z" transform="translate(0 0)"/><path id="path7108" class="cls-17" d="M65.75,40.5l4.66-.33,3.33.67,5-.17L83.4,40l-4-.5s-2.49.17-3.49.34-3.67-.67-4.5-.67h-2.5a8.32,8.32,0,0,0-3.16,1.33Z" transform="translate(0 0)"/><path id="path7110" class="cls-15" d="M51.43,61.82l4.66-.33,3.33.66,5-.16,4.66-.67-4-.5s-2.49.17-3.49.33-3.67-.66-4.5-.66h-2.5a8.32,8.32,0,0,0-3.16,1.33Z" transform="translate(0 0)"/><path id="path7112" class="cls-17" d="M12.46,55.32,17.12,55l3.33.67,5-.17,4.66-.66-4-.5s-2.5.16-3.5.33S19,54,18.12,54h-2.5a8.32,8.32,0,0,0-3.16,1.33Z" transform="translate(0 0)"/><path id="path7114" class="cls-18" d="M31.28,47.5l2.66-1.67,1.83.17,3-1h3.67l2.83-.33-1.5,2.16-2.67-.5L37.94,47l-2.83,1Z" transform="translate(0 0)"/></g></g></g></g><path id="path6386" class="cls-19" d="M64.77,89.08c-.2.12-.13.13-.64-.09-.25-.11-.49-.21-.53-.24s-.15,0-.3,0l-.13.06.09.06.22.15.61.4s0,0,0,.08l0,.07-.1.07a.3.3,0,0,1-.19.08,1.93,1.93,0,0,1-.48-.15l-.34-.13-.51-.22c-.07,0-.07,0-.2,0s-.16.1-.1.1l.11.06a2.13,2.13,0,0,0,.25.17,1,1,0,0,1,.15.12l-.3.14a1.88,1.88,0,0,0-.29.14,1.09,1.09,0,0,0,.27.22l.63-.11c.82-.14.81-.14.92-.08s.14.12.1.19-.11.11-.51.26l-.47.17-.07,0a1.12,1.12,0,0,0,.28.25l.15,0,.28,0,.5-.1a.35.35,0,0,1,.34.06c0,.05,0,.06,0,.11s-.07.16-.44.29a2.24,2.24,0,0,0-.34.14s.09.09.2.2.28.26.28.42v.12l-.12.06c-.2.11-.2.11-.46-.06L63.49,92a3.55,3.55,0,0,0,0,.37v.37l-.06.07-.06.08-.1,0c-.14,0-.18-.07-.19-.11a4.48,4.48,0,0,1-.1-.58c-.08-.57-.08-.54-.14-.6a1,1,0,0,0-.19-.13,3.49,3.49,0,0,0,0,.44c0,.68,0,.61-.06.7l-.07.08-.11,0c-.09,0-.12,0-.15-.11S62.1,92,62,91.27c0-.33-.06-.35-.14-.39a.48.48,0,0,1-.14-.09l-.06-.05V91c0,.13,0,.26,0,.28s0,.17,0,.18a1.44,1.44,0,0,1-.41-.25c-.07-.06-.14-.1-.14-.09a1.37,1.37,0,0,0,0,.25.16.16,0,0,0,0,.11l.11.13.15.17a1,1,0,0,1,.14.15s.16.17.27.29c.33.36.34.37.31.56s0,.07-.1.1l-.13,0a2.29,2.29,0,0,1-.55-.4,3.29,3.29,0,0,0-.32-.24s0,0,0,.06a1.21,1.21,0,0,1,0,.18c0,.1,0,.12,0,.16s.09.09.13.15l.17.19c.16.18.39.44.41.48a.45.45,0,0,1,0,.28s-.21.13-.21.1a0,0,0,0,0,0,0s-.12-.07-.41-.33l-.2-.18v.08s0,.16,0,.28,0,.22,0,.24a.68.68,0,0,1-.28.18s-.09,0-.22-.14l-.08-.07v-.3a1.23,1.23,0,0,0,0-.3l-.21.11-.26.15-.13.08c-.06,0-.07,0-.18,0s-.16-.06-.16-.19,0-.09.47-.5l.37-.34.11-.1v-.19a.63.63,0,0,0,0-.19l-.09,0a1.71,1.71,0,0,1-.17.11l-.38.24-.28.17h-.1c-.12,0-.14,0-.15-.17a.14.14,0,0,1,0-.11l.13-.11.15-.14c.09-.07.85-.77.88-.8a.54.54,0,0,0,0-.18c0-.15,0-.16,0-.16l-.11,0-.43.21a2.44,2.44,0,0,1,0-.58c0-.07,0-.08,0-.08a.51.51,0,0,0-.27.11s-.13.37-.26.77l-.23.73-.12.06-.12,0-.09-.08c-.08-.09-.08-.09-.07-.2a1.51,1.51,0,0,1,0-.26l.08-.42c0-.16.05-.28.05-.29l-.32.12a.74.74,0,0,0-.1.23l-.09.25A3.46,3.46,0,0,1,58,92c-.09.31-.14.42-.19.42l-.08,0c-.06,0-.06,0-.15,0s-.08-.1-.08-.15,0-.29.08-.49a1.07,1.07,0,0,0,0-.25s-.06,0-.12,0l-.11,0-.14.06-.17.06a.75.75,0,0,1-.3-.08l-.08,0v-.13c0-.15.05-.22.12-.25l.12-.07a1,1,0,0,1,.2-.12.65.65,0,0,0,.14-.09l-.06,0-.5-.29a.41.41,0,0,1-.18-.21c0-.1,0-.1.13-.19a.23.23,0,0,1,.2,0l.13,0,.17.06.42.16a1.69,1.69,0,0,0,.32.11.93.93,0,0,0,.33-.17,3.45,3.45,0,0,0-.67-.37c-.27-.15-.31-.17-.34-.24s0-.13.1-.21.17-.07.43,0,.16,0,.18,0,.07,0,.06,0a0,0,0,0,0,0,.06l.07,0,.45.17A2.24,2.24,0,0,0,59,90c.13,0,.32-.19.24-.19a.55.55,0,0,1-.13-.08l-.26-.19-.15-.12a.12.12,0,0,1,.08-.05l.54-.23s0,0-.06-.11a.67.67,0,0,0-.17-.12c-.08,0-.12,0-1.12.17l-.41.07a.54.54,0,0,1-.16-.06c-.08,0-.1-.07-.09-.1a.22.22,0,0,1,.15-.18l.16-.06.11,0s.06,0,.06,0,0,0,0,0,.07,0,.14,0l.29-.12.18-.08a1.34,1.34,0,0,0-.24-.23.16.16,0,0,0-.15,0,6,6,0,0,0-.64.15c-.41.11-.41.11-.51.07s-.15-.08-.11-.19,0-.11.47-.29l.3-.13s0-.07-.26-.24-.23-.2-.22-.41V87l.12,0c.26-.06.28-.06.46,0a1.08,1.08,0,0,1,.28.16l0,0a2.3,2.3,0,0,0,0-.36v-.37l.08-.1c.11-.11.15-.13.23-.08s.12.11.15.31.13.76.16.9.05.08.15.15l.16.1a5.58,5.58,0,0,0,0-.85v-.11l.1-.12c.11-.13.16-.14.28-.07s.1.09.14.35l.12.76c.09.51.08.49.11.52a.4.4,0,0,0,.13.09c.14.08.14.08.14.06a.88.88,0,0,1,0-.18c0-.1,0-.23,0-.3a.33.33,0,0,1,0-.14s.11,0,.32.17.21.15.22.13a.5.5,0,0,0,0-.14c0-.11,0-.12,0-.18l-.1-.14-.21-.29-.3-.4-.2-.26a.26.26,0,0,1-.06-.28l0-.11h.12c.16,0,.19,0,.58.38a3,3,0,0,0,.32.29.52.52,0,0,0,.05-.12.37.37,0,0,0,0-.32.27.27,0,0,1,0-.07,4,4,0,0,0-.22-.41,4.8,4.8,0,0,1-.23-.45.26.26,0,0,1,0-.16c0-.08,0-.1.1-.11a.27.27,0,0,1,.24.06,4.3,4.3,0,0,1,.4.46s.06.07.07.06a1.67,1.67,0,0,0,.09-.22c.11-.32.1-.31.38-.4l.1,0,.11.11.12.16a.8.8,0,0,1,0,.21l-.07.23,0,.1s0,0,0,0l.19-.06.13,0,.06,0,.2,0,.15,0,.07.08a.28.28,0,0,1,.06.3c0,.12-.06.14-.15.15a.67.67,0,0,0-.18.07,5.2,5.2,0,0,1-.71.23s0,0-.06.16a.81.81,0,0,0,0,.17s0,0,.09,0l.6-.29c.18-.09.23-.11.28-.1s.16.06.18.16,0,.17-.15.26l-.52.38c-.47.32-.57.4-.59.49a.5.5,0,0,0,0,.18v.1l.07,0a.41.41,0,0,1,.11-.06l.22-.09.17-.08s0,.08,0,.18l0,.29a.69.69,0,0,0,0,.22,1.06,1.06,0,0,0,.28-.1.9.9,0,0,0,.12-.24.87.87,0,0,1,.06-.15c0-.1.18-.43.31-.77s.12-.31.23-.34.17,0,.24,0,.08.14,0,.47l-.07.33A.74.74,0,0,1,63,88c0,.2,0,.2.08.15L63.2,88a2,2,0,0,0,.21-.47l.13-.33s0-.1.06-.16,0-.13.14-.17.2-.07.28,0,.07.07,0,.48-.09.35,0,.34l.24-.07.24-.07a.46.46,0,0,1,.27.12l.07.05,0,.13c0,.11-.09.21-.13.21l-.11.05-.23.12-.14.08a2.44,2.44,0,0,0,.31.22c.33.21.35.23.39.38s0,.06-.06.1Z" transform="translate(0 0)"/><path id="path6386-2" data-name="path6386" class="cls-19" d="M55.52,90c-.2.12-.13.13-.64-.09l-.53-.24c-.1,0-.15,0-.3,0l-.13.06.08.06.23.15c.13.08.58.37.61.4s0,0,0,.08l0,.07-.1.07a.37.37,0,0,1-.19.08,1.81,1.81,0,0,1-.48-.15l-.34-.13-.51-.22c-.07,0-.08,0-.2,0s-.16.09-.11.09a.57.57,0,0,1,.12.07l.24.17a.82.82,0,0,1,.16.12l-.3.14a1.88,1.88,0,0,0-.29.14,1.09,1.09,0,0,0,.27.22L53.8,91c.83-.14.82-.14.93-.08s.14.12.1.19-.12.11-.51.25l-.47.18s-.07,0-.07,0a1.12,1.12,0,0,0,.28.25l.15,0,.28,0,.5-.1a.35.35,0,0,1,.34.06c.05.05.05.06,0,.11s-.07.16-.44.29a2.24,2.24,0,0,0-.34.14l.2.19c.25.23.28.27.28.42V93l-.12.07c-.2.11-.2.11-.47-.06l-.24-.14a1.85,1.85,0,0,0,0,.37v.37l-.06.07-.06.07-.1,0c-.14,0-.18-.07-.2-.11s-.06-.34-.09-.58c-.09-.57-.08-.54-.14-.6a1,1,0,0,0-.19-.13,3.49,3.49,0,0,0,0,.44c0,.68,0,.61-.06.7l-.07.08-.11,0c-.1,0-.12,0-.15-.11a10,10,0,0,1-.24-1.19c0-.33-.06-.35-.14-.39a.48.48,0,0,1-.14-.09l-.06-.05v.23c0,.13,0,.26,0,.28s0,.17,0,.18a1.44,1.44,0,0,1-.41-.25c-.07-.06-.14-.1-.14-.09a1.22,1.22,0,0,0,0,.25.16.16,0,0,0,0,.11l.11.13.15.17.14.15s.16.16.27.29c.33.36.34.37.31.56s0,.07-.1.1l-.13,0a2.47,2.47,0,0,1-.56-.4l-.31-.24s0,0,0,.06a1.21,1.21,0,0,1,0,.18c0,.1,0,.12,0,.16l.13.15.17.19a5.73,5.73,0,0,1,.41.48.45.45,0,0,1,0,.28s-.21.12-.21.1a0,0,0,0,0,0,0s-.12-.07-.41-.34l-.2-.17v.08s0,.16,0,.28,0,.22,0,.24a.8.8,0,0,1-.28.18s-.09,0-.22-.14l-.09-.07v-.3a1.23,1.23,0,0,0,0-.3l-.21.11-.26.15-.13.07c-.07,0-.08,0-.18,0s-.17-.06-.16-.19,0-.09.47-.5l.37-.34.11-.1v-.19a.63.63,0,0,0,0-.19l-.09,0a1.71,1.71,0,0,1-.17.11l-.38.23-.28.18h-.1c-.12,0-.15,0-.15-.17s0-.09,0-.11l.13-.11A1,1,0,0,1,50,93l.88-.8a.54.54,0,0,0,0-.18c0-.15,0-.16,0-.16l-.11,0-.43.21a2.53,2.53,0,0,1,0-.59c0-.06,0-.07,0-.07a.51.51,0,0,0-.27.11s-.13.37-.26.77l-.23.73-.12.06-.12,0-.09-.08c-.08-.09-.08-.09-.07-.2a1.51,1.51,0,0,1,0-.26l.08-.42c0-.16.05-.28.05-.29l-.32.12a.74.74,0,0,0-.1.23l-.09.25s-.05.17-.11.34-.15.41-.19.42l-.08,0c-.06,0-.06,0-.15-.06a.21.21,0,0,1-.09-.14,3.88,3.88,0,0,1,.09-.5,2.42,2.42,0,0,0,0-.24s-.06,0-.12,0l-.11,0-.14.06-.17.06a1.09,1.09,0,0,1-.31-.08l-.07,0v-.13c0-.16.05-.22.12-.25l.12-.07a1,1,0,0,1,.2-.12.65.65,0,0,0,.14-.09l-.06,0-.5-.29a.45.45,0,0,1-.18-.21c0-.1,0-.1.13-.19a.23.23,0,0,1,.2,0l.13,0,.17.06.41.16a1.7,1.7,0,0,0,.33.11.88.88,0,0,0,.32-.17,2.9,2.9,0,0,0-.66-.38c-.27-.14-.31-.16-.34-.23s0-.13.09-.21.18-.07.44,0,.16,0,.18,0,.07,0,.06,0,0,.05,0,.05l.08,0,.45.17a2.07,2.07,0,0,0,.45.13c.13,0,.32-.19.24-.19a.55.55,0,0,1-.13-.08l-.26-.19c-.08-.06-.15-.11-.15-.13a.19.19,0,0,1,.08,0l.54-.23s0,0-.07-.11a.83.83,0,0,0-.16-.13c-.08,0-.12,0-1.12.18L48.3,90a.54.54,0,0,1-.16-.06c-.08,0-.1-.07-.09-.1a.22.22,0,0,1,.15-.18l.16-.07.11,0,.06,0s0,0,0,0,.07,0,.14,0l.29-.11.18-.08a1.18,1.18,0,0,0-.25-.23.12.12,0,0,0-.14,0,6,6,0,0,0-.64.15c-.41.11-.41.11-.51.07s-.15-.08-.12-.19,0-.11.48-.29l.3-.13s0-.07-.26-.24-.23-.2-.22-.41v-.17l.12,0c.26-.07.28-.06.46,0a1.31,1.31,0,0,1,.28.17l0,0a1.87,1.87,0,0,0,0-.37V87.3l.08-.1c.11-.11.15-.13.23-.08s.12.11.15.31.13.76.16.9,0,.08.15.14l.16.11a5.58,5.58,0,0,0,0-.85v-.12l.1-.11c.11-.13.15-.14.27-.07s.11.09.15.35,0,.37.12.76.08.49.11.52a.4.4,0,0,0,.13.09c.14.08.14.08.14.06a1.74,1.74,0,0,1,0-.18c0-.1,0-.23,0-.3a1.38,1.38,0,0,1,0-.14s.12,0,.33.17.21.15.22.13a.5.5,0,0,0,0-.14c0-.11,0-.13,0-.18l-.1-.14-.21-.29c-.09-.11-.22-.29-.3-.41l-.2-.25a.26.26,0,0,1-.06-.28l0-.11h.13c.16,0,.19,0,.57.39a3.76,3.76,0,0,0,.33.29.32.32,0,0,0,0-.13.35.35,0,0,0,0-.32.15.15,0,0,1,0-.06,4,4,0,0,0-.22-.41c-.12-.22-.22-.42-.23-.45a.32.32,0,0,1,0-.16c0-.09.05-.1.11-.11a.24.24,0,0,1,.24.06,3.43,3.43,0,0,1,.4.46s.06.07.07.06a1.67,1.67,0,0,0,.09-.22c.11-.32.1-.31.37-.4l.11,0,.11.11a.26.26,0,0,1,.08.37l-.07.22,0,.11s0,0,0,0l.19-.05.13,0h.06l.2,0,.15,0,.07.08a.28.28,0,0,1,.06.3c0,.12-.06.14-.15.15l-.18.06a4.56,4.56,0,0,1-.71.24s0,0-.06.16a.41.41,0,0,0,0,.17s0,0,.09,0l.6-.3c.18-.08.23-.1.28-.09s.16.06.17.16,0,.17-.14.26l-.52.38c-.47.32-.57.4-.59.48a.58.58,0,0,0,0,.19V89l.07,0,.11,0,.21-.09.18-.08s0,.08,0,.18l0,.29a.69.69,0,0,0,0,.22.84.84,0,0,0,.28-.11.68.68,0,0,0,.12-.24s0-.07.06-.14.18-.43.31-.78.12-.3.23-.33.17,0,.24,0,.07.13,0,.46c0,.15-.07.3-.07.34s0,.12,0,.18,0,.2.08.15l.14-.06a2,2,0,0,0,.21-.47l.12-.33.07-.16c0-.11,0-.13.14-.17s.2-.07.28,0,.07.08,0,.49-.09.35,0,.34l.24-.07a1.21,1.21,0,0,1,.24-.07.49.49,0,0,1,.27.12l.07.05,0,.12c0,.12-.09.22-.13.22l-.11,0-.23.12-.15.08s.15.1.32.22.35.23.38.38,0,.06,0,.1Z" transform="translate(0 0)"/><path id="path6386-3" data-name="path6386" class="cls-19" d="M49.36,102.24c-.2.13-.13.14-.64-.08l-.53-.24c-.1,0-.15,0-.3,0l-.13.06.08.06.23.15.61.39a.49.49,0,0,0,0,.09l0,.07-.11.07a.29.29,0,0,1-.18.07,2.39,2.39,0,0,1-.49-.14l-.33-.14c-.27-.1-.34-.14-.51-.21s-.08,0-.2,0-.16.09-.11.09a.41.41,0,0,1,.12.07l.24.17.16.11a2.34,2.34,0,0,1-.3.14l-.29.14a1.27,1.27,0,0,0,.26.22l.63-.1c.83-.15.82-.15.93-.08s.14.11.1.18-.12.11-.51.26l-.48.18s-.06,0-.06,0a1.6,1.6,0,0,0,.27.25l.16,0,.28,0,.5-.1a.31.31,0,0,1,.33.06c.06,0,.06.05,0,.11s-.07.16-.44.29l-.35.13.21.2c.25.23.28.26.28.42v.12l-.11.07c-.2.11-.2.11-.47-.06l-.24-.15a2.09,2.09,0,0,0,0,.38v.37l-.06.07-.06.07-.1,0c-.14,0-.18-.07-.2-.11s-.06-.35-.09-.58c-.09-.57-.08-.55-.14-.6l-.19-.14a3.59,3.59,0,0,0,0,.45c0,.67,0,.61-.06.7l-.07.08-.11,0c-.1,0-.13-.06-.15-.11a10,10,0,0,1-.24-1.19c0-.34-.06-.35-.15-.39l-.13-.09-.06,0v.23c0,.13,0,.25,0,.27s0,.17,0,.19-.16-.08-.41-.26l-.14-.09a.86.86,0,0,0-.05.26.16.16,0,0,0,.05.11l.11.13s.1.12.15.16l.14.15.27.3c.33.36.33.36.3.55s0,.08-.09.11a.25.25,0,0,1-.14,0,2.19,2.19,0,0,1-.55-.39,3,3,0,0,0-.31-.25s0,0,0,.07,0,.11,0,.18,0,.11,0,.16l.13.15.16.19a4.71,4.71,0,0,1,.42.48.41.41,0,0,1,0,.27S46,107,46,107a0,0,0,0,0,0,0s-.12-.08-.42-.34l-.19-.17v.07a2.51,2.51,0,0,0,0,.29l0,.23a.77.77,0,0,1-.28.19s-.09,0-.22-.14l-.09-.07v-.3a1.34,1.34,0,0,0,0-.31l-.21.12-.26.14-.13.08c-.07,0-.08,0-.18,0s-.17-.07-.16-.19,0-.09.47-.51l.37-.33.1-.1,0-.19a.67.67,0,0,0,0-.2l-.09,0-.17.1-.38.24-.28.18h-.11c-.11,0-.14,0-.14-.17s0-.09,0-.11l.12-.11.16-.14.88-.8a1,1,0,0,0,0-.19c0-.15,0-.15,0-.15l-.11,0-.43.2a2.78,2.78,0,0,1,0-.58c0-.07,0-.07,0-.07a.51.51,0,0,0-.27.11s-.13.37-.26.77l-.23.73-.12.05-.12.06-.09-.09c-.09-.08-.09-.08-.07-.19a1.38,1.38,0,0,1,0-.26l.08-.43c0-.15,0-.28,0-.28a2.12,2.12,0,0,0-.33.11,1.38,1.38,0,0,0-.1.24,1.21,1.21,0,0,1-.08.24,3.26,3.26,0,0,1-.11.35c-.09.3-.15.41-.2.41l-.07,0c-.06,0-.06,0-.15-.05s-.09-.09-.09-.14a3.6,3.6,0,0,1,.09-.5.76.76,0,0,0,0-.25l-.11,0-.12,0-.13.06a.53.53,0,0,1-.18.07.83.83,0,0,1-.3-.09l-.07,0v-.14c0-.15,0-.21.12-.24l.12-.07a1,1,0,0,1,.2-.12.48.48,0,0,0,.13-.09s0,0-.05,0l-.5-.3a.34.34,0,0,1-.18-.21c0-.09,0-.09.13-.18s.09,0,.2,0l.13,0,.17.06.41.16a1.6,1.6,0,0,0,.32.1.85.85,0,0,0,.33-.16,3.29,3.29,0,0,0-.66-.38c-.27-.14-.31-.17-.34-.24s0-.13.09-.2.18-.08.44,0,.16.05.18,0,.07,0,.06,0,0,0,0,0l.08,0,.45.16a1.56,1.56,0,0,0,.45.13c.13,0,.32-.18.23-.18a.43.43,0,0,1-.12-.09l-.26-.18a.54.54,0,0,1-.15-.13l.08,0,.54-.22s0,0-.07-.11a.83.83,0,0,0-.16-.13c-.08,0-.12,0-1.13.17l-.4.08a.54.54,0,0,1-.16-.06c-.09-.06-.1-.07-.09-.11S42,102,42,102l.16-.07.11,0s0,0,0,0,0,0,0,0a.4.4,0,0,0,.13,0l.3-.11a.65.65,0,0,0,.18-.09,2.17,2.17,0,0,0-.25-.23.17.17,0,0,0-.14,0,4.07,4.07,0,0,0-.64.16c-.41.11-.41.11-.51.07s-.15-.08-.12-.19,0-.11.48-.29l.3-.13s0-.07-.26-.24-.23-.2-.22-.42v-.16l.12,0c.26-.06.28-.06.46,0a1.48,1.48,0,0,1,.27.16l0,0a1.91,1.91,0,0,0,0-.37v-.36l.09-.1c.1-.12.15-.13.23-.08s.12.11.15.31.13.76.15.89,0,.08.16.15l.16.1s0-.59,0-.84v-.12l.1-.11c.11-.13.15-.14.27-.08s.11.1.15.36,0,.37.12.76.08.49.11.52l.13.09c.14.08.14.08.14.06a.69.69,0,0,1,0-.19c0-.09,0-.22,0-.29s0-.14,0-.15.12,0,.33.18.21.15.22.13a.61.61,0,0,0,0-.14c0-.11,0-.13,0-.18s-.07-.1-.11-.15a3.09,3.09,0,0,0-.21-.29l-.29-.4-.2-.25a.26.26,0,0,1-.06-.28l0-.11h.13c.16,0,.18,0,.57.39a2,2,0,0,0,.33.28.49.49,0,0,0,0-.12.35.35,0,0,0,0-.32.27.27,0,0,1,0-.07L45,99.11c-.12-.21-.22-.41-.23-.44a.32.32,0,0,1,0-.16c0-.09,0-.1.11-.11a.27.27,0,0,1,.24,0s.21.23.4.47c0,0,.06.06.07,0a.89.89,0,0,0,.08-.21c.11-.32.11-.31.38-.4l.11,0,.11.11c0,.06.11.13.11.16a.48.48,0,0,1,0,.21l-.07.22,0,.11s0,0,.05,0l.18-.05.14,0,.06,0,.19,0L47,99l.07.08a.3.3,0,0,1,.06.31c0,.12-.06.13-.16.15l-.18.06a4.17,4.17,0,0,1-.7.24c-.05,0-.05,0-.06.16a.43.43,0,0,0,0,.17s0,0,.08,0l.61-.29c.17-.08.22-.1.28-.09s.16.06.17.16,0,.16-.14.26l-.53.37c-.46.33-.56.41-.58.49a.36.36,0,0,0,0,.18v.11l.07,0,.12,0,.21-.1.18-.08s0,.09,0,.18,0,.18-.05.3a.65.65,0,0,0,0,.21.63.63,0,0,0,.28-.1.77.77,0,0,0,.12-.24s0-.07.06-.14.18-.43.31-.78.12-.3.23-.34.17,0,.24,0,.07.13,0,.46c0,.15-.07.3-.07.33s0,.13,0,.19,0,.2.08.14l.14-.05a2,2,0,0,0,.21-.48l.12-.33.07-.16c0-.1.05-.12.13-.16s.2-.07.28,0,.08.07,0,.49-.09.35,0,.34l.24-.08a1.05,1.05,0,0,1,.24-.07.52.52,0,0,1,.27.13l.06,0,0,.12c0,.12-.09.21-.14.22a.29.29,0,0,0-.1,0l-.24.12-.14.08s.15.1.32.21.34.23.38.39,0,.06-.06.09Z" transform="translate(0 0)"/><path id="path6386-4" data-name="path6386" class="cls-19" d="M59.69,102.24c-.21.13-.14.14-.65-.08l-.53-.24c-.1,0-.15,0-.3,0l-.13.06.09.06.22.15.61.39a.26.26,0,0,1,0,.09l0,.07-.1.07a.34.34,0,0,1-.19.07,2.33,2.33,0,0,1-.48-.14l-.34-.14-.51-.21c-.07,0-.07,0-.2,0s-.16.09-.1.09l.11.07a2.13,2.13,0,0,0,.25.17l.15.11a1.75,1.75,0,0,1-.3.14l-.29.14a1.09,1.09,0,0,0,.27.22l.63-.1c.82-.15.81-.15.92-.08s.14.11.1.18-.11.11-.51.26l-.47.18s-.07,0-.07,0a1.35,1.35,0,0,0,.28.25l.16,0,.27,0,.5-.1a.33.33,0,0,1,.34.06s0,.05,0,.11-.07.16-.44.29l-.34.13a1.62,1.62,0,0,0,.2.2c.26.23.28.26.28.42v.12l-.12.07c-.2.11-.2.11-.46-.06a2.3,2.3,0,0,0-.25-.15s0,.18,0,.38v.37l-.06.07-.06.07-.1,0c-.14,0-.18-.07-.19-.11a4.85,4.85,0,0,1-.1-.58c-.08-.57-.08-.55-.14-.6l-.19-.14a3.59,3.59,0,0,0,0,.45c0,.67,0,.61-.06.7l-.07.08-.11,0c-.09,0-.12-.06-.15-.11s-.12-.51-.24-1.19c0-.34-.06-.35-.14-.39l-.14-.09-.06,0v.23c0,.13,0,.25,0,.27s0,.17,0,.19a1.45,1.45,0,0,1-.42-.26l-.14-.09a1.33,1.33,0,0,0-.05.26.16.16,0,0,0,.05.11l.11.13.15.16.14.15.27.3c.33.36.34.36.31.55s0,.08-.1.11a.23.23,0,0,1-.13,0,1.86,1.86,0,0,1-.55-.39,2.63,2.63,0,0,0-.32-.25s0,0,0,.07a1.36,1.36,0,0,1,0,.18c0,.1,0,.11,0,.16A1.16,1.16,0,0,1,56,106l.17.19a5.73,5.73,0,0,1,.41.48.41.41,0,0,1,0,.27s-.21.13-.21.11a0,0,0,0,0,0,0s-.12-.08-.41-.34l-.2-.17v.07s0,.17,0,.29a2.24,2.24,0,0,1,0,.23.7.7,0,0,1-.28.19s-.09,0-.22-.14l-.08-.07v-.3a1.34,1.34,0,0,0,0-.31l-.21.12-.26.14-.13.08c-.06,0-.07,0-.18,0s-.16-.07-.16-.19,0-.09.47-.51l.37-.33.11-.1v-.19a.67.67,0,0,0,0-.2l-.09,0-.17.1-.38.24-.28.18H54c-.12,0-.14,0-.15-.17a.14.14,0,0,1,0-.11l.13-.11.15-.14c.09-.07.85-.77.88-.8a.56.56,0,0,0,0-.19c0-.15,0-.15,0-.15l-.11,0-.43.2a2.46,2.46,0,0,1,0-.58c0-.07,0-.07,0-.07a.51.51,0,0,0-.27.11s-.13.37-.26.77l-.23.73-.12.05-.12.06-.09-.09c-.08-.08-.08-.08-.07-.19a1.38,1.38,0,0,1,0-.26l.08-.43c0-.15,0-.28,0-.28a1.74,1.74,0,0,0-.32.11.86.86,0,0,0-.1.24,1.85,1.85,0,0,1-.09.24,3.26,3.26,0,0,1-.11.35c-.09.3-.14.41-.19.41l-.08,0s-.06,0-.14-.05-.09-.09-.09-.14,0-.29.08-.5a1,1,0,0,0,0-.25.38.38,0,0,0-.12,0l-.11,0-.14.06a.59.59,0,0,1-.17.07.78.78,0,0,1-.3-.09l-.08,0v-.14c0-.15,0-.21.12-.24l.12-.07a1,1,0,0,1,.2-.12.65.65,0,0,0,.14-.09s0,0-.06,0l-.5-.3a.37.37,0,0,1-.18-.21c0-.09,0-.09.13-.18s.09,0,.2,0l.13,0,.17.06.42.16a1.42,1.42,0,0,0,.32.1.92.92,0,0,0,.33-.16,3.72,3.72,0,0,0-.67-.38c-.27-.14-.31-.17-.34-.24s0-.13.1-.2.17-.08.43,0,.16.05.18,0,.07,0,.06,0,0,0,0,0l.07,0,.45.16a1.65,1.65,0,0,0,.45.13c.13,0,.32-.18.24-.18a.42.42,0,0,1-.13-.09c-.06,0-.17-.13-.26-.18l-.15-.13.08,0,.54-.22s0,0-.06-.11a1.29,1.29,0,0,0-.17-.13c-.08,0-.12,0-1.12.17l-.4.08a.5.5,0,0,1-.17-.06c-.08-.06-.1-.07-.09-.11s.06-.14.15-.17l.16-.07.11,0s.06,0,.06,0,0,0,0,0a.51.51,0,0,0,.14,0l.29-.11a.65.65,0,0,0,.18-.09,1.84,1.84,0,0,0-.24-.23.19.19,0,0,0-.15,0,4.7,4.7,0,0,0-.64.16c-.41.11-.41.11-.51.07s-.15-.08-.11-.19,0-.11.47-.29l.3-.13s0-.07-.26-.24-.23-.2-.22-.42v-.16l.12,0c.26-.06.28-.06.46,0l.28.16a.07.07,0,0,0,0,0,2.48,2.48,0,0,0,0-.37v-.36l.08-.1c.11-.12.15-.13.23-.08s.12.11.15.31.13.76.16.89,0,.08.15.15l.16.1a5.48,5.48,0,0,0,0-.84v-.12l.1-.11c.11-.13.16-.14.28-.08s.1.1.14.36.06.37.12.76.08.49.11.52l.13.09c.14.08.14.08.14.06a1,1,0,0,1,0-.19c0-.09,0-.22,0-.29a.4.4,0,0,1,0-.15s.11,0,.32.18.21.15.22.13a.61.61,0,0,0,0-.14c0-.11,0-.13,0-.18l-.1-.15-.21-.29-.3-.4-.2-.25a.26.26,0,0,1-.06-.28l0-.11h.12c.16,0,.19,0,.58.39a1.75,1.75,0,0,0,.32.28s0-.06,0-.12a.38.38,0,0,0,0-.32.27.27,0,0,1,0-.07l-.22-.41c-.12-.21-.22-.41-.23-.44a.25.25,0,0,1,0-.16c0-.09,0-.1.1-.11a.27.27,0,0,1,.24,0,4.86,4.86,0,0,1,.4.47s.06.06.07,0a1.3,1.3,0,0,0,.09-.21c.11-.32.1-.31.38-.4l.1,0,.11.11a.59.59,0,0,1,.12.16.87.87,0,0,1,0,.21l-.07.22,0,.11s0,0,.05,0l.19-.05.13,0L57,99l.2,0,.15,0,.07.08a.3.3,0,0,1,.06.31c0,.12-.06.13-.15.15l-.18.06a4.24,4.24,0,0,1-.71.24s-.05,0-.06.16a.85.85,0,0,0,0,.17s0,0,.09,0l.6-.29c.18-.08.23-.1.28-.09s.16.06.18.16,0,.16-.15.26l-.52.37c-.47.33-.57.41-.59.49a1,1,0,0,0,0,.18v.11l.07,0,.11,0,.22-.1.18-.08s0,.09,0,.18,0,.18-.05.3a.65.65,0,0,0,0,.21.63.63,0,0,0,.28-.1.77.77,0,0,0,.12-.24s0-.07.06-.14.18-.43.31-.78.12-.3.24-.34.16,0,.23,0,.08.13,0,.46c0,.15-.06.3-.07.33a.81.81,0,0,1,0,.19c0,.19,0,.2.08.14l.14-.05a2,2,0,0,0,.21-.48l.13-.33s0-.09.06-.16.05-.12.14-.16.2-.07.28,0,.08.07,0,.49-.09.35,0,.34l.24-.08.24-.07a.48.48,0,0,1,.27.13l.07,0,0,.12c0,.12-.09.21-.13.22l-.11,0-.23.12-.14.08a3.15,3.15,0,0,0,.31.21c.33.21.35.23.39.39s0,.06-.06.09Z" transform="translate(0 0)"/><path id="path6388" class="cls-19" d="M75.28,86.76c0-.16,0-.12.23-.37l.29-.25c.06,0,.07-.08.07-.19v-.1l-.06,0-.16.09-.4.26h-.11l0-.09a.25.25,0,0,1,0-.13,1.9,1.9,0,0,1,.22-.26l.17-.16.27-.25s0,0,0-.13,0-.12,0-.09l-.07,0-.17.1-.11.07a.93.93,0,0,1,0-.22,1.35,1.35,0,0,0,0-.22.75.75,0,0,0-.2.1,4,4,0,0,0-.11.41C75,86,75,86,74.93,86s-.11.06-.14,0,0-.1,0-.38,0-.3,0-.34a.08.08,0,0,0,0,0,.67.67,0,0,0-.23.1s0,0,0,.1a1.8,1.8,0,0,1,0,.19c0,.12,0,.21-.08.32s0,.16-.12.19,0,0-.08,0-.08-.09,0-.34a1.2,1.2,0,0,0,0-.25l-.17.07c-.21.09-.23.1-.33.06l-.07,0v-.08c0-.16,0-.15.16-.27l.16-.11-.22-.11L73.48,85l0-.06,0,0,0-.06c.06-.07.09-.09.12-.08l.37.1c.36.1.34.1.39.08l.14-.08-.27-.13c-.4-.18-.36-.16-.4-.23l0-.06.06-.06s.06-.06.1-.06.34.07.78.18c.21.06.22.06.27,0l.09-.06.05,0L75,84.33l-.16-.08c-.06,0-.1,0-.1-.06s.09-.08.27-.19.09,0,.09-.06l-.14-.1a.11.11,0,0,0-.08,0l-.11,0-.14,0-.12,0-.25.09c-.31.1-.31.1-.42,0s0,0,0-.09a.94.94,0,0,1,0-.09,2,2,0,0,1,.38-.22l.23-.12s0,0,0,0l-.1-.06c-.06,0-.07,0-.11,0l-.13,0-.15.05-.4.12a.32.32,0,0,1-.16-.09.3.3,0,0,1,0-.16h0a1.88,1.88,0,0,1,.32-.15l.15-.07,0,0-.16-.1L73.52,83a.53.53,0,0,1,0-.22s.05,0,.14-.1l.07,0,.18.09.18.08a1.48,1.48,0,0,1,0-.16c0-.09,0-.18,0-.2s0-.07,0-.1,0-.06,0-.11.09-.09.16,0,.06,0,.17.42c0,.13.08.27.1.32l0,.09.11.06c.07,0,.12.06.12,0V83s0-.09,0-.14,0-.18,0-.3l0-.22,0,0c0-.07.06-.08.14,0s0,0,.06,0a1,1,0,0,0,0,.11.93.93,0,0,1,0,.13c0,.07.23.73.24.75s0,.05.1.07.09,0,.1,0,0,0,0-.08,0-.31,0-.32a1.9,1.9,0,0,1,.34.18s0,0,.05,0a.28.28,0,0,0,0-.2l-.39-.37L75,82.29v-.17l.08,0c.07,0,.07,0,.13,0l.15.09.23.17.15.11a1.6,1.6,0,0,0,0-.23l-.12-.13L75.57,82l-.18-.17c-.15-.14-.2-.2-.19-.23a.11.11,0,0,0,0-.06s0,0,.07-.07.08,0,.12,0l.27.18c.08.07.13.1.14.09a.32.32,0,0,1,0-.07v-.19a.38.38,0,0,1,0-.12.61.61,0,0,1,.13-.16l0,0,.07,0c.09,0,.12.09.12.14a.31.31,0,0,0,0,.09s0,.1,0,.15,0,.11,0,.11l0,0,.31-.22a.22.22,0,0,1,.17,0c.07,0,.07,0,.08.13a.15.15,0,0,1,0,.12s-.05.07-.06.07l-.09.09-.2.2-.16.17a1,1,0,0,0,0,.25,2.4,2.4,0,0,0,.41-.3c.16-.13.18-.15.23-.14s.09,0,.1.11,0,.12-.12.26-.07.09-.06.1,0,.06,0,0,0,0,0,0l0,0-.22.22a1.58,1.58,0,0,0-.2.24c0,.09,0,.25,0,.2s0,0,.08-.06l.18-.1a.4.4,0,0,1,.12-.06.35.35,0,0,1,0,.06,2.72,2.72,0,0,0,0,.39s0,0,.08,0l.12-.06c.05,0,.05-.07.2-.73,0-.13.06-.25.07-.27a.29.29,0,0,1,.08-.08s.07,0,.09,0a.15.15,0,0,1,.06.15v.11s0,.06,0,.08,0,0,0,0h0a.17.17,0,0,0,0,.09s0,.14,0,.22,0,.13,0,.13a1,1,0,0,0,.2-.09.09.09,0,0,0,.06-.08,3.22,3.22,0,0,0,.09-.43c0-.28,0-.28.09-.33s.09-.07.15,0,0,.06,0,.37a1.43,1.43,0,0,0,0,.22s0,0,.21-.09.18-.09.31,0l.09,0v.08c0,.18,0,.19-.15.27a.88.88,0,0,1-.17.12l0,0,.22.1.22.1,0,.07c0,.1,0,.13,0,.17s-.1,0-.22,0L78,83.43s-.06,0-.13,0l-.11.07s.36.16.51.22l.08,0,0,.09c0,.11,0,.14,0,.19s-.09,0-.25,0l-.49-.13c-.33-.09-.32-.09-.34-.08l-.09.05c-.08.07-.09.07-.07.07l.1.06a1.06,1.06,0,0,0,.17.1l.08.05s0,.07-.19.15-.15.09-.14.1l.08.06c.06,0,.07,0,.11,0l.12,0,.23,0,.32-.07.2-.05a.19.19,0,0,1,.19,0l.06,0,0,.07c0,.1-.06.11-.39.25l-.26.11.06.07A.24.24,0,0,0,78,85s0,0,0,0l.31,0a1.49,1.49,0,0,1,.33,0s0,0,.08.06,0,.05,0,.09a.17.17,0,0,1-.1.13,2.76,2.76,0,0,1-.39.12s0,0,0,0a1,1,0,0,1,.11.11c.16.15.16.14.13.34v.07l-.1,0-.12,0a.4.4,0,0,1-.12-.08l-.11-.1L78,85.71s0,0,0,0a.74.74,0,0,1,0,.12.51.51,0,0,0,0,.1.1.1,0,0,0,0,0s0,.07,0,.13l0,.1-.06,0a.19.19,0,0,1-.2,0c-.06,0-.07-.07-.05-.13a.53.53,0,0,0,0-.13,3,3,0,0,1,.06-.49s0,0-.08-.08l-.11-.05v.51c0,.13,0,.16,0,.19a.12.12,0,0,1-.14.07c-.07,0-.1,0-.12-.16l-.07-.42C77,85.13,77,85.05,77,85L76.86,85l-.06,0v.42s-.07,0-.12,0l-.16-.11c-.06,0-.12-.08-.12-.07a.56.56,0,0,0,0,.2s.09.13.11.13l.07.08.38.4c.14.15.15.16.14.24s0,.11-.08.13-.1,0-.28-.13l-.18-.14-.1-.07c-.1-.08-.1-.08-.11,0v.1a1.66,1.66,0,0,0,.23.26l.16.16.08.08c0,.06.06.07.06.13s0,.14-.09.17-.07,0-.29-.15-.18-.14-.19-.11a1.08,1.08,0,0,0,0,.16.89.89,0,0,1,0,.17.3.3,0,0,1-.14.13l0,0-.07,0c-.06,0-.1-.11-.09-.14v-.08s0-.11,0-.17a.63.63,0,0,0,0-.11l-.21.14c-.22.13-.24.14-.34.12s0,0,0-.06Z" transform="translate(0 0)"/><path id="path6390" class="cls-19" d="M73,72.32c0,.1,0,.09-.26.14l-.26.05s-.07,0-.11.09l0,.06h.5l0,0,0,0,0,.06s0,.06-.05.07l-.22.08-.16,0-.25.06s0,0-.07.06,0,.08,0,.06h.29a1.08,1.08,0,0,1-.08.13.93.93,0,0,0-.07.13.45.45,0,0,0,.16,0s.1-.1.21-.21c.27-.27.26-.26.32-.27s.08,0,.09,0,0,.08-.13.23-.11.17-.13.2a0,0,0,0,0,0,0,.44.44,0,0,0,.17,0,.2.2,0,0,1,0,0l.09-.1.16-.16c0-.06.09-.08.14-.07s0,0,0,0,0,.08-.09.23l-.09.14.13,0c.15,0,.17,0,.21.08l0,0,0,0c0,.1,0,.09-.19.1h-.13a1.29,1.29,0,0,0,.09.15l.09.14v.08l0,0c-.06,0-.08,0-.1,0L73.14,74c-.17-.2-.16-.19-.2-.19s-.1,0-.11,0l.11.17c.18.25.17.22.16.28v0l-.06,0a.11.11,0,0,1-.08,0,5,5,0,0,1-.4-.39c-.1-.11-.11-.11-.15-.11H72.3l0,.09a.42.42,0,0,1,.07.11s0,.06,0,.07-.08,0-.22,0h-.08l0,.11,0,0,.08,0,.1,0,.09,0,.18,0c.22,0,.22,0,.26.13s0,0,0,.06l0,.05a1.12,1.12,0,0,1-.31,0h-.18s0,0,0,0l0,.07s0,0,0,0l.09,0,.11,0,.28.07a.23.23,0,0,1,.07.11S73,75,73,75s0,0,0,0l-.24,0-.12,0,0,0a.61.61,0,0,1,0,.11l.05.1a.25.25,0,0,1-.06.14s0,0-.11,0h0l-.08-.12-.08-.11,0,.1s0,.11-.06.12l0,.06s0,0-.06.06-.08,0-.11,0,0,0,.05-.31l0-.23v-.06l0-.08,0-.07a.05.05,0,0,0,0,0l0,.09L72,75l-.06.14,0,0s-.07,0-.1,0a.06.06,0,0,1,0-.05.45.45,0,0,1,0-.08.24.24,0,0,1,0-.09c0-.05.12-.51.12-.53a.2.2,0,0,0,0-.08c0-.06,0-.06,0,0l0,0-.1.18a.7.7,0,0,1-.14-.22s0,0,0,0a.23.23,0,0,0-.07.11s0,.18.1.36l.1.34,0,.05,0,0h0c-.06,0-.06,0-.08,0a1.17,1.17,0,0,1-.05-.11l-.08-.18c0-.07,0-.12-.06-.12l-.09.13s0,.06,0,.11,0,.11,0,.12a1.15,1.15,0,0,0,.05.15c0,.14,0,.2,0,.21s0,0,0,0,0,0-.07,0-.06,0-.07,0a1.42,1.42,0,0,1-.1-.21c0-.06,0-.1,0-.1l0,0,0,0s0,0,0,.06l0,.07a.39.39,0,0,1-.13.05h0l0-.05c0-.06,0-.09,0-.12l0-.06a.34.34,0,0,1,0-.1.17.17,0,0,0,0-.07h0l-.27,0a.14.14,0,0,1-.12,0s0,0,0-.1,0,0,.07-.06l.06,0,.08,0a.83.83,0,0,1,.2-.05l.15,0a.55.55,0,0,0,.08-.15,1.35,1.35,0,0,0-.35,0c-.14,0-.16,0-.19,0s0,0,0-.1,0-.08.17-.12.07,0,.07,0,0,0,0,0h.06l.21,0c.13,0,.2-.06.21-.08s.07-.15,0-.13h-.31a.08.08,0,0,1,0,0l.14-.23s0,0,0,0h-.09s-.06,0-.38.36l-.13.14-.08,0s-.06,0-.06,0a.09.09,0,0,1,0-.11.15.15,0,0,0,0-.06s0,0,0,0l0,0s0,0,0,0,0,0,0,0l.08-.12,0-.08-.15,0a.07.07,0,0,0-.07,0l-.2.22c-.12.15-.12.15-.17.16s-.07,0-.09,0,0,0,.1-.23.08-.12.08-.13,0,0-.16,0-.14,0-.19-.1l0-.06,0,0c.08-.09.09-.1.18-.11H70l-.1-.14-.1-.13v-.06c0-.07,0-.09.07-.09s.07,0,.13.08l.29.29s0,0,.1,0h.08a2.51,2.51,0,0,0-.23-.31l0,0v-.07c0-.08,0-.09.08-.1s.07,0,.15.1l.24.25.17.17H71s0,0,0-.07l-.06-.12,0-.06s0,0,.17,0h.11a.39.39,0,0,0,0-.06s0,0-.06-.06l-.08,0-.15-.06-.22-.07-.14,0a.18.18,0,0,1-.1-.09v0l0,0c.06,0,.07,0,.32,0l.19,0a.18.18,0,0,0,0-.06.16.16,0,0,0-.1-.11l0,0-.19-.09-.2-.11a.06.06,0,0,1,0-.06s0,0,0-.07a.11.11,0,0,1,.1,0l.27.08h0l0-.11c0-.15,0-.14,0-.25l0,0,.07,0s.08,0,.08,0,0,0,0,.08l0,.11v0s0,0,0,0l0-.06,0,0s0,0,0,0l.06-.07,0-.06h0a.17.17,0,0,1,.1.1c0,.06,0,.07,0,.1l0,.07a2.71,2.71,0,0,1-.2.27s0,0,0,.08,0,.07,0,.07l0,0c0-.05.1-.16.15-.26s.06-.1.09-.11a.07.07,0,0,1,.1,0s0,.06,0,.14-.06.15-.1.27-.11.31-.1.34l0,.08,0,0,0,0,0,0,0-.09.05-.08a.11.11,0,0,1,.06.06l.05.13,0,.08a.52.52,0,0,0,.08-.11.23.23,0,0,0,0-.12.56.56,0,0,1,0-.07s0-.21-.08-.37,0-.15,0-.19.06-.06.1-.06.06,0,.12.18a.69.69,0,0,0,.06.14.26.26,0,0,0,0,.08c0,.09,0,.09.07,0s0,0,0-.06,0-.08,0-.23,0-.15,0-.16a.45.45,0,0,0,0-.08.11.11,0,0,1,0-.1c0-.06.06-.07.11-.06s0,0,.12.19.06.15.08.13a.53.53,0,0,0,.07-.09l.07-.09a.25.25,0,0,1,.13,0h0l0,0c0,.06,0,.11,0,.12s0,0,0,0l0,.1,0,.07h.18c.17,0,.19,0,.24,0s0,0,0,0Z" transform="translate(0 0)"/><path id="path6394" class="cls-19" d="M67.15,103.77c-.14-.19-.14-.12,0-.64.08-.25.17-.49.18-.53s0-.15,0-.29l-.07-.12-.05.08s-.08.16-.13.23-.32.59-.34.62,0,0-.07,0l-.07,0-.08-.1a.42.42,0,0,1-.08-.17,2.65,2.65,0,0,1,.11-.49l.11-.34a5,5,0,0,1,.17-.51c0-.07,0-.08,0-.19s-.1-.16-.09-.1l-.06.12a2.34,2.34,0,0,0-.15.25.5.5,0,0,1-.1.15s-.07-.12-.15-.27a1.56,1.56,0,0,0-.16-.28,1.48,1.48,0,0,0-.19.27s.07.3.15.61c.19.8.19.79.13.9s-.1.14-.17.11-.11-.11-.28-.48l-.2-.45s0-.06,0-.06a1,1,0,0,0-.23.28s0,.09,0,.15a2.68,2.68,0,0,1,.07.27c0,.19.08.32.13.48a.31.31,0,0,1,0,.33c0,.06,0,.06-.11,0s-.16-.07-.3-.41a2.44,2.44,0,0,0-.16-.33l-.17.21c-.2.26-.24.29-.39.31h-.11l-.07-.11c-.12-.19-.12-.19,0-.46a.85.85,0,0,0,.12-.25h-.71l-.07,0-.08-.06,0-.1c0-.14.06-.18.09-.19l.55-.14c.54-.12.52-.11.56-.18a.73.73,0,0,0,.12-.19l-.42,0c-.65.06-.59.06-.68,0l-.08-.06,0-.11c0-.1,0-.13.09-.16s.48-.15,1.13-.31c.32-.07.33-.08.37-.17a.91.91,0,0,1,.07-.14l0-.06h-.49c-.1,0-.16,0-.18,0a1.52,1.52,0,0,1,.22-.42c0-.07.08-.14.07-.14l-.24,0a.12.12,0,0,0-.1,0l-.12.12a1.14,1.14,0,0,0-.15.16l-.14.15L64,101c-.32.35-.33.35-.51.33s-.08,0-.11-.08a.26.26,0,0,1,0-.13,2.27,2.27,0,0,1,.34-.57,2.33,2.33,0,0,0,.21-.32s0,0-.06,0h-.17c-.1,0-.12,0-.15.05a1.82,1.82,0,0,0-.14.14l-.17.17-.43.44a.42.42,0,0,1-.27,0s-.14-.19-.11-.19,0,0,0,0a2.64,2.64,0,0,1,.3-.42l.15-.2h-.07l-.27,0-.24,0a.83.83,0,0,1-.19-.26s0-.09.12-.23l.06-.08.29,0a1.12,1.12,0,0,0,.29,0l-.13-.2-.15-.24a1.25,1.25,0,0,1-.08-.12c0-.06-.06-.07,0-.18s.05-.16.17-.16.08,0,.52.42l.34.34.1.09h.19a.47.47,0,0,0,.19,0l0-.08s-.08-.11-.12-.16l-.25-.36-.19-.26v-.1c0-.11,0-.14.16-.16s.08,0,.1,0l.12.11.14.14c.07.08.8.78.83.81l.18,0c.14,0,.15,0,.14,0a.37.37,0,0,0,0-.11l-.23-.4a2,2,0,0,1,.56,0c.07,0,.08,0,.07,0a.45.45,0,0,0-.12-.26,7.56,7.56,0,0,0-.76-.2l-.72-.18-.06-.11L63.62,98l.07-.09c.08-.09.08-.09.18-.09l.25,0,.42,0,.27,0a1.89,1.89,0,0,0-.13-.31.67.67,0,0,0-.23-.08l-.24-.07-.34-.08c-.3-.07-.41-.12-.41-.17s0,0,0-.07,0-.06,0-.14.08-.1.13-.1l.48,0a.86.86,0,0,0,.24,0,.29.29,0,0,0,0-.11.41.41,0,0,1,0-.11.57.57,0,0,0-.07-.13.5.5,0,0,1-.07-.17.75.75,0,0,1,.06-.3l0-.07h.13c.14,0,.21,0,.24.1a.38.38,0,0,0,.08.11l.13.19a.48.48,0,0,0,.09.13l0-.06c0-.09.22-.45.24-.51a.44.44,0,0,1,.19-.19c.09,0,.09,0,.19.12s0,.08,0,.19a.49.49,0,0,1,0,.13s0,.09-.05.17-.07.27-.12.41a1.74,1.74,0,0,0-.08.33.85.85,0,0,0,.18.31,4.21,4.21,0,0,0,.32-.68c.12-.28.14-.31.2-.34s.13,0,.21.07.08.16,0,.43,0,.16,0,.17,0,.07,0,.06,0,0,0,0l0,.08s-.06.22-.12.44a1.76,1.76,0,0,0-.1.46c0,.12.2.3.2.21a.57.57,0,0,1,.07-.13l.16-.26c.05-.09.1-.16.11-.15s0,0,0,.06.23.48.26.52,0,0,.1-.07L67,98.2c0-.08,0-.12-.25-1.09a3.28,3.28,0,0,1-.09-.38.32.32,0,0,1,0-.17c0-.08.06-.1.09-.1s.14.05.18.14a1.07,1.07,0,0,0,.07.15.54.54,0,0,1,0,.11s0,0,0,0,0,0,0,0a.59.59,0,0,0,0,.12c0,.06.08.19.13.28a.65.65,0,0,0,.09.18,2.23,2.23,0,0,0,.2-.26.16.16,0,0,0,0-.15c0-.13-.08-.29-.19-.61s-.14-.39-.1-.49.07-.15.17-.13.11,0,.31.44a2.83,2.83,0,0,0,.15.29s.06,0,.21-.27.18-.24.38-.25h.16l0,.11c.08.25.08.27,0,.46a1.25,1.25,0,0,1-.14.27l0,0,.35,0,.35,0,.1.08c.12.09.14.13.09.22s-.09.12-.28.16l-.85.22s-.07,0-.13.16a1.07,1.07,0,0,0-.09.16,6,6,0,0,0,.81-.08l.11,0,.12.09c.13.1.14.14.09.26s-.09.11-.33.16l-.73.18c-.48.11-.46.11-.49.13l-.07.14c-.07.14-.07.15,0,.14h.6s0,.12-.15.33-.12.22-.11.23H68c.11,0,.12,0,.17,0l.13-.12a2.64,2.64,0,0,0,.27-.22l.36-.32c.1-.09.21-.18.23-.21a.26.26,0,0,1,.26-.08l.11,0,0,.12c0,.16,0,.18-.33.59a1.55,1.55,0,0,0-.25.33s.06,0,.12,0a.31.31,0,0,0,.3-.06l.06,0a4.22,4.22,0,0,0,.38-.24l.41-.26a.32.32,0,0,1,.16,0c.08,0,.1,0,.11.09a.27.27,0,0,1,0,.24,3.82,3.82,0,0,1-.42.42s0,.07,0,.08a.79.79,0,0,0,.21.06c.31.09.31.08.41.35l0,.1-.11.11a.72.72,0,0,1-.14.13.43.43,0,0,1-.2,0l-.22,0-.1,0s0,0,0,0a1.71,1.71,0,0,1,.07.18,1.28,1.28,0,0,1,0,.13.08.08,0,0,1,0,.06s0,.1.06.18l0,.15-.07.07a.27.27,0,0,1-.29.08c-.11,0-.13-.05-.15-.14s-.05-.12-.07-.17a4.64,4.64,0,0,1-.28-.67s0,0-.16,0H69s0,.05,0,.08.19.35.32.57.11.22.11.27,0,.16-.14.18-.16,0-.26-.12l-.4-.49c-.34-.43-.42-.52-.5-.54h-.18l-.1,0,0,.06.06.11s.06.12.1.2l.09.17s-.08.05-.17,0l-.28,0a.63.63,0,0,0-.21,0,1.09,1.09,0,0,0,.11.27,1.22,1.22,0,0,0,.24.1l.14,0,.77.26c.29.09.3.09.34.2s0,.16,0,.23-.12.08-.44,0l-.33,0-.18,0c-.19,0-.19,0-.13.09s0,.12.06.13a1.77,1.77,0,0,0,.47.17l.33.1.15.06c.11,0,.13,0,.18.12s.07.19,0,.27-.06.09-.47,0-.34-.06-.33,0l.09.22a1.28,1.28,0,0,1,.08.24.48.48,0,0,1-.1.27l0,.06-.12,0c-.12,0-.21-.06-.22-.11a.29.29,0,0,0-.05-.1l-.13-.22-.09-.13a2.66,2.66,0,0,0-.19.32c-.18.33-.19.35-.34.4s0,0-.09,0Z" transform="translate(0 0)"/><path id="path6396" class="cls-19" d="M71.75,94.72c.11-.13.06-.12.48-.09l.43,0c.08,0,.11,0,.2-.09l.08-.07-.07,0-.2,0-.52-.14-.05,0,0,0,.06-.08a.25.25,0,0,1,.11-.1,2.17,2.17,0,0,1,.38,0l.27,0,.41,0c.06,0,.06,0,.14-.06s.09-.11,0-.09l-.1,0-.21-.06-.13,0s.07-.08.17-.17a1.1,1.1,0,0,0,.17-.17.73.73,0,0,0-.23-.09,3.62,3.62,0,0,0-.42.22c-.56.3-.55.3-.64.27s-.13,0-.12-.1.06-.11.3-.3l.3-.24,0,0a.88.88,0,0,0-.26-.12l-.1.06-.19.1c-.12.07-.22.12-.32.19a.29.29,0,0,1-.26,0s0,0,0-.07,0-.13.25-.31a2,2,0,0,0,.21-.18l-.19-.09c-.23-.1-.26-.12-.3-.23l0-.09.07-.07c.12-.13.11-.12.34-.07l.21,0-.07-.27-.08-.26,0-.06,0-.07H72c.11,0,.14,0,.16,0s.13.23.21.39c.19.39.18.37.23.39s.16.06.17,0,0-.14-.1-.31c-.16-.48-.15-.43-.12-.51l0-.08h.09c.07,0,.1,0,.13,0a6.39,6.39,0,0,1,.44.78c.12.23.13.24.2.25a.42.42,0,0,1,.12,0l0,0,0-.17c0-.09-.06-.18-.06-.19a.23.23,0,0,1,0-.14,1.07,1.07,0,0,1,.36.08c.06,0,.12,0,.12,0a.81.81,0,0,0,0-.19.18.18,0,0,0-.05-.07l-.12-.06s-.1-.06-.14-.09l-.14-.07-.25-.14c-.32-.18-.33-.18-.35-.32s0-.06,0-.1a.16.16,0,0,1,.09-.05,1.5,1.5,0,0,1,.48.15l.28.1s0,0,0,0,0-.09,0-.13,0-.09-.06-.11l-.14-.07-.16-.1-.4-.24a.35.35,0,0,1,0-.2s.12-.14.12-.12h0s.1,0,.37.14l.18.07v0s0-.13,0-.21a1.5,1.5,0,0,1,0-.18.7.7,0,0,1,.15-.2.63.63,0,0,1,.19.05l.08,0,.06.21.07.22a1.37,1.37,0,0,0,.13-.13l.15-.17.07-.08a.14.14,0,0,1,.12-.07c.11,0,.14,0,.16.1s0,.06-.21.47l-.19.33,0,.09,0,.14a.36.36,0,0,0,0,.14l0,0,.1-.12s.13-.15.21-.26l.16-.19.08,0c.08,0,.1,0,.14.09a.11.11,0,0,1,0,.08L75,91.1a.49.49,0,0,1-.08.13c0,.07-.42.75-.43.78a.37.37,0,0,0,0,.14c0,.11,0,.11.06.1s0,0,.07,0a2.74,2.74,0,0,1,.26-.25,2,2,0,0,1,.11.42s0,.06,0,0a.37.37,0,0,0,.16-.14s0-.29,0-.61v-.57L75.3,91l.08-.06.08,0c.08,0,.08,0,.1.12s0,.13,0,.19l0,.32a1.74,1.74,0,0,0,0,.21.87.87,0,0,0,.2-.15.61.61,0,0,0,0-.19V91c0-.24,0-.33,0-.34l0,0s0,0,.12,0,.08,0,.09.09a2.11,2.11,0,0,1,.06.37.5.5,0,0,0,0,.18l.07-.05.07-.06.09-.08.1-.08a.47.47,0,0,1,.24,0h.06l0,.1c0,.11,0,.17,0,.2l-.06.08-.12.14a.3.3,0,0,0-.07.09l0,0,.42.09a.27.27,0,0,1,.17.1c0,.06,0,.06,0,.17s-.06,0-.14.06h-.24l-.33,0h-.25s-.2.18-.19.2a3.38,3.38,0,0,0,.55.11c.23,0,.26,0,.3.09s.06.08,0,.16-.1.1-.31.1-.12,0-.13,0,0,0,0,0a0,0,0,0,0,0,0h-.77c-.09.06-.18.21-.12.19l.11,0,.22.07a.3.3,0,0,1,.14.06.2.2,0,0,1,0,0c-.07.06-.31.26-.33.29s0,0,.07.06a.65.65,0,0,0,.15.05c.07,0,.09,0,.76-.39l.26-.15H77c.08,0,.09,0,.09,0a.14.14,0,0,1-.06.16l-.1.08-.07.06a.05.05,0,0,0,0,0h0l-.09.05a1.54,1.54,0,0,1-.18.16l-.11.1a1.46,1.46,0,0,0,.23.1s.06,0,.11,0,.2-.12.42-.26.26-.18.34-.17.13,0,.13.1,0,.09-.27.32l-.18.17s0,0,.24.1.21.09.25.25l0,.11-.08,0c-.17.11-.18.11-.34.08a1,1,0,0,1-.23,0h0s0,.12.08.26l.1.26,0,.09c0,.11-.08.13-.15.11s-.11,0-.17-.18-.27-.51-.32-.6-.06,0-.15-.07l-.13,0a4.47,4.47,0,0,0,.21.59l0,.08,0,.1c0,.12-.07.14-.17.12s-.1,0-.19-.22-.12-.25-.26-.51-.18-.33-.2-.34l-.11,0c-.12,0-.12,0-.12,0s0,.06,0,.13,0,.17,0,.22a.31.31,0,0,1,0,.11s-.09,0-.27,0-.18,0-.19,0,0,.06,0,.11,0,.09.06.11l.11.08.22.16.31.21.19.13a.19.19,0,0,1,.11.19v.08l-.09,0c-.11,0-.13,0-.49-.14a2.2,2.2,0,0,0-.3-.13.31.31,0,0,0,0,.1.28.28,0,0,0,.09.22s0,0,0,0a3.24,3.24,0,0,0,.25.24l.27.26a.37.37,0,0,1,0,.12c0,.07,0,.08,0,.1a.22.22,0,0,1-.19,0,3.16,3.16,0,0,1-.39-.24s-.06,0-.06,0a.63.63,0,0,0,0,.17c0,.26,0,.25-.18.38l-.06,0-.11,0a.46.46,0,0,1-.12-.09.4.4,0,0,1,0-.15v-.18a.22.22,0,0,0,0-.08s0,0,0,0l-.11.08-.09.06,0,0-.13.07-.1.07-.06,0a.22.22,0,0,1-.12-.2c0-.1,0-.11.07-.15a.42.42,0,0,0,.12-.08,4.44,4.44,0,0,1,.44-.34s0,0,0-.13l0-.12-.06,0-.36.35c-.1.1-.13.13-.17.13s-.13,0-.16-.07,0-.12,0-.22.16-.22.28-.39c.26-.34.31-.42.31-.48a.7.7,0,0,0,0-.14l0-.07,0,0-.07.07-.13.12-.11.1s0-.06-.06-.13,0-.13,0-.21a.63.63,0,0,0,0-.16.63.63,0,0,0-.18.14,1.25,1.25,0,0,0,0,.19s0,.06,0,.12,0,.35,0,.62,0,.25-.09.3-.11.07-.17,0-.09-.08-.11-.33,0-.23,0-.26,0-.09,0-.14,0-.15-.09-.08l-.08.07a1.32,1.32,0,0,0,0,.39c0,.13,0,.24,0,.26a.45.45,0,0,0,0,.13A.16.16,0,0,1,73,96c-.08.09-.13.1-.2,0s-.08,0-.1-.35,0-.27-.06-.25l-.15.11-.15.11a.45.45,0,0,1-.22,0l-.06,0v-.09a.23.23,0,0,1,0-.19l.07-.06.13-.14.09-.09L72.09,95c-.28-.07-.3-.08-.36-.18s0,0,0-.08Z" transform="translate(0 0)"/><path id="path6398" class="cls-19" d="M84.36,73c.09.06.08,0,.08.29a2.21,2.21,0,0,1,0,.27c0,.05,0,.07.07.12l0,0v0s0-.08,0-.13,0-.31,0-.33,0,0,0,0l0,0,0,0a.14.14,0,0,1,.07.06,1.19,1.19,0,0,1,0,.24,1.49,1.49,0,0,0,0,.17v.26s0,0,.05.08.07,0,.06,0A.21.21,0,0,1,85,74s0-.09,0-.13l0-.09.12.1c.06.05.11.1.11.09a.42.42,0,0,0,0-.15s-.08-.12-.16-.25c-.22-.32-.22-.32-.21-.38s0-.08.06-.08.07,0,.2.17l.17.17,0,0s.06-.15.06-.16a.15.15,0,0,0,0-.06l-.08-.11-.13-.2a.13.13,0,0,1,0-.15s0,0,0,0,.08,0,.2.13l.12.13a.36.36,0,0,0,.05-.13c0-.15,0-.17.12-.2l0,0,.05,0c.08.06.08.06.06.2a1.25,1.25,0,0,0,0,.14l.16-.07.16-.06h.08v0c0,.07,0,.09,0,.11l-.22.15c-.22.14-.21.13-.22.17s0,.1,0,.11l.18-.08c.28-.14.26-.13.31-.11h0v.06s0,.06,0,.08a4.24,4.24,0,0,1-.45.33c-.13.09-.14.09-.14.14a.17.17,0,0,1,0,.07v0l.1,0,.12,0s.07,0,.08,0a.6.6,0,0,1,0,.22.37.37,0,0,0,0,.08l.12,0s0,0,0,0a.25.25,0,0,1,0-.07l0-.1a.94.94,0,0,1,0-.09l.07-.17c.09-.21.09-.21.18-.23s0,0,.06,0a.09.09,0,0,1,0,0,1,1,0,0,1-.06.31,1.37,1.37,0,0,0,0,.18h0l.07,0s0,0,.06,0l0-.09,0-.1c0-.11.11-.25.12-.27a.19.19,0,0,1,.12,0s.09.06.08.07h0s0,.06-.06.24l0,.11h0l.12,0,.11,0a.57.57,0,0,1,.13.08s0,0,0,.12v0l-.13.06c-.07,0-.13,0-.12.06l.08.07.11.08.06,0s0,0,0,.07a.09.09,0,0,1,0,.11c-.05,0,0,0-.3-.11l-.22-.09-.06,0-.08,0-.08,0s0,0,0,0l.07,0,.18.12.12.09,0,0c0,.06,0,.07,0,.1h-.06l-.07,0-.08,0-.51-.22-.08,0c-.07,0-.07,0-.06,0s0,0,0,0l.17.14a1.23,1.23,0,0,1-.26.09s0,0,0,0,.08.09.1.09l.37,0,.35,0,0,0,0,0,0,0s0,0-.06.07l-.12,0-.19,0-.13,0a.6.6,0,0,0,.11.12h.12l.11,0h.17c.14,0,.2,0,.21,0s0,0,0,0,0,0,0,.07,0,0,0,.06l-.22.06-.11,0s0,0,0,.05l0,0,.05,0s.06,0,.06.07a.26.26,0,0,1,0,.14v0l-.06,0c-.07,0-.1,0-.13,0l0,0-.09-.06-.06-.05s0,0,0,0,0,.24,0,.27a.16.16,0,0,1,0,.11s0,0-.1,0,0,0,0-.08a.21.21,0,0,1,0-.06V76s0-.13,0-.2,0-.15,0-.16a.49.49,0,0,0-.14-.11,2.33,2.33,0,0,0,0,.35c0,.15,0,.17,0,.19s0,0-.11,0-.06,0-.08-.18,0-.08,0-.08,0,0,0,0a0,0,0,0,0,0,0,.06.06,0,0,1,0,0s0-.11,0-.22a1,1,0,0,0,0-.22s-.13-.1-.12-.06a.32.32,0,0,1,0,.07s0,.1,0,.14l0,.09,0,0a1.65,1.65,0,0,0-.2-.19s0,0,0,0a.37.37,0,0,0,0,.09s0,.06.29.45a.69.69,0,0,1,.1.16.17.17,0,0,1,0,.08s0,0,0,.06-.07,0-.1,0l-.06-.05,0,0,0,0s0,0,0,0l0,0-.1-.11-.07-.06a.5.5,0,0,0-.05.15s0,0,0,.07l.19.24c.13.16.13.16.13.21s0,.08-.06.08-.05,0-.21-.14l-.11-.11s0,0-.06.16,0,.13-.13.17l-.07,0,0,0c-.08-.1-.08-.11-.07-.21a1.24,1.24,0,0,0,0-.15s0,0,0,0l-.16.07-.15.08-.05,0c-.07,0-.09,0-.08-.08s0-.08.1-.13l.35-.23a.23.23,0,0,0,0-.1.38.38,0,0,1,0-.08,2.48,2.48,0,0,0-.35.17l0,0-.06,0c-.08,0-.09,0-.09-.1s0-.06.13-.13l.29-.2c.2-.13.19-.12.2-.14a.56.56,0,0,0,0-.07c0-.08,0-.08,0-.07l-.08,0-.13,0-.06,0s0-.06,0-.18,0-.11,0-.11,0,0-.06,0-.06,0-.07.05l0,.07-.08.15-.12.2-.07.13c0,.06,0,.07-.1.08h0l0-.05c0-.07,0-.08,0-.32a.63.63,0,0,0,.06-.19h-.06a.17.17,0,0,0-.13.08s0,0,0,0l-.13.17a1.63,1.63,0,0,1-.14.18.08.08,0,0,1-.07,0,.06.06,0,0,1-.07,0,.15.15,0,0,1,0-.11,2.17,2.17,0,0,1,.12-.26.1.1,0,0,0,0,0s-.06,0-.11,0-.15,0-.24-.08l0,0,0-.07a.19.19,0,0,1,0-.08.19.19,0,0,1,.1,0l.1,0h.05s0,0,0,0a.22.22,0,0,1-.06-.07l0,0s0,0,0,0l0-.08,0-.06,0,0a.13.13,0,0,1,.12-.08c.05,0,.07,0,.09,0l.06.07a2.4,2.4,0,0,1,.23.25s0,0,.08,0l.07,0s0,0,0,0l-.24-.21c-.07,0-.09-.07-.09-.1s0-.08,0-.1.07,0,.14,0l.25.15c.23.14.28.16.32.16a.13.13,0,0,0,.08,0l0,0,0,0,0,0-.08-.07s-.07-.06-.07-.07,0,0,.07,0l.14,0c.05,0,.09,0,.09,0a.31.31,0,0,0-.1-.1H84c-.14,0-.15,0-.18,0s0-.07,0-.11,0-.05.2-.08l.15,0,.09,0c.09,0,.09,0,0-.07l0,0h-.48s-.06,0-.09,0-.07-.07-.05-.12,0,0,.21-.09.16,0,.15-.05l-.08-.08-.07-.09a.33.33,0,0,1,0-.14v0h.06a.17.17,0,0,1,.11,0s0,0,0,0l.1.08.06,0s0-.08,0-.17,0-.19.09-.24,0,0,0,0Z" transform="translate(0 0)"/><path id="path6400" class="cls-19" d="M64.5,84.89c.08-.19,0-.16.49-.27l.48-.11c.09,0,.12,0,.19-.17l.06-.1H65.4l-.61,0-.07,0-.06,0,0-.1a.24.24,0,0,1,.09-.15,1.89,1.89,0,0,1,.4-.15l.3-.07.45-.11c.07,0,.07,0,.13-.12s.07-.15,0-.12h-.37a.39.39,0,0,1-.16,0l.13-.24a.92.92,0,0,0,.13-.25,1,1,0,0,0-.29,0l-.37.39c-.5.52-.49.51-.6.52s-.15,0-.16-.07,0-.14.22-.44l.24-.36s0,0,0-.06a1.06,1.06,0,0,0-.31,0l-.09.1-.17.18c-.11.12-.2.21-.29.32a.29.29,0,0,1-.26.13c-.06,0-.07,0-.08-.06s0-.15.16-.42l.17-.27-.24,0c-.29,0-.32,0-.4-.14l-.07-.08,0-.11c.09-.17.08-.17.35-.19l.24,0L63.78,82l-.18-.25v-.16l.09,0c.12,0,.16,0,.19,0l.35.35c.34.34.32.33.39.33a.58.58,0,0,0,.2,0,2.5,2.5,0,0,0-.21-.3c-.35-.46-.32-.42-.31-.52V81.3l.09,0a.22.22,0,0,1,.16,0,9.32,9.32,0,0,1,.75.7c.21.2.22.21.3.19h.2L65.71,82l-.13-.19c0-.06-.08-.11-.07-.13s.15,0,.41,0h.14a.83.83,0,0,0-.09-.2.11.11,0,0,0-.09,0l-.14,0-.19,0-.17,0-.33-.07c-.4-.08-.41-.08-.48-.22s0-.07,0-.13a.3.3,0,0,1,.08-.08,2.1,2.1,0,0,1,.57,0,2.21,2.21,0,0,0,.34,0s0,0,0,0l-.08-.13c0-.07-.06-.08-.1-.09l-.17,0-.21,0-.52-.12a.3.3,0,0,1-.12-.2s.08-.2.09-.18,0,0,0,0a1.9,1.9,0,0,1,.45,0l.22,0,0,0L65,79.69a.91.91,0,0,1-.09-.18.74.74,0,0,1,.1-.27s.08,0,.22,0h.09l.15.21a1.46,1.46,0,0,0,.15.21l.09-.19.1-.23s0-.08,0-.12,0-.07.11-.11.15,0,.21,0,0,.06-.07.58c0,.17-.08.36-.09.43l0,.11.09.14a.47.47,0,0,0,.1.13s0,0,0-.07a.71.71,0,0,1,.07-.16s.08-.22.14-.36l.1-.26.08,0c.09-.05.12,0,.18,0a.11.11,0,0,1,0,.09,1.06,1.06,0,0,0,0,.14c0,.06,0,.14,0,.18s-.2,1-.2,1a.43.43,0,0,0,.07.14c.06.11.06.12.09.09a.17.17,0,0,0,.06-.08c0-.08.19-.35.19-.36a1.9,1.9,0,0,1,.27.42s0,0,.06,0a.41.41,0,0,0,.14-.22s-.1-.31-.21-.65l-.2-.62,0-.1.05-.1.11,0c.1,0,.1,0,.15.09s.07.13.1.2l.15.33.11.22a1.66,1.66,0,0,0,.16-.24.61.61,0,0,0,0-.21,1.53,1.53,0,0,1-.07-.21s-.05-.15-.1-.29-.1-.36-.07-.39,0,0,0-.06,0,0,.13,0a.14.14,0,0,1,.13.05,3.2,3.2,0,0,1,.19.38.61.61,0,0,0,.1.19l.06-.08s0-.09.06-.09l.06-.11a.79.79,0,0,1,.08-.13.82.82,0,0,1,.25-.1h.07l.06.1c.07.11.08.17,0,.23l0,.1a2.05,2.05,0,0,1-.08.19c0,.06-.06.12,0,.12s0,0,.06,0l.48,0a.26.26,0,0,1,.23,0c.07,0,.07,0,0,.19s0,.08-.13.12l-.11,0-.15,0-.36.1a1,1,0,0,0-.27.09.86.86,0,0,0-.15.28,2.35,2.35,0,0,0,.65-.08c.26,0,.29,0,.35,0s.09.07,0,.19-.08.14-.31.22-.13.05-.12.07,0,.07,0,0,0,0,0,0l-.07,0-.39.11a1.66,1.66,0,0,0-.37.14c-.08.09-.13.29-.07.25h.4a.3.3,0,0,1,.16,0,.17.17,0,0,1,0,.07c-.06.1-.24.4-.25.43s0,0,.09,0h.18c.08,0,.1,0,.68-.69.11-.13.22-.24.24-.26l.14,0c.09,0,.11,0,.12,0a.18.18,0,0,1,0,.2s-.06.09-.07.12l-.06.09s0,0,0,0,0,0,0,0,0,0-.07.09l-.15.23a.74.74,0,0,0-.08.15,1.4,1.4,0,0,0,.29,0,.13.13,0,0,0,.11-.05,4.78,4.78,0,0,0,.36-.43c.23-.29.23-.29.31-.31s.15,0,.18.07,0,.1-.18.44a1.17,1.17,0,0,0-.14.25s.06,0,.3,0,.25,0,.35.17l.08.11-.07.08c-.14.18-.16.18-.33.21l-.27,0s0,0,0,0l.18.25.19.25v.11c0,.13,0,.16-.12.17s-.13,0-.25-.14l-.55-.54a.37.37,0,0,0-.18,0h-.16a4.69,4.69,0,0,0,.44.57l.06.07v.13c0,.15,0,.18-.15.19s-.12,0-.27-.17l-.47-.46c-.31-.3-.3-.29-.33-.3h-.13c-.14,0-.14,0-.13,0l.08.14.13.22s0,.1.06.1-.1,0-.32,0-.21,0-.21,0a.41.41,0,0,0,0,.11c0,.08.06.09.11.11l.15,0,.29.1.4.12.26.07a.23.23,0,0,1,.18.16l0,.09-.08.07c-.11.09-.13.09-.59,0l-.36,0a.45.45,0,0,0,0,.11.3.3,0,0,0,.18.2l.06,0,.36.17a3.06,3.06,0,0,1,.38.19.22.22,0,0,1,.06.12c0,.08,0,.09,0,.13a.22.22,0,0,1-.19.08,3.12,3.12,0,0,1-.5-.12s-.08,0-.08,0a1.37,1.37,0,0,0,0,.18c.08.28.08.27-.06.47l-.06.08-.13,0a.37.37,0,0,1-.16,0,.44.44,0,0,1-.08-.16c0-.08-.05-.16-.06-.19l0-.08s0,0,0,0a.5.5,0,0,1-.1.13.63.63,0,0,0-.07.1l0,0a.83.83,0,0,0-.12.13l-.08.1-.09,0a.25.25,0,0,1-.19-.18c0-.1,0-.12,0-.18a1.46,1.46,0,0,0,.09-.13,3.8,3.8,0,0,1,.36-.52s0,0,0-.14a.36.36,0,0,0-.09-.12.19.19,0,0,0,0,.06c-.06.1-.17.31-.27.51s-.11.18-.15.2a.14.14,0,0,1-.2,0c-.07-.07-.07-.12,0-.25s.1-.3.18-.52c.15-.46.18-.57.16-.63a1,1,0,0,0-.08-.14l-.06-.07,0,.06a.46.46,0,0,1,0,.1,1.53,1.53,0,0,0-.1.17l-.08.15s-.07,0-.11-.11l-.11-.23a1,1,0,0,0-.09-.16.65.65,0,0,0-.15.22.54.54,0,0,0,0,.22s0,.06,0,.13.09.38.17.69.07.27,0,.35-.09.11-.17.1-.12,0-.23-.32l-.11-.27a.91.91,0,0,1-.07-.14c-.06-.16-.06-.16-.13-.06l-.06.11a1.4,1.4,0,0,0,.09.43c0,.14.07.27.08.29s0,.08,0,.14,0,.11,0,.18-.1.15-.2.13-.09,0-.23-.34-.12-.29-.15-.26l-.12.18a1.15,1.15,0,0,1-.13.17.58.58,0,0,1-.25,0h-.07l0-.1c0-.1,0-.19,0-.22s0,0,0-.09.07-.13.1-.2l.06-.12a2.08,2.08,0,0,0-.33,0c-.32,0-.35,0-.45-.07s0,0,0-.09Z" transform="translate(0 0)"/><path id="path6402" class="cls-19" d="M58.56,81.31c-.21-.1-.18,0-.29-.57-.05-.26-.09-.52-.1-.56S58.12,80,58,80l-.12-.08V80c0,.06,0,.17,0,.26s0,.68,0,.72l0,.08,0,.06-.11,0a.36.36,0,0,1-.16-.11,1.7,1.7,0,0,1-.15-.48s-.05-.19-.08-.35-.08-.35-.11-.53,0-.08-.13-.15-.16-.08-.13,0,0,.06,0,.13a1.39,1.39,0,0,0,0,.29.72.72,0,0,1,0,.19,2.83,2.83,0,0,1-.27-.17,1.28,1.28,0,0,0-.28-.15,1.27,1.27,0,0,0,0,.33l.44.45c.57.6.56.59.57.71s0,.18-.09.19-.16,0-.49-.28l-.4-.28a.13.13,0,0,0-.07,0,1.14,1.14,0,0,0-.05.37l.11.11.2.2.35.35a.31.31,0,0,1,.13.3c0,.07,0,.08-.06.09s-.17,0-.48-.2a2.2,2.2,0,0,0-.3-.2l0,.27c0,.33-.06.37-.18.46l-.1.07-.11-.06c-.2-.1-.2-.1-.21-.41a2.07,2.07,0,0,0,0-.28l-.31.19-.3.2h-.18l0-.1c0-.14,0-.19,0-.22s.24-.24.41-.4c.41-.38.39-.36.4-.44a.75.75,0,0,0,0-.23,3,3,0,0,0-.35.24c-.54.38-.48.35-.6.33h-.1l0-.11a.21.21,0,0,1,0-.18,7.43,7.43,0,0,1,.82-.85c.23-.23.24-.24.23-.34a.38.38,0,0,1,0-.15v-.08l-.19.12-.22.15C55,80,55,80,54.93,80s0-.17,0-.47v-.17a1.12,1.12,0,0,0-.24.1.21.21,0,0,0-.06.1.79.79,0,0,1,0,.17s0,.15-.05.21,0,.15,0,.19l-.09.39c-.1.46-.1.47-.27.55s-.08,0-.14,0a.27.27,0,0,1-.09-.1,1.92,1.92,0,0,1,0-.66,2.2,2.2,0,0,0,0-.39s0,0-.06,0L53.7,80c-.08,0-.1.06-.11.12a1.08,1.08,0,0,1,0,.19c0,.07,0,.18-.06.24a6.1,6.1,0,0,1-.16.6.39.39,0,0,1-.23.13c-.05,0-.22-.1-.2-.11a0,0,0,0,0,0,0,3,3,0,0,1,0-.52l0-.25-.06,0-.25.12-.21.1a.72.72,0,0,1-.3-.13s0-.09,0-.25v-.11l.24-.16.24-.16a1,1,0,0,0-.21-.12l-.26-.13L52,79.53c-.07,0-.08,0-.12-.13s0-.17.07-.24.06,0,.66.11l.47.12.14,0,.16-.1a.75.75,0,0,0,.15-.11l-.08,0-.18-.08-.41-.18-.29-.13-.05-.09c0-.1,0-.14.06-.21s.07,0,.1,0l.16,0,.19,0,1.13.27.16-.07c.13-.07.13-.07.11-.11a.35.35,0,0,0-.09-.07c-.09,0-.4-.23-.4-.23a2.21,2.21,0,0,1,.48-.3c.06,0,.06,0,0-.07a.48.48,0,0,0-.24-.16l-.76.21-.71.22-.11-.07-.11-.07,0-.12c0-.11,0-.11.11-.17l.23-.1.39-.17.25-.12a2.37,2.37,0,0,0-.27-.2,1.05,1.05,0,0,0-.24,0l-.24.07-.34.1c-.29.09-.41.1-.44.06s0,0-.06,0-.06,0,0-.15,0-.12.06-.15a3.79,3.79,0,0,1,.45-.2.72.72,0,0,0,.21-.11s0,0-.09-.07l-.1-.08-.12-.07-.15-.11a1.21,1.21,0,0,1-.1-.29v-.08l.12-.06c.12-.08.19-.09.26,0a.33.33,0,0,0,.12,0l.21.1c.07,0,.13.07.14.06s0,0,0-.06,0-.51,0-.57a.44.44,0,0,1,.07-.26c.06-.08.06-.08.22,0s.09,0,.13.15a1.28,1.28,0,0,1,0,.13l0,.17a3.78,3.78,0,0,1,.1.42,1.75,1.75,0,0,0,.1.32.78.78,0,0,0,.31.18,3.64,3.64,0,0,0-.06-.75c0-.3,0-.34,0-.4s.08-.11.21,0,.16.1.24.36.05.15.08.15.07,0,0,0,0,0,0,0a.24.24,0,0,1,0,.08s.06.23.12.45a2.34,2.34,0,0,0,.14.45c.1.08.33.15.28.08a.66.66,0,0,1,0-.15c0-.07,0-.21,0-.31a.72.72,0,0,1,0-.19.12.12,0,0,1,.08,0l.48.31s0,0,.06-.11a1.56,1.56,0,0,0,0-.2c0-.09,0-.12-.76-.82l-.28-.29a.35.35,0,0,1,0-.17c0-.09,0-.12,0-.13a.22.22,0,0,1,.23,0l.13.09.1.07s0,0,.06,0a0,0,0,0,1,0,0s0,0,.1.09l.26.18c.09.06.16.11.17.1a1.6,1.6,0,0,0,0-.33.14.14,0,0,0-.05-.13,5,5,0,0,0-.48-.44c-.31-.27-.32-.27-.34-.37s0-.17.09-.2.11,0,.49.22a3,3,0,0,0,.28.18s0-.07,0-.35,0-.29.21-.41l.13-.08.09.08c.19.18.2.19.23.4a3,3,0,0,1,0,.31s0,0,0,0l.29-.2.29-.21.12,0c.15,0,.19,0,.19.14s0,.16-.16.29l-.63.62s0,.09,0,.21a1.74,1.74,0,0,1,0,.18,6.67,6.67,0,0,0,.66-.48l.09-.08.14,0c.17,0,.2,0,.22.18s0,.14-.21.31l-.54.53c-.36.35-.35.33-.36.37a1.14,1.14,0,0,0,0,.15c0,.16,0,.17,0,.15l.16-.09a1.86,1.86,0,0,0,.25-.14l.13-.06s.05.11,0,.36,0,.26,0,.25l.12,0c.1-.05.11-.07.13-.13l.05-.17a2.23,2.23,0,0,0,.12-.33c0-.12.11-.33.16-.46l.09-.3a.23.23,0,0,1,.19-.2l.1,0,.08.09c.09.13.1.16,0,.68a2.93,2.93,0,0,0-.06.42s.07,0,.13,0a.32.32,0,0,0,.23-.2.21.21,0,0,1,0-.07s.1-.19.2-.4l.23-.44A.37.37,0,0,1,59,75.5c.09,0,.11,0,.15,0a.28.28,0,0,1,.09.23c0,.07-.07.29-.15.57,0,.06,0,.09,0,.1l.22-.05c.32-.09.31-.09.53.08l.08.07,0,.15a.7.7,0,0,1-.06.19.74.74,0,0,1-.19.08l-.21.07-.1,0s0,0,0,0l.15.12a.32.32,0,0,0,.1.09l.05,0a.86.86,0,0,0,.14.14l.11.1,0,.1a.31.31,0,0,1-.21.22c-.12,0-.14,0-.21,0a.61.61,0,0,0-.15-.12,4.39,4.39,0,0,1-.57-.44s0,0-.17,0l-.13.09s0,0,.06.06l.57.33c.17.09.21.13.23.18a.17.17,0,0,1,0,.23c-.09.07-.14.08-.29,0L58.37,78c-.51-.2-.63-.23-.71-.21a.53.53,0,0,0-.16.09l-.08.06.07,0,.11.06.19.12a.9.9,0,0,1,.16.11s0,.07-.13.11l-.26.12a.71.71,0,0,0-.18.11s.18.16.23.17a.72.72,0,0,0,.26,0l.15,0,.79-.18c.3-.07.31-.07.4,0s.12.12.11.21-.07.13-.37.25l-.31.12-.17.07c-.18.07-.18.07-.07.15l.12.08a1.77,1.77,0,0,0,.49-.09l.34-.08.16,0a.25.25,0,0,1,.21,0c.13.07.16.13.13.24s0,.11-.4.26-.32.12-.29.16l.19.15a.68.68,0,0,1,.19.16.47.47,0,0,1,.05.28v.08l-.12.05c-.11,0-.21,0-.24,0l-.1-.06-.23-.12-.14-.07v.37c0,.38,0,.41-.09.53s-.05,0-.11,0Z" transform="translate(0 0)"/><path id="path6386-5" data-name="path6386" class="cls-19" d="M27.76,89.15c-.21.13-.14.13-.65-.09l-.53-.23c-.1,0-.15,0-.3,0l-.13.06.09.06.22.15.61.4.05.08,0,.07-.11.08a.34.34,0,0,1-.18.07,2.39,2.39,0,0,1-.49-.14L26,89.54l-.51-.21c-.07,0-.07,0-.2,0s-.16.09-.1.09l.11.07.25.17a.67.67,0,0,1,.15.11l-.29.14a1.82,1.82,0,0,0-.29.14,1.05,1.05,0,0,0,.26.22l.63-.1c.83-.15.81-.15.92-.08s.14.11.11.18-.12.11-.51.26l-.48.18s-.06,0-.06,0a1.29,1.29,0,0,0,.27.25l.16,0,.28,0,.49-.1a.33.33,0,0,1,.34.06c.05,0,.05,0,0,.11s-.08.16-.44.29c-.19.06-.35.13-.35.13a1.36,1.36,0,0,0,.21.2c.25.22.27.26.28.42v.12l-.12.06c-.2.11-.19.12-.46-.06L26.47,92s0,.18,0,.38v.36l-.06.08-.06.07-.1,0c-.14,0-.18-.08-.19-.12s-.06-.34-.1-.58c-.08-.56-.08-.54-.14-.59l-.19-.14a3.49,3.49,0,0,0,0,.44c0,.68,0,.62-.06.71l-.07.07-.11,0c-.09,0-.12,0-.15-.1A11.27,11.27,0,0,1,25,91.35c-.06-.34-.07-.35-.15-.4l-.14-.08-.06-.05v.23a2.21,2.21,0,0,0,0,.27c0,.1,0,.17,0,.18s-.17-.07-.42-.25L24,91.16a1.33,1.33,0,0,0-.05.26.12.12,0,0,0,.05.1.85.85,0,0,1,.11.14l.15.16.14.15.27.29c.34.37.34.37.31.56s0,.08-.1.11a.23.23,0,0,1-.13,0,2.18,2.18,0,0,1-.55-.4l-.31-.24s0,0,0,.07a1.16,1.16,0,0,1,0,.17c0,.1,0,.12,0,.16l.14.16.16.18c.16.18.39.45.41.49a.36.36,0,0,1,0,.27s-.21.13-.21.11a0,0,0,0,0,0,0,2.47,2.47,0,0,1-.41-.34l-.19-.17v.07s0,.17-.05.28a1,1,0,0,1,0,.24.68.68,0,0,1-.28.18s-.09,0-.22-.13L23.09,94v-.61l-.22.12-.26.14-.12.08c-.07,0-.08,0-.19,0s-.16-.07-.16-.2,0-.08.47-.5l.38-.33.1-.1v-.2a.39.39,0,0,0,0-.19.19.19,0,0,0-.08,0l-.17.1-.39.24-.28.18-.1,0c-.12,0-.14,0-.15-.16a.14.14,0,0,1,0-.11l.13-.11.15-.14c.09-.07.85-.77.88-.81a.59.59,0,0,0,0-.18c0-.15,0-.15,0-.15l-.12,0-.43.2a2.44,2.44,0,0,1,0-.58c0-.07,0-.07,0-.07a.48.48,0,0,0-.28.11s-.13.37-.26.77l-.23.73-.12,0-.12.06-.08-.09c-.09-.08-.09-.08-.08-.19s0-.18,0-.26l.08-.43a1.73,1.73,0,0,0,0-.28,1.74,1.74,0,0,0-.32.11.86.86,0,0,0-.1.24l-.08.24s-.06.17-.11.35-.15.41-.2.41l-.08,0c-.05,0-.06,0-.14,0s-.09-.09-.09-.15,0-.28.08-.49a.64.64,0,0,0,0-.25.29.29,0,0,0-.11,0l-.12,0-.14.06a.5.5,0,0,1-.17.07.78.78,0,0,1-.3-.09l-.08,0v-.13c0-.15,0-.21.12-.24l.12-.07a1.4,1.4,0,0,1,.2-.13.54.54,0,0,0,.14-.08l-.06,0-.5-.29a.39.39,0,0,1-.17-.21c0-.09,0-.09.12-.18s.09-.05.2,0l.14,0,.16.07.42.16.32.1a1.13,1.13,0,0,0,.33-.16,3.09,3.09,0,0,0-.66-.38c-.28-.14-.31-.17-.34-.24s0-.13.09-.2.17-.08.44,0,.16,0,.17,0,.07,0,.06,0,0,0,0,0l.07,0,.45.16a1.65,1.65,0,0,0,.45.13c.14,0,.33-.19.24-.18l-.13-.09-.26-.19c-.08,0-.15-.11-.14-.12s0,0,.07,0a5.44,5.44,0,0,0,.54-.23s0,0-.06-.11L22.07,89c-.09,0-.13,0-1.13.17l-.4.08a.35.35,0,0,1-.16-.07c-.09,0-.11-.07-.1-.1a.21.21,0,0,1,.16-.18l.15-.06a.28.28,0,0,1,.12,0s.05,0,.05,0,0,0,0,0a.4.4,0,0,0,.13,0l.3-.12a.5.5,0,0,0,.18-.08,2.17,2.17,0,0,0-.25-.23.16.16,0,0,0-.15,0,6,6,0,0,0-.64.15c-.41.12-.41.12-.51.08s-.14-.08-.11-.19,0-.11.47-.29l.3-.14s0-.07-.26-.23-.23-.2-.22-.42V87l.12,0c.27-.06.28-.06.47,0l.27.16a.05.05,0,0,0,0,0v-.74l.09-.09c.1-.12.14-.13.23-.08s.11.11.14.31.13.76.16.89,0,.08.15.15l.16.1a5.46,5.46,0,0,0,0-.84V86.8l.1-.11c.12-.13.16-.15.28-.08s.1.1.14.35l.12.77c.09.51.09.49.11.52l.13.09c.14.07.15.08.14.06s0-.1,0-.19,0-.22,0-.29a.4.4,0,0,1,0-.15s.12,0,.32.18.22.14.23.13,0-.08,0-.14,0-.13,0-.18a1,1,0,0,1-.11-.15l-.21-.29-.3-.4-.19-.25a.25.25,0,0,1-.07-.28l0-.11h.12c.17,0,.19,0,.58.39a2.23,2.23,0,0,0,.32.28s0-.06,0-.12a.37.37,0,0,0,0-.32l0-.07s-.09-.19-.21-.41a3,3,0,0,1-.24-.45.22.22,0,0,1,0-.15c0-.09,0-.1.1-.11a.3.3,0,0,1,.25,0c.05,0,.2.23.39.47,0,0,.06.06.08,0l.08-.21c.11-.32.1-.32.38-.4l.11,0,.1.11a.59.59,0,0,1,.12.16.55.55,0,0,1,0,.21l-.07.22,0,.1s0,0,.06,0a.56.56,0,0,1,.18,0L25,86l.05,0,.2,0,.15,0,.07.08a.3.3,0,0,1,.06.31c0,.12-.06.13-.15.15a.64.64,0,0,0-.18.06,5.88,5.88,0,0,1-.7.24c-.05,0-.05,0-.07.16V87l.09,0,.6-.29c.18-.09.23-.1.28-.09s.16.06.18.16,0,.16-.14.26l-.53.37c-.47.33-.56.41-.59.49a.9.9,0,0,0,0,.18v.11l.07,0a.38.38,0,0,1,.12,0l.21-.1.18-.08s0,.09,0,.18l-.05.29a.7.7,0,0,0,0,.22,1.25,1.25,0,0,0,.29-.1,1.08,1.08,0,0,0,.12-.24.81.81,0,0,1,.05-.14c.05-.11.18-.43.32-.78s.12-.3.23-.34.17,0,.23,0,.08.13,0,.46c0,.14-.07.29-.08.33A.93.93,0,0,1,26,88c-.05.19-.05.19.09.14l.13,0a2.21,2.21,0,0,0,.21-.48l.13-.33a1.13,1.13,0,0,0,.06-.16.27.27,0,0,1,.14-.17c.14-.07.2-.06.28,0s.08.07,0,.49-.08.35,0,.34l.24-.08.25-.07a.62.62,0,0,1,.27.12l.06.06,0,.12c0,.12-.08.21-.13.22l-.11.05-.23.12-.14.08.31.21c.33.21.35.23.39.39s0,0-.06.09Z" transform="translate(0 0)"/><path id="path6388-2" data-name="path6388" class="cls-19" d="M38.27,86.84c0-.16-.05-.12.22-.37l.29-.26c.06,0,.07-.08.07-.19v-.1l-.06,0-.15.1-.41.26h-.11v-.08a.28.28,0,0,1,0-.13,1.17,1.17,0,0,1,.22-.26l.18-.17.26-.25s0,0,0-.13,0-.12,0-.08l-.07,0a1.06,1.06,0,0,0-.17.1l-.11.06a1.35,1.35,0,0,1,0-.22.77.77,0,0,0,0-.21.63.63,0,0,0-.2.1,3.27,3.27,0,0,0-.11.41c-.14.54-.14.53-.21.58s-.1,0-.14,0,0-.1,0-.38,0-.3,0-.34,0,0,0,0a.65.65,0,0,0-.23.09l0,.11a1.67,1.67,0,0,1-.05.18c0,.12,0,.22-.07.33a.25.25,0,0,1-.13.19.08.08,0,0,1-.08,0c-.07-.07-.07-.09-.05-.35a1.2,1.2,0,0,0,0-.25l-.17.08c-.2.09-.23.09-.33.05l-.07,0v-.09c0-.15,0-.15.17-.26l.15-.12-.22-.11L36.46,85l0-.05,0-.06.05-.05c.07-.07.09-.09.12-.09l.37.1c.36.11.35.1.39.08a.54.54,0,0,0,.14-.08l-.26-.12c-.41-.18-.37-.16-.4-.23l0-.07.05,0s.07-.06.11-.06a4.69,4.69,0,0,1,.77.18c.22.06.23.06.28,0l.09-.06,0,0L38,84.41l-.17-.08c-.06,0-.1,0-.1-.07a1,1,0,0,1,.27-.18l.09-.06a.5.5,0,0,0-.14-.1.09.09,0,0,0-.07,0l-.11,0-.15,0L37.5,84l-.25.08c-.31.1-.31.1-.42,0s0,0,0-.08a.17.17,0,0,1,0-.09,1.37,1.37,0,0,1,.39-.23l.23-.12,0,0-.1,0c-.06,0-.07,0-.1,0l-.13,0-.16,0-.4.12a.32.32,0,0,1-.16-.09s0-.16,0-.15h0a1.41,1.41,0,0,1,.32-.16l.15-.07,0,0-.15-.1L36.5,83a.53.53,0,0,1,0-.22s.05,0,.14-.09l.07,0,.18.09a.74.74,0,0,0,.18.08,1.26,1.26,0,0,1,0-.16c0-.09,0-.17,0-.2a.31.31,0,0,0,0-.09c0-.06,0-.06,0-.12s.09-.08.16,0,.06,0,.18.42c0,.12.08.27.09.32l0,.09.12.06c.06,0,.11.05.11,0s0,0,0-.06,0-.09,0-.13,0-.18,0-.3l0-.22,0-.06c0-.07.07-.07.14,0a.08.08,0,0,1,.06,0s0,.06,0,.1a.46.46,0,0,1,0,.13c0,.08.23.73.24.76l.1.07c.09,0,.09,0,.1,0a.17.17,0,0,0,0-.08c0-.06,0-.31,0-.31a1.05,1.05,0,0,1,.34.18s0,0,.06,0a.31.31,0,0,0,0-.19s-.18-.18-.38-.37L38,82.37v-.18l.07,0c.07,0,.07,0,.14,0l.14.1.23.16.16.11s0-.2,0-.23a.46.46,0,0,0-.11-.12l-.13-.12-.17-.16c-.16-.14-.21-.2-.2-.24s0,0,0,0,0,0,.07-.07a.12.12,0,0,1,.11,0,3.06,3.06,0,0,1,.27.19l.14.09a.38.38,0,0,0,0-.08v-.08a.16.16,0,0,0,0-.1s0-.11,0-.12a.42.42,0,0,1,.14-.16l0,0,.08,0c.08,0,.11.09.11.14a.25.25,0,0,0,0,.09s0,.1,0,.16a.25.25,0,0,0,0,.11l0,0,.31-.23a.29.29,0,0,1,.18,0c.06,0,.06,0,.07.13s0,.07,0,.13l-.06.07a.28.28,0,0,0-.08.08l-.21.21a.82.82,0,0,0-.15.16.69.69,0,0,0,0,.25s.12-.07.41-.3.19-.14.24-.14.09,0,.09.11,0,.13-.12.27-.07.08-.06.1,0,0,0,0h0l0,0s-.11.11-.21.23a1.5,1.5,0,0,0-.21.24c0,.09,0,.24,0,.19l.08,0,.19-.11s.11-.06.11,0,0,0,0,0,0,.37,0,.4,0,0,.08,0l.12-.07c.05,0,.06-.06.2-.73,0-.12.06-.24.07-.26a.3.3,0,0,1,.08-.08c.06,0,.07,0,.09,0s.07.07.06.14v.11a.19.19,0,0,1,0,.08s0,0,0,0v0s0,0,0,.09a1.7,1.7,0,0,1,0,.21v.13a.74.74,0,0,0,.21-.09.1.1,0,0,0,.05-.08,3.22,3.22,0,0,0,.09-.43c0-.27,0-.28.09-.32s.09-.07.15,0,0,.05,0,.36v.22s.05,0,.21-.09.18-.08.31,0l.1,0,0,.08c0,.17,0,.18-.15.27l-.17.12h0a1.9,1.9,0,0,0,.22.11l.22.09,0,.08c0,.09,0,.12,0,.16s-.1,0-.22,0L41,83.5s-.06,0-.13.06l-.1.07a5.17,5.17,0,0,0,.51.21l.07,0,0,.1c0,.1,0,.13,0,.19s-.09,0-.25,0L40.57,84c-.33-.09-.32-.08-.34-.08l-.09.06c-.08.06-.09.06-.07.07a.44.44,0,0,1,.1.06l.17.1s.08,0,.08.05,0,.06-.19.15-.15.09-.14.1l.08,0c.06,0,.07,0,.11,0l.12,0,.23,0,.32-.08.21,0a.16.16,0,0,1,.18,0l.06,0,0,.08c0,.1-.06.11-.39.24a1.75,1.75,0,0,0-.26.12s0,0,.06.06a.25.25,0,0,0,.2.07H41a1.38,1.38,0,0,0,.31,0l.33,0a.35.35,0,0,1,.09.06s0,.06,0,.09a.17.17,0,0,1-.1.14l-.38.11s-.06,0-.06,0l.11.11c.16.15.16.15.13.34V86l-.09,0a.23.23,0,0,1-.13,0,.26.26,0,0,1-.12-.08l-.11-.1-.05,0s0,0,0,0a.69.69,0,0,1,0,.13.39.39,0,0,0,0,.09.06.06,0,0,1,0,0,.53.53,0,0,1,0,.13l0,.11H40.8a.18.18,0,0,1-.2,0c-.06-.06-.06-.07-.05-.14a.43.43,0,0,0,0-.12,2.17,2.17,0,0,1,0-.49s0,0-.08-.09-.1,0-.1,0,0,0,0,.06,0,.27,0,.44,0,.17,0,.2-.07.08-.14.06-.09,0-.11-.16,0-.24-.08-.42c-.07-.37-.09-.45-.13-.49a.29.29,0,0,0-.11-.06l-.06,0v.43s-.06,0-.12,0l-.16-.11-.12-.07a.59.59,0,0,0,0,.2.76.76,0,0,0,.11.14s0,0,.07.07l.38.41c.14.14.15.15.14.23s0,.11-.08.14-.1,0-.28-.14l-.17-.13-.1-.08c-.11-.08-.11-.08-.11,0a.51.51,0,0,0,0,.1,1.26,1.26,0,0,0,.23.26l.16.17.08.08a.15.15,0,0,1,.06.13c0,.1,0,.14-.09.16s-.07,0-.29-.14-.18-.15-.19-.12,0,.09,0,.17,0,.15,0,.16a.39.39,0,0,1-.15.13l0,0-.07,0c-.06,0-.1-.11-.09-.14v-.08s0-.12,0-.17,0-.11,0-.11a.9.9,0,0,0-.21.13c-.22.14-.23.15-.34.13s0,0,0-.06Z" transform="translate(0 0)"/><path id="path6390-2" data-name="path6390" class="cls-19" d="M36,72.4c0,.1,0,.08-.26.13l-.26.06s-.07,0-.11.08l0,.06h.5l0,0h0l0,.06a.28.28,0,0,1,0,.08,1.44,1.44,0,0,1-.22.07l-.16,0-.25,0s0,0-.07.06,0,.08,0,.06h.28l-.07.13a1.08,1.08,0,0,0-.08.13.45.45,0,0,0,.16,0l.21-.2c.27-.27.27-.27.32-.27s.09,0,.09,0,0,.07-.12.23l-.14.19a0,0,0,0,0,0,0,.5.5,0,0,0,.17,0l0,0a.76.76,0,0,1,.09-.09l.16-.17a.19.19,0,0,1,.14-.07s0,0,0,0,0,.08-.09.22l-.09.14s.06,0,.13,0,.17,0,.21.09l0,0,0,.06c0,.09,0,.09-.19.1h-.13l.09.14.09.14v.09h0c-.07,0-.09,0-.11,0L36.13,74c-.18-.19-.17-.18-.21-.19h-.11l.12.17c.17.25.16.23.15.28v0h-.14L35.55,74c-.11-.11-.12-.12-.16-.11h-.11l.06.09a.79.79,0,0,1,.06.1s.05.07,0,.08h-.22s-.08,0-.08,0a.93.93,0,0,0,0,.1.05.05,0,0,0,.05,0l.07,0,.1,0h.09l.18,0c.22,0,.22,0,.26.13a.06.06,0,0,1,0,.07s0,0,0,0a1.4,1.4,0,0,1-.31,0H35.4s0,0,0,0a.21.21,0,0,1,0,.07s0,0,0,0l.1,0,.1,0,.29.07a.2.2,0,0,1,.06.11.24.24,0,0,1,0,.09h0s-.06,0-.24,0h-.12l0,0a1.29,1.29,0,0,0,.06.12.49.49,0,0,1,0,.1.39.39,0,0,1-.05.14h-.17l-.08-.11a.43.43,0,0,0-.08-.12.79.79,0,0,1,0,.1.85.85,0,0,1-.06.13s0,0,0,.06,0,0-.06.06-.08,0-.11,0,0,0,0-.31c0-.09,0-.19,0-.22l0-.07-.05-.07,0-.07s0,0,0,0l0,.08-.08.19-.06.14,0,0s-.07,0-.1,0a.06.06,0,0,1,0,0s0,0,0-.07a.37.37,0,0,0,0-.09c0-.05.12-.52.12-.54a.27.27,0,0,0,0-.08s0-.06-.05,0a.09.09,0,0,0,0,0l-.11.19a1.25,1.25,0,0,1-.14-.23s0,0,0,0a.35.35,0,0,0-.08.12s.05.17.1.36l.11.33,0,0,0,0h-.06c-.05,0-.05,0-.08-.06a.93.93,0,0,0,0-.1l-.08-.19a1,1,0,0,1-.05-.12.73.73,0,0,0-.1.13.63.63,0,0,0,0,.12s0,.1,0,.11a1.07,1.07,0,0,0,.05.16c0,.14,0,.19,0,.21l0,0s0,0-.07,0l-.07,0-.1-.21a.27.27,0,0,0,0-.11.14.14,0,0,0,0,0l0,0s0,0,0,0a.1.1,0,0,1,0,.07.22.22,0,0,1-.13,0h0l0-.06c0-.06,0-.09,0-.12a.33.33,0,0,0,0-.06.23.23,0,0,1,0-.09l0-.07s0,0,0,0l-.26,0a.16.16,0,0,1-.12,0s0,0,0-.1,0,0,.07-.06l.06,0,.08,0,.2,0,.15,0s.09-.14.08-.15a1.58,1.58,0,0,0-.35,0c-.14,0-.16,0-.19,0s0,0,0-.1,0-.07.17-.11l.07,0s0,0,0,0,0,0,0,0h0l.21-.06.21-.07c0-.05.07-.16,0-.13h-.3s0,0,0,0a1.28,1.28,0,0,0,.14-.23s0,0,0,0h-.09s-.06,0-.38.37l-.13.13-.08,0h-.06a.11.11,0,0,1,0-.11l0-.07s0,0,0,0a0,0,0,0,0,0,0h0s0,0,0,0l.09-.12a.54.54,0,0,0,0-.08l-.15,0a.07.07,0,0,0-.06,0,2,2,0,0,0-.2.23c-.13.15-.13.15-.18.16s-.07,0-.09,0,0-.05.1-.24a.7.7,0,0,0,.08-.12s0,0-.16,0-.13,0-.19-.09l0-.06,0,0c.08-.09.09-.09.18-.1l.15,0s0,0,0,0l-.1-.13-.1-.14v-.06c0-.07,0-.08.07-.09s.07,0,.13.08l.29.29s0,0,.1,0h.09a3.3,3.3,0,0,0-.23-.31l0,0V73c0-.08,0-.1.08-.1s.07,0,.15.09l.24.25c.17.17.16.17.18.17H34l0-.08-.07-.12a.15.15,0,0,1,0-.06s0,0,.17,0,.12,0,.12,0,0,0,0-.06,0,0-.06,0L34,73l-.15,0-.22-.08-.14,0c-.05,0-.07,0-.09-.09l0,0,0,0c.06-.05.07-.05.32,0a.53.53,0,0,0,.19,0,.13.13,0,0,0,0,0,.2.2,0,0,0-.1-.12h0a1.19,1.19,0,0,0-.19-.1,1.12,1.12,0,0,1-.2-.1l0-.07s0,0,0-.07a.11.11,0,0,1,.1,0,1.5,1.5,0,0,1,.27.07s0,0,0,0a.43.43,0,0,0,0-.1c0-.15,0-.15,0-.25l0,0h.07l.09,0s0,.05,0,.09a.41.41,0,0,0,0,.1v0s0,0,0,0l0-.07.05,0a0,0,0,0,0,0,0l.07-.07,0,0h.05a.12.12,0,0,1,.1.1s0,.06,0,.1a.21.21,0,0,0-.05.07,2.37,2.37,0,0,1-.2.27s0,0,0,.08l0,.06,0,0,.15-.27c0-.08.05-.1.08-.11s.07,0,.1,0,0,.06,0,.13l-.1.28c-.09.24-.11.3-.1.34l0,.07,0,0,0,0,0-.06.06-.09,0-.07s0,0,.06.06l.06.12,0,.09a.28.28,0,0,0,.08-.12.25.25,0,0,0,0-.12s0,0,0-.07,0-.21-.08-.37,0-.15,0-.19.05-.06.09,0,.06,0,.12.17a.89.89,0,0,0,.06.15.34.34,0,0,1,0,.08c0,.08,0,.09.07,0l0-.06a1.55,1.55,0,0,0-.05-.23c0-.07,0-.15,0-.16a.56.56,0,0,1,0-.07s0-.06,0-.1.06-.08.12-.07,0,0,.11.19.06.15.08.14l.07-.09s.06-.09.07-.09a.29.29,0,0,1,.14,0h0l0,0s0,.1,0,.11,0,0,0,0l0,.11s0,.06,0,.07h.17c.18,0,.19,0,.24,0s0,0,0,.05Z" transform="translate(0 0)"/><path id="path6394-2" data-name="path6394" class="cls-19" d="M30.13,103.84c-.14-.19-.14-.12,0-.63.08-.25.17-.49.19-.53s0-.15-.05-.3l-.06-.12-.06.09c0,.05-.08.15-.12.23s-.33.59-.34.62l-.08,0-.07,0-.07-.1a.35.35,0,0,1-.09-.17,2.41,2.41,0,0,1,.11-.48l.11-.34c.08-.27.11-.35.17-.51s0-.08,0-.2-.1-.15-.09-.1a.43.43,0,0,1-.06.12l-.15.25a1,1,0,0,1-.09.16,2.17,2.17,0,0,1-.16-.28c-.08-.15-.15-.28-.15-.27a1,1,0,0,0-.2.27s.07.29.15.61c.19.79.19.78.13.89s-.09.15-.16.12-.12-.11-.29-.49-.18-.4-.2-.45,0-.06,0-.06a1.06,1.06,0,0,0-.22.29l0,.15.07.27c0,.18.08.32.12.47a.33.33,0,0,1,0,.34s-.05.06-.1,0-.16-.06-.31-.41a2.44,2.44,0,0,0-.16-.33l-.17.22c-.2.26-.23.29-.38.3H27.2l-.07-.11c-.12-.19-.12-.18,0-.46a2,2,0,0,0,.12-.25h-.72l-.07,0-.07,0,0-.1c0-.14.06-.19.1-.2l.55-.13c.53-.12.51-.12.56-.18a.86.86,0,0,0,.12-.2l-.43,0c-.65,0-.59,0-.68,0l-.08-.06,0-.11c0-.09.05-.12.1-.15a9.18,9.18,0,0,1,1.12-.31c.32-.08.33-.09.37-.17a.47.47,0,0,1,.08-.14l0-.06h-.49c-.1,0-.16,0-.17,0s.05-.17.21-.42a.74.74,0,0,0,.08-.15l-.25,0a.17.17,0,0,0-.1.06l-.12.12-.15.15-.13.15-.27.28c-.32.35-.33.35-.51.34s-.07,0-.11-.09a.35.35,0,0,1,0-.13,2.12,2.12,0,0,1,.34-.56c.12-.17.22-.31.22-.32a.1.1,0,0,0-.07,0H26.6c-.1,0-.11,0-.15,0a1.82,1.82,0,0,1-.14.14l-.17.17a3.6,3.6,0,0,1-.43.44.42.42,0,0,1-.27,0s-.13-.2-.11-.2a0,0,0,0,0,0,0s.06-.12.29-.43l.15-.2h-.07l-.27,0-.23,0a.75.75,0,0,1-.2-.26s0-.09.12-.22l.06-.09h.29l.29,0a1.15,1.15,0,0,0-.12-.2l-.16-.25L25.42,99c-.05-.06-.05-.07,0-.17s.05-.17.17-.17.09,0,.52.42c.13.14.29.29.35.35l.1.09h.18l.19,0a.45.45,0,0,0-.05-.08,1.26,1.26,0,0,1-.11-.17l-.26-.35-.19-.27v-.1c0-.11,0-.14.15-.15a.1.1,0,0,1,.1,0l.12.12a.92.92,0,0,1,.14.14l.83.8.18,0c.15,0,.15,0,.15,0l-.05-.11c-.05-.08-.22-.39-.22-.4a2.2,2.2,0,0,1,.56,0c.06,0,.07,0,.06,0a.45.45,0,0,0-.12-.26l-.76-.2-.71-.18-.06-.11L26.6,98l.07-.09c.08-.09.08-.09.18-.09l.25,0,.42,0,.27,0a1.29,1.29,0,0,0-.13-.31,1,1,0,0,0-.23-.08l-.24-.06-.34-.09c-.29-.07-.4-.11-.41-.16a.2.2,0,0,0,0-.08s0,0,0-.14.08-.09.13-.1l.48,0a.86.86,0,0,0,.24,0s0,0,0-.11a.41.41,0,0,1-.05-.11.93.93,0,0,0-.07-.13.4.4,0,0,1-.07-.16.7.7,0,0,1,.06-.3l0-.08h.13c.14,0,.21,0,.24.11l.08.1.13.19a.48.48,0,0,0,.09.13s0,0,0-.06l.24-.5a.35.35,0,0,1,.19-.19c.09,0,.09,0,.19.11s.05.08,0,.19a.88.88,0,0,1,0,.14.75.75,0,0,0-.05.16c0,.09-.08.27-.13.42a2.78,2.78,0,0,0-.08.32,1.27,1.27,0,0,0,.18.31s.11-.17.32-.67c.12-.28.14-.32.21-.35s.12,0,.2.08.08.16,0,.42,0,.16,0,.18,0,.06,0,0,0,0,0,0l0,.08s-.06.22-.12.45a1.73,1.73,0,0,0-.1.45c.05.12.21.3.2.22a.42.42,0,0,1,.07-.13l.16-.27a.47.47,0,0,1,.11-.15.1.1,0,0,1,.05.07l.26.51s0,0,.1-.07l.11-.16c0-.09,0-.13-.24-1.09a2.65,2.65,0,0,1-.1-.39.47.47,0,0,1,.05-.16c0-.09.06-.11.09-.1a.19.19,0,0,1,.18.14l.07.15a.47.47,0,0,1,.05.1s0,0,0,0,0,0,0,0,0,.07,0,.13.09.18.13.28a.69.69,0,0,0,.09.17,1.48,1.48,0,0,0,.2-.26s0-.07,0-.14a4,4,0,0,0-.19-.62c-.13-.39-.13-.39-.1-.49s.07-.15.17-.12.11,0,.31.44l.15.28s.07,0,.21-.27.18-.23.39-.24h.15l0,.11c.07.26.07.27,0,.46a1.53,1.53,0,0,1-.14.28l0,0a1.79,1.79,0,0,0,.35,0l.36,0,.09.08c.12.09.14.13.1.22s-.1.12-.29.16l-.85.21s-.07.06-.13.16-.08.16-.09.16a5.68,5.68,0,0,0,.81-.08l.11,0,.12.09c.13.1.14.14.09.27s-.09.1-.33.16l-.72.17c-.49.12-.47.11-.5.14l-.07.13c-.07.14-.07.15-.05.14h.6s0,.11-.14.33-.13.21-.11.22l.13,0c.11,0,.13,0,.17,0l.14-.11.26-.23.37-.32a2.93,2.93,0,0,0,.22-.2.26.26,0,0,1,.27-.09l.11,0v.13c0,.15,0,.18-.33.58a2.48,2.48,0,0,0-.25.34l.12,0a.33.33,0,0,0,.3,0l.07,0,.37-.24a2.8,2.8,0,0,1,.42-.26.27.27,0,0,1,.15,0c.09,0,.1,0,.11.09a.27.27,0,0,1,0,.25,5.7,5.7,0,0,1-.42.41s-.06.07-.05.08l.21.07c.32.08.31.08.41.34l0,.1-.1.12a.58.58,0,0,1-.15.12.55.55,0,0,1-.2,0L33,100.6l-.1,0s0,0,0,0l.06.17a1.28,1.28,0,0,1,0,.13.11.11,0,0,1,0,.06s0,.11.06.19l0,.15-.07.07a.28.28,0,0,1-.29.08c-.11,0-.13,0-.15-.14a.83.83,0,0,0-.07-.18,5.36,5.36,0,0,1-.28-.66s0,0-.15,0a.35.35,0,0,0-.17,0,.44.44,0,0,0,0,.08c.06.11.2.34.32.57s.12.21.11.27a.18.18,0,0,1-.14.18c-.11,0-.16,0-.26-.13L31.6,101c-.35-.44-.43-.53-.51-.55a.54.54,0,0,0-.18,0h-.1l0,.07a.6.6,0,0,1,.06.11l.11.2.08.17s-.08,0-.17,0l-.28,0a.51.51,0,0,0-.21,0,.86.86,0,0,0,.12.27.67.67,0,0,0,.23.1l.14,0,.77.25c.29.09.3.1.34.2s.05.17,0,.24-.12.08-.44,0l-.33,0-.18,0c-.18,0-.19,0-.13.09l.07.12a1.61,1.61,0,0,0,.47.18l.32.1.16,0a.25.25,0,0,1,.17.12c.08.13.07.19,0,.28s-.06.08-.47,0-.34,0-.33,0l.09.23a1.63,1.63,0,0,1,.09.23.69.69,0,0,1-.1.27l-.05.07-.12,0c-.11,0-.21-.07-.22-.11a.31.31,0,0,0-.05-.11l-.13-.21a.44.44,0,0,0-.09-.14,2.5,2.5,0,0,0-.18.33c-.18.33-.2.35-.35.4s0,0-.09-.06Z" transform="translate(0 0)"/><path id="path6396-2" data-name="path6396" class="cls-19" d="M34.73,94.8c.12-.14.07-.13.48-.09l.43,0c.08,0,.12,0,.21-.09l.07-.08-.07,0-.2,0-.52-.14s0,0-.05-.05l0,0,.06-.08a.22.22,0,0,1,.11-.09,1.14,1.14,0,0,1,.38,0h.27l.41,0c.06,0,.06,0,.14-.06s.09-.1.05-.09l-.09,0-.22-.06a.36.36,0,0,1-.13,0l.17-.17a1.66,1.66,0,0,0,.18-.17.89.89,0,0,0-.24-.09l-.42.23c-.56.3-.55.29-.64.27s-.12-.05-.12-.11.06-.1.31-.3l.29-.24s0,0,0,0a.8.8,0,0,0-.25-.11l-.11.05-.18.11-.33.18a.23.23,0,0,1-.26,0s-.05,0-.05-.07,0-.13.25-.31a1.25,1.25,0,0,0,.21-.18l-.19-.09c-.23-.1-.26-.12-.3-.23l0-.08.07-.08c.12-.12.11-.12.34-.06l.21,0s0-.13-.07-.27l-.08-.26,0-.07,0-.06H35c.11,0,.15,0,.16,0s.13.23.21.39c.19.38.18.36.24.39l.16.05a1.94,1.94,0,0,0-.1-.32c-.16-.48-.15-.43-.12-.51l0-.07h.09c.08,0,.1,0,.13,0a6.91,6.91,0,0,1,.45.79c.12.22.12.23.19.24l.12,0,.05,0,0-.16c0-.1-.06-.18-.06-.2s0-.12,0-.13.13,0,.35.08l.12,0a.51.51,0,0,0,0-.2s0-.05-.05-.06a.34.34,0,0,1-.11-.07l-.15-.08L36.44,92l-.26-.15c-.32-.17-.33-.18-.35-.32s0-.06.05-.1l.08,0a1.8,1.8,0,0,1,.49.16,1.45,1.45,0,0,0,.28.09.18.18,0,0,0,0,0s0-.08,0-.13,0-.08-.06-.1l-.13-.08-.16-.09L35.93,91a.38.38,0,0,1,0-.21s.12-.14.13-.12h0a1.83,1.83,0,0,1,.37.14l.17.08v-.06s0-.12,0-.21a1.05,1.05,0,0,1,0-.18.48.48,0,0,1,.16-.19s.07,0,.18,0l.08,0,.07.22a.72.72,0,0,0,.07.21l.12-.13.15-.16.07-.09s.05,0,.13-.06.13,0,.15.1,0,.06-.21.47c-.08.12-.16.27-.19.32l-.05.1,0,.14c0,.08,0,.13,0,.13s0,0,0,0l.1-.12a3.13,3.13,0,0,0,.21-.26l.16-.19h.08c.08,0,.11,0,.14.08s0,.07,0,.08l-.06.11s-.06.11-.07.14-.43.75-.44.78a.24.24,0,0,0,0,.13c0,.11,0,.12.05.11l.08-.06.25-.25a1.5,1.5,0,0,1,.11.43s0,0,0,0a.36.36,0,0,0,.17-.15V91.16l.07-.06.07-.07.08,0c.08,0,.08,0,.1.12s0,.13,0,.19l0,.33c0,.11,0,.21,0,.21l.21-.16s0-.1,0-.19v-.46c0-.24,0-.33,0-.34l0,0s0,0,.12,0,.08,0,.09.08a2.31,2.31,0,0,1,.06.37.59.59,0,0,0,0,.19l.07-.06.08-.06.08-.07.11-.09a.8.8,0,0,1,.23,0h.06l0,.1c0,.11,0,.16,0,.2a.29.29,0,0,0-.07.08l-.11.13-.08.09s0,0,.05,0l.42.09a.29.29,0,0,1,.18.11c0,.06,0,.06-.05.16s0,.05-.14.06h-.56a1,1,0,0,0-.26,0s-.2.17-.19.19a1.83,1.83,0,0,0,.56.11c.22,0,.25,0,.29.09s.06.09,0,.17-.1.09-.31.1-.12,0-.13,0,0,0,0,0,0,0,0,0H39a1.08,1.08,0,0,0-.35,0c-.08,0-.18.21-.12.19s.06,0,.11,0l.23.08.13,0s0,0,0,.05-.31.27-.33.29,0,0,.07.06a.34.34,0,0,0,.14,0c.07,0,.1,0,.76-.39l.27-.14H40c.07,0,.09,0,.09,0a.17.17,0,0,1-.07.17l-.1.08-.07.06s0,0,0,0,0,0,0,0l-.08.06-.19.15-.11.1.23.11a.13.13,0,0,0,.12,0,3.67,3.67,0,0,0,.41-.26c.26-.17.27-.18.35-.17s.12,0,.12.11,0,.08-.27.32l-.18.16s0,0,.24.11.21.09.25.24l0,.12-.08,0c-.17.11-.18.11-.33.09l-.24,0h0l.09.26.09.26,0,.08c-.05.11-.07.13-.15.12s-.1-.06-.17-.19l-.32-.6a.33.33,0,0,0-.14-.07l-.14,0a3.65,3.65,0,0,0,.22.59l0,.08,0,.11c-.05.12-.08.13-.18.12s-.1,0-.18-.22l-.27-.51c-.18-.34-.17-.33-.2-.35l-.11,0h-.11a.87.87,0,0,0,0,.14c0,.07,0,.16,0,.21s0,.1,0,.11-.09,0-.27-.05-.18,0-.18,0,0,.06,0,.11,0,.09.07.12l.11.08.21.15.31.22.19.13a.21.21,0,0,1,.12.18v.09l-.08,0c-.12,0-.14,0-.5-.14a1.59,1.59,0,0,0-.3-.12v.1a.23.23,0,0,0,.1.21l0,0,.25.24a2.31,2.31,0,0,1,.27.26.37.37,0,0,1,0,.12c0,.07,0,.08,0,.1a.19.19,0,0,1-.19,0s-.2-.11-.38-.23-.06,0-.07,0a1.54,1.54,0,0,0,0,.17c0,.25,0,.24-.17.37l-.07,0-.1-.06-.13-.08a.47.47,0,0,1,0-.16v-.25s0,0,0,0l-.12.08-.09.06,0,0-.13.08-.1.06-.06,0a.22.22,0,0,1-.12-.2c0-.09,0-.11.08-.14l.11-.09a3.13,3.13,0,0,1,.44-.33s0,0,0-.13,0-.12,0-.12,0,0,0,0l-.36.35C37.06,96,37,96,37,96s-.13,0-.16-.08,0-.11,0-.21l.28-.39c.26-.34.31-.42.31-.49a.79.79,0,0,0,0-.13l0-.07,0,0-.07.06-.13.12-.11.1s0,0-.06-.12,0-.14,0-.22a.41.41,0,0,0,0-.16.89.89,0,0,0-.18.14.65.65,0,0,0,0,.2.59.59,0,0,1,0,.11c0,.09,0,.35,0,.63s0,.24-.09.29-.11.07-.17,0-.08-.08-.1-.33a2.1,2.1,0,0,0,0-.25s0-.09,0-.14,0-.15-.1-.09l-.08.08a1.15,1.15,0,0,0,0,.38c0,.13,0,.25,0,.27s0,.07,0,.12a.17.17,0,0,1-.06.16c-.08.08-.12.09-.2,0s-.07,0-.1-.35,0-.26-.06-.25l-.14.11a.55.55,0,0,1-.16.11.35.35,0,0,1-.22,0l-.06,0v-.1c0-.09,0-.17,0-.18l.07-.06a1.84,1.84,0,0,1,.14-.14l.08-.09a1.94,1.94,0,0,0-.28-.08c-.27-.07-.29-.08-.36-.18s0,0,0-.08Z" transform="translate(0 0)"/><path id="path6398-2" data-name="path6398" class="cls-19" d="M47.34,73.08c.09.06.08,0,.09.29v.27a.15.15,0,0,0,.06.13l.06,0v0a.37.37,0,0,0,0-.12c0-.08,0-.32,0-.34s0,0,0,0l0,0,.06,0s.05,0,.06.07a1.17,1.17,0,0,1,0,.23s0,.1,0,.17,0,.17,0,.26,0,0,0,.08.07,0,.06,0a.18.18,0,0,1,0-.06.52.52,0,0,0,0-.14l0-.09.12.1.11.1a.48.48,0,0,0,0-.15,2.27,2.27,0,0,0-.16-.25c-.22-.33-.22-.32-.21-.38s0-.08.06-.08.07,0,.2.17l.17.17,0,0a.55.55,0,0,0,0-.17l0-.06-.08-.11L48.15,73a.15.15,0,0,1,0-.16s0,0,0,0,.08,0,.2.13l.13.12,0-.12c0-.15.06-.17.12-.2l0,0,.05,0c.09.06.08.06.06.21a1,1,0,0,0,0,.13L49,73l.16-.07h0l0,0v0c0,.06,0,.09,0,.1l-.23.15c-.22.14-.21.14-.22.17s0,.11,0,.11l.18-.08c.29-.13.26-.12.31-.11l0,0v0a.09.09,0,0,1,0,.09l-.45.32c-.13.09-.13.1-.14.14a.22.22,0,0,1,0,.08v0l.1,0,.12,0s.07,0,.08,0a.6.6,0,0,1,0,.22.45.45,0,0,0,0,.08l.12,0a0,0,0,0,0,0,0,.21.21,0,0,0,0-.07l0-.1,0-.08.07-.17c.09-.21.09-.22.17-.24s0,0,.07,0l0,0a.91.91,0,0,1-.06.31.54.54,0,0,0,0,.18h0l.07,0s0,0,.06,0a.29.29,0,0,0,0-.08l0-.11c0-.1.11-.25.12-.27a.19.19,0,0,1,.12,0s.1.07.09.07a0,0,0,0,0,0,0s0,.07-.06.24l0,.12h0l.12,0,.11,0a.38.38,0,0,1,.13.09s0,0,0,.12l0,0-.13,0-.12.06.09.07.11.08.05,0s0,0,0,.07,0,.09,0,.11,0,0-.3-.1l-.21-.1-.06,0-.09,0-.08,0,0,0,.08.06.17.12.13.08v0c0,.05,0,.07,0,.09s0,0,0,0l-.08,0-.08,0-.51-.22s0,0-.08,0-.07,0-.06,0,0,0,0,0l.17.14A1,1,0,0,1,49,75s0,0,0,0a.31.31,0,0,0,.1.1l.37,0,.36,0,0,0,.05,0,0,.05c0,.06,0,.06-.07.07l-.12,0-.19,0c-.07,0-.13,0-.13,0l.11.11h.24l.16,0c.15,0,.2,0,.21,0l0,0s0,0,0,.07,0,.06,0,.07l-.22.06c-.07,0-.11,0-.11,0l0,0a.12.12,0,0,1,0,0l.06,0,.06.06a.59.59,0,0,1,0,.14v0l-.06,0c-.07,0-.1,0-.13,0l0,0a.35.35,0,0,1-.09-.06l-.06,0a0,0,0,0,0,0,0c0,.05,0,.24,0,.27a.27.27,0,0,1-.06.12s0,0-.1,0,0,0,0-.08a.56.56,0,0,0,0-.07V76.1s0-.14,0-.21,0-.14,0-.16a.63.63,0,0,0-.13-.11,1.82,1.82,0,0,0,0,.36c0,.14,0,.16,0,.19s0,0-.1,0-.07-.06-.09-.19,0-.08,0-.08,0,0,0,0,0,0,0,0v0l0-.22a.76.76,0,0,0,0-.22s-.14-.1-.13-.07,0,0,0,.07a1,1,0,0,1,0,.15s0,.08,0,.08,0,0,0,0l-.2-.18s0,0,0,0a.81.81,0,0,0,0,.09s0,.06.29.45l.11.16v.08s0,.06,0,.06-.06,0-.1,0l-.06-.06s0,0,0,0h0a0,0,0,0,1,0,0s0,0,0,0l-.1-.1s-.07-.07-.07-.06a.5.5,0,0,0-.05.15.11.11,0,0,0,0,.07l.18.24c.13.15.13.15.13.2s0,.08-.06.09-.05,0-.21-.15l-.11-.1s0,0-.05.15,0,.14-.13.18l-.07,0,0-.05c-.07-.1-.08-.11-.07-.2a.52.52,0,0,1,0-.15v0l-.15.07-.16.07-.05,0c-.07,0-.09,0-.08-.08s0-.07.1-.12l.35-.24a.22.22,0,0,0,0-.09.51.51,0,0,0,0-.09,2.48,2.48,0,0,0-.35.17l0,0-.07,0c-.08,0-.09,0-.08-.1s0-.07.12-.13l.29-.2.2-.14s0,0,0-.08,0-.08,0-.07l-.08,0-.13,0-.06,0s0,0,0-.17,0-.12,0-.12l-.06,0s-.06,0-.07,0a.59.59,0,0,0,0,.08,1.37,1.37,0,0,0-.08.14l-.11.21a.33.33,0,0,0-.07.13.13.13,0,0,1-.11.08h-.05l0,0c0-.07,0-.08.06-.32a1,1,0,0,0,.05-.19s0,0-.06,0a.18.18,0,0,0-.12.07s0,0,0,0-.06.08-.12.17a2,2,0,0,1-.15.19l-.07,0s0,0-.06,0a.15.15,0,0,1,0-.12l.12-.26s0,0,0,0h-.11c-.15,0-.15,0-.23-.09l0,0,0-.07a.29.29,0,0,1,0-.08l.1,0h.15s0,0,0,0l-.06-.06,0-.06,0,0s0,0,0-.07l-.05-.06,0,0a.14.14,0,0,1,.12-.09c.06,0,.07,0,.09,0a.17.17,0,0,0,.06.06,1.65,1.65,0,0,1,.23.26s0,0,.08,0l.08,0,0,0-.24-.2c-.07-.06-.08-.08-.09-.1s0-.08,0-.11.07,0,.14,0l.26.16c.22.13.27.16.31.15l.08,0,.05,0,0,0,0,0-.08-.07-.07-.06s0,0,.08-.05l.13,0,.09,0s-.07-.09-.09-.11h-.2l-.38,0c-.15,0-.15,0-.19,0s-.05-.06,0-.1,0-.06.19-.09l.15,0,.09,0c.09,0,.09,0,0-.06l0,0A.81.81,0,0,0,47,74h-.24a.1.1,0,0,1-.1,0c-.06,0-.07-.08,0-.13s0,0,.2-.08.17,0,.15,0a.76.76,0,0,0-.07-.09l-.08-.09a.33.33,0,0,1,0-.14v0l.06,0s.1,0,.11,0,0,0,0,0a.61.61,0,0,1,.1.07l.06,0a1.4,1.4,0,0,0,0-.18c0-.18,0-.19.09-.24s0,0,.05,0Z" transform="translate(0 0)"/><path id="path6400-2" data-name="path6400" class="cls-19" d="M27.48,85c.08-.19,0-.16.49-.27l.48-.1c.09,0,.13,0,.19-.17l.06-.11h-.32l-.61,0-.07,0-.06,0,0-.1c0-.08.05-.12.09-.14a1.46,1.46,0,0,1,.4-.15l.3-.08.46-.11c.06,0,.07,0,.12-.12s.07-.14,0-.11h-.53a2.11,2.11,0,0,1,.14-.25,1.47,1.47,0,0,0,.12-.24.9.9,0,0,0-.28,0s-.19.19-.38.39c-.5.52-.49.51-.6.52s-.15,0-.16-.07,0-.14.22-.44l.24-.36s0,0,0-.06a1.05,1.05,0,0,0-.31,0l-.09.1-.17.18-.29.31a.27.27,0,0,1-.26.13c-.06,0-.06,0-.08,0s0-.15.16-.42l.17-.27a1,1,0,0,0-.24,0c-.28,0-.32,0-.4-.15l-.06-.08,0-.1c.09-.18.08-.18.35-.2l.24,0s-.08-.13-.17-.27l-.18-.26v-.16l.09,0c.12,0,.16,0,.19,0l.35.35c.34.35.33.33.4.34h.19A1.68,1.68,0,0,0,27.6,82c-.35-.46-.32-.41-.31-.51v-.09l.1,0c.08,0,.1,0,.15,0a7,7,0,0,1,.75.69c.21.21.22.21.3.2h.2l-.11-.16a1.33,1.33,0,0,0-.13-.19c0-.07-.08-.12-.07-.14a1.39,1.39,0,0,1,.41,0c.08,0,.14,0,.14,0a.83.83,0,0,0-.09-.2.19.19,0,0,0-.09,0l-.14,0-.18,0-.17,0L28,81.28c-.4-.08-.41-.08-.48-.23s0-.06,0-.12a.38.38,0,0,1,.08-.09,2.42,2.42,0,0,1,.58,0h.33s0,0,0-.06l-.08-.13c0-.07-.05-.08-.1-.09l-.17,0L28,80.49a4.78,4.78,0,0,1-.52-.12.37.37,0,0,1-.12-.2.43.43,0,0,1,.09-.18h0s.12,0,.45,0l.22,0,0-.06a1.47,1.47,0,0,0-.11-.21c0-.09-.09-.17-.09-.19a.64.64,0,0,1,.1-.26s.08,0,.22,0h.09l.15.21.15.21.09-.19.1-.23a.28.28,0,0,0,0-.11c0-.07,0-.08.11-.11s.15,0,.21,0,.05.05-.07.58c0,.16-.08.35-.09.42l0,.12.09.14a.44.44,0,0,0,.1.13s0,0,0-.08l.07-.16s.09-.21.14-.36l.11-.26.07,0c.09-.05.12-.05.19,0s0,.06,0,.09a.78.78,0,0,0,0,.14c0,.06,0,.13,0,.17s-.2,1-.2,1a.56.56,0,0,0,.07.14c.06.11.07.11.09.09a.16.16,0,0,0,.06-.09c0-.07.19-.35.2-.35a2.21,2.21,0,0,1,.26.41c0,.06,0,.06.07,0a.48.48,0,0,0,.13-.21s-.1-.32-.21-.66L30,79.8l.05-.1.06-.09h.1c.1,0,.1,0,.15.1l.1.19.15.34.11.22a2.13,2.13,0,0,0,.17-.25s0-.1-.05-.21-.06-.19-.07-.21,0-.14-.09-.29-.11-.36-.07-.38l0-.06s0,0,.12,0,.11,0,.13,0a2.83,2.83,0,0,1,.19.39.49.49,0,0,0,.1.18s0,0,.06-.08l.06-.09.06-.11a.56.56,0,0,1,.09-.13.67.67,0,0,1,.24-.09l.08,0,0,.1c.07.11.08.17,0,.23a.66.66,0,0,0,0,.11l-.08.18-.05.13a.11.11,0,0,0,.06,0l.49,0a.33.33,0,0,1,.22,0c.07.05.07.05,0,.2s0,.07-.13.11l-.11,0-.14,0a3.09,3.09,0,0,1-.37.1l-.27.09a.67.67,0,0,0-.14.28,2.48,2.48,0,0,0,.64-.07c.26,0,.29,0,.35,0s.09.07,0,.18-.08.14-.3.22-.14,0-.13.08,0,.06-.05,0,0,0,0,0l-.07,0-.38.12a1.19,1.19,0,0,0-.38.14c-.07.09-.13.29-.07.24h.56s0,0,0,.07-.24.4-.25.43,0,0,.1,0a1,1,0,0,0,.17,0c.08,0,.1,0,.69-.69.11-.12.21-.24.23-.25a.3.3,0,0,1,.15,0c.08,0,.1,0,.11,0a.18.18,0,0,1,0,.2l-.07.12a.7.7,0,0,1-.06.09l0,0s0,0,0,0l-.07.1-.14.23-.09.14.29,0c.05,0,.07,0,.11-.06a2.94,2.94,0,0,0,.36-.43c.23-.28.23-.28.32-.3s.14,0,.17.07,0,.09-.18.44l-.14.24s.06,0,.3,0,.25,0,.36.17l.07.12-.06.07c-.15.18-.16.19-.34.21l-.27,0h0a1.21,1.21,0,0,0,.18.25l.18.25v.11c0,.13,0,.16-.11.17s-.14,0-.26-.14l-.55-.53s-.07,0-.18,0h-.16a5.93,5.93,0,0,0,.44.56l.07.08,0,.13c0,.14,0,.17-.15.19s-.12,0-.27-.17-.23-.23-.47-.47-.3-.29-.33-.3h-.13c-.14,0-.14,0-.13,0a.35.35,0,0,1,.08.13l.13.22.06.11s-.09,0-.31,0-.22,0-.22,0l.05.11c0,.08.06.09.12.1l.14,0,.29.09L32,84l.26.08a.21.21,0,0,1,.19.16l0,.09-.08.06c-.11.09-.13.09-.58,0a1.6,1.6,0,0,0-.37,0,.45.45,0,0,0,0,.11.33.33,0,0,0,.18.2l.07,0,.35.16a4,4,0,0,1,.38.19.23.23,0,0,1,.06.12c0,.08,0,.1,0,.13a.23.23,0,0,1-.2.09,5,5,0,0,1-.5-.12c-.05,0-.08,0-.08,0a1.33,1.33,0,0,0,.05.19c.08.27.09.26-.06.46l-.06.08-.13,0-.16,0a.53.53,0,0,1-.08-.17l-.06-.18,0-.09s0,0-.05,0-.06.08-.09.13l-.08.09s0,0,0,0a.88.88,0,0,0-.11.13l-.09.1-.09,0a.22.22,0,0,1-.19-.17c0-.11,0-.13,0-.19a.33.33,0,0,0,.09-.13,4.17,4.17,0,0,1,.37-.52s0,0,0-.14l-.09-.12,0,.06-.27.51c-.08.15-.1.19-.15.21a.14.14,0,0,1-.19,0c-.08-.08-.08-.12,0-.26l.18-.52c.15-.46.18-.56.16-.63a.35.35,0,0,0-.08-.13l-.06-.07,0,.06a.73.73,0,0,1-.05.09l-.1.18-.08.14s-.07,0-.11-.11L29.84,84a.58.58,0,0,0-.09-.15s-.13.16-.15.21a.54.54,0,0,0,0,.22.49.49,0,0,1,0,.13c0,.1.09.39.17.69s.07.27,0,.35-.09.11-.17.1-.12,0-.23-.32c0-.11-.1-.23-.11-.26a1.07,1.07,0,0,1-.07-.15c-.06-.16-.06-.16-.13-.06l-.06.11a1.81,1.81,0,0,0,.09.43c0,.14.08.27.08.29s0,.09,0,.14a.24.24,0,0,1,0,.19c-.06.12-.11.15-.21.12s-.09,0-.23-.34-.12-.28-.14-.25a1.31,1.31,0,0,0-.13.17.77.77,0,0,1-.13.17.44.44,0,0,1-.25,0h-.07l0-.1c0-.09,0-.19,0-.21l.05-.09s.07-.14.1-.2a.81.81,0,0,0,.06-.13H28c-.33,0-.35,0-.46-.07s0,0,0-.09Z" transform="translate(0 0)"/><path id="path6402-2" data-name="path6402" class="cls-19" d="M21.54,81.39c-.21-.1-.18,0-.28-.58l-.11-.56c0-.11,0-.15-.18-.23L20.85,80v.37c0,.15,0,.67,0,.71a.28.28,0,0,1,0,.08l0,.07-.12-.05a.29.29,0,0,1-.16-.11,2,2,0,0,1-.15-.47s0-.19-.08-.35-.08-.36-.11-.53,0-.08-.13-.16-.16-.08-.13,0a.38.38,0,0,1,0,.13v.29a.67.67,0,0,1,0,.19l-.27-.16-.27-.16a1,1,0,0,0,0,.33l.43.46c.57.59.56.58.57.71s0,.17-.09.18-.15,0-.49-.27l-.4-.29s-.06,0-.07,0a1.08,1.08,0,0,0-.05.36l.11.11.2.2c.13.14.23.24.35.35a.35.35,0,0,1,.14.31c0,.06,0,.07-.07.09s-.17,0-.48-.2c-.15-.12-.29-.21-.29-.21a1.58,1.58,0,0,0-.05.28c0,.33-.06.37-.18.46l-.09.07-.12-.06c-.2-.11-.2-.1-.21-.41a1,1,0,0,0,0-.28,2.45,2.45,0,0,0-.31.19l-.3.19h-.18l0-.11c0-.14,0-.18,0-.22l.41-.39c.41-.38.39-.37.4-.45s0-.21,0-.23l-.36.24c-.54.38-.48.35-.6.34h-.1l0-.12a.22.22,0,0,1,0-.18,11,11,0,0,1,.82-.84c.24-.23.25-.25.23-.34a.85.85,0,0,1,0-.16v-.08l-.19.12-.22.15c-.08.06-.14.09-.16.08a1.68,1.68,0,0,1,0-.48.7.7,0,0,0,0-.16,1.07,1.07,0,0,0-.23.1.13.13,0,0,0-.06.09l-.05.17c0,.06,0,.15-.05.21s0,.15,0,.2-.05.22-.08.38c-.11.47-.11.47-.28.55s-.07,0-.14,0a.25.25,0,0,1-.09-.09,2.36,2.36,0,0,1,0-.67,2.18,2.18,0,0,0,0-.39.12.12,0,0,0-.06,0l-.15.09c-.08.05-.09.06-.1.12l0,.2c0,.07-.05.17-.06.23a6.1,6.1,0,0,1-.16.6.43.43,0,0,1-.23.14s-.22-.1-.2-.12,0,0,0,0a2.62,2.62,0,0,1,0-.52l0-.25-.07,0-.25.12-.21.1a.78.78,0,0,1-.3-.13s0-.1,0-.26v-.1l.24-.16.25-.17-.22-.11-.25-.13L15,79.61c-.08,0-.09,0-.13-.13s0-.18.07-.24.06-.06.66.1l.47.12.14,0,.16-.1c.09,0,.16-.1.15-.11s0,0-.08,0l-.18-.09-.4-.18-.3-.13-.05-.09c0-.1,0-.13.06-.21a.11.11,0,0,1,.1,0l.16,0,.19,0,1.13.27.17-.07c.12-.08.13-.08.1-.11a.38.38,0,0,0-.09-.08c-.09,0-.39-.22-.4-.23a2,2,0,0,1,.48-.29c.06,0,.07,0,0-.08a.56.56,0,0,0-.24-.16l-.76.22-.71.21-.11-.07-.11-.06,0-.12c0-.12,0-.12.12-.17l.22-.11.39-.17a1.39,1.39,0,0,0,.25-.12,1.72,1.72,0,0,0-.27-.2l-.24,0-.24.07-.34.1c-.29.09-.41.11-.44.07l-.06,0s-.06,0,0-.14,0-.13.07-.16a4.43,4.43,0,0,1,.44-.2.76.76,0,0,0,.22-.11l-.09-.07c-.05,0-.1-.06-.1-.07l-.13-.08a.46.46,0,0,1-.14-.1.76.76,0,0,1-.1-.29l0-.09.12-.06c.13-.07.2-.08.26,0l.12.06.21.09.14.07s0,0,0-.07,0-.51,0-.57a.35.35,0,0,1,.07-.26c.06-.08.06-.08.21,0s.09,0,.13.15l0,.13a1,1,0,0,0,.05.18c0,.08.06.27.1.42a1.5,1.5,0,0,0,.09.32,1.12,1.12,0,0,0,.31.18,2.86,2.86,0,0,0-.06-.75c0-.3,0-.35,0-.41s.09-.1.22,0,.15.1.23.36.06.16.09.15.07,0,0,.06,0,0,0,0,0,.05,0,.08.06.22.12.45a1.63,1.63,0,0,0,.15.44c.1.09.32.16.27.09v-.15a3.11,3.11,0,0,0,0-.32.44.44,0,0,1,0-.18s0,0,.08,0a4.1,4.1,0,0,0,.48.31s0,0,.05-.11a1.56,1.56,0,0,0,0-.2c0-.09,0-.12-.76-.82a3,3,0,0,1-.28-.29.46.46,0,0,1,0-.16c0-.1,0-.12,0-.13a.21.21,0,0,1,.23,0,.94.94,0,0,0,.14.1.28.28,0,0,1,.09.06s.05,0,.06,0,0,0,0,0a.4.4,0,0,0,.11.09l.25.17.17.11a1.6,1.6,0,0,0,0-.33.13.13,0,0,0-.05-.14c-.1-.1-.22-.21-.48-.43s-.31-.27-.33-.38,0-.16.08-.2.11,0,.5.23l.27.17s0-.07,0-.34,0-.3.2-.41l.14-.09.08.08c.2.18.2.2.23.4a3,3,0,0,1,0,.31v.05l.29-.2.29-.21H20c.15,0,.19,0,.2.15s0,.15-.17.29-.54.52-.63.62,0,.08,0,.2v.19a5,5,0,0,0,.66-.49l.09-.07h.15c.16,0,.19,0,.21.19s0,.14-.21.31l-.54.52c-.36.35-.35.34-.35.37a.41.41,0,0,0,0,.16c0,.15,0,.16,0,.15l.16-.09.26-.14a.31.31,0,0,1,.12-.06s.05.1,0,.36,0,.25,0,.25l.13-.06c.09,0,.1-.06.12-.13l.06-.16c0-.06.07-.2.11-.33s.12-.34.16-.47a2.51,2.51,0,0,0,.09-.29c0-.12.07-.17.19-.21l.11,0,.07.1c.1.13.1.15,0,.68a2.06,2.06,0,0,0-.05.42l.12,0a.37.37,0,0,0,.24-.21.24.24,0,0,1,0-.07,4.17,4.17,0,0,0,.21-.4,2.58,2.58,0,0,1,.23-.43.2.2,0,0,1,.14-.07c.08,0,.1,0,.14,0a.28.28,0,0,1,.09.23,4.44,4.44,0,0,1-.15.58s0,.09,0,.09l.21,0c.32-.09.31-.09.53.09l.09.07,0,.15a.41.41,0,0,1-.06.18.43.43,0,0,1-.19.08l-.21.07-.1,0s0,0,0,.06a.71.71,0,0,1,.15.12l.1.09.05,0,.14.13.11.11,0,.09a.28.28,0,0,1-.21.22c-.12,0-.14,0-.21,0a.65.65,0,0,0-.15-.11,5.49,5.49,0,0,1-.57-.44s0,0-.16,0l-.14.1s0,0,.07,0,.34.2.56.33.21.13.23.18a.17.17,0,0,1,0,.23c-.08.08-.14.08-.29,0l-.58-.23c-.52-.19-.64-.23-.72-.2l-.16.08-.08.07.07,0,.11.07.19.12.16.1s0,.08-.13.12l-.26.12a.55.55,0,0,0-.18.1,1,1,0,0,0,.24.18.69.69,0,0,0,.25,0l.15,0,.79-.17c.3-.07.31-.07.4,0s.13.11.11.2-.06.14-.37.25l-.31.13-.17.07c-.18.06-.18.07-.07.14l.12.08a1.45,1.45,0,0,0,.5-.09l.33-.08.16,0c.11,0,.13,0,.21,0s.16.12.14.24,0,.1-.4.25-.33.13-.3.16l.19.15.2.16a.6.6,0,0,1,0,.29v.08l-.12,0a.26.26,0,0,1-.24,0l-.1-.07a1.24,1.24,0,0,1-.22-.12l-.15-.07s0,.17,0,.38c0,.38,0,.41-.1.52s0,0-.11,0Z" transform="translate(0 0)"/></svg>